<?xml version="1.0" encoding="us-ascii" standalone="no"?><svg xmlns="http://www.w3.org/2000/svg" xmlns:xlink="http://www.w3.org/1999/xlink" contentStyleType="text/css" height="438px" preserveAspectRatio="none" style="width:729px;height:438px;background:#FFFFFF;" version="1.1" viewBox="0 0 729 438" width="729px" zoomAndPan="magnify"><defs/><g><!--cluster crearGrado--><g id="cluster_crearGrado"><path d="M8.5,109 L99.5,109 A3.75,3.75 0 0 1 102,111.5 L109,132.6094 L469.5,132.6094 A2.5,2.5 0 0 1 472,135.1094 L472,428.5 A2.5,2.5 0 0 1 469.5,431 L8.5,431 A2.5,2.5 0 0 1 6,428.5 L6,111.5 A2.5,2.5 0 0 1 8.5,109 " fill="none" style="stroke:#000000;stroke-width:1.5;"/><line style="stroke:#000000;stroke-width:1.5;" x1="6" x2="109" y1="132.6094" y2="132.6094"/><text fill="#000000" font-family="sans-serif" font-size="14" font-weight="bold" lengthAdjust="spacing" textLength="90" x="10" y="125.5332">crearGrado()</text></g><!--entity CrearGradoView--><g id="elem_CrearGradoView"><rect fill="#629EF9" height="37.6094" rx="2.5" ry="2.5" style="stroke:#181818;stroke-width:0.5;" width="125" x="237.5" y="145"/><text fill="#000000" font-family="sans-serif" font-size="14" lengthAdjust="spacing" textLength="105" x="247.5" y="169.5332">CrearGradoView</text></g><!--entity GradoController--><g id="elem_GradoController"><rect fill="#B5BD68" height="37.6094" rx="2.5" ry="2.5" style="stroke:#181818;stroke-width:0.5;" width="122" x="182" y="261"/><text fill="#000000" font-family="sans-serif" font-size="14" lengthAdjust="spacing" textLength="102" x="192" y="285.5332">GradoController</text></g><!--entity GradoRepository--><g id="elem_GradoRepository"><rect fill="#F2AC4E" height="37.6094" rx="2.5" ry="2.5" style="stroke:#181818;stroke-width:0.5;" width="128" x="117" y="377"/><text fill="#000000" font-family="sans-serif" font-size="14" lengthAdjust="spacing" textLength="108" x="127" y="401.5332">GradoRepository</text></g><!--entity Grado--><g id="elem_Grado"><rect fill="#F2AC4E" height="37.6094" rx="2.5" ry="2.5" style="stroke:#181818;stroke-width:0.5;" width="60" x="374" y="377"/><text fill="#000000" font-family="sans-serif" font-size="14" lengthAdjust="spacing" textLength="40" x="384" y="401.5332">Grado</text></g><!--entity GradosAbierto--><g id="elem_GradosAbierto"><rect fill="#CDEBA5" height="37.6094" rx="2.5" ry="2.5" style="stroke:#181818;stroke-width:0.5;" width="120" x="240" y="7"/><text fill="#000000" font-family="sans-serif" font-size="14" lengthAdjust="spacing" textLength="100" x="250" y="31.5332">:Grados Abierto</text></g><!--entity GradoAbierto--><g id="elem_GradoAbierto"><rect fill="#CDEBA5" height="37.6094" rx="2.5" ry="2.5" style="stroke:#181818;stroke-width:0.5;" width="113" x="488.5" y="261"/><text fill="#000000" font-family="sans-serif" font-size="14" lengthAdjust="spacing" textLength="93" x="498.5" y="285.5332">:Grado Abierto</text></g><!--link GradosAbierto to CrearGradoView--><g id="link_GradosAbierto_CrearGradoView"><path d="M277.32,45.15 C260.33,58.74 240,75 240,75 C240,75 240,93 240,93 C240,93 262.8649,119.6748 280.6449,140.4148 " fill="none" id="GradosAbierto-to-CrearGradoView" style="stroke:#181818;stroke-width:1.0;"/><polygon fill="#181818" points="284.55,144.97,281.7292,135.5337,281.2957,141.174,275.6555,140.7406,284.55,144.97" style="stroke:#181818;stroke-width:1.0;"/><text fill="#000000" font-family="sans-serif" font-size="13" lengthAdjust="spacing" textLength="72" x="241" y="89.4951">crearGrado()</text></g><!--link CrearGradoView to GradosAbierto--><g id="link_CrearGradoView_GradosAbierto"><path d="M304.64,144.97 C309.97,124.23 318,93 318,93 C318,93 318,75 318,75 C318,75 314.0045,64.3588 308.9145,50.7688 " fill="none" id="CrearGradoView-to-GradosAbierto" style="stroke:#181818;stroke-width:1.0;stroke-dasharray:7.0,7.0;"/><polygon fill="#181818" points="306.81,45.15,306.2208,54.9812,308.5637,49.8324,313.7126,52.1753,306.81,45.15" style="stroke:#181818;stroke-width:1.0;"/><text fill="#000000" font-family="sans-serif" font-size="13" lengthAdjust="spacing" textLength="63" x="319" y="89.4951">&#171;cancelar&#187;</text></g><!--link CrearGradoView to GradoController--><g id="link_CrearGradoView_GradoController"><path d="M282.23,183.15 C268.92,196.74 253,213 253,213 C253,213 249.5882,235.4876 246.6282,255.0376 " fill="none" id="CrearGradoView-to-GradoController" style="stroke:#181818;stroke-width:1.0;"/><polygon fill="#181818" points="245.73,260.97,251.0322,252.6702,246.4785,256.0263,243.1224,251.4726,245.73,260.97" style="stroke:#181818;stroke-width:1.0;"/><text fill="#000000" font-family="sans-serif" font-size="13" lengthAdjust="spacing" textLength="247" x="254" y="227.4951">crear(codigo, nombre, descripcion) : Grado</text></g><!--link GradoController to GradoRepository--><g id="link_GradoController_GradoRepository"><path d="M181.9,296.52 C126.68,310.54 54,329 54,329 C54,329 54,347 54,347 C54,347 91.6974,361.2489 127.7374,374.8689 " fill="none" id="GradoController-to-GradoRepository" style="stroke:#181818;stroke-width:1.0;"/><polygon fill="#181818" points="133.35,376.99,126.3452,370.0667,128.6728,375.2224,123.5171,377.5501,133.35,376.99" style="stroke:#181818;stroke-width:1.0;"/><text fill="#000000" font-family="sans-serif" font-size="13" lengthAdjust="spacing" textLength="180" x="55" y="343.4951">existeCodigo(codigo) : Boolean</text></g><!--link GradoController to GradoRepository--><g id="link_GradoController_GradoRepository"><path d="M242.18,299.03 C241.29,318.58 240,347 240,347 C240,347 224.6638,359.4729 207.9638,373.0629 " fill="none" id="GradoController-to-GradoRepository-1" style="stroke:#181818;stroke-width:1.0;"/><polygon fill="#181818" points="203.31,376.85,212.8154,374.2718,207.1882,373.6941,207.7659,368.0668,203.31,376.85" style="stroke:#181818;stroke-width:1.0;"/><text fill="#000000" font-family="sans-serif" font-size="13" lengthAdjust="spacing" textLength="83" x="241" y="343.4951">guardar(grado)</text></g><!--link GradoController to Grado--><g id="link_GradoController_Grado"><path d="M276.77,299.01 C302.31,312.63 333,329 333,329 C333,329 359.1865,353.3338 380.2065,372.8838 " fill="none" id="GradoController-to-Grado" style="stroke:#181818;stroke-width:1.0;"/><polygon fill="#181818" points="384.6,376.97,380.7339,367.9117,380.9388,373.5648,375.2856,373.7696,384.6,376.97" style="stroke:#181818;stroke-width:1.0;"/><text fill="#000000" font-family="sans-serif" font-size="13" lengthAdjust="spacing" textLength="50" x="353" y="343.4951">&#171;create&#187;</text></g><!--link CrearGradoView to GradoAbierto--><g id="link_CrearGradoView_GradoAbierto"><path d="M362.65,179.6 C423.25,193.72 506,213 506,213 C506,213 519.75,236.253 531.29,255.803 " fill="none" id="CrearGradoView-to-GradoAbierto" style="stroke:#181818;stroke-width:1.0;stroke-dasharray:7.0,7.0;"/><polygon fill="#181818" points="534.34,260.97,533.2097,251.1862,531.7984,256.6642,526.3204,255.2528,534.34,260.97" style="stroke:#181818;stroke-width:1.0;"/><text fill="#000000" font-family="sans-serif" font-size="13" lengthAdjust="spacing" textLength="204" x="517" y="227.4951">&#171;finalizar&#187; editarGrado(gradoNuevo)</text></g><!--SRC=[ZP1DRy8m38Rl-HLMTm49EA211aALIWUxxR33xcxgLH4XhfAmZKtxxsjQFej0v9RuyME_SIjbIhIu1gqC-Mr9KBBUXeiGbgH7KsY2X_HvCKz644rVBERi8CaKMSyHe8FcQVSYH8boXGM1j8IshWKeEbuxtGX-XO3gd4mO3oUBvGJI0_QkwAiDPQCi7pyr4rCsthBMPDlKSfYaZuk6UgEIdV9ijxSeyNSZxMNOGzQpwD3lnwtzOGgdkOLebKD7Ayo-fICvLmNtmF0wizI3d9oqgfIAJRU2chr5k_jWF0QlOFfMpbDQ6tVYu9WpQq9pNL8nirbOnrCStpchsA3Dg_sBKBcCF1Z4PvzOZ_XG1hNwGHl7GBdo-n-h7QyR-gn4rppkL2JHIDB18_u1]--></g></svg>