<?xml version="1.0" encoding="us-ascii" standalone="no"?><svg xmlns="http://www.w3.org/2000/svg" xmlns:xlink="http://www.w3.org/1999/xlink" contentStyleType="text/css" height="438px" preserveAspectRatio="none" style="width:720px;height:438px;background:#FFFFFF;" version="1.1" viewBox="0 0 720 438" width="720px" zoomAndPan="magnify"><defs/><g><!--cluster crearGrado--><g id="cluster_crearGrado"><path d="M8.5,109 L99.5,109 A3.75,3.75 0 0 1 102,111.5 L109,132.6094 L469.5,132.6094 A2.5,2.5 0 0 1 472,135.1094 L472,428.5 A2.5,2.5 0 0 1 469.5,431 L8.5,431 A2.5,2.5 0 0 1 6,428.5 L6,111.5 A2.5,2.5 0 0 1 8.5,109 " fill="none" style="stroke:#000000;stroke-width:1.5;"/><line style="stroke:#000000;stroke-width:1.5;" x1="6" x2="109" y1="132.6094" y2="132.6094"/><text fill="#000000" font-family="sans-serif" font-size="14" font-weight="bold" lengthAdjust="spacing" textLength="90" x="10" y="125.5332">crearGrado()</text></g><!--entity CrearGradoView--><g id="elem_CrearGradoView"><rect fill="#629EF9" height="37.6094" rx="2.5" ry="2.5" style="stroke:#181818;stroke-width:0.5;" width="125" x="274.5" y="145"/><text fill="#000000" font-family="sans-serif" font-size="14" lengthAdjust="spacing" textLength="105" x="284.5" y="169.5332">CrearGradoView</text></g><!--entity GradoController--><g id="elem_GradoController"><rect fill="#B5BD68" height="37.6094" rx="2.5" ry="2.5" style="stroke:#181818;stroke-width:0.5;" width="122" x="218" y="261"/><text fill="#000000" font-family="sans-serif" font-size="14" lengthAdjust="spacing" textLength="102" x="228" y="285.5332">GradoController</text></g><!--entity GradoRepository--><g id="elem_GradoRepository"><rect fill="#F2AC4E" height="37.6094" rx="2.5" ry="2.5" style="stroke:#181818;stroke-width:0.5;" width="128" x="117" y="377"/><text fill="#000000" font-family="sans-serif" font-size="14" lengthAdjust="spacing" textLength="108" x="127" y="401.5332">GradoRepository</text></g><!--entity Grado--><g id="elem_Grado"><rect fill="#F2AC4E" height="37.6094" rx="2.5" ry="2.5" style="stroke:#181818;stroke-width:0.5;" width="60" x="374" y="377"/><text fill="#000000" font-family="sans-serif" font-size="14" lengthAdjust="spacing" textLength="40" x="384" y="401.5332">Grado</text></g><!--entity GradosAbierto--><g id="elem_GradosAbierto"><rect fill="#CDEBA5" height="37.6094" rx="2.5" ry="2.5" style="stroke:#181818;stroke-width:0.5;" width="120" x="277" y="7"/><text fill="#000000" font-family="sans-serif" font-size="14" lengthAdjust="spacing" textLength="100" x="287" y="31.5332">:Grados Abierto</text></g><!--entity GradoAbierto--><g id="elem_GradoAbierto"><rect fill="#CDEBA5" height="37.6094" rx="2.5" ry="2.5" style="stroke:#181818;stroke-width:0.5;" width="113" x="488.5" y="261"/><text fill="#000000" font-family="sans-serif" font-size="14" lengthAdjust="spacing" textLength="93" x="498.5" y="285.5332">:Grado Abierto</text></g><!--link GradosAbierto to CrearGradoView--><g id="link_GradosAbierto_CrearGradoView"><path d="M314.32,45.15 C297.33,58.74 277,75 277,75 C277,75 277,93 277,93 C277,93 299.8649,119.6748 317.6449,140.4148 " fill="none" id="GradosAbierto-to-CrearGradoView" style="stroke:#181818;stroke-width:1.0;"/><polygon fill="#181818" points="321.55,144.97,318.7292,135.5337,318.2957,141.174,312.6555,140.7406,321.55,144.97" style="stroke:#181818;stroke-width:1.0;"/><text fill="#000000" font-family="sans-serif" font-size="13" lengthAdjust="spacing" textLength="72" x="278" y="89.4951">crearGrado()</text></g><!--link CrearGradoView to GradosAbierto--><g id="link_CrearGradoView_GradosAbierto"><path d="M341.64,144.97 C346.97,124.23 355,93 355,93 C355,93 355,75 355,75 C355,75 351.0045,64.3588 345.9145,50.7688 " fill="none" id="CrearGradoView-to-GradosAbierto" style="stroke:#181818;stroke-width:1.0;stroke-dasharray:7.0,7.0;"/><polygon fill="#181818" points="343.81,45.15,343.2208,54.9812,345.5637,49.8324,350.7126,52.1753,343.81,45.15" style="stroke:#181818;stroke-width:1.0;"/><text fill="#000000" font-family="sans-serif" font-size="13" lengthAdjust="spacing" textLength="63" x="356" y="89.4951">&#171;cancelar&#187;</text></g><!--link CrearGradoView to GradoController--><g id="link_CrearGradoView_GradoController"><path d="M327.81,183.06 C317.01,204.28 301.9213,233.9526 291.0613,255.2926 " fill="none" id="CrearGradoView-to-GradoController" style="stroke:#181818;stroke-width:1.0;"/><polygon fill="#181818" points="288.34,260.64,295.9869,254.4331,290.6078,256.1838,288.857,250.8047,288.34,260.64" style="stroke:#181818;stroke-width:1.0;"/><text fill="#000000" font-family="sans-serif" font-size="13" lengthAdjust="spacing" textLength="173" x="312" y="227.4951">crear(codigo, nombre) : Grado</text></g><!--link GradoController to GradoRepository--><g id="link_GradoController_GradoRepository"><path d="M217.81,294.05 C151.19,308.27 54,329 54,329 C54,329 54,347 54,347 C54,347 91.6974,361.2489 127.7374,374.8689 " fill="none" id="GradoController-to-GradoRepository" style="stroke:#181818;stroke-width:1.0;"/><polygon fill="#181818" points="133.35,376.99,126.3452,370.0667,128.6728,375.2224,123.5171,377.5501,133.35,376.99" style="stroke:#181818;stroke-width:1.0;"/><text fill="#000000" font-family="sans-serif" font-size="13" lengthAdjust="spacing" textLength="180" x="55" y="343.4951">existeCodigo(codigo) : Boolean</text></g><!--link GradoController to GradoRepository--><g id="link_GradoController_GradoRepository"><path d="M268.34,299.03 C256.8,318.58 240,347 240,347 C240,347 224.6638,359.4729 207.9638,373.0629 " fill="none" id="GradoController-to-GradoRepository-1" style="stroke:#181818;stroke-width:1.0;"/><polygon fill="#181818" points="203.31,376.85,212.8154,374.2718,207.1882,373.6941,207.7659,368.0668,203.31,376.85" style="stroke:#181818;stroke-width:1.0;"/><text fill="#000000" font-family="sans-serif" font-size="13" lengthAdjust="spacing" textLength="83" x="251" y="343.4951">guardar(grado)</text></g><!--link GradoController to Grado--><g id="link_GradoController_Grado"><path d="M303.2,299.15 C321.32,312.74 343,329 343,329 C343,329 365.1986,353.0127 383.2586,372.5627 " fill="none" id="GradoController-to-Grado" style="stroke:#181818;stroke-width:1.0;"/><polygon fill="#181818" points="387.33,376.97,384.1611,367.6449,383.9372,373.2973,378.2848,373.0733,387.33,376.97" style="stroke:#181818;stroke-width:1.0;"/><text fill="#000000" font-family="sans-serif" font-size="13" lengthAdjust="spacing" textLength="50" x="360" y="343.4951">&#171;create&#187;</text></g><!--link CrearGradoView to GradoAbierto--><g id="link_CrearGradoView_GradoAbierto"><path d="M395.91,183.01 C440.46,196.63 494,213 494,213 C494,213 512.2924,236.6715 527.3924,256.2215 " fill="none" id="CrearGradoView-to-GradoAbierto" style="stroke:#181818;stroke-width:1.0;stroke-dasharray:7.0,7.0;"/><polygon fill="#181818" points="531.06,260.97,528.7242,251.4021,528.0036,257.0129,522.3929,256.2923,531.06,260.97" style="stroke:#181818;stroke-width:1.0;"/><text fill="#000000" font-family="sans-serif" font-size="13" lengthAdjust="spacing" textLength="204" x="508" y="227.4951">&#171;finalizar&#187; editarGrado(gradoNuevo)</text></g><!--SRC=[ZP0nRy8m48Lt_ufJke1K65111Q588GtTEdJeVackaOMn8zkqJQl-zze91302rPlltdtltfaDbpLgt8BWacnJ4zHADFx3cAR2egm4mLtwbAsIAKIBPusbCf3adBHL4Q21hhIlC5PZiS6AeD24kkrvKNJy3eOH_306xfqup2RpR3s7j9UzSVeCHVaqBsUFdMEgfDLA2DAXQZr9qeUiKxrIhGotIZUtLEptHjhBi7tMi-Wm6iN1_h20qzoC1Mq_4OGvZ0mALV9AtODKsrpJqDMxLLauq4EEMPsOlhYnbBQGFSipLae9GdaTuZJBfT_0KXp_qwlQeIxTofNlNAOSZ-EpkxKMxroYuD-eunYevFPmf9RnigCF1xh6CQUW0cL1mdFO7m00]--></g></svg>