<?xml version="1.0" encoding="us-ascii" standalone="no"?><svg xmlns="http://www.w3.org/2000/svg" xmlns:xlink="http://www.w3.org/1999/xlink" contentStyleType="text/css" height="969px" preserveAspectRatio="none" style="width:1333px;height:969px;background:#FFFFFF;" version="1.1" viewBox="0 0 1333 969" width="1333px" zoomAndPan="magnify"><defs/><g><rect fill="none" height="424.4063" style="stroke:#000000;stroke-width:1.5;" width="1102.5" x="10" y="446.4766"/><line style="stroke:#181818;stroke-width:0.5;stroke-dasharray:5.0,5.0;" x1="50" x2="50" y1="82.6094" y2="887.8828"/><line style="stroke:#181818;stroke-width:0.5;stroke-dasharray:5.0,5.0;" x1="255.5" x2="255.5" y1="82.6094" y2="887.8828"/><line style="stroke:#181818;stroke-width:0.5;stroke-dasharray:5.0,5.0;" x1="386.5" x2="386.5" y1="82.6094" y2="887.8828"/><line style="stroke:#181818;stroke-width:0.5;stroke-dasharray:5.0,5.0;" x1="552" x2="552" y1="82.6094" y2="887.8828"/><line style="stroke:#181818;stroke-width:0.5;stroke-dasharray:5.0,5.0;" x1="749.5" x2="749.5" y1="82.6094" y2="887.8828"/><line style="stroke:#181818;stroke-width:0.5;stroke-dasharray:5.0,5.0;" x1="914.5" x2="914.5" y1="82.6094" y2="887.8828"/><line style="stroke:#181818;stroke-width:0.5;stroke-dasharray:5.0,5.0;" x1="1107" x2="1107" y1="82.6094" y2="887.8828"/><line style="stroke:#181818;stroke-width:0.5;stroke-dasharray:5.0,5.0;" x1="1290" x2="1290" y1="82.6094" y2="887.8828"/><text fill="#000000" font-family="sans-serif" font-size="14" lengthAdjust="spacing" textLength="54" x="20" y="79.5332">Profesor</text><ellipse cx="50" cy="13.5" fill="#E2E2F0" rx="8" ry="8" style="stroke:#181818;stroke-width:0.5;"/><path d="M50,21.5 L50,48.5 M37,29.5 L63,29.5 M50,48.5 L37,63.5 M50,48.5 L63,63.5 " fill="none" style="stroke:#181818;stroke-width:0.5;"/><text fill="#000000" font-family="sans-serif" font-size="14" lengthAdjust="spacing" textLength="54" x="20" y="901.416">Profesor</text><ellipse cx="50" cy="912.9922" fill="#E2E2F0" rx="8" ry="8" style="stroke:#181818;stroke-width:0.5;"/><path d="M50,920.9922 L50,947.9922 M37,928.9922 L63,928.9922 M50,947.9922 L37,962.9922 M50,947.9922 L63,962.9922 " fill="none" style="stroke:#181818;stroke-width:0.5;"/><rect fill="#E2E2F0" height="31.6094" rx="2.5" ry="2.5" style="stroke:#181818;stroke-width:0.5;" width="129" x="191.5" y="50"/><text fill="#000000" font-family="sans-serif" font-size="14" lengthAdjust="spacing" textLength="115" x="198.5" y="71.5332">LoginView (React)</text><rect fill="#E2E2F0" height="31.6094" rx="2.5" ry="2.5" style="stroke:#181818;stroke-width:0.5;" width="129" x="191.5" y="886.8828"/><text fill="#000000" font-family="sans-serif" font-size="14" lengthAdjust="spacing" textLength="115" x="198.5" y="908.416">LoginView (React)</text><rect fill="#E2E2F0" height="31.6094" rx="2.5" ry="2.5" style="stroke:#181818;stroke-width:0.5;" width="112" x="330.5" y="50"/><text fill="#000000" font-family="sans-serif" font-size="14" lengthAdjust="spacing" textLength="98" x="337.5" y="71.5332">useAuth (Hook)</text><rect fill="#E2E2F0" height="31.6094" rx="2.5" ry="2.5" style="stroke:#181818;stroke-width:0.5;" width="112" x="330.5" y="886.8828"/><text fill="#000000" font-family="sans-serif" font-size="14" lengthAdjust="spacing" textLength="98" x="337.5" y="908.416">useAuth (Hook)</text><rect fill="#E2E2F0" height="31.6094" rx="2.5" ry="2.5" style="stroke:#181818;stroke-width:0.5;" width="137" x="484" y="50"/><text fill="#000000" font-family="sans-serif" font-size="14" lengthAdjust="spacing" textLength="123" x="491" y="71.5332">AuthService (Axios)</text><rect fill="#E2E2F0" height="31.6094" rx="2.5" ry="2.5" style="stroke:#181818;stroke-width:0.5;" width="137" x="484" y="886.8828"/><text fill="#000000" font-family="sans-serif" font-size="14" lengthAdjust="spacing" textLength="123" x="491" y="908.416">AuthService (Axios)</text><rect fill="#E2E2F0" height="31.6094" rx="2.5" ry="2.5" style="stroke:#181818;stroke-width:0.5;" width="162" x="668.5" y="50"/><text fill="#000000" font-family="sans-serif" font-size="14" lengthAdjust="spacing" textLength="148" x="675.5" y="71.5332">AuthController (NestJS)</text><rect fill="#E2E2F0" height="31.6094" rx="2.5" ry="2.5" style="stroke:#181818;stroke-width:0.5;" width="162" x="668.5" y="886.8828"/><text fill="#000000" font-family="sans-serif" font-size="14" lengthAdjust="spacing" textLength="148" x="675.5" y="908.416">AuthController (NestJS)</text><rect fill="#E2E2F0" height="31.6094" rx="2.5" ry="2.5" style="stroke:#181818;stroke-width:0.5;" width="138" x="845.5" y="50"/><text fill="#000000" font-family="sans-serif" font-size="14" lengthAdjust="spacing" textLength="124" x="852.5" y="71.5332">AuthService (Logic)</text><rect fill="#E2E2F0" height="31.6094" rx="2.5" ry="2.5" style="stroke:#181818;stroke-width:0.5;" width="138" x="845.5" y="886.8828"/><text fill="#000000" font-family="sans-serif" font-size="14" lengthAdjust="spacing" textLength="124" x="852.5" y="908.416">AuthService (Logic)</text><rect fill="#E2E2F0" height="31.6094" rx="2.5" ry="2.5" style="stroke:#181818;stroke-width:0.5;" width="97" x="1059" y="50"/><text fill="#000000" font-family="sans-serif" font-size="14" lengthAdjust="spacing" textLength="83" x="1066" y="71.5332">UsersService</text><rect fill="#E2E2F0" height="31.6094" rx="2.5" ry="2.5" style="stroke:#181818;stroke-width:0.5;" width="97" x="1059" y="886.8828"/><text fill="#000000" font-family="sans-serif" font-size="14" lengthAdjust="spacing" textLength="83" x="1066" y="908.416">UsersService</text><text fill="#000000" font-family="sans-serif" font-size="14" lengthAdjust="spacing" textLength="77" x="1249" y="79.5332">PostgreSQL</text><path d="M1272.5,29 C1272.5,19 1290.5,19 1290.5,19 C1290.5,19 1308.5,19 1308.5,29 L1308.5,55 C1308.5,65 1290.5,65 1290.5,65 C1290.5,65 1272.5,65 1272.5,55 L1272.5,29 " fill="#E2E2F0" style="stroke:#181818;stroke-width:1.5;"/><path d="M1272.5,29 C1272.5,39 1290.5,39 1290.5,39 C1290.5,39 1308.5,39 1308.5,29 " fill="none" style="stroke:#181818;stroke-width:1.5;"/><text fill="#000000" font-family="sans-serif" font-size="14" lengthAdjust="spacing" textLength="77" x="1249" y="901.416">PostgreSQL</text><path d="M1272.5,914.4922 C1272.5,904.4922 1290.5,904.4922 1290.5,904.4922 C1290.5,904.4922 1308.5,904.4922 1308.5,914.4922 L1308.5,940.4922 C1308.5,950.4922 1290.5,950.4922 1290.5,950.4922 C1290.5,950.4922 1272.5,950.4922 1272.5,940.4922 L1272.5,914.4922 " fill="#E2E2F0" style="stroke:#181818;stroke-width:1.5;"/><path d="M1272.5,914.4922 C1272.5,924.4922 1290.5,924.4922 1290.5,924.4922 C1290.5,924.4922 1308.5,924.4922 1308.5,914.4922 " fill="none" style="stroke:#181818;stroke-width:1.5;"/><polygon fill="#181818" points="244,110.9609,254,114.9609,244,118.9609,248,114.9609" style="stroke:#181818;stroke-width:1.0;"/><line style="stroke:#181818;stroke-width:1.0;" x1="50" x2="250" y1="114.9609" y2="114.9609"/><text fill="#000000" font-family="sans-serif" font-size="13" lengthAdjust="spacing" textLength="130" x="57" y="110.1045">introduce credenciales</text><polygon fill="#181818" points="374.5,141.3125,384.5,145.3125,374.5,149.3125,378.5,145.3125" style="stroke:#181818;stroke-width:1.0;"/><line style="stroke:#181818;stroke-width:1.0;" x1="256" x2="380.5" y1="145.3125" y2="145.3125"/><text fill="#000000" font-family="sans-serif" font-size="13" lengthAdjust="spacing" textLength="98" x="263" y="140.4561">login(credentials)</text><polygon fill="#181818" points="540.5,171.6641,550.5,175.6641,540.5,179.6641,544.5,175.6641" style="stroke:#181818;stroke-width:1.0;"/><line style="stroke:#181818;stroke-width:1.0;" x1="386.5" x2="546.5" y1="175.6641" y2="175.6641"/><text fill="#000000" font-family="sans-serif" font-size="13" lengthAdjust="spacing" textLength="142" x="393.5" y="170.8076">authenticate(credentials)</text><polygon fill="#181818" points="737.5,202.0156,747.5,206.0156,737.5,210.0156,741.5,206.0156" style="stroke:#181818;stroke-width:1.0;"/><line style="stroke:#181818;stroke-width:1.0;" x1="552.5" x2="743.5" y1="206.0156" y2="206.0156"/><text fill="#000000" font-family="sans-serif" font-size="13" lengthAdjust="spacing" textLength="173" x="559.5" y="201.1592">HTTP POST /auth/login (DTO)</text><polygon fill="#181818" points="902.5,232.3672,912.5,236.3672,902.5,240.3672,906.5,236.3672" style="stroke:#181818;stroke-width:1.0;"/><line style="stroke:#181818;stroke-width:1.0;" x1="749.5" x2="908.5" y1="236.3672" y2="236.3672"/><text fill="#000000" font-family="sans-serif" font-size="13" lengthAdjust="spacing" textLength="141" x="756.5" y="231.5107">validateUser(credentials)</text><polygon fill="#181818" points="1095.5,262.7188,1105.5,266.7188,1095.5,270.7188,1099.5,266.7188" style="stroke:#181818;stroke-width:1.0;"/><line style="stroke:#181818;stroke-width:1.0;" x1="914.5" x2="1101.5" y1="266.7188" y2="266.7188"/><text fill="#000000" font-family="sans-serif" font-size="13" lengthAdjust="spacing" textLength="108" x="921.5" y="261.8623">findByEmail(email)</text><polygon fill="#181818" points="1278.5,293.0703,1288.5,297.0703,1278.5,301.0703,1282.5,297.0703" style="stroke:#181818;stroke-width:1.0;"/><line style="stroke:#181818;stroke-width:1.0;" x1="1107.5" x2="1284.5" y1="297.0703" y2="297.0703"/><text fill="#000000" font-family="sans-serif" font-size="13" lengthAdjust="spacing" textLength="159" x="1114.5" y="292.2139">SELECT * FROM "Usuario"</text><polygon fill="#181818" points="1118.5,323.4219,1108.5,327.4219,1118.5,331.4219,1114.5,327.4219" style="stroke:#181818;stroke-width:1.0;"/><line style="stroke:#181818;stroke-width:1.0;stroke-dasharray:2.0,2.0;" x1="1112.5" x2="1289.5" y1="327.4219" y2="327.4219"/><text fill="#000000" font-family="sans-serif" font-size="13" lengthAdjust="spacing" textLength="147" x="1124.5" y="322.5654">user_data (rol = Profesor)</text><polygon fill="#181818" points="925.5,353.7734,915.5,357.7734,925.5,361.7734,921.5,357.7734" style="stroke:#181818;stroke-width:1.0;"/><line style="stroke:#181818;stroke-width:1.0;stroke-dasharray:2.0,2.0;" x1="919.5" x2="1106.5" y1="357.7734" y2="357.7734"/><text fill="#000000" font-family="sans-serif" font-size="13" lengthAdjust="spacing" textLength="27" x="931.5" y="352.917">User</text><line style="stroke:#181818;stroke-width:1.0;" x1="914.5" x2="956.5" y1="388.125" y2="388.125"/><line style="stroke:#181818;stroke-width:1.0;" x1="956.5" x2="956.5" y1="388.125" y2="401.125"/><line style="stroke:#181818;stroke-width:1.0;" x1="915.5" x2="956.5" y1="401.125" y2="401.125"/><polygon fill="#181818" points="925.5,397.125,915.5,401.125,925.5,405.125,921.5,401.125" style="stroke:#181818;stroke-width:1.0;"/><text fill="#000000" font-family="sans-serif" font-size="13" lengthAdjust="spacing" textLength="138" x="921.5" y="383.2686">verify password (Bcrypt)</text><polygon fill="#181818" points="760.5,427.4766,750.5,431.4766,760.5,435.4766,756.5,431.4766" style="stroke:#181818;stroke-width:1.0;"/><line style="stroke:#181818;stroke-width:1.0;stroke-dasharray:2.0,2.0;" x1="754.5" x2="913.5" y1="431.4766" y2="431.4766"/><text fill="#000000" font-family="sans-serif" font-size="13" lengthAdjust="spacing" textLength="89" x="766.5" y="426.6201">validation result</text><path d="M10,446.4766 L71,446.4766 L71,454.8281 L61,464.8281 L10,464.8281 L10,446.4766 " fill="#EEEEEE" style="stroke:#000000;stroke-width:1.5;"/><rect fill="none" height="424.4063" style="stroke:#000000;stroke-width:1.5;" width="1102.5" x="10" y="446.4766"/><text fill="#000000" font-family="sans-serif" font-size="13" font-weight="bold" lengthAdjust="spacing" textLength="16" x="25" y="460.9717">alt</text><text fill="#000000" font-family="sans-serif" font-size="11" font-weight="bold" lengthAdjust="spacing" textLength="124" x="86" y="459.8955">[autenticaci&#243;n exitosa]</text><polygon fill="#181818" points="902.5,483.1797,912.5,487.1797,902.5,491.1797,906.5,487.1797" style="stroke:#181818;stroke-width:1.0;"/><line style="stroke:#181818;stroke-width:1.0;" x1="749.5" x2="908.5" y1="487.1797" y2="487.1797"/><text fill="#000000" font-family="sans-serif" font-size="13" lengthAdjust="spacing" textLength="62" x="756.5" y="482.3232">login(User)</text><line style="stroke:#181818;stroke-width:1.0;" x1="914.5" x2="956.5" y1="517.5313" y2="517.5313"/><line style="stroke:#181818;stroke-width:1.0;" x1="956.5" x2="956.5" y1="517.5313" y2="530.5313"/><line style="stroke:#181818;stroke-width:1.0;" x1="915.5" x2="956.5" y1="530.5313" y2="530.5313"/><polygon fill="#181818" points="925.5,526.5313,915.5,530.5313,925.5,534.5313,921.5,530.5313" style="stroke:#181818;stroke-width:1.0;"/><text fill="#000000" font-family="sans-serif" font-size="13" lengthAdjust="spacing" textLength="179" x="921.5" y="512.6748">sign JWT (claim rol = Profesor)</text><polygon fill="#181818" points="760.5,556.8828,750.5,560.8828,760.5,564.8828,756.5,560.8828" style="stroke:#181818;stroke-width:1.0;"/><line style="stroke:#181818;stroke-width:1.0;stroke-dasharray:2.0,2.0;" x1="754.5" x2="913.5" y1="560.8828" y2="560.8828"/><text fill="#000000" font-family="sans-serif" font-size="13" lengthAdjust="spacing" textLength="108" x="766.5" y="556.0264">{ token, user_info }</text><polygon fill="#181818" points="563.5,587.2344,553.5,591.2344,563.5,595.2344,559.5,591.2344" style="stroke:#181818;stroke-width:1.0;"/><line style="stroke:#181818;stroke-width:1.0;stroke-dasharray:2.0,2.0;" x1="557.5" x2="748.5" y1="591.2344" y2="591.2344"/><text fill="#000000" font-family="sans-serif" font-size="13" lengthAdjust="spacing" textLength="141" x="569.5" y="586.3779">200 OK (AuthResponse)</text><polygon fill="#181818" points="397.5,617.5859,387.5,621.5859,397.5,625.5859,393.5,621.5859" style="stroke:#181818;stroke-width:1.0;"/><line style="stroke:#181818;stroke-width:1.0;stroke-dasharray:2.0,2.0;" x1="391.5" x2="551.5" y1="621.5859" y2="621.5859"/><text fill="#000000" font-family="sans-serif" font-size="13" lengthAdjust="spacing" textLength="107" x="403.5" y="616.7295">store token &amp; user</text><line style="stroke:#181818;stroke-width:1.0;" x1="386.5" x2="428.5" y1="651.9375" y2="651.9375"/><line style="stroke:#181818;stroke-width:1.0;" x1="428.5" x2="428.5" y1="651.9375" y2="664.9375"/><line style="stroke:#181818;stroke-width:1.0;" x1="387.5" x2="428.5" y1="664.9375" y2="664.9375"/><polygon fill="#181818" points="397.5,660.9375,387.5,664.9375,397.5,668.9375,393.5,664.9375" style="stroke:#181818;stroke-width:1.0;"/><text fill="#000000" font-family="sans-serif" font-size="13" lengthAdjust="spacing" textLength="125" x="393.5" y="647.0811">detecta rol = Profesor</text><polygon fill="#181818" points="267,691.2891,257,695.2891,267,699.2891,263,695.2891" style="stroke:#181818;stroke-width:1.0;"/><line style="stroke:#181818;stroke-width:1.0;stroke-dasharray:2.0,2.0;" x1="261" x2="385.5" y1="695.2891" y2="695.2891"/><text fill="#000000" font-family="sans-serif" font-size="13" lengthAdjust="spacing" textLength="97" x="273" y="690.4326">redirect /profesor</text><polygon fill="#181818" points="61,721.6406,51,725.6406,61,729.6406,57,725.6406" style="stroke:#181818;stroke-width:1.0;"/><line style="stroke:#181818;stroke-width:1.0;stroke-dasharray:2.0,2.0;" x1="55" x2="255" y1="725.6406" y2="725.6406"/><text fill="#000000" font-family="sans-serif" font-size="13" lengthAdjust="spacing" textLength="182" x="67" y="720.7842">muestra dashboard del profesor</text><line style="stroke:#000000;stroke-width:1.0;stroke-dasharray:2.0,2.0;" x1="10" x2="1112.5" y1="734.6406" y2="734.6406"/><text fill="#000000" font-family="sans-serif" font-size="11" font-weight="bold" lengthAdjust="spacing" textLength="130" x="15" y="746.0596">[credenciales inv&#225;lidas]</text><polygon fill="#181818" points="563.5,767.8281,553.5,771.8281,563.5,775.8281,559.5,771.8281" style="stroke:#181818;stroke-width:1.0;"/><line style="stroke:#181818;stroke-width:1.0;stroke-dasharray:2.0,2.0;" x1="557.5" x2="748.5" y1="771.8281" y2="771.8281"/><text fill="#000000" font-family="sans-serif" font-size="13" lengthAdjust="spacing" textLength="101" x="569.5" y="766.9717">401 Unauthorized</text><polygon fill="#181818" points="397.5,798.1797,387.5,802.1797,397.5,806.1797,393.5,802.1797" style="stroke:#181818;stroke-width:1.0;"/><line style="stroke:#181818;stroke-width:1.0;stroke-dasharray:2.0,2.0;" x1="391.5" x2="551.5" y1="802.1797" y2="802.1797"/><text fill="#000000" font-family="sans-serif" font-size="13" lengthAdjust="spacing" textLength="83" x="403.5" y="797.3232">error message</text><polygon fill="#181818" points="267,828.5313,257,832.5313,267,836.5313,263,832.5313" style="stroke:#181818;stroke-width:1.0;"/><line style="stroke:#181818;stroke-width:1.0;stroke-dasharray:2.0,2.0;" x1="261" x2="385.5" y1="832.5313" y2="832.5313"/><text fill="#000000" font-family="sans-serif" font-size="13" lengthAdjust="spacing" textLength="71" x="273" y="827.6748">display error</text><polygon fill="#181818" points="61,858.8828,51,862.8828,61,866.8828,57,862.8828" style="stroke:#181818;stroke-width:1.0;"/><line style="stroke:#181818;stroke-width:1.0;stroke-dasharray:2.0,2.0;" x1="55" x2="255" y1="862.8828" y2="862.8828"/><text fill="#000000" font-family="sans-serif" font-size="13" lengthAdjust="spacing" textLength="116" x="67" y="858.0264">muestra advertencia</text><!--SRC=[XPJTRXCn48Nl_HIZNA0Deaf1N4K2gMcAgb98Q5AuHEvwaexgs2kFqpPKF0pFm2FqnHYlyxFRFt8H9PxFwpF7PvQlo5Kww0LOSXXN5KBbxIhzKRojyQKs_eRS76RQCYgbo-W3Z8EV8VkWX8fKKgLTXCwfdvFxJdW3nHaAsEs0PaWBRMx9UB2Cbr0SUt-LeVIh3ILYWk6QIeJYu9OyP_BG4hhuc3tqBWPlBGOelYB7aycQtww_yFoalCpyUgqDdpC6NbTggbvGHaTzeHcXC_OSvm4dtqxhyd2WrCOZsFjOUm1ze2J5BEN4Cg11LvAsoAgk2fLC4Cec6ujCH26ug-gA4BbvORIeJzLIHsoZQoJ1EqVwS3oTZc4ycaoXb_RswaEW64v7icK7ohQDANsurfQaHKpDjW_PC8BNJWWy8sS6gwE59bjW-kwgN19cE11WSdHwT3Y5r_3fRFGbMRhKWNn7IN6lyHm9H_YPZ8L2DC67RTQspsjfJ6jDEGtr66YsWaept_XWe1YKOLN5XlY77gtx9UyW82zjbBZRcBpELfTq_zS1tbBqh1N8vpddyXKcRTsQUr8Wqzp1oOyf5ANLj827xROsFjHw1z5VeNkJ_I8ty_3xaQHcOjxjxyFeiuoItFuPSkKTOpvZavXT0bbc7FC1yAe-eGOtALnJ1YEMSazjtGro5tp93WM1eLSriHnymRQpqeV5KeOtQ32QBo-ybeipQ66x3UKjr9eU6Qhh-p_fulZ5_j_lluLpbxBl0_r2yqph68B8M22pdkEJlHZYokfL9l_RXZQImrYBLUYC-WS0]--></g></svg>