<?xml version="1.0" encoding="us-ascii" standalone="no"?><svg xmlns="http://www.w3.org/2000/svg" xmlns:xlink="http://www.w3.org/1999/xlink" contentStyleType="text/css" height="554px" preserveAspectRatio="none" style="width:880px;height:554px;background:#FFFFFF;" version="1.1" viewBox="0 0 880 554" width="880px" zoomAndPan="magnify"><defs/><g><!--cluster listarConflictosExamenes--><g id="cluster_listarConflictosExamenes"><path d="M8.5,109 L197.5,109 A3.75,3.75 0 0 1 200,111.5 L207,132.6094 L641.5,132.6094 A2.5,2.5 0 0 1 644,135.1094 L644,544.5 A2.5,2.5 0 0 1 641.5,547 L8.5,547 A2.5,2.5 0 0 1 6,544.5 L6,111.5 A2.5,2.5 0 0 1 8.5,109 " fill="none" style="stroke:#000000;stroke-width:1.5;"/><line style="stroke:#000000;stroke-width:1.5;" x1="6" x2="207" y1="132.6094" y2="132.6094"/><text fill="#000000" font-family="sans-serif" font-size="14" font-weight="bold" lengthAdjust="spacing" textLength="188" x="10" y="125.5332">listarConflictosExamenes()</text></g><!--entity ListarConflictosView--><g id="elem_ListarConflictosView"><rect fill="#629EF9" height="37.6094" rx="2.5" ry="2.5" style="stroke:#181818;stroke-width:0.5;" width="146" x="227" y="145"/><text fill="#000000" font-family="sans-serif" font-size="14" lengthAdjust="spacing" textLength="126" x="237" y="169.5332">ListarConflictosView</text></g><!--entity ConflictosController--><g id="elem_ConflictosController"><rect fill="#B5BD68" height="37.6094" rx="2.5" ry="2.5" style="stroke:#181818;stroke-width:0.5;" width="144" x="22" y="261"/><text fill="#000000" font-family="sans-serif" font-size="14" lengthAdjust="spacing" textLength="124" x="32" y="285.5332">ConflictosController</text></g><!--entity ProfesorRepository--><g id="elem_ProfesorRepository"><rect fill="#F2AC4E" height="37.6094" rx="2.5" ry="2.5" style="stroke:#181818;stroke-width:0.5;" width="142" x="22" y="377"/><text fill="#000000" font-family="sans-serif" font-size="14" lengthAdjust="spacing" textLength="122" x="32" y="401.5332">ProfesorRepository</text></g><!--entity ExamenRepository--><g id="elem_ExamenRepository"><rect fill="#F2AC4E" height="37.6094" rx="2.5" ry="2.5" style="stroke:#181818;stroke-width:0.5;" width="138" x="293" y="377"/><text fill="#000000" font-family="sans-serif" font-size="14" lengthAdjust="spacing" textLength="118" x="303" y="401.5332">ExamenRepository</text></g><!--entity Profesor--><g id="elem_Profesor"><rect fill="#F2AC4E" height="37.6094" rx="2.5" ry="2.5" style="stroke:#181818;stroke-width:0.5;" width="74" x="56" y="493"/><text fill="#000000" font-family="sans-serif" font-size="14" lengthAdjust="spacing" textLength="54" x="66" y="517.5332">Profesor</text></g><!--entity ProfesorAbierto--><g id="elem_ProfesorAbierto"><rect fill="#CDEBA5" height="37.6094" rx="2.5" ry="2.5" style="stroke:#181818;stroke-width:0.5;" width="127" x="236.5" y="7"/><text fill="#000000" font-family="sans-serif" font-size="14" lengthAdjust="spacing" textLength="107" x="246.5" y="31.5332">:Profesor Abierto</text></g><!--entity ProfesorPreferenciasAbierto--><g id="elem_ProfesorPreferenciasAbierto"><rect fill="#CDEBA5" height="37.6094" rx="2.5" ry="2.5" style="stroke:#181818;stroke-width:0.5;" width="211" x="663.5" y="261"/><text fill="#000000" font-family="sans-serif" font-size="14" lengthAdjust="spacing" textLength="191" x="673.5" y="285.5332">:Profesor Preferencias Abierto</text></g><!--link ProfesorAbierto to ListarConflictosView--><g id="link_ProfesorAbierto_ListarConflictosView"><path d="M251.6,45.01 C214.99,58.63 171,75 171,75 C171,75 171,93 171,93 C171,93 223.2864,121.3683 261.5064,142.1083 " fill="none" id="ProfesorAbierto-to-ListarConflictosView" style="stroke:#181818;stroke-width:1.0;"/><polygon fill="#181818" points="266.78,144.97,260.7774,137.1617,262.3853,142.5853,256.9618,144.1932,266.78,144.97" style="stroke:#181818;stroke-width:1.0;"/><text fill="#000000" font-family="sans-serif" font-size="13" lengthAdjust="spacing" textLength="211" x="172" y="89.4951">listarConflictosExamenes(profesorId)</text></g><!--link ListarConflictosView to ProfesorAbierto--><g id="link_ListarConflictosView_ProfesorAbierto"><path d="M322.66,144.97 C348.74,124.23 388,93 388,93 C388,93 388,75 388,75 C388,75 363.2574,61.5031 338.2874,47.8831 " fill="none" id="ListarConflictosView-to-ProfesorAbierto" style="stroke:#181818;stroke-width:1.0;stroke-dasharray:7.0,7.0;"/><polygon fill="#181818" points="333.02,45.01,339.0057,52.8313,337.4095,47.4043,342.8365,45.8081,333.02,45.01" style="stroke:#181818;stroke-width:1.0;"/><text fill="#000000" font-family="sans-serif" font-size="13" lengthAdjust="spacing" textLength="88" x="389" y="89.4951">editarProfesor()</text></g><!--link ListarConflictosView to ConflictosController--><g id="link_ListarConflictosView_ConflictosController"><path d="M226.9,181.79 C166.63,195.63 91,213 91,213 C91,213 91,231 91,231 C91,231 91.6455,241.2717 92.4955,254.8617 " fill="none" id="ListarConflictosView-to-ConflictosController" style="stroke:#181818;stroke-width:1.0;"/><polygon fill="#181818" points="92.87,260.85,96.3004,251.6179,92.5579,255.8598,88.316,252.1172,92.87,260.85" style="stroke:#181818;stroke-width:1.0;"/><text fill="#000000" font-family="sans-serif" font-size="13" lengthAdjust="spacing" textLength="164" x="92" y="227.4951">obtenerConflictos(profesorId)</text></g><!--link ListarConflictosView to ConflictosController--><g id="link_ListarConflictosView_ConflictosController"><path d="M289.34,183.03 C277.8,202.58 261,231 261,231 C261,231 209.8166,245.7127 162.4266,259.3327 " fill="none" id="ListarConflictosView-to-ConflictosController-1" style="stroke:#181818;stroke-width:1.0;"/><polygon fill="#181818" points="156.66,260.99,166.4147,262.3484,161.4655,259.6089,164.205,254.6596,156.66,260.99" style="stroke:#181818;stroke-width:1.0;"/><text fill="#000000" font-family="sans-serif" font-size="13" lengthAdjust="spacing" textLength="217" x="272" y="227.4951">resolverConflicto(conflictoId, cambios)</text></g><!--link ConflictosController to ProfesorRepository--><g id="link_ConflictosController_ProfesorRepository"><path d="M83.04,299.15 C74.82,312.74 65,329 65,329 C65,329 65,347 65,347 C65,347 71.4689,358.0761 79.3889,371.6661 " fill="none" id="ConflictosController-to-ProfesorRepository" style="stroke:#181818;stroke-width:1.0;"/><polygon fill="#181818" points="82.41,376.85,81.3343,367.0601,79.8924,372.5301,74.4224,371.0882,82.41,376.85" style="stroke:#181818;stroke-width:1.0;"/><text fill="#000000" font-family="sans-serif" font-size="13" lengthAdjust="spacing" textLength="133" x="66" y="343.4951">buscarPorId(profesorId)</text></g><!--link ConflictosController to ExamenRepository--><g id="link_ConflictosController_ExamenRepository"><path d="M135.27,299.01 C166.49,312.63 204,329 204,329 C204,329 240,347 240,347 C240,347 276.0268,361.1728 310.6368,374.7928 " fill="none" id="ConflictosController-to-ExamenRepository" style="stroke:#181818;stroke-width:1.0;"/><polygon fill="#181818" points="316.22,376.99,309.3099,369.9721,311.5673,375.159,306.3804,377.4164,316.22,376.99" style="stroke:#181818;stroke-width:1.0;"/><text fill="#000000" font-family="sans-serif" font-size="13" lengthAdjust="spacing" textLength="171" x="241" y="343.4951">buscarPorProfesor(profesorId)</text></g><!--link ConflictosController to ExamenRepository--><g id="link_ConflictosController_ExamenRepository"><path d="M166.09,291.71 C261.28,305.86 417,329 417,329 C417,329 417,347 417,347 C417,347 402.8916,359.316 387.3116,372.906 " fill="none" id="ConflictosController-to-ExamenRepository-1" style="stroke:#181818;stroke-width:1.0;"/><polygon fill="#181818" points="382.79,376.85,392.2017,373.9483,386.558,373.5633,386.943,367.9196,382.79,376.85" style="stroke:#181818;stroke-width:1.0;"/><text fill="#000000" font-family="sans-serif" font-size="13" lengthAdjust="spacing" textLength="158" x="418" y="343.4951">actualizarExamen(examen)</text></g><!--link ConflictosController to ConflictosController--><g id="link_ConflictosController_ConflictosController"><path d="M166.01,274.6 C185.84,274.86 201,276.66 201,280 C201,283.34 191.8395,285.0613 172.0095,285.3213 " fill="none" id="ConflictosController-to-ConflictosController" style="stroke:#181818;stroke-width:1.0;"/><polygon fill="#181818" points="166.01,285.4,175.0617,289.2817,171.0096,285.3344,174.9568,281.2824,166.01,285.4" style="stroke:#181818;stroke-width:1.0;"/><text fill="#000000" font-family="sans-serif" font-size="13" lengthAdjust="spacing" textLength="201" x="207" y="285.4951">detectarSolapamientos(examenes)</text></g><!--link ConflictosController to ConflictosController--><g id="link_ConflictosController_ConflictosController"><path d="M166.24,271.72 C263.01,266.45 414,269.21 414,280 C414,290.79 269.0011,293.8763 172.2311,288.6063 " fill="none" id="ConflictosController-to-ConflictosController-1" style="stroke:#181818;stroke-width:1.0;"/><polygon fill="#181818" points="166.24,288.28,175.0092,292.7635,171.2326,288.5519,175.4442,284.7753,166.24,288.28" style="stroke:#181818;stroke-width:1.0;"/><text fill="#000000" font-family="sans-serif" font-size="13" lengthAdjust="spacing" textLength="201" x="420" y="285.4951">detectarSolapamientos(examenes)</text></g><!--link ProfesorRepository to Profesor--><g id="link_ProfesorRepository_Profesor"><path d="M93,415.06 C93,436.28 93,465.3 93,486.64 " fill="none" id="ProfesorRepository-to-Profesor" style="stroke:#181818;stroke-width:1.0;"/><polygon fill="#181818" points="93,492.64,97,483.64,93,487.64,89,483.64,93,492.64" style="stroke:#181818;stroke-width:1.0;"/><text fill="#000000" font-family="sans-serif" font-size="13" lengthAdjust="spacing" textLength="56" x="94" y="459.4951">&#171;accede&#187;</text></g><!--link ListarConflictosView to ProfesorPreferenciasAbierto--><g id="link_ListarConflictosView_ProfesorPreferenciasAbierto"><path d="M373.17,182.74 C429.57,196.41 498,213 498,213 C498,213 608.8805,239.9997 689.1205,259.5497 " fill="none" id="ListarConflictosView-to-ProfesorPreferenciasAbierto" style="stroke:#181818;stroke-width:1.0;stroke-dasharray:7.0,7.0;"/><polygon fill="#181818" points="694.95,260.97,687.1527,254.9532,690.0921,259.7864,685.2589,262.7258,694.95,260.97" style="stroke:#181818;stroke-width:1.0;"/><text fill="#000000" font-family="sans-serif" font-size="13" lengthAdjust="spacing" textLength="58" x="571" y="227.4951">&#171;finalizar&#187;</text></g><!--SRC=[jPF1Jy8m6CNl_IkQUM69S212X90bY2CXyK0qyVwj-qOQkdPfYuh6_zrEDZRc1dfmfwvzxxVllMPcosK66b8gk4Ixpv1cIkpp5q8qCWjo8v1UBUx3k_c8UjErLWaQfUayugYjyYWOMcuMU-UDQuq9QfICEsSRfIueYIG3jeKDkZ6D1RrGCX6SMMN2DqXHeia1NjTXp_Ve1o7KFRNHniD9k9pGXuRfcUDhKngDedXyIokHMrcjX43Tb2w7yyLDU0ppY9aot2gzxn0UPhmeAtdaav16tRJV3rfJq6bdNRsiOAnYdv1MSqvj2-oeAh8EKZESubfTEUvdAGuMxGm3lSwz9vXEIhEnEgFymkz87V5Yj7d_-aa9o23bAFE8M5JdLnTGcw4Upo5cCs0COmo2lxUh7KEyrEhjiNArYgyfWpJYofphkQKXO7O7Wh-3FXmMSVwXdDQuWq5mxl_-RYpXyZ2XA-qYf39Yp9tqUF4- -G80]--></g></svg>