<?xml version="1.0" encoding="us-ascii" standalone="no"?><svg xmlns="http://www.w3.org/2000/svg" xmlns:xlink="http://www.w3.org/1999/xlink" contentStyleType="text/css" height="318px" preserveAspectRatio="none" style="width:914px;height:318px;background:#FFFFFF;" version="1.1" viewBox="0 0 914 318" width="914px" zoomAndPan="magnify"><defs/><g><!--cluster importarGrados--><g id="cluster_importarGrados"><path d="M8.5,6 L129.5,6 A3.75,3.75 0 0 1 132,8.5 L139,29.6094 L451.5,29.6094 A2.5,2.5 0 0 1 454,32.1094 L454,308.5 A2.5,2.5 0 0 1 451.5,311 L8.5,311 A2.5,2.5 0 0 1 6,308.5 L6,8.5 A2.5,2.5 0 0 1 8.5,6 " fill="none" style="stroke:#000000;stroke-width:1.5;"/><line style="stroke:#000000;stroke-width:1.5;" x1="6" x2="139" y1="29.6094" y2="29.6094"/><text fill="#000000" font-family="sans-serif" font-size="14" font-weight="bold" lengthAdjust="spacing" textLength="120" x="10" y="22.5332">importarGrados()</text></g><!--entity ImportarGradosView--><g id="elem_ImportarGradosView"><rect fill="#629EF9" height="37.6094" rx="2.5" ry="2.5" style="stroke:#181818;stroke-width:0.5;" width="148" x="290" y="42"/><text fill="#000000" font-family="sans-serif" font-size="14" lengthAdjust="spacing" textLength="128" x="300" y="66.5332">ImportarGradosView</text></g><!--entity GradoController--><g id="elem_GradoController"><rect fill="#B5BD68" height="37.6094" rx="2.5" ry="2.5" style="stroke:#181818;stroke-width:0.5;" width="122" x="29" y="158"/><text fill="#000000" font-family="sans-serif" font-size="14" lengthAdjust="spacing" textLength="102" x="39" y="182.5332">GradoController</text></g><!--entity GradoRepository--><g id="elem_GradoRepository"><rect fill="#F2AC4E" height="37.6094" rx="2.5" ry="2.5" style="stroke:#181818;stroke-width:0.5;" width="128" x="303" y="158"/><text fill="#000000" font-family="sans-serif" font-size="14" lengthAdjust="spacing" textLength="108" x="313" y="182.5332">GradoRepository</text></g><!--entity Grado--><g id="elem_Grado"><rect fill="#F2AC4E" height="37.6094" rx="2.5" ry="2.5" style="stroke:#181818;stroke-width:0.5;" width="60" x="337" y="257"/><text fill="#000000" font-family="sans-serif" font-size="14" lengthAdjust="spacing" textLength="40" x="347" y="281.5332">Grado</text></g><!--entity GradosAbierto--><g id="elem_GradosAbierto"><rect fill="#CDEBA5" height="37.6094" rx="2.5" ry="2.5" style="stroke:#181818;stroke-width:0.5;" width="120" x="557" y="158"/><text fill="#000000" font-family="sans-serif" font-size="14" lengthAdjust="spacing" textLength="100" x="567" y="182.5332">:Grados Abierto</text></g><!--link GradosAbierto to ImportarGradosView--><g id="link_GradosAbierto_ImportarGradosView"><path d="M563.72,157.99 C523.43,144.37 475,128 475,128 C475,128 432.3568,102.6471 399.4868,83.0971 " fill="none" id="GradosAbierto-to-ImportarGradosView" style="stroke:#181818;stroke-width:1.0;"/><polygon fill="#181818" points="394.33,80.03,400.0205,88.0685,398.6274,82.5859,404.11,81.1928,394.33,80.03" style="stroke:#181818;stroke-width:1.0;"/><text fill="#000000" font-family="sans-serif" font-size="13" lengthAdjust="spacing" textLength="97" x="476" y="124.4951">importarGrados()</text></g><!--link ImportarGradosView to GradosAbierto--><g id="link_ImportarGradosView_GradosAbierto"><path d="M438.25,78.65 C500.05,92.52 578,110 578,110 C578,110 591.75,133.253 603.29,152.803 " fill="none" id="ImportarGradosView-to-GradosAbierto" style="stroke:#181818;stroke-width:1.0;stroke-dasharray:7.0,7.0;"/><polygon fill="#181818" points="606.34,157.97,605.2097,148.1862,603.7984,153.6642,598.3204,152.2528,606.34,157.97" style="stroke:#181818;stroke-width:1.0;"/><text fill="#000000" font-family="sans-serif" font-size="13" lengthAdjust="spacing" textLength="183" x="589" y="124.4951">mostrarResultado(importResult)</text></g><!--link ImportarGradosView to GradosAbierto--><g id="link_ImportarGradosView_GradosAbierto"><path d="M438.07,70.53 C557.9,84.32 781,110 781,110 C781,110 781,128 781,128 C781,128 729.6983,143.0143 682.8983,156.7143 " fill="none" id="ImportarGradosView-to-GradosAbierto-1" style="stroke:#181818;stroke-width:1.0;stroke-dasharray:7.0,7.0;"/><polygon fill="#181818" points="677.14,158.4,686.9013,159.7104,681.9386,156.9953,684.6537,152.0326,677.14,158.4" style="stroke:#181818;stroke-width:1.0;"/><text fill="#000000" font-family="sans-serif" font-size="13" lengthAdjust="spacing" textLength="124" x="782" y="124.4951">cancelarImportacion()</text></g><!--link ImportarGradosView to GradoController--><g id="link_ImportarGradosView_GradoController"><path d="M289.75,73.5 C198.04,87.7 54,110 54,110 C54,110 54,128 54,128 C54,128 62.6006,139.4596 72.7906,153.0496 " fill="none" id="ImportarGradosView-to-GradoController" style="stroke:#181818;stroke-width:1.0;"/><polygon fill="#181818" points="76.39,157.85,74.1911,148.2497,73.3905,153.8496,67.7906,153.049,76.39,157.85" style="stroke:#181818;stroke-width:1.0;"/><text fill="#000000" font-family="sans-serif" font-size="13" lengthAdjust="spacing" textLength="180" x="55" y="124.4951">importar(archivo) : ImportResult</text></g><!--link ImportarGradosView to GradoController--><g id="link_ImportarGradosView_GradoController"><path d="M330.12,80.03 C293.4,99.58 240,128 240,128 C240,128 194.5545,142.5412 151.9945,156.1612 " fill="none" id="ImportarGradosView-to-GradoController-1" style="stroke:#181818;stroke-width:1.0;"/><polygon fill="#181818" points="146.28,157.99,156.0709,159.0565,151.0421,156.466,153.6326,151.4372,146.28,157.99" style="stroke:#181818;stroke-width:1.0;"/><text fill="#000000" font-family="sans-serif" font-size="13" lengthAdjust="spacing" textLength="157" x="275" y="124.4951">obtenerFormatoRequerido()</text></g><!--link GradoController to GradoRepository--><g id="link_GradoController_GradoRepository"><path d="M151.13,177 C196.06,177 250.98,177 296.65,177 " fill="none" id="GradoController-to-GradoRepository" style="stroke:#181818;stroke-width:1.0;"/><polygon fill="#181818" points="302.65,177,293.65,173,297.65,177,293.65,181,302.65,177" style="stroke:#181818;stroke-width:1.0;"/><text fill="#000000" font-family="sans-serif" font-size="13" lengthAdjust="spacing" textLength="115" x="169.5" y="170.4951">guardarLote(grados)</text></g><!--link GradoRepository to Grado--><g id="link_GradoRepository_Grado"><path d="M367,196.24 C367,213.59 367,239.52 367,256.84 " fill="none" id="GradoRepository-Grado" style="stroke:#181818;stroke-width:1.0;"/></g><!--SRC=[bP8nJyCm48Lt_ufJM98X7IfQqGwLGcaG4bC7zajo2bOTNxWue0hntt6R38rL8UhDv- -zktToTz2sHS46ZBRaZYr1o-PukYWbL3gqjI6uspxj7hC5HEjdmOexo0fDuZW2x60eZHMbMYmFM1FefcLnAAF2Wz6q52SHV2i5_bnqMivNktm5BnFqJTDN21QBebe-3DstR9smCIGXbS-pxVrkeFRKSgSTo_4lIlqeDOa4gQIRAmF16i90Ibt1qihBWp4lj35A-Qu_EV6rGRsdhZVk5Yyk75cIdAL1vtD-z2IwujD08NmE4wp3EzGzIeNooexY-jmlKI6LfkE6haqscsscFy6RDjmvGHdo-ATON-HB_kjIeYt9e8nugTdwOBy0]--></g></svg>