<?xml version="1.0" encoding="us-ascii" standalone="no"?><svg xmlns="http://www.w3.org/2000/svg" xmlns:xlink="http://www.w3.org/1999/xlink" contentStyleType="text/css" height="548px" preserveAspectRatio="none" style="width:1527px;height:548px;background:#FFFFFF;" version="1.1" viewBox="0 0 1527 548" width="1527px" zoomAndPan="magnify"><defs/><g><line style="stroke:#181818;stroke-width:0.5;stroke-dasharray:5.0,5.0;" x1="51" x2="51" y1="82.6094" y2="466.8281"/><line style="stroke:#181818;stroke-width:0.5;stroke-dasharray:5.0,5.0;" x1="395.5" x2="395.5" y1="82.6094" y2="466.8281"/><line style="stroke:#181818;stroke-width:0.5;stroke-dasharray:5.0,5.0;" x1="595.5" x2="595.5" y1="82.6094" y2="466.8281"/><line style="stroke:#181818;stroke-width:0.5;stroke-dasharray:5.0,5.0;" x1="772.5" x2="772.5" y1="82.6094" y2="466.8281"/><line style="stroke:#181818;stroke-width:0.5;stroke-dasharray:5.0,5.0;" x1="1034" x2="1034" y1="82.6094" y2="466.8281"/><line style="stroke:#181818;stroke-width:0.5;stroke-dasharray:5.0,5.0;" x1="1211.5" x2="1211.5" y1="82.6094" y2="466.8281"/><line style="stroke:#181818;stroke-width:0.5;stroke-dasharray:5.0,5.0;" x1="1484" x2="1484" y1="82.6094" y2="466.8281"/><text fill="#000000" font-family="sans-serif" font-size="14" lengthAdjust="spacing" textLength="87" x="5" y="79.5332">Administrador</text><ellipse cx="51.5" cy="13.5" fill="#E2E2F0" rx="8" ry="8" style="stroke:#181818;stroke-width:0.5;"/><path d="M51.5,21.5 L51.5,48.5 M38.5,29.5 L64.5,29.5 M51.5,48.5 L38.5,63.5 M51.5,48.5 L64.5,63.5 " fill="none" style="stroke:#181818;stroke-width:0.5;"/><text fill="#000000" font-family="sans-serif" font-size="14" lengthAdjust="spacing" textLength="87" x="5" y="480.3613">Administrador</text><ellipse cx="51.5" cy="491.9375" fill="#E2E2F0" rx="8" ry="8" style="stroke:#181818;stroke-width:0.5;"/><path d="M51.5,499.9375 L51.5,526.9375 M38.5,507.9375 L64.5,507.9375 M51.5,526.9375 L38.5,541.9375 M51.5,526.9375 L64.5,541.9375 " fill="none" style="stroke:#181818;stroke-width:0.5;"/><rect fill="#E2E2F0" height="66.8281" rx="2.5" ry="2.5" style="stroke:#181818;stroke-width:0.5;" width="140" x="325.5" y="14.7813"/><text fill="#000000" font-family="sans-serif" font-size="14" font-style="italic" lengthAdjust="spacing" textLength="89" x="351" y="36.3145">&#171;Component&#187;</text><text fill="#000000" font-family="sans-serif" font-size="14" lengthAdjust="spacing" textLength="126" x="332.5" y="53.9238">AsignaturasListView</text><text fill="#000000" font-family="sans-serif" font-size="14" lengthAdjust="spacing" textLength="47" x="372" y="71.5332">(React)</text><rect fill="#E2E2F0" height="66.8281" rx="2.5" ry="2.5" style="stroke:#181818;stroke-width:0.5;" width="140" x="325.5" y="465.8281"/><text fill="#000000" font-family="sans-serif" font-size="14" font-style="italic" lengthAdjust="spacing" textLength="89" x="351" y="487.3613">&#171;Component&#187;</text><text fill="#000000" font-family="sans-serif" font-size="14" lengthAdjust="spacing" textLength="126" x="332.5" y="504.9707">AsignaturasListView</text><text fill="#000000" font-family="sans-serif" font-size="14" lengthAdjust="spacing" textLength="47" x="372" y="522.5801">(React)</text><rect fill="#E2E2F0" height="66.8281" rx="2.5" ry="2.5" style="stroke:#181818;stroke-width:0.5;" width="112" x="539.5" y="14.7813"/><text fill="#000000" font-family="sans-serif" font-size="14" font-style="italic" lengthAdjust="spacing" textLength="50" x="570.5" y="36.3145">&#171;Hook&#187;</text><text fill="#000000" font-family="sans-serif" font-size="14" lengthAdjust="spacing" textLength="98" x="546.5" y="53.9238">useAsignaturas</text><text fill="#000000" font-family="sans-serif" font-size="14" lengthAdjust="spacing" textLength="42" x="574.5" y="71.5332">(Hook)</text><rect fill="#E2E2F0" height="66.8281" rx="2.5" ry="2.5" style="stroke:#181818;stroke-width:0.5;" width="112" x="539.5" y="465.8281"/><text fill="#000000" font-family="sans-serif" font-size="14" font-style="italic" lengthAdjust="spacing" textLength="50" x="570.5" y="487.3613">&#171;Hook&#187;</text><text fill="#000000" font-family="sans-serif" font-size="14" lengthAdjust="spacing" textLength="98" x="546.5" y="504.9707">useAsignaturas</text><text fill="#000000" font-family="sans-serif" font-size="14" lengthAdjust="spacing" textLength="42" x="574.5" y="522.5801">(Hook)</text><rect fill="#E2E2F0" height="66.8281" rx="2.5" ry="2.5" style="stroke:#181818;stroke-width:0.5;" width="136" x="704.5" y="14.7813"/><text fill="#000000" font-family="sans-serif" font-size="14" font-style="italic" lengthAdjust="spacing" textLength="62" x="741.5" y="36.3145">&#171;Service&#187;</text><text fill="#000000" font-family="sans-serif" font-size="14" lengthAdjust="spacing" textLength="122" x="711.5" y="53.9238">AsignaturasService</text><text fill="#000000" font-family="sans-serif" font-size="14" lengthAdjust="spacing" textLength="43" x="751" y="71.5332">(Axios)</text><rect fill="#E2E2F0" height="66.8281" rx="2.5" ry="2.5" style="stroke:#181818;stroke-width:0.5;" width="136" x="704.5" y="465.8281"/><text fill="#000000" font-family="sans-serif" font-size="14" font-style="italic" lengthAdjust="spacing" textLength="62" x="741.5" y="487.3613">&#171;Service&#187;</text><text fill="#000000" font-family="sans-serif" font-size="14" lengthAdjust="spacing" textLength="122" x="711.5" y="504.9707">AsignaturasService</text><text fill="#000000" font-family="sans-serif" font-size="14" lengthAdjust="spacing" textLength="43" x="751" y="522.5801">(Axios)</text><rect fill="#E2E2F0" height="66.8281" rx="2.5" ry="2.5" style="stroke:#181818;stroke-width:0.5;" width="151" x="959" y="14.7813"/><text fill="#000000" font-family="sans-serif" font-size="14" font-style="italic" lengthAdjust="spacing" textLength="78" x="995.5" y="36.3145">&#171;Controller&#187;</text><text fill="#000000" font-family="sans-serif" font-size="14" lengthAdjust="spacing" textLength="137" x="966" y="53.9238">AsignaturasController</text><text fill="#000000" font-family="sans-serif" font-size="14" lengthAdjust="spacing" textLength="53" x="1008" y="71.5332">(NestJS)</text><rect fill="#E2E2F0" height="66.8281" rx="2.5" ry="2.5" style="stroke:#181818;stroke-width:0.5;" width="151" x="959" y="465.8281"/><text fill="#000000" font-family="sans-serif" font-size="14" font-style="italic" lengthAdjust="spacing" textLength="78" x="995.5" y="487.3613">&#171;Controller&#187;</text><text fill="#000000" font-family="sans-serif" font-size="14" lengthAdjust="spacing" textLength="137" x="966" y="504.9707">AsignaturasController</text><text fill="#000000" font-family="sans-serif" font-size="14" lengthAdjust="spacing" textLength="53" x="1008" y="522.5801">(NestJS)</text><rect fill="#E2E2F0" height="66.8281" rx="2.5" ry="2.5" style="stroke:#181818;stroke-width:0.5;" width="136" x="1143.5" y="14.7813"/><text fill="#000000" font-family="sans-serif" font-size="14" font-style="italic" lengthAdjust="spacing" textLength="62" x="1180.5" y="36.3145">&#171;Service&#187;</text><text fill="#000000" font-family="sans-serif" font-size="14" lengthAdjust="spacing" textLength="122" x="1150.5" y="53.9238">AsignaturasService</text><text fill="#000000" font-family="sans-serif" font-size="14" lengthAdjust="spacing" textLength="53" x="1185" y="71.5332">(NestJS)</text><rect fill="#E2E2F0" height="66.8281" rx="2.5" ry="2.5" style="stroke:#181818;stroke-width:0.5;" width="136" x="1143.5" y="465.8281"/><text fill="#000000" font-family="sans-serif" font-size="14" font-style="italic" lengthAdjust="spacing" textLength="62" x="1180.5" y="487.3613">&#171;Service&#187;</text><text fill="#000000" font-family="sans-serif" font-size="14" lengthAdjust="spacing" textLength="122" x="1150.5" y="504.9707">AsignaturasService</text><text fill="#000000" font-family="sans-serif" font-size="14" lengthAdjust="spacing" textLength="53" x="1185" y="522.5801">(NestJS)</text><text fill="#000000" font-family="sans-serif" font-size="14" lengthAdjust="spacing" textLength="77" x="1443" y="79.5332">PostgreSQL</text><path d="M1466.5,29 C1466.5,19 1484.5,19 1484.5,19 C1484.5,19 1502.5,19 1502.5,29 L1502.5,55 C1502.5,65 1484.5,65 1484.5,65 C1484.5,65 1466.5,65 1466.5,55 L1466.5,29 " fill="#E2E2F0" style="stroke:#181818;stroke-width:1.5;"/><path d="M1466.5,29 C1466.5,39 1484.5,39 1484.5,39 C1484.5,39 1502.5,39 1502.5,29 " fill="none" style="stroke:#181818;stroke-width:1.5;"/><text fill="#000000" font-family="sans-serif" font-size="14" lengthAdjust="spacing" textLength="77" x="1443" y="480.3613">PostgreSQL</text><path d="M1466.5,493.4375 C1466.5,483.4375 1484.5,483.4375 1484.5,483.4375 C1484.5,483.4375 1502.5,483.4375 1502.5,493.4375 L1502.5,519.4375 C1502.5,529.4375 1484.5,529.4375 1484.5,529.4375 C1484.5,529.4375 1466.5,529.4375 1466.5,519.4375 L1466.5,493.4375 " fill="#E2E2F0" style="stroke:#181818;stroke-width:1.5;"/><path d="M1466.5,493.4375 C1466.5,503.4375 1484.5,503.4375 1484.5,503.4375 C1484.5,503.4375 1502.5,503.4375 1502.5,493.4375 " fill="none" style="stroke:#181818;stroke-width:1.5;"/><polygon fill="#181818" points="383.5,110.9609,393.5,114.9609,383.5,118.9609,387.5,114.9609" style="stroke:#181818;stroke-width:1.0;"/><line style="stroke:#181818;stroke-width:1.0;" x1="51.5" x2="389.5" y1="114.9609" y2="114.9609"/><text fill="#000000" font-family="sans-serif" font-size="13" lengthAdjust="spacing" textLength="204" x="58.5" y="110.1045">Accede a la gesti&#243;n de asignaturas</text><polygon fill="#181818" points="583.5,141.3125,593.5,145.3125,583.5,149.3125,587.5,145.3125" style="stroke:#181818;stroke-width:1.0;"/><line style="stroke:#181818;stroke-width:1.0;" x1="395.5" x2="589.5" y1="145.3125" y2="145.3125"/><text fill="#000000" font-family="sans-serif" font-size="13" lengthAdjust="spacing" textLength="137" x="402.5" y="140.4561">fetchAsignaturas(query)</text><polygon fill="#181818" points="760.5,171.6641,770.5,175.6641,760.5,179.6641,764.5,175.6641" style="stroke:#181818;stroke-width:1.0;"/><line style="stroke:#181818;stroke-width:1.0;" x1="595.5" x2="766.5" y1="175.6641" y2="175.6641"/><text fill="#000000" font-family="sans-serif" font-size="13" lengthAdjust="spacing" textLength="127" x="602.5" y="170.8076">getAsignaturas(query)</text><polygon fill="#181818" points="1022.5,202.0156,1032.5,206.0156,1022.5,210.0156,1026.5,206.0156" style="stroke:#181818;stroke-width:1.0;"/><line style="stroke:#181818;stroke-width:1.0;" x1="772.5" x2="1028.5" y1="206.0156" y2="206.0156"/><text fill="#000000" font-family="sans-serif" font-size="13" lengthAdjust="spacing" textLength="238" x="779.5" y="201.1592">GET /asignaturas?search=...&amp;gradoId=...</text><polygon fill="#181818" points="1199.5,232.3672,1209.5,236.3672,1199.5,240.3672,1203.5,236.3672" style="stroke:#181818;stroke-width:1.0;"/><line style="stroke:#181818;stroke-width:1.0;" x1="1034.5" x2="1205.5" y1="236.3672" y2="236.3672"/><text fill="#000000" font-family="sans-serif" font-size="13" lengthAdjust="spacing" textLength="75" x="1041.5" y="231.5107">findAll(query)</text><polygon fill="#181818" points="1472.5,262.7188,1482.5,266.7188,1472.5,270.7188,1476.5,266.7188" style="stroke:#181818;stroke-width:1.0;"/><line style="stroke:#181818;stroke-width:1.0;" x1="1211.5" x2="1478.5" y1="266.7188" y2="266.7188"/><text fill="#000000" font-family="sans-serif" font-size="13" lengthAdjust="spacing" textLength="249" x="1218.5" y="261.8623">SELECT * FROM asignatura JOIN grado ...</text><polygon fill="#181818" points="1222.5,293.0703,1212.5,297.0703,1222.5,301.0703,1218.5,297.0703" style="stroke:#181818;stroke-width:1.0;"/><line style="stroke:#181818;stroke-width:1.0;stroke-dasharray:2.0,2.0;" x1="1216.5" x2="1483.5" y1="297.0703" y2="297.0703"/><text fill="#000000" font-family="sans-serif" font-size="13" lengthAdjust="spacing" textLength="128" x="1228.5" y="292.2139">[Asignaturas + Grado]</text><polygon fill="#181818" points="1045.5,323.4219,1035.5,327.4219,1045.5,331.4219,1041.5,327.4219" style="stroke:#181818;stroke-width:1.0;"/><line style="stroke:#181818;stroke-width:1.0;stroke-dasharray:2.0,2.0;" x1="1039.5" x2="1210.5" y1="327.4219" y2="327.4219"/><text fill="#000000" font-family="sans-serif" font-size="13" lengthAdjust="spacing" textLength="153" x="1051.5" y="322.5654">PaginatedAsignaturasDTO</text><polygon fill="#181818" points="783.5,353.7734,773.5,357.7734,783.5,361.7734,779.5,357.7734" style="stroke:#181818;stroke-width:1.0;"/><line style="stroke:#181818;stroke-width:1.0;stroke-dasharray:2.0,2.0;" x1="777.5" x2="1033.5" y1="357.7734" y2="357.7734"/><text fill="#000000" font-family="sans-serif" font-size="13" lengthAdjust="spacing" textLength="96" x="789.5" y="352.917">JSON Response</text><polygon fill="#181818" points="606.5,384.125,596.5,388.125,606.5,392.125,602.5,388.125" style="stroke:#181818;stroke-width:1.0;"/><line style="stroke:#181818;stroke-width:1.0;stroke-dasharray:2.0,2.0;" x1="600.5" x2="771.5" y1="388.125" y2="388.125"/><text fill="#000000" font-family="sans-serif" font-size="13" lengthAdjust="spacing" textLength="153" x="612.5" y="383.2686">PaginatedAsignaturasDTO</text><polygon fill="#181818" points="406.5,414.4766,396.5,418.4766,406.5,422.4766,402.5,418.4766" style="stroke:#181818;stroke-width:1.0;"/><line style="stroke:#181818;stroke-width:1.0;stroke-dasharray:2.0,2.0;" x1="400.5" x2="594.5" y1="418.4766" y2="418.4766"/><text fill="#000000" font-family="sans-serif" font-size="13" lengthAdjust="spacing" textLength="176" x="412.5" y="413.6201">Actualiza estado (asignaturas)</text><polygon fill="#181818" points="62.5,444.8281,52.5,448.8281,62.5,452.8281,58.5,448.8281" style="stroke:#181818;stroke-width:1.0;"/><line style="stroke:#181818;stroke-width:1.0;stroke-dasharray:2.0,2.0;" x1="56.5" x2="394.5" y1="448.8281" y2="448.8281"/><text fill="#000000" font-family="sans-serif" font-size="13" lengthAdjust="spacing" textLength="320" x="68.5" y="443.9717">Muestra tabla de asignaturas con informaci&#243;n de Grado</text><!--SRC=[ZLDDKzim4BtxL-paq4dQ8Rrx88oT3vfCI6YSSg4zBFB6qU18gIH3wT_Y9_37M3a9aHdQuMH9-zxRtRThUoVL5WrkmAunrmzI5R32qb8KeN3QG99lf9BM6OwQYA5E2hb5vQ2LM5aeT9L1EsN4jQI7dwgz82PsMe0MVepXzBIlDrkjIBbUhqclB0KApFoczTsEw4zCzP-th82IaRcNWfYP_97QxgYZ_IlJzwV_AFIrSaQN9HaMcP5rasodSWpK7Hmk7oecr4dVgoP7XxTe2LfNshh2KFPzMgC7QHGr_8QJdZSnXaG8oWaGIeI2zUNpamB_S2mWOY33Q-jYM94Jww2yzk-Ap6CdgiCCUxKfPZtt3l0LmE30ZHWkXalu6kGzjuH6hC-wtUwdmbSzplqv2aWiaHxphQJAax8y94g3H8EKuzbmEkmluJEC5lFBe4EOpCSpg5E0Jy3WawRoJT07V84B3_qL97ZRoXKMak6K1xp1SjuelUdL99lFO46MDvf_aL6el3V-Nvexuu_pT1MMyYy23zCtr0uSxTIZP6Xp5sAuhCXVWDU7zw0vVX1QWLGhRJOe3kjHE_02]--></g></svg>