<?xml version="1.0" encoding="us-ascii" standalone="no"?><svg xmlns="http://www.w3.org/2000/svg" xmlns:xlink="http://www.w3.org/1999/xlink" contentStyleType="text/css" height="971px" preserveAspectRatio="none" style="width:1350px;height:971px;background:#FFFFFF;" version="1.1" viewBox="0 0 1350 971" width="1350px" zoomAndPan="magnify"><defs/><g><line style="stroke:#181818;stroke-width:0.5;stroke-dasharray:5.0,5.0;" x1="51" x2="51" y1="82.6094" y2="889.3984"/><line style="stroke:#181818;stroke-width:0.5;stroke-dasharray:5.0,5.0;" x1="265" x2="265" y1="82.6094" y2="889.3984"/><line style="stroke:#181818;stroke-width:0.5;stroke-dasharray:5.0,5.0;" x1="424.5" x2="424.5" y1="82.6094" y2="889.3984"/><line style="stroke:#181818;stroke-width:0.5;stroke-dasharray:5.0,5.0;" x1="600.5" x2="600.5" y1="82.6094" y2="889.3984"/><line style="stroke:#181818;stroke-width:0.5;stroke-dasharray:5.0,5.0;" x1="822" x2="822" y1="82.6094" y2="889.3984"/><line style="stroke:#181818;stroke-width:0.5;stroke-dasharray:5.0,5.0;" x1="998.5" x2="998.5" y1="82.6094" y2="889.3984"/><line style="stroke:#181818;stroke-width:0.5;stroke-dasharray:5.0,5.0;" x1="1296" x2="1296" y1="82.6094" y2="889.3984"/><text fill="#000000" font-family="sans-serif" font-size="14" lengthAdjust="spacing" textLength="87" x="5" y="79.5332">Administrador</text><ellipse cx="51.5" cy="13.5" fill="#E2E2F0" rx="8" ry="8" style="stroke:#181818;stroke-width:0.5;"/><path d="M51.5,21.5 L51.5,48.5 M38.5,29.5 L64.5,29.5 M51.5,48.5 L38.5,63.5 M51.5,48.5 L64.5,63.5 " fill="none" style="stroke:#181818;stroke-width:0.5;"/><text fill="#000000" font-family="sans-serif" font-size="14" lengthAdjust="spacing" textLength="87" x="5" y="902.9316">Administrador</text><ellipse cx="51.5" cy="914.5078" fill="#E2E2F0" rx="8" ry="8" style="stroke:#181818;stroke-width:0.5;"/><path d="M51.5,922.5078 L51.5,949.5078 M38.5,930.5078 L64.5,930.5078 M51.5,949.5078 L38.5,964.5078 M51.5,949.5078 L64.5,964.5078 " fill="none" style="stroke:#181818;stroke-width:0.5;"/><rect fill="#E2E2F0" height="66.8281" rx="2.5" ry="2.5" style="stroke:#181818;stroke-width:0.5;" width="139" x="196" y="14.7813"/><text fill="#000000" font-family="sans-serif" font-size="14" font-style="italic" lengthAdjust="spacing" textLength="89" x="221" y="36.3145">&#171;Component&#187;</text><text fill="#000000" font-family="sans-serif" font-size="14" lengthAdjust="spacing" textLength="125" x="203" y="53.9238">AsignaturaEditForm</text><text fill="#000000" font-family="sans-serif" font-size="14" lengthAdjust="spacing" textLength="47" x="242" y="71.5332">(React)</text><rect fill="#E2E2F0" height="66.8281" rx="2.5" ry="2.5" style="stroke:#181818;stroke-width:0.5;" width="139" x="196" y="888.3984"/><text fill="#000000" font-family="sans-serif" font-size="14" font-style="italic" lengthAdjust="spacing" textLength="89" x="221" y="909.9316">&#171;Component&#187;</text><text fill="#000000" font-family="sans-serif" font-size="14" lengthAdjust="spacing" textLength="125" x="203" y="927.541">AsignaturaEditForm</text><text fill="#000000" font-family="sans-serif" font-size="14" lengthAdjust="spacing" textLength="47" x="242" y="945.1504">(React)</text><rect fill="#E2E2F0" height="66.8281" rx="2.5" ry="2.5" style="stroke:#181818;stroke-width:0.5;" width="112" x="368.5" y="14.7813"/><text fill="#000000" font-family="sans-serif" font-size="14" font-style="italic" lengthAdjust="spacing" textLength="50" x="399.5" y="36.3145">&#171;Hook&#187;</text><text fill="#000000" font-family="sans-serif" font-size="14" lengthAdjust="spacing" textLength="98" x="375.5" y="53.9238">useAsignaturas</text><text fill="#000000" font-family="sans-serif" font-size="14" lengthAdjust="spacing" textLength="42" x="403.5" y="71.5332">(Hook)</text><rect fill="#E2E2F0" height="66.8281" rx="2.5" ry="2.5" style="stroke:#181818;stroke-width:0.5;" width="112" x="368.5" y="888.3984"/><text fill="#000000" font-family="sans-serif" font-size="14" font-style="italic" lengthAdjust="spacing" textLength="50" x="399.5" y="909.9316">&#171;Hook&#187;</text><text fill="#000000" font-family="sans-serif" font-size="14" lengthAdjust="spacing" textLength="98" x="375.5" y="927.541">useAsignaturas</text><text fill="#000000" font-family="sans-serif" font-size="14" lengthAdjust="spacing" textLength="42" x="403.5" y="945.1504">(Hook)</text><rect fill="#E2E2F0" height="66.8281" rx="2.5" ry="2.5" style="stroke:#181818;stroke-width:0.5;" width="136" x="532.5" y="14.7813"/><text fill="#000000" font-family="sans-serif" font-size="14" font-style="italic" lengthAdjust="spacing" textLength="62" x="569.5" y="36.3145">&#171;Service&#187;</text><text fill="#000000" font-family="sans-serif" font-size="14" lengthAdjust="spacing" textLength="122" x="539.5" y="53.9238">AsignaturasService</text><text fill="#000000" font-family="sans-serif" font-size="14" lengthAdjust="spacing" textLength="43" x="579" y="71.5332">(Axios)</text><rect fill="#E2E2F0" height="66.8281" rx="2.5" ry="2.5" style="stroke:#181818;stroke-width:0.5;" width="136" x="532.5" y="888.3984"/><text fill="#000000" font-family="sans-serif" font-size="14" font-style="italic" lengthAdjust="spacing" textLength="62" x="569.5" y="909.9316">&#171;Service&#187;</text><text fill="#000000" font-family="sans-serif" font-size="14" lengthAdjust="spacing" textLength="122" x="539.5" y="927.541">AsignaturasService</text><text fill="#000000" font-family="sans-serif" font-size="14" lengthAdjust="spacing" textLength="43" x="579" y="945.1504">(Axios)</text><rect fill="#E2E2F0" height="66.8281" rx="2.5" ry="2.5" style="stroke:#181818;stroke-width:0.5;" width="151" x="747" y="14.7813"/><text fill="#000000" font-family="sans-serif" font-size="14" font-style="italic" lengthAdjust="spacing" textLength="78" x="783.5" y="36.3145">&#171;Controller&#187;</text><text fill="#000000" font-family="sans-serif" font-size="14" lengthAdjust="spacing" textLength="137" x="754" y="53.9238">AsignaturasController</text><text fill="#000000" font-family="sans-serif" font-size="14" lengthAdjust="spacing" textLength="53" x="796" y="71.5332">(NestJS)</text><rect fill="#E2E2F0" height="66.8281" rx="2.5" ry="2.5" style="stroke:#181818;stroke-width:0.5;" width="151" x="747" y="888.3984"/><text fill="#000000" font-family="sans-serif" font-size="14" font-style="italic" lengthAdjust="spacing" textLength="78" x="783.5" y="909.9316">&#171;Controller&#187;</text><text fill="#000000" font-family="sans-serif" font-size="14" lengthAdjust="spacing" textLength="137" x="754" y="927.541">AsignaturasController</text><text fill="#000000" font-family="sans-serif" font-size="14" lengthAdjust="spacing" textLength="53" x="796" y="945.1504">(NestJS)</text><rect fill="#E2E2F0" height="66.8281" rx="2.5" ry="2.5" style="stroke:#181818;stroke-width:0.5;" width="136" x="930.5" y="14.7813"/><text fill="#000000" font-family="sans-serif" font-size="14" font-style="italic" lengthAdjust="spacing" textLength="62" x="967.5" y="36.3145">&#171;Service&#187;</text><text fill="#000000" font-family="sans-serif" font-size="14" lengthAdjust="spacing" textLength="122" x="937.5" y="53.9238">AsignaturasService</text><text fill="#000000" font-family="sans-serif" font-size="14" lengthAdjust="spacing" textLength="53" x="972" y="71.5332">(NestJS)</text><rect fill="#E2E2F0" height="66.8281" rx="2.5" ry="2.5" style="stroke:#181818;stroke-width:0.5;" width="136" x="930.5" y="888.3984"/><text fill="#000000" font-family="sans-serif" font-size="14" font-style="italic" lengthAdjust="spacing" textLength="62" x="967.5" y="909.9316">&#171;Service&#187;</text><text fill="#000000" font-family="sans-serif" font-size="14" lengthAdjust="spacing" textLength="122" x="937.5" y="927.541">AsignaturasService</text><text fill="#000000" font-family="sans-serif" font-size="14" lengthAdjust="spacing" textLength="53" x="972" y="945.1504">(NestJS)</text><text fill="#000000" font-family="sans-serif" font-size="14" lengthAdjust="spacing" textLength="77" x="1255" y="79.5332">PostgreSQL</text><path d="M1278.5,29 C1278.5,19 1296.5,19 1296.5,19 C1296.5,19 1314.5,19 1314.5,29 L1314.5,55 C1314.5,65 1296.5,65 1296.5,65 C1296.5,65 1278.5,65 1278.5,55 L1278.5,29 " fill="#E2E2F0" style="stroke:#181818;stroke-width:1.5;"/><path d="M1278.5,29 C1278.5,39 1296.5,39 1296.5,39 C1296.5,39 1314.5,39 1314.5,29 " fill="none" style="stroke:#181818;stroke-width:1.5;"/><text fill="#000000" font-family="sans-serif" font-size="14" lengthAdjust="spacing" textLength="77" x="1255" y="902.9316">PostgreSQL</text><path d="M1278.5,916.0078 C1278.5,906.0078 1296.5,906.0078 1296.5,906.0078 C1296.5,906.0078 1314.5,906.0078 1314.5,916.0078 L1314.5,942.0078 C1314.5,952.0078 1296.5,952.0078 1296.5,952.0078 C1296.5,952.0078 1278.5,952.0078 1278.5,942.0078 L1278.5,916.0078 " fill="#E2E2F0" style="stroke:#181818;stroke-width:1.5;"/><path d="M1278.5,916.0078 C1278.5,926.0078 1296.5,926.0078 1296.5,926.0078 C1296.5,926.0078 1314.5,926.0078 1314.5,916.0078 " fill="none" style="stroke:#181818;stroke-width:1.5;"/><rect fill="#EEEEEE" height="3" style="stroke:#EEEEEE;stroke-width:1.0;" width="1343" x="0" y="113.7852"/><line style="stroke:#000000;stroke-width:1.0;" x1="0" x2="1343" y1="113.7852" y2="113.7852"/><line style="stroke:#000000;stroke-width:1.0;" x1="0" x2="1343" y1="116.7852" y2="116.7852"/><rect fill="#EEEEEE" height="24.3516" style="stroke:#000000;stroke-width:2.0;" width="115" x="614" y="102.6094"/><text fill="#000000" font-family="sans-serif" font-size="13" font-weight="bold" lengthAdjust="spacing" textLength="97" x="620" y="120.1045">Carga de Datos</text><polygon fill="#181818" points="253.5,155.3125,263.5,159.3125,253.5,163.3125,257.5,159.3125" style="stroke:#181818;stroke-width:1.0;"/><line style="stroke:#181818;stroke-width:1.0;" x1="51.5" x2="259.5" y1="159.3125" y2="159.3125"/><text fill="#000000" font-family="sans-serif" font-size="13" lengthAdjust="spacing" textLength="155" x="58.5" y="154.4561">Accede a editar asignatura</text><polygon fill="#181818" points="412.5,185.6641,422.5,189.6641,412.5,193.6641,416.5,189.6641" style="stroke:#181818;stroke-width:1.0;"/><line style="stroke:#181818;stroke-width:1.0;" x1="265.5" x2="418.5" y1="189.6641" y2="189.6641"/><text fill="#000000" font-family="sans-serif" font-size="13" lengthAdjust="spacing" textLength="98" x="272.5" y="184.8076">getAsignatura(id)</text><polygon fill="#181818" points="588.5,216.0156,598.5,220.0156,588.5,224.0156,592.5,220.0156" style="stroke:#181818;stroke-width:1.0;"/><line style="stroke:#181818;stroke-width:1.0;" x1="424.5" x2="594.5" y1="220.0156" y2="220.0156"/><text fill="#000000" font-family="sans-serif" font-size="13" lengthAdjust="spacing" textLength="62" x="431.5" y="215.1592">findOne(id)</text><polygon fill="#181818" points="810.5,246.3672,820.5,250.3672,810.5,254.3672,814.5,250.3672" style="stroke:#181818;stroke-width:1.0;"/><line style="stroke:#181818;stroke-width:1.0;" x1="600.5" x2="816.5" y1="250.3672" y2="250.3672"/><text fill="#000000" font-family="sans-serif" font-size="13" lengthAdjust="spacing" textLength="119" x="607.5" y="245.5107">GET /asignaturas/:id</text><polygon fill="#181818" points="986.5,276.7188,996.5,280.7188,986.5,284.7188,990.5,280.7188" style="stroke:#181818;stroke-width:1.0;"/><line style="stroke:#181818;stroke-width:1.0;" x1="822.5" x2="992.5" y1="280.7188" y2="280.7188"/><text fill="#000000" font-family="sans-serif" font-size="13" lengthAdjust="spacing" textLength="62" x="829.5" y="275.8623">findOne(id)</text><polygon fill="#181818" points="1284.5,307.0703,1294.5,311.0703,1284.5,315.0703,1288.5,311.0703" style="stroke:#181818;stroke-width:1.0;"/><line style="stroke:#181818;stroke-width:1.0;" x1="998.5" x2="1290.5" y1="311.0703" y2="311.0703"/><text fill="#000000" font-family="sans-serif" font-size="13" lengthAdjust="spacing" textLength="274" x="1005.5" y="306.2139">SELECT * FROM "Asignatura" WHERE id = :id</text><polygon fill="#181818" points="1009.5,337.4219,999.5,341.4219,1009.5,345.4219,1005.5,341.4219" style="stroke:#181818;stroke-width:1.0;"/><line style="stroke:#181818;stroke-width:1.0;stroke-dasharray:2.0,2.0;" x1="1003.5" x2="1295.5" y1="341.4219" y2="341.4219"/><text fill="#000000" font-family="sans-serif" font-size="13" lengthAdjust="spacing" textLength="93" x="1015.5" y="336.5654">Asignatura Data</text><polygon fill="#181818" points="833.5,367.7734,823.5,371.7734,833.5,375.7734,829.5,371.7734" style="stroke:#181818;stroke-width:1.0;"/><line style="stroke:#181818;stroke-width:1.0;stroke-dasharray:2.0,2.0;" x1="827.5" x2="997.5" y1="371.7734" y2="371.7734"/><text fill="#000000" font-family="sans-serif" font-size="13" lengthAdjust="spacing" textLength="100" x="839.5" y="366.917">Asignatura Entity</text><polygon fill="#181818" points="611.5,398.125,601.5,402.125,611.5,406.125,607.5,402.125" style="stroke:#181818;stroke-width:1.0;"/><line style="stroke:#181818;stroke-width:1.0;stroke-dasharray:2.0,2.0;" x1="605.5" x2="821.5" y1="402.125" y2="402.125"/><text fill="#000000" font-family="sans-serif" font-size="13" lengthAdjust="spacing" textLength="96" x="617.5" y="397.2686">JSON Response</text><polygon fill="#181818" points="435.5,428.4766,425.5,432.4766,435.5,436.4766,431.5,432.4766" style="stroke:#181818;stroke-width:1.0;"/><line style="stroke:#181818;stroke-width:1.0;stroke-dasharray:2.0,2.0;" x1="429.5" x2="599.5" y1="432.4766" y2="432.4766"/><text fill="#000000" font-family="sans-serif" font-size="13" lengthAdjust="spacing" textLength="104" x="441.5" y="427.6201">Asignatura Object</text><polygon fill="#181818" points="276.5,458.8281,266.5,462.8281,276.5,466.8281,272.5,462.8281" style="stroke:#181818;stroke-width:1.0;"/><line style="stroke:#181818;stroke-width:1.0;stroke-dasharray:2.0,2.0;" x1="270.5" x2="423.5" y1="462.8281" y2="462.8281"/><text fill="#000000" font-family="sans-serif" font-size="13" lengthAdjust="spacing" textLength="103" x="282.5" y="457.9717">Rellena formulario</text><rect fill="#EEEEEE" height="3" style="stroke:#EEEEEE;stroke-width:1.0;" width="1343" x="0" y="492.0039"/><line style="stroke:#000000;stroke-width:1.0;" x1="0" x2="1343" y1="492.0039" y2="492.0039"/><line style="stroke:#000000;stroke-width:1.0;" x1="0" x2="1343" y1="495.0039" y2="495.0039"/><rect fill="#EEEEEE" height="24.3516" style="stroke:#000000;stroke-width:2.0;" width="65" x="639" y="480.8281"/><text fill="#000000" font-family="sans-serif" font-size="13" font-weight="bold" lengthAdjust="spacing" textLength="47" x="645" y="498.3232">Edici&#243;n</text><polygon fill="#181818" points="253.5,533.5313,263.5,537.5313,253.5,541.5313,257.5,537.5313" style="stroke:#181818;stroke-width:1.0;"/><line style="stroke:#181818;stroke-width:1.0;" x1="51.5" x2="259.5" y1="537.5313" y2="537.5313"/><text fill="#000000" font-family="sans-serif" font-size="13" lengthAdjust="spacing" textLength="190" x="58.5" y="532.6748">Modifica datos y pulsa "Guardar"</text><polygon fill="#181818" points="412.5,563.8828,422.5,567.8828,412.5,571.8828,416.5,567.8828" style="stroke:#181818;stroke-width:1.0;"/><line style="stroke:#181818;stroke-width:1.0;" x1="265.5" x2="418.5" y1="567.8828" y2="567.8828"/><text fill="#000000" font-family="sans-serif" font-size="13" lengthAdjust="spacing" textLength="90" x="272.5" y="563.0264">update(id, data)</text><polygon fill="#181818" points="588.5,594.2344,598.5,598.2344,588.5,602.2344,592.5,598.2344" style="stroke:#181818;stroke-width:1.0;"/><line style="stroke:#181818;stroke-width:1.0;" x1="424.5" x2="594.5" y1="598.2344" y2="598.2344"/><text fill="#000000" font-family="sans-serif" font-size="13" lengthAdjust="spacing" textLength="152" x="431.5" y="593.3779">updateAsignatura(id, data)</text><polygon fill="#181818" points="810.5,624.5859,820.5,628.5859,810.5,632.5859,814.5,628.5859" style="stroke:#181818;stroke-width:1.0;"/><line style="stroke:#181818;stroke-width:1.0;" x1="600.5" x2="816.5" y1="628.5859" y2="628.5859"/><text fill="#000000" font-family="sans-serif" font-size="13" lengthAdjust="spacing" textLength="198" x="607.5" y="623.7295">PUT /asignaturas/:id (JSON Body)</text><polygon fill="#181818" points="986.5,654.9375,996.5,658.9375,986.5,662.9375,990.5,658.9375" style="stroke:#181818;stroke-width:1.0;"/><line style="stroke:#181818;stroke-width:1.0;" x1="822.5" x2="992.5" y1="658.9375" y2="658.9375"/><text fill="#000000" font-family="sans-serif" font-size="13" lengthAdjust="spacing" textLength="83" x="829.5" y="654.0811">update(id, dto)</text><polygon fill="#181818" points="1284.5,685.2891,1294.5,689.2891,1284.5,693.2891,1288.5,689.2891" style="stroke:#181818;stroke-width:1.0;"/><line style="stroke:#181818;stroke-width:1.0;" x1="998.5" x2="1290.5" y1="689.2891" y2="689.2891"/><text fill="#000000" font-family="sans-serif" font-size="13" lengthAdjust="spacing" textLength="270" x="1005.5" y="684.4326">UPDATE "Asignatura" SET ... WHERE id = :id</text><polygon fill="#181818" points="1009.5,715.6406,999.5,719.6406,1009.5,723.6406,1005.5,719.6406" style="stroke:#181818;stroke-width:1.0;"/><line style="stroke:#181818;stroke-width:1.0;stroke-dasharray:2.0,2.0;" x1="1003.5" x2="1295.5" y1="719.6406" y2="719.6406"/><text fill="#000000" font-family="sans-serif" font-size="13" lengthAdjust="spacing" textLength="132" x="1015.5" y="714.7842">Asignatura actualizada</text><polygon fill="#181818" points="833.5,745.9922,823.5,749.9922,833.5,753.9922,829.5,749.9922" style="stroke:#181818;stroke-width:1.0;"/><line style="stroke:#181818;stroke-width:1.0;stroke-dasharray:2.0,2.0;" x1="827.5" x2="997.5" y1="749.9922" y2="749.9922"/><text fill="#000000" font-family="sans-serif" font-size="13" lengthAdjust="spacing" textLength="152" x="839.5" y="745.1357">Updated Asignatura Entity</text><polygon fill="#181818" points="611.5,776.3438,601.5,780.3438,611.5,784.3438,607.5,780.3438" style="stroke:#181818;stroke-width:1.0;"/><line style="stroke:#181818;stroke-width:1.0;stroke-dasharray:2.0,2.0;" x1="605.5" x2="821.5" y1="780.3438" y2="780.3438"/><text fill="#000000" font-family="sans-serif" font-size="13" lengthAdjust="spacing" textLength="152" x="617.5" y="775.4873">JSON Response (200 OK)</text><polygon fill="#181818" points="435.5,806.6953,425.5,810.6953,435.5,814.6953,431.5,810.6953" style="stroke:#181818;stroke-width:1.0;"/><line style="stroke:#181818;stroke-width:1.0;stroke-dasharray:2.0,2.0;" x1="429.5" x2="599.5" y1="810.6953" y2="810.6953"/><text fill="#000000" font-family="sans-serif" font-size="13" lengthAdjust="spacing" textLength="51" x="441.5" y="805.8389">Success</text><polygon fill="#181818" points="276.5,837.0469,266.5,841.0469,276.5,845.0469,272.5,841.0469" style="stroke:#181818;stroke-width:1.0;"/><line style="stroke:#181818;stroke-width:1.0;stroke-dasharray:2.0,2.0;" x1="270.5" x2="423.5" y1="841.0469" y2="841.0469"/><text fill="#000000" font-family="sans-serif" font-size="13" lengthAdjust="spacing" textLength="135" x="282.5" y="836.1904">Redirigir / Mostrar &#233;xito</text><polygon fill="#181818" points="62.5,867.3984,52.5,871.3984,62.5,875.3984,58.5,871.3984" style="stroke:#181818;stroke-width:1.0;"/><line style="stroke:#181818;stroke-width:1.0;stroke-dasharray:2.0,2.0;" x1="56.5" x2="264.5" y1="871.3984" y2="871.3984"/><text fill="#000000" font-family="sans-serif" font-size="13" lengthAdjust="spacing" textLength="150" x="68.5" y="866.542">Muestra mensaje de &#233;xito</text><!--SRC=[dPJDSjem58NtVeexNa6dWKoNJ606WqcQ9e5Yc6wokR64UnCZCPBSXhvHrts4l5Yl3GGvWKpQbNzqpk7wV1BsWTGA3Ix1VaUXVvBAO86vbK60gTC6-c99Ygmpl6e2bZfAQONAGTYtb2bqXS5Oa1jfixnLZQbaNpC4j33_36Td0xrSQIMLw_NgxiBAVO1bvuNM3njZUSVMylBIvLaIQNvGAjdPVoHjDzRHzYtRjtTl90oqSaRdkJGSSYEjkqmsAVk5wWjs3-yQni-93aqZqE4TMWdXH5kN6PbylQhKmoW8kbqOeCaGX8GXEcsXsmrg3E2aLpRRWNwQIbOXI6uV3IVifWbudLLLZHt8fDiFsY3H3Ae55ZoNrO45AJ5Mibf-ViqIhuaEdCSpQEz_nhOx909FmVheS6JaHGuZNapYgtWmWmymcewl_IP3-7OHJsCW0Lqeyrb-KW_UYykAq0j_ER2dZ9KZjwvDMs_WCXdVm5HQtgsy-qT-vhP8BsryTozJjoro1sGgELSXBFWa53aQqXLFFXmfFVrHnqbUQq4BIXbwHNmDgoAt2E5vWKQW2UiyYnNBobe_bdeyY7EZgM7Vgk4utidyDLveLBr4MgoRnr7x8pbz0FTyCkpFuZhdX7TJgzNw9zxytr9WJhzGl8LzNeqZ_Xy_D3wTdiBuI_FWFaWAFddMlg8lo5161jeCj4HiuEdt8pbTuMDP7JvZBsJv04kfBDxByiXl37y1]--></g></svg>