<?xml version="1.0" encoding="us-ascii" standalone="no"?><svg xmlns="http://www.w3.org/2000/svg" xmlns:xlink="http://www.w3.org/1999/xlink" contentStyleType="text/css" height="335px" preserveAspectRatio="none" style="width:1383px;height:335px;background:#FFFFFF;" version="1.1" viewBox="0 0 1383 335" width="1383px" zoomAndPan="magnify"><defs/><g><!--cluster editarAsignatura--><g id="cluster_editarAsignatura"><path d="M8.5,6 L135.5,6 A3.75,3.75 0 0 1 138,8.5 L145,29.6094 L702.5,29.6094 A2.5,2.5 0 0 1 705,32.1094 L705,325.5 A2.5,2.5 0 0 1 702.5,328 L8.5,328 A2.5,2.5 0 0 1 6,325.5 L6,8.5 A2.5,2.5 0 0 1 8.5,6 " fill="none" style="stroke:#000000;stroke-width:1.5;"/><line style="stroke:#000000;stroke-width:1.5;" x1="6" x2="145" y1="29.6094" y2="29.6094"/><text fill="#000000" font-family="sans-serif" font-size="14" font-weight="bold" lengthAdjust="spacing" textLength="126" x="10" y="22.5332">editarAsignatura()</text></g><!--entity EditarAsignaturaView--><g id="elem_EditarAsignaturaView"><rect fill="#629EF9" height="37.6094" rx="2.5" ry="2.5" style="stroke:#181818;stroke-width:0.5;" width="154" x="535" y="42"/><text fill="#000000" font-family="sans-serif" font-size="14" lengthAdjust="spacing" textLength="134" x="545" y="66.5332">EditarAsignaturaView</text></g><!--entity AsignaturaController--><g id="elem_AsignaturaController"><rect fill="#B5BD68" height="37.6094" rx="2.5" ry="2.5" style="stroke:#181818;stroke-width:0.5;" width="150" x="180" y="158"/><text fill="#000000" font-family="sans-serif" font-size="14" lengthAdjust="spacing" textLength="130" x="190" y="182.5332">AsignaturaController</text></g><!--entity AsignaturaRepository--><g id="elem_AsignaturaRepository"><rect fill="#F2AC4E" height="37.6094" rx="2.5" ry="2.5" style="stroke:#181818;stroke-width:0.5;" width="156" x="168" y="274"/><text fill="#000000" font-family="sans-serif" font-size="14" lengthAdjust="spacing" textLength="136" x="178" y="298.5332">AsignaturaRepository</text></g><!--entity Asignatura--><g id="elem_Asignatura"><rect fill="#F2AC4E" height="37.6094" rx="2.5" ry="2.5" style="stroke:#181818;stroke-width:0.5;" width="88" x="590" y="274"/><text fill="#000000" font-family="sans-serif" font-size="14" lengthAdjust="spacing" textLength="68" x="600" y="298.5332">Asignatura</text></g><!--entity AsignaturasAbierto--><g id="elem_AsignaturasAbierto"><rect fill="#CDEBA5" height="37.6094" rx="2.5" ry="2.5" style="stroke:#181818;stroke-width:0.5;" width="148" x="772" y="158"/><text fill="#000000" font-family="sans-serif" font-size="14" lengthAdjust="spacing" textLength="128" x="782" y="182.5332">:Asignaturas Abierto</text></g><!--entity AsignaturaAbierta--><g id="elem_AsignaturaAbierta"><rect fill="#CDEBA5" height="37.6094" rx="2.5" ry="2.5" style="stroke:#181818;stroke-width:0.5;" width="141" x="1086.5" y="158"/><text fill="#000000" font-family="sans-serif" font-size="14" lengthAdjust="spacing" textLength="121" x="1096.5" y="182.5332">:Asignatura Abierta</text></g><!--link AsignaturasAbierto to EditarAsignaturaView--><g id="link_AsignaturasAbierto_EditarAsignaturaView"><path d="M771.93,159.62 C709.06,145.71 629,128 629,128 C629,128 623.175,105.3908 618.145,85.8408 " fill="none" id="AsignaturasAbierto-to-EditarAsignaturaView" style="stroke:#181818;stroke-width:1.0;"/><polygon fill="#181818" points="616.65,80.03,615.0187,89.7428,617.8959,84.8723,622.7664,87.7494,616.65,80.03" style="stroke:#181818;stroke-width:1.0;"/><text fill="#000000" font-family="sans-serif" font-size="13" lengthAdjust="spacing" textLength="172" x="630" y="124.4951">editarAsignatura(asignaturaId)</text></g><!--link EditarAsignaturaView to AsignaturasAbierto--><g id="link_EditarAsignaturaView_AsignaturasAbierto"><path d="M685.17,80.01 C740.5,93.63 807,110 807,110 C807,110 820.75,133.253 832.29,152.803 " fill="none" id="EditarAsignaturaView-to-AsignaturasAbierto" style="stroke:#181818;stroke-width:1.0;stroke-dasharray:7.0,7.0;"/><polygon fill="#181818" points="835.34,157.97,834.2097,148.1862,832.7984,153.6642,827.3204,152.2528,835.34,157.97" style="stroke:#181818;stroke-width:1.0;"/><text fill="#000000" font-family="sans-serif" font-size="13" lengthAdjust="spacing" textLength="164" x="819" y="124.4951">&#171;finalizar&#187; abrirAsignaturas()</text></g><!--link EditarAsignaturaView to AsignaturasAbierto--><g id="link_EditarAsignaturaView_AsignaturasAbierto"><path d="M689.36,71.77 C800.46,85.81 992,110 992,110 C992,110 992,128 992,128 C992,128 947.9099,142.4962 906.4799,156.1162 " fill="none" id="EditarAsignaturaView-to-AsignaturasAbierto-1" style="stroke:#181818;stroke-width:1.0;stroke-dasharray:7.0,7.0;"/><polygon fill="#181818" points="900.78,157.99,910.5791,158.9792,905.5299,156.4285,908.0806,151.3793,900.78,157.99" style="stroke:#181818;stroke-width:1.0;"/><text fill="#000000" font-family="sans-serif" font-size="13" lengthAdjust="spacing" textLength="63" x="993" y="124.4951">&#171;cancelar&#187;</text></g><!--link EditarAsignaturaView to AsignaturaController--><g id="link_EditarAsignaturaView_AsignaturaController"><path d="M535,68.62 C381.92,81.79 54,110 54,110 C54,110 54,128 54,128 C54,128 116.9443,143.0257 174.0343,156.6657 " fill="none" id="EditarAsignaturaView-to-AsignaturaController" style="stroke:#181818;stroke-width:1.0;"/><polygon fill="#181818" points="179.87,158.06,172.0459,152.0781,175.0069,156.8981,170.1869,159.8591,179.87,158.06" style="stroke:#181818;stroke-width:1.0;"/><text fill="#000000" font-family="sans-serif" font-size="13" lengthAdjust="spacing" textLength="166" x="55" y="124.4951">solicitarEdicion(asignaturaId)</text></g><!--link EditarAsignaturaView to AsignaturaController--><g id="link_EditarAsignaturaView_AsignaturaController"><path d="M534.87,73.5 C439.61,87.7 290,110 290,110 C290,110 277.7416,133.1195 267.3716,152.6695 " fill="none" id="EditarAsignaturaView-to-AsignaturaController-1" style="stroke:#181818;stroke-width:1.0;"/><polygon fill="#181818" points="264.56,157.97,272.311,151.8936,266.903,153.5529,265.2437,148.1449,264.56,157.97" style="stroke:#181818;stroke-width:1.0;"/><text fill="#000000" font-family="sans-serif" font-size="13" lengthAdjust="spacing" textLength="325" x="291" y="124.4951">actualizar(asignaturaId, codigo, nombre, creditos, grado)</text></g><!--link AsignaturaController to AsignaturaRepository--><g id="link_AsignaturaController_AsignaturaRepository"><path d="M179.87,195.94 C122.78,209.58 54,226 54,226 C54,226 54,244 54,244 C54,244 113.6591,258.9148 168.1391,272.5348 " fill="none" id="AsignaturaController-to-AsignaturaRepository" style="stroke:#181818;stroke-width:1.0;"/><polygon fill="#181818" points="173.96,273.99,166.1989,267.9266,169.1093,272.7773,164.2586,275.6877,173.96,273.99" style="stroke:#181818;stroke-width:1.0;"/><text fill="#000000" font-family="sans-serif" font-size="13" lengthAdjust="spacing" textLength="147" x="55" y="240.4951">buscarPorId(asignaturaId)</text></g><!--link AsignaturaController to AsignaturaRepository--><g id="link_AsignaturaController_AsignaturaRepository"><path d="M250.46,196.15 C247.07,209.74 243,226 243,226 C243,226 243,244 243,244 C243,244 243.6455,254.2717 244.4955,267.8617 " fill="none" id="AsignaturaController-to-AsignaturaRepository-1" style="stroke:#181818;stroke-width:1.0;"/><polygon fill="#181818" points="244.87,273.85,248.3004,264.6179,244.5579,268.8598,240.316,265.1172,244.87,273.85" style="stroke:#181818;stroke-width:1.0;"/><text fill="#000000" font-family="sans-serif" font-size="13" lengthAdjust="spacing" textLength="180" x="244" y="240.4951">existeCodigo(codigo) : Boolean</text></g><!--link AsignaturaController to AsignaturaRepository--><g id="link_AsignaturaController_AsignaturaRepository"><path d="M320.29,196.01 C369.66,209.63 429,226 429,226 C429,226 429,244 429,244 C429,244 372.3937,258.8478 320.4637,272.4678 " fill="none" id="AsignaturaController-to-AsignaturaRepository-2" style="stroke:#181818;stroke-width:1.0;"/><polygon fill="#181818" points="314.66,273.99,324.3803,275.5759,319.4964,272.7215,322.3508,267.8376,314.66,273.99" style="stroke:#181818;stroke-width:1.0;"/><text fill="#000000" font-family="sans-serif" font-size="13" lengthAdjust="spacing" textLength="124" x="430" y="240.4951">actualizar(asignatura)</text></g><!--link AsignaturaAbierta to AsignaturaAbierta--><g id="link_AsignaturaAbierta_AsignaturaAbierta"><path d="M1227.5,166.18 C1247.3,166.65 1262.5,170.26 1262.5,177 C1262.5,183.74 1253.2983,187.2076 1233.4983,187.6776 " fill="none" id="AsignaturaAbierta-to-AsignaturaAbierta" style="stroke:#181818;stroke-width:1.0;"/><polygon fill="#181818" points="1227.5,187.82,1236.5924,191.6053,1232.4986,187.7013,1236.4025,183.6076,1227.5,187.82" style="stroke:#181818;stroke-width:1.0;"/><text fill="#000000" font-family="sans-serif" font-size="13" lengthAdjust="spacing" textLength="102" x="1268.5" y="182.4951">editarAsignatura()</text></g><!--link AsignaturaController to Asignatura--><g id="link_AsignaturaController_Asignatura"><path d="M330.35,189.74 C421.53,203.95 563,226 563,226 C563,226 589.1865,250.3338 610.2065,269.8838 " fill="none" id="AsignaturaController-to-Asignatura" style="stroke:#181818;stroke-width:1.0;"/><polygon fill="#181818" points="614.6,273.97,610.7339,264.9117,610.9388,270.5648,605.2856,270.7696,614.6,273.97" style="stroke:#181818;stroke-width:1.0;"/><text fill="#000000" font-family="sans-serif" font-size="13" lengthAdjust="spacing" textLength="53" x="584" y="240.4951">&#171;update&#187;</text></g><!--link EditarAsignaturaView to AsignaturaAbierta--><g id="link_EditarAsignaturaView_AsignaturaAbierta"><path d="M689.1,70.17 C818.41,83.87 1065,110 1065,110 C1065,110 1099.7455,134.9216 1126.9855,154.4716 " fill="none" id="EditarAsignaturaView-to-AsignaturaAbierta" style="stroke:#181818;stroke-width:1.0;stroke-dasharray:7.0,7.0;"/><polygon fill="#181818" points="1131.86,157.97,1126.8805,149.4727,1127.7979,155.0546,1122.2159,155.9721,1131.86,157.97" style="stroke:#181818;stroke-width:1.0;"/><text fill="#000000" font-family="sans-serif" font-size="13" lengthAdjust="spacing" textLength="46" x="1090" y="124.4951">&#171;editar&#187;</text></g><!--SRC=[bP9HRu8m58NV-ojks0icweEPPXf2WWmJtvOzxFrIEj9OMzAMR6xPVrzHfrXP59xApVbEpxbWDbnMg74BWajcTnM3IebTyqA8PjIYB0M3X_GvMoPJ21Q9uQL4MsiqaEISQQi2QCxd-N5y0p_IwD77AI4LqWsM35Z1BUeMv-I1Fmm70NmJ0kvftJgRpBFL739F_CRPXo_DftanUshbI9MqMWd1j2zTJPBqCMj9Nrcb3BTAxsvAoGyXrvk2qIZkJ0cBg_eXdexhOa0wgSQkgucpCqfmsY0Ef5n9pwwJkhGxjtLsUMqewXUbruNdHAu-gUVpD-sewEY-lP3Q6WN_GdsHOmXK5RnKGv1gcslctdLpdJ93A3KMgdzbzicDPUdUDZou3znugPHWA7lRTGQ_AvM3ewYk2hGiZl_Ps7ZSlV8eEYpzJl3qepRaEvU7m74Cc6lUGaquw6r7KL8czb5-0G00]--></g></svg>