<?xml version="1.0" encoding="us-ascii" standalone="no"?><svg xmlns="http://www.w3.org/2000/svg" xmlns:xlink="http://www.w3.org/1999/xlink" contentStyleType="text/css" height="716px" preserveAspectRatio="none" style="width:1193px;height:716px;background:#FFFFFF;" version="1.1" viewBox="0 0 1193 716" width="1193px" zoomAndPan="magnify"><defs/><g><rect fill="none" height="183.5938" style="stroke:#000000;stroke-width:1.5;" width="245.5" x="941.5" y="281.7188"/><rect fill="none" height="107.8906" style="stroke:#000000;stroke-width:1.5;" width="225.5" x="951.5" y="350.4219"/><line style="stroke:#181818;stroke-width:0.5;stroke-dasharray:5.0,5.0;" x1="51" x2="51" y1="82.6094" y2="634.0703"/><line style="stroke:#181818;stroke-width:0.5;stroke-dasharray:5.0,5.0;" x1="265" x2="265" y1="82.6094" y2="634.0703"/><line style="stroke:#181818;stroke-width:0.5;stroke-dasharray:5.0,5.0;" x1="458" x2="458" y1="82.6094" y2="634.0703"/><line style="stroke:#181818;stroke-width:0.5;stroke-dasharray:5.0,5.0;" x1="581.5" x2="581.5" y1="82.6094" y2="634.0703"/><line style="stroke:#181818;stroke-width:0.5;stroke-dasharray:5.0,5.0;" x1="846" x2="846" y1="82.6094" y2="634.0703"/><line style="stroke:#181818;stroke-width:0.5;stroke-dasharray:5.0,5.0;" x1="1009.5" x2="1009.5" y1="82.6094" y2="634.0703"/><line style="stroke:#181818;stroke-width:0.5;stroke-dasharray:5.0,5.0;" x1="1125" x2="1125" y1="82.6094" y2="634.0703"/><text fill="#000000" font-family="sans-serif" font-size="14" lengthAdjust="spacing" textLength="87" x="5" y="79.5332">Administrador</text><ellipse cx="51.5" cy="13.5" fill="#E2E2F0" rx="8" ry="8" style="stroke:#181818;stroke-width:0.5;"/><path d="M51.5,21.5 L51.5,48.5 M38.5,29.5 L64.5,29.5 M51.5,48.5 L38.5,63.5 M51.5,48.5 L64.5,63.5 " fill="none" style="stroke:#181818;stroke-width:0.5;"/><text fill="#000000" font-family="sans-serif" font-size="14" lengthAdjust="spacing" textLength="87" x="5" y="647.6035">Administrador</text><ellipse cx="51.5" cy="659.1797" fill="#E2E2F0" rx="8" ry="8" style="stroke:#181818;stroke-width:0.5;"/><path d="M51.5,667.1797 L51.5,694.1797 M38.5,675.1797 L64.5,675.1797 M51.5,694.1797 L38.5,709.1797 M51.5,694.1797 L64.5,709.1797 " fill="none" style="stroke:#181818;stroke-width:0.5;"/><rect fill="#E2E2F0" height="66.8281" rx="2.5" ry="2.5" style="stroke:#181818;stroke-width:0.5;" width="117" x="207" y="14.7813"/><text fill="#000000" font-family="sans-serif" font-size="14" font-style="italic" lengthAdjust="spacing" textLength="89" x="221" y="36.3145">&#171;Component&#187;</text><text fill="#000000" font-family="sans-serif" font-size="14" lengthAdjust="spacing" textLength="103" x="214" y="53.9238">ImportAulasView</text><text fill="#000000" font-family="sans-serif" font-size="14" lengthAdjust="spacing" textLength="47" x="242" y="71.5332">(React)</text><rect fill="#E2E2F0" height="66.8281" rx="2.5" ry="2.5" style="stroke:#181818;stroke-width:0.5;" width="117" x="207" y="633.0703"/><text fill="#000000" font-family="sans-serif" font-size="14" font-style="italic" lengthAdjust="spacing" textLength="89" x="221" y="654.6035">&#171;Component&#187;</text><text fill="#000000" font-family="sans-serif" font-size="14" lengthAdjust="spacing" textLength="103" x="214" y="672.2129">ImportAulasView</text><text fill="#000000" font-family="sans-serif" font-size="14" lengthAdjust="spacing" textLength="47" x="242" y="689.8223">(React)</text><rect fill="#E2E2F0" height="66.8281" rx="2.5" ry="2.5" style="stroke:#181818;stroke-width:0.5;" width="111" x="403" y="14.7813"/><text fill="#000000" font-family="sans-serif" font-size="14" font-style="italic" lengthAdjust="spacing" textLength="50" x="433.5" y="36.3145">&#171;Hook&#187;</text><text fill="#000000" font-family="sans-serif" font-size="14" lengthAdjust="spacing" textLength="97" x="410" y="53.9238">useAulasImport</text><text fill="#000000" font-family="sans-serif" font-size="14" lengthAdjust="spacing" textLength="42" x="437.5" y="71.5332">(Hook)</text><rect fill="#E2E2F0" height="66.8281" rx="2.5" ry="2.5" style="stroke:#181818;stroke-width:0.5;" width="111" x="403" y="633.0703"/><text fill="#000000" font-family="sans-serif" font-size="14" font-style="italic" lengthAdjust="spacing" textLength="50" x="433.5" y="654.6035">&#171;Hook&#187;</text><text fill="#000000" font-family="sans-serif" font-size="14" lengthAdjust="spacing" textLength="97" x="410" y="672.2129">useAulasImport</text><text fill="#000000" font-family="sans-serif" font-size="14" lengthAdjust="spacing" textLength="42" x="437.5" y="689.8223">(Hook)</text><rect fill="#E2E2F0" height="66.8281" rx="2.5" ry="2.5" style="stroke:#181818;stroke-width:0.5;" width="96" x="533.5" y="14.7813"/><text fill="#000000" font-family="sans-serif" font-size="14" font-style="italic" lengthAdjust="spacing" textLength="62" x="550.5" y="36.3145">&#171;Service&#187;</text><text fill="#000000" font-family="sans-serif" font-size="14" lengthAdjust="spacing" textLength="82" x="540.5" y="53.9238">AulasService</text><text fill="#000000" font-family="sans-serif" font-size="14" lengthAdjust="spacing" textLength="43" x="560" y="71.5332">(Axios)</text><rect fill="#E2E2F0" height="66.8281" rx="2.5" ry="2.5" style="stroke:#181818;stroke-width:0.5;" width="96" x="533.5" y="633.0703"/><text fill="#000000" font-family="sans-serif" font-size="14" font-style="italic" lengthAdjust="spacing" textLength="62" x="550.5" y="654.6035">&#171;Service&#187;</text><text fill="#000000" font-family="sans-serif" font-size="14" lengthAdjust="spacing" textLength="82" x="540.5" y="672.2129">AulasService</text><text fill="#000000" font-family="sans-serif" font-size="14" lengthAdjust="spacing" textLength="43" x="560" y="689.8223">(Axios)</text><rect fill="#E2E2F0" height="66.8281" rx="2.5" ry="2.5" style="stroke:#181818;stroke-width:0.5;" width="111" x="791" y="14.7813"/><text fill="#000000" font-family="sans-serif" font-size="14" font-style="italic" lengthAdjust="spacing" textLength="78" x="807.5" y="36.3145">&#171;Controller&#187;</text><text fill="#000000" font-family="sans-serif" font-size="14" lengthAdjust="spacing" textLength="97" x="798" y="53.9238">AulasController</text><text fill="#000000" font-family="sans-serif" font-size="14" lengthAdjust="spacing" textLength="53" x="820" y="71.5332">(NestJS)</text><rect fill="#E2E2F0" height="66.8281" rx="2.5" ry="2.5" style="stroke:#181818;stroke-width:0.5;" width="111" x="791" y="633.0703"/><text fill="#000000" font-family="sans-serif" font-size="14" font-style="italic" lengthAdjust="spacing" textLength="78" x="807.5" y="654.6035">&#171;Controller&#187;</text><text fill="#000000" font-family="sans-serif" font-size="14" lengthAdjust="spacing" textLength="97" x="798" y="672.2129">AulasController</text><text fill="#000000" font-family="sans-serif" font-size="14" lengthAdjust="spacing" textLength="53" x="820" y="689.8223">(NestJS)</text><rect fill="#E2E2F0" height="66.8281" rx="2.5" ry="2.5" style="stroke:#181818;stroke-width:0.5;" width="96" x="961.5" y="14.7813"/><text fill="#000000" font-family="sans-serif" font-size="14" font-style="italic" lengthAdjust="spacing" textLength="62" x="978.5" y="36.3145">&#171;Service&#187;</text><text fill="#000000" font-family="sans-serif" font-size="14" lengthAdjust="spacing" textLength="82" x="968.5" y="53.9238">AulasService</text><text fill="#000000" font-family="sans-serif" font-size="14" lengthAdjust="spacing" textLength="53" x="983" y="71.5332">(NestJS)</text><rect fill="#E2E2F0" height="66.8281" rx="2.5" ry="2.5" style="stroke:#181818;stroke-width:0.5;" width="96" x="961.5" y="633.0703"/><text fill="#000000" font-family="sans-serif" font-size="14" font-style="italic" lengthAdjust="spacing" textLength="62" x="978.5" y="654.6035">&#171;Service&#187;</text><text fill="#000000" font-family="sans-serif" font-size="14" lengthAdjust="spacing" textLength="82" x="968.5" y="672.2129">AulasService</text><text fill="#000000" font-family="sans-serif" font-size="14" lengthAdjust="spacing" textLength="53" x="983" y="689.8223">(NestJS)</text><text fill="#000000" font-family="sans-serif" font-size="14" lengthAdjust="spacing" textLength="77" x="1084" y="79.5332">PostgreSQL</text><path d="M1107.5,29 C1107.5,19 1125.5,19 1125.5,19 C1125.5,19 1143.5,19 1143.5,29 L1143.5,55 C1143.5,65 1125.5,65 1125.5,65 C1125.5,65 1107.5,65 1107.5,55 L1107.5,29 " fill="#E2E2F0" style="stroke:#181818;stroke-width:1.5;"/><path d="M1107.5,29 C1107.5,39 1125.5,39 1125.5,39 C1125.5,39 1143.5,39 1143.5,29 " fill="none" style="stroke:#181818;stroke-width:1.5;"/><text fill="#000000" font-family="sans-serif" font-size="14" lengthAdjust="spacing" textLength="77" x="1084" y="647.6035">PostgreSQL</text><path d="M1107.5,660.6797 C1107.5,650.6797 1125.5,650.6797 1125.5,650.6797 C1125.5,650.6797 1143.5,650.6797 1143.5,660.6797 L1143.5,686.6797 C1143.5,696.6797 1125.5,696.6797 1125.5,696.6797 C1125.5,696.6797 1107.5,696.6797 1107.5,686.6797 L1107.5,660.6797 " fill="#E2E2F0" style="stroke:#181818;stroke-width:1.5;"/><path d="M1107.5,660.6797 C1107.5,670.6797 1125.5,670.6797 1125.5,670.6797 C1125.5,670.6797 1143.5,670.6797 1143.5,660.6797 " fill="none" style="stroke:#181818;stroke-width:1.5;"/><polygon fill="#181818" points="253.5,110.9609,263.5,114.9609,253.5,118.9609,257.5,114.9609" style="stroke:#181818;stroke-width:1.0;"/><line style="stroke:#181818;stroke-width:1.0;" x1="51.5" x2="259.5" y1="114.9609" y2="114.9609"/><text fill="#000000" font-family="sans-serif" font-size="13" lengthAdjust="spacing" textLength="184" x="58.5" y="110.1045">Selecciona archivo (CSV/Excel)</text><polygon fill="#181818" points="253.5,141.3125,263.5,145.3125,253.5,149.3125,257.5,145.3125" style="stroke:#181818;stroke-width:1.0;"/><line style="stroke:#181818;stroke-width:1.0;" x1="51.5" x2="259.5" y1="145.3125" y2="145.3125"/><text fill="#000000" font-family="sans-serif" font-size="13" lengthAdjust="spacing" textLength="108" x="58.5" y="140.4561">Click en "Importar"</text><polygon fill="#181818" points="446.5,171.6641,456.5,175.6641,446.5,179.6641,450.5,175.6641" style="stroke:#181818;stroke-width:1.0;"/><line style="stroke:#181818;stroke-width:1.0;" x1="265.5" x2="452.5" y1="175.6641" y2="175.6641"/><text fill="#000000" font-family="sans-serif" font-size="13" lengthAdjust="spacing" textLength="93" x="272.5" y="170.8076">importAulas(file)</text><polygon fill="#181818" points="569.5,202.0156,579.5,206.0156,569.5,210.0156,573.5,206.0156" style="stroke:#181818;stroke-width:1.0;"/><line style="stroke:#181818;stroke-width:1.0;" x1="458.5" x2="575.5" y1="206.0156" y2="206.0156"/><text fill="#000000" font-family="sans-serif" font-size="13" lengthAdjust="spacing" textLength="93" x="465.5" y="201.1592">importAulas(file)</text><polygon fill="#181818" points="834.5,232.3672,844.5,236.3672,834.5,240.3672,838.5,236.3672" style="stroke:#181818;stroke-width:1.0;"/><line style="stroke:#181818;stroke-width:1.0;" x1="581.5" x2="840.5" y1="236.3672" y2="236.3672"/><text fill="#000000" font-family="sans-serif" font-size="13" lengthAdjust="spacing" textLength="241" x="588.5" y="231.5107">POST /aulas/import (Multipart/Form-Data)</text><polygon fill="#181818" points="997.5,262.7188,1007.5,266.7188,997.5,270.7188,1001.5,266.7188" style="stroke:#181818;stroke-width:1.0;"/><line style="stroke:#181818;stroke-width:1.0;" x1="846.5" x2="1003.5" y1="266.7188" y2="266.7188"/><text fill="#000000" font-family="sans-serif" font-size="13" lengthAdjust="spacing" textLength="139" x="853.5" y="261.8623">processImport(fileBuffer)</text><path d="M941.5,281.7188 L1014.5,281.7188 L1014.5,290.0703 L1004.5,300.0703 L941.5,300.0703 L941.5,281.7188 " fill="#EEEEEE" style="stroke:#000000;stroke-width:1.5;"/><rect fill="none" height="183.5938" style="stroke:#000000;stroke-width:1.5;" width="245.5" x="941.5" y="281.7188"/><text fill="#000000" font-family="sans-serif" font-size="13" font-weight="bold" lengthAdjust="spacing" textLength="28" x="956.5" y="296.2139">loop</text><text fill="#000000" font-family="sans-serif" font-size="11" font-weight="bold" lengthAdjust="spacing" textLength="137" x="1029.5" y="295.1377">[Por cada fila del archivo]</text><line style="stroke:#181818;stroke-width:1.0;" x1="1009.5" x2="1051.5" y1="322.4219" y2="322.4219"/><line style="stroke:#181818;stroke-width:1.0;" x1="1051.5" x2="1051.5" y1="322.4219" y2="335.4219"/><line style="stroke:#181818;stroke-width:1.0;" x1="1010.5" x2="1051.5" y1="335.4219" y2="335.4219"/><polygon fill="#181818" points="1020.5,331.4219,1010.5,335.4219,1020.5,339.4219,1016.5,335.4219" style="stroke:#181818;stroke-width:1.0;"/><text fill="#000000" font-family="sans-serif" font-size="13" lengthAdjust="spacing" textLength="76" x="1016.5" y="317.5654">Validar datos</text><path d="M951.5,350.4219 L1012.5,350.4219 L1012.5,358.7734 L1002.5,368.7734 L951.5,368.7734 L951.5,350.4219 " fill="#EEEEEE" style="stroke:#000000;stroke-width:1.5;"/><rect fill="none" height="107.8906" style="stroke:#000000;stroke-width:1.5;" width="225.5" x="951.5" y="350.4219"/><text fill="#000000" font-family="sans-serif" font-size="13" font-weight="bold" lengthAdjust="spacing" textLength="16" x="966.5" y="364.917">alt</text><text fill="#000000" font-family="sans-serif" font-size="11" font-weight="bold" lengthAdjust="spacing" textLength="81" x="1027.5" y="363.8408">[Datos v&#225;lidos]</text><polygon fill="#181818" points="1113.5,387.125,1123.5,391.125,1113.5,395.125,1117.5,391.125" style="stroke:#181818;stroke-width:1.0;"/><line style="stroke:#181818;stroke-width:1.0;" x1="1009.5" x2="1119.5" y1="391.125" y2="391.125"/><text fill="#000000" font-family="sans-serif" font-size="13" lengthAdjust="spacing" textLength="92" x="1016.5" y="386.2686">UPSERT "Aula"</text><line style="stroke:#000000;stroke-width:1.0;stroke-dasharray:2.0,2.0;" x1="951.5" x2="1177" y1="400.125" y2="400.125"/><text fill="#000000" font-family="sans-serif" font-size="11" font-weight="bold" lengthAdjust="spacing" textLength="91" x="956.5" y="411.5439">[Datos inv&#225;lidos]</text><line style="stroke:#181818;stroke-width:1.0;" x1="1009.5" x2="1051.5" y1="437.3125" y2="437.3125"/><line style="stroke:#181818;stroke-width:1.0;" x1="1051.5" x2="1051.5" y1="437.3125" y2="450.3125"/><line style="stroke:#181818;stroke-width:1.0;" x1="1010.5" x2="1051.5" y1="450.3125" y2="450.3125"/><polygon fill="#181818" points="1020.5,446.3125,1010.5,450.3125,1020.5,454.3125,1016.5,450.3125" style="stroke:#181818;stroke-width:1.0;"/><text fill="#000000" font-family="sans-serif" font-size="13" lengthAdjust="spacing" textLength="82" x="1016.5" y="432.4561">Registrar error</text><polygon fill="#181818" points="857.5,490.6641,847.5,494.6641,857.5,498.6641,853.5,494.6641" style="stroke:#181818;stroke-width:1.0;"/><line style="stroke:#181818;stroke-width:1.0;stroke-dasharray:2.0,2.0;" x1="851.5" x2="1008.5" y1="494.6641" y2="494.6641"/><text fill="#000000" font-family="sans-serif" font-size="13" lengthAdjust="spacing" textLength="99" x="863.5" y="489.8076">ImportResultDTO</text><polygon fill="#181818" points="592.5,521.0156,582.5,525.0156,592.5,529.0156,588.5,525.0156" style="stroke:#181818;stroke-width:1.0;"/><line style="stroke:#181818;stroke-width:1.0;stroke-dasharray:2.0,2.0;" x1="586.5" x2="845.5" y1="525.0156" y2="525.0156"/><text fill="#000000" font-family="sans-serif" font-size="13" lengthAdjust="spacing" textLength="178" x="598.5" y="520.1592">JSON Response (201 Created)</text><polygon fill="#181818" points="469.5,551.3672,459.5,555.3672,469.5,559.3672,465.5,555.3672" style="stroke:#181818;stroke-width:1.0;"/><line style="stroke:#181818;stroke-width:1.0;stroke-dasharray:2.0,2.0;" x1="463.5" x2="580.5" y1="555.3672" y2="555.3672"/><text fill="#000000" font-family="sans-serif" font-size="13" lengthAdjust="spacing" textLength="99" x="475.5" y="550.5107">ImportResultDTO</text><polygon fill="#181818" points="276.5,581.7188,266.5,585.7188,276.5,589.7188,272.5,585.7188" style="stroke:#181818;stroke-width:1.0;"/><line style="stroke:#181818;stroke-width:1.0;stroke-dasharray:2.0,2.0;" x1="270.5" x2="457.5" y1="585.7188" y2="585.7188"/><text fill="#000000" font-family="sans-serif" font-size="13" lengthAdjust="spacing" textLength="169" x="282.5" y="580.8623">Actualiza estado (resultados)</text><polygon fill="#181818" points="62.5,612.0703,52.5,616.0703,62.5,620.0703,58.5,616.0703" style="stroke:#181818;stroke-width:1.0;"/><line style="stroke:#181818;stroke-width:1.0;stroke-dasharray:2.0,2.0;" x1="56.5" x2="264.5" y1="616.0703" y2="616.0703"/><text fill="#000000" font-family="sans-serif" font-size="13" lengthAdjust="spacing" textLength="190" x="68.5" y="611.2139">Muestra resumen de importaci&#243;n</text><!--SRC=[XPF1Rjim38RlUWh29_jGPDinA0B4JekrM9iiJdFgXPEPL8WY1PAS5dkRFSCUeIysMdOQ9yWs0q4ay_ye-YVbDyhiqE4M_0jMzbMPDQnGUn82PR0EnjLM6UM3uwWJB0rAgXsQ0CdTTcTT6DSQ_LBHwxD9vyHGbW1wUBg3w-l2iiIG2QFHALfxYboRWiclrcvQi5ansloTKn4foUsL96R6Ryhw5hhjtZBOhIwoXJN1MQt9CVv8FjoNBNyCnAeFc_yKqC-GNwgWme0_q1CaC-l3sb7v_LjKJt8XJfo5gr5ZsH1AqYIbiWO1dNnHUmjfKIu7Ds-ITFONgD1ARe3CeIVe4Y4uml5evn3KiLVfIcdAH0omuCEwIwAF80jx7WrXDYqNCC16EcWnI1zg7LJZr-3MkktLX3y-4wA7SPByUDhEMKc-6u5uNbwlLkIOqTRkOCOVAB52u112HVfWY01-ybvblQHBrAf21-oyzI8gKGUOD5lOl__YAB-7xkadcUICFytAc_cYRNGIPSHteSEL-MU2NXLpMiSUEI3d-Dh4HAOIpKyScNDJMolcvDd8oM9wOjrff-xBwIEVulbsSNdfbq-VeN24WQf-puxjFy_SDlymFcCPQlRj9m8FD0yMf2ugUUcpTf1OUZfwGtYegTb0eztox5NK3H1AzVxRY3y0]--></g></svg>