<?xml version="1.0" encoding="us-ascii" standalone="no"?><svg xmlns="http://www.w3.org/2000/svg" xmlns:xlink="http://www.w3.org/1999/xlink" contentStyleType="text/css" height="454px" preserveAspectRatio="none" style="width:893px;height:454px;background:#FFFFFF;" version="1.1" viewBox="0 0 893 454" width="893px" zoomAndPan="magnify"><defs/><g><!--cluster iniciarSesion--><g id="cluster_iniciarSesion"><path d="M158.5,6 L260.5,6 A3.75,3.75 0 0 1 263,8.5 L270,29.6094 L724.5,29.6094 A2.5,2.5 0 0 1 727,32.1094 L727,444.5 A2.5,2.5 0 0 1 724.5,447 L158.5,447 A2.5,2.5 0 0 1 156,444.5 L156,8.5 A2.5,2.5 0 0 1 158.5,6 " fill="none" style="stroke:#000000;stroke-width:1.5;"/><line style="stroke:#000000;stroke-width:1.5;" x1="156" x2="270" y1="29.6094" y2="29.6094"/><text fill="#000000" font-family="sans-serif" font-size="14" font-weight="bold" lengthAdjust="spacing" textLength="101" x="160" y="22.5332">iniciarSesion()</text></g><!--entity LoginView--><g id="elem_LoginView"><rect fill="#629EF9" height="37.6094" rx="2.5" ry="2.5" style="stroke:#181818;stroke-width:0.5;" width="84" x="404" y="42"/><text fill="#000000" font-family="sans-serif" font-size="14" lengthAdjust="spacing" textLength="64" x="414" y="66.5332">LoginView</text></g><!--entity IniciarSesionController--><g id="elem_IniciarSesionController"><rect fill="#B5BD68" height="37.6094" rx="2.5" ry="2.5" style="stroke:#181818;stroke-width:0.5;" width="162" x="365" y="178"/><text fill="#000000" font-family="sans-serif" font-size="14" lengthAdjust="spacing" textLength="142" x="375" y="202.5332">IniciarSesionController</text></g><!--entity UsuarioRepository--><g id="elem_UsuarioRepository"><rect fill="#F2AC4E" height="37.6094" rx="2.5" ry="2.5" style="stroke:#181818;stroke-width:0.5;" width="136" x="172" y="294"/><text fill="#000000" font-family="sans-serif" font-size="14" lengthAdjust="spacing" textLength="116" x="182" y="318.5332">UsuarioRepository</text></g><!--entity Usuario--><g id="elem_Usuario"><rect fill="#F2AC4E" height="37.6094" rx="2.5" ry="2.5" style="stroke:#181818;stroke-width:0.5;" width="68" x="206" y="393"/><text fill="#000000" font-family="sans-serif" font-size="14" lengthAdjust="spacing" textLength="48" x="216" y="417.5332">Usuario</text></g><!--entity Sesion--><g id="elem_Sesion"><rect fill="#F2AC4E" height="37.6094" rx="2.5" ry="2.5" style="stroke:#181818;stroke-width:0.5;" width="63" x="506.5" y="294"/><text fill="#000000" font-family="sans-serif" font-size="14" lengthAdjust="spacing" textLength="43" x="516.5" y="318.5332">Sesion</text></g><!--entity UsuarioNoRegistrado--><g id="elem_UsuarioNoRegistrado"><ellipse cx="73" cy="30.5" fill="#F1F1F1" rx="8" ry="8" style="stroke:#181818;stroke-width:0.5;"/><path d="M73,38.5 L73,65.5 M60,46.5 L86,46.5 M73,65.5 L60,80.5 M73,65.5 L86,80.5 " fill="none" style="stroke:#181818;stroke-width:0.5;"/><text fill="#000000" font-family="sans-serif" font-size="14" lengthAdjust="spacing" textLength="134" x="6" y="96.5332">UsuarioNoRegistrado</text></g><!--entity SistemaDisponible--><g id="elem_SistemaDisponible"><rect fill="#CDEBA5" height="37.6094" rx="2.5" ry="2.5" style="stroke:#181818;stroke-width:0.5;" width="144" x="743" y="42"/><text fill="#000000" font-family="sans-serif" font-size="14" lengthAdjust="spacing" textLength="124" x="753" y="66.5332">:Sistema Disponible</text></g><!--link UsuarioNoRegistrado to LoginView--><g id="link_UsuarioNoRegistrado_LoginView"><path d="M140.12,61 C216.67,61 333.53,61 397.77,61 " fill="none" id="UsuarioNoRegistrado-to-LoginView" style="stroke:#181818;stroke-width:1.0;"/><polygon fill="#181818" points="403.77,61,394.77,57,398.77,61,394.77,65,403.77,61" style="stroke:#181818;stroke-width:1.0;"/><text fill="#000000" font-family="sans-serif" font-size="13" lengthAdjust="spacing" textLength="196" x="174" y="54.4951">iniciarSesion(usuario, contrase&#241;a)</text></g><!--link LoginView to IniciarSesionController--><g id="link_LoginView_IniciarSesionController"><path d="M446,80.07 C446,105.65 446,146.13 446,171.79 " fill="none" id="LoginView-to-IniciarSesionController" style="stroke:#181818;stroke-width:1.0;"/><polygon fill="#181818" points="446,177.79,450,168.79,446,172.79,442,168.79,446,177.79" style="stroke:#181818;stroke-width:1.0;"/><text fill="#000000" font-family="sans-serif" font-size="13" lengthAdjust="spacing" textLength="231" x="447" y="144.4951">autenticar(usuario, contrase&#241;a) : Sesion</text></g><!--link IniciarSesionController to UsuarioRepository--><g id="link_IniciarSesionController_UsuarioRepository"><path d="M364.77,213.85 C293.11,227.83 200,246 200,246 C200,246 200,264 200,264 C200,264 209.7079,275.6515 221.0379,289.2415 " fill="none" id="IniciarSesionController-to-UsuarioRepository" style="stroke:#181818;stroke-width:1.0;"/><polygon fill="#181818" points="224.88,293.85,222.1892,284.3759,221.6782,290.0096,216.0445,289.4987,224.88,293.85" style="stroke:#181818;stroke-width:1.0;"/><text fill="#000000" font-family="sans-serif" font-size="13" lengthAdjust="spacing" textLength="289" x="201" y="260.4951">validarCredenciales(usuario, contrase&#241;a) : Usuario</text></g><!--link UsuarioRepository to Usuario--><g id="link_UsuarioRepository_Usuario"><path d="M240,332.24 C240,349.59 240,375.52 240,392.84 " fill="none" id="UsuarioRepository-Usuario" style="stroke:#181818;stroke-width:1.0;"/></g><!--link IniciarSesionController to Sesion--><g id="link_IniciarSesionController_Sesion"><path d="M466.04,216.15 C481.05,229.74 499,246 499,246 C499,246 512.75,269.253 524.29,288.803 " fill="none" id="IniciarSesionController-to-Sesion" style="stroke:#181818;stroke-width:1.0;"/><polygon fill="#181818" points="527.34,293.97,526.2097,284.1862,524.7984,289.6642,519.3204,288.2528,527.34,293.97" style="stroke:#181818;stroke-width:1.0;"/><text fill="#000000" font-family="sans-serif" font-size="13" lengthAdjust="spacing" textLength="171" x="510" y="260.4951">crearSesion(usuario) : Sesion</text></g><!--link LoginView to SistemaDisponible--><g id="link_LoginView_SistemaDisponible"><path d="M488.33,61 C550.42,61 661.02,61 736.81,61 " fill="none" id="LoginView-to-SistemaDisponible" style="stroke:#181818;stroke-width:1.0;"/><polygon fill="#181818" points="742.81,61,733.81,57,737.81,61,733.81,65,742.81,61" style="stroke:#181818;stroke-width:1.0;"/><text fill="#000000" font-family="sans-serif" font-size="13" lengthAdjust="spacing" textLength="156" x="537.5" y="54.4951">sistemaDisponible(alumno)</text></g><!--SRC=[VP31QW8n48RlUOfXUr7eNgHApK6mgqAXzA2qzp4xB8CnMP9iYvG-L9-XBzOiLbrNrzpopym_ytz-mwP4XrlGR2ZiIeBIwbtz4QY2TV3cAtHiN-sI2lR1OMv5YMg31G4RLenkHPwj0VIGd2czVW9V0k9pf0AQGXFSZGRZ-M8CBxPWyyxqsQwlX-jyz0ZFJQFCck2irkJQtOl1D7kO7uvSKcaznwjtj_iwgljbubiqIjbi_ZGTGY9NCJnj4MRiIsjuhIcf4__B9rLS0GQfIoUdoF8SNA_QJzo3gdEYfzyVx8jZEwHvdEu08W6hG2QmGdVT2EGXM8S5fD7-Wg243zISeyiSvMJYe2RVkU40zi8ccX-Bj_RlHGdAKPjB8q63IKtq0hu4tvPwgAkjiVq_]--></g></svg>