<?xml version="1.0" encoding="us-ascii" standalone="no"?><svg xmlns="http://www.w3.org/2000/svg" xmlns:xlink="http://www.w3.org/1999/xlink" contentStyleType="text/css" height="335px" preserveAspectRatio="none" style="width:749px;height:335px;background:#FFFFFF;" version="1.1" viewBox="0 0 749 335" width="749px" zoomAndPan="magnify"><defs/><g><!--cluster eliminarGrado--><g id="cluster_eliminarGrado"><path d="M8.5,6 L118.5,6 A3.75,3.75 0 0 1 121,8.5 L128,29.6094 L467.5,29.6094 A2.5,2.5 0 0 1 470,32.1094 L470,325.5 A2.5,2.5 0 0 1 467.5,328 L8.5,328 A2.5,2.5 0 0 1 6,325.5 L6,8.5 A2.5,2.5 0 0 1 8.5,6 " fill="none" style="stroke:#000000;stroke-width:1.5;"/><line style="stroke:#000000;stroke-width:1.5;" x1="6" x2="128" y1="29.6094" y2="29.6094"/><text fill="#000000" font-family="sans-serif" font-size="14" font-weight="bold" lengthAdjust="spacing" textLength="109" x="10" y="22.5332">eliminarGrado()</text></g><!--entity EliminarGradoView--><g id="elem_EliminarGradoView"><rect fill="#629EF9" height="37.6094" rx="2.5" ry="2.5" style="stroke:#181818;stroke-width:0.5;" width="139" x="314.5" y="42"/><text fill="#000000" font-family="sans-serif" font-size="14" lengthAdjust="spacing" textLength="119" x="324.5" y="66.5332">EliminarGradoView</text></g><!--entity GradoController--><g id="elem_GradoController"><rect fill="#B5BD68" height="37.6094" rx="2.5" ry="2.5" style="stroke:#181818;stroke-width:0.5;" width="122" x="168" y="158"/><text fill="#000000" font-family="sans-serif" font-size="14" lengthAdjust="spacing" textLength="102" x="178" y="182.5332">GradoController</text></g><!--entity GradoRepository--><g id="elem_GradoRepository"><rect fill="#F2AC4E" height="37.6094" rx="2.5" ry="2.5" style="stroke:#181818;stroke-width:0.5;" width="128" x="165" y="274"/><text fill="#000000" font-family="sans-serif" font-size="14" lengthAdjust="spacing" textLength="108" x="175" y="298.5332">GradoRepository</text></g><!--entity GradosAbierto--><g id="elem_GradosAbierto"><rect fill="#CDEBA5" height="37.6094" rx="2.5" ry="2.5" style="stroke:#181818;stroke-width:0.5;" width="120" x="606" y="158"/><text fill="#000000" font-family="sans-serif" font-size="14" lengthAdjust="spacing" textLength="100" x="616" y="182.5332">:Grados Abierto</text></g><!--entity AsignaturaRepository--><g id="elem_AsignaturaRepository"><rect fill="#F2AC4E" height="37.6094" rx="2.5" ry="2.5" style="stroke:#181818;stroke-width:0.5;" width="156" x="486" y="274"/><text fill="#000000" font-family="sans-serif" font-size="14" lengthAdjust="spacing" textLength="136" x="496" y="298.5332">AsignaturaRepository</text></g><!--link GradosAbierto to EliminarGradoView--><g id="link_GradosAbierto_EliminarGradoView"><path d="M605.77,159.48 C555.15,145.6 491,128 491,128 C491,128 450.026,102.731 418.346,83.181 " fill="none" id="GradosAbierto-to-EliminarGradoView" style="stroke:#181818;stroke-width:1.0;"/><polygon fill="#181818" points="413.24,80.03,418.7984,88.1605,417.495,82.6558,422.9997,81.3524,413.24,80.03" style="stroke:#181818;stroke-width:1.0;"/><text fill="#000000" font-family="sans-serif" font-size="13" lengthAdjust="spacing" textLength="130" x="492" y="124.4951">eliminarGrado(gradoId)</text></g><!--link EliminarGradoView to GradosAbierto--><g id="link_EliminarGradoView_GradosAbierto"><path d="M453.63,75.75 C525.44,89.94 627,110 627,110 C627,110 640.75,133.253 652.29,152.803 " fill="none" id="EliminarGradoView-to-GradosAbierto" style="stroke:#181818;stroke-width:1.0;stroke-dasharray:7.0,7.0;"/><polygon fill="#181818" points="655.34,157.97,654.2097,148.1862,652.7984,153.6642,647.3204,152.2528,655.34,157.97" style="stroke:#181818;stroke-width:1.0;"/><text fill="#000000" font-family="sans-serif" font-size="13" lengthAdjust="spacing" textLength="44" x="638" y="124.4951">finalizar</text></g><!--link EliminarGradoView to GradosAbierto--><g id="link_EliminarGradoView_GradosAbierto"><path d="M453.66,72.89 C544.24,87.05 691,110 691,110 C691,110 691,128 691,128 C691,128 685.3022,138.9388 678.2222,152.5288 " fill="none" id="EliminarGradoView-to-GradosAbierto-1" style="stroke:#181818;stroke-width:1.0;stroke-dasharray:7.0,7.0;"/><polygon fill="#181818" points="675.45,157.85,683.1557,151.7163,677.7602,153.4157,676.0608,148.0201,675.45,157.85" style="stroke:#181818;stroke-width:1.0;"/><text fill="#000000" font-family="sans-serif" font-size="13" lengthAdjust="spacing" textLength="49" x="692" y="124.4951">cancelar</text></g><!--link EliminarGradoView to GradoController--><g id="link_EliminarGradoView_GradoController"><path d="M314.42,72.12 C217.6,86.2 54,110 54,110 C54,110 54,128 54,128 C54,128 111.5437,143.783 162.0037,157.623 " fill="none" id="EliminarGradoView-to-GradoController" style="stroke:#181818;stroke-width:1.0;"/><polygon fill="#181818" points="167.79,159.21,160.1686,152.9719,162.9681,157.8875,158.0525,160.687,167.79,159.21" style="stroke:#181818;stroke-width:1.0;"/><text fill="#000000" font-family="sans-serif" font-size="13" lengthAdjust="spacing" textLength="130" x="55" y="124.4951">eliminarGrado(gradoId)</text></g><!--link EliminarGradoView to GradoController--><g id="link_EliminarGradoView_GradoController"><path d="M324.72,80.01 C279.88,93.63 226,110 226,110 C226,110 226,128 226,128 C226,128 226.6455,138.2717 227.4955,151.8617 " fill="none" id="EliminarGradoView-to-GradoController-1" style="stroke:#181818;stroke-width:1.0;"/><polygon fill="#181818" points="227.87,157.85,231.3004,148.6179,227.5579,152.8598,223.316,149.1172,227.87,157.85" style="stroke:#181818;stroke-width:1.0;"/><text fill="#000000" font-family="sans-serif" font-size="13" lengthAdjust="spacing" textLength="223" x="227" y="124.4951">verificarAsignaturasAsociadas(gradoId)</text></g><!--link GradoController to AsignaturaRepository--><g id="link_GradoController_AsignaturaRepository"><path d="M282.08,196.06 C344.72,217.38 442.5599,250.677 505.2099,271.997 " fill="none" id="GradoController-to-AsignaturaRepository" style="stroke:#181818;stroke-width:1.0;"/><polygon fill="#181818" points="510.89,273.93,503.6585,267.2438,506.1566,272.3192,501.0812,274.8173,510.89,273.93" style="stroke:#181818;stroke-width:1.0;"/><text fill="#000000" font-family="sans-serif" font-size="13" lengthAdjust="spacing" textLength="141" x="418" y="240.4951">contarPorGrado(gradoId)</text></g><!--link GradoController to GradoRepository--><g id="link_GradoController_GradoRepository"><path d="M229,196.06 C229,217.28 229,246.3 229,267.64 " fill="none" id="GradoController-to-GradoRepository" style="stroke:#181818;stroke-width:1.0;"/><polygon fill="#181818" points="229,273.64,233,264.64,229,268.64,225,264.64,229,273.64" style="stroke:#181818;stroke-width:1.0;"/><text fill="#000000" font-family="sans-serif" font-size="13" lengthAdjust="spacing" textLength="95" x="230" y="240.4951">eliminar(gradoId)</text></g><!--SRC=[ZP8_JyCm4CLtVufJMDgX7IfQqGwLGaWH6s9WlpZNw5JNZiu6513VdOHK8dzQL0-MVFwzT_Si-mFR4WMFODXIg4g2qfcgEIWbf0FQmX3S90_fVRo4QFCec3iFSSOamKM07jhIgQ9KYVg01G4PFh95-RrkkAXNcKmZ-59GhqwRrMATxjQGTi5NfeyXbospV7NNTawS3UAC8HbIkqMStAOjzKAbynoSLEgxb-m4nPuBY-5Di4EgNZIOpRRZqM3JJpefclqfdoerPXk7mT2NzTVAtqbupnhbBuEFlTECEVhEE4DbutOkTcsfQmhbsOqYdVCOl6ydqBzlCPzl-r-d5kvhnF0dofMyHgl9rFWF]--></g></svg>