<?xml version="1.0" encoding="us-ascii" standalone="no"?><svg xmlns="http://www.w3.org/2000/svg" xmlns:xlink="http://www.w3.org/1999/xlink" contentStyleType="text/css" height="335px" preserveAspectRatio="none" style="width:484px;height:335px;background:#FFFFFF;" version="1.1" viewBox="0 0 484 335" width="484px" zoomAndPan="magnify"><defs/><g><!--cluster eliminarGrado--><g id="cluster_eliminarGrado"><path d="M8.5,6 L118.5,6 A3.75,3.75 0 0 1 121,8.5 L128,29.6094 L270.5,29.6094 A2.5,2.5 0 0 1 273,32.1094 L273,325.5 A2.5,2.5 0 0 1 270.5,328 L8.5,328 A2.5,2.5 0 0 1 6,325.5 L6,8.5 A2.5,2.5 0 0 1 8.5,6 " fill="none" style="stroke:#000000;stroke-width:1.5;"/><line style="stroke:#000000;stroke-width:1.5;" x1="6" x2="128" y1="29.6094" y2="29.6094"/><text fill="#000000" font-family="sans-serif" font-size="14" font-weight="bold" lengthAdjust="spacing" textLength="109" x="10" y="22.5332">eliminarGrado()</text></g><!--entity EliminarGradoView--><g id="elem_EliminarGradoView"><rect fill="#629EF9" height="37.6094" rx="2.5" ry="2.5" style="stroke:#181818;stroke-width:0.5;" width="139" x="117.5" y="42"/><text fill="#000000" font-family="sans-serif" font-size="14" lengthAdjust="spacing" textLength="119" x="127.5" y="66.5332">EliminarGradoView</text></g><!--entity GradoController--><g id="elem_GradoController"><rect fill="#B5BD68" height="37.6094" rx="2.5" ry="2.5" style="stroke:#181818;stroke-width:0.5;" width="122" x="62" y="158"/><text fill="#000000" font-family="sans-serif" font-size="14" lengthAdjust="spacing" textLength="102" x="72" y="182.5332">GradoController</text></g><!--entity GradoRepository--><g id="elem_GradoRepository"><rect fill="#F2AC4E" height="37.6094" rx="2.5" ry="2.5" style="stroke:#181818;stroke-width:0.5;" width="128" x="59" y="274"/><text fill="#000000" font-family="sans-serif" font-size="14" lengthAdjust="spacing" textLength="108" x="69" y="298.5332">GradoRepository</text></g><!--entity Grado--><g id="elem_Grado"><rect fill="#F2AC4E" height="37.6094" rx="2.5" ry="2.5" style="stroke:#181818;stroke-width:0.5;" width="60" x="22" y="42"/><text fill="#000000" font-family="sans-serif" font-size="14" lengthAdjust="spacing" textLength="40" x="32" y="66.5332">Grado</text></g><!--entity GradosAbierto--><g id="elem_GradosAbierto"><rect fill="#CDEBA5" height="37.6094" rx="2.5" ry="2.5" style="stroke:#181818;stroke-width:0.5;" width="120" x="341" y="158"/><text fill="#000000" font-family="sans-serif" font-size="14" lengthAdjust="spacing" textLength="100" x="351" y="182.5332">:Grados Abierto</text></g><!--entity AsignaturaRepository--><g id="elem_AsignaturaRepository"><rect fill="#F2AC4E" height="37.6094" rx="2.5" ry="2.5" style="stroke:#181818;stroke-width:0.5;" width="156" x="289" y="274"/><text fill="#000000" font-family="sans-serif" font-size="14" lengthAdjust="spacing" textLength="136" x="299" y="298.5332">AsignaturaRepository</text></g><!--link GradosAbierto to EliminarGradoView--><g id="link_GradosAbierto_EliminarGradoView"><path d="M340.77,159.48 C290.15,145.6 226,128 226,128 C226,128 212.25,104.747 200.71,85.197 " fill="none" id="GradosAbierto-to-EliminarGradoView" style="stroke:#181818;stroke-width:1.0;"/><polygon fill="#181818" points="197.66,80.03,198.7903,89.8138,200.2016,84.3358,205.6796,85.7472,197.66,80.03" style="stroke:#181818;stroke-width:1.0;"/><text fill="#000000" font-family="sans-serif" font-size="13" lengthAdjust="spacing" textLength="130" x="227" y="124.4951">eliminarGrado(gradoId)</text></g><!--link EliminarGradoView to GradosAbierto--><g id="link_EliminarGradoView_GradosAbierto"><path d="M252.66,80.01 C302.32,93.63 362,110 362,110 C362,110 375.75,133.253 387.29,152.803 " fill="none" id="EliminarGradoView-to-GradosAbierto" style="stroke:#181818;stroke-width:1.0;"/><polygon fill="#181818" points="390.34,157.97,389.2097,148.1862,387.7984,153.6642,382.3204,152.2528,390.34,157.97" style="stroke:#181818;stroke-width:1.0;"/><text fill="#000000" font-family="sans-serif" font-size="13" lengthAdjust="spacing" textLength="44" x="373" y="124.4951">finalizar</text></g><!--link EliminarGradoView to GradosAbierto--><g id="link_EliminarGradoView_GradosAbierto"><path d="M256.77,76.01 C327.32,90.18 426,110 426,110 C426,110 426,128 426,128 C426,128 420.3022,138.9388 413.2222,152.5288 " fill="none" id="EliminarGradoView-to-GradosAbierto-1" style="stroke:#181818;stroke-width:1.0;"/><polygon fill="#181818" points="410.45,157.85,418.1557,151.7163,412.7602,153.4157,411.0608,148.0201,410.45,157.85" style="stroke:#181818;stroke-width:1.0;"/><text fill="#000000" font-family="sans-serif" font-size="13" lengthAdjust="spacing" textLength="49" x="427" y="124.4951">cancelar</text></g><!--link EliminarGradoView to GradoController--><g id="link_EliminarGradoView_GradoController"><path d="M137.1,80.01 C99.36,93.63 54,110 54,110 C54,110 54,128 54,128 C54,128 72.4442,140.8341 91.9842,154.4241 " fill="none" id="EliminarGradoView-to-GradoController" style="stroke:#181818;stroke-width:1.0;"/><polygon fill="#181818" points="96.91,157.85,91.8052,149.4273,92.8052,154.9951,87.2374,155.9951,96.91,157.85" style="stroke:#181818;stroke-width:1.0;"/><text fill="#000000" font-family="sans-serif" font-size="13" lengthAdjust="spacing" textLength="130" x="55" y="124.4951">eliminarGrado(gradoId)</text></g><!--link GradoController to AsignaturaRepository--><g id="link_GradoController_AsignaturaRepository"><path d="M162.4,196.01 C192.19,209.63 228,226 228,226 C228,226 282.4403,251.8458 323.6003,271.3958 " fill="none" id="GradoController-to-AsignaturaRepository" style="stroke:#181818;stroke-width:1.0;"/><polygon fill="#181818" points="329.02,273.97,322.6066,266.4955,324.5036,271.8248,319.1743,273.7218,329.02,273.97" style="stroke:#181818;stroke-width:1.0;"/><text fill="#000000" font-family="sans-serif" font-size="13" lengthAdjust="spacing" textLength="141" x="267" y="240.4951">contarPorGrado(gradoId)</text></g><!--link GradoController to GradoRepository--><g id="link_GradoController_GradoRepository"><path d="M123,196.06 C123,217.28 123,246.3 123,267.64 " fill="none" id="GradoController-to-GradoRepository" style="stroke:#181818;stroke-width:1.0;"/><polygon fill="#181818" points="123,273.64,127,264.64,123,268.64,119,264.64,123,273.64" style="stroke:#181818;stroke-width:1.0;"/><text fill="#000000" font-family="sans-serif" font-size="13" lengthAdjust="spacing" textLength="95" x="124" y="240.4951">eliminar(gradoId)</text></g><!--SRC=[ZP31JiCm38RlUGghNBR3BXERM0z8fNI86-B0tKszAbgMH4uGAeXt9w4JQZiqDGTBiJ___cr_LCOXumcqCXGwH-2ixj9722OPqBIQuAPyh1wA3MJv4sDZFHIr8Wus0_JGfyuP8HpA8xO4fDL96UJVSkAoKMQnpE1BG7o3CTlrhjhle1g2Rue-fbozgPljNJ-vj2QmrPfuIktNHNbRzTGhEUjLiDnTeyJtQEjpgV2gDHZU6GSgOhGsh5RtbxOX7rzXqQRut2o5k6IJmcIXA_rJCdN_vpDAo4WXlzXP6fDZ3HpCC_zta1mE4T7g4tacBz58qX7_0G00]--></g></svg>