<?xml version="1.0" encoding="us-ascii" standalone="no"?><svg xmlns="http://www.w3.org/2000/svg" xmlns:xlink="http://www.w3.org/1999/xlink" contentStyleType="text/css" height="318px" preserveAspectRatio="none" style="width:942px;height:318px;background:#FFFFFF;" version="1.1" viewBox="0 0 942 318" width="942px" zoomAndPan="magnify"><defs/><g><!--cluster importarAsignaturas--><g id="cluster_importarAsignaturas"><path d="M8.5,6 L161.5,6 A3.75,3.75 0 0 1 164,8.5 L171,29.6094 L521.5,29.6094 A2.5,2.5 0 0 1 524,32.1094 L524,308.5 A2.5,2.5 0 0 1 521.5,311 L8.5,311 A2.5,2.5 0 0 1 6,308.5 L6,8.5 A2.5,2.5 0 0 1 8.5,6 " fill="none" style="stroke:#000000;stroke-width:1.5;"/><line style="stroke:#000000;stroke-width:1.5;" x1="6" x2="171" y1="29.6094" y2="29.6094"/><text fill="#000000" font-family="sans-serif" font-size="14" font-weight="bold" lengthAdjust="spacing" textLength="152" x="10" y="22.5332">importarAsignaturas()</text></g><!--entity ImportarAsignaturasView--><g id="elem_ImportarAsignaturasView"><rect fill="#629EF9" height="37.6094" rx="2.5" ry="2.5" style="stroke:#181818;stroke-width:0.5;" width="176" x="332" y="42"/><text fill="#000000" font-family="sans-serif" font-size="14" lengthAdjust="spacing" textLength="156" x="342" y="66.5332">ImportarAsignaturasView</text></g><!--entity AsignaturaController--><g id="elem_AsignaturaController"><rect fill="#B5BD68" height="37.6094" rx="2.5" ry="2.5" style="stroke:#181818;stroke-width:0.5;" width="150" x="22" y="158"/><text fill="#000000" font-family="sans-serif" font-size="14" lengthAdjust="spacing" textLength="130" x="32" y="182.5332">AsignaturaController</text></g><!--entity AsignaturaRepository--><g id="elem_AsignaturaRepository"><rect fill="#F2AC4E" height="37.6094" rx="2.5" ry="2.5" style="stroke:#181818;stroke-width:0.5;" width="156" x="352" y="158"/><text fill="#000000" font-family="sans-serif" font-size="14" lengthAdjust="spacing" textLength="136" x="362" y="182.5332">AsignaturaRepository</text></g><!--entity Asignatura--><g id="elem_Asignatura"><rect fill="#F2AC4E" height="37.6094" rx="2.5" ry="2.5" style="stroke:#181818;stroke-width:0.5;" width="88" x="386" y="257"/><text fill="#000000" font-family="sans-serif" font-size="14" lengthAdjust="spacing" textLength="68" x="396" y="281.5332">Asignatura</text></g><!--entity AsignaturasAbierto--><g id="elem_AsignaturasAbierto"><rect fill="#CDEBA5" height="37.6094" rx="2.5" ry="2.5" style="stroke:#181818;stroke-width:0.5;" width="148" x="570" y="158"/><text fill="#000000" font-family="sans-serif" font-size="14" lengthAdjust="spacing" textLength="128" x="580" y="182.5332">:Asignaturas Abierto</text></g><!--link AsignaturasAbierto to ImportarAsignaturasView--><g id="link_AsignaturasAbierto_ImportarAsignaturasView"><path d="M580.59,157.99 C532.64,144.37 475,128 475,128 C475,128 455.1495,104.1907 438.8695,84.6407 " fill="none" id="AsignaturasAbierto-to-ImportarAsignaturasView" style="stroke:#181818;stroke-width:1.0;"/><polygon fill="#181818" points="435.03,80.03,437.7154,89.5057,438.2296,83.8722,443.863,84.3864,435.03,80.03" style="stroke:#181818;stroke-width:1.0;"/><text fill="#000000" font-family="sans-serif" font-size="13" lengthAdjust="spacing" textLength="124" x="476" y="124.4951">importarAsignaturas()</text></g><!--link ImportarAsignaturasView to AsignaturasAbierto--><g id="link_ImportarAsignaturasView_AsignaturasAbierto"><path d="M489.41,80.01 C541.91,93.63 605,110 605,110 C605,110 618.75,133.253 630.29,152.803 " fill="none" id="ImportarAsignaturasView-to-AsignaturasAbierto" style="stroke:#181818;stroke-width:1.0;stroke-dasharray:7.0,7.0;"/><polygon fill="#181818" points="633.34,157.97,632.2097,148.1862,630.7984,153.6642,625.3204,152.2528,633.34,157.97" style="stroke:#181818;stroke-width:1.0;"/><text fill="#000000" font-family="sans-serif" font-size="13" lengthAdjust="spacing" textLength="183" x="617" y="124.4951">mostrarResultado(importResult)</text></g><!--link ImportarAsignaturasView to AsignaturasAbierto--><g id="link_ImportarAsignaturasView_AsignaturasAbierto"><path d="M508.27,72.89 C623.04,87.05 809,110 809,110 C809,110 809,128 809,128 C809,128 758.4912,142.6941 711.6712,156.3141 " fill="none" id="ImportarAsignaturasView-to-AsignaturasAbierto-1" style="stroke:#181818;stroke-width:1.0;stroke-dasharray:7.0,7.0;"/><polygon fill="#181818" points="705.91,157.99,715.6691,159.3169,710.711,156.5934,713.4345,151.6353,705.91,157.99" style="stroke:#181818;stroke-width:1.0;"/><text fill="#000000" font-family="sans-serif" font-size="13" lengthAdjust="spacing" textLength="124" x="810" y="124.4951">cancelarImportacion()</text></g><!--link ImportarAsignaturasView to AsignaturaController--><g id="link_ImportarAsignaturasView_AsignaturaController"><path d="M331.87,73.56 C223.57,87.76 54,110 54,110 C54,110 54,128 54,128 C54,128 64.5673,139.7903 76.7373,153.3803 " fill="none" id="ImportarAsignaturasView-to-AsignaturaController" style="stroke:#181818;stroke-width:1.0;"/><polygon fill="#181818" points="80.74,157.85,77.7158,148.4769,77.4044,154.1252,71.7561,153.8139,80.74,157.85" style="stroke:#181818;stroke-width:1.0;"/><text fill="#000000" font-family="sans-serif" font-size="13" lengthAdjust="spacing" textLength="180" x="55" y="124.4951">importar(archivo) : ImportResult</text></g><!--link ImportarAsignaturasView to AsignaturaController--><g id="link_ImportarAsignaturasView_AsignaturaController"><path d="M370.81,80.03 C317.52,99.58 240,128 240,128 C240,128 196.9182,142.4609 156.3382,156.0809 " fill="none" id="ImportarAsignaturasView-to-AsignaturaController-1" style="stroke:#181818;stroke-width:1.0;"/><polygon fill="#181818" points="150.65,157.99,160.455,158.9184,155.3901,156.3991,157.9095,151.3342,150.65,157.99" style="stroke:#181818;stroke-width:1.0;"/><text fill="#000000" font-family="sans-serif" font-size="13" lengthAdjust="spacing" textLength="157" x="290" y="124.4951">obtenerFormatoRequerido()</text></g><!--link AsignaturaController to AsignaturaRepository--><g id="link_AsignaturaController_AsignaturaRepository"><path d="M172.15,177 C225.76,177 291.68,177 345.94,177 " fill="none" id="AsignaturaController-to-AsignaturaRepository" style="stroke:#181818;stroke-width:1.0;"/><polygon fill="#181818" points="351.94,177,342.94,173,346.94,177,342.94,181,351.94,177" style="stroke:#181818;stroke-width:1.0;"/><text fill="#000000" font-family="sans-serif" font-size="13" lengthAdjust="spacing" textLength="143" x="190.5" y="170.4951">guardarLote(asignaturas)</text></g><!--link AsignaturaRepository to Asignatura--><g id="link_AsignaturaRepository_Asignatura"><path d="M430,196.24 C430,213.59 430,239.52 430,256.84 " fill="none" id="AsignaturaRepository-Asignatura" style="stroke:#181818;stroke-width:1.0;"/></g><!--SRC=[dLAnQiCm5Dpr5GztYGTd24reCWHSDu52fmpTd-s7AoBhkSzoIoZzzofD829HAAdG81ttJdU7-gss7GgsOBGbj-i8EZQx_KKfeSgXRGp1NV6qUioda2poNZSMtI3OGrvg4iS9xCyd_0WhrM6rnOP0jnsBGmbd_KuY-2XDu4ify2juVJQPhzPpUBxalshwF6UNqxAUFGIE2hPEs1YIS-fwaXVtgu2weOvxxLXsVrBLjrANgI6JR7dDAImWcbcfQmDPxTLYIGAf4KhrfZyuzTX1PqFzODp_LBbqP4dMB2qwtj3xGA9htfkCJlpcZHNejPe1fKPvOKSZF7b8LPIVPM6xLysFnyl8R_EljTmxGJc4HszP1sMaj-jLQ2ioACV1IhFrBVm0]--></g></svg>