<?xml version="1.0" encoding="us-ascii" standalone="no"?><svg xmlns="http://www.w3.org/2000/svg" xmlns:xlink="http://www.w3.org/1999/xlink" contentStyleType="text/css" height="1001px" preserveAspectRatio="none" style="width:1199px;height:1001px;background:#FFFFFF;" version="1.1" viewBox="0 0 1199 1001" width="1199px" zoomAndPan="magnify"><defs/><g><line style="stroke:#181818;stroke-width:0.5;stroke-dasharray:5.0,5.0;" x1="51" x2="51" y1="82.6094" y2="919.75"/><line style="stroke:#181818;stroke-width:0.5;stroke-dasharray:5.0,5.0;" x1="212" x2="212" y1="82.6094" y2="919.75"/><line style="stroke:#181818;stroke-width:0.5;stroke-dasharray:5.0,5.0;" x1="371" x2="371" y1="82.6094" y2="919.75"/><line style="stroke:#181818;stroke-width:0.5;stroke-dasharray:5.0,5.0;" x1="529" x2="529" y1="82.6094" y2="919.75"/><line style="stroke:#181818;stroke-width:0.5;stroke-dasharray:5.0,5.0;" x1="733.5" x2="733.5" y1="82.6094" y2="919.75"/><line style="stroke:#181818;stroke-width:0.5;stroke-dasharray:5.0,5.0;" x1="865.5" x2="865.5" y1="82.6094" y2="919.75"/><line style="stroke:#181818;stroke-width:0.5;stroke-dasharray:5.0,5.0;" x1="1145.5" x2="1145.5" y1="82.6094" y2="919.75"/><text fill="#000000" font-family="sans-serif" font-size="14" lengthAdjust="spacing" textLength="87" x="5" y="79.5332">Administrador</text><ellipse cx="51.5" cy="13.5" fill="#E2E2F0" rx="8" ry="8" style="stroke:#181818;stroke-width:0.5;"/><path d="M51.5,21.5 L51.5,48.5 M38.5,29.5 L64.5,29.5 M51.5,48.5 L38.5,63.5 M51.5,48.5 L64.5,63.5 " fill="none" style="stroke:#181818;stroke-width:0.5;"/><text fill="#000000" font-family="sans-serif" font-size="14" lengthAdjust="spacing" textLength="87" x="5" y="933.2832">Administrador</text><ellipse cx="51.5" cy="944.8594" fill="#E2E2F0" rx="8" ry="8" style="stroke:#181818;stroke-width:0.5;"/><path d="M51.5,952.8594 L51.5,979.8594 M38.5,960.8594 L64.5,960.8594 M51.5,979.8594 L38.5,994.8594 M51.5,979.8594 L64.5,994.8594 " fill="none" style="stroke:#181818;stroke-width:0.5;"/><rect fill="#E2E2F0" height="66.8281" rx="2.5" ry="2.5" style="stroke:#181818;stroke-width:0.5;" width="127" x="149" y="14.7813"/><text fill="#000000" font-family="sans-serif" font-size="14" font-style="italic" lengthAdjust="spacing" textLength="89" x="168" y="36.3145">&#171;Component&#187;</text><text fill="#000000" font-family="sans-serif" font-size="14" lengthAdjust="spacing" textLength="113" x="156" y="53.9238">EditarAlumnoView</text><text fill="#000000" font-family="sans-serif" font-size="14" lengthAdjust="spacing" textLength="47" x="189" y="71.5332">(React)</text><rect fill="#E2E2F0" height="66.8281" rx="2.5" ry="2.5" style="stroke:#181818;stroke-width:0.5;" width="127" x="149" y="918.75"/><text fill="#000000" font-family="sans-serif" font-size="14" font-style="italic" lengthAdjust="spacing" textLength="89" x="168" y="940.2832">&#171;Component&#187;</text><text fill="#000000" font-family="sans-serif" font-size="14" lengthAdjust="spacing" textLength="113" x="156" y="957.8926">EditarAlumnoView</text><text fill="#000000" font-family="sans-serif" font-size="14" lengthAdjust="spacing" textLength="47" x="189" y="975.502">(React)</text><rect fill="#E2E2F0" height="66.8281" rx="2.5" ry="2.5" style="stroke:#181818;stroke-width:0.5;" width="117" x="313" y="14.7813"/><text fill="#000000" font-family="sans-serif" font-size="14" font-style="italic" lengthAdjust="spacing" textLength="50" x="346.5" y="36.3145">&#171;Hook&#187;</text><text fill="#000000" font-family="sans-serif" font-size="14" lengthAdjust="spacing" textLength="103" x="320" y="53.9238">useAlumnoForm</text><text fill="#000000" font-family="sans-serif" font-size="14" lengthAdjust="spacing" textLength="42" x="350.5" y="71.5332">(Hook)</text><rect fill="#E2E2F0" height="66.8281" rx="2.5" ry="2.5" style="stroke:#181818;stroke-width:0.5;" width="117" x="313" y="918.75"/><text fill="#000000" font-family="sans-serif" font-size="14" font-style="italic" lengthAdjust="spacing" textLength="50" x="346.5" y="940.2832">&#171;Hook&#187;</text><text fill="#000000" font-family="sans-serif" font-size="14" lengthAdjust="spacing" textLength="103" x="320" y="957.8926">useAlumnoForm</text><text fill="#000000" font-family="sans-serif" font-size="14" lengthAdjust="spacing" textLength="42" x="350.5" y="975.502">(Hook)</text><rect fill="#E2E2F0" height="66.8281" rx="2.5" ry="2.5" style="stroke:#181818;stroke-width:0.5;" width="115" x="472" y="14.7813"/><text fill="#000000" font-family="sans-serif" font-size="14" font-style="italic" lengthAdjust="spacing" textLength="62" x="498.5" y="36.3145">&#171;Service&#187;</text><text fill="#000000" font-family="sans-serif" font-size="14" lengthAdjust="spacing" textLength="101" x="479" y="53.9238">AlumnosService</text><text fill="#000000" font-family="sans-serif" font-size="14" lengthAdjust="spacing" textLength="43" x="508" y="71.5332">(Axios)</text><rect fill="#E2E2F0" height="66.8281" rx="2.5" ry="2.5" style="stroke:#181818;stroke-width:0.5;" width="115" x="472" y="918.75"/><text fill="#000000" font-family="sans-serif" font-size="14" font-style="italic" lengthAdjust="spacing" textLength="62" x="498.5" y="940.2832">&#171;Service&#187;</text><text fill="#000000" font-family="sans-serif" font-size="14" lengthAdjust="spacing" textLength="101" x="479" y="957.8926">AlumnosService</text><text fill="#000000" font-family="sans-serif" font-size="14" lengthAdjust="spacing" textLength="43" x="508" y="975.502">(Axios)</text><rect fill="#E2E2F0" height="66.8281" rx="2.5" ry="2.5" style="stroke:#181818;stroke-width:0.5;" width="130" x="668.5" y="14.7813"/><text fill="#000000" font-family="sans-serif" font-size="14" font-style="italic" lengthAdjust="spacing" textLength="78" x="694.5" y="36.3145">&#171;Controller&#187;</text><text fill="#000000" font-family="sans-serif" font-size="14" lengthAdjust="spacing" textLength="116" x="675.5" y="53.9238">AlumnosController</text><text fill="#000000" font-family="sans-serif" font-size="14" lengthAdjust="spacing" textLength="53" x="707" y="71.5332">(NestJS)</text><rect fill="#E2E2F0" height="66.8281" rx="2.5" ry="2.5" style="stroke:#181818;stroke-width:0.5;" width="130" x="668.5" y="918.75"/><text fill="#000000" font-family="sans-serif" font-size="14" font-style="italic" lengthAdjust="spacing" textLength="78" x="694.5" y="940.2832">&#171;Controller&#187;</text><text fill="#000000" font-family="sans-serif" font-size="14" lengthAdjust="spacing" textLength="116" x="675.5" y="957.8926">AlumnosController</text><text fill="#000000" font-family="sans-serif" font-size="14" lengthAdjust="spacing" textLength="53" x="707" y="975.502">(NestJS)</text><rect fill="#E2E2F0" height="66.8281" rx="2.5" ry="2.5" style="stroke:#181818;stroke-width:0.5;" width="115" x="808.5" y="14.7813"/><text fill="#000000" font-family="sans-serif" font-size="14" font-style="italic" lengthAdjust="spacing" textLength="62" x="835" y="36.3145">&#171;Service&#187;</text><text fill="#000000" font-family="sans-serif" font-size="14" lengthAdjust="spacing" textLength="101" x="815.5" y="53.9238">AlumnosService</text><text fill="#000000" font-family="sans-serif" font-size="14" lengthAdjust="spacing" textLength="53" x="839.5" y="71.5332">(NestJS)</text><rect fill="#E2E2F0" height="66.8281" rx="2.5" ry="2.5" style="stroke:#181818;stroke-width:0.5;" width="115" x="808.5" y="918.75"/><text fill="#000000" font-family="sans-serif" font-size="14" font-style="italic" lengthAdjust="spacing" textLength="62" x="835" y="940.2832">&#171;Service&#187;</text><text fill="#000000" font-family="sans-serif" font-size="14" lengthAdjust="spacing" textLength="101" x="815.5" y="957.8926">AlumnosService</text><text fill="#000000" font-family="sans-serif" font-size="14" lengthAdjust="spacing" textLength="53" x="839.5" y="975.502">(NestJS)</text><text fill="#000000" font-family="sans-serif" font-size="14" lengthAdjust="spacing" textLength="77" x="1104.5" y="79.5332">PostgreSQL</text><path d="M1128,29 C1128,19 1146,19 1146,19 C1146,19 1164,19 1164,29 L1164,55 C1164,65 1146,65 1146,65 C1146,65 1128,65 1128,55 L1128,29 " fill="#E2E2F0" style="stroke:#181818;stroke-width:1.5;"/><path d="M1128,29 C1128,39 1146,39 1146,39 C1146,39 1164,39 1164,29 " fill="none" style="stroke:#181818;stroke-width:1.5;"/><text fill="#000000" font-family="sans-serif" font-size="14" lengthAdjust="spacing" textLength="77" x="1104.5" y="933.2832">PostgreSQL</text><path d="M1128,946.3594 C1128,936.3594 1146,936.3594 1146,936.3594 C1146,936.3594 1164,936.3594 1164,946.3594 L1164,972.3594 C1164,982.3594 1146,982.3594 1146,982.3594 C1146,982.3594 1128,982.3594 1128,972.3594 L1128,946.3594 " fill="#E2E2F0" style="stroke:#181818;stroke-width:1.5;"/><path d="M1128,946.3594 C1128,956.3594 1146,956.3594 1146,956.3594 C1146,956.3594 1164,956.3594 1164,946.3594 " fill="none" style="stroke:#181818;stroke-width:1.5;"/><rect fill="#EEEEEE" height="3" style="stroke:#EEEEEE;stroke-width:1.0;" width="1192.5" x="0" y="113.7852"/><line style="stroke:#000000;stroke-width:1.0;" x1="0" x2="1192.5" y1="113.7852" y2="113.7852"/><line style="stroke:#000000;stroke-width:1.0;" x1="0" x2="1192.5" y1="116.7852" y2="116.7852"/><rect fill="#EEEEEE" height="24.3516" style="stroke:#000000;stroke-width:2.0;" width="115" x="538.75" y="102.6094"/><text fill="#000000" font-family="sans-serif" font-size="13" font-weight="bold" lengthAdjust="spacing" textLength="97" x="544.75" y="120.1045">Carga de Datos</text><polygon fill="#181818" points="200.5,155.3125,210.5,159.3125,200.5,163.3125,204.5,159.3125" style="stroke:#181818;stroke-width:1.0;"/><line style="stroke:#181818;stroke-width:1.0;" x1="51.5" x2="206.5" y1="159.3125" y2="159.3125"/><text fill="#000000" font-family="sans-serif" font-size="13" lengthAdjust="spacing" textLength="137" x="58.5" y="154.4561">Accede a editar alumno</text><polygon fill="#181818" points="359.5,185.6641,369.5,189.6641,359.5,193.6641,363.5,189.6641" style="stroke:#181818;stroke-width:1.0;"/><line style="stroke:#181818;stroke-width:1.0;" x1="212.5" x2="365.5" y1="189.6641" y2="189.6641"/><text fill="#000000" font-family="sans-serif" font-size="13" lengthAdjust="spacing" textLength="86" x="219.5" y="184.8076">loadAlumno(id)</text><polygon fill="#181818" points="517.5,216.0156,527.5,220.0156,517.5,224.0156,521.5,220.0156" style="stroke:#181818;stroke-width:1.0;"/><line style="stroke:#181818;stroke-width:1.0;" x1="371.5" x2="523.5" y1="220.0156" y2="220.0156"/><text fill="#000000" font-family="sans-serif" font-size="13" lengthAdjust="spacing" textLength="106" x="378.5" y="215.1592">getAlumnoById(id)</text><polygon fill="#181818" points="721.5,246.3672,731.5,250.3672,721.5,254.3672,725.5,250.3672" style="stroke:#181818;stroke-width:1.0;"/><line style="stroke:#181818;stroke-width:1.0;" x1="529.5" x2="727.5" y1="250.3672" y2="250.3672"/><text fill="#000000" font-family="sans-serif" font-size="13" lengthAdjust="spacing" textLength="101" x="536.5" y="245.5107">GET /alumnos/:id</text><polygon fill="#181818" points="854,276.7188,864,280.7188,854,284.7188,858,280.7188" style="stroke:#181818;stroke-width:1.0;"/><line style="stroke:#181818;stroke-width:1.0;" x1="733.5" x2="860" y1="280.7188" y2="280.7188"/><text fill="#000000" font-family="sans-serif" font-size="13" lengthAdjust="spacing" textLength="62" x="740.5" y="275.8623">findOne(id)</text><polygon fill="#181818" points="1134,307.0703,1144,311.0703,1134,315.0703,1138,311.0703" style="stroke:#181818;stroke-width:1.0;"/><line style="stroke:#181818;stroke-width:1.0;" x1="866" x2="1140" y1="311.0703" y2="311.0703"/><text fill="#000000" font-family="sans-serif" font-size="13" lengthAdjust="spacing" textLength="256" x="873" y="306.2139">SELECT * FROM "Alumno" WHERE id = :id</text><polygon fill="#181818" points="877,337.4219,867,341.4219,877,345.4219,873,341.4219" style="stroke:#181818;stroke-width:1.0;"/><line style="stroke:#181818;stroke-width:1.0;stroke-dasharray:2.0,2.0;" x1="871" x2="1145" y1="341.4219" y2="341.4219"/><text fill="#000000" font-family="sans-serif" font-size="13" lengthAdjust="spacing" textLength="75" x="883" y="336.5654">Alumno Data</text><polygon fill="#181818" points="744.5,367.7734,734.5,371.7734,744.5,375.7734,740.5,371.7734" style="stroke:#181818;stroke-width:1.0;"/><line style="stroke:#181818;stroke-width:1.0;stroke-dasharray:2.0,2.0;" x1="738.5" x2="865" y1="371.7734" y2="371.7734"/><text fill="#000000" font-family="sans-serif" font-size="13" lengthAdjust="spacing" textLength="82" x="750.5" y="366.917">Alumno Entity</text><polygon fill="#181818" points="540.5,398.125,530.5,402.125,540.5,406.125,536.5,402.125" style="stroke:#181818;stroke-width:1.0;"/><line style="stroke:#181818;stroke-width:1.0;stroke-dasharray:2.0,2.0;" x1="534.5" x2="732.5" y1="402.125" y2="402.125"/><text fill="#000000" font-family="sans-serif" font-size="13" lengthAdjust="spacing" textLength="96" x="546.5" y="397.2686">JSON Response</text><polygon fill="#181818" points="382.5,428.4766,372.5,432.4766,382.5,436.4766,378.5,432.4766" style="stroke:#181818;stroke-width:1.0;"/><line style="stroke:#181818;stroke-width:1.0;stroke-dasharray:2.0,2.0;" x1="376.5" x2="528.5" y1="432.4766" y2="432.4766"/><text fill="#000000" font-family="sans-serif" font-size="13" lengthAdjust="spacing" textLength="86" x="388.5" y="427.6201">Alumno Object</text><polygon fill="#181818" points="223.5,458.8281,213.5,462.8281,223.5,466.8281,219.5,462.8281" style="stroke:#181818;stroke-width:1.0;"/><line style="stroke:#181818;stroke-width:1.0;stroke-dasharray:2.0,2.0;" x1="217.5" x2="370.5" y1="462.8281" y2="462.8281"/><text fill="#000000" font-family="sans-serif" font-size="13" lengthAdjust="spacing" textLength="103" x="229.5" y="457.9717">Rellena formulario</text><rect fill="#EEEEEE" height="3" style="stroke:#EEEEEE;stroke-width:1.0;" width="1192.5" x="0" y="492.0039"/><line style="stroke:#000000;stroke-width:1.0;" x1="0" x2="1192.5" y1="492.0039" y2="492.0039"/><line style="stroke:#000000;stroke-width:1.0;" x1="0" x2="1192.5" y1="495.0039" y2="495.0039"/><rect fill="#EEEEEE" height="24.3516" style="stroke:#000000;stroke-width:2.0;" width="65" x="563.75" y="480.8281"/><text fill="#000000" font-family="sans-serif" font-size="13" font-weight="bold" lengthAdjust="spacing" textLength="47" x="569.75" y="498.3232">Edici&#243;n</text><polygon fill="#181818" points="200.5,533.5313,210.5,537.5313,200.5,541.5313,204.5,537.5313" style="stroke:#181818;stroke-width:1.0;"/><line style="stroke:#181818;stroke-width:1.0;" x1="51.5" x2="206.5" y1="537.5313" y2="537.5313"/><text fill="#000000" font-family="sans-serif" font-size="13" lengthAdjust="spacing" textLength="98" x="58.5" y="532.6748">Modifica campos</text><polygon fill="#181818" points="200.5,563.8828,210.5,567.8828,200.5,571.8828,204.5,567.8828" style="stroke:#181818;stroke-width:1.0;"/><line style="stroke:#181818;stroke-width:1.0;" x1="51.5" x2="206.5" y1="567.8828" y2="567.8828"/><text fill="#000000" font-family="sans-serif" font-size="13" lengthAdjust="spacing" textLength="107" x="58.5" y="563.0264">Click en "Guardar"</text><polygon fill="#181818" points="359.5,594.2344,369.5,598.2344,359.5,602.2344,363.5,598.2344" style="stroke:#181818;stroke-width:1.0;"/><line style="stroke:#181818;stroke-width:1.0;" x1="212.5" x2="365.5" y1="598.2344" y2="598.2344"/><text fill="#000000" font-family="sans-serif" font-size="13" lengthAdjust="spacing" textLength="90" x="219.5" y="593.3779">update(id, data)</text><polygon fill="#181818" points="517.5,624.5859,527.5,628.5859,517.5,632.5859,521.5,628.5859" style="stroke:#181818;stroke-width:1.0;"/><line style="stroke:#181818;stroke-width:1.0;" x1="371.5" x2="523.5" y1="628.5859" y2="628.5859"/><text fill="#000000" font-family="sans-serif" font-size="13" lengthAdjust="spacing" textLength="134" x="378.5" y="623.7295">updateAlumno(id, data)</text><polygon fill="#181818" points="721.5,654.9375,731.5,658.9375,721.5,662.9375,725.5,658.9375" style="stroke:#181818;stroke-width:1.0;"/><line style="stroke:#181818;stroke-width:1.0;" x1="529.5" x2="727.5" y1="658.9375" y2="658.9375"/><text fill="#000000" font-family="sans-serif" font-size="13" lengthAdjust="spacing" textLength="180" x="536.5" y="654.0811">PUT /alumnos/:id (JSON Body)</text><polygon fill="#181818" points="854,685.2891,864,689.2891,854,693.2891,858,689.2891" style="stroke:#181818;stroke-width:1.0;"/><line style="stroke:#181818;stroke-width:1.0;" x1="733.5" x2="860" y1="689.2891" y2="689.2891"/><text fill="#000000" font-family="sans-serif" font-size="13" lengthAdjust="spacing" textLength="83" x="740.5" y="684.4326">update(id, dto)</text><polygon fill="#181818" points="1134,715.6406,1144,719.6406,1134,723.6406,1138,719.6406" style="stroke:#181818;stroke-width:1.0;"/><line style="stroke:#181818;stroke-width:1.0;" x1="866" x2="1140" y1="719.6406" y2="719.6406"/><text fill="#000000" font-family="sans-serif" font-size="13" lengthAdjust="spacing" textLength="240" x="873" y="714.7842">UPDATE alumno SET ... WHERE id = :id</text><polygon fill="#181818" points="877,745.9922,867,749.9922,877,753.9922,873,749.9922" style="stroke:#181818;stroke-width:1.0;"/><line style="stroke:#181818;stroke-width:1.0;stroke-dasharray:2.0,2.0;" x1="871" x2="1145" y1="749.9922" y2="749.9922"/><text fill="#000000" font-family="sans-serif" font-size="13" lengthAdjust="spacing" textLength="19" x="883" y="745.1357">OK</text><polygon fill="#181818" points="744.5,776.3438,734.5,780.3438,744.5,784.3438,740.5,780.3438" style="stroke:#181818;stroke-width:1.0;"/><line style="stroke:#181818;stroke-width:1.0;stroke-dasharray:2.0,2.0;" x1="738.5" x2="865" y1="780.3438" y2="780.3438"/><text fill="#000000" font-family="sans-serif" font-size="13" lengthAdjust="spacing" textLength="82" x="750.5" y="775.4873">Alumno Entity</text><polygon fill="#181818" points="540.5,806.6953,530.5,810.6953,540.5,814.6953,536.5,810.6953" style="stroke:#181818;stroke-width:1.0;"/><line style="stroke:#181818;stroke-width:1.0;stroke-dasharray:2.0,2.0;" x1="534.5" x2="732.5" y1="810.6953" y2="810.6953"/><text fill="#000000" font-family="sans-serif" font-size="13" lengthAdjust="spacing" textLength="96" x="546.5" y="805.8389">JSON Response</text><polygon fill="#181818" points="382.5,837.0469,372.5,841.0469,382.5,845.0469,378.5,841.0469" style="stroke:#181818;stroke-width:1.0;"/><line style="stroke:#181818;stroke-width:1.0;stroke-dasharray:2.0,2.0;" x1="376.5" x2="528.5" y1="841.0469" y2="841.0469"/><text fill="#000000" font-family="sans-serif" font-size="13" lengthAdjust="spacing" textLength="51" x="388.5" y="836.1904">Success</text><polygon fill="#181818" points="223.5,867.3984,213.5,871.3984,223.5,875.3984,219.5,871.3984" style="stroke:#181818;stroke-width:1.0;"/><line style="stroke:#181818;stroke-width:1.0;stroke-dasharray:2.0,2.0;" x1="217.5" x2="370.5" y1="871.3984" y2="871.3984"/><text fill="#000000" font-family="sans-serif" font-size="13" lengthAdjust="spacing" textLength="135" x="229.5" y="866.542">Redirigir / Mostrar &#233;xito</text><polygon fill="#181818" points="62.5,897.75,52.5,901.75,62.5,905.75,58.5,901.75" style="stroke:#181818;stroke-width:1.0;"/><line style="stroke:#181818;stroke-width:1.0;stroke-dasharray:2.0,2.0;" x1="56.5" x2="211.5" y1="901.75" y2="901.75"/><text fill="#000000" font-family="sans-serif" font-size="13" lengthAdjust="spacing" textLength="124" x="68.5" y="896.8936">Muestra confirmaci&#243;n</text><!--SRC=[lLFBSjf04BphAwPqWbGCTyfGXK3u4TiY299BBcFjGYP8kzJkAZQVb7C-mJ-MqGCiEH3VSj9gfxirwfwnMr8xD9Y1_Ov2Fv7Qm1fJApqF4wSDZ4L6YgmpN3KUGnqbj4Fbm0y5EJJZDC-K_aBowPlgB2IpkZwWXTKDN5vETBRJIYet6hMvkPKLSQPDniHhhRSLhpWnitYy9LKC6qlpanB9hF4pQLlHPlKjK-lJ6VP4AsTqcah30W_IkjkuKdWjb8qVNjvjegaHdEf2eCD7j1BykRPkOsJy-Qv4JmFF6mvXWcQ382HCqMaBmw7djLo7Yr7XvW36II8PXY1Bvm7BLZokCQBqRG2fHb6rs27HzSfRhXxj6S16kWeGx6z42JeM6TXmOG1NuHBwrLTiVq32QrGP6xoAhac9ICbIBcZ8JGCknk5TE5d21vWjelk3WpvylGuN8P208HJQ3BreYrR0mXPiYBvjiaQ5of7Rjpfi__Tj73t0GbeUI1xlMLElzgvMYXv_oCJLrXsyNqZML0XhdjSyHKEwp8vt8A6Nt-eVgTrhGMjA41BaPR1dK9EKaYr81VvLZaQWyTkvvZiUeyBVZr3CqybaAymn_GFoRBppLJjUw9GU1Lhik-UZRdRYz8cuL_FfU1dMqydXBw7NwxsVTlJfluGSvxn5rluLho136pBGvy2AS0oy_7ecLwqNmzgnSQovB5uWqMfD9iDo3Bm_]--></g></svg>