<?xml version="1.0" encoding="us-ascii" standalone="no"?><svg xmlns="http://www.w3.org/2000/svg" xmlns:xlink="http://www.w3.org/1999/xlink" contentStyleType="text/css" height="1029px" preserveAspectRatio="none" style="width:2261px;height:1029px;background:#FFFFFF;" version="1.1" viewBox="0 0 2261 1029" width="2261px" zoomAndPan="magnify"><defs/><g><line style="stroke:#181818;stroke-width:0.5;stroke-dasharray:5.0,5.0;" x1="31" x2="31" y1="82.6094" y2="947.1563"/><line style="stroke:#181818;stroke-width:0.5;stroke-dasharray:5.0,5.0;" x1="323" x2="323" y1="82.6094" y2="947.1563"/><line style="stroke:#181818;stroke-width:0.5;stroke-dasharray:5.0,5.0;" x1="571.5" x2="571.5" y1="82.6094" y2="947.1563"/><line style="stroke:#181818;stroke-width:0.5;stroke-dasharray:5.0,5.0;" x1="795" x2="795" y1="82.6094" y2="947.1563"/><line style="stroke:#181818;stroke-width:0.5;stroke-dasharray:5.0,5.0;" x1="1181" x2="1181" y1="82.6094" y2="947.1563"/><line style="stroke:#181818;stroke-width:0.5;stroke-dasharray:5.0,5.0;" x1="1406.5" x2="1406.5" y1="82.6094" y2="947.1563"/><line style="stroke:#181818;stroke-width:0.5;stroke-dasharray:5.0,5.0;" x1="1544.5" x2="1544.5" y1="82.6094" y2="947.1563"/><line style="stroke:#181818;stroke-width:0.5;stroke-dasharray:5.0,5.0;" x1="1916.5" x2="1916.5" y1="82.6094" y2="947.1563"/><line style="stroke:#181818;stroke-width:0.5;stroke-dasharray:5.0,5.0;" x1="2208" x2="2208" y1="82.6094" y2="947.1563"/><text fill="#000000" font-family="sans-serif" font-size="14" lengthAdjust="spacing" textLength="47" x="5" y="79.5332">Alumno</text><ellipse cx="31.5" cy="13.5" fill="#E2E2F0" rx="8" ry="8" style="stroke:#181818;stroke-width:0.5;"/><path d="M31.5,21.5 L31.5,48.5 M18.5,29.5 L44.5,29.5 M31.5,48.5 L18.5,63.5 M31.5,48.5 L44.5,63.5 " fill="none" style="stroke:#181818;stroke-width:0.5;"/><text fill="#000000" font-family="sans-serif" font-size="14" lengthAdjust="spacing" textLength="47" x="5" y="960.6895">Alumno</text><ellipse cx="31.5" cy="972.2656" fill="#E2E2F0" rx="8" ry="8" style="stroke:#181818;stroke-width:0.5;"/><path d="M31.5,980.2656 L31.5,1007.2656 M18.5,988.2656 L44.5,988.2656 M31.5,1007.2656 L18.5,1022.2656 M31.5,1007.2656 L44.5,1022.2656 " fill="none" style="stroke:#181818;stroke-width:0.5;"/><rect fill="#E2E2F0" height="66.8281" rx="2.5" ry="2.5" style="stroke:#181818;stroke-width:0.5;" width="173" x="237" y="14.7813"/><text fill="#000000" font-family="sans-serif" font-size="14" font-style="italic" lengthAdjust="spacing" textLength="89" x="279" y="36.3145">&#171;Component&#187;</text><text fill="#000000" font-family="sans-serif" font-size="14" lengthAdjust="spacing" textLength="159" x="244" y="53.9238">ConsultarCalendarioView</text><text fill="#000000" font-family="sans-serif" font-size="14" lengthAdjust="spacing" textLength="47" x="300" y="71.5332">(React)</text><rect fill="#E2E2F0" height="66.8281" rx="2.5" ry="2.5" style="stroke:#181818;stroke-width:0.5;" width="173" x="237" y="946.1563"/><text fill="#000000" font-family="sans-serif" font-size="14" font-style="italic" lengthAdjust="spacing" textLength="89" x="279" y="967.6895">&#171;Component&#187;</text><text fill="#000000" font-family="sans-serif" font-size="14" lengthAdjust="spacing" textLength="159" x="244" y="985.2988">ConsultarCalendarioView</text><text fill="#000000" font-family="sans-serif" font-size="14" lengthAdjust="spacing" textLength="47" x="300" y="1002.9082">(React)</text><rect fill="#E2E2F0" height="66.8281" rx="2.5" ry="2.5" style="stroke:#181818;stroke-width:0.5;" width="106" x="518.5" y="14.7813"/><text fill="#000000" font-family="sans-serif" font-size="14" font-style="italic" lengthAdjust="spacing" textLength="50" x="546.5" y="36.3145">&#171;Hook&#187;</text><text fill="#000000" font-family="sans-serif" font-size="14" lengthAdjust="spacing" textLength="92" x="525.5" y="53.9238">useCalendario</text><text fill="#000000" font-family="sans-serif" font-size="14" lengthAdjust="spacing" textLength="42" x="550.5" y="71.5332">(Hook)</text><rect fill="#E2E2F0" height="66.8281" rx="2.5" ry="2.5" style="stroke:#181818;stroke-width:0.5;" width="106" x="518.5" y="946.1563"/><text fill="#000000" font-family="sans-serif" font-size="14" font-style="italic" lengthAdjust="spacing" textLength="50" x="546.5" y="967.6895">&#171;Hook&#187;</text><text fill="#000000" font-family="sans-serif" font-size="14" lengthAdjust="spacing" textLength="92" x="525.5" y="985.2988">useCalendario</text><text fill="#000000" font-family="sans-serif" font-size="14" lengthAdjust="spacing" textLength="42" x="550.5" y="1002.9082">(Hook)</text><rect fill="#E2E2F0" height="66.8281" rx="2.5" ry="2.5" style="stroke:#181818;stroke-width:0.5;" width="125" x="733" y="14.7813"/><text fill="#000000" font-family="sans-serif" font-size="14" font-style="italic" lengthAdjust="spacing" textLength="62" x="764.5" y="36.3145">&#171;Service&#187;</text><text fill="#000000" font-family="sans-serif" font-size="14" lengthAdjust="spacing" textLength="111" x="740" y="53.9238">examenesService</text><text fill="#000000" font-family="sans-serif" font-size="14" lengthAdjust="spacing" textLength="43" x="774" y="71.5332">(Axios)</text><rect fill="#E2E2F0" height="66.8281" rx="2.5" ry="2.5" style="stroke:#181818;stroke-width:0.5;" width="125" x="733" y="946.1563"/><text fill="#000000" font-family="sans-serif" font-size="14" font-style="italic" lengthAdjust="spacing" textLength="62" x="764.5" y="967.6895">&#171;Service&#187;</text><text fill="#000000" font-family="sans-serif" font-size="14" lengthAdjust="spacing" textLength="111" x="740" y="985.2988">examenesService</text><text fill="#000000" font-family="sans-serif" font-size="14" lengthAdjust="spacing" textLength="43" x="774" y="1002.9082">(Axios)</text><rect fill="#E2E2F0" height="66.8281" rx="2.5" ry="2.5" style="stroke:#181818;stroke-width:0.5;" width="141" x="1111" y="14.7813"/><text fill="#000000" font-family="sans-serif" font-size="14" font-style="italic" lengthAdjust="spacing" textLength="78" x="1142.5" y="36.3145">&#171;Controller&#187;</text><text fill="#000000" font-family="sans-serif" font-size="14" lengthAdjust="spacing" textLength="127" x="1118" y="53.9238">ExamenesController</text><text fill="#000000" font-family="sans-serif" font-size="14" lengthAdjust="spacing" textLength="53" x="1155" y="71.5332">(NestJS)</text><rect fill="#E2E2F0" height="66.8281" rx="2.5" ry="2.5" style="stroke:#181818;stroke-width:0.5;" width="141" x="1111" y="946.1563"/><text fill="#000000" font-family="sans-serif" font-size="14" font-style="italic" lengthAdjust="spacing" textLength="78" x="1142.5" y="967.6895">&#171;Controller&#187;</text><text fill="#000000" font-family="sans-serif" font-size="14" lengthAdjust="spacing" textLength="127" x="1118" y="985.2988">ExamenesController</text><text fill="#000000" font-family="sans-serif" font-size="14" lengthAdjust="spacing" textLength="53" x="1155" y="1002.9082">(NestJS)</text><rect fill="#E2E2F0" height="49.2188" rx="2.5" ry="2.5" style="stroke:#181818;stroke-width:0.5;" width="130" x="1341.5" y="32.3906"/><text fill="#000000" font-family="sans-serif" font-size="14" font-style="italic" lengthAdjust="spacing" textLength="56" x="1378.5" y="53.9238">&#171;Guard&#187;</text><text fill="#000000" font-family="sans-serif" font-size="14" lengthAdjust="spacing" textLength="116" x="1348.5" y="71.5332">RolesGuard / JWT</text><rect fill="#E2E2F0" height="49.2188" rx="2.5" ry="2.5" style="stroke:#181818;stroke-width:0.5;" width="130" x="1341.5" y="946.1563"/><text fill="#000000" font-family="sans-serif" font-size="14" font-style="italic" lengthAdjust="spacing" textLength="56" x="1378.5" y="967.6895">&#171;Guard&#187;</text><text fill="#000000" font-family="sans-serif" font-size="14" lengthAdjust="spacing" textLength="116" x="1348.5" y="985.2988">RolesGuard / JWT</text><rect fill="#E2E2F0" height="66.8281" rx="2.5" ry="2.5" style="stroke:#181818;stroke-width:0.5;" width="126" x="1481.5" y="14.7813"/><text fill="#000000" font-family="sans-serif" font-size="14" font-style="italic" lengthAdjust="spacing" textLength="62" x="1513.5" y="36.3145">&#171;Service&#187;</text><text fill="#000000" font-family="sans-serif" font-size="14" lengthAdjust="spacing" textLength="112" x="1488.5" y="53.9238">ExamenesService</text><text fill="#000000" font-family="sans-serif" font-size="14" lengthAdjust="spacing" textLength="53" x="1518" y="71.5332">(NestJS)</text><rect fill="#E2E2F0" height="66.8281" rx="2.5" ry="2.5" style="stroke:#181818;stroke-width:0.5;" width="126" x="1481.5" y="946.1563"/><text fill="#000000" font-family="sans-serif" font-size="14" font-style="italic" lengthAdjust="spacing" textLength="62" x="1513.5" y="967.6895">&#171;Service&#187;</text><text fill="#000000" font-family="sans-serif" font-size="14" lengthAdjust="spacing" textLength="112" x="1488.5" y="985.2988">ExamenesService</text><text fill="#000000" font-family="sans-serif" font-size="14" lengthAdjust="spacing" textLength="53" x="1518" y="1002.9082">(NestJS)</text><rect fill="#E2E2F0" height="49.2188" rx="2.5" ry="2.5" style="stroke:#181818;stroke-width:0.5;" width="104" x="1864.5" y="32.3906"/><text fill="#000000" font-family="sans-serif" font-size="14" font-style="italic" lengthAdjust="spacing" textLength="49" x="1892" y="53.9238">&#171;ORM&#187;</text><text fill="#000000" font-family="sans-serif" font-size="14" lengthAdjust="spacing" textLength="90" x="1871.5" y="71.5332">PrismaService</text><rect fill="#E2E2F0" height="49.2188" rx="2.5" ry="2.5" style="stroke:#181818;stroke-width:0.5;" width="104" x="1864.5" y="946.1563"/><text fill="#000000" font-family="sans-serif" font-size="14" font-style="italic" lengthAdjust="spacing" textLength="49" x="1892" y="967.6895">&#171;ORM&#187;</text><text fill="#000000" font-family="sans-serif" font-size="14" lengthAdjust="spacing" textLength="90" x="1871.5" y="985.2988">PrismaService</text><text fill="#000000" font-family="sans-serif" font-size="14" lengthAdjust="spacing" textLength="97" x="2157" y="79.5332">PostgreSQL 16</text><path d="M2190.5,29 C2190.5,19 2208.5,19 2208.5,19 C2208.5,19 2226.5,19 2226.5,29 L2226.5,55 C2226.5,65 2208.5,65 2208.5,65 C2208.5,65 2190.5,65 2190.5,55 L2190.5,29 " fill="#E2E2F0" style="stroke:#181818;stroke-width:1.5;"/><path d="M2190.5,29 C2190.5,39 2208.5,39 2208.5,39 C2208.5,39 2226.5,39 2226.5,29 " fill="none" style="stroke:#181818;stroke-width:1.5;"/><text fill="#000000" font-family="sans-serif" font-size="14" lengthAdjust="spacing" textLength="97" x="2157" y="960.6895">PostgreSQL 16</text><path d="M2190.5,973.7656 C2190.5,963.7656 2208.5,963.7656 2208.5,963.7656 C2208.5,963.7656 2226.5,963.7656 2226.5,973.7656 L2226.5,999.7656 C2226.5,1009.7656 2208.5,1009.7656 2208.5,1009.7656 C2208.5,1009.7656 2190.5,1009.7656 2190.5,999.7656 L2190.5,973.7656 " fill="#E2E2F0" style="stroke:#181818;stroke-width:1.5;"/><path d="M2190.5,973.7656 C2190.5,983.7656 2208.5,983.7656 2208.5,983.7656 C2208.5,983.7656 2226.5,983.7656 2226.5,973.7656 " fill="none" style="stroke:#181818;stroke-width:1.5;"/><polygon fill="#181818" points="311.5,110.9609,321.5,114.9609,311.5,118.9609,315.5,114.9609" style="stroke:#181818;stroke-width:1.0;"/><line style="stroke:#181818;stroke-width:1.0;" x1="31.5" x2="317.5" y1="114.9609" y2="114.9609"/><text fill="#000000" font-family="sans-serif" font-size="13" lengthAdjust="spacing" textLength="203" x="38.5" y="110.1045">consultarCalendario() / aplica filtros</text><polygon fill="#181818" points="559.5,141.3125,569.5,145.3125,559.5,149.3125,563.5,145.3125" style="stroke:#181818;stroke-width:1.0;"/><line style="stroke:#181818;stroke-width:1.0;" x1="323.5" x2="565.5" y1="145.3125" y2="145.3125"/><text fill="#000000" font-family="sans-serif" font-size="13" lengthAdjust="spacing" textLength="124" x="330.5" y="140.4561">loadCalendario(filtros)</text><polygon fill="#181818" points="783.5,171.6641,793.5,175.6641,783.5,179.6641,787.5,175.6641" style="stroke:#181818;stroke-width:1.0;"/><line style="stroke:#181818;stroke-width:1.0;" x1="571.5" x2="789.5" y1="175.6641" y2="175.6641"/><text fill="#000000" font-family="sans-serif" font-size="13" lengthAdjust="spacing" textLength="120" x="578.5" y="170.8076">findCalendario(filtros)</text><polygon fill="#181818" points="1169.5,218.3672,1179.5,222.3672,1169.5,226.3672,1173.5,222.3672" style="stroke:#181818;stroke-width:1.0;"/><line style="stroke:#181818;stroke-width:1.0;" x1="795.5" x2="1175.5" y1="222.3672" y2="222.3672"/><text fill="#000000" font-family="sans-serif" font-size="13" lengthAdjust="spacing" textLength="362" x="802.5" y="201.1592">GET /examenes/calendario?fechaInicio&amp;fechaFin&amp;asignaturaId</text><text fill="#000000" font-family="sans-serif" font-size="13" lengthAdjust="spacing" textLength="160" x="802.5" y="217.5107">(Authorization: Bearer JWT)</text><polygon fill="#181818" points="1394.5,248.7188,1404.5,252.7188,1394.5,256.7188,1398.5,252.7188" style="stroke:#181818;stroke-width:1.0;"/><line style="stroke:#181818;stroke-width:1.0;" x1="1181.5" x2="1400.5" y1="252.7188" y2="252.7188"/><text fill="#000000" font-family="sans-serif" font-size="13" lengthAdjust="spacing" textLength="102" x="1188.5" y="247.8623">validar token + rol</text><polygon fill="#181818" points="1192.5,279.0703,1182.5,283.0703,1192.5,287.0703,1188.5,283.0703" style="stroke:#181818;stroke-width:1.0;"/><line style="stroke:#181818;stroke-width:1.0;stroke-dasharray:2.0,2.0;" x1="1186.5" x2="1405.5" y1="283.0703" y2="283.0703"/><text fill="#000000" font-family="sans-serif" font-size="13" lengthAdjust="spacing" textLength="201" x="1198.5" y="278.2139">req.user { alumnoId, rol = Alumno }</text><polygon fill="#181818" points="1532.5,309.4219,1542.5,313.4219,1532.5,317.4219,1536.5,313.4219" style="stroke:#181818;stroke-width:1.0;"/><line style="stroke:#181818;stroke-width:1.0;" x1="1181.5" x2="1538.5" y1="313.4219" y2="313.4219"/><text fill="#000000" font-family="sans-serif" font-size="13" lengthAdjust="spacing" textLength="170" x="1188.5" y="308.5654">findCalendario(filtros, usuario)</text><polygon fill="#181818" points="1904.5,339.7734,1914.5,343.7734,1904.5,347.7734,1908.5,343.7734" style="stroke:#181818;stroke-width:1.0;"/><line style="stroke:#181818;stroke-width:1.0;" x1="1544.5" x2="1910.5" y1="343.7734" y2="343.7734"/><text fill="#000000" font-family="sans-serif" font-size="13" lengthAdjust="spacing" textLength="243" x="1551.5" y="338.917">matricula.findMany({ where: { alumnoId } })</text><polygon fill="#181818" points="2196.5,370.125,2206.5,374.125,2196.5,378.125,2200.5,374.125" style="stroke:#181818;stroke-width:1.0;"/><line style="stroke:#181818;stroke-width:1.0;" x1="1916.5" x2="2202.5" y1="374.125" y2="374.125"/><text fill="#000000" font-family="sans-serif" font-size="13" lengthAdjust="spacing" textLength="199" x="1923.5" y="369.2686">SELECT asignaturas matriculadas</text><polygon fill="#181818" points="1927.5,400.4766,1917.5,404.4766,1927.5,408.4766,1923.5,404.4766" style="stroke:#181818;stroke-width:1.0;"/><line style="stroke:#181818;stroke-width:1.0;stroke-dasharray:2.0,2.0;" x1="1921.5" x2="2207.5" y1="404.4766" y2="404.4766"/><text fill="#000000" font-family="sans-serif" font-size="13" lengthAdjust="spacing" textLength="78" x="1933.5" y="399.6201">asignaturaId[]</text><polygon fill="#181818" points="1555.5,430.8281,1545.5,434.8281,1555.5,438.8281,1551.5,434.8281" style="stroke:#181818;stroke-width:1.0;"/><line style="stroke:#181818;stroke-width:1.0;stroke-dasharray:2.0,2.0;" x1="1549.5" x2="1915.5" y1="434.8281" y2="434.8281"/><text fill="#000000" font-family="sans-serif" font-size="13" lengthAdjust="spacing" textLength="134" x="1561.5" y="429.9717">asignaturas del alumno</text><line style="stroke:#181818;stroke-width:1.0;" x1="1544.5" x2="1586.5" y1="481.5313" y2="481.5313"/><line style="stroke:#181818;stroke-width:1.0;" x1="1586.5" x2="1586.5" y1="481.5313" y2="494.5313"/><line style="stroke:#181818;stroke-width:1.0;" x1="1545.5" x2="1586.5" y1="494.5313" y2="494.5313"/><polygon fill="#181818" points="1555.5,490.5313,1545.5,494.5313,1555.5,498.5313,1551.5,494.5313" style="stroke:#181818;stroke-width:1.0;"/><text fill="#000000" font-family="sans-serif" font-size="13" lengthAdjust="spacing" textLength="274" x="1551.5" y="460.3232">restringir ex&#225;menes a asignaturas matriculadas</text><text fill="#000000" font-family="sans-serif" font-size="13" lengthAdjust="spacing" textLength="134" x="1551.5" y="476.6748">(restricci&#243;n no eludible)</text><polygon fill="#181818" points="1904.5,569.9375,1914.5,573.9375,1904.5,577.9375,1908.5,573.9375" style="stroke:#181818;stroke-width:1.0;"/><line style="stroke:#181818;stroke-width:1.0;" x1="1544.5" x2="1910.5" y1="573.9375" y2="573.9375"/><text fill="#000000" font-family="sans-serif" font-size="13" lengthAdjust="spacing" textLength="110" x="1551.5" y="520.0264">examen.findMany({</text><text fill="#000000" font-family="sans-serif" font-size="13" lengthAdjust="spacing" textLength="340" x="1559.5" y="536.3779">where: { asignatura IN matriculadas, fecha BETWEEN ... },</text><text fill="#000000" font-family="sans-serif" font-size="13" lengthAdjust="spacing" textLength="89" x="1559.5" y="552.7295">include: { aula }</text><text fill="#000000" font-family="sans-serif" font-size="13" lengthAdjust="spacing" textLength="8" x="1551.5" y="569.0811">})</text><polygon fill="#181818" points="2196.5,600.2891,2206.5,604.2891,2196.5,608.2891,2200.5,604.2891" style="stroke:#181818;stroke-width:1.0;"/><line style="stroke:#181818;stroke-width:1.0;" x1="1916.5" x2="2202.5" y1="604.2891" y2="604.2891"/><text fill="#000000" font-family="sans-serif" font-size="13" lengthAdjust="spacing" textLength="268" x="1923.5" y="599.4326">SELECT ex&#225;menes de sus asignaturas + aula</text><polygon fill="#181818" points="1927.5,630.6406,1917.5,634.6406,1927.5,638.6406,1923.5,634.6406" style="stroke:#181818;stroke-width:1.0;"/><line style="stroke:#181818;stroke-width:1.0;stroke-dasharray:2.0,2.0;" x1="1921.5" x2="2207.5" y1="634.6406" y2="634.6406"/><text fill="#000000" font-family="sans-serif" font-size="13" lengthAdjust="spacing" textLength="238" x="1933.5" y="629.7842">Ex&#225;menes (asignatura, fecha, hora, aula)</text><polygon fill="#181818" points="1555.5,660.9922,1545.5,664.9922,1555.5,668.9922,1551.5,664.9922" style="stroke:#181818;stroke-width:1.0;"/><line style="stroke:#181818;stroke-width:1.0;stroke-dasharray:2.0,2.0;" x1="1549.5" x2="1915.5" y1="664.9922" y2="664.9922"/><text fill="#000000" font-family="sans-serif" font-size="13" lengthAdjust="spacing" textLength="110" x="1561.5" y="660.1357">Lista de ex&#225;menes</text><polygon fill="#181818" points="1192.5,691.3438,1182.5,695.3438,1192.5,699.3438,1188.5,695.3438" style="stroke:#181818;stroke-width:1.0;"/><line style="stroke:#181818;stroke-width:1.0;stroke-dasharray:2.0,2.0;" x1="1186.5" x2="1543.5" y1="695.3438" y2="695.3438"/><text fill="#000000" font-family="sans-serif" font-size="13" lengthAdjust="spacing" textLength="166" x="1198.5" y="690.4873">List&lt;ExamenCalendarioDto&gt;</text><polygon fill="#181818" points="806.5,721.6953,796.5,725.6953,806.5,729.6953,802.5,725.6953" style="stroke:#181818;stroke-width:1.0;"/><line style="stroke:#181818;stroke-width:1.0;stroke-dasharray:2.0,2.0;" x1="800.5" x2="1180.5" y1="725.6953" y2="725.6953"/><text fill="#000000" font-family="sans-serif" font-size="13" lengthAdjust="spacing" textLength="90" x="812.5" y="720.8389">200 OK (JSON)</text><polygon fill="#181818" points="582.5,752.0469,572.5,756.0469,582.5,760.0469,578.5,756.0469" style="stroke:#181818;stroke-width:1.0;"/><line style="stroke:#181818;stroke-width:1.0;stroke-dasharray:2.0,2.0;" x1="576.5" x2="794.5" y1="756.0469" y2="756.0469"/><text fill="#000000" font-family="sans-serif" font-size="13" lengthAdjust="spacing" textLength="137" x="588.5" y="751.1904">ExamenCalendarioDto[]</text><line style="stroke:#181818;stroke-width:1.0;" x1="571.5" x2="613.5" y1="786.3984" y2="786.3984"/><line style="stroke:#181818;stroke-width:1.0;" x1="613.5" x2="613.5" y1="786.3984" y2="799.3984"/><line style="stroke:#181818;stroke-width:1.0;" x1="572.5" x2="613.5" y1="799.3984" y2="799.3984"/><polygon fill="#181818" points="582.5,795.3984,572.5,799.3984,582.5,803.3984,578.5,799.3984" style="stroke:#181818;stroke-width:1.0;"/><text fill="#000000" font-family="sans-serif" font-size="13" lengthAdjust="spacing" textLength="210" x="578.5" y="781.542">Pre-agrupar por fecha en Map (O(N))</text><polygon fill="#181818" points="334.5,825.75,324.5,829.75,334.5,833.75,330.5,829.75" style="stroke:#181818;stroke-width:1.0;"/><line style="stroke:#181818;stroke-width:1.0;stroke-dasharray:2.0,2.0;" x1="328.5" x2="570.5" y1="829.75" y2="829.75"/><text fill="#000000" font-family="sans-serif" font-size="13" lengthAdjust="spacing" textLength="224" x="340.5" y="824.8936">Actualiza estado (calendario indexado)</text><polygon fill="#181818" points="42.5,856.1016,32.5,860.1016,42.5,864.1016,38.5,860.1016" style="stroke:#181818;stroke-width:1.0;"/><line style="stroke:#181818;stroke-width:1.0;stroke-dasharray:2.0,2.0;" x1="36.5" x2="322.5" y1="860.1016" y2="860.1016"/><text fill="#000000" font-family="sans-serif" font-size="13" lengthAdjust="spacing" textLength="268" x="48.5" y="855.2451">Renderiza rejilla (fecha, hora, asignatura, aula)</text><path d="M328,873.1016 L328,932.1016 L634,932.1016 L634,883.1016 L624,873.1016 L328,873.1016 " fill="#FEFFDD" style="stroke:#181818;stroke-width:0.5;"/><path d="M624,873.1016 L624,883.1016 L634,883.1016 L624,873.1016 " fill="#FEFFDD" style="stroke:#181818;stroke-width:0.5;"/><text fill="#000000" font-family="sans-serif" font-size="13" lengthAdjust="spacing" textLength="285" x="334" y="891.5967">Acciones disponibles (CALENDARIO_ABIERTO):</text><text fill="#000000" font-family="sans-serif" font-size="13" lengthAdjust="spacing" textLength="228" x="334" y="907.9482">- descargarCalendarioExamenes() (self)</text><text fill="#000000" font-family="sans-serif" font-size="13" lengthAdjust="spacing" textLength="228" x="334" y="924.2998">- completarConsulta() -&gt; vuelve al men&#250;</text><!--SRC=[XLLDSzD84BthLtHneAJ2Tc0FUr2PK9OZM6SJEzW63cHhgv7Qzf3nZ9aPnG7AFsP_mzwuve_H-h0acwIu-4FpNdVFUzqjUoFK1WskmQumrLkXbh10QScpzOaXkz7AqYLPYqkAIEhjm1Yz1MSoyZnCd3OmaDbQQOyfJYHYWyh1ao7JCkdG356IIj48_LxGzbhvKs9My0JGmhiHzFj3lUOSfDpfwM68p593Pk9VMj-KlFmNC_ElOnBTuPeKsHcPMv4GqmPtGjkIzxfwojpgrp4zhkXSlZDQIZ8SOKpMdS_A4Cr1KVh-pt6SgPPatsHeKZY1ym_pWbl-x_UBxySoDuMtqqQ_hVpA2Bl6wh3Wb4-OCPbUCZf5Xv_G4aErTKj3ixSNyEBF0deMULxf8dHFSrj2I7urq0_uChYH8a5O2CbNjnvZcL4O4eBKcBRW5IRmYcE6rVg7p5SFGci8mrjQX_0cdiF9tjsJfAQ-Mb2omf5Y8VJJulThePwY5Kk5BZCuIlCUoDnA6_4DdT0gX8ZGS53s9V2yLXREMNeKmYrAmV71wHjIy0mOuPLdtUFA37tfSQyQ-0vOQ3XAEpaUNbQJ0RkZ9D7lTEX0PhFy0TSNjHIfB0rXZSw899FOomDSelhgVuVjYWo5hJ9W1xl0gqXCFukOEeiluk4S6eLi4or5wp6esqxLblBZFtMqmskqewKagmeEYs_1UQzmHhKK1kZk_h_2Ky17Qs87IqQIYFl_5R2a9BDKV98KFAnFsIWjSQuLjFIfyy1eV92f0qKBGHJFFyJn67gz7kmwELceX5EMTCR2xbezgcrpfvJ0PlRWOiyA_YyonpN7Rz1LEHtWxkNFd1Wyui25i0xpV7Nojlh7FPkZ- -NAQRhlpEdJWquz7Da_dZ-7oT_Wdyycu_QWDlF_G43kc7hyAzILeIukJSRh2pRy-YWLvocxn0tu4tySx3V6VXSD4fVnF7vZ55yorU0tyy_6fEnsogEIxoAcL4CNmfGXb4yzzzjd8Taq_r3Ebiwbj9xIZi28vSg1Nd1o3pWvRvR2Iv6_3FEcOu-6WujuV3QOZYR_3g9HF9rFWf31NNR09cYMxRsvN-syFtrBSX4Km8JVUvBo1LjjMZxcwcypahV40mJCkV_XSGp8g_9-0W00]--></g></svg>