<?xml version="1.0" encoding="us-ascii" standalone="no"?><svg xmlns="http://www.w3.org/2000/svg" xmlns:xlink="http://www.w3.org/1999/xlink" contentStyleType="text/css" height="451px" preserveAspectRatio="none" style="width:796px;height:451px;background:#FFFFFF;" version="1.1" viewBox="0 0 796 451" width="796px" zoomAndPan="magnify"><defs/><g><!--cluster eliminarAsignatura--><g id="cluster_eliminarAsignatura"><path d="M8.5,6 L150.5,6 A3.75,3.75 0 0 1 153,8.5 L160,29.6094 L433.5,29.6094 A2.5,2.5 0 0 1 436,32.1094 L436,441.5 A2.5,2.5 0 0 1 433.5,444 L8.5,444 A2.5,2.5 0 0 1 6,441.5 L6,8.5 A2.5,2.5 0 0 1 8.5,6 " fill="none" style="stroke:#000000;stroke-width:1.5;"/><line style="stroke:#000000;stroke-width:1.5;" x1="6" x2="160" y1="29.6094" y2="29.6094"/><text fill="#000000" font-family="sans-serif" font-size="14" font-weight="bold" lengthAdjust="spacing" textLength="141" x="10" y="22.5332">eliminarAsignatura()</text></g><!--entity EliminarAsignaturaView--><g id="elem_EliminarAsignaturaView"><rect fill="#629EF9" height="37.6094" rx="2.5" ry="2.5" style="stroke:#181818;stroke-width:0.5;" width="167" x="252.5" y="42"/><text fill="#000000" font-family="sans-serif" font-size="14" lengthAdjust="spacing" textLength="147" x="262.5" y="66.5332">EliminarAsignaturaView</text></g><!--entity AsignaturaController--><g id="elem_AsignaturaController"><rect fill="#B5BD68" height="37.6094" rx="2.5" ry="2.5" style="stroke:#181818;stroke-width:0.5;" width="150" x="84" y="158"/><text fill="#000000" font-family="sans-serif" font-size="14" lengthAdjust="spacing" textLength="130" x="94" y="182.5332">AsignaturaController</text></g><!--entity AsignaturaRepository--><g id="elem_AsignaturaRepository"><rect fill="#F2AC4E" height="37.6094" rx="2.5" ry="2.5" style="stroke:#181818;stroke-width:0.5;" width="156" x="22" y="274"/><text fill="#000000" font-family="sans-serif" font-size="14" lengthAdjust="spacing" textLength="136" x="32" y="298.5332">AsignaturaRepository</text></g><!--entity ExamenRepository--><g id="elem_ExamenRepository"><rect fill="#F2AC4E" height="37.6094" rx="2.5" ry="2.5" style="stroke:#181818;stroke-width:0.5;" width="138" x="213" y="274"/><text fill="#000000" font-family="sans-serif" font-size="14" lengthAdjust="spacing" textLength="118" x="223" y="298.5332">ExamenRepository</text></g><!--entity Asignatura--><g id="elem_Asignatura"><rect fill="#F2AC4E" height="37.6094" rx="2.5" ry="2.5" style="stroke:#181818;stroke-width:0.5;" width="88" x="56" y="390"/><text fill="#000000" font-family="sans-serif" font-size="14" lengthAdjust="spacing" textLength="68" x="66" y="414.5332">Asignatura</text></g><!--entity AsignaturasAbierto--><g id="elem_AsignaturasAbierto"><rect fill="#CDEBA5" height="37.6094" rx="2.5" ry="2.5" style="stroke:#181818;stroke-width:0.5;" width="148" x="611" y="158"/><text fill="#000000" font-family="sans-serif" font-size="14" lengthAdjust="spacing" textLength="128" x="621" y="182.5332">:Asignaturas Abierto</text></g><!--link AsignaturasAbierto to EliminarAsignaturaView--><g id="link_AsignaturasAbierto_EliminarAsignaturaView"><path d="M610.96,160.55 C543.72,146.52 455,128 455,128 C455,128 408.9963,102.4913 373.7663,82.9413 " fill="none" id="AsignaturasAbierto-to-EliminarAsignaturaView" style="stroke:#181818;stroke-width:1.0;"/><polygon fill="#181818" points="368.52,80.03,374.4486,87.8946,372.892,82.4561,378.3304,80.8994,368.52,80.03" style="stroke:#181818;stroke-width:1.0;"/><text fill="#000000" font-family="sans-serif" font-size="13" lengthAdjust="spacing" textLength="185" x="456" y="124.4951">eliminarAsignatura(asignaturaId)</text></g><!--link EliminarAsignaturaView to AsignaturasAbierto--><g id="link_EliminarAsignaturaView_AsignaturasAbierto"><path d="M419.89,74.99 C511.7,89.2 646,110 646,110 C646,110 659.75,133.253 671.29,152.803 " fill="none" id="EliminarAsignaturaView-to-AsignaturasAbierto" style="stroke:#181818;stroke-width:1.0;stroke-dasharray:7.0,7.0;"/><polygon fill="#181818" points="674.34,157.97,673.2097,148.1862,671.7984,153.6642,666.3204,152.2528,674.34,157.97" style="stroke:#181818;stroke-width:1.0;"/><text fill="#000000" font-family="sans-serif" font-size="13" lengthAdjust="spacing" textLength="58" x="657" y="124.4951">&#171;finalizar&#187;</text></g><!--link EliminarAsignaturaView to AsignaturasAbierto--><g id="link_EliminarAsignaturaView_AsignaturasAbierto"><path d="M419.71,72.36 C533.77,86.47 724,110 724,110 C724,110 724,128 724,128 C724,128 714.5752,139.6047 703.5252,153.1947 " fill="none" id="EliminarAsignaturaView-to-AsignaturasAbierto-1" style="stroke:#181818;stroke-width:1.0;stroke-dasharray:7.0,7.0;"/><polygon fill="#181818" points="699.74,157.85,708.5214,153.3905,702.8944,153.9706,702.3143,148.3435,699.74,157.85" style="stroke:#181818;stroke-width:1.0;"/><text fill="#000000" font-family="sans-serif" font-size="13" lengthAdjust="spacing" textLength="63" x="725" y="124.4951">&#171;cancelar&#187;</text></g><!--link EliminarAsignaturaView to AsignaturaController--><g id="link_EliminarAsignaturaView_AsignaturaController"><path d="M252.15,76.27 C169.03,90.42 54,110 54,110 C54,110 54,128 54,128 C54,128 84.3533,141.8752 114.1433,155.4952 " fill="none" id="EliminarAsignaturaView-to-AsignaturaController" style="stroke:#181818;stroke-width:1.0;"/><polygon fill="#181818" points="119.6,157.99,113.0781,150.61,115.0527,155.911,109.7517,157.8856,119.6,157.99" style="stroke:#181818;stroke-width:1.0;"/><text fill="#000000" font-family="sans-serif" font-size="13" lengthAdjust="spacing" textLength="198" x="55" y="124.4951">confirmarEliminacion(asignaturaId)</text></g><!--link AsignaturaController to EliminarAsignaturaView--><g id="link_AsignaturaController_EliminarAsignaturaView"><path d="M196.15,157.99 C224.24,144.37 258,128 258,128 C258,128 287.0101,103.4561 310.1101,83.9061 " fill="none" id="AsignaturaController-to-EliminarAsignaturaView" style="stroke:#181818;stroke-width:1.0;"/><polygon fill="#181818" points="314.69,80.03,305.236,82.7909,310.8734,83.2601,310.4042,88.8974,314.69,80.03" style="stroke:#181818;stroke-width:1.0;"/><text fill="#000000" font-family="sans-serif" font-size="13" lengthAdjust="spacing" textLength="119" x="280" y="124.4951">mostrarAdvertencia()</text></g><!--link AsignaturaController to ExamenRepository--><g id="link_AsignaturaController_ExamenRepository"><path d="M178.49,196.06 C201.39,217.28 234.759,248.2219 257.789,269.5619 " fill="none" id="AsignaturaController-to-ExamenRepository" style="stroke:#181818;stroke-width:1.0;"/><polygon fill="#181818" points="262.19,273.64,258.3072,264.5888,258.5225,270.2416,252.8697,270.4569,262.19,273.64" style="stroke:#181818;stroke-width:1.0;"/><text fill="#000000" font-family="sans-serif" font-size="13" lengthAdjust="spacing" textLength="196" x="229" y="240.4951">contarPorAsignatura(asignaturaId)</text></g><!--link AsignaturaController to AsignaturaRepository--><g id="link_AsignaturaController_AsignaturaRepository"><path d="M119.6,196.01 C89.81,209.63 54,226 54,226 C54,226 54,244 54,244 C54,244 65.4275,255.9291 78.4575,269.5191 " fill="none" id="AsignaturaController-to-AsignaturaRepository" style="stroke:#181818;stroke-width:1.0;"/><polygon fill="#181818" points="82.61,273.85,79.2686,264.5853,79.1496,270.2409,73.494,270.1219,82.61,273.85" style="stroke:#181818;stroke-width:1.0;"/><text fill="#000000" font-family="sans-serif" font-size="13" lengthAdjust="spacing" textLength="123" x="55" y="240.4951">eliminar(asignaturaId)</text></g><!--link AsignaturaRepository to Asignatura--><g id="link_AsignaturaRepository_Asignatura"><path d="M100,312.06 C100,333.28 100,362.3 100,383.64 " fill="none" id="AsignaturaRepository-to-Asignatura" style="stroke:#181818;stroke-width:1.0;"/><polygon fill="#181818" points="100,389.64,104,380.64,100,384.64,96,380.64,100,389.64" style="stroke:#181818;stroke-width:1.0;"/><text fill="#000000" font-family="sans-serif" font-size="13" lengthAdjust="spacing" textLength="55" x="101" y="356.4951">&#171;elimina&#187;</text></g><!--SRC=[bP8_JyCm4CLtVmehBEtG3XMjQ5L52Y6Ls103-yMvHbOTExgOFm7ntN52HK8I5-79FhtVyzspgvFK9H0KN4cDjYwHbqRLpO4nGc51vmhvLNoNt4Ph7koYIkOQx3D1nQDK8baJy6RVrSzbnaeG9yYHevA5r42TfY62SNas3_W7usxrhjwijibXovEH-adYwr2ShjDiSzFh9ZRQab4AQIWzhABuEkb97x4qbRI6QeyqUOC2zP-opf5zCZOEXYyMeMSSlfi8QmO_s_jipfW7RLodvdQUmkYZf0BeZ0ffzD1r4cqx7KpzxMU17io59lrsli4BKrbozUp5XOHQIFSTBlXClLilFdy_FVbl7qVlzsS-3BqvBvVXn6zluQEJA_aEvF3_qmAqGDN2Nm00]--></g></svg>