<?xml version="1.0" encoding="us-ascii" standalone="no"?><svg xmlns="http://www.w3.org/2000/svg" xmlns:xlink="http://www.w3.org/1999/xlink" contentStyleType="text/css" height="716px" preserveAspectRatio="none" style="width:1334px;height:716px;background:#FFFFFF;" version="1.1" viewBox="0 0 1334 716" width="1334px" zoomAndPan="magnify"><defs/><g><rect fill="none" height="183.5938" style="stroke:#000000;stroke-width:1.5;" width="340.5" x="988" y="281.7188"/><rect fill="none" height="107.8906" style="stroke:#000000;stroke-width:1.5;" width="320.5" x="998" y="350.4219"/><line style="stroke:#181818;stroke-width:0.5;stroke-dasharray:5.0,5.0;" x1="51" x2="51" y1="82.6094" y2="634.0703"/><line style="stroke:#181818;stroke-width:0.5;stroke-dasharray:5.0,5.0;" x1="265.5" x2="265.5" y1="82.6094" y2="634.0703"/><line style="stroke:#181818;stroke-width:0.5;stroke-dasharray:5.0,5.0;" x1="458" x2="458" y1="82.6094" y2="634.0703"/><line style="stroke:#181818;stroke-width:0.5;stroke-dasharray:5.0,5.0;" x1="612" x2="612" y1="82.6094" y2="634.0703"/><line style="stroke:#181818;stroke-width:0.5;stroke-dasharray:5.0,5.0;" x1="912.5" x2="912.5" y1="82.6094" y2="634.0703"/><line style="stroke:#181818;stroke-width:0.5;stroke-dasharray:5.0,5.0;" x1="1076" x2="1076" y1="82.6094" y2="634.0703"/><line style="stroke:#181818;stroke-width:0.5;stroke-dasharray:5.0,5.0;" x1="1266.5" x2="1266.5" y1="82.6094" y2="634.0703"/><text fill="#000000" font-family="sans-serif" font-size="14" lengthAdjust="spacing" textLength="87" x="5" y="79.5332">Administrador</text><ellipse cx="51.5" cy="13.5" fill="#E2E2F0" rx="8" ry="8" style="stroke:#181818;stroke-width:0.5;"/><path d="M51.5,21.5 L51.5,48.5 M38.5,29.5 L64.5,29.5 M51.5,48.5 L38.5,63.5 M51.5,48.5 L64.5,63.5 " fill="none" style="stroke:#181818;stroke-width:0.5;"/><text fill="#000000" font-family="sans-serif" font-size="14" lengthAdjust="spacing" textLength="87" x="5" y="647.6035">Administrador</text><ellipse cx="51.5" cy="659.1797" fill="#E2E2F0" rx="8" ry="8" style="stroke:#181818;stroke-width:0.5;"/><path d="M51.5,667.1797 L51.5,694.1797 M38.5,675.1797 L64.5,675.1797 M51.5,694.1797 L38.5,709.1797 M51.5,694.1797 L64.5,709.1797 " fill="none" style="stroke:#181818;stroke-width:0.5;"/><rect fill="#E2E2F0" height="66.8281" rx="2.5" ry="2.5" style="stroke:#181818;stroke-width:0.5;" width="168" x="181.5" y="14.7813"/><text fill="#000000" font-family="sans-serif" font-size="14" font-style="italic" lengthAdjust="spacing" textLength="89" x="221" y="36.3145">&#171;Component&#187;</text><text fill="#000000" font-family="sans-serif" font-size="14" lengthAdjust="spacing" textLength="154" x="188.5" y="53.9238">ImportAsignaturasDialog</text><text fill="#000000" font-family="sans-serif" font-size="14" lengthAdjust="spacing" textLength="47" x="242" y="71.5332">(React)</text><rect fill="#E2E2F0" height="66.8281" rx="2.5" ry="2.5" style="stroke:#181818;stroke-width:0.5;" width="168" x="181.5" y="633.0703"/><text fill="#000000" font-family="sans-serif" font-size="14" font-style="italic" lengthAdjust="spacing" textLength="89" x="221" y="654.6035">&#171;Component&#187;</text><text fill="#000000" font-family="sans-serif" font-size="14" lengthAdjust="spacing" textLength="154" x="188.5" y="672.2129">ImportAsignaturasDialog</text><text fill="#000000" font-family="sans-serif" font-size="14" lengthAdjust="spacing" textLength="47" x="242" y="689.8223">(React)</text><rect fill="#E2E2F0" height="66.8281" rx="2.5" ry="2.5" style="stroke:#181818;stroke-width:0.5;" width="151" x="383" y="14.7813"/><text fill="#000000" font-family="sans-serif" font-size="14" font-style="italic" lengthAdjust="spacing" textLength="50" x="433.5" y="36.3145">&#171;Hook&#187;</text><text fill="#000000" font-family="sans-serif" font-size="14" lengthAdjust="spacing" textLength="137" x="390" y="53.9238">useAsignaturasImport</text><text fill="#000000" font-family="sans-serif" font-size="14" lengthAdjust="spacing" textLength="42" x="437.5" y="71.5332">(Hook)</text><rect fill="#E2E2F0" height="66.8281" rx="2.5" ry="2.5" style="stroke:#181818;stroke-width:0.5;" width="151" x="383" y="633.0703"/><text fill="#000000" font-family="sans-serif" font-size="14" font-style="italic" lengthAdjust="spacing" textLength="50" x="433.5" y="654.6035">&#171;Hook&#187;</text><text fill="#000000" font-family="sans-serif" font-size="14" lengthAdjust="spacing" textLength="137" x="390" y="672.2129">useAsignaturasImport</text><text fill="#000000" font-family="sans-serif" font-size="14" lengthAdjust="spacing" textLength="42" x="437.5" y="689.8223">(Hook)</text><rect fill="#E2E2F0" height="66.8281" rx="2.5" ry="2.5" style="stroke:#181818;stroke-width:0.5;" width="136" x="544" y="14.7813"/><text fill="#000000" font-family="sans-serif" font-size="14" font-style="italic" lengthAdjust="spacing" textLength="62" x="581" y="36.3145">&#171;Service&#187;</text><text fill="#000000" font-family="sans-serif" font-size="14" lengthAdjust="spacing" textLength="122" x="551" y="53.9238">AsignaturasService</text><text fill="#000000" font-family="sans-serif" font-size="14" lengthAdjust="spacing" textLength="43" x="590.5" y="71.5332">(Axios)</text><rect fill="#E2E2F0" height="66.8281" rx="2.5" ry="2.5" style="stroke:#181818;stroke-width:0.5;" width="136" x="544" y="633.0703"/><text fill="#000000" font-family="sans-serif" font-size="14" font-style="italic" lengthAdjust="spacing" textLength="62" x="581" y="654.6035">&#171;Service&#187;</text><text fill="#000000" font-family="sans-serif" font-size="14" lengthAdjust="spacing" textLength="122" x="551" y="672.2129">AsignaturasService</text><text fill="#000000" font-family="sans-serif" font-size="14" lengthAdjust="spacing" textLength="43" x="590.5" y="689.8223">(Axios)</text><rect fill="#E2E2F0" height="66.8281" rx="2.5" ry="2.5" style="stroke:#181818;stroke-width:0.5;" width="151" x="837.5" y="14.7813"/><text fill="#000000" font-family="sans-serif" font-size="14" font-style="italic" lengthAdjust="spacing" textLength="78" x="874" y="36.3145">&#171;Controller&#187;</text><text fill="#000000" font-family="sans-serif" font-size="14" lengthAdjust="spacing" textLength="137" x="844.5" y="53.9238">AsignaturasController</text><text fill="#000000" font-family="sans-serif" font-size="14" lengthAdjust="spacing" textLength="53" x="886.5" y="71.5332">(NestJS)</text><rect fill="#E2E2F0" height="66.8281" rx="2.5" ry="2.5" style="stroke:#181818;stroke-width:0.5;" width="151" x="837.5" y="633.0703"/><text fill="#000000" font-family="sans-serif" font-size="14" font-style="italic" lengthAdjust="spacing" textLength="78" x="874" y="654.6035">&#171;Controller&#187;</text><text fill="#000000" font-family="sans-serif" font-size="14" lengthAdjust="spacing" textLength="137" x="844.5" y="672.2129">AsignaturasController</text><text fill="#000000" font-family="sans-serif" font-size="14" lengthAdjust="spacing" textLength="53" x="886.5" y="689.8223">(NestJS)</text><rect fill="#E2E2F0" height="66.8281" rx="2.5" ry="2.5" style="stroke:#181818;stroke-width:0.5;" width="136" x="1008" y="14.7813"/><text fill="#000000" font-family="sans-serif" font-size="14" font-style="italic" lengthAdjust="spacing" textLength="62" x="1045" y="36.3145">&#171;Service&#187;</text><text fill="#000000" font-family="sans-serif" font-size="14" lengthAdjust="spacing" textLength="122" x="1015" y="53.9238">AsignaturasService</text><text fill="#000000" font-family="sans-serif" font-size="14" lengthAdjust="spacing" textLength="53" x="1049.5" y="71.5332">(NestJS)</text><rect fill="#E2E2F0" height="66.8281" rx="2.5" ry="2.5" style="stroke:#181818;stroke-width:0.5;" width="136" x="1008" y="633.0703"/><text fill="#000000" font-family="sans-serif" font-size="14" font-style="italic" lengthAdjust="spacing" textLength="62" x="1045" y="654.6035">&#171;Service&#187;</text><text fill="#000000" font-family="sans-serif" font-size="14" lengthAdjust="spacing" textLength="122" x="1015" y="672.2129">AsignaturasService</text><text fill="#000000" font-family="sans-serif" font-size="14" lengthAdjust="spacing" textLength="53" x="1049.5" y="689.8223">(NestJS)</text><text fill="#000000" font-family="sans-serif" font-size="14" lengthAdjust="spacing" textLength="77" x="1225.5" y="79.5332">PostgreSQL</text><path d="M1249,29 C1249,19 1267,19 1267,19 C1267,19 1285,19 1285,29 L1285,55 C1285,65 1267,65 1267,65 C1267,65 1249,65 1249,55 L1249,29 " fill="#E2E2F0" style="stroke:#181818;stroke-width:1.5;"/><path d="M1249,29 C1249,39 1267,39 1267,39 C1267,39 1285,39 1285,29 " fill="none" style="stroke:#181818;stroke-width:1.5;"/><text fill="#000000" font-family="sans-serif" font-size="14" lengthAdjust="spacing" textLength="77" x="1225.5" y="647.6035">PostgreSQL</text><path d="M1249,660.6797 C1249,650.6797 1267,650.6797 1267,650.6797 C1267,650.6797 1285,650.6797 1285,660.6797 L1285,686.6797 C1285,696.6797 1267,696.6797 1267,696.6797 C1267,696.6797 1249,696.6797 1249,686.6797 L1249,660.6797 " fill="#E2E2F0" style="stroke:#181818;stroke-width:1.5;"/><path d="M1249,660.6797 C1249,670.6797 1267,670.6797 1267,670.6797 C1267,670.6797 1285,670.6797 1285,660.6797 " fill="none" style="stroke:#181818;stroke-width:1.5;"/><polygon fill="#181818" points="253.5,110.9609,263.5,114.9609,253.5,118.9609,257.5,114.9609" style="stroke:#181818;stroke-width:1.0;"/><line style="stroke:#181818;stroke-width:1.0;" x1="51.5" x2="259.5" y1="114.9609" y2="114.9609"/><text fill="#000000" font-family="sans-serif" font-size="13" lengthAdjust="spacing" textLength="184" x="58.5" y="110.1045">Selecciona archivo (CSV/Excel)</text><polygon fill="#181818" points="253.5,141.3125,263.5,145.3125,253.5,149.3125,257.5,145.3125" style="stroke:#181818;stroke-width:1.0;"/><line style="stroke:#181818;stroke-width:1.0;" x1="51.5" x2="259.5" y1="145.3125" y2="145.3125"/><text fill="#000000" font-family="sans-serif" font-size="13" lengthAdjust="spacing" textLength="108" x="58.5" y="140.4561">Click en "Importar"</text><polygon fill="#181818" points="446.5,171.6641,456.5,175.6641,446.5,179.6641,450.5,175.6641" style="stroke:#181818;stroke-width:1.0;"/><line style="stroke:#181818;stroke-width:1.0;" x1="265.5" x2="452.5" y1="175.6641" y2="175.6641"/><text fill="#000000" font-family="sans-serif" font-size="13" lengthAdjust="spacing" textLength="129" x="272.5" y="170.8076">importAsignaturas(file)</text><polygon fill="#181818" points="600,202.0156,610,206.0156,600,210.0156,604,206.0156" style="stroke:#181818;stroke-width:1.0;"/><line style="stroke:#181818;stroke-width:1.0;" x1="458.5" x2="606" y1="206.0156" y2="206.0156"/><text fill="#000000" font-family="sans-serif" font-size="13" lengthAdjust="spacing" textLength="129" x="465.5" y="201.1592">importAsignaturas(file)</text><polygon fill="#181818" points="901,232.3672,911,236.3672,901,240.3672,905,236.3672" style="stroke:#181818;stroke-width:1.0;"/><line style="stroke:#181818;stroke-width:1.0;" x1="612" x2="907" y1="236.3672" y2="236.3672"/><text fill="#000000" font-family="sans-serif" font-size="13" lengthAdjust="spacing" textLength="277" x="619" y="231.5107">POST /asignaturas/import (Multipart/Form-Data)</text><polygon fill="#181818" points="1064,262.7188,1074,266.7188,1064,270.7188,1068,266.7188" style="stroke:#181818;stroke-width:1.0;"/><line style="stroke:#181818;stroke-width:1.0;" x1="913" x2="1070" y1="266.7188" y2="266.7188"/><text fill="#000000" font-family="sans-serif" font-size="13" lengthAdjust="spacing" textLength="139" x="920" y="261.8623">processImport(fileBuffer)</text><path d="M988,281.7188 L1061,281.7188 L1061,290.0703 L1051,300.0703 L988,300.0703 L988,281.7188 " fill="#EEEEEE" style="stroke:#000000;stroke-width:1.5;"/><rect fill="none" height="183.5938" style="stroke:#000000;stroke-width:1.5;" width="340.5" x="988" y="281.7188"/><text fill="#000000" font-family="sans-serif" font-size="13" font-weight="bold" lengthAdjust="spacing" textLength="28" x="1003" y="296.2139">loop</text><text fill="#000000" font-family="sans-serif" font-size="11" font-weight="bold" lengthAdjust="spacing" textLength="137" x="1076" y="295.1377">[Por cada fila del archivo]</text><line style="stroke:#181818;stroke-width:1.0;" x1="1076" x2="1118" y1="322.4219" y2="322.4219"/><line style="stroke:#181818;stroke-width:1.0;" x1="1118" x2="1118" y1="322.4219" y2="335.4219"/><line style="stroke:#181818;stroke-width:1.0;" x1="1077" x2="1118" y1="335.4219" y2="335.4219"/><polygon fill="#181818" points="1087,331.4219,1077,335.4219,1087,339.4219,1083,335.4219" style="stroke:#181818;stroke-width:1.0;"/><text fill="#000000" font-family="sans-serif" font-size="13" lengthAdjust="spacing" textLength="76" x="1083" y="317.5654">Validar datos</text><path d="M998,350.4219 L1059,350.4219 L1059,358.7734 L1049,368.7734 L998,368.7734 L998,350.4219 " fill="#EEEEEE" style="stroke:#000000;stroke-width:1.5;"/><rect fill="none" height="107.8906" style="stroke:#000000;stroke-width:1.5;" width="320.5" x="998" y="350.4219"/><text fill="#000000" font-family="sans-serif" font-size="13" font-weight="bold" lengthAdjust="spacing" textLength="16" x="1013" y="364.917">alt</text><text fill="#000000" font-family="sans-serif" font-size="11" font-weight="bold" lengthAdjust="spacing" textLength="81" x="1074" y="363.8408">[Datos v&#225;lidos]</text><polygon fill="#181818" points="1255,387.125,1265,391.125,1255,395.125,1259,391.125" style="stroke:#181818;stroke-width:1.0;"/><line style="stroke:#181818;stroke-width:1.0;" x1="1076" x2="1261" y1="391.125" y2="391.125"/><text fill="#000000" font-family="sans-serif" font-size="13" lengthAdjust="spacing" textLength="167" x="1083" y="386.2686">INSERT INTO asignatura (...)</text><line style="stroke:#000000;stroke-width:1.0;stroke-dasharray:2.0,2.0;" x1="998" x2="1318.5" y1="400.125" y2="400.125"/><text fill="#000000" font-family="sans-serif" font-size="11" font-weight="bold" lengthAdjust="spacing" textLength="91" x="1003" y="411.5439">[Datos inv&#225;lidos]</text><line style="stroke:#181818;stroke-width:1.0;" x1="1076" x2="1118" y1="437.3125" y2="437.3125"/><line style="stroke:#181818;stroke-width:1.0;" x1="1118" x2="1118" y1="437.3125" y2="450.3125"/><line style="stroke:#181818;stroke-width:1.0;" x1="1077" x2="1118" y1="450.3125" y2="450.3125"/><polygon fill="#181818" points="1087,446.3125,1077,450.3125,1087,454.3125,1083,450.3125" style="stroke:#181818;stroke-width:1.0;"/><text fill="#000000" font-family="sans-serif" font-size="13" lengthAdjust="spacing" textLength="82" x="1083" y="432.4561">Registrar error</text><polygon fill="#181818" points="924,490.6641,914,494.6641,924,498.6641,920,494.6641" style="stroke:#181818;stroke-width:1.0;"/><line style="stroke:#181818;stroke-width:1.0;stroke-dasharray:2.0,2.0;" x1="918" x2="1075" y1="494.6641" y2="494.6641"/><text fill="#000000" font-family="sans-serif" font-size="13" lengthAdjust="spacing" textLength="99" x="930" y="489.8076">ImportResultDTO</text><polygon fill="#181818" points="623,521.0156,613,525.0156,623,529.0156,619,525.0156" style="stroke:#181818;stroke-width:1.0;"/><line style="stroke:#181818;stroke-width:1.0;stroke-dasharray:2.0,2.0;" x1="617" x2="912" y1="525.0156" y2="525.0156"/><text fill="#000000" font-family="sans-serif" font-size="13" lengthAdjust="spacing" textLength="96" x="629" y="520.1592">JSON Response</text><polygon fill="#181818" points="469.5,551.3672,459.5,555.3672,469.5,559.3672,465.5,555.3672" style="stroke:#181818;stroke-width:1.0;"/><line style="stroke:#181818;stroke-width:1.0;stroke-dasharray:2.0,2.0;" x1="463.5" x2="611" y1="555.3672" y2="555.3672"/><text fill="#000000" font-family="sans-serif" font-size="13" lengthAdjust="spacing" textLength="99" x="475.5" y="550.5107">ImportResultDTO</text><polygon fill="#181818" points="276.5,581.7188,266.5,585.7188,276.5,589.7188,272.5,585.7188" style="stroke:#181818;stroke-width:1.0;"/><line style="stroke:#181818;stroke-width:1.0;stroke-dasharray:2.0,2.0;" x1="270.5" x2="457.5" y1="585.7188" y2="585.7188"/><text fill="#000000" font-family="sans-serif" font-size="13" lengthAdjust="spacing" textLength="169" x="282.5" y="580.8623">Actualiza estado (resultados)</text><polygon fill="#181818" points="62.5,612.0703,52.5,616.0703,62.5,620.0703,58.5,616.0703" style="stroke:#181818;stroke-width:1.0;"/><line style="stroke:#181818;stroke-width:1.0;stroke-dasharray:2.0,2.0;" x1="56.5" x2="264.5" y1="616.0703" y2="616.0703"/><text fill="#000000" font-family="sans-serif" font-size="13" lengthAdjust="spacing" textLength="190" x="68.5" y="611.2139">Muestra resumen de importaci&#243;n</text><!--SRC=[ZLF1Rk8m4BtxAqQSaaFXZYeaGefAjGMMi3trCkiCrCBOo7ROQlzcls4_eJ-s4oUKWBPL8qMnC-yzss-U_KwP0phSWt_1qlvIPWiRr9w4G1ciWt6vLqRvuBZg14E3akg09a1ljZzO5yPURGs6og7F5MgxVJR9YfYSzW0z_9Z1xUt4CjIG2QFHfKJbgSDl19b_R-skeTSZ5gW_rzmEiI1tL9AOENvLrZVKQVkNwUte4uM9DS5PhScno9nyU2WQbNCXdkCq-T9ckZhP_tPJOi2Vw0bwI-l3rb7n_Lj4vvaG5yx3pQYsSWW5QP9IMOE0JhweeuLaKZmDxbubwVG3qaGhkGCofvwXwmd15Qv7WuUWhdkPR9IcLCGomzxD_1Zw3c5unxKXB1V56WPu9WmQ2KWUAnrKxUDWQjt-9cSxKY4wP9RApYiVd9NasvZ4LRDgio7776tj0PPyP8ab0fSGIj8dYmJmatNsrn5zGgrATC2zi3u2KGV8wnaSt_vmiVrzhP5dp9xDYxlLcZ_h1PnF24c_tqyZY_WkjMhAVAhNsTEAjh673iWvldPHo9IYViMPSsrqOyoAFDkQhnSNHbxsyA5Op7aLpxUIh_gqgzW6ubgh2S8fK6CPAlRjDm97dAC6YOj87leq9ekHbraSmcD5zGHgw9x3M5AR9PJgxQyH_m00]--></g></svg>