<?xml version="1.0" encoding="us-ascii" standalone="no"?><svg xmlns="http://www.w3.org/2000/svg" xmlns:xlink="http://www.w3.org/1999/xlink" contentStyleType="text/css" height="969px" preserveAspectRatio="none" style="width:1321px;height:969px;background:#FFFFFF;" version="1.1" viewBox="0 0 1321 969" width="1321px" zoomAndPan="magnify"><defs/><g><rect fill="none" height="424.4063" style="stroke:#000000;stroke-width:1.5;" width="1091" x="10" y="446.4766"/><line style="stroke:#181818;stroke-width:0.5;stroke-dasharray:5.0,5.0;" x1="46" x2="46" y1="82.6094" y2="887.8828"/><line style="stroke:#181818;stroke-width:0.5;stroke-dasharray:5.0,5.0;" x1="248" x2="248" y1="82.6094" y2="887.8828"/><line style="stroke:#181818;stroke-width:0.5;stroke-dasharray:5.0,5.0;" x1="379" x2="379" y1="82.6094" y2="887.8828"/><line style="stroke:#181818;stroke-width:0.5;stroke-dasharray:5.0,5.0;" x1="544.5" x2="544.5" y1="82.6094" y2="887.8828"/><line style="stroke:#181818;stroke-width:0.5;stroke-dasharray:5.0,5.0;" x1="742" x2="742" y1="82.6094" y2="887.8828"/><line style="stroke:#181818;stroke-width:0.5;stroke-dasharray:5.0,5.0;" x1="907" x2="907" y1="82.6094" y2="887.8828"/><line style="stroke:#181818;stroke-width:0.5;stroke-dasharray:5.0,5.0;" x1="1095.5" x2="1095.5" y1="82.6094" y2="887.8828"/><line style="stroke:#181818;stroke-width:0.5;stroke-dasharray:5.0,5.0;" x1="1278.5" x2="1278.5" y1="82.6094" y2="887.8828"/><text fill="#000000" font-family="sans-serif" font-size="14" lengthAdjust="spacing" textLength="47" x="20" y="79.5332">Alumno</text><ellipse cx="46.5" cy="13.5" fill="#E2E2F0" rx="8" ry="8" style="stroke:#181818;stroke-width:0.5;"/><path d="M46.5,21.5 L46.5,48.5 M33.5,29.5 L59.5,29.5 M46.5,48.5 L33.5,63.5 M46.5,48.5 L59.5,63.5 " fill="none" style="stroke:#181818;stroke-width:0.5;"/><text fill="#000000" font-family="sans-serif" font-size="14" lengthAdjust="spacing" textLength="47" x="20" y="901.416">Alumno</text><ellipse cx="46.5" cy="912.9922" fill="#E2E2F0" rx="8" ry="8" style="stroke:#181818;stroke-width:0.5;"/><path d="M46.5,920.9922 L46.5,947.9922 M33.5,928.9922 L59.5,928.9922 M46.5,947.9922 L33.5,962.9922 M46.5,947.9922 L59.5,962.9922 " fill="none" style="stroke:#181818;stroke-width:0.5;"/><rect fill="#E2E2F0" height="31.6094" rx="2.5" ry="2.5" style="stroke:#181818;stroke-width:0.5;" width="129" x="184" y="50"/><text fill="#000000" font-family="sans-serif" font-size="14" lengthAdjust="spacing" textLength="115" x="191" y="71.5332">LoginView (React)</text><rect fill="#E2E2F0" height="31.6094" rx="2.5" ry="2.5" style="stroke:#181818;stroke-width:0.5;" width="129" x="184" y="886.8828"/><text fill="#000000" font-family="sans-serif" font-size="14" lengthAdjust="spacing" textLength="115" x="191" y="908.416">LoginView (React)</text><rect fill="#E2E2F0" height="31.6094" rx="2.5" ry="2.5" style="stroke:#181818;stroke-width:0.5;" width="112" x="323" y="50"/><text fill="#000000" font-family="sans-serif" font-size="14" lengthAdjust="spacing" textLength="98" x="330" y="71.5332">useAuth (Hook)</text><rect fill="#E2E2F0" height="31.6094" rx="2.5" ry="2.5" style="stroke:#181818;stroke-width:0.5;" width="112" x="323" y="886.8828"/><text fill="#000000" font-family="sans-serif" font-size="14" lengthAdjust="spacing" textLength="98" x="330" y="908.416">useAuth (Hook)</text><rect fill="#E2E2F0" height="31.6094" rx="2.5" ry="2.5" style="stroke:#181818;stroke-width:0.5;" width="137" x="476.5" y="50"/><text fill="#000000" font-family="sans-serif" font-size="14" lengthAdjust="spacing" textLength="123" x="483.5" y="71.5332">AuthService (Axios)</text><rect fill="#E2E2F0" height="31.6094" rx="2.5" ry="2.5" style="stroke:#181818;stroke-width:0.5;" width="137" x="476.5" y="886.8828"/><text fill="#000000" font-family="sans-serif" font-size="14" lengthAdjust="spacing" textLength="123" x="483.5" y="908.416">AuthService (Axios)</text><rect fill="#E2E2F0" height="31.6094" rx="2.5" ry="2.5" style="stroke:#181818;stroke-width:0.5;" width="162" x="661" y="50"/><text fill="#000000" font-family="sans-serif" font-size="14" lengthAdjust="spacing" textLength="148" x="668" y="71.5332">AuthController (NestJS)</text><rect fill="#E2E2F0" height="31.6094" rx="2.5" ry="2.5" style="stroke:#181818;stroke-width:0.5;" width="162" x="661" y="886.8828"/><text fill="#000000" font-family="sans-serif" font-size="14" lengthAdjust="spacing" textLength="148" x="668" y="908.416">AuthController (NestJS)</text><rect fill="#E2E2F0" height="31.6094" rx="2.5" ry="2.5" style="stroke:#181818;stroke-width:0.5;" width="138" x="838" y="50"/><text fill="#000000" font-family="sans-serif" font-size="14" lengthAdjust="spacing" textLength="124" x="845" y="71.5332">AuthService (Logic)</text><rect fill="#E2E2F0" height="31.6094" rx="2.5" ry="2.5" style="stroke:#181818;stroke-width:0.5;" width="138" x="838" y="886.8828"/><text fill="#000000" font-family="sans-serif" font-size="14" lengthAdjust="spacing" textLength="124" x="845" y="908.416">AuthService (Logic)</text><rect fill="#E2E2F0" height="31.6094" rx="2.5" ry="2.5" style="stroke:#181818;stroke-width:0.5;" width="97" x="1047.5" y="50"/><text fill="#000000" font-family="sans-serif" font-size="14" lengthAdjust="spacing" textLength="83" x="1054.5" y="71.5332">UsersService</text><rect fill="#E2E2F0" height="31.6094" rx="2.5" ry="2.5" style="stroke:#181818;stroke-width:0.5;" width="97" x="1047.5" y="886.8828"/><text fill="#000000" font-family="sans-serif" font-size="14" lengthAdjust="spacing" textLength="83" x="1054.5" y="908.416">UsersService</text><text fill="#000000" font-family="sans-serif" font-size="14" lengthAdjust="spacing" textLength="77" x="1237.5" y="79.5332">PostgreSQL</text><path d="M1261,29 C1261,19 1279,19 1279,19 C1279,19 1297,19 1297,29 L1297,55 C1297,65 1279,65 1279,65 C1279,65 1261,65 1261,55 L1261,29 " fill="#E2E2F0" style="stroke:#181818;stroke-width:1.5;"/><path d="M1261,29 C1261,39 1279,39 1279,39 C1279,39 1297,39 1297,29 " fill="none" style="stroke:#181818;stroke-width:1.5;"/><text fill="#000000" font-family="sans-serif" font-size="14" lengthAdjust="spacing" textLength="77" x="1237.5" y="901.416">PostgreSQL</text><path d="M1261,914.4922 C1261,904.4922 1279,904.4922 1279,904.4922 C1279,904.4922 1297,904.4922 1297,914.4922 L1297,940.4922 C1297,950.4922 1279,950.4922 1279,950.4922 C1279,950.4922 1261,950.4922 1261,940.4922 L1261,914.4922 " fill="#E2E2F0" style="stroke:#181818;stroke-width:1.5;"/><path d="M1261,914.4922 C1261,924.4922 1279,924.4922 1279,924.4922 C1279,924.4922 1297,924.4922 1297,914.4922 " fill="none" style="stroke:#181818;stroke-width:1.5;"/><polygon fill="#181818" points="236.5,110.9609,246.5,114.9609,236.5,118.9609,240.5,114.9609" style="stroke:#181818;stroke-width:1.0;"/><line style="stroke:#181818;stroke-width:1.0;" x1="46.5" x2="242.5" y1="114.9609" y2="114.9609"/><text fill="#000000" font-family="sans-serif" font-size="13" lengthAdjust="spacing" textLength="130" x="53.5" y="110.1045">introduce credenciales</text><polygon fill="#181818" points="367,141.3125,377,145.3125,367,149.3125,371,145.3125" style="stroke:#181818;stroke-width:1.0;"/><line style="stroke:#181818;stroke-width:1.0;" x1="248.5" x2="373" y1="145.3125" y2="145.3125"/><text fill="#000000" font-family="sans-serif" font-size="13" lengthAdjust="spacing" textLength="98" x="255.5" y="140.4561">login(credentials)</text><polygon fill="#181818" points="533,171.6641,543,175.6641,533,179.6641,537,175.6641" style="stroke:#181818;stroke-width:1.0;"/><line style="stroke:#181818;stroke-width:1.0;" x1="379" x2="539" y1="175.6641" y2="175.6641"/><text fill="#000000" font-family="sans-serif" font-size="13" lengthAdjust="spacing" textLength="142" x="386" y="170.8076">authenticate(credentials)</text><polygon fill="#181818" points="730,202.0156,740,206.0156,730,210.0156,734,206.0156" style="stroke:#181818;stroke-width:1.0;"/><line style="stroke:#181818;stroke-width:1.0;" x1="545" x2="736" y1="206.0156" y2="206.0156"/><text fill="#000000" font-family="sans-serif" font-size="13" lengthAdjust="spacing" textLength="173" x="552" y="201.1592">HTTP POST /auth/login (DTO)</text><polygon fill="#181818" points="895,232.3672,905,236.3672,895,240.3672,899,236.3672" style="stroke:#181818;stroke-width:1.0;"/><line style="stroke:#181818;stroke-width:1.0;" x1="742" x2="901" y1="236.3672" y2="236.3672"/><text fill="#000000" font-family="sans-serif" font-size="13" lengthAdjust="spacing" textLength="141" x="749" y="231.5107">validateUser(credentials)</text><polygon fill="#181818" points="1084,262.7188,1094,266.7188,1084,270.7188,1088,266.7188" style="stroke:#181818;stroke-width:1.0;"/><line style="stroke:#181818;stroke-width:1.0;" x1="907" x2="1090" y1="266.7188" y2="266.7188"/><text fill="#000000" font-family="sans-serif" font-size="13" lengthAdjust="spacing" textLength="108" x="914" y="261.8623">findByEmail(email)</text><polygon fill="#181818" points="1267,293.0703,1277,297.0703,1267,301.0703,1271,297.0703" style="stroke:#181818;stroke-width:1.0;"/><line style="stroke:#181818;stroke-width:1.0;" x1="1096" x2="1273" y1="297.0703" y2="297.0703"/><text fill="#000000" font-family="sans-serif" font-size="13" lengthAdjust="spacing" textLength="159" x="1103" y="292.2139">SELECT * FROM "Usuario"</text><polygon fill="#181818" points="1107,323.4219,1097,327.4219,1107,331.4219,1103,327.4219" style="stroke:#181818;stroke-width:1.0;"/><line style="stroke:#181818;stroke-width:1.0;stroke-dasharray:2.0,2.0;" x1="1101" x2="1278" y1="327.4219" y2="327.4219"/><text fill="#000000" font-family="sans-serif" font-size="13" lengthAdjust="spacing" textLength="143" x="1113" y="322.5654">user_data (rol = Alumno)</text><polygon fill="#181818" points="918,353.7734,908,357.7734,918,361.7734,914,357.7734" style="stroke:#181818;stroke-width:1.0;"/><line style="stroke:#181818;stroke-width:1.0;stroke-dasharray:2.0,2.0;" x1="912" x2="1095" y1="357.7734" y2="357.7734"/><text fill="#000000" font-family="sans-serif" font-size="13" lengthAdjust="spacing" textLength="27" x="924" y="352.917">User</text><line style="stroke:#181818;stroke-width:1.0;" x1="907" x2="949" y1="388.125" y2="388.125"/><line style="stroke:#181818;stroke-width:1.0;" x1="949" x2="949" y1="388.125" y2="401.125"/><line style="stroke:#181818;stroke-width:1.0;" x1="908" x2="949" y1="401.125" y2="401.125"/><polygon fill="#181818" points="918,397.125,908,401.125,918,405.125,914,401.125" style="stroke:#181818;stroke-width:1.0;"/><text fill="#000000" font-family="sans-serif" font-size="13" lengthAdjust="spacing" textLength="138" x="914" y="383.2686">verify password (Bcrypt)</text><polygon fill="#181818" points="753,427.4766,743,431.4766,753,435.4766,749,431.4766" style="stroke:#181818;stroke-width:1.0;"/><line style="stroke:#181818;stroke-width:1.0;stroke-dasharray:2.0,2.0;" x1="747" x2="906" y1="431.4766" y2="431.4766"/><text fill="#000000" font-family="sans-serif" font-size="13" lengthAdjust="spacing" textLength="89" x="759" y="426.6201">validation result</text><path d="M10,446.4766 L71,446.4766 L71,454.8281 L61,464.8281 L10,464.8281 L10,446.4766 " fill="#EEEEEE" style="stroke:#000000;stroke-width:1.5;"/><rect fill="none" height="424.4063" style="stroke:#000000;stroke-width:1.5;" width="1091" x="10" y="446.4766"/><text fill="#000000" font-family="sans-serif" font-size="13" font-weight="bold" lengthAdjust="spacing" textLength="16" x="25" y="460.9717">alt</text><text fill="#000000" font-family="sans-serif" font-size="11" font-weight="bold" lengthAdjust="spacing" textLength="124" x="86" y="459.8955">[autenticaci&#243;n exitosa]</text><polygon fill="#181818" points="895,483.1797,905,487.1797,895,491.1797,899,487.1797" style="stroke:#181818;stroke-width:1.0;"/><line style="stroke:#181818;stroke-width:1.0;" x1="742" x2="901" y1="487.1797" y2="487.1797"/><text fill="#000000" font-family="sans-serif" font-size="13" lengthAdjust="spacing" textLength="62" x="749" y="482.3232">login(User)</text><line style="stroke:#181818;stroke-width:1.0;" x1="907" x2="949" y1="517.5313" y2="517.5313"/><line style="stroke:#181818;stroke-width:1.0;" x1="949" x2="949" y1="517.5313" y2="530.5313"/><line style="stroke:#181818;stroke-width:1.0;" x1="908" x2="949" y1="530.5313" y2="530.5313"/><polygon fill="#181818" points="918,526.5313,908,530.5313,918,534.5313,914,530.5313" style="stroke:#181818;stroke-width:1.0;"/><text fill="#000000" font-family="sans-serif" font-size="13" lengthAdjust="spacing" textLength="175" x="914" y="512.6748">sign JWT (claim rol = Alumno)</text><polygon fill="#181818" points="753,556.8828,743,560.8828,753,564.8828,749,560.8828" style="stroke:#181818;stroke-width:1.0;"/><line style="stroke:#181818;stroke-width:1.0;stroke-dasharray:2.0,2.0;" x1="747" x2="906" y1="560.8828" y2="560.8828"/><text fill="#000000" font-family="sans-serif" font-size="13" lengthAdjust="spacing" textLength="108" x="759" y="556.0264">{ token, user_info }</text><polygon fill="#181818" points="556,587.2344,546,591.2344,556,595.2344,552,591.2344" style="stroke:#181818;stroke-width:1.0;"/><line style="stroke:#181818;stroke-width:1.0;stroke-dasharray:2.0,2.0;" x1="550" x2="741" y1="591.2344" y2="591.2344"/><text fill="#000000" font-family="sans-serif" font-size="13" lengthAdjust="spacing" textLength="141" x="562" y="586.3779">200 OK (AuthResponse)</text><polygon fill="#181818" points="390,617.5859,380,621.5859,390,625.5859,386,621.5859" style="stroke:#181818;stroke-width:1.0;"/><line style="stroke:#181818;stroke-width:1.0;stroke-dasharray:2.0,2.0;" x1="384" x2="544" y1="621.5859" y2="621.5859"/><text fill="#000000" font-family="sans-serif" font-size="13" lengthAdjust="spacing" textLength="107" x="396" y="616.7295">store token &amp; user</text><line style="stroke:#181818;stroke-width:1.0;" x1="379" x2="421" y1="651.9375" y2="651.9375"/><line style="stroke:#181818;stroke-width:1.0;" x1="421" x2="421" y1="651.9375" y2="664.9375"/><line style="stroke:#181818;stroke-width:1.0;" x1="380" x2="421" y1="664.9375" y2="664.9375"/><polygon fill="#181818" points="390,660.9375,380,664.9375,390,668.9375,386,664.9375" style="stroke:#181818;stroke-width:1.0;"/><text fill="#000000" font-family="sans-serif" font-size="13" lengthAdjust="spacing" textLength="121" x="386" y="647.0811">detecta rol = Alumno</text><polygon fill="#181818" points="259.5,691.2891,249.5,695.2891,259.5,699.2891,255.5,695.2891" style="stroke:#181818;stroke-width:1.0;"/><line style="stroke:#181818;stroke-width:1.0;stroke-dasharray:2.0,2.0;" x1="253.5" x2="378" y1="695.2891" y2="695.2891"/><text fill="#000000" font-family="sans-serif" font-size="13" lengthAdjust="spacing" textLength="93" x="265.5" y="690.4326">redirect /alumno</text><polygon fill="#181818" points="57.5,721.6406,47.5,725.6406,57.5,729.6406,53.5,725.6406" style="stroke:#181818;stroke-width:1.0;"/><line style="stroke:#181818;stroke-width:1.0;stroke-dasharray:2.0,2.0;" x1="51.5" x2="247.5" y1="725.6406" y2="725.6406"/><text fill="#000000" font-family="sans-serif" font-size="13" lengthAdjust="spacing" textLength="178" x="63.5" y="720.7842">muestra dashboard del alumno</text><line style="stroke:#000000;stroke-width:1.0;stroke-dasharray:2.0,2.0;" x1="10" x2="1101" y1="734.6406" y2="734.6406"/><text fill="#000000" font-family="sans-serif" font-size="11" font-weight="bold" lengthAdjust="spacing" textLength="130" x="15" y="746.0596">[credenciales inv&#225;lidas]</text><polygon fill="#181818" points="556,767.8281,546,771.8281,556,775.8281,552,771.8281" style="stroke:#181818;stroke-width:1.0;"/><line style="stroke:#181818;stroke-width:1.0;stroke-dasharray:2.0,2.0;" x1="550" x2="741" y1="771.8281" y2="771.8281"/><text fill="#000000" font-family="sans-serif" font-size="13" lengthAdjust="spacing" textLength="101" x="562" y="766.9717">401 Unauthorized</text><polygon fill="#181818" points="390,798.1797,380,802.1797,390,806.1797,386,802.1797" style="stroke:#181818;stroke-width:1.0;"/><line style="stroke:#181818;stroke-width:1.0;stroke-dasharray:2.0,2.0;" x1="384" x2="544" y1="802.1797" y2="802.1797"/><text fill="#000000" font-family="sans-serif" font-size="13" lengthAdjust="spacing" textLength="83" x="396" y="797.3232">error message</text><polygon fill="#181818" points="259.5,828.5313,249.5,832.5313,259.5,836.5313,255.5,832.5313" style="stroke:#181818;stroke-width:1.0;"/><line style="stroke:#181818;stroke-width:1.0;stroke-dasharray:2.0,2.0;" x1="253.5" x2="378" y1="832.5313" y2="832.5313"/><text fill="#000000" font-family="sans-serif" font-size="13" lengthAdjust="spacing" textLength="71" x="265.5" y="827.6748">display error</text><polygon fill="#181818" points="57.5,858.8828,47.5,862.8828,57.5,866.8828,53.5,862.8828" style="stroke:#181818;stroke-width:1.0;"/><line style="stroke:#181818;stroke-width:1.0;stroke-dasharray:2.0,2.0;" x1="51.5" x2="247.5" y1="862.8828" y2="862.8828"/><text fill="#000000" font-family="sans-serif" font-size="13" lengthAdjust="spacing" textLength="116" x="63.5" y="858.0264">muestra advertencia</text><!--SRC=[XPJTJXin48Nl_HIZN5IRgWXQzIfIAn6WGfGsb8JsiZBhIHZXs2kF5qXH7wRFq4VWnJfURyWkVyr5b7W-hyySdrc-95Vfe9TWoM5SLGYLjwlqH_5zZI-qyTVa5Z3Nbb4fNKOVODVMI-ULC95AghIBC3Zs2tBV2Q-XE4N1XWFG36cXpzMCktMyWEBG-yiCfLzzA15J35TK8XIxD-GvatkMqCN7x9vtCNXhCK3n5JaUJLl-Vls5voVbPURRjJvynXYuhJHKiw2CZlfSCyBWn7DS19n-EsxA-sEbiaEmzR5n04P0IOYfvRmoe45NahR8ggaAbImGoYOJYqn48NYeceeGkNLXj6XFrL97xACjak2D7oCudCrEu6GodS5sshlT70B5_cmYMpQWR5jRCe8hRKaQnDHg_v0r8tZZWy1pScQyEbXgiWMcxw7A9M7snm9C3uuFzcRm6ZwTJhuaGsiTo0-K5BSwpv5eX9_9LYX44tneStR_j9x2jDOLqz6EWUOhg3JpjGy6Yd4PLbNiI7_eKDijUGS1kRPHWcvZSZeRNTBTNmTuGz6pLY2VvtpB5vYq3HlkIO5C2mT7FsPGb5RJ4lhDzhOzL7eBqL-YUvEz8ZVtyFkHe6vQtktimEIp397S_2bovHrZFcETbatwM6ORym7mgZcX0TS9R2c34Kkvewxg3hU9lAI6Wg0IkmsK0ozGEo4ZMDOoi463qNnnxhLSc44BxHQKjqvlOcIGhkx-fElY5_j-l_CMpbpAkm_q2yqpBMC8yZvR8hDUu9DT6EBAwbKc_zE2DfAzs4XLw8pw1m00]--></g></svg>