<?xml version="1.0" encoding="us-ascii" standalone="no"?><svg xmlns="http://www.w3.org/2000/svg" xmlns:xlink="http://www.w3.org/1999/xlink" contentStyleType="text/css" height="438px" preserveAspectRatio="none" style="width:826px;height:438px;background:#FFFFFF;" version="1.1" viewBox="0 0 826 438" width="826px" zoomAndPan="magnify"><defs/><g><!--cluster crearAsignatura--><g id="cluster_crearAsignatura"><path d="M8.5,109 L131.5,109 A3.75,3.75 0 0 1 134,111.5 L141,132.6094 L497.5,132.6094 A2.5,2.5 0 0 1 500,135.1094 L500,428.5 A2.5,2.5 0 0 1 497.5,431 L8.5,431 A2.5,2.5 0 0 1 6,428.5 L6,111.5 A2.5,2.5 0 0 1 8.5,109 " fill="none" style="stroke:#000000;stroke-width:1.5;"/><line style="stroke:#000000;stroke-width:1.5;" x1="6" x2="141" y1="132.6094" y2="132.6094"/><text fill="#000000" font-family="sans-serif" font-size="14" font-weight="bold" lengthAdjust="spacing" textLength="122" x="10" y="125.5332">crearAsignatura()</text></g><!--entity CrearAsignaturaView--><g id="elem_CrearAsignaturaView"><rect fill="#629EF9" height="37.6094" rx="2.5" ry="2.5" style="stroke:#181818;stroke-width:0.5;" width="153" x="220.5" y="145"/><text fill="#000000" font-family="sans-serif" font-size="14" lengthAdjust="spacing" textLength="133" x="230.5" y="169.5332">CrearAsignaturaView</text></g><!--entity AsignaturaController--><g id="elem_AsignaturaController"><rect fill="#B5BD68" height="37.6094" rx="2.5" ry="2.5" style="stroke:#181818;stroke-width:0.5;" width="150" x="158" y="261"/><text fill="#000000" font-family="sans-serif" font-size="14" lengthAdjust="spacing" textLength="130" x="168" y="285.5332">AsignaturaController</text></g><!--entity AsignaturaRepository--><g id="elem_AsignaturaRepository"><rect fill="#F2AC4E" height="37.6094" rx="2.5" ry="2.5" style="stroke:#181818;stroke-width:0.5;" width="156" x="110" y="377"/><text fill="#000000" font-family="sans-serif" font-size="14" lengthAdjust="spacing" textLength="136" x="120" y="401.5332">AsignaturaRepository</text></g><!--entity Asignatura--><g id="elem_Asignatura"><rect fill="#F2AC4E" height="37.6094" rx="2.5" ry="2.5" style="stroke:#181818;stroke-width:0.5;" width="88" x="388" y="377"/><text fill="#000000" font-family="sans-serif" font-size="14" lengthAdjust="spacing" textLength="68" x="398" y="401.5332">Asignatura</text></g><!--entity AsignaturasAbierto--><g id="elem_AsignaturasAbierto"><rect fill="#CDEBA5" height="37.6094" rx="2.5" ry="2.5" style="stroke:#181818;stroke-width:0.5;" width="148" x="223" y="7"/><text fill="#000000" font-family="sans-serif" font-size="14" lengthAdjust="spacing" textLength="128" x="233" y="31.5332">:Asignaturas Abierto</text></g><!--entity AsignaturaAbierta--><g id="elem_AsignaturaAbierta"><rect fill="#CDEBA5" height="37.6094" rx="2.5" ry="2.5" style="stroke:#181818;stroke-width:0.5;" width="141" x="516.5" y="261"/><text fill="#000000" font-family="sans-serif" font-size="14" lengthAdjust="spacing" textLength="121" x="526.5" y="285.5332">:Asignatura Abierta</text></g><!--link AsignaturasAbierto to CrearAsignaturaView--><g id="link_AsignaturasAbierto_CrearAsignaturaView"><path d="M269.4,45.15 C248.73,58.74 224,75 224,75 C224,75 224,93 224,93 C224,93 252.2392,120.0774 273.8692,140.8174 " fill="none" id="AsignaturasAbierto-to-CrearAsignaturaView" style="stroke:#181818;stroke-width:1.0;"/><polygon fill="#181818" points="278.2,144.97,274.4722,135.8539,274.591,141.5095,268.9354,141.6283,278.2,144.97" style="stroke:#181818;stroke-width:1.0;"/><text fill="#000000" font-family="sans-serif" font-size="13" lengthAdjust="spacing" textLength="99" x="225" y="89.4951">crearAsignatura()</text></g><!--link CrearAsignaturaView to AsignaturasAbierto--><g id="link_CrearAsignaturaView_AsignaturasAbierto"><path d="M305.24,144.97 C314.72,124.23 329,93 329,93 C329,93 329,75 329,75 C329,75 321.4882,63.7323 312.4282,50.1423 " fill="none" id="CrearAsignaturaView-to-AsignaturasAbierto" style="stroke:#181818;stroke-width:1.0;stroke-dasharray:7.0,7.0;"/><polygon fill="#181818" points="309.1,45.15,310.7641,54.8573,311.8735,49.3103,317.4205,50.4197,309.1,45.15" style="stroke:#181818;stroke-width:1.0;"/><text fill="#000000" font-family="sans-serif" font-size="13" lengthAdjust="spacing" textLength="63" x="330" y="89.4951">&#171;cancelar&#187;</text></g><!--link CrearAsignaturaView to AsignaturaController--><g id="link_CrearAsignaturaView_AsignaturaController"><path d="M278.48,183.15 C264.6,196.74 248,213 248,213 C248,213 242.8688,235.569 238.4288,255.119 " fill="none" id="CrearAsignaturaView-to-AsignaturaController" style="stroke:#181818;stroke-width:1.0;"/><polygon fill="#181818" points="237.1,260.97,242.9939,253.0794,238.2074,256.0942,235.1926,251.3076,237.1,260.97" style="stroke:#181818;stroke-width:1.0;"/><text fill="#000000" font-family="sans-serif" font-size="13" lengthAdjust="spacing" textLength="294" x="249" y="227.4951">crear(codigo, nombre, creditos, grado) : Asignatura</text></g><!--link AsignaturaController to AsignaturaRepository--><g id="link_AsignaturaController_AsignaturaRepository"><path d="M165.84,299.01 C115.05,312.63 54,329 54,329 C54,329 54,347 54,347 C54,347 94.0515,361.3465 132.0715,374.9665 " fill="none" id="AsignaturaController-to-AsignaturaRepository" style="stroke:#181818;stroke-width:1.0;"/><polygon fill="#181818" points="137.72,376.99,130.5962,370.1891,133.0129,375.3038,127.8983,377.7205,137.72,376.99" style="stroke:#181818;stroke-width:1.0;"/><text fill="#000000" font-family="sans-serif" font-size="13" lengthAdjust="spacing" textLength="180" x="55" y="343.4951">existeCodigo(codigo) : Boolean</text></g><!--link AsignaturaController to AsignaturaRepository--><g id="link_AsignaturaController_AsignaturaRepository"><path d="M235.65,299.15 C237.63,312.74 240,329 240,329 C240,329 240,347 240,347 C240,347 226.7885,359.1899 212.0685,372.7799 " fill="none" id="AsignaturaController-to-AsignaturaRepository-1" style="stroke:#181818;stroke-width:1.0;"/><polygon fill="#181818" points="207.66,376.85,216.9861,373.6839,211.3337,373.4583,211.5593,367.8059,207.66,376.85" style="stroke:#181818;stroke-width:1.0;"/><text fill="#000000" font-family="sans-serif" font-size="13" lengthAdjust="spacing" textLength="111" x="241" y="343.4951">guardar(asignatura)</text></g><!--link AsignaturaController to Asignatura--><g id="link_AsignaturaController_Asignatura"><path d="M281.03,299.01 C317.35,312.63 361,329 361,329 C361,329 387.1865,353.3338 408.2065,372.8838 " fill="none" id="AsignaturaController-to-Asignatura" style="stroke:#181818;stroke-width:1.0;"/><polygon fill="#181818" points="412.6,376.97,408.7339,367.9117,408.9388,373.5648,403.2856,373.7696,412.6,376.97" style="stroke:#181818;stroke-width:1.0;"/><text fill="#000000" font-family="sans-serif" font-size="13" lengthAdjust="spacing" textLength="50" x="381" y="343.4951">&#171;create&#187;</text></g><!--link CrearAsignaturaView to AsignaturaAbierta--><g id="link_CrearAsignaturaView_AsignaturaAbierta"><path d="M373.67,179.66 C447.49,193.78 548,213 548,213 C548,213 561.75,236.253 573.29,255.803 " fill="none" id="CrearAsignaturaView-to-AsignaturaAbierta" style="stroke:#181818;stroke-width:1.0;stroke-dasharray:7.0,7.0;"/><polygon fill="#181818" points="576.34,260.97,575.2097,251.1862,573.7984,256.6642,568.3204,255.2528,576.34,260.97" style="stroke:#181818;stroke-width:1.0;"/><text fill="#000000" font-family="sans-serif" font-size="13" lengthAdjust="spacing" textLength="259" x="559" y="227.4951">&#171;finalizar&#187; editarAsignatura(asignaturaNueva)</text></g><!--SRC=[bP51Ru9048Nl-oiczAA9UZ3LL6D8aEgnXnvw7s1ADgwxP5ZRsgR_lRk62WB6bXEy_NWpxssvaxf0nZqegSaU2uB2gAF_488fjQXpHN0NFsxMqGo2PLJANACzC9OG9PBOcW3yUwrNiX05fZlC2L8cv1hmUD3I1iC0leG0zpIcpgUBpNO1yINx8kczJIQp99i_DBQ8ZRPib29kezjf5Dzl6kWp5QQKrl3n9Yg-RxLIbOAjKYfLY6vFC1w7VH5X2PsIXEW3lK5Vyb-7GMeocPiHQBDFc4PUpLpWSWGvOsQ63cna5BrUbqFgpjo_z25BI_5fI3NBMwwDKOJwJtuENwtyifR2yFyRv0Vap0N5y_6LgYQJi7ihf-6lKgEIdyXX2BwTY-9htwS3lJdpszxdwpqbGvsIyjxY1m00]--></g></svg>