<?xml version="1.0" encoding="us-ascii" standalone="no"?><svg xmlns="http://www.w3.org/2000/svg" xmlns:xlink="http://www.w3.org/1999/xlink" contentStyleType="text/css" height="1223px" preserveAspectRatio="none" style="width:1323px;height:1223px;background:#FFFFFF;" version="1.1" viewBox="0 0 1323 1223" width="1323px" zoomAndPan="magnify"><defs/><g><text fill="#000000" font-family="sans-serif" font-size="14" font-weight="bold" lengthAdjust="spacing" textLength="380" x="464.75" y="24.5332">Diagrama de Clases de Dise&#241;o - Davidario - Iteraci&#243;n 1</text><!--cluster Dominio / Modelos--><g id="cluster_Dominio / Modelos"><path d="M206,44.6094 L337,44.6094 A3.75,3.75 0 0 1 339.5,47.1094 L346.5,68.2188 L910,68.2188 A2.5,2.5 0 0 1 912.5,70.7188 L912.5,1214.1094 A2.5,2.5 0 0 1 910,1216.6094 L206,1216.6094 A2.5,2.5 0 0 1 203.5,1214.1094 L203.5,47.1094 A2.5,2.5 0 0 1 206,44.6094 " fill="none" style="stroke:#000000;stroke-width:1.5;"/><line style="stroke:#000000;stroke-width:1.5;" x1="203.5" x2="346.5" y1="68.2188" y2="68.2188"/><text fill="#000000" font-family="sans-serif" font-size="14" font-weight="bold" lengthAdjust="spacing" textLength="130" x="207.5" y="61.1426">Dominio / Modelos</text></g><!--cluster API / Schemas (DTOs)--><g id="cluster_API / Schemas (DTOs)"><path d="M939,53.1094 L1088,53.1094 A3.75,3.75 0 0 1 1090.5,55.6094 L1097.5,76.7188 L1314,76.7188 A2.5,2.5 0 0 1 1316.5,79.2188 L1316.5,203.6094 A2.5,2.5 0 0 1 1314,206.1094 L939,206.1094 A2.5,2.5 0 0 1 936.5,203.6094 L936.5,55.6094 A2.5,2.5 0 0 1 939,53.1094 " fill="none" style="stroke:#000000;stroke-width:1.5;"/><line style="stroke:#000000;stroke-width:1.5;" x1="936.5" x2="1097.5" y1="76.7188" y2="76.7188"/><text fill="#000000" font-family="sans-serif" font-size="14" font-weight="bold" lengthAdjust="spacing" textLength="148" x="940.5" y="69.6426">API / Schemas (DTOs)</text></g><!--class Universidad--><g id="elem_Universidad"><rect codeLine="6" fill="#F1F1F1" height="83.2188" id="Universidad" rx="2.5" ry="2.5" style="stroke:#181818;stroke-width:0.5;" width="117" x="494" y="98.1094"/><ellipse cx="513.95" cy="114.1094" fill="#ADD1B2" rx="11" ry="11" style="stroke:#181818;stroke-width:1.0;"/><path d="M516.7156,109.9844 Q516.8719,109.7656 517.0594,109.6563 Q517.2469,109.5469 517.4656,109.5469 Q517.8406,109.5469 518.075,109.8125 Q518.3094,110.0625 518.3094,110.6719 L518.3094,112.125 Q518.3094,112.7344 518.075,113 Q517.8406,113.2656 517.4656,113.2656 Q517.1219,113.2656 516.9188,113.0625 Q516.7156,112.875 516.6063,112.3594 Q516.5594,112 516.3719,111.8125 Q516.0438,111.4375 515.4344,111.2188 Q514.825,111 514.2,111 Q513.4344,111 512.7938,111.3281 Q512.1688,111.6563 511.6688,112.4063 Q511.1844,113.1563 511.1844,114.1875 L511.1844,115.2813 Q511.1844,116.5156 512.075,117.3438 Q512.9656,118.1563 514.5594,118.1563 Q515.4969,118.1563 516.1531,117.9063 Q516.5438,117.75 516.9656,117.3125 Q517.2313,117.0469 517.3719,116.9688 Q517.5281,116.8906 517.7313,116.8906 Q518.0594,116.8906 518.3094,117.1563 Q518.575,117.4063 518.575,117.75 Q518.575,118.0938 518.2313,118.5 Q517.7313,119.0781 516.9344,119.4063 Q515.8563,119.8594 514.5594,119.8594 Q513.0438,119.8594 511.8406,119.2344 Q510.8563,118.7344 510.1688,117.6719 Q509.4813,116.5938 509.4813,115.3125 L509.4813,114.1563 Q509.4813,112.8281 510.0906,111.6875 Q510.7156,110.5313 511.8094,109.9219 Q512.9031,109.2969 514.1375,109.2969 Q514.8719,109.2969 515.5125,109.4688 Q516.1688,109.625 516.7156,109.9844 Z " fill="#000000"/><text fill="#000000" font-family="sans-serif" font-size="14" lengthAdjust="spacing" textLength="74" x="529.05" y="119.8379">Universidad</text><line style="stroke:#181818;stroke-width:0.5;" x1="495" x2="610" y1="130.1094" y2="130.1094"/><ellipse cx="505" cy="144.4141" fill="none" rx="3" ry="3" style="stroke:#038048;stroke-width:1.0;"/><text fill="#000000" font-family="sans-serif" font-size="14" lengthAdjust="spacing" textLength="50" x="514" y="148.6426">id: UUID</text><ellipse cx="505" cy="162.0234" fill="none" rx="3" ry="3" style="stroke:#038048;stroke-width:1.0;"/><text fill="#000000" font-family="sans-serif" font-size="14" lengthAdjust="spacing" textLength="91" x="514" y="166.252">nombre: string</text><line style="stroke:#181818;stroke-width:0.5;" x1="495" x2="610" y1="173.3281" y2="173.3281"/></g><!--class Facultad--><g id="elem_Facultad"><rect codeLine="11" fill="#F1F1F1" height="100.8281" id="Facultad" rx="2.5" ry="2.5" style="stroke:#181818;stroke-width:0.5;" width="149" x="478" y="259.6094"/><ellipse cx="520.9" cy="275.6094" fill="#ADD1B2" rx="11" ry="11" style="stroke:#181818;stroke-width:1.0;"/><path d="M523.6656,271.4844 Q523.8219,271.2656 524.0094,271.1563 Q524.1969,271.0469 524.4156,271.0469 Q524.7906,271.0469 525.025,271.3125 Q525.2594,271.5625 525.2594,272.1719 L525.2594,273.625 Q525.2594,274.2344 525.025,274.5 Q524.7906,274.7656 524.4156,274.7656 Q524.0719,274.7656 523.8688,274.5625 Q523.6656,274.375 523.5563,273.8594 Q523.5094,273.5 523.3219,273.3125 Q522.9938,272.9375 522.3844,272.7188 Q521.775,272.5 521.15,272.5 Q520.3844,272.5 519.7438,272.8281 Q519.1188,273.1563 518.6188,273.9063 Q518.1344,274.6563 518.1344,275.6875 L518.1344,276.7813 Q518.1344,278.0156 519.025,278.8438 Q519.9156,279.6563 521.5094,279.6563 Q522.4469,279.6563 523.1031,279.4063 Q523.4938,279.25 523.9156,278.8125 Q524.1813,278.5469 524.3219,278.4688 Q524.4781,278.3906 524.6813,278.3906 Q525.0094,278.3906 525.2594,278.6563 Q525.525,278.9063 525.525,279.25 Q525.525,279.5938 525.1813,280 Q524.6813,280.5781 523.8844,280.9063 Q522.8063,281.3594 521.5094,281.3594 Q519.9938,281.3594 518.7906,280.7344 Q517.8063,280.2344 517.1188,279.1719 Q516.4313,278.0938 516.4313,276.8125 L516.4313,275.6563 Q516.4313,274.3281 517.0406,273.1875 Q517.6656,272.0313 518.7594,271.4219 Q519.8531,270.7969 521.0875,270.7969 Q521.8219,270.7969 522.4625,270.9688 Q523.1188,271.125 523.6656,271.4844 Z " fill="#000000"/><text fill="#000000" font-family="sans-serif" font-size="14" lengthAdjust="spacing" textLength="55" x="541.1" y="281.3379">Facultad</text><line style="stroke:#181818;stroke-width:0.5;" x1="479" x2="626" y1="291.6094" y2="291.6094"/><ellipse cx="489" cy="305.9141" fill="none" rx="3" ry="3" style="stroke:#038048;stroke-width:1.0;"/><text fill="#000000" font-family="sans-serif" font-size="14" lengthAdjust="spacing" textLength="50" x="498" y="310.1426">id: UUID</text><ellipse cx="489" cy="323.5234" fill="none" rx="3" ry="3" style="stroke:#038048;stroke-width:1.0;"/><text fill="#000000" font-family="sans-serif" font-size="14" lengthAdjust="spacing" textLength="91" x="498" y="327.752">nombre: string</text><ellipse cx="489" cy="341.1328" fill="none" rx="3" ry="3" style="stroke:#038048;stroke-width:1.0;"/><text fill="#000000" font-family="sans-serif" font-size="14" lengthAdjust="spacing" textLength="123" x="498" y="345.3613">universidadId: UUID</text><line style="stroke:#181818;stroke-width:0.5;" x1="479" x2="626" y1="352.4375" y2="352.4375"/></g><!--class Grado--><g id="elem_Grado"><rect codeLine="17" fill="#F1F1F1" height="100.8281" id="Grado" rx="2.5" ry="2.5" style="stroke:#181818;stroke-width:0.5;" width="126" x="489.5" y="421.6094"/><ellipse cx="528.8" cy="437.6094" fill="#ADD1B2" rx="11" ry="11" style="stroke:#181818;stroke-width:1.0;"/><path d="M531.5656,433.4844 Q531.7219,433.2656 531.9094,433.1563 Q532.0969,433.0469 532.3156,433.0469 Q532.6906,433.0469 532.925,433.3125 Q533.1594,433.5625 533.1594,434.1719 L533.1594,435.625 Q533.1594,436.2344 532.925,436.5 Q532.6906,436.7656 532.3156,436.7656 Q531.9719,436.7656 531.7688,436.5625 Q531.5656,436.375 531.4563,435.8594 Q531.4094,435.5 531.2219,435.3125 Q530.8938,434.9375 530.2844,434.7188 Q529.675,434.5 529.05,434.5 Q528.2844,434.5 527.6438,434.8281 Q527.0188,435.1563 526.5188,435.9063 Q526.0344,436.6563 526.0344,437.6875 L526.0344,438.7813 Q526.0344,440.0156 526.925,440.8438 Q527.8156,441.6563 529.4094,441.6563 Q530.3469,441.6563 531.0031,441.4063 Q531.3938,441.25 531.8156,440.8125 Q532.0813,440.5469 532.2219,440.4688 Q532.3781,440.3906 532.5813,440.3906 Q532.9094,440.3906 533.1594,440.6563 Q533.425,440.9063 533.425,441.25 Q533.425,441.5938 533.0813,442 Q532.5813,442.5781 531.7844,442.9063 Q530.7063,443.3594 529.4094,443.3594 Q527.8938,443.3594 526.6906,442.7344 Q525.7063,442.2344 525.0188,441.1719 Q524.3313,440.0938 524.3313,438.8125 L524.3313,437.6563 Q524.3313,436.3281 524.9406,435.1875 Q525.5656,434.0313 526.6594,433.4219 Q527.7531,432.7969 528.9875,432.7969 Q529.7219,432.7969 530.3625,432.9688 Q531.0188,433.125 531.5656,433.4844 Z " fill="#000000"/><text fill="#000000" font-family="sans-serif" font-size="14" lengthAdjust="spacing" textLength="40" x="548.2" y="443.3379">Grado</text><line style="stroke:#181818;stroke-width:0.5;" x1="490.5" x2="614.5" y1="453.6094" y2="453.6094"/><ellipse cx="500.5" cy="467.9141" fill="none" rx="3" ry="3" style="stroke:#038048;stroke-width:1.0;"/><text fill="#000000" font-family="sans-serif" font-size="14" lengthAdjust="spacing" textLength="50" x="509.5" y="472.1426">id: UUID</text><ellipse cx="500.5" cy="485.5234" fill="none" rx="3" ry="3" style="stroke:#038048;stroke-width:1.0;"/><text fill="#000000" font-family="sans-serif" font-size="14" lengthAdjust="spacing" textLength="91" x="509.5" y="489.752">nombre: string</text><ellipse cx="500.5" cy="503.1328" fill="none" rx="3" ry="3" style="stroke:#038048;stroke-width:1.0;"/><text fill="#000000" font-family="sans-serif" font-size="14" lengthAdjust="spacing" textLength="100" x="509.5" y="507.3613">facultadId: UUID</text><line style="stroke:#181818;stroke-width:0.5;" x1="490.5" x2="614.5" y1="514.4375" y2="514.4375"/></g><!--class Asignatura--><g id="elem_Asignatura"><rect codeLine="23" fill="#F1F1F1" height="136.0469" id="Asignatura" rx="2.5" ry="2.5" style="stroke:#181818;stroke-width:0.5;" width="132" x="486.5" y="583.6094"/><ellipse cx="515.9" cy="599.6094" fill="#ADD1B2" rx="11" ry="11" style="stroke:#181818;stroke-width:1.0;"/><path d="M518.6656,595.4844 Q518.8219,595.2656 519.0094,595.1563 Q519.1969,595.0469 519.4156,595.0469 Q519.7906,595.0469 520.025,595.3125 Q520.2594,595.5625 520.2594,596.1719 L520.2594,597.625 Q520.2594,598.2344 520.025,598.5 Q519.7906,598.7656 519.4156,598.7656 Q519.0719,598.7656 518.8688,598.5625 Q518.6656,598.375 518.5563,597.8594 Q518.5094,597.5 518.3219,597.3125 Q517.9938,596.9375 517.3844,596.7188 Q516.775,596.5 516.15,596.5 Q515.3844,596.5 514.7438,596.8281 Q514.1188,597.1563 513.6188,597.9063 Q513.1344,598.6563 513.1344,599.6875 L513.1344,600.7813 Q513.1344,602.0156 514.025,602.8438 Q514.9156,603.6563 516.5094,603.6563 Q517.4469,603.6563 518.1031,603.4063 Q518.4938,603.25 518.9156,602.8125 Q519.1813,602.5469 519.3219,602.4688 Q519.4781,602.3906 519.6813,602.3906 Q520.0094,602.3906 520.2594,602.6563 Q520.525,602.9063 520.525,603.25 Q520.525,603.5938 520.1813,604 Q519.6813,604.5781 518.8844,604.9063 Q517.8063,605.3594 516.5094,605.3594 Q514.9938,605.3594 513.7906,604.7344 Q512.8063,604.2344 512.1188,603.1719 Q511.4313,602.0938 511.4313,600.8125 L511.4313,599.6563 Q511.4313,598.3281 512.0406,597.1875 Q512.6656,596.0313 513.7594,595.4219 Q514.8531,594.7969 516.0875,594.7969 Q516.8219,594.7969 517.4625,594.9688 Q518.1188,595.125 518.6656,595.4844 Z " fill="#000000"/><text fill="#000000" font-family="sans-serif" font-size="14" lengthAdjust="spacing" textLength="68" x="533.1" y="605.3379">Asignatura</text><line style="stroke:#181818;stroke-width:0.5;" x1="487.5" x2="617.5" y1="615.6094" y2="615.6094"/><ellipse cx="497.5" cy="629.9141" fill="none" rx="3" ry="3" style="stroke:#038048;stroke-width:1.0;"/><text fill="#000000" font-family="sans-serif" font-size="14" lengthAdjust="spacing" textLength="50" x="506.5" y="634.1426">id: UUID</text><ellipse cx="497.5" cy="647.5234" fill="none" rx="3" ry="3" style="stroke:#038048;stroke-width:1.0;"/><text fill="#000000" font-family="sans-serif" font-size="14" lengthAdjust="spacing" textLength="85" x="506.5" y="651.752">codigo: string</text><ellipse cx="497.5" cy="665.1328" fill="none" rx="3" ry="3" style="stroke:#038048;stroke-width:1.0;"/><text fill="#000000" font-family="sans-serif" font-size="14" lengthAdjust="spacing" textLength="91" x="506.5" y="669.3613">nombre: string</text><ellipse cx="497.5" cy="682.7422" fill="none" rx="3" ry="3" style="stroke:#038048;stroke-width:1.0;"/><text fill="#000000" font-family="sans-serif" font-size="14" lengthAdjust="spacing" textLength="106" x="506.5" y="686.9707">creditos: number</text><ellipse cx="497.5" cy="700.3516" fill="none" rx="3" ry="3" style="stroke:#038048;stroke-width:1.0;"/><text fill="#000000" font-family="sans-serif" font-size="14" lengthAdjust="spacing" textLength="87" x="506.5" y="704.5801">gradoId: UUID</text><line style="stroke:#181818;stroke-width:0.5;" x1="487.5" x2="617.5" y1="711.6563" y2="711.6563"/></g><!--class Profesor--><g id="elem_Profesor"><rect codeLine="31" fill="#F1F1F1" height="153.6563" id="Profesor" rx="2.5" ry="2.5" style="stroke:#181818;stroke-width:0.5;" width="157" x="220" y="1038.1094"/><ellipse cx="267.25" cy="1054.1094" fill="#ADD1B2" rx="11" ry="11" style="stroke:#181818;stroke-width:1.0;"/><path d="M270.0156,1049.9844 Q270.1719,1049.7656 270.3594,1049.6563 Q270.5469,1049.5469 270.7656,1049.5469 Q271.1406,1049.5469 271.375,1049.8125 Q271.6094,1050.0625 271.6094,1050.6719 L271.6094,1052.125 Q271.6094,1052.7344 271.375,1053 Q271.1406,1053.2656 270.7656,1053.2656 Q270.4219,1053.2656 270.2188,1053.0625 Q270.0156,1052.875 269.9063,1052.3594 Q269.8594,1052 269.6719,1051.8125 Q269.3438,1051.4375 268.7344,1051.2188 Q268.125,1051 267.5,1051 Q266.7344,1051 266.0938,1051.3281 Q265.4688,1051.6563 264.9688,1052.4063 Q264.4844,1053.1563 264.4844,1054.1875 L264.4844,1055.2813 Q264.4844,1056.5156 265.375,1057.3438 Q266.2656,1058.1563 267.8594,1058.1563 Q268.7969,1058.1563 269.4531,1057.9063 Q269.8438,1057.75 270.2656,1057.3125 Q270.5313,1057.0469 270.6719,1056.9688 Q270.8281,1056.8906 271.0313,1056.8906 Q271.3594,1056.8906 271.6094,1057.1563 Q271.875,1057.4063 271.875,1057.75 Q271.875,1058.0938 271.5313,1058.5 Q271.0313,1059.0781 270.2344,1059.4063 Q269.1563,1059.8594 267.8594,1059.8594 Q266.3438,1059.8594 265.1406,1059.2344 Q264.1563,1058.7344 263.4688,1057.6719 Q262.7813,1056.5938 262.7813,1055.3125 L262.7813,1054.1563 Q262.7813,1052.8281 263.3906,1051.6875 Q264.0156,1050.5313 265.1094,1049.9219 Q266.2031,1049.2969 267.4375,1049.2969 Q268.1719,1049.2969 268.8125,1049.4688 Q269.4688,1049.625 270.0156,1049.9844 Z " fill="#000000"/><text fill="#000000" font-family="sans-serif" font-size="14" lengthAdjust="spacing" textLength="54" x="287.75" y="1059.8379">Profesor</text><line style="stroke:#181818;stroke-width:0.5;" x1="221" x2="376" y1="1070.1094" y2="1070.1094"/><ellipse cx="231" cy="1084.4141" fill="none" rx="3" ry="3" style="stroke:#038048;stroke-width:1.0;"/><text fill="#000000" font-family="sans-serif" font-size="14" lengthAdjust="spacing" textLength="50" x="240" y="1088.6426">id: UUID</text><ellipse cx="231" cy="1102.0234" fill="none" rx="3" ry="3" style="stroke:#038048;stroke-width:1.0;"/><text fill="#000000" font-family="sans-serif" font-size="14" lengthAdjust="spacing" textLength="85" x="240" y="1106.252">codigo: string</text><ellipse cx="231" cy="1119.6328" fill="none" rx="3" ry="3" style="stroke:#038048;stroke-width:1.0;"/><text fill="#000000" font-family="sans-serif" font-size="14" lengthAdjust="spacing" textLength="91" x="240" y="1123.8613">nombre: string</text><ellipse cx="231" cy="1137.2422" fill="none" rx="3" ry="3" style="stroke:#038048;stroke-width:1.0;"/><text fill="#000000" font-family="sans-serif" font-size="14" lengthAdjust="spacing" textLength="99" x="240" y="1141.4707">apellidos: string</text><ellipse cx="231" cy="1154.8516" fill="none" rx="3" ry="3" style="stroke:#038048;stroke-width:1.0;"/><text fill="#000000" font-family="sans-serif" font-size="14" lengthAdjust="spacing" textLength="76" x="240" y="1159.0801">email: string</text><ellipse cx="231" cy="1172.4609" fill="none" rx="3" ry="3" style="stroke:#038048;stroke-width:1.0;"/><text fill="#000000" font-family="sans-serif" font-size="14" lengthAdjust="spacing" textLength="131" x="240" y="1176.6895">departamento: string</text><line style="stroke:#181818;stroke-width:0.5;" x1="221" x2="376" y1="1183.7656" y2="1183.7656"/></g><!--class Alumno--><g id="elem_Alumno"><rect codeLine="40" fill="#F1F1F1" height="136.0469" id="Alumno" rx="2.5" ry="2.5" style="stroke:#181818;stroke-width:0.5;" width="138" x="758.5" y="1047.1094"/><ellipse cx="800.05" cy="1063.1094" fill="#ADD1B2" rx="11" ry="11" style="stroke:#181818;stroke-width:1.0;"/><path d="M802.8156,1058.9844 Q802.9719,1058.7656 803.1594,1058.6563 Q803.3469,1058.5469 803.5656,1058.5469 Q803.9406,1058.5469 804.175,1058.8125 Q804.4094,1059.0625 804.4094,1059.6719 L804.4094,1061.125 Q804.4094,1061.7344 804.175,1062 Q803.9406,1062.2656 803.5656,1062.2656 Q803.2219,1062.2656 803.0188,1062.0625 Q802.8156,1061.875 802.7063,1061.3594 Q802.6594,1061 802.4719,1060.8125 Q802.1438,1060.4375 801.5344,1060.2188 Q800.925,1060 800.3,1060 Q799.5344,1060 798.8938,1060.3281 Q798.2688,1060.6563 797.7688,1061.4063 Q797.2844,1062.1563 797.2844,1063.1875 L797.2844,1064.2813 Q797.2844,1065.5156 798.175,1066.3438 Q799.0656,1067.1563 800.6594,1067.1563 Q801.5969,1067.1563 802.2531,1066.9063 Q802.6438,1066.75 803.0656,1066.3125 Q803.3313,1066.0469 803.4719,1065.9688 Q803.6281,1065.8906 803.8313,1065.8906 Q804.1594,1065.8906 804.4094,1066.1563 Q804.675,1066.4063 804.675,1066.75 Q804.675,1067.0938 804.3313,1067.5 Q803.8313,1068.0781 803.0344,1068.4063 Q801.9563,1068.8594 800.6594,1068.8594 Q799.1438,1068.8594 797.9406,1068.2344 Q796.9563,1067.7344 796.2688,1066.6719 Q795.5813,1065.5938 795.5813,1064.3125 L795.5813,1063.1563 Q795.5813,1061.8281 796.1906,1060.6875 Q796.8156,1059.5313 797.9094,1058.9219 Q799.0031,1058.2969 800.2375,1058.2969 Q800.9719,1058.2969 801.6125,1058.4688 Q802.2688,1058.625 802.8156,1058.9844 Z " fill="#000000"/><text fill="#000000" font-family="sans-serif" font-size="14" lengthAdjust="spacing" textLength="47" x="819.95" y="1068.8379">Alumno</text><line style="stroke:#181818;stroke-width:0.5;" x1="759.5" x2="895.5" y1="1079.1094" y2="1079.1094"/><ellipse cx="769.5" cy="1093.4141" fill="none" rx="3" ry="3" style="stroke:#038048;stroke-width:1.0;"/><text fill="#000000" font-family="sans-serif" font-size="14" lengthAdjust="spacing" textLength="50" x="778.5" y="1097.6426">id: UUID</text><ellipse cx="769.5" cy="1111.0234" fill="none" rx="3" ry="3" style="stroke:#038048;stroke-width:1.0;"/><text fill="#000000" font-family="sans-serif" font-size="14" lengthAdjust="spacing" textLength="112" x="778.5" y="1115.252">expediente: string</text><ellipse cx="769.5" cy="1128.6328" fill="none" rx="3" ry="3" style="stroke:#038048;stroke-width:1.0;"/><text fill="#000000" font-family="sans-serif" font-size="14" lengthAdjust="spacing" textLength="91" x="778.5" y="1132.8613">nombre: string</text><ellipse cx="769.5" cy="1146.2422" fill="none" rx="3" ry="3" style="stroke:#038048;stroke-width:1.0;"/><text fill="#000000" font-family="sans-serif" font-size="14" lengthAdjust="spacing" textLength="99" x="778.5" y="1150.4707">apellidos: string</text><ellipse cx="769.5" cy="1163.8516" fill="none" rx="3" ry="3" style="stroke:#038048;stroke-width:1.0;"/><text fill="#000000" font-family="sans-serif" font-size="14" lengthAdjust="spacing" textLength="76" x="778.5" y="1168.0801">email: string</text><line style="stroke:#181818;stroke-width:0.5;" x1="759.5" x2="895.5" y1="1175.1563" y2="1175.1563"/></g><!--class Aula--><g id="elem_Aula"><rect codeLine="48" fill="#F1F1F1" height="171.2656" id="Aula" rx="2.5" ry="2.5" style="stroke:#181818;stroke-width:0.5;" width="147" x="576" y="1029.6094"/><ellipse cx="631.25" cy="1045.6094" fill="#ADD1B2" rx="11" ry="11" style="stroke:#181818;stroke-width:1.0;"/><path d="M634.0156,1041.4844 Q634.1719,1041.2656 634.3594,1041.1563 Q634.5469,1041.0469 634.7656,1041.0469 Q635.1406,1041.0469 635.375,1041.3125 Q635.6094,1041.5625 635.6094,1042.1719 L635.6094,1043.625 Q635.6094,1044.2344 635.375,1044.5 Q635.1406,1044.7656 634.7656,1044.7656 Q634.4219,1044.7656 634.2188,1044.5625 Q634.0156,1044.375 633.9063,1043.8594 Q633.8594,1043.5 633.6719,1043.3125 Q633.3438,1042.9375 632.7344,1042.7188 Q632.125,1042.5 631.5,1042.5 Q630.7344,1042.5 630.0938,1042.8281 Q629.4688,1043.1563 628.9688,1043.9063 Q628.4844,1044.6563 628.4844,1045.6875 L628.4844,1046.7813 Q628.4844,1048.0156 629.375,1048.8438 Q630.2656,1049.6563 631.8594,1049.6563 Q632.7969,1049.6563 633.4531,1049.4063 Q633.8438,1049.25 634.2656,1048.8125 Q634.5313,1048.5469 634.6719,1048.4688 Q634.8281,1048.3906 635.0313,1048.3906 Q635.3594,1048.3906 635.6094,1048.6563 Q635.875,1048.9063 635.875,1049.25 Q635.875,1049.5938 635.5313,1050 Q635.0313,1050.5781 634.2344,1050.9063 Q633.1563,1051.3594 631.8594,1051.3594 Q630.3438,1051.3594 629.1406,1050.7344 Q628.1563,1050.2344 627.4688,1049.1719 Q626.7813,1048.0938 626.7813,1046.8125 L626.7813,1045.6563 Q626.7813,1044.3281 627.3906,1043.1875 Q628.0156,1042.0313 629.1094,1041.4219 Q630.2031,1040.7969 631.4375,1040.7969 Q632.1719,1040.7969 632.8125,1040.9688 Q633.4688,1041.125 634.0156,1041.4844 Z " fill="#000000"/><text fill="#000000" font-family="sans-serif" font-size="14" lengthAdjust="spacing" textLength="28" x="651.75" y="1051.3379">Aula</text><line style="stroke:#181818;stroke-width:0.5;" x1="577" x2="722" y1="1061.6094" y2="1061.6094"/><ellipse cx="587" cy="1075.9141" fill="none" rx="3" ry="3" style="stroke:#038048;stroke-width:1.0;"/><text fill="#000000" font-family="sans-serif" font-size="14" lengthAdjust="spacing" textLength="50" x="596" y="1080.1426">id: UUID</text><ellipse cx="587" cy="1093.5234" fill="none" rx="3" ry="3" style="stroke:#038048;stroke-width:1.0;"/><text fill="#000000" font-family="sans-serif" font-size="14" lengthAdjust="spacing" textLength="85" x="596" y="1097.752">codigo: string</text><ellipse cx="587" cy="1111.1328" fill="none" rx="3" ry="3" style="stroke:#038048;stroke-width:1.0;"/><text fill="#000000" font-family="sans-serif" font-size="14" lengthAdjust="spacing" textLength="91" x="596" y="1115.3613">nombre: string</text><ellipse cx="587" cy="1128.7422" fill="none" rx="3" ry="3" style="stroke:#038048;stroke-width:1.0;"/><text fill="#000000" font-family="sans-serif" font-size="14" lengthAdjust="spacing" textLength="121" x="596" y="1132.9707">capacidad: number</text><ellipse cx="587" cy="1146.3516" fill="none" rx="3" ry="3" style="stroke:#038048;stroke-width:1.0;"/><text fill="#000000" font-family="sans-serif" font-size="14" lengthAdjust="spacing" textLength="87" x="596" y="1150.5801">edificio: string</text><ellipse cx="587" cy="1163.9609" fill="none" rx="3" ry="3" style="stroke:#038048;stroke-width:1.0;"/><text fill="#000000" font-family="sans-serif" font-size="14" lengthAdjust="spacing" textLength="82" x="596" y="1168.1895">planta: string</text><ellipse cx="587" cy="1181.5703" fill="none" rx="3" ry="3" style="stroke:#038048;stroke-width:1.0;"/><text fill="#000000" font-family="sans-serif" font-size="14" lengthAdjust="spacing" textLength="66" x="596" y="1185.7988">tipo: string</text><line style="stroke:#181818;stroke-width:0.5;" x1="577" x2="722" y1="1192.875" y2="1192.875"/></g><!--class Examen--><g id="elem_Examen"><rect codeLine="58" fill="#F1F1F1" height="153.6563" id="Examen" rx="2.5" ry="2.5" style="stroke:#181818;stroke-width:0.5;" width="171" x="467" y="797.6094"/><ellipse cx="523.25" cy="813.6094" fill="#ADD1B2" rx="11" ry="11" style="stroke:#181818;stroke-width:1.0;"/><path d="M526.0156,809.4844 Q526.1719,809.2656 526.3594,809.1563 Q526.5469,809.0469 526.7656,809.0469 Q527.1406,809.0469 527.375,809.3125 Q527.6094,809.5625 527.6094,810.1719 L527.6094,811.625 Q527.6094,812.2344 527.375,812.5 Q527.1406,812.7656 526.7656,812.7656 Q526.4219,812.7656 526.2188,812.5625 Q526.0156,812.375 525.9063,811.8594 Q525.8594,811.5 525.6719,811.3125 Q525.3438,810.9375 524.7344,810.7188 Q524.125,810.5 523.5,810.5 Q522.7344,810.5 522.0938,810.8281 Q521.4688,811.1563 520.9688,811.9063 Q520.4844,812.6563 520.4844,813.6875 L520.4844,814.7813 Q520.4844,816.0156 521.375,816.8438 Q522.2656,817.6563 523.8594,817.6563 Q524.7969,817.6563 525.4531,817.4063 Q525.8438,817.25 526.2656,816.8125 Q526.5313,816.5469 526.6719,816.4688 Q526.8281,816.3906 527.0313,816.3906 Q527.3594,816.3906 527.6094,816.6563 Q527.875,816.9063 527.875,817.25 Q527.875,817.5938 527.5313,818 Q527.0313,818.5781 526.2344,818.9063 Q525.1563,819.3594 523.8594,819.3594 Q522.3438,819.3594 521.1406,818.7344 Q520.1563,818.2344 519.4688,817.1719 Q518.7813,816.0938 518.7813,814.8125 L518.7813,813.6563 Q518.7813,812.3281 519.3906,811.1875 Q520.0156,810.0313 521.1094,809.4219 Q522.2031,808.7969 523.4375,808.7969 Q524.1719,808.7969 524.8125,808.9688 Q525.4688,809.125 526.0156,809.4844 Z " fill="#000000"/><text fill="#000000" font-family="sans-serif" font-size="14" lengthAdjust="spacing" textLength="50" x="543.75" y="819.3379">Examen</text><line style="stroke:#181818;stroke-width:0.5;" x1="468" x2="637" y1="829.6094" y2="829.6094"/><ellipse cx="478" cy="843.9141" fill="none" rx="3" ry="3" style="stroke:#038048;stroke-width:1.0;"/><text fill="#000000" font-family="sans-serif" font-size="14" lengthAdjust="spacing" textLength="50" x="487" y="848.1426">id: UUID</text><ellipse cx="478" cy="861.5234" fill="none" rx="3" ry="3" style="stroke:#038048;stroke-width:1.0;"/><text fill="#000000" font-family="sans-serif" font-size="14" lengthAdjust="spacing" textLength="73" x="487" y="865.752">fecha: Date</text><ellipse cx="478" cy="879.1328" fill="none" rx="3" ry="3" style="stroke:#038048;stroke-width:1.0;"/><text fill="#000000" font-family="sans-serif" font-size="14" lengthAdjust="spacing" textLength="117" x="487" y="883.3613">asignaturaId: UUID</text><ellipse cx="478" cy="896.7422" fill="none" rx="3" ry="3" style="stroke:#038048;stroke-width:1.0;"/><text fill="#000000" font-family="sans-serif" font-size="14" lengthAdjust="spacing" textLength="77" x="487" y="900.9707">aulaId: UUID</text><ellipse cx="478" cy="914.3516" fill="none" rx="3" ry="3" style="stroke:#038048;stroke-width:1.0;"/><text fill="#000000" font-family="sans-serif" font-size="14" lengthAdjust="spacing" textLength="116" x="487" y="918.5801">supervisorId: UUID</text><ellipse cx="478" cy="931.9609" fill="none" rx="3" ry="3" style="stroke:#038048;stroke-width:1.0;"/><text fill="#000000" font-family="sans-serif" font-size="14" lengthAdjust="spacing" textLength="145" x="487" y="936.1895">estado: ExamenEstado</text><line style="stroke:#181818;stroke-width:0.5;" x1="468" x2="637" y1="943.2656" y2="943.2656"/></g><!--class ExamenEstado--><g id="elem_ExamenEstado"><rect codeLine="67" fill="#F1F1F1" height="118.4375" id="ExamenEstado" rx="2.5" ry="2.5" style="stroke:#181818;stroke-width:0.5;" width="126" x="305.5" y="80.6094"/><ellipse cx="320.5" cy="96.6094" fill="#EB937F" rx="11" ry="11" style="stroke:#181818;stroke-width:1.0;"/><path d="M319.3594,97.4063 L319.3594,99.9063 L323.6875,99.9063 L323.6875,98.9844 Q323.6875,98.375 323.9219,98.1094 Q324.1719,97.8438 324.5469,97.8438 Q324.9219,97.8438 325.1563,98.1094 Q325.3906,98.375 325.3906,98.9844 L325.3906,101.6094 L317.3906,101.6094 Q316.7656,101.6094 316.5,101.375 Q316.25,101.1406 316.25,100.75 Q316.25,100.375 316.5156,100.1406 Q316.7813,99.9063 317.3906,99.9063 L317.6563,99.9063 L317.6563,93.25 L317.3906,93.25 Q316.7656,93.25 316.5,93.0156 Q316.25,92.7813 316.25,92.3906 Q316.25,92.0156 316.5,91.7813 Q316.7656,91.5469 317.3906,91.5469 L325.0156,91.5469 L325.0156,94.1406 Q325.0156,94.75 324.7813,95.0156 Q324.5625,95.2656 324.1719,95.2656 Q323.7969,95.2656 323.5625,95.0156 Q323.3281,94.75 323.3281,94.1406 L323.3281,93.25 L319.3594,93.25 L319.3594,95.7031 L320.8438,95.7031 Q320.8438,95.0469 320.9688,94.8594 Q321.2344,94.4531 321.7031,94.4531 Q322.0781,94.4531 322.3125,94.7188 Q322.5469,94.9688 322.5469,95.5781 L322.5469,97.5469 Q322.5469,98.0938 322.4219,98.2813 Q322.1563,98.6719 321.7031,98.6719 Q321.2344,98.6719 320.9688,98.2656 Q320.8438,98.0781 320.8438,97.4063 L319.3594,97.4063 Z " fill="#000000"/><text fill="#000000" font-family="sans-serif" font-size="14" lengthAdjust="spacing" textLength="94" x="334.5" y="102.3379">ExamenEstado</text><line style="stroke:#181818;stroke-width:0.5;" x1="306.5" x2="430.5" y1="112.6094" y2="112.6094"/><text fill="#000000" font-family="sans-serif" font-size="14" lengthAdjust="spacing" textLength="76" x="311.5" y="131.1426">PENDIENTE</text><text fill="#000000" font-family="sans-serif" font-size="14" lengthAdjust="spacing" textLength="101" x="311.5" y="148.752">PROGRAMADO</text><text fill="#000000" font-family="sans-serif" font-size="14" lengthAdjust="spacing" textLength="79" x="311.5" y="166.3613">FINALIZADO</text><text fill="#000000" font-family="sans-serif" font-size="14" lengthAdjust="spacing" textLength="85" x="311.5" y="183.9707">CANCELADO</text><line style="stroke:#181818;stroke-width:0.5;" x1="306.5" x2="430.5" y1="191.0469" y2="191.0469"/></g><!--class FranjaHoraria--><g id="elem_FranjaHoraria"><rect codeLine="74" fill="#F1F1F1" height="118.4375" id="FranjaHoraria" rx="2.5" ry="2.5" style="stroke:#181818;stroke-width:0.5;" width="129" x="412" y="1056.1094"/><ellipse cx="431.5" cy="1072.1094" fill="#ADD1B2" rx="11" ry="11" style="stroke:#181818;stroke-width:1.0;"/><path d="M434.2656,1067.9844 Q434.4219,1067.7656 434.6094,1067.6563 Q434.7969,1067.5469 435.0156,1067.5469 Q435.3906,1067.5469 435.625,1067.8125 Q435.8594,1068.0625 435.8594,1068.6719 L435.8594,1070.125 Q435.8594,1070.7344 435.625,1071 Q435.3906,1071.2656 435.0156,1071.2656 Q434.6719,1071.2656 434.4688,1071.0625 Q434.2656,1070.875 434.1563,1070.3594 Q434.1094,1070 433.9219,1069.8125 Q433.5938,1069.4375 432.9844,1069.2188 Q432.375,1069 431.75,1069 Q430.9844,1069 430.3438,1069.3281 Q429.7188,1069.6563 429.2188,1070.4063 Q428.7344,1071.1563 428.7344,1072.1875 L428.7344,1073.2813 Q428.7344,1074.5156 429.625,1075.3438 Q430.5156,1076.1563 432.1094,1076.1563 Q433.0469,1076.1563 433.7031,1075.9063 Q434.0938,1075.75 434.5156,1075.3125 Q434.7813,1075.0469 434.9219,1074.9688 Q435.0781,1074.8906 435.2813,1074.8906 Q435.6094,1074.8906 435.8594,1075.1563 Q436.125,1075.4063 436.125,1075.75 Q436.125,1076.0938 435.7813,1076.5 Q435.2813,1077.0781 434.4844,1077.4063 Q433.4063,1077.8594 432.1094,1077.8594 Q430.5938,1077.8594 429.3906,1077.2344 Q428.4063,1076.7344 427.7188,1075.6719 Q427.0313,1074.5938 427.0313,1073.3125 L427.0313,1072.1563 Q427.0313,1070.8281 427.6406,1069.6875 Q428.2656,1068.5313 429.3594,1067.9219 Q430.4531,1067.2969 431.6875,1067.2969 Q432.4219,1067.2969 433.0625,1067.4688 Q433.7188,1067.625 434.2656,1067.9844 Z " fill="#000000"/><text fill="#000000" font-family="sans-serif" font-size="14" lengthAdjust="spacing" textLength="87" x="446.5" y="1077.8379">FranjaHoraria</text><line style="stroke:#181818;stroke-width:0.5;" x1="413" x2="540" y1="1088.1094" y2="1088.1094"/><ellipse cx="423" cy="1102.4141" fill="none" rx="3" ry="3" style="stroke:#038048;stroke-width:1.0;"/><text fill="#000000" font-family="sans-serif" font-size="14" lengthAdjust="spacing" textLength="50" x="432" y="1106.6426">id: UUID</text><ellipse cx="423" cy="1120.0234" fill="none" rx="3" ry="3" style="stroke:#038048;stroke-width:1.0;"/><text fill="#000000" font-family="sans-serif" font-size="14" lengthAdjust="spacing" textLength="103" x="432" y="1124.252">dia: DayOfWeek</text><ellipse cx="423" cy="1137.6328" fill="none" rx="3" ry="3" style="stroke:#038048;stroke-width:1.0;"/><text fill="#000000" font-family="sans-serif" font-size="14" lengthAdjust="spacing" textLength="100" x="432" y="1141.8613">horaInicio: Time</text><ellipse cx="423" cy="1155.2422" fill="none" rx="3" ry="3" style="stroke:#038048;stroke-width:1.0;"/><text fill="#000000" font-family="sans-serif" font-size="14" lengthAdjust="spacing" textLength="88" x="432" y="1159.4707">horaFin: Time</text><line style="stroke:#181818;stroke-width:0.5;" x1="413" x2="540" y1="1166.5469" y2="1166.5469"/></g><!--class CreateExamenDTO--><g id="elem_CreateExamenDTO"><rect codeLine="84" fill="#F1F1F1" height="83.2188" id="CreateExamenDTO" rx="2.5" ry="2.5" style="stroke:#181818;stroke-width:0.5;" width="155" x="1145" y="98.1094"/><ellipse cx="1160" cy="114.1094" fill="#ADD1B2" rx="11" ry="11" style="stroke:#181818;stroke-width:1.0;"/><path d="M1162.7656,109.9844 Q1162.9219,109.7656 1163.1094,109.6563 Q1163.2969,109.5469 1163.5156,109.5469 Q1163.8906,109.5469 1164.125,109.8125 Q1164.3594,110.0625 1164.3594,110.6719 L1164.3594,112.125 Q1164.3594,112.7344 1164.125,113 Q1163.8906,113.2656 1163.5156,113.2656 Q1163.1719,113.2656 1162.9688,113.0625 Q1162.7656,112.875 1162.6563,112.3594 Q1162.6094,112 1162.4219,111.8125 Q1162.0938,111.4375 1161.4844,111.2188 Q1160.875,111 1160.25,111 Q1159.4844,111 1158.8438,111.3281 Q1158.2188,111.6563 1157.7188,112.4063 Q1157.2344,113.1563 1157.2344,114.1875 L1157.2344,115.2813 Q1157.2344,116.5156 1158.125,117.3438 Q1159.0156,118.1563 1160.6094,118.1563 Q1161.5469,118.1563 1162.2031,117.9063 Q1162.5938,117.75 1163.0156,117.3125 Q1163.2813,117.0469 1163.4219,116.9688 Q1163.5781,116.8906 1163.7813,116.8906 Q1164.1094,116.8906 1164.3594,117.1563 Q1164.625,117.4063 1164.625,117.75 Q1164.625,118.0938 1164.2813,118.5 Q1163.7813,119.0781 1162.9844,119.4063 Q1161.9063,119.8594 1160.6094,119.8594 Q1159.0938,119.8594 1157.8906,119.2344 Q1156.9063,118.7344 1156.2188,117.6719 Q1155.5313,116.5938 1155.5313,115.3125 L1155.5313,114.1563 Q1155.5313,112.8281 1156.1406,111.6875 Q1156.7656,110.5313 1157.8594,109.9219 Q1158.9531,109.2969 1160.1875,109.2969 Q1160.9219,109.2969 1161.5625,109.4688 Q1162.2188,109.625 1162.7656,109.9844 Z " fill="#000000"/><text fill="#000000" font-family="sans-serif" font-size="14" lengthAdjust="spacing" textLength="123" x="1174" y="119.8379">CreateExamenDTO</text><line style="stroke:#181818;stroke-width:0.5;" x1="1146" x2="1299" y1="130.1094" y2="130.1094"/><ellipse cx="1156" cy="144.4141" fill="none" rx="3" ry="3" style="stroke:#038048;stroke-width:1.0;"/><text fill="#000000" font-family="sans-serif" font-size="14" lengthAdjust="spacing" textLength="117" x="1165" y="148.6426">asignaturaId: UUID</text><ellipse cx="1156" cy="162.0234" fill="none" rx="3" ry="3" style="stroke:#038048;stroke-width:1.0;"/><text fill="#000000" font-family="sans-serif" font-size="14" lengthAdjust="spacing" textLength="73" x="1165" y="166.252">fecha: Date</text><line style="stroke:#181818;stroke-width:0.5;" x1="1146" x2="1299" y1="173.3281" y2="173.3281"/></g><!--class UpdateExamenDTO--><g id="elem_UpdateExamenDTO"><rect codeLine="89" fill="#F1F1F1" height="100.8281" id="UpdateExamenDTO" rx="2.5" ry="2.5" style="stroke:#181818;stroke-width:0.5;" width="157" x="953" y="89.1094"/><ellipse cx="968" cy="105.1094" fill="#ADD1B2" rx="11" ry="11" style="stroke:#181818;stroke-width:1.0;"/><path d="M970.7656,100.9844 Q970.9219,100.7656 971.1094,100.6563 Q971.2969,100.5469 971.5156,100.5469 Q971.8906,100.5469 972.125,100.8125 Q972.3594,101.0625 972.3594,101.6719 L972.3594,103.125 Q972.3594,103.7344 972.125,104 Q971.8906,104.2656 971.5156,104.2656 Q971.1719,104.2656 970.9688,104.0625 Q970.7656,103.875 970.6563,103.3594 Q970.6094,103 970.4219,102.8125 Q970.0938,102.4375 969.4844,102.2188 Q968.875,102 968.25,102 Q967.4844,102 966.8438,102.3281 Q966.2188,102.6563 965.7188,103.4063 Q965.2344,104.1563 965.2344,105.1875 L965.2344,106.2813 Q965.2344,107.5156 966.125,108.3438 Q967.0156,109.1563 968.6094,109.1563 Q969.5469,109.1563 970.2031,108.9063 Q970.5938,108.75 971.0156,108.3125 Q971.2813,108.0469 971.4219,107.9688 Q971.5781,107.8906 971.7813,107.8906 Q972.1094,107.8906 972.3594,108.1563 Q972.625,108.4063 972.625,108.75 Q972.625,109.0938 972.2813,109.5 Q971.7813,110.0781 970.9844,110.4063 Q969.9063,110.8594 968.6094,110.8594 Q967.0938,110.8594 965.8906,110.2344 Q964.9063,109.7344 964.2188,108.6719 Q963.5313,107.5938 963.5313,106.3125 L963.5313,105.1563 Q963.5313,103.8281 964.1406,102.6875 Q964.7656,101.5313 965.8594,100.9219 Q966.9531,100.2969 968.1875,100.2969 Q968.9219,100.2969 969.5625,100.4688 Q970.2188,100.625 970.7656,100.9844 Z " fill="#000000"/><text fill="#000000" font-family="sans-serif" font-size="14" lengthAdjust="spacing" textLength="125" x="982" y="110.8379">UpdateExamenDTO</text><line style="stroke:#181818;stroke-width:0.5;" x1="954" x2="1109" y1="121.1094" y2="121.1094"/><ellipse cx="964" cy="135.4141" fill="none" rx="3" ry="3" style="stroke:#038048;stroke-width:1.0;"/><text fill="#000000" font-family="sans-serif" font-size="14" lengthAdjust="spacing" textLength="77" x="973" y="139.6426">aulaId: UUID</text><ellipse cx="964" cy="153.0234" fill="none" rx="3" ry="3" style="stroke:#038048;stroke-width:1.0;"/><text fill="#000000" font-family="sans-serif" font-size="14" lengthAdjust="spacing" textLength="116" x="973" y="157.252">supervisorId: UUID</text><ellipse cx="964" cy="170.6328" fill="none" rx="3" ry="3" style="stroke:#038048;stroke-width:1.0;"/><text fill="#000000" font-family="sans-serif" font-size="14" lengthAdjust="spacing" textLength="73" x="973" y="174.8613">fecha: Date</text><line style="stroke:#181818;stroke-width:0.5;" x1="954" x2="1109" y1="181.9375" y2="181.9375"/></g><path d="M8.5,112.1094 L170.5,112.1094 A3.75,3.75 0 0 1 173,114.6094 L180,135.7188 L184.5,135.7188 A2.5,2.5 0 0 1 187,138.2188 L187,164.8281 A2.5,2.5 0 0 1 184.5,167.3281 L8.5,167.3281 A2.5,2.5 0 0 1 6,164.8281 L6,114.6094 A2.5,2.5 0 0 1 8.5,112.1094 " fill="#F1F1F1" style="stroke:#181818;stroke-width:0.5;"/><line style="stroke:#181818;stroke-width:0.5;" x1="6" x2="180" y1="135.7188" y2="135.7188"/><text fill="#000000" font-family="sans-serif" font-size="14" font-weight="bold" lengthAdjust="spacing" textLength="161" x="10" y="128.6426">Relaciones de Dominio</text><!--reverse link Universidad to Facultad--><g id="link_Universidad_Facultad"><path codeLine="98" d="M552.5,193.3994 C552.5,216.8694 552.5,234.5394 552.5,259.3794 " fill="none" id="Universidad-backto-Facultad" style="stroke:#181818;stroke-width:1.0;"/><polygon fill="#181818" points="552.5,181.3994,548.5,187.3994,552.5,193.3994,556.5,187.3994,552.5,181.3994" style="stroke:#181818;stroke-width:1.0;"/><text fill="#000000" font-family="sans-serif" font-size="13" lengthAdjust="spacing" textLength="7" x="544.9422" y="202.8404">1</text><text fill="#000000" font-family="sans-serif" font-size="13" lengthAdjust="spacing" textLength="5" x="547.1484" y="248.6524">*</text></g><!--reverse link Facultad to Grado--><g id="link_Facultad_Grado"><path codeLine="99" d="M552.5,372.8594 C552.5,392.1194 552.5,402.1294 552.5,421.3894 " fill="none" id="Facultad-backto-Grado" style="stroke:#181818;stroke-width:1.0;"/><polygon fill="#181818" points="552.5,360.8594,548.5,366.8594,552.5,372.8594,556.5,366.8594,552.5,360.8594" style="stroke:#181818;stroke-width:1.0;"/><text fill="#000000" font-family="sans-serif" font-size="13" lengthAdjust="spacing" textLength="7" x="545.0516" y="381.9154">1</text><text fill="#000000" font-family="sans-serif" font-size="13" lengthAdjust="spacing" textLength="5" x="547.1484" y="410.6638">*</text></g><!--reverse link Grado to Asignatura--><g id="link_Grado_Asignatura"><path codeLine="100" d="M552.5,535.0294 C552.5,553.7894 552.5,563.4394 552.5,583.5194 " fill="none" id="Grado-backto-Asignatura" style="stroke:#181818;stroke-width:1.0;"/><polygon fill="#181818" points="552.5,523.0294,548.5,529.0294,552.5,535.0294,556.5,529.0294,552.5,523.0294" style="stroke:#181818;stroke-width:1.0;"/><text fill="#000000" font-family="sans-serif" font-size="13" lengthAdjust="spacing" textLength="7" x="545.0516" y="544.1071">1</text><text fill="#000000" font-family="sans-serif" font-size="13" lengthAdjust="spacing" textLength="5" x="547.2266" y="572.7088">*</text></g><!--reverse link Asignatura to Profesor--><g id="link_Asignatura_Profesor"><path codeLine="102" d="M476.0864,697.0216 C437.2764,722.4816 400.58,752.9294 372.5,797.6094 C326.4,870.9394 308.98,970.1294 302.42,1037.7894 " fill="none" id="Asignatura-backto-Profesor" style="stroke:#181818;stroke-width:1.0;"/><polygon fill="none" points="486.12,690.4394,478.9091,690.3859,476.0864,697.0216,483.2973,697.075,486.12,690.4394" style="stroke:#181818;stroke-width:1.0;"/><text fill="#000000" font-family="sans-serif" font-size="13" lengthAdjust="spacing" textLength="75" x="373.5" y="880.1045">impartida por</text><text fill="#000000" font-family="sans-serif" font-size="13" lengthAdjust="spacing" textLength="5" x="473.5863" y="691.3232">*</text><text fill="#000000" font-family="sans-serif" font-size="13" lengthAdjust="spacing" textLength="5" x="297.5553" y="1027.1856">*</text></g><!--reverse link Asignatura to Alumno--><g id="link_Asignatura_Alumno"><path codeLine="103" d="M627.3789,718.6292 C640.1689,731.0492 644.42,736.1394 655.5,749.6094 C732.91,843.6794 756.57,868.3694 801.5,981.6094 C809.67,1002.1994 815.35,1025.6494 819.27,1047.0294 " fill="none" id="Asignatura-backto-Alumno" style="stroke:#181818;stroke-width:1.0;"/><polygon fill="none" points="618.77,710.2694,620.2878,717.3189,627.3789,718.6292,625.8611,711.5797,618.77,710.2694" style="stroke:#181818;stroke-width:1.0;"/><text fill="#000000" font-family="sans-serif" font-size="13" lengthAdjust="spacing" textLength="67" x="789.5" y="880.1045">inscritos en</text><text fill="#000000" font-family="sans-serif" font-size="13" lengthAdjust="spacing" textLength="7" x="626.4011" y="713.3221">1</text><text fill="#000000" font-family="sans-serif" font-size="13" lengthAdjust="spacing" textLength="5" x="813.0964" y="1036.2199">*</text></g><!--reverse link Asignatura to Examen--><g id="link_Asignatura_Examen"><path codeLine="104" d="M552.5,731.8194 C552.5,756.3294 552.5,772.2094 552.5,797.4394 " fill="none" id="Asignatura-backto-Examen" style="stroke:#181818;stroke-width:1.0;"/><polygon fill="none" points="552.5,719.8194,548.5,725.8194,552.5,731.8194,556.5,725.8194,552.5,719.8194" style="stroke:#181818;stroke-width:1.0;"/><text fill="#000000" font-family="sans-serif" font-size="13" lengthAdjust="spacing" textLength="93" x="553.5" y="764.1045">eval&#250;a mediante</text><text fill="#000000" font-family="sans-serif" font-size="13" lengthAdjust="spacing" textLength="7" x="545.1391" y="741.1894">1</text><text fill="#000000" font-family="sans-serif" font-size="13" lengthAdjust="spacing" textLength="5" x="547.2617" y="786.8499">*</text></g><!--link Examen to Aula--><g id="link_Examen_Aula"><path codeLine="106" d="M583.46,951.7294 C593.49,976.3994 602.4291,998.3717 612.7091,1023.6417 " fill="none" id="Examen-to-Aula" style="stroke:#181818;stroke-width:1.0;"/><polygon fill="#181818" points="614.97,1029.1994,615.2838,1019.3555,613.0859,1024.5679,607.8735,1022.3701,614.97,1029.1994" style="stroke:#181818;stroke-width:1.0;"/><text fill="#000000" font-family="sans-serif" font-size="13" lengthAdjust="spacing" textLength="74" x="601.5" y="996.1045">se realiza en</text><text fill="#000000" font-family="sans-serif" font-size="13" lengthAdjust="spacing" textLength="7" x="578.9057" y="972.8365">1</text><text fill="#000000" font-family="sans-serif" font-size="13" lengthAdjust="spacing" textLength="22" x="589.0573" y="1018.6278">0..1</text></g><!--link Examen to Profesor--><g id="link_Examen_Profesor"><path codeLine="107" d="M466.62,915.5494 C435.46,932.8494 401.54,955.2194 375.5,981.6094 C359.43,997.8994 348.4659,1012.9966 337.0159,1032.7766 " fill="none" id="Examen-to-Profesor" style="stroke:#181818;stroke-width:1.0;"/><polygon fill="#181818" points="334.01,1037.9694,341.9807,1032.1842,336.5149,1033.6421,335.057,1028.1763,334.01,1037.9694" style="stroke:#181818;stroke-width:1.0;"/><text fill="#000000" font-family="sans-serif" font-size="13" lengthAdjust="spacing" textLength="90" x="376.5" y="996.1045">supervisado por</text><text fill="#000000" font-family="sans-serif" font-size="13" lengthAdjust="spacing" textLength="7" x="451.9389" y="915.9052">1</text><text fill="#000000" font-family="sans-serif" font-size="13" lengthAdjust="spacing" textLength="22" x="314.3461" y="1027.3827">0..1</text></g><!--link Examen to FranjaHoraria--><g id="link_Examen_FranjaHoraria"><path codeLine="108" d="M493.66,951.7094 C488.38,961.3794 483.79,971.4494 480.5,981.6094 C472.87,1005.1394 470.866,1026.28 471.196,1049.84 " fill="none" id="Examen-to-FranjaHoraria" style="stroke:#181818;stroke-width:1.0;"/><polygon fill="#181818" points="471.28,1055.8394,475.1536,1046.7842,471.21,1050.8399,467.1543,1046.8963,471.28,1055.8394" style="stroke:#181818;stroke-width:1.0;"/><text fill="#000000" font-family="sans-serif" font-size="13" lengthAdjust="spacing" textLength="86" x="481.5" y="996.1045">programado en</text><text fill="#000000" font-family="sans-serif" font-size="13" lengthAdjust="spacing" textLength="5" x="483.1969" y="972.8147">*</text><text fill="#000000" font-family="sans-serif" font-size="13" lengthAdjust="spacing" textLength="22" x="447.3032" y="1045.1307">0..1</text></g><!--reverse link Examen to Alumno--><g id="link_Examen_Alumno"><path codeLine="109" d="M647.6874,950.2668 C680.3174,976.6068 708.09,1000.0294 740.5,1029.6094 C746.57,1035.1494 752.8,1040.9594 759.02,1046.8294 " fill="none" id="Examen-backto-Alumno" style="stroke:#181818;stroke-width:1.0;"/><polygon fill="none" points="638.35,942.7294,640.5062,949.6106,647.6874,950.2668,645.5312,943.3856,638.35,942.7294" style="stroke:#181818;stroke-width:1.0;"/><text fill="#000000" font-family="sans-serif" font-size="13" lengthAdjust="spacing" textLength="86" x="706.5" y="996.1045">presentado por</text><text fill="#000000" font-family="sans-serif" font-size="13" lengthAdjust="spacing" textLength="5" x="645.9426" y="945.4209">*</text><text fill="#000000" font-family="sans-serif" font-size="13" lengthAdjust="spacing" textLength="5" x="746.7002" y="1036.4738">*</text></g><!--SRC=[jLRBZjem5Dtp5LPMBHNJicLHAI9X6ca640LLwkvESW5t73ko4pHjnKTLtNNBZytDW-1000brM6NkyRbl7q_AKu7Cux3I40EBa0q563JvbySDxluercCUR7W4ckVVGOeQGhxxArc_qqaWV8OLCiTJCPTqu2DxL14APHpskzDXz0l9eM4BoJUe3Rc9263LxmFZqO0j5e5dcQIAdpGEc4arbwi2sDgkHX1c8ht9JmbaXrm2czQ8SgyXKZU7M5OvdlVl6hwIa6OQhWK9LSHNgYN8sUYXneYdoWoOpE8dr1QqoiiwdzLKgoKQfVz_Jf2W43pAaph1C0OkMkmH9g1JY56cwlm-k2ABvTLHuKj2JI5F-7PPDzFAn5kC5kZAvPlRCbkgRyb3tkOl4I1JQ05IdbnehV-ID_zQ5KiCr-JRWnJjrjKB7fnIW9hJOZPPWdh3QG5RG3HqeIZPCYc_-CjE6QaX3T3AU-gFlS0Vp_s3PJQvdxcFhZUfJQDWx3u4tstJq1qF_OUzfIb36kGF-A8q2UFLGKUyQD3FoV8RuhC5h8aVo79gSnxZ4JJYqh9lErjBSjrfG7BxDLpJ8XhspfjFpFiZrHrgfA6KFI6yaUN5-HoFj57v8edEUxrXiAV1x39dA6ZZbQmUfVATgUkqtnMdxx1khyUShbC_4iMX-iMmJnG2Ny2brDlOGPpBA9POvx2gZjLgEM0EZtEjeZnOehHpmkeVM9LUvHnfGfqBDUtkHKfr3uc26n2xVy1YkknqfT4f4wmEv9nUxpDpFjtTqMSXGKGoo6WH1Fy5TQ1sWbtGVcHvR-gIzhHkWzQy2iHDj2h-eI3gSS1kMoCIZOQakGwrxRm2]--></g></svg>