<?xml version="1.0" encoding="us-ascii" standalone="no"?><svg xmlns="http://www.w3.org/2000/svg" xmlns:xlink="http://www.w3.org/1999/xlink" contentStyleType="text/css" height="335px" preserveAspectRatio="none" style="width:1373px;height:335px;background:#FFFFFF;" version="1.1" viewBox="0 0 1373 335" width="1373px" zoomAndPan="magnify"><defs/><g><!--cluster abrirExamenes--><g id="cluster_abrirExamenes"><path d="M169.5,6 L285.5,6 A3.75,3.75 0 0 1 288,8.5 L295,29.6094 L665.5,29.6094 A2.5,2.5 0 0 1 668,32.1094 L668,325.5 A2.5,2.5 0 0 1 665.5,328 L169.5,328 A2.5,2.5 0 0 1 167,325.5 L167,8.5 A2.5,2.5 0 0 1 169.5,6 " fill="none" style="stroke:#000000;stroke-width:1.5;"/><line style="stroke:#000000;stroke-width:1.5;" x1="167" x2="295" y1="29.6094" y2="29.6094"/><text fill="#000000" font-family="sans-serif" font-size="14" font-weight="bold" lengthAdjust="spacing" textLength="115" x="171" y="22.5332">abrirExamenes()</text></g><!--entity AbrirExamenesView--><g id="elem_AbrirExamenesView"><rect fill="#629EF9" height="37.6094" rx="2.5" ry="2.5" style="stroke:#181818;stroke-width:0.5;" width="144" x="325" y="42"/><text fill="#000000" font-family="sans-serif" font-size="14" lengthAdjust="spacing" textLength="124" x="335" y="66.5332">AbrirExamenesView</text></g><!--entity ExamenesController--><g id="elem_ExamenesController"><rect fill="#B5BD68" height="37.6094" rx="2.5" ry="2.5" style="stroke:#181818;stroke-width:0.5;" width="147" x="183.5" y="158"/><text fill="#000000" font-family="sans-serif" font-size="14" lengthAdjust="spacing" textLength="127" x="193.5" y="182.5332">ExamenesController</text></g><!--entity ExamenRepository--><g id="elem_ExamenRepository"><rect fill="#F2AC4E" height="37.6094" rx="2.5" ry="2.5" style="stroke:#181818;stroke-width:0.5;" width="138" x="514" y="158"/><text fill="#000000" font-family="sans-serif" font-size="14" lengthAdjust="spacing" textLength="118" x="524" y="182.5332">ExamenRepository</text></g><!--entity Examen--><g id="elem_Examen"><rect fill="#F2AC4E" height="37.6094" rx="2.5" ry="2.5" style="stroke:#181818;stroke-width:0.5;" width="70" x="548" y="274"/><text fill="#000000" font-family="sans-serif" font-size="14" lengthAdjust="spacing" textLength="50" x="558" y="298.5332">Examen</text></g><!--entity SistemaDisponible--><g id="elem_SistemaDisponible"><rect fill="#CDEBA5" height="37.6094" rx="2.5" ry="2.5" style="stroke:#181818;stroke-width:0.5;" width="144" x="7" y="42"/><text fill="#000000" font-family="sans-serif" font-size="14" lengthAdjust="spacing" textLength="124" x="17" y="66.5332">:Sistema Disponible</text></g><!--entity CrearExamen--><g id="elem_CrearExamen"><rect fill="#CDEBA5" height="37.6094" rx="2.5" ry="2.5" style="stroke:#181818;stroke-width:0.5;" width="198" x="687" y="158"/><text fill="#000000" font-family="sans-serif" font-size="14" lengthAdjust="spacing" textLength="178" x="697" y="182.5332">:Collaboration CrearExamen</text></g><!--entity EditarExamen--><g id="elem_EditarExamen"><rect fill="#CDEBA5" height="37.6094" rx="2.5" ry="2.5" style="stroke:#181818;stroke-width:0.5;" width="199" x="920.5" y="158"/><text fill="#000000" font-family="sans-serif" font-size="14" lengthAdjust="spacing" textLength="179" x="930.5" y="182.5332">:Collaboration EditarExamen</text></g><!--entity EliminarExamen--><g id="elem_EliminarExamen"><rect fill="#CDEBA5" height="37.6094" rx="2.5" ry="2.5" style="stroke:#181818;stroke-width:0.5;" width="212" x="1155" y="158"/><text fill="#000000" font-family="sans-serif" font-size="14" lengthAdjust="spacing" textLength="192" x="1165" y="182.5332">:Collaboration EliminarExamen</text></g><!--link SistemaDisponible to AbrirExamenesView--><g id="link_SistemaDisponible_AbrirExamenesView"><path d="M151.16,74.71 C172.13,78.7 189.5,82 189.5,82 C189.5,82 286.5,82 286.5,82 C286.5,82 297.9757,79.8215 318.9457,75.8315 " fill="none" id="SistemaDisponible-to-AbrirExamenesView" style="stroke:#181818;stroke-width:1.0;"/><polygon fill="#181818" points="324.84,74.71,315.2509,72.4628,319.9281,75.6446,316.7463,80.3218,324.84,74.71" style="stroke:#181818;stroke-width:1.0;"/><text fill="#000000" font-family="sans-serif" font-size="13" lengthAdjust="spacing" textLength="95" x="190.5" y="78.4951">abrirExamenes()</text></g><!--link AbrirExamenesView to SistemaDisponible--><g id="link_AbrirExamenesView_SistemaDisponible"><path d="M324.85,61 C272.9,61 209.11,61 157.16,61 " fill="none" id="AbrirExamenesView-to-SistemaDisponible" style="stroke:#181818;stroke-width:1.0;"/><polygon fill="#181818" points="151.16,61,160.16,65,156.16,61,160.16,57,151.16,61" style="stroke:#181818;stroke-width:1.0;"/><text fill="#000000" font-family="sans-serif" font-size="13" lengthAdjust="spacing" textLength="110" x="183" y="54.4951">completarGestion()</text></g><!--link AbrirExamenesView to ExamenesController--><g id="link_AbrirExamenesView_ExamenesController"><path d="M343.35,80.01 C302.77,93.63 254,110 254,110 C254,110 254,128 254,128 C254,128 254.6455,138.2717 255.4955,151.8617 " fill="none" id="AbrirExamenesView-to-ExamenesController" style="stroke:#181818;stroke-width:1.0;"/><polygon fill="#181818" points="255.87,157.85,259.3004,148.6179,255.5579,152.8598,251.316,149.1172,255.87,157.85" style="stroke:#181818;stroke-width:1.0;"/><text fill="#000000" font-family="sans-serif" font-size="13" lengthAdjust="spacing" textLength="98" x="255" y="124.4951">listarExamenes()</text></g><!--link AbrirExamenesView to ExamenesController--><g id="link_AbrirExamenesView_ExamenesController"><path d="M386.34,80.03 C374.8,99.58 358,128 358,128 C358,128 328.9792,141.7947 300.3192,155.4147 " fill="none" id="AbrirExamenesView-to-ExamenesController-1" style="stroke:#181818;stroke-width:1.0;"/><polygon fill="#181818" points="294.9,157.99,304.7457,157.7398,299.416,155.8439,301.3119,150.5142,294.9,157.99" style="stroke:#181818;stroke-width:1.0;"/><text fill="#000000" font-family="sans-serif" font-size="13" lengthAdjust="spacing" textLength="137" x="369" y="124.4951">filtrarExamenes(criterio)</text></g><!--link ExamenesController to ExamenRepository--><g id="link_ExamenesController_ExamenRepository"><path d="M330.68,189.76 C356.07,194.16 378.25,198 378.25,198 C378.25,198 466.25,198 466.25,198 C466.25,198 482.6947,195.0417 507.8347,190.5217 " fill="none" id="ExamenesController-to-ExamenRepository" style="stroke:#181818;stroke-width:1.0;"/><polygon fill="#181818" points="513.74,189.46,504.1742,187.1157,508.8189,190.3448,505.5899,194.9895,513.74,189.46" style="stroke:#181818;stroke-width:1.0;"/><text fill="#000000" font-family="sans-serif" font-size="13" lengthAdjust="spacing" textLength="86" x="379.25" y="194.4951">obtenerTodos()</text></g><!--link ExamenesController to ExamenRepository--><g id="link_ExamenesController_ExamenRepository"><path d="M330.57,177 C385.5,177 454.05,177 507.88,177 " fill="none" id="ExamenesController-to-ExamenRepository-1" style="stroke:#181818;stroke-width:1.0;"/><polygon fill="#181818" points="513.88,177,504.88,173,508.88,177,504.88,181,513.88,177" style="stroke:#181818;stroke-width:1.0;"/><text fill="#000000" font-family="sans-serif" font-size="13" lengthAdjust="spacing" textLength="147" x="348.75" y="170.4951">buscarPorCriterio(criterio)</text></g><!--link ExamenRepository to Examen--><g id="link_ExamenRepository_Examen"><path d="M583,196.06 C583,217.28 583,246.3 583,267.64 " fill="none" id="ExamenRepository-to-Examen" style="stroke:#181818;stroke-width:1.0;"/><polygon fill="#181818" points="583,273.64,587,264.64,583,268.64,579,264.64,583,273.64" style="stroke:#181818;stroke-width:1.0;"/><text fill="#000000" font-family="sans-serif" font-size="13" lengthAdjust="spacing" textLength="56" x="584" y="240.4951">&#171;accede&#187;</text></g><!--link AbrirExamenesView to CrearExamen--><g id="link_AbrirExamenesView_CrearExamen"><path d="M458.64,80.06 C531.37,101.38 645.8222,134.9226 718.5722,156.2426 " fill="none" id="AbrirExamenesView-to-CrearExamen" style="stroke:#181818;stroke-width:1.0;stroke-dasharray:7.0,7.0;"/><polygon fill="#181818" points="724.33,157.93,716.8182,151.5604,719.5318,156.5238,714.5683,159.2375,724.33,157.93" style="stroke:#181818;stroke-width:1.0;"/><text fill="#000000" font-family="sans-serif" font-size="13" lengthAdjust="spacing" textLength="85" x="615" y="124.4951">crearExamen()</text></g><!--link AbrirExamenesView to EditarExamen--><g id="link_AbrirExamenesView_EditarExamen"><path d="M469.36,73.13 C561.53,87.31 709,110 709,110 C709,110 837.0708,137.1739 929.1508,156.7239 " fill="none" id="AbrirExamenesView-to-EditarExamen" style="stroke:#181818;stroke-width:1.0;stroke-dasharray:7.0,7.0;"/><polygon fill="#181818" points="935.02,157.97,927.047,152.188,930.129,156.9316,925.3855,160.0136,935.02,157.97" style="stroke:#181818;stroke-width:1.0;"/><text fill="#000000" font-family="sans-serif" font-size="13" lengthAdjust="spacing" textLength="136" x="793" y="124.4951">editarExamen(Examen)</text></g><!--link AbrirExamenesView to EliminarExamen--><g id="link_AbrirExamenesView_EliminarExamen"><path d="M469.12,68.4 C616.41,81.47 938,110 938,110 C938,110 1071.2216,137.2184 1166.8616,156.7684 " fill="none" id="AbrirExamenesView-to-EliminarExamen" style="stroke:#181818;stroke-width:1.0;stroke-dasharray:7.0,7.0;"/><polygon fill="#181818" points="1172.74,157.97,1164.7234,152.2486,1167.8413,156.9686,1163.1213,160.0865,1172.74,157.97" style="stroke:#181818;stroke-width:1.0;"/><text fill="#000000" font-family="sans-serif" font-size="13" lengthAdjust="spacing" textLength="149" x="1025" y="124.4951">eliminarExamen(Examen)</text></g><!--SRC=[bP91JyCm38Nl-HLMkOp3TfZOnAgfqkWwhWWGzxGrKxGqgPmWc13_dNGhMzeKD7gfRBslptsssGbLS-8LIA7Gxck4MijzKp16M5YkjXBXAbrdTwiPHF6JC1Oh3cjXQgr4BZ42Rg1jdxkCrRpOyIq2pqbGzi4hL6WQRTJfZAuZ-6JW7izkFbracmMiVE6BmFU-Bf_bvVmMVYIfLfQqb4XzuMQwIc-oLlY8jJR2Qjh_AMDVmn6ape7dchWLMa5AoDiP3qbuzGLqLWhRmVt69RmKbL3TBtHQZ0MhWJ6Dap1RYA6t6CP2qRXqR9XtxEx7d0O_mFzWNuMqvC452Oiaj9iWb1_7xsyo1frR9wHdNUh6_d8mVpC5fmTDQMiR-f_b_a_4i5poei0IasGmgyOlY3-6GbUrH9VMFPfcYyD9JoQ9VqmEEnU3yJQ0Vpune5UDZgzVmSxLEBHJd-1l]--></g></svg>