<?xml version="1.0" encoding="us-ascii" standalone="no"?><svg xmlns="http://www.w3.org/2000/svg" xmlns:xlink="http://www.w3.org/1999/xlink" contentStyleType="text/css" height="554px" preserveAspectRatio="none" style="width:2544px;height:554px;background:#FFFFFF;" version="1.1" viewBox="0 0 2544 554" width="2544px" zoomAndPan="magnify"><defs/><g><!--cluster comunicarIncidenciasHorario--><g id="cluster_comunicarIncidenciasHorario"><path d="M8.5,6 L224.5,6 A3.75,3.75 0 0 1 227,8.5 L234,29.6094 L1811.5,29.6094 A2.5,2.5 0 0 1 1814,32.1094 L1814,544.5 A2.5,2.5 0 0 1 1811.5,547 L8.5,547 A2.5,2.5 0 0 1 6,544.5 L6,8.5 A2.5,2.5 0 0 1 8.5,6 " fill="none" style="stroke:#000000;stroke-width:1.5;"/><line style="stroke:#000000;stroke-width:1.5;" x1="6" x2="234" y1="29.6094" y2="29.6094"/><text fill="#000000" font-family="sans-serif" font-size="14" font-weight="bold" lengthAdjust="spacing" textLength="215" x="10" y="22.5332">comunicarIncidenciasHorario()</text></g><!--entity ComunicarIncidenciasView--><g id="elem_ComunicarIncidenciasView"><rect fill="#629EF9" height="37.6094" rx="2.5" ry="2.5" style="stroke:#181818;stroke-width:0.5;" width="187" x="1023.5" y="42"/><text fill="#000000" font-family="sans-serif" font-size="14" lengthAdjust="spacing" textLength="167" x="1033.5" y="66.5332">ComunicarIncidenciasView</text></g><!--entity IncidenciasController--><g id="elem_IncidenciasController"><rect fill="#B5BD68" height="37.6094" rx="2.5" ry="2.5" style="stroke:#181818;stroke-width:0.5;" width="152" x="756" y="198"/><text fill="#000000" font-family="sans-serif" font-size="14" lengthAdjust="spacing" textLength="132" x="766" y="222.5332">IncidenciasController</text></g><!--entity ExamenRepository--><g id="elem_ExamenRepository"><rect fill="#F2AC4E" height="37.6094" rx="2.5" ry="2.5" style="stroke:#181818;stroke-width:0.5;" width="138" x="650" y="354"/><text fill="#000000" font-family="sans-serif" font-size="14" lengthAdjust="spacing" textLength="118" x="660" y="378.5332">ExamenRepository</text></g><!--entity IncidenciaRepository--><g id="elem_IncidenciaRepository"><rect fill="#F2AC4E" height="37.6094" rx="2.5" ry="2.5" style="stroke:#181818;stroke-width:0.5;" width="151" x="1118.5" y="198"/><text fill="#000000" font-family="sans-serif" font-size="14" lengthAdjust="spacing" textLength="131" x="1128.5" y="222.5332">IncidenciaRepository</text></g><!--entity Examen--><g id="elem_Examen"><rect fill="#F2AC4E" height="37.6094" rx="2.5" ry="2.5" style="stroke:#181818;stroke-width:0.5;" width="70" x="684" y="493"/><text fill="#000000" font-family="sans-serif" font-size="14" lengthAdjust="spacing" textLength="50" x="694" y="517.5332">Examen</text></g><!--entity Incidencia--><g id="elem_Incidencia"><rect fill="#F2AC4E" height="37.6094" rx="2.5" ry="2.5" style="stroke:#181818;stroke-width:0.5;" width="83" x="1115.5" y="354"/><text fill="#000000" font-family="sans-serif" font-size="14" lengthAdjust="spacing" textLength="63" x="1125.5" y="378.5332">Incidencia</text></g><!--entity SistemaDisponible--><g id="elem_SistemaDisponible"><rect fill="#CDEBA5" height="37.6094" rx="2.5" ry="2.5" style="stroke:#181818;stroke-width:0.5;" width="144" x="2112" y="198"/><text fill="#000000" font-family="sans-serif" font-size="14" lengthAdjust="spacing" textLength="124" x="2122" y="222.5332">:Sistema Disponible</text></g><!--entity IncidenciasAbierto--><g id="elem_IncidenciasAbierto"><rect fill="#CDEBA5" height="37.6094" rx="2.5" ry="2.5" style="stroke:#181818;stroke-width:0.5;" width="143" x="2112.5" y="42"/><text fill="#000000" font-family="sans-serif" font-size="14" lengthAdjust="spacing" textLength="123" x="2122.5" y="66.5332">:Incidencias Abierto</text></g><!--link SistemaDisponible to ComunicarIncidenciasView--><g id="link_SistemaDisponible_ComunicarIncidenciasView"><path d="M2111.91,204.62 C1963.79,181.25 1639,130 1639,130 C1639,130 1366.7898,94.5347 1216.5698,74.9747 " fill="none" id="SistemaDisponible-to-ComunicarIncidenciasView" style="stroke:#181818;stroke-width:1.0;"/><polygon fill="#181818" points="1210.62,74.2,1219.0282,79.3286,1215.5781,74.8456,1220.0611,71.3956,1210.62,74.2" style="stroke:#181818;stroke-width:1.0;"/><text fill="#000000" font-family="sans-serif" font-size="13" lengthAdjust="spacing" textLength="174" x="1745" y="144.4951">comunicarIncidenciasHorario()</text></g><!--link ComunicarIncidenciasView to IncidenciasController--><g id="link_ComunicarIncidenciasView_IncidenciasController"><path d="M1023.32,70.75 C826.7,89.12 389,130 389,130 C389,130 389,148 389,148 C389,148 623.2594,183.9598 749.9194,203.3998 " fill="none" id="ComunicarIncidenciasView-to-IncidenciasController" style="stroke:#181818;stroke-width:1.0;"/><polygon fill="#181818" points="755.85,204.31,747.561,198.9909,750.9079,203.5515,746.3473,206.8984,755.85,204.31" style="stroke:#181818;stroke-width:1.0;"/><text fill="#000000" font-family="sans-serif" font-size="13" lengthAdjust="spacing" textLength="174" x="390" y="144.4951">obtenerExamenesAsignados()</text></g><!--link ComunicarIncidenciasView to IncidenciasController--><g id="link_ComunicarIncidenciasView_IncidenciasController"><path d="M1023.29,76.26 C892.22,96.19 670,130 670,130 C670,130 670,148 670,148 C670,148 735.4879,175.4872 783.4779,195.6372 " fill="none" id="ComunicarIncidenciasView-to-IncidenciasController-1" style="stroke:#181818;stroke-width:1.0;"/><polygon fill="#181818" points="789.01,197.96,782.2604,190.7877,784.3999,196.0243,779.1633,198.1638,789.01,197.96" style="stroke:#181818;stroke-width:1.0;"/><text fill="#000000" font-family="sans-serif" font-size="13" lengthAdjust="spacing" textLength="178" x="671" y="144.4951">seleccionarExamen(examenId)</text></g><!--reverse link ComunicarIncidenciasView to IncidenciasController--><g id="link_ComunicarIncidenciasView_IncidenciasController"><path d="M1017.3434,68.681 C766.0734,85.511 102,130 102,130 C102,130 102,148 102,148 C102,148 568.97,191.5 755.94,208.92 " fill="none" id="ComunicarIncidenciasView-backto-IncidenciasController" style="stroke:#181818;stroke-width:1.0;"/><polygon fill="#181818" points="1023.33,68.28,1014.0828,64.8904,1018.3412,68.6142,1014.6174,72.8725,1023.33,68.28" style="stroke:#181818;stroke-width:1.0;"/><text fill="#000000" font-family="sans-serif" font-size="13" lengthAdjust="spacing" textLength="180" x="103" y="144.4951">mostrarDatosExamen(examen)</text></g><!--link ComunicarIncidenciasView to IncidenciasController--><g id="link_ComunicarIncidenciasView_IncidenciasController"><path d="M1074.01,80.04 C1026.02,100.19 955,130 955,130 C955,130 898.7672,169.3119 862.6972,194.5319 " fill="none" id="ComunicarIncidenciasView-to-IncidenciasController-2" style="stroke:#181818;stroke-width:1.0;"/><polygon fill="#181818" points="857.78,197.97,867.448,196.091,861.8777,195.1049,862.8638,189.5347,857.78,197.97" style="stroke:#181818;stroke-width:1.0;"/><text fill="#000000" font-family="sans-serif" font-size="13" lengthAdjust="spacing" textLength="177" x="956" y="144.4951">seleccionarTipoIncidencia(tipo)</text></g><!--link ComunicarIncidenciasView to IncidenciasController--><g id="link_ComunicarIncidenciasView_IncidenciasController"><path d="M1127.18,80.22 C1138.44,100.37 1155,130 1155,130 C1155,130 1155,148 1155,148 C1155,148 1009.5013,178.6341 914.0113,198.7341 " fill="none" id="ComunicarIncidenciasView-to-IncidenciasController-3" style="stroke:#181818;stroke-width:1.0;"/><polygon fill="#181818" points="908.14,199.97,917.7709,202.0304,913.0328,198.9401,916.1231,194.202,908.14,199.97" style="stroke:#181818;stroke-width:1.0;"/><text fill="#000000" font-family="sans-serif" font-size="13" lengthAdjust="spacing" textLength="158" x="1156" y="144.4951">introducirDescripcion(texto)</text></g><!--link ComunicarIncidenciasView to IncidenciasController--><g id="link_ComunicarIncidenciasView_IncidenciasController"><path d="M1176.17,80.04 C1242.24,100.19 1340,130 1340,130 C1340,130 1340,148 1340,148 C1340,148 1055.717,186.054 913.997,205.024 " fill="none" id="ComunicarIncidenciasView-to-IncidenciasController-4" style="stroke:#181818;stroke-width:1.0;"/><polygon fill="#181818" points="908.05,205.82,917.5011,208.5906,913.0058,205.1566,916.4398,200.6613,908.05,205.82" style="stroke:#181818;stroke-width:1.0;"/><text fill="#000000" font-family="sans-serif" font-size="13" lengthAdjust="spacing" textLength="272" x="1341" y="144.4951">registrarIncidencia(examenId, tipo, descripcion)</text></g><!--link IncidenciasController to ExamenRepository--><g id="link_IncidenciasController_ExamenRepository"><path d="M762.74,236.04 C685.42,256.19 571,286 571,286 C571,286 571,304 571,304 C571,304 630.4281,331.3047 674.2781,351.4547 " fill="none" id="IncidenciasController-to-ExamenRepository" style="stroke:#181818;stroke-width:1.0;"/><polygon fill="#181818" points="679.73,353.96,673.2223,346.5675,675.1867,351.8723,669.8819,353.8367,679.73,353.96" style="stroke:#181818;stroke-width:1.0;"/><text fill="#000000" font-family="sans-serif" font-size="13" lengthAdjust="spacing" textLength="150" x="572" y="300.4951">buscarPorProfesorActivo()</text></g><!--reverse link ExamenRepository to IncidenciasController--><g id="link_ExamenRepository_IncidenciasController"><path d="M735.9402,348.913 C757.6802,319.293 796.85,265.91 818.59,236.27 " fill="none" id="ExamenRepository-backto-IncidenciasController" style="stroke:#181818;stroke-width:1.0;"/><polygon fill="#181818" points="732.39,353.75,740.9399,348.8613,735.3485,349.7192,734.4906,344.1278,732.39,353.75" style="stroke:#181818;stroke-width:1.0;"/><text fill="#000000" font-family="sans-serif" font-size="13" lengthAdjust="spacing" textLength="133" x="780" y="300.4951">buscarPorId(examenId)</text></g><!--link ExamenRepository to Examen--><g id="link_ExamenRepository_Examen"><path d="M719,392.19 C719,418.4 719,460.49 719,486.73 " fill="none" id="ExamenRepository-to-Examen" style="stroke:#181818;stroke-width:1.0;"/><polygon fill="#181818" points="719,492.73,723,483.73,719,487.73,715,483.73,719,492.73" style="stroke:#181818;stroke-width:1.0;"/></g><!--link IncidenciasController to Incidencia--><g id="link_IncidenciasController_Incidencia"><path d="M870.24,236.12 C932.82,265.78 1050.9979,321.7708 1113.4879,351.3808 " fill="none" id="IncidenciasController-to-Incidencia" style="stroke:#181818;stroke-width:1.0;"/><polygon fill="#181818" points="1118.91,353.95,1112.4896,346.4815,1114.3916,351.809,1109.064,353.711,1118.91,353.95" style="stroke:#181818;stroke-width:1.0;"/><text fill="#000000" font-family="sans-serif" font-size="13" lengthAdjust="spacing" textLength="50" x="1006" y="300.4951">&#171;create&#187;</text></g><!--link IncidenciasController to IncidenciaRepository--><g id="link_IncidenciasController_IncidenciaRepository"><path d="M908.33,217 C970.14,217 1050.78,217 1112.4,217 " fill="none" id="IncidenciasController-to-IncidenciaRepository" style="stroke:#181818;stroke-width:1.0;"/><polygon fill="#181818" points="1118.4,217,1109.4,213,1113.4,217,1109.4,221,1118.4,217" style="stroke:#181818;stroke-width:1.0;"/><text fill="#000000" font-family="sans-serif" font-size="13" lengthAdjust="spacing" textLength="109" x="958.75" y="210.4951">guardar(incidencia)</text></g><!--link IncidenciaRepository to Incidencia--><g id="link_IncidenciaRepository_Incidencia"><path d="M1191.24,236.24 C1187.43,261.48 1181,304 1181,304 C1181,304 1172.5365,327.9719 1165.4265,348.1219 " fill="none" id="IncidenciaRepository-to-Incidencia" style="stroke:#181818;stroke-width:1.0;"/><polygon fill="#181818" points="1163.43,353.78,1170.1968,346.6238,1165.0937,349.0649,1162.6527,343.9619,1163.43,353.78" style="stroke:#181818;stroke-width:1.0;"/></g><!--link ComunicarIncidenciasView to IncidenciasAbierto--><g id="link_ComunicarIncidenciasView_IncidenciasAbierto"><path d="M1210.75,61 C1420.78,61 1919.23,61 2106.47,61 " fill="none" id="ComunicarIncidenciasView-to-IncidenciasAbierto" style="stroke:#181818;stroke-width:1.0;"/><polygon fill="#181818" points="2112.47,61,2103.47,57,2107.47,61,2103.47,65,2112.47,61" style="stroke:#181818;stroke-width:1.0;"/><text fill="#000000" font-family="sans-serif" font-size="13" lengthAdjust="spacing" textLength="172" x="1575.5" y="54.4951">mostrarIncidenciaRegistrada()</text></g><!--link IncidenciasAbierto to SistemaDisponible--><g id="link_IncidenciasAbierto_SistemaDisponible"><path d="M2178.64,80.22 C2172.72,100.37 2164,130 2164,130 C2164,130 2164,148 2164,148 C2164,148 2171.0287,171.8733 2176.9487,192.0233 " fill="none" id="IncidenciasAbierto-to-SistemaDisponible" style="stroke:#181818;stroke-width:1.0;stroke-dasharray:7.0,7.0;"/><polygon fill="#181818" points="2178.64,197.78,2179.9409,188.0174,2177.2306,192.9828,2172.2653,190.2725,2178.64,197.78" style="stroke:#181818;stroke-width:1.0;"/><text fill="#000000" font-family="sans-serif" font-size="13" lengthAdjust="spacing" textLength="209" x="2165" y="144.4951">&#171;finalizar&#187; completarComunicacion()</text></g><!--link IncidenciasAbierto to SistemaDisponible--><g id="link_IncidenciasAbierto_SistemaDisponible"><path d="M2240.26,80.04 C2303.06,100.19 2396,130 2396,130 C2396,130 2396,148 2396,148 C2396,148 2308.7731,175.9769 2245.9731,196.1269 " fill="none" id="IncidenciasAbierto-to-SistemaDisponible-1" style="stroke:#181818;stroke-width:1.0;stroke-dasharray:7.0,7.0;"/><polygon fill="#181818" points="2240.26,197.96,2250.0517,199.0191,2245.0209,196.4324,2247.6076,191.4016,2240.26,197.96" style="stroke:#181818;stroke-width:1.0;"/><text fill="#000000" font-family="sans-serif" font-size="13" lengthAdjust="spacing" textLength="139" x="2397" y="144.4951">cancelarComunicacion()</text></g><!--SRC=[hLHDRzim3BthLmZPnGMQeYlMOYqA0rwIOhaLsx0xBR464LaoA7bhDko_ptO-x3XnqWNpmHyKt-FZeoM_85i0GouDMGpB0cNXpBB-47wxPfr6ZuLyVttTYJBOnIOg65K0cncKxoRJsQVaLeuUlf8Fc8ESaY-SfTJWI8ANwt0RFGYUMqKQgrk5I5923gv1T-Bhi105g0LaA9NBIqiAk9FqsJ4mkHewEh8UNOpaRo5aTNNKtDtSpvxkvUG0xZlXptvwUflgkuzTYHDd0pjZaFkvJpV9vCDCpbuXH_i52-SfE5uEfBMK9rDNZ2Tvn1yXzYOXnpoE1zkL3_AeWq8C8iUwuZteIqNgqe0MUIKSVU8fiw2ThnaFOngPVUigfhJqLV5dny_iNj0xJbIW7xMqlUJnbk5SsHuDAaNEmbfwXCrZheTrboTqp_KRICpn6UNEXseYKmZExmYx-0-TVgF2jMbHg3xFfgNwNPUAU8fUCHLrYIZWQpYVap6ZflsEo8sZbxAMUobrMstOv6w9YlVnKJ52m3X-4s9dkba9h84ZsYxlbEtzb9qjUiG3tlLWVHIsq-_IhnpHqDjF6ypLLRn_9ZSjlv05Gx-0uxZU-ON10BpHr0phtnWLM8LcZ-8l]--></g></svg>