<?xml version="1.0" encoding="us-ascii" standalone="no"?><svg xmlns="http://www.w3.org/2000/svg" xmlns:xlink="http://www.w3.org/1999/xlink" contentStyleType="text/css" height="550px" preserveAspectRatio="none" style="width:806px;height:550px;background:#FFFFFF;" version="1.1" viewBox="0 0 806 550" width="806px" zoomAndPan="magnify"><defs/><g><!--cluster cerrarSesion--><g id="cluster_cerrarSesion"><path d="M298.5,6 L400.5,6 A3.75,3.75 0 0 1 403,8.5 L410,29.6094 L501.5,29.6094 A2.5,2.5 0 0 1 504,32.1094 L504,540.5 A2.5,2.5 0 0 1 501.5,543 L298.5,543 A2.5,2.5 0 0 1 296,540.5 L296,8.5 A2.5,2.5 0 0 1 298.5,6 " fill="none" style="stroke:#000000;stroke-width:1.5;"/><line style="stroke:#000000;stroke-width:1.5;" x1="296" x2="410" y1="29.6094" y2="29.6094"/><text fill="#000000" font-family="sans-serif" font-size="14" font-weight="bold" lengthAdjust="spacing" textLength="101" x="300" y="22.5332">cerrarSesion()</text></g><!--entity CerrarSesionView--><g id="elem_CerrarSesionView"><rect fill="#629EF9" height="37.6094" rx="2.5" ry="2.5" style="stroke:#181818;stroke-width:0.5;" width="133" x="312.5" y="42"/><text fill="#000000" font-family="sans-serif" font-size="14" lengthAdjust="spacing" textLength="113" x="322.5" y="66.5332">CerrarSesionView</text></g><!--entity CerrarSesionController--><g id="elem_CerrarSesionController"><rect fill="#B5BD68" height="37.6094" rx="2.5" ry="2.5" style="stroke:#181818;stroke-width:0.5;" width="166" x="312" y="158"/><text fill="#000000" font-family="sans-serif" font-size="14" lengthAdjust="spacing" textLength="146" x="322" y="182.5332">CerrarSesionController</text></g><!--entity SesionRepository--><g id="elem_SesionRepository"><rect fill="#F2AC4E" height="37.6094" rx="2.5" ry="2.5" style="stroke:#181818;stroke-width:0.5;" width="131" x="312.5" y="274"/><text fill="#000000" font-family="sans-serif" font-size="14" lengthAdjust="spacing" textLength="111" x="322.5" y="298.5332">SesionRepository</text></g><!--entity Sesion--><g id="elem_Sesion"><rect fill="#F2AC4E" height="37.6094" rx="2.5" ry="2.5" style="stroke:#181818;stroke-width:0.5;" width="63" x="319.5" y="390"/><text fill="#000000" font-family="sans-serif" font-size="14" lengthAdjust="spacing" textLength="43" x="329.5" y="414.5332">Sesion</text></g><!--entity Usuario--><g id="elem_Usuario"><rect fill="#F2AC4E" height="37.6094" rx="2.5" ry="2.5" style="stroke:#181818;stroke-width:0.5;" width="68" x="317" y="489"/><text fill="#000000" font-family="sans-serif" font-size="14" lengthAdjust="spacing" textLength="48" x="327" y="513.5332">Usuario</text></g><!--entity SistemaDisponible--><g id="elem_SistemaDisponible"><rect fill="#CDEBA5" height="37.6094" rx="2.5" ry="2.5" style="stroke:#181818;stroke-width:0.5;" width="144" x="7" y="42"/><text fill="#000000" font-family="sans-serif" font-size="14" lengthAdjust="spacing" textLength="124" x="17" y="66.5332">:Sistema Disponible</text></g><!--entity SESION_CERRADA--><g id="elem_SESION_CERRADA"><rect fill="#CDEBA5" height="37.6094" rx="2.5" ry="2.5" style="stroke:#181818;stroke-width:0.5;" width="237" x="563.5" y="42"/><text fill="#000000" font-family="sans-serif" font-size="14" lengthAdjust="spacing" textLength="217" x="573.5" y="66.5332">:Collaboration SESION_CERRADA</text></g><!--link SistemaDisponible to CerrarSesionView--><g id="link_SistemaDisponible_CerrarSesionView"><path d="M151.24,61 C200.22,61 258.49,61 306.26,61 " fill="none" id="SistemaDisponible-to-CerrarSesionView" style="stroke:#181818;stroke-width:1.0;"/><polygon fill="#181818" points="312.26,61,303.26,57,307.26,61,303.26,65,312.26,61" style="stroke:#181818;stroke-width:1.0;"/><text fill="#000000" font-family="sans-serif" font-size="13" lengthAdjust="spacing" textLength="125" x="169.25" y="54.4951">cerrarSesion(Usuario)</text></g><!--link CerrarSesionView to CerrarSesionController--><g id="link_CerrarSesionView_CerrarSesionController"><path d="M381.54,80.06 C384.51,101.28 388.5975,130.358 391.5875,151.698 " fill="none" id="CerrarSesionView-to-CerrarSesionController" style="stroke:#181818;stroke-width:1.0;"/><polygon fill="#181818" points="392.42,157.64,395.1325,148.172,391.7262,152.6884,387.2099,149.2821,392.42,157.64" style="stroke:#181818;stroke-width:1.0;"/><text fill="#000000" font-family="sans-serif" font-size="13" lengthAdjust="spacing" textLength="131" x="388" y="124.4951">solicitarCierre(Usuario)</text></g><!--link CerrarSesionController to SesionRepository--><g id="link_CerrarSesionController_SesionRepository"><path d="M392.31,196.06 C389.14,217.28 384.8043,246.3655 381.6243,267.7055 " fill="none" id="CerrarSesionController-to-SesionRepository" style="stroke:#181818;stroke-width:1.0;"/><polygon fill="#181818" points="380.74,273.64,386.0228,265.3278,381.4769,268.6946,378.1102,264.1487,380.74,273.64" style="stroke:#181818;stroke-width:1.0;"/><text fill="#000000" font-family="sans-serif" font-size="13" lengthAdjust="spacing" textLength="139" x="388" y="240.4951">terminarSesion(Usuario)</text></g><!--link SesionRepository to Sesion--><g id="link_SesionRepository_Sesion"><path d="M373.72,312.06 C368.7,333.28 361.7817,362.4613 356.7317,383.8013 " fill="none" id="SesionRepository-to-Sesion" style="stroke:#181818;stroke-width:1.0;"/><polygon fill="#181818" points="355.35,389.64,361.3151,381.803,356.5014,384.7744,353.5301,379.9608,355.35,389.64" style="stroke:#181818;stroke-width:1.0;"/><text fill="#000000" font-family="sans-serif" font-size="13" lengthAdjust="spacing" textLength="135" x="367" y="356.4951">destruirSesion(Usuario)</text></g><!--link Sesion to Usuario--><g id="link_Sesion_Usuario"><path d="M351,428.24 C351,445.59 351,471.52 351,488.84 " fill="none" id="Sesion-Usuario" style="stroke:#181818;stroke-width:1.0;"/></g><!--link CerrarSesionView to SESION_CERRADA--><g id="link_CerrarSesionView_SESION_CERRADA"><path d="M445.87,61 C480.38,61 517.51,61 557.43,61 " fill="none" id="CerrarSesionView-to-SESION_CERRADA" style="stroke:#181818;stroke-width:1.0;stroke-dasharray:7.0,7.0;"/><polygon fill="#181818" points="563.43,61,554.43,57,558.43,61,554.43,65,563.43,61" style="stroke:#181818;stroke-width:1.0;"/><text fill="#000000" font-family="sans-serif" font-size="13" lengthAdjust="spacing" textLength="81" x="464" y="54.4951">cerrarSesion()</text></g><!--SRC=[VPBFQy8m583l-IiUtSKUseDCcJq8NQomomQMxJhI-f27CIalaL76_lTLbBMcqzpoyhrV7t5xCerYTG1D1dtR83HMjwUB48orLsQd4HxagdZEPn1b9JcF1mKhSeqrL6cCG3cuXFkeQ5IzLpk46faLb-Z8cXCP3GEJE89l0TqPz9fF5yLw0NB0VH1-XLWrgxRpfojCMkFPQeqSmkjfBXyBE6CRRAmZRxczYzruV7T7nMJ5p_-2PDTVLPQLForS5kNBs-kdB3QRV9MVLLs5X1YfWuIJvMXzoAvKJYvZn4ACo6GRvFTUCd1MKqrUiQIEm1jr-Wn8kcAXjmmyye7CU9gG7AHdi4Nd-KZZ5IxVenlyJ-zuhJJbT1de2wJ4uXS0]--></g></svg>