<?xml version="1.0" encoding="us-ascii" standalone="no"?><svg xmlns="http://www.w3.org/2000/svg" xmlns:xlink="http://www.w3.org/1999/xlink" contentStyleType="text/css" height="427px" preserveAspectRatio="none" style="width:732px;height:427px;background:#FFFFFF;" version="1.1" viewBox="0 0 732 427" width="732px" zoomAndPan="magnify"><defs/><g><line style="stroke:#181818;stroke-width:0.5;stroke-dasharray:5.0,5.0;" x1="35" x2="35" y1="82.6094" y2="345.4219"/><line style="stroke:#181818;stroke-width:0.5;stroke-dasharray:5.0,5.0;" x1="187" x2="187" y1="82.6094" y2="345.4219"/><line style="stroke:#181818;stroke-width:0.5;stroke-dasharray:5.0,5.0;" x1="342" x2="342" y1="82.6094" y2="345.4219"/><line style="stroke:#181818;stroke-width:0.5;stroke-dasharray:5.0,5.0;" x1="481" x2="481" y1="82.6094" y2="345.4219"/><line style="stroke:#181818;stroke-width:0.5;stroke-dasharray:5.0,5.0;" x1="645" x2="645" y1="82.6094" y2="345.4219"/><text fill="#000000" font-family="sans-serif" font-size="14" lengthAdjust="spacing" textLength="54" x="5" y="79.5332">Profesor</text><ellipse cx="35" cy="13.5" fill="#E2E2F0" rx="8" ry="8" style="stroke:#181818;stroke-width:0.5;"/><path d="M35,21.5 L35,48.5 M22,29.5 L48,29.5 M35,48.5 L22,63.5 M35,48.5 L48,63.5 " fill="none" style="stroke:#181818;stroke-width:0.5;"/><text fill="#000000" font-family="sans-serif" font-size="14" lengthAdjust="spacing" textLength="54" x="5" y="358.9551">Profesor</text><ellipse cx="35" cy="370.5313" fill="#E2E2F0" rx="8" ry="8" style="stroke:#181818;stroke-width:0.5;"/><path d="M35,378.5313 L35,405.5313 M22,386.5313 L48,386.5313 M35,405.5313 L22,420.5313 M35,405.5313 L48,420.5313 " fill="none" style="stroke:#181818;stroke-width:0.5;"/><rect fill="#E2E2F0" height="31.6094" rx="2.5" ry="2.5" style="stroke:#181818;stroke-width:0.5;" width="178" x="98" y="50"/><text fill="#000000" font-family="sans-serif" font-size="14" lengthAdjust="spacing" textLength="164" x="105" y="71.5332">CerrarSesionView (React)</text><rect fill="#E2E2F0" height="31.6094" rx="2.5" ry="2.5" style="stroke:#181818;stroke-width:0.5;" width="178" x="98" y="344.4219"/><text fill="#000000" font-family="sans-serif" font-size="14" lengthAdjust="spacing" textLength="164" x="105" y="365.9551">CerrarSesionView (React)</text><rect fill="#E2E2F0" height="31.6094" rx="2.5" ry="2.5" style="stroke:#181818;stroke-width:0.5;" width="112" x="286" y="50"/><text fill="#000000" font-family="sans-serif" font-size="14" lengthAdjust="spacing" textLength="98" x="293" y="71.5332">useAuth (Hook)</text><rect fill="#E2E2F0" height="31.6094" rx="2.5" ry="2.5" style="stroke:#181818;stroke-width:0.5;" width="112" x="286" y="344.4219"/><text fill="#000000" font-family="sans-serif" font-size="14" lengthAdjust="spacing" textLength="98" x="293" y="365.9551">useAuth (Hook)</text><rect fill="#E2E2F0" height="31.6094" rx="2.5" ry="2.5" style="stroke:#181818;stroke-width:0.5;" width="146" x="408" y="50"/><text fill="#000000" font-family="sans-serif" font-size="14" lengthAdjust="spacing" textLength="132" x="415" y="71.5332">LocalStorage/Cookie</text><rect fill="#E2E2F0" height="31.6094" rx="2.5" ry="2.5" style="stroke:#181818;stroke-width:0.5;" width="146" x="408" y="344.4219"/><text fill="#000000" font-family="sans-serif" font-size="14" lengthAdjust="spacing" textLength="132" x="415" y="365.9551">LocalStorage/Cookie</text><rect fill="#E2E2F0" height="31.6094" rx="2.5" ry="2.5" style="stroke:#181818;stroke-width:0.5;" width="162" x="564" y="50"/><text fill="#000000" font-family="sans-serif" font-size="14" lengthAdjust="spacing" textLength="148" x="571" y="71.5332">AuthController (NestJS)</text><rect fill="#E2E2F0" height="31.6094" rx="2.5" ry="2.5" style="stroke:#181818;stroke-width:0.5;" width="162" x="564" y="344.4219"/><text fill="#000000" font-family="sans-serif" font-size="14" lengthAdjust="spacing" textLength="148" x="571" y="365.9551">AuthController (NestJS)</text><polygon fill="#181818" points="175,110.9609,185,114.9609,175,118.9609,179,114.9609" style="stroke:#181818;stroke-width:1.0;"/><line style="stroke:#181818;stroke-width:1.0;" x1="35" x2="181" y1="114.9609" y2="114.9609"/><text fill="#000000" font-family="sans-serif" font-size="13" lengthAdjust="spacing" textLength="128" x="42" y="110.1045">confirma cerrar sesi&#243;n</text><polygon fill="#181818" points="330,141.3125,340,145.3125,330,149.3125,334,145.3125" style="stroke:#181818;stroke-width:1.0;"/><line style="stroke:#181818;stroke-width:1.0;" x1="187" x2="336" y1="145.3125" y2="145.3125"/><text fill="#000000" font-family="sans-serif" font-size="13" lengthAdjust="spacing" textLength="43" x="194" y="140.4561">logout()</text><polygon fill="#181818" points="469,171.6641,479,175.6641,469,179.6641,473,175.6641" style="stroke:#181818;stroke-width:1.0;"/><line style="stroke:#181818;stroke-width:1.0;" x1="342" x2="475" y1="175.6641" y2="175.6641"/><text fill="#000000" font-family="sans-serif" font-size="13" lengthAdjust="spacing" textLength="71" x="349" y="170.8076">clearToken()</text><polygon fill="#181818" points="469,202.0156,479,206.0156,469,210.0156,473,206.0156" style="stroke:#181818;stroke-width:1.0;"/><line style="stroke:#181818;stroke-width:1.0;" x1="342" x2="475" y1="206.0156" y2="206.0156"/><text fill="#000000" font-family="sans-serif" font-size="13" lengthAdjust="spacing" textLength="99" x="349" y="201.1592">clearUserProfile()</text><polygon fill="#181818" points="633,232.3672,643,236.3672,633,240.3672,637,236.3672" style="stroke:#181818;stroke-width:1.0;"/><line style="stroke:#181818;stroke-width:1.0;" x1="342" x2="639" y1="236.3672" y2="236.3672"/><text fill="#000000" font-family="sans-serif" font-size="13" lengthAdjust="spacing" textLength="203" x="349" y="231.5107">HTTP POST /auth/logout (opcional)</text><polygon fill="#181818" points="353,262.7188,343,266.7188,353,270.7188,349,266.7188" style="stroke:#181818;stroke-width:1.0;"/><line style="stroke:#181818;stroke-width:1.0;stroke-dasharray:2.0,2.0;" x1="347" x2="644" y1="266.7188" y2="266.7188"/><text fill="#000000" font-family="sans-serif" font-size="13" lengthAdjust="spacing" textLength="44" x="359" y="261.8623">200 OK</text><polygon fill="#181818" points="198,293.0703,188,297.0703,198,301.0703,194,297.0703" style="stroke:#181818;stroke-width:1.0;"/><line style="stroke:#181818;stroke-width:1.0;stroke-dasharray:2.0,2.0;" x1="192" x2="341" y1="297.0703" y2="297.0703"/><text fill="#000000" font-family="sans-serif" font-size="13" lengthAdjust="spacing" textLength="96" x="204" y="292.2139">clear client state</text><polygon fill="#181818" points="46,323.4219,36,327.4219,46,331.4219,42,327.4219" style="stroke:#181818;stroke-width:1.0;"/><line style="stroke:#181818;stroke-width:1.0;stroke-dasharray:2.0,2.0;" x1="40" x2="186" y1="327.4219" y2="327.4219"/><text fill="#000000" font-family="sans-serif" font-size="13" lengthAdjust="spacing" textLength="88" x="52" y="322.5654">redirige a /login</text><!--SRC=[TP2nRi9038RtUmgBAGm8r96XKiM2IbLGatQtWW4hnpdo7K8yLn-XBrPVI24CNKvd-vF__tTiEBIeU0JFWTAb9MZ5NtBXucqM3xYLCuSzxD17SWxh90eRbHr5KMTKuffR30b62r95BIcoX2-cCnGVPFnu11WXDnxnKwINKpf0iHHfhb3-FK9lKgClJHFtD5tOcAaZ-zOZdDSj92GLxqcXUAUONilhwdlVkJ_xC7dkVC4SQWaxrYD2tOM0Q2b-leFhnePbPuPvsSif5MFNrTRlVUGDdb0hQIZyF_wCf5cSFGsWWUKvBAjg0vjrMS4KBSxqgWY5jBMT5VtO3V39tTdJR0RhLRzpa2lBsija1ue94_MH3BcTOGvAMrOsemXPaOFx1G00]--></g></svg>