<?xml version="1.0" encoding="us-ascii" standalone="no"?><svg xmlns="http://www.w3.org/2000/svg" xmlns:xlink="http://www.w3.org/1999/xlink" contentStyleType="text/css" height="565px" preserveAspectRatio="none" style="width:1518px;height:565px;background:#FFFFFF;" version="1.1" viewBox="0 0 1518 565" width="1518px" zoomAndPan="magnify"><defs/><g><line style="stroke:#181818;stroke-width:0.5;stroke-dasharray:5.0,5.0;" x1="51" x2="51" y1="82.6094" y2="483.1797"/><line style="stroke:#181818;stroke-width:0.5;stroke-dasharray:5.0,5.0;" x1="381.5" x2="381.5" y1="82.6094" y2="483.1797"/><line style="stroke:#181818;stroke-width:0.5;stroke-dasharray:5.0,5.0;" x1="574.5" x2="574.5" y1="82.6094" y2="483.1797"/><line style="stroke:#181818;stroke-width:0.5;stroke-dasharray:5.0,5.0;" x1="744.5" x2="744.5" y1="82.6094" y2="483.1797"/><line style="stroke:#181818;stroke-width:0.5;stroke-dasharray:5.0,5.0;" x1="985" x2="985" y1="82.6094" y2="483.1797"/><line style="stroke:#181818;stroke-width:0.5;stroke-dasharray:5.0,5.0;" x1="1155.5" x2="1155.5" y1="82.6094" y2="483.1797"/><line style="stroke:#181818;stroke-width:0.5;stroke-dasharray:5.0,5.0;" x1="1475" x2="1475" y1="82.6094" y2="483.1797"/><text fill="#000000" font-family="sans-serif" font-size="14" lengthAdjust="spacing" textLength="87" x="5" y="79.5332">Administrador</text><ellipse cx="51.5" cy="13.5" fill="#E2E2F0" rx="8" ry="8" style="stroke:#181818;stroke-width:0.5;"/><path d="M51.5,21.5 L51.5,48.5 M38.5,29.5 L64.5,29.5 M51.5,48.5 L38.5,63.5 M51.5,48.5 L64.5,63.5 " fill="none" style="stroke:#181818;stroke-width:0.5;"/><text fill="#000000" font-family="sans-serif" font-size="14" lengthAdjust="spacing" textLength="87" x="5" y="496.7129">Administrador</text><ellipse cx="51.5" cy="508.2891" fill="#E2E2F0" rx="8" ry="8" style="stroke:#181818;stroke-width:0.5;"/><path d="M51.5,516.2891 L51.5,543.2891 M38.5,524.2891 L64.5,524.2891 M51.5,543.2891 L38.5,558.2891 M51.5,543.2891 L64.5,558.2891 " fill="none" style="stroke:#181818;stroke-width:0.5;"/><rect fill="#E2E2F0" height="66.8281" rx="2.5" ry="2.5" style="stroke:#181818;stroke-width:0.5;" width="134" x="314.5" y="14.7813"/><text fill="#000000" font-family="sans-serif" font-size="14" font-style="italic" lengthAdjust="spacing" textLength="89" x="337" y="36.3145">&#171;Component&#187;</text><text fill="#000000" font-family="sans-serif" font-size="14" lengthAdjust="spacing" textLength="120" x="321.5" y="53.9238">ProfesoresListView</text><text fill="#000000" font-family="sans-serif" font-size="14" lengthAdjust="spacing" textLength="47" x="358" y="71.5332">(React)</text><rect fill="#E2E2F0" height="66.8281" rx="2.5" ry="2.5" style="stroke:#181818;stroke-width:0.5;" width="134" x="314.5" y="482.1797"/><text fill="#000000" font-family="sans-serif" font-size="14" font-style="italic" lengthAdjust="spacing" textLength="89" x="337" y="503.7129">&#171;Component&#187;</text><text fill="#000000" font-family="sans-serif" font-size="14" lengthAdjust="spacing" textLength="120" x="321.5" y="521.3223">ProfesoresListView</text><text fill="#000000" font-family="sans-serif" font-size="14" lengthAdjust="spacing" textLength="47" x="358" y="538.9316">(React)</text><rect fill="#E2E2F0" height="66.8281" rx="2.5" ry="2.5" style="stroke:#181818;stroke-width:0.5;" width="106" x="521.5" y="14.7813"/><text fill="#000000" font-family="sans-serif" font-size="14" font-style="italic" lengthAdjust="spacing" textLength="50" x="549.5" y="36.3145">&#171;Hook&#187;</text><text fill="#000000" font-family="sans-serif" font-size="14" lengthAdjust="spacing" textLength="92" x="528.5" y="53.9238">useProfesores</text><text fill="#000000" font-family="sans-serif" font-size="14" lengthAdjust="spacing" textLength="42" x="553.5" y="71.5332">(Hook)</text><rect fill="#E2E2F0" height="66.8281" rx="2.5" ry="2.5" style="stroke:#181818;stroke-width:0.5;" width="106" x="521.5" y="482.1797"/><text fill="#000000" font-family="sans-serif" font-size="14" font-style="italic" lengthAdjust="spacing" textLength="50" x="549.5" y="503.7129">&#171;Hook&#187;</text><text fill="#000000" font-family="sans-serif" font-size="14" lengthAdjust="spacing" textLength="92" x="528.5" y="521.3223">useProfesores</text><text fill="#000000" font-family="sans-serif" font-size="14" lengthAdjust="spacing" textLength="42" x="553.5" y="538.9316">(Hook)</text><rect fill="#E2E2F0" height="66.8281" rx="2.5" ry="2.5" style="stroke:#181818;stroke-width:0.5;" width="130" x="679.5" y="14.7813"/><text fill="#000000" font-family="sans-serif" font-size="14" font-style="italic" lengthAdjust="spacing" textLength="62" x="713.5" y="36.3145">&#171;Service&#187;</text><text fill="#000000" font-family="sans-serif" font-size="14" lengthAdjust="spacing" textLength="116" x="686.5" y="53.9238">ProfesoresService</text><text fill="#000000" font-family="sans-serif" font-size="14" lengthAdjust="spacing" textLength="43" x="723" y="71.5332">(Axios)</text><rect fill="#E2E2F0" height="66.8281" rx="2.5" ry="2.5" style="stroke:#181818;stroke-width:0.5;" width="130" x="679.5" y="482.1797"/><text fill="#000000" font-family="sans-serif" font-size="14" font-style="italic" lengthAdjust="spacing" textLength="62" x="713.5" y="503.7129">&#171;Service&#187;</text><text fill="#000000" font-family="sans-serif" font-size="14" lengthAdjust="spacing" textLength="116" x="686.5" y="521.3223">ProfesoresService</text><text fill="#000000" font-family="sans-serif" font-size="14" lengthAdjust="spacing" textLength="43" x="723" y="538.9316">(Axios)</text><rect fill="#E2E2F0" height="66.8281" rx="2.5" ry="2.5" style="stroke:#181818;stroke-width:0.5;" width="145" x="913" y="14.7813"/><text fill="#000000" font-family="sans-serif" font-size="14" font-style="italic" lengthAdjust="spacing" textLength="78" x="946.5" y="36.3145">&#171;Controller&#187;</text><text fill="#000000" font-family="sans-serif" font-size="14" lengthAdjust="spacing" textLength="131" x="920" y="53.9238">ProfesoresController</text><text fill="#000000" font-family="sans-serif" font-size="14" lengthAdjust="spacing" textLength="53" x="959" y="71.5332">(NestJS)</text><rect fill="#E2E2F0" height="66.8281" rx="2.5" ry="2.5" style="stroke:#181818;stroke-width:0.5;" width="145" x="913" y="482.1797"/><text fill="#000000" font-family="sans-serif" font-size="14" font-style="italic" lengthAdjust="spacing" textLength="78" x="946.5" y="503.7129">&#171;Controller&#187;</text><text fill="#000000" font-family="sans-serif" font-size="14" lengthAdjust="spacing" textLength="131" x="920" y="521.3223">ProfesoresController</text><text fill="#000000" font-family="sans-serif" font-size="14" lengthAdjust="spacing" textLength="53" x="959" y="538.9316">(NestJS)</text><rect fill="#E2E2F0" height="66.8281" rx="2.5" ry="2.5" style="stroke:#181818;stroke-width:0.5;" width="130" x="1090.5" y="14.7813"/><text fill="#000000" font-family="sans-serif" font-size="14" font-style="italic" lengthAdjust="spacing" textLength="62" x="1124.5" y="36.3145">&#171;Service&#187;</text><text fill="#000000" font-family="sans-serif" font-size="14" lengthAdjust="spacing" textLength="116" x="1097.5" y="53.9238">ProfesoresService</text><text fill="#000000" font-family="sans-serif" font-size="14" lengthAdjust="spacing" textLength="53" x="1129" y="71.5332">(NestJS)</text><rect fill="#E2E2F0" height="66.8281" rx="2.5" ry="2.5" style="stroke:#181818;stroke-width:0.5;" width="130" x="1090.5" y="482.1797"/><text fill="#000000" font-family="sans-serif" font-size="14" font-style="italic" lengthAdjust="spacing" textLength="62" x="1124.5" y="503.7129">&#171;Service&#187;</text><text fill="#000000" font-family="sans-serif" font-size="14" lengthAdjust="spacing" textLength="116" x="1097.5" y="521.3223">ProfesoresService</text><text fill="#000000" font-family="sans-serif" font-size="14" lengthAdjust="spacing" textLength="53" x="1129" y="538.9316">(NestJS)</text><text fill="#000000" font-family="sans-serif" font-size="14" lengthAdjust="spacing" textLength="77" x="1434" y="79.5332">PostgreSQL</text><path d="M1457.5,29 C1457.5,19 1475.5,19 1475.5,19 C1475.5,19 1493.5,19 1493.5,29 L1493.5,55 C1493.5,65 1475.5,65 1475.5,65 C1475.5,65 1457.5,65 1457.5,55 L1457.5,29 " fill="#E2E2F0" style="stroke:#181818;stroke-width:1.5;"/><path d="M1457.5,29 C1457.5,39 1475.5,39 1475.5,39 C1475.5,39 1493.5,39 1493.5,29 " fill="none" style="stroke:#181818;stroke-width:1.5;"/><text fill="#000000" font-family="sans-serif" font-size="14" lengthAdjust="spacing" textLength="77" x="1434" y="496.7129">PostgreSQL</text><path d="M1457.5,509.7891 C1457.5,499.7891 1475.5,499.7891 1475.5,499.7891 C1475.5,499.7891 1493.5,499.7891 1493.5,509.7891 L1493.5,535.7891 C1493.5,545.7891 1475.5,545.7891 1475.5,545.7891 C1475.5,545.7891 1457.5,545.7891 1457.5,535.7891 L1457.5,509.7891 " fill="#E2E2F0" style="stroke:#181818;stroke-width:1.5;"/><path d="M1457.5,509.7891 C1457.5,519.7891 1475.5,519.7891 1475.5,519.7891 C1475.5,519.7891 1493.5,519.7891 1493.5,509.7891 " fill="none" style="stroke:#181818;stroke-width:1.5;"/><polygon fill="#181818" points="369.5,110.9609,379.5,114.9609,369.5,118.9609,373.5,114.9609" style="stroke:#181818;stroke-width:1.0;"/><line style="stroke:#181818;stroke-width:1.0;" x1="51.5" x2="375.5" y1="114.9609" y2="114.9609"/><text fill="#000000" font-family="sans-serif" font-size="13" lengthAdjust="spacing" textLength="197" x="58.5" y="110.1045">Accede a la gesti&#243;n de profesores</text><polygon fill="#181818" points="562.5,141.3125,572.5,145.3125,562.5,149.3125,566.5,145.3125" style="stroke:#181818;stroke-width:1.0;"/><line style="stroke:#181818;stroke-width:1.0;" x1="381.5" x2="568.5" y1="145.3125" y2="145.3125"/><text fill="#000000" font-family="sans-serif" font-size="13" lengthAdjust="spacing" textLength="130" x="388.5" y="140.4561">fetchProfesores(query)</text><polygon fill="#181818" points="732.5,171.6641,742.5,175.6641,732.5,179.6641,736.5,175.6641" style="stroke:#181818;stroke-width:1.0;"/><line style="stroke:#181818;stroke-width:1.0;" x1="574.5" x2="738.5" y1="175.6641" y2="175.6641"/><text fill="#000000" font-family="sans-serif" font-size="13" lengthAdjust="spacing" textLength="120" x="581.5" y="170.8076">getProfesores(query)</text><polygon fill="#181818" points="973.5,202.0156,983.5,206.0156,973.5,210.0156,977.5,206.0156" style="stroke:#181818;stroke-width:1.0;"/><line style="stroke:#181818;stroke-width:1.0;" x1="744.5" x2="979.5" y1="206.0156" y2="206.0156"/><text fill="#000000" font-family="sans-serif" font-size="13" lengthAdjust="spacing" textLength="217" x="751.5" y="201.1592">GET /profesores?search=...&amp;page=...</text><polygon fill="#181818" points="1143.5,232.3672,1153.5,236.3672,1143.5,240.3672,1147.5,236.3672" style="stroke:#181818;stroke-width:1.0;"/><line style="stroke:#181818;stroke-width:1.0;" x1="985.5" x2="1149.5" y1="236.3672" y2="236.3672"/><text fill="#000000" font-family="sans-serif" font-size="13" lengthAdjust="spacing" textLength="75" x="992.5" y="231.5107">findAll(query)</text><polygon fill="#181818" points="1463.5,279.0703,1473.5,283.0703,1463.5,287.0703,1467.5,283.0703" style="stroke:#181818;stroke-width:1.0;"/><line style="stroke:#181818;stroke-width:1.0;" x1="1155.5" x2="1469.5" y1="283.0703" y2="283.0703"/><text fill="#000000" font-family="sans-serif" font-size="13" lengthAdjust="spacing" textLength="296" x="1162.5" y="261.8623">SELECT * FROM "Profesor" INNER JOIN "Usuario"</text><text fill="#000000" font-family="sans-serif" font-size="13" lengthAdjust="spacing" textLength="169" x="1162.5" y="278.2139">ON "usuarioId" = "Usuario".id</text><polygon fill="#181818" points="1166.5,309.4219,1156.5,313.4219,1166.5,317.4219,1162.5,313.4219" style="stroke:#181818;stroke-width:1.0;"/><line style="stroke:#181818;stroke-width:1.0;stroke-dasharray:2.0,2.0;" x1="1160.5" x2="1474.5" y1="313.4219" y2="313.4219"/><text fill="#000000" font-family="sans-serif" font-size="13" lengthAdjust="spacing" textLength="204" x="1172.5" y="308.5654">Lista de profesores + datos usuario</text><polygon fill="#181818" points="996.5,339.7734,986.5,343.7734,996.5,347.7734,992.5,343.7734" style="stroke:#181818;stroke-width:1.0;"/><line style="stroke:#181818;stroke-width:1.0;stroke-dasharray:2.0,2.0;" x1="990.5" x2="1154.5" y1="343.7734" y2="343.7734"/><text fill="#000000" font-family="sans-serif" font-size="13" lengthAdjust="spacing" textLength="146" x="1002.5" y="338.917">PaginatedProfesoresDTO</text><polygon fill="#181818" points="755.5,370.125,745.5,374.125,755.5,378.125,751.5,374.125" style="stroke:#181818;stroke-width:1.0;"/><line style="stroke:#181818;stroke-width:1.0;stroke-dasharray:2.0,2.0;" x1="749.5" x2="984.5" y1="374.125" y2="374.125"/><text fill="#000000" font-family="sans-serif" font-size="13" lengthAdjust="spacing" textLength="96" x="761.5" y="369.2686">JSON Response</text><polygon fill="#181818" points="585.5,400.4766,575.5,404.4766,585.5,408.4766,581.5,404.4766" style="stroke:#181818;stroke-width:1.0;"/><line style="stroke:#181818;stroke-width:1.0;stroke-dasharray:2.0,2.0;" x1="579.5" x2="743.5" y1="404.4766" y2="404.4766"/><text fill="#000000" font-family="sans-serif" font-size="13" lengthAdjust="spacing" textLength="146" x="591.5" y="399.6201">PaginatedProfesoresDTO</text><polygon fill="#181818" points="392.5,430.8281,382.5,434.8281,392.5,438.8281,388.5,434.8281" style="stroke:#181818;stroke-width:1.0;"/><line style="stroke:#181818;stroke-width:1.0;stroke-dasharray:2.0,2.0;" x1="386.5" x2="573.5" y1="434.8281" y2="434.8281"/><text fill="#000000" font-family="sans-serif" font-size="13" lengthAdjust="spacing" textLength="169" x="398.5" y="429.9717">Actualiza estado (profesores)</text><polygon fill="#181818" points="62.5,461.1797,52.5,465.1797,62.5,469.1797,58.5,465.1797" style="stroke:#181818;stroke-width:1.0;"/><line style="stroke:#181818;stroke-width:1.0;stroke-dasharray:2.0,2.0;" x1="56.5" x2="380.5" y1="465.1797" y2="465.1797"/><text fill="#000000" font-family="sans-serif" font-size="13" lengthAdjust="spacing" textLength="306" x="68.5" y="460.3232">Muestra tabla (c&#243;digo, nombre, email, departamento)</text><!--SRC=[ZLFBSfj04BplLqnnI4c9hDmfMocXHoALB3b2picNCOpGbc6Nx2vnaj_o9_Z7CY1P2qvSbHExJ7VFqDFO1wbAD5Y0FM2g7wNAO8-v9I4mSTh0E2saajOPhXh1K2SJMQ9o4DmOlIUh3TaL0xv9UhnJlIqnhny0MhXTmENbH1UbLgJSQDHbLvQy01E_QFrmvDKdPjQFroJFYCdya0anSVnJQdjapazlcNqwlIqmqSePdUTaM6DDrYtZeuWlDEE_NFvdbBPCzAzPKdHuZvQOhgtB3CLVLmrw6WdHiHekHhM18OoJX582X1mXOttv_AI0NvJd_e9nZ6vi2s5FBZduuNhVApA_-gAfCkfiKSXgxc_SkSxObXCXV9xjuADl-iaIckHmDHmEtvMOKNqGBGBJ8zzgBrKwplEN9Y9gTPb638Xdgzba1-zXljrSUtC3MApNioqiDuir1BUsGYDrSASswpf0pMsH1d3bQqEP2bQywFQl0ufTr-03y3QqXPDEUwZNttw3cLJeAFL-JNURpkTshLt6FE6MB4UVVwLvM_YqfZSaZsloktSLvl8t0Y-UKm4zFp-xME-TeTtSX71TKNq1ZXfdffSyFwKoqmDGkhWtD00gKEO3TgFECnRyR-g- -0C0]--></g></svg>