<?xml version="1.0" encoding="us-ascii" standalone="no"?><svg xmlns="http://www.w3.org/2000/svg" xmlns:xlink="http://www.w3.org/1999/xlink" contentStyleType="text/css" height="451px" preserveAspectRatio="none" style="width:593px;height:451px;background:#FFFFFF;" version="1.1" viewBox="0 0 593 451" width="593px" zoomAndPan="magnify"><defs/><g><!--cluster eliminarExamen--><g id="cluster_eliminarExamen"><path d="M8.5,6 L130.5,6 A3.75,3.75 0 0 1 133,8.5 L140,29.6094 L256.5,29.6094 A2.5,2.5 0 0 1 259,32.1094 L259,441.5 A2.5,2.5 0 0 1 256.5,444 L8.5,444 A2.5,2.5 0 0 1 6,441.5 L6,8.5 A2.5,2.5 0 0 1 8.5,6 " fill="none" style="stroke:#000000;stroke-width:1.5;"/><line style="stroke:#000000;stroke-width:1.5;" x1="6" x2="140" y1="29.6094" y2="29.6094"/><text fill="#000000" font-family="sans-serif" font-size="14" font-weight="bold" lengthAdjust="spacing" textLength="121" x="10" y="22.5332">eliminarExamen()</text></g><!--entity EliminarExamenView--><g id="elem_EliminarExamenView"><rect fill="#629EF9" height="37.6094" rx="2.5" ry="2.5" style="stroke:#181818;stroke-width:0.5;" width="149" x="93.5" y="42"/><text fill="#000000" font-family="sans-serif" font-size="14" lengthAdjust="spacing" textLength="129" x="103.5" y="66.5332">EliminarExamenView</text></g><!--entity ExamenController--><g id="elem_ExamenController"><rect fill="#B5BD68" height="37.6094" rx="2.5" ry="2.5" style="stroke:#181818;stroke-width:0.5;" width="132" x="23" y="158"/><text fill="#000000" font-family="sans-serif" font-size="14" lengthAdjust="spacing" textLength="112" x="33" y="182.5332">ExamenController</text></g><!--entity ExamenRepository--><g id="elem_ExamenRepository"><rect fill="#F2AC4E" height="37.6094" rx="2.5" ry="2.5" style="stroke:#181818;stroke-width:0.5;" width="138" x="22" y="274"/><text fill="#000000" font-family="sans-serif" font-size="14" lengthAdjust="spacing" textLength="118" x="32" y="298.5332">ExamenRepository</text></g><!--entity Examen--><g id="elem_Examen"><rect fill="#F2AC4E" height="37.6094" rx="2.5" ry="2.5" style="stroke:#181818;stroke-width:0.5;" width="70" x="56" y="390"/><text fill="#000000" font-family="sans-serif" font-size="14" lengthAdjust="spacing" textLength="50" x="66" y="414.5332">Examen</text></g><!--entity ExamenesAbierto--><g id="elem_ExamenesAbierto"><rect fill="#CDEBA5" height="37.6094" rx="2.5" ry="2.5" style="stroke:#181818;stroke-width:0.5;" width="138" x="413" y="158"/><text fill="#000000" font-family="sans-serif" font-size="14" lengthAdjust="spacing" textLength="118" x="423" y="182.5332">:Examenes Abierto</text></g><!--link ExamenesAbierto to EliminarExamenView--><g id="link_ExamenesAbierto_EliminarExamenView"><path d="M412.77,159.55 C354.29,145.65 280,128 280,128 C280,128 236.939,102.6265 203.769,83.0765 " fill="none" id="ExamenesAbierto-to-EliminarExamenView" style="stroke:#181818;stroke-width:1.0;"/><polygon fill="#181818" points="198.6,80.03,204.3225,88.0458,202.9075,82.5688,208.3845,81.1538,198.6,80.03" style="stroke:#181818;stroke-width:1.0;"/><text fill="#000000" font-family="sans-serif" font-size="13" lengthAdjust="spacing" textLength="157" x="281" y="124.4951">eliminarExamen(examenId)</text></g><!--link EliminarExamenView to ExamenesAbierto--><g id="link_EliminarExamenView_ExamenesAbierto"><path d="M242.78,75.05 C324.21,89.27 443,110 443,110 C443,110 456.75,133.253 468.29,152.803 " fill="none" id="EliminarExamenView-to-ExamenesAbierto" style="stroke:#181818;stroke-width:1.0;stroke-dasharray:7.0,7.0;"/><polygon fill="#181818" points="471.34,157.97,470.2097,148.1862,468.7984,153.6642,463.3204,152.2528,471.34,157.97" style="stroke:#181818;stroke-width:1.0;"/><text fill="#000000" font-family="sans-serif" font-size="13" lengthAdjust="spacing" textLength="58" x="454" y="124.4951">&#171;finalizar&#187;</text></g><!--link EliminarExamenView to ExamenesAbierto--><g id="link_EliminarExamenView_ExamenesAbierto"><path d="M242.86,72.18 C346.48,86.27 521,110 521,110 C521,110 521,128 521,128 C521,128 511.5752,139.6047 500.5252,153.1947 " fill="none" id="EliminarExamenView-to-ExamenesAbierto-1" style="stroke:#181818;stroke-width:1.0;stroke-dasharray:7.0,7.0;"/><polygon fill="#181818" points="496.74,157.85,505.5214,153.3905,499.8944,153.9706,499.3143,148.3435,496.74,157.85" style="stroke:#181818;stroke-width:1.0;"/><text fill="#000000" font-family="sans-serif" font-size="13" lengthAdjust="spacing" textLength="63" x="522" y="124.4951">&#171;cancelar&#187;</text></g><!--link EliminarExamenView to ExamenController--><g id="link_EliminarExamenView_ExamenController"><path d="M125.23,80.01 C92.88,93.63 54,110 54,110 C54,110 54,128 54,128 C54,128 62.3248,139.4121 72.2348,153.0021 " fill="none" id="EliminarExamenView-to-ExamenController" style="stroke:#181818;stroke-width:1.0;"/><polygon fill="#181818" points="75.77,157.85,73.6992,148.2213,72.824,153.8101,67.2353,152.9349,75.77,157.85" style="stroke:#181818;stroke-width:1.0;"/><text fill="#000000" font-family="sans-serif" font-size="13" lengthAdjust="spacing" textLength="184" x="55" y="124.4951">confirmarEliminacion(examenId)</text></g><!--link ExamenController to ExamenRepository--><g id="link_ExamenController_ExamenRepository"><path d="M89.32,196.06 C89.69,217.28 90.1932,246.301 90.5732,267.641 " fill="none" id="ExamenController-to-ExamenRepository" style="stroke:#181818;stroke-width:1.0;"/><polygon fill="#181818" points="90.68,273.64,94.5191,264.5702,90.591,268.6408,86.5204,264.7126,90.68,273.64" style="stroke:#181818;stroke-width:1.0;"/><text fill="#000000" font-family="sans-serif" font-size="13" lengthAdjust="spacing" textLength="109" x="92" y="240.4951">eliminar(examenId)</text></g><!--link ExamenRepository to Examen--><g id="link_ExamenRepository_Examen"><path d="M91,312.06 C91,333.28 91,362.3 91,383.64 " fill="none" id="ExamenRepository-to-Examen" style="stroke:#181818;stroke-width:1.0;"/><polygon fill="#181818" points="91,389.64,95,380.64,91,384.64,87,380.64,91,389.64" style="stroke:#181818;stroke-width:1.0;"/><text fill="#000000" font-family="sans-serif" font-size="13" lengthAdjust="spacing" textLength="55" x="92" y="356.4951">&#171;elimina&#187;</text></g><!--SRC=[bP71QiCm38RlUWgHNTf3UoXhMKi9P5aAk-wmk-AgnTInZMFOih5tdvjc9F72OBuOY- -JVk7w8hKbHnKggTatbj4QrLmV08w59trMZ7VvK_6OhJ7P5UzKiUOQirAoyoP1gl6dsDK0B8aBdHbPoKfgSZVWYYRZqcoUu2TWE8DXczMsE6on696lajzYi5oNnyr3DputsZkZ5BiOEwoo_Bxei1UsffRUkEPF3Bu0ehLmiKWdGk4kMdF6xVLydCC4tJQ90eSMmkYJT5L0RugGPjGeDles_KA39B_K0TMhGTZlEoLDOIhkSfd6tzjQfy0f-K4kUF_G16d1ghM-0G00]--></g></svg>