<?xml version="1.0" encoding="us-ascii" standalone="no"?><svg xmlns="http://www.w3.org/2000/svg" xmlns:xlink="http://www.w3.org/1999/xlink" contentStyleType="text/css" height="427px" preserveAspectRatio="none" style="width:728px;height:427px;background:#FFFFFF;" version="1.1" viewBox="0 0 728 427" width="728px" zoomAndPan="magnify"><defs/><g><line style="stroke:#181818;stroke-width:0.5;stroke-dasharray:5.0,5.0;" x1="31" x2="31" y1="82.6094" y2="345.4219"/><line style="stroke:#181818;stroke-width:0.5;stroke-dasharray:5.0,5.0;" x1="183.5" x2="183.5" y1="82.6094" y2="345.4219"/><line style="stroke:#181818;stroke-width:0.5;stroke-dasharray:5.0,5.0;" x1="338.5" x2="338.5" y1="82.6094" y2="345.4219"/><line style="stroke:#181818;stroke-width:0.5;stroke-dasharray:5.0,5.0;" x1="477.5" x2="477.5" y1="82.6094" y2="345.4219"/><line style="stroke:#181818;stroke-width:0.5;stroke-dasharray:5.0,5.0;" x1="641.5" x2="641.5" y1="82.6094" y2="345.4219"/><text fill="#000000" font-family="sans-serif" font-size="14" lengthAdjust="spacing" textLength="47" x="5" y="79.5332">Alumno</text><ellipse cx="31.5" cy="13.5" fill="#E2E2F0" rx="8" ry="8" style="stroke:#181818;stroke-width:0.5;"/><path d="M31.5,21.5 L31.5,48.5 M18.5,29.5 L44.5,29.5 M31.5,48.5 L18.5,63.5 M31.5,48.5 L44.5,63.5 " fill="none" style="stroke:#181818;stroke-width:0.5;"/><text fill="#000000" font-family="sans-serif" font-size="14" lengthAdjust="spacing" textLength="47" x="5" y="358.9551">Alumno</text><ellipse cx="31.5" cy="370.5313" fill="#E2E2F0" rx="8" ry="8" style="stroke:#181818;stroke-width:0.5;"/><path d="M31.5,378.5313 L31.5,405.5313 M18.5,386.5313 L44.5,386.5313 M31.5,405.5313 L18.5,420.5313 M31.5,405.5313 L44.5,420.5313 " fill="none" style="stroke:#181818;stroke-width:0.5;"/><rect fill="#E2E2F0" height="31.6094" rx="2.5" ry="2.5" style="stroke:#181818;stroke-width:0.5;" width="178" x="94.5" y="50"/><text fill="#000000" font-family="sans-serif" font-size="14" lengthAdjust="spacing" textLength="164" x="101.5" y="71.5332">CerrarSesionView (React)</text><rect fill="#E2E2F0" height="31.6094" rx="2.5" ry="2.5" style="stroke:#181818;stroke-width:0.5;" width="178" x="94.5" y="344.4219"/><text fill="#000000" font-family="sans-serif" font-size="14" lengthAdjust="spacing" textLength="164" x="101.5" y="365.9551">CerrarSesionView (React)</text><rect fill="#E2E2F0" height="31.6094" rx="2.5" ry="2.5" style="stroke:#181818;stroke-width:0.5;" width="112" x="282.5" y="50"/><text fill="#000000" font-family="sans-serif" font-size="14" lengthAdjust="spacing" textLength="98" x="289.5" y="71.5332">useAuth (Hook)</text><rect fill="#E2E2F0" height="31.6094" rx="2.5" ry="2.5" style="stroke:#181818;stroke-width:0.5;" width="112" x="282.5" y="344.4219"/><text fill="#000000" font-family="sans-serif" font-size="14" lengthAdjust="spacing" textLength="98" x="289.5" y="365.9551">useAuth (Hook)</text><rect fill="#E2E2F0" height="31.6094" rx="2.5" ry="2.5" style="stroke:#181818;stroke-width:0.5;" width="146" x="404.5" y="50"/><text fill="#000000" font-family="sans-serif" font-size="14" lengthAdjust="spacing" textLength="132" x="411.5" y="71.5332">LocalStorage/Cookie</text><rect fill="#E2E2F0" height="31.6094" rx="2.5" ry="2.5" style="stroke:#181818;stroke-width:0.5;" width="146" x="404.5" y="344.4219"/><text fill="#000000" font-family="sans-serif" font-size="14" lengthAdjust="spacing" textLength="132" x="411.5" y="365.9551">LocalStorage/Cookie</text><rect fill="#E2E2F0" height="31.6094" rx="2.5" ry="2.5" style="stroke:#181818;stroke-width:0.5;" width="162" x="560.5" y="50"/><text fill="#000000" font-family="sans-serif" font-size="14" lengthAdjust="spacing" textLength="148" x="567.5" y="71.5332">AuthController (NestJS)</text><rect fill="#E2E2F0" height="31.6094" rx="2.5" ry="2.5" style="stroke:#181818;stroke-width:0.5;" width="162" x="560.5" y="344.4219"/><text fill="#000000" font-family="sans-serif" font-size="14" lengthAdjust="spacing" textLength="148" x="567.5" y="365.9551">AuthController (NestJS)</text><polygon fill="#181818" points="171.5,110.9609,181.5,114.9609,171.5,118.9609,175.5,114.9609" style="stroke:#181818;stroke-width:1.0;"/><line style="stroke:#181818;stroke-width:1.0;" x1="31.5" x2="177.5" y1="114.9609" y2="114.9609"/><text fill="#000000" font-family="sans-serif" font-size="13" lengthAdjust="spacing" textLength="128" x="38.5" y="110.1045">confirma cerrar sesi&#243;n</text><polygon fill="#181818" points="326.5,141.3125,336.5,145.3125,326.5,149.3125,330.5,145.3125" style="stroke:#181818;stroke-width:1.0;"/><line style="stroke:#181818;stroke-width:1.0;" x1="183.5" x2="332.5" y1="145.3125" y2="145.3125"/><text fill="#000000" font-family="sans-serif" font-size="13" lengthAdjust="spacing" textLength="43" x="190.5" y="140.4561">logout()</text><polygon fill="#181818" points="465.5,171.6641,475.5,175.6641,465.5,179.6641,469.5,175.6641" style="stroke:#181818;stroke-width:1.0;"/><line style="stroke:#181818;stroke-width:1.0;" x1="338.5" x2="471.5" y1="175.6641" y2="175.6641"/><text fill="#000000" font-family="sans-serif" font-size="13" lengthAdjust="spacing" textLength="71" x="345.5" y="170.8076">clearToken()</text><polygon fill="#181818" points="465.5,202.0156,475.5,206.0156,465.5,210.0156,469.5,206.0156" style="stroke:#181818;stroke-width:1.0;"/><line style="stroke:#181818;stroke-width:1.0;" x1="338.5" x2="471.5" y1="206.0156" y2="206.0156"/><text fill="#000000" font-family="sans-serif" font-size="13" lengthAdjust="spacing" textLength="99" x="345.5" y="201.1592">clearUserProfile()</text><polygon fill="#181818" points="629.5,232.3672,639.5,236.3672,629.5,240.3672,633.5,236.3672" style="stroke:#181818;stroke-width:1.0;"/><line style="stroke:#181818;stroke-width:1.0;" x1="338.5" x2="635.5" y1="236.3672" y2="236.3672"/><text fill="#000000" font-family="sans-serif" font-size="13" lengthAdjust="spacing" textLength="203" x="345.5" y="231.5107">HTTP POST /auth/logout (opcional)</text><polygon fill="#181818" points="349.5,262.7188,339.5,266.7188,349.5,270.7188,345.5,266.7188" style="stroke:#181818;stroke-width:1.0;"/><line style="stroke:#181818;stroke-width:1.0;stroke-dasharray:2.0,2.0;" x1="343.5" x2="640.5" y1="266.7188" y2="266.7188"/><text fill="#000000" font-family="sans-serif" font-size="13" lengthAdjust="spacing" textLength="44" x="355.5" y="261.8623">200 OK</text><polygon fill="#181818" points="194.5,293.0703,184.5,297.0703,194.5,301.0703,190.5,297.0703" style="stroke:#181818;stroke-width:1.0;"/><line style="stroke:#181818;stroke-width:1.0;stroke-dasharray:2.0,2.0;" x1="188.5" x2="337.5" y1="297.0703" y2="297.0703"/><text fill="#000000" font-family="sans-serif" font-size="13" lengthAdjust="spacing" textLength="96" x="200.5" y="292.2139">clear client state</text><polygon fill="#181818" points="42.5,323.4219,32.5,327.4219,42.5,331.4219,38.5,327.4219" style="stroke:#181818;stroke-width:1.0;"/><line style="stroke:#181818;stroke-width:1.0;stroke-dasharray:2.0,2.0;" x1="36.5" x2="182.5" y1="327.4219" y2="327.4219"/><text fill="#000000" font-family="sans-serif" font-size="13" lengthAdjust="spacing" textLength="88" x="48.5" y="322.5654">redirige a /login</text><!--SRC=[TP2nRi9038RtUmgBAGm8r96X4c91RLLGatQtWW6BunpvBa8yLn-XBrPV4fKmT3cTxK_-_z_npA51nGju3fHk3K4Z_fOB5_zcyOHxkN8umW5z9EUmJgAmykqbY3CcSSqDXWIJDQcYbXHPmXVJ5OeFCdew0OoG6uzu6sdLfXCK6v5p3-NV8_GcDVhI5F58yxMDcJfoQ3t2UTrQGbBndXIATuhffUnNt_lEzUPXzjovWYNK4Wwi5uIwYm3HClny1zUD3Sk-3FDob3OLKzVLrXzSv0sUK2ivK_X__1b9Toe7zZI2HeQNiAcg7UosPGLpj33pNX4AQMexAlgf6-6pkxEdnGAshyFEKQuiQo-JdIScJ3H4CcGumXAKzgniDX6o7WVt2m00]--></g></svg>