<?xml version="1.0" encoding="us-ascii" standalone="no"?><svg xmlns="http://www.w3.org/2000/svg" xmlns:xlink="http://www.w3.org/1999/xlink" contentStyleType="text/css" height="219px" preserveAspectRatio="none" style="width:761px;height:219px;background:#FFFFFF;" version="1.1" viewBox="0 0 761 219" width="761px" zoomAndPan="magnify"><defs/><g><!--cluster completarComunicacion--><g id="cluster_completarComunicacion"><path d="M320,6 L500,6 A3.75,3.75 0 0 1 502.5,8.5 L509.5,29.6094 L558,29.6094 A2.5,2.5 0 0 1 560.5,32.1094 L560.5,209.5 A2.5,2.5 0 0 1 558,212 L320,212 A2.5,2.5 0 0 1 317.5,209.5 L317.5,8.5 A2.5,2.5 0 0 1 320,6 " fill="none" style="stroke:#000000;stroke-width:1.5;"/><line style="stroke:#000000;stroke-width:1.5;" x1="317.5" x2="509.5" y1="29.6094" y2="29.6094"/><text fill="#000000" font-family="sans-serif" font-size="14" font-weight="bold" lengthAdjust="spacing" textLength="179" x="321.5" y="22.5332">completarComunicacion()</text></g><!--entity ComunicarIncidenciasView--><g id="elem_ComunicarIncidenciasView"><rect fill="#629EF9" height="37.6094" rx="2.5" ry="2.5" style="stroke:#181818;stroke-width:0.5;" width="187" x="334" y="42"/><text fill="#000000" font-family="sans-serif" font-size="14" lengthAdjust="spacing" textLength="167" x="344" y="66.5332">ComunicarIncidenciasView</text></g><!--entity IncidenciasController--><g id="elem_IncidenciasController"><rect fill="#B5BD68" height="37.6094" rx="2.5" ry="2.5" style="stroke:#181818;stroke-width:0.5;" width="152" x="333.5" y="158"/><text fill="#000000" font-family="sans-serif" font-size="14" lengthAdjust="spacing" textLength="132" x="343.5" y="182.5332">IncidenciasController</text></g><!--entity IncidenciasAbierto--><g id="elem_IncidenciasAbierto"><rect fill="#CDEBA5" height="37.6094" rx="2.5" ry="2.5" style="stroke:#181818;stroke-width:0.5;" width="143" x="7" y="42"/><text fill="#000000" font-family="sans-serif" font-size="14" lengthAdjust="spacing" textLength="123" x="17" y="66.5332">:Incidencias Abierto</text></g><!--entity SistemaDisponible--><g id="elem_SistemaDisponible"><rect fill="#CDEBA5" height="37.6094" rx="2.5" ry="2.5" style="stroke:#181818;stroke-width:0.5;" width="144" x="611.5" y="42"/><text fill="#000000" font-family="sans-serif" font-size="14" lengthAdjust="spacing" textLength="124" x="621.5" y="66.5332">:Sistema Disponible</text></g><!--link IncidenciasAbierto to ComunicarIncidenciasView--><g id="link_IncidenciasAbierto_ComunicarIncidenciasView"><path d="M150.39,61 C203.47,61 270.19,61 327.82,61 " fill="none" id="IncidenciasAbierto-to-ComunicarIncidenciasView" style="stroke:#181818;stroke-width:1.0;"/><polygon fill="#181818" points="333.82,61,324.82,57,328.82,61,324.82,65,333.82,61" style="stroke:#181818;stroke-width:1.0;"/><text fill="#000000" font-family="sans-serif" font-size="13" lengthAdjust="spacing" textLength="147" x="168.5" y="54.4951">completarComunicacion()</text></g><!--link ComunicarIncidenciasView to IncidenciasController--><g id="link_ComunicarIncidenciasView_IncidenciasController"><path d="M424.65,80.06 C421.3,101.28 416.7059,130.3734 413.3359,151.7134 " fill="none" id="ComunicarIncidenciasView-to-IncidenciasController" style="stroke:#181818;stroke-width:1.0;"/><polygon fill="#181818" points="412.4,157.64,417.7549,149.3741,413.1799,152.7012,409.8528,148.1262,412.4,157.64" style="stroke:#181818;stroke-width:1.0;"/><text fill="#000000" font-family="sans-serif" font-size="13" lengthAdjust="spacing" textLength="174" x="420.5" y="124.4951">finalizarSesionComunicacion()</text></g><!--link ComunicarIncidenciasView to SistemaDisponible--><g id="link_ComunicarIncidenciasView_SistemaDisponible"><path d="M521.01,61 C550.86,61 577.42,61 605.5,61 " fill="none" id="ComunicarIncidenciasView-to-SistemaDisponible" style="stroke:#181818;stroke-width:1.0;"/><polygon fill="#181818" points="611.5,61,602.5,57,606.5,61,602.5,65,611.5,61" style="stroke:#181818;stroke-width:1.0;"/><text fill="#000000" font-family="sans-serif" font-size="13" lengthAdjust="spacing" textLength="54" x="539.25" y="54.4951">&#171;navega&#187;</text></g><!--SRC=[ZOz1QyCm38Nl-XKYkso7N0OjQoc1BkrWvyBkYgC5KKSsjhVHZVttEQDZOKrWFXZhMNfwNpoAUWhKenNbTFACtjdJK004DecqiunNzMv_lrrWiNvK8otdYo9k6-6GN87vFTBFCdWoH-eOZUkzvKIXTlsBYY4ZJeUPOlBd-gR03y1yHlkNjwlzmmf_-i9etPFmsz_sPj6qoxjngDff2ivQ3l0vJNQGcBWdt4dqJgMn_0rsbdzLW4jMB4DPpQR3DSwG0ipEb6rsd0J8Ti-YPEMTme5ZDlg_wH3pWYWRRZPAhznHLS4N]--></g></svg>