<?xml version="1.0" encoding="us-ascii" standalone="no"?><svg xmlns="http://www.w3.org/2000/svg" xmlns:xlink="http://www.w3.org/1999/xlink" contentStyleType="text/css" height="335px" preserveAspectRatio="none" style="width:1196px;height:335px;background:#FFFFFF;" version="1.1" viewBox="0 0 1196 335" width="1196px" zoomAndPan="magnify"><defs/><g><!--cluster editarGrado--><g id="cluster_editarGrado"><path d="M8.5,6 L103.5,6 A3.75,3.75 0 0 1 106,8.5 L113,29.6094 L646.5,29.6094 A2.5,2.5 0 0 1 649,32.1094 L649,325.5 A2.5,2.5 0 0 1 646.5,328 L8.5,328 A2.5,2.5 0 0 1 6,325.5 L6,8.5 A2.5,2.5 0 0 1 8.5,6 " fill="none" style="stroke:#000000;stroke-width:1.5;"/><line style="stroke:#000000;stroke-width:1.5;" x1="6" x2="113" y1="29.6094" y2="29.6094"/><text fill="#000000" font-family="sans-serif" font-size="14" font-weight="bold" lengthAdjust="spacing" textLength="94" x="10" y="22.5332">editarGrado()</text></g><!--entity EditarGradoView--><g id="elem_EditarGradoView"><rect fill="#629EF9" height="37.6094" rx="2.5" ry="2.5" style="stroke:#181818;stroke-width:0.5;" width="126" x="506" y="42"/><text fill="#000000" font-family="sans-serif" font-size="14" lengthAdjust="spacing" textLength="106" x="516" y="66.5332">EditarGradoView</text></g><!--entity GradoController--><g id="elem_GradoController"><rect fill="#B5BD68" height="37.6094" rx="2.5" ry="2.5" style="stroke:#181818;stroke-width:0.5;" width="122" x="172" y="158"/><text fill="#000000" font-family="sans-serif" font-size="14" lengthAdjust="spacing" textLength="102" x="182" y="182.5332">GradoController</text></g><!--entity GradoRepository--><g id="elem_GradoRepository"><rect fill="#F2AC4E" height="37.6094" rx="2.5" ry="2.5" style="stroke:#181818;stroke-width:0.5;" width="128" x="154" y="274"/><text fill="#000000" font-family="sans-serif" font-size="14" lengthAdjust="spacing" textLength="108" x="164" y="298.5332">GradoRepository</text></g><!--entity Grado--><g id="elem_Grado"><rect fill="#F2AC4E" height="37.6094" rx="2.5" ry="2.5" style="stroke:#181818;stroke-width:0.5;" width="60" x="548" y="274"/><text fill="#000000" font-family="sans-serif" font-size="14" lengthAdjust="spacing" textLength="40" x="558" y="298.5332">Grado</text></g><!--entity GradosAbierto--><g id="elem_GradosAbierto"><rect fill="#CDEBA5" height="37.6094" rx="2.5" ry="2.5" style="stroke:#181818;stroke-width:0.5;" width="120" x="667" y="158"/><text fill="#000000" font-family="sans-serif" font-size="14" lengthAdjust="spacing" textLength="100" x="677" y="182.5332">:Grados Abierto</text></g><!--entity GradoAbierto--><g id="elem_GradoAbierto"><rect fill="#CDEBA5" height="37.6094" rx="2.5" ry="2.5" style="stroke:#181818;stroke-width:0.5;" width="113" x="954.5" y="158"/><text fill="#000000" font-family="sans-serif" font-size="14" lengthAdjust="spacing" textLength="93" x="964.5" y="182.5332">:Grado Abierto</text></g><!--link GradosAbierto to EditarGradoView--><g id="link_GradosAbierto_EditarGradoView"><path d="M666.68,158.13 C620.62,144.48 565,128 565,128 C565,128 565,110 565,110 C565,110 565.8628,99.7194 566.9928,86.1294 " fill="none" id="GradosAbierto-to-EditarGradoView" style="stroke:#181818;stroke-width:1.0;"/><polygon fill="#181818" points="567.49,80.15,562.758,88.7876,567.0757,85.1328,570.7305,89.4505,567.49,80.15" style="stroke:#181818;stroke-width:1.0;"/><text fill="#000000" font-family="sans-serif" font-size="13" lengthAdjust="spacing" textLength="117" x="566" y="124.4951">editarGrado(gradoId)</text></g><!--link EditarGradoView to GradosAbierto--><g id="link_EditarGradoView_GradosAbierto"><path d="M613.65,80.01 C647.42,93.63 688,110 688,110 C688,110 701.75,133.253 713.29,152.803 " fill="none" id="EditarGradoView-to-GradosAbierto" style="stroke:#181818;stroke-width:1.0;stroke-dasharray:7.0,7.0;"/><polygon fill="#181818" points="716.34,157.97,715.2097,148.1862,713.7984,153.6642,708.3204,152.2528,716.34,157.97" style="stroke:#181818;stroke-width:1.0;"/><text fill="#000000" font-family="sans-serif" font-size="13" lengthAdjust="spacing" textLength="137" x="700" y="124.4951">&#171;finalizar&#187; abrirGrados()</text></g><!--link EditarGradoView to GradosAbierto--><g id="link_EditarGradoView_GradosAbierto"><path d="M632.2,72.95 C713.96,87.12 846,110 846,110 C846,110 846,128 846,128 C846,128 810.9845,142.1258 777.2145,155.7458 " fill="none" id="EditarGradoView-to-GradosAbierto-1" style="stroke:#181818;stroke-width:1.0;stroke-dasharray:7.0,7.0;"/><polygon fill="#181818" points="771.65,157.99,781.4929,158.3333,776.2871,156.1198,778.5005,150.914,771.65,157.99" style="stroke:#181818;stroke-width:1.0;"/><text fill="#000000" font-family="sans-serif" font-size="13" lengthAdjust="spacing" textLength="63" x="847" y="124.4951">&#171;cancelar&#187;</text></g><!--link EditarGradoView to GradoController--><g id="link_EditarGradoView_GradoController"><path d="M505.8,68.03 C370.71,80.92 66,110 66,110 C66,110 66,128 66,128 C66,128 118.3335,143.0424 165.9935,156.7424 " fill="none" id="EditarGradoView-to-GradoController" style="stroke:#181818;stroke-width:1.0;"/><polygon fill="#181818" points="171.76,158.4,164.2153,152.0693,166.9546,157.0187,162.0052,159.7579,171.76,158.4" style="stroke:#181818;stroke-width:1.0;"/><text fill="#000000" font-family="sans-serif" font-size="13" lengthAdjust="spacing" textLength="138" x="67" y="124.4951">solicitarEdicion(gradoId)</text></g><!--link EditarGradoView to GradoController--><g id="link_EditarGradoView_GradoController"><path d="M505.86,72.42 C420.27,86.53 278,110 278,110 C278,110 261.9984,133.4615 248.6784,153.0115 " fill="none" id="EditarGradoView-to-GradoController-1" style="stroke:#181818;stroke-width:1.0;"/><polygon fill="#181818" points="245.3,157.97,253.6732,152.7845,248.1153,153.8379,247.0619,148.28,245.3,157.97" style="stroke:#181818;stroke-width:1.0;"/><text fill="#000000" font-family="sans-serif" font-size="13" lengthAdjust="spacing" textLength="277" x="279" y="124.4951">actualizar(gradoId, codigo, nombre, descripcion)</text></g><!--link GradoController to GradoRepository--><g id="link_GradoController_GradoRepository"><path d="M171.9,194.38 C120.04,208.29 54,226 54,226 C54,226 54,244 54,244 C54,244 104.1715,258.6848 150.7115,272.3048 " fill="none" id="GradoController-to-GradoRepository" style="stroke:#181818;stroke-width:1.0;"/><polygon fill="#181818" points="156.47,273.99,148.9558,267.6232,151.6713,272.5856,146.7088,275.3011,156.47,273.99" style="stroke:#181818;stroke-width:1.0;"/><text fill="#000000" font-family="sans-serif" font-size="13" lengthAdjust="spacing" textLength="119" x="55" y="240.4951">buscarPorId(gradoId)</text></g><!--link GradoController to GradoRepository--><g id="link_GradoController_GradoRepository"><path d="M226.19,196.15 C221.1,209.74 215,226 215,226 C215,226 215,244 215,244 C215,244 215.6455,254.2717 216.4955,267.8617 " fill="none" id="GradoController-to-GradoRepository-1" style="stroke:#181818;stroke-width:1.0;"/><polygon fill="#181818" points="216.87,273.85,220.3004,264.6179,216.5579,268.8598,212.316,265.1172,216.87,273.85" style="stroke:#181818;stroke-width:1.0;"/><text fill="#000000" font-family="sans-serif" font-size="13" lengthAdjust="spacing" textLength="180" x="216" y="240.4951">existeCodigo(codigo) : Boolean</text></g><!--link GradoController to GradoRepository--><g id="link_GradoController_GradoRepository"><path d="M294.13,195.46 C342.16,209.19 401,226 401,226 C401,226 401,244 401,244 C401,244 340.5838,259.8481 287.8038,273.6881 " fill="none" id="GradoController-to-GradoRepository-2" style="stroke:#181818;stroke-width:1.0;"/><polygon fill="#181818" points="282,275.21,291.7203,276.7964,286.8365,273.9418,289.6911,269.058,282,275.21" style="stroke:#181818;stroke-width:1.0;"/><text fill="#000000" font-family="sans-serif" font-size="13" lengthAdjust="spacing" textLength="96" x="402" y="240.4951">actualizar(grado)</text></g><!--link GradoAbierto to GradoAbierto--><g id="link_GradoAbierto_GradoAbierto"><path d="M1067.74,166.13 C1087.01,166.07 1102.5,169.69 1102.5,177 C1102.5,184.31 1093.01,187.9487 1073.74,187.8887 " fill="none" id="GradoAbierto-to-GradoAbierto" style="stroke:#181818;stroke-width:1.0;"/><polygon fill="#181818" points="1067.74,187.87,1076.7275,191.898,1072.74,187.8856,1076.7524,183.898,1067.74,187.87" style="stroke:#181818;stroke-width:1.0;"/><text fill="#000000" font-family="sans-serif" font-size="13" lengthAdjust="spacing" textLength="75" x="1108.5" y="182.4951">editarGrado()</text></g><!--link GradoController to Grado--><g id="link_GradoController_Grado"><path d="M294.15,188.71 C374.9,202.86 507,226 507,226 C507,226 533.1865,250.3338 554.2065,269.8838 " fill="none" id="GradoController-to-Grado" style="stroke:#181818;stroke-width:1.0;"/><polygon fill="#181818" points="558.6,273.97,554.7339,264.9117,554.9388,270.5648,549.2856,270.7696,558.6,273.97" style="stroke:#181818;stroke-width:1.0;"/><text fill="#000000" font-family="sans-serif" font-size="13" lengthAdjust="spacing" textLength="53" x="528" y="240.4951">&#171;update&#187;</text></g><!--link EditarGradoView to GradoAbierto--><g id="link_EditarGradoView_GradoAbierto"><path d="M632.38,70.69 C733.24,84.52 919,110 919,110 C919,110 953.7455,134.9216 980.9855,154.4716 " fill="none" id="EditarGradoView-to-GradoAbierto" style="stroke:#181818;stroke-width:1.0;stroke-dasharray:7.0,7.0;"/><polygon fill="#181818" points="985.86,157.97,980.8805,149.4727,981.7979,155.0546,976.2159,155.9721,985.86,157.97" style="stroke:#181818;stroke-width:1.0;"/><text fill="#000000" font-family="sans-serif" font-size="13" lengthAdjust="spacing" textLength="46" x="944" y="124.4951">&#171;editar&#187;</text></g><!--SRC=[ZP1HQy8m4CVVyocExgK5zK6cJ2a5xUhmRUnXxsboAy6Ob2IokR7lljJCjLOcxKCXn-ztzx-pEw5gQkWUf53eZZL2hUMnUH1Ya3cgAebmbpyMwzKCekMJeLnRM9K2ZTCHK0kXz5lvNxfspWgfATlH2W6vSDG4saDHvnqd4NmH0lxhJ9XF5yLc0KNBlGfyxrFbhEJpXp0pryePBIMQFhMPhlBx8b0lM6ihd3R7MnJv9kHYUHYFituOM7RNYglcl-K9wMEDsaleLQkbO0teSIQqQlq- - -UtsRrV7YoZvbcRBMzLqhr-AvuBbu4zFYmgPUv0fVYavZnf14npKUaHABql3Ow0esL6rCqcGpV03s4TvgT6SUYN-F9QQubK3MpIptPZkAVJz51pwZ3BhdUVJAwkbQRXNZTns-NVX0ffiWneQKGGR9mCz1bL3ELfuWy0]--></g></svg>