<?xml version="1.0" encoding="us-ascii" standalone="no"?><svg xmlns="http://www.w3.org/2000/svg" xmlns:xlink="http://www.w3.org/1999/xlink" contentStyleType="text/css" height="926px" preserveAspectRatio="none" style="width:1256px;height:926px;background:#FFFFFF;" version="1.1" viewBox="0 0 1256 926" width="1256px" zoomAndPan="magnify"><defs/><g><rect fill="none" height="381.0547" style="stroke:#000000;stroke-width:1.5;" width="948" x="10" y="446.4766"/><line style="stroke:#181818;stroke-width:0.5;stroke-dasharray:5.0,5.0;" x1="66" x2="66" y1="82.6094" y2="844.5313"/><line style="stroke:#181818;stroke-width:0.5;stroke-dasharray:5.0,5.0;" x1="220" x2="220" y1="82.6094" y2="844.5313"/><line style="stroke:#181818;stroke-width:0.5;stroke-dasharray:5.0,5.0;" x1="351" x2="351" y1="82.6094" y2="844.5313"/><line style="stroke:#181818;stroke-width:0.5;stroke-dasharray:5.0,5.0;" x1="516.5" x2="516.5" y1="82.6094" y2="844.5313"/><line style="stroke:#181818;stroke-width:0.5;stroke-dasharray:5.0,5.0;" x1="714" x2="714" y1="82.6094" y2="844.5313"/><line style="stroke:#181818;stroke-width:0.5;stroke-dasharray:5.0,5.0;" x1="879" x2="879" y1="82.6094" y2="844.5313"/><line style="stroke:#181818;stroke-width:0.5;stroke-dasharray:5.0,5.0;" x1="1030.5" x2="1030.5" y1="82.6094" y2="844.5313"/><line style="stroke:#181818;stroke-width:0.5;stroke-dasharray:5.0,5.0;" x1="1213.5" x2="1213.5" y1="82.6094" y2="844.5313"/><text fill="#000000" font-family="sans-serif" font-size="14" lengthAdjust="spacing" textLength="87" x="20" y="79.5332">Administrador</text><ellipse cx="66.5" cy="13.5" fill="#E2E2F0" rx="8" ry="8" style="stroke:#181818;stroke-width:0.5;"/><path d="M66.5,21.5 L66.5,48.5 M53.5,29.5 L79.5,29.5 M66.5,48.5 L53.5,63.5 M66.5,48.5 L79.5,63.5 " fill="none" style="stroke:#181818;stroke-width:0.5;"/><text fill="#000000" font-family="sans-serif" font-size="14" lengthAdjust="spacing" textLength="87" x="20" y="858.0645">Administrador</text><ellipse cx="66.5" cy="869.6406" fill="#E2E2F0" rx="8" ry="8" style="stroke:#181818;stroke-width:0.5;"/><path d="M66.5,877.6406 L66.5,904.6406 M53.5,885.6406 L79.5,885.6406 M66.5,904.6406 L53.5,919.6406 M66.5,904.6406 L79.5,919.6406 " fill="none" style="stroke:#181818;stroke-width:0.5;"/><rect fill="#E2E2F0" height="31.6094" rx="2.5" ry="2.5" style="stroke:#181818;stroke-width:0.5;" width="129" x="156" y="50"/><text fill="#000000" font-family="sans-serif" font-size="14" lengthAdjust="spacing" textLength="115" x="163" y="71.5332">LoginView (React)</text><rect fill="#E2E2F0" height="31.6094" rx="2.5" ry="2.5" style="stroke:#181818;stroke-width:0.5;" width="129" x="156" y="843.5313"/><text fill="#000000" font-family="sans-serif" font-size="14" lengthAdjust="spacing" textLength="115" x="163" y="865.0645">LoginView (React)</text><rect fill="#E2E2F0" height="31.6094" rx="2.5" ry="2.5" style="stroke:#181818;stroke-width:0.5;" width="112" x="295" y="50"/><text fill="#000000" font-family="sans-serif" font-size="14" lengthAdjust="spacing" textLength="98" x="302" y="71.5332">useAuth (Hook)</text><rect fill="#E2E2F0" height="31.6094" rx="2.5" ry="2.5" style="stroke:#181818;stroke-width:0.5;" width="112" x="295" y="843.5313"/><text fill="#000000" font-family="sans-serif" font-size="14" lengthAdjust="spacing" textLength="98" x="302" y="865.0645">useAuth (Hook)</text><rect fill="#E2E2F0" height="31.6094" rx="2.5" ry="2.5" style="stroke:#181818;stroke-width:0.5;" width="137" x="448.5" y="50"/><text fill="#000000" font-family="sans-serif" font-size="14" lengthAdjust="spacing" textLength="123" x="455.5" y="71.5332">AuthService (Axios)</text><rect fill="#E2E2F0" height="31.6094" rx="2.5" ry="2.5" style="stroke:#181818;stroke-width:0.5;" width="137" x="448.5" y="843.5313"/><text fill="#000000" font-family="sans-serif" font-size="14" lengthAdjust="spacing" textLength="123" x="455.5" y="865.0645">AuthService (Axios)</text><rect fill="#E2E2F0" height="31.6094" rx="2.5" ry="2.5" style="stroke:#181818;stroke-width:0.5;" width="162" x="633" y="50"/><text fill="#000000" font-family="sans-serif" font-size="14" lengthAdjust="spacing" textLength="148" x="640" y="71.5332">AuthController (NestJS)</text><rect fill="#E2E2F0" height="31.6094" rx="2.5" ry="2.5" style="stroke:#181818;stroke-width:0.5;" width="162" x="633" y="843.5313"/><text fill="#000000" font-family="sans-serif" font-size="14" lengthAdjust="spacing" textLength="148" x="640" y="865.0645">AuthController (NestJS)</text><rect fill="#E2E2F0" height="31.6094" rx="2.5" ry="2.5" style="stroke:#181818;stroke-width:0.5;" width="138" x="810" y="50"/><text fill="#000000" font-family="sans-serif" font-size="14" lengthAdjust="spacing" textLength="124" x="817" y="71.5332">AuthService (Logic)</text><rect fill="#E2E2F0" height="31.6094" rx="2.5" ry="2.5" style="stroke:#181818;stroke-width:0.5;" width="138" x="810" y="843.5313"/><text fill="#000000" font-family="sans-serif" font-size="14" lengthAdjust="spacing" textLength="124" x="817" y="865.0645">AuthService (Logic)</text><rect fill="#E2E2F0" height="31.6094" rx="2.5" ry="2.5" style="stroke:#181818;stroke-width:0.5;" width="97" x="982.5" y="50"/><text fill="#000000" font-family="sans-serif" font-size="14" lengthAdjust="spacing" textLength="83" x="989.5" y="71.5332">UsersService</text><rect fill="#E2E2F0" height="31.6094" rx="2.5" ry="2.5" style="stroke:#181818;stroke-width:0.5;" width="97" x="982.5" y="843.5313"/><text fill="#000000" font-family="sans-serif" font-size="14" lengthAdjust="spacing" textLength="83" x="989.5" y="865.0645">UsersService</text><text fill="#000000" font-family="sans-serif" font-size="14" lengthAdjust="spacing" textLength="77" x="1172.5" y="79.5332">PostgreSQL</text><path d="M1196,29 C1196,19 1214,19 1214,19 C1214,19 1232,19 1232,29 L1232,55 C1232,65 1214,65 1214,65 C1214,65 1196,65 1196,55 L1196,29 " fill="#E2E2F0" style="stroke:#181818;stroke-width:1.5;"/><path d="M1196,29 C1196,39 1214,39 1214,39 C1214,39 1232,39 1232,29 " fill="none" style="stroke:#181818;stroke-width:1.5;"/><text fill="#000000" font-family="sans-serif" font-size="14" lengthAdjust="spacing" textLength="77" x="1172.5" y="858.0645">PostgreSQL</text><path d="M1196,871.1406 C1196,861.1406 1214,861.1406 1214,861.1406 C1214,861.1406 1232,861.1406 1232,871.1406 L1232,897.1406 C1232,907.1406 1214,907.1406 1214,907.1406 C1214,907.1406 1196,907.1406 1196,897.1406 L1196,871.1406 " fill="#E2E2F0" style="stroke:#181818;stroke-width:1.5;"/><path d="M1196,871.1406 C1196,881.1406 1214,881.1406 1214,881.1406 C1214,881.1406 1232,881.1406 1232,871.1406 " fill="none" style="stroke:#181818;stroke-width:1.5;"/><polygon fill="#181818" points="208.5,110.9609,218.5,114.9609,208.5,118.9609,212.5,114.9609" style="stroke:#181818;stroke-width:1.0;"/><line style="stroke:#181818;stroke-width:1.0;" x1="66.5" x2="214.5" y1="114.9609" y2="114.9609"/><text fill="#000000" font-family="sans-serif" font-size="13" lengthAdjust="spacing" textLength="130" x="73.5" y="110.1045">introduce credenciales</text><polygon fill="#181818" points="339,141.3125,349,145.3125,339,149.3125,343,145.3125" style="stroke:#181818;stroke-width:1.0;"/><line style="stroke:#181818;stroke-width:1.0;" x1="220.5" x2="345" y1="145.3125" y2="145.3125"/><text fill="#000000" font-family="sans-serif" font-size="13" lengthAdjust="spacing" textLength="98" x="227.5" y="140.4561">login(credentials)</text><polygon fill="#181818" points="505,171.6641,515,175.6641,505,179.6641,509,175.6641" style="stroke:#181818;stroke-width:1.0;"/><line style="stroke:#181818;stroke-width:1.0;" x1="351" x2="511" y1="175.6641" y2="175.6641"/><text fill="#000000" font-family="sans-serif" font-size="13" lengthAdjust="spacing" textLength="142" x="358" y="170.8076">authenticate(credentials)</text><polygon fill="#181818" points="702,202.0156,712,206.0156,702,210.0156,706,206.0156" style="stroke:#181818;stroke-width:1.0;"/><line style="stroke:#181818;stroke-width:1.0;" x1="517" x2="708" y1="206.0156" y2="206.0156"/><text fill="#000000" font-family="sans-serif" font-size="13" lengthAdjust="spacing" textLength="173" x="524" y="201.1592">HTTP POST /auth/login (DTO)</text><polygon fill="#181818" points="867,232.3672,877,236.3672,867,240.3672,871,236.3672" style="stroke:#181818;stroke-width:1.0;"/><line style="stroke:#181818;stroke-width:1.0;" x1="714" x2="873" y1="236.3672" y2="236.3672"/><text fill="#000000" font-family="sans-serif" font-size="13" lengthAdjust="spacing" textLength="141" x="721" y="231.5107">validateUser(credentials)</text><polygon fill="#181818" points="1019,262.7188,1029,266.7188,1019,270.7188,1023,266.7188" style="stroke:#181818;stroke-width:1.0;"/><line style="stroke:#181818;stroke-width:1.0;" x1="879" x2="1025" y1="266.7188" y2="266.7188"/><text fill="#000000" font-family="sans-serif" font-size="13" lengthAdjust="spacing" textLength="108" x="886" y="261.8623">findByEmail(email)</text><polygon fill="#181818" points="1202,293.0703,1212,297.0703,1202,301.0703,1206,297.0703" style="stroke:#181818;stroke-width:1.0;"/><line style="stroke:#181818;stroke-width:1.0;" x1="1031" x2="1208" y1="297.0703" y2="297.0703"/><text fill="#000000" font-family="sans-serif" font-size="13" lengthAdjust="spacing" textLength="159" x="1038" y="292.2139">SELECT * FROM "Usuario"</text><polygon fill="#181818" points="1042,323.4219,1032,327.4219,1042,331.4219,1038,327.4219" style="stroke:#181818;stroke-width:1.0;"/><line style="stroke:#181818;stroke-width:1.0;stroke-dasharray:2.0,2.0;" x1="1036" x2="1213" y1="327.4219" y2="327.4219"/><text fill="#000000" font-family="sans-serif" font-size="13" lengthAdjust="spacing" textLength="57" x="1048" y="322.5654">user_data</text><polygon fill="#181818" points="890,353.7734,880,357.7734,890,361.7734,886,357.7734" style="stroke:#181818;stroke-width:1.0;"/><line style="stroke:#181818;stroke-width:1.0;stroke-dasharray:2.0,2.0;" x1="884" x2="1030" y1="357.7734" y2="357.7734"/><text fill="#000000" font-family="sans-serif" font-size="13" lengthAdjust="spacing" textLength="27" x="896" y="352.917">User</text><line style="stroke:#181818;stroke-width:1.0;" x1="879" x2="921" y1="388.125" y2="388.125"/><line style="stroke:#181818;stroke-width:1.0;" x1="921" x2="921" y1="388.125" y2="401.125"/><line style="stroke:#181818;stroke-width:1.0;" x1="880" x2="921" y1="401.125" y2="401.125"/><polygon fill="#181818" points="890,397.125,880,401.125,890,405.125,886,401.125" style="stroke:#181818;stroke-width:1.0;"/><text fill="#000000" font-family="sans-serif" font-size="13" lengthAdjust="spacing" textLength="138" x="886" y="383.2686">verify password (Bcrypt)</text><polygon fill="#181818" points="725,427.4766,715,431.4766,725,435.4766,721,431.4766" style="stroke:#181818;stroke-width:1.0;"/><line style="stroke:#181818;stroke-width:1.0;stroke-dasharray:2.0,2.0;" x1="719" x2="878" y1="431.4766" y2="431.4766"/><text fill="#000000" font-family="sans-serif" font-size="13" lengthAdjust="spacing" textLength="89" x="731" y="426.6201">validation result</text><path d="M10,446.4766 L71,446.4766 L71,454.8281 L61,464.8281 L10,464.8281 L10,446.4766 " fill="#EEEEEE" style="stroke:#000000;stroke-width:1.5;"/><rect fill="none" height="381.0547" style="stroke:#000000;stroke-width:1.5;" width="948" x="10" y="446.4766"/><text fill="#000000" font-family="sans-serif" font-size="13" font-weight="bold" lengthAdjust="spacing" textLength="16" x="25" y="460.9717">alt</text><text fill="#000000" font-family="sans-serif" font-size="11" font-weight="bold" lengthAdjust="spacing" textLength="124" x="86" y="459.8955">[autenticaci&#243;n exitosa]</text><polygon fill="#181818" points="867,483.1797,877,487.1797,867,491.1797,871,487.1797" style="stroke:#181818;stroke-width:1.0;"/><line style="stroke:#181818;stroke-width:1.0;" x1="714" x2="873" y1="487.1797" y2="487.1797"/><text fill="#000000" font-family="sans-serif" font-size="13" lengthAdjust="spacing" textLength="62" x="721" y="482.3232">login(User)</text><line style="stroke:#181818;stroke-width:1.0;" x1="879" x2="921" y1="517.5313" y2="517.5313"/><line style="stroke:#181818;stroke-width:1.0;" x1="921" x2="921" y1="517.5313" y2="530.5313"/><line style="stroke:#181818;stroke-width:1.0;" x1="880" x2="921" y1="530.5313" y2="530.5313"/><polygon fill="#181818" points="890,526.5313,880,530.5313,890,534.5313,886,530.5313" style="stroke:#181818;stroke-width:1.0;"/><text fill="#000000" font-family="sans-serif" font-size="13" lengthAdjust="spacing" textLength="54" x="886" y="512.6748">sign JWT</text><polygon fill="#181818" points="725,556.8828,715,560.8828,725,564.8828,721,560.8828" style="stroke:#181818;stroke-width:1.0;"/><line style="stroke:#181818;stroke-width:1.0;stroke-dasharray:2.0,2.0;" x1="719" x2="878" y1="560.8828" y2="560.8828"/><text fill="#000000" font-family="sans-serif" font-size="13" lengthAdjust="spacing" textLength="108" x="731" y="556.0264">{ token, user_info }</text><polygon fill="#181818" points="528,587.2344,518,591.2344,528,595.2344,524,591.2344" style="stroke:#181818;stroke-width:1.0;"/><line style="stroke:#181818;stroke-width:1.0;stroke-dasharray:2.0,2.0;" x1="522" x2="713" y1="591.2344" y2="591.2344"/><text fill="#000000" font-family="sans-serif" font-size="13" lengthAdjust="spacing" textLength="141" x="534" y="586.3779">200 OK (AuthResponse)</text><polygon fill="#181818" points="362,617.5859,352,621.5859,362,625.5859,358,621.5859" style="stroke:#181818;stroke-width:1.0;"/><line style="stroke:#181818;stroke-width:1.0;stroke-dasharray:2.0,2.0;" x1="356" x2="516" y1="621.5859" y2="621.5859"/><text fill="#000000" font-family="sans-serif" font-size="13" lengthAdjust="spacing" textLength="107" x="368" y="616.7295">store token &amp; user</text><polygon fill="#181818" points="231.5,647.9375,221.5,651.9375,231.5,655.9375,227.5,651.9375" style="stroke:#181818;stroke-width:1.0;"/><line style="stroke:#181818;stroke-width:1.0;stroke-dasharray:2.0,2.0;" x1="225.5" x2="350" y1="651.9375" y2="651.9375"/><text fill="#000000" font-family="sans-serif" font-size="13" lengthAdjust="spacing" textLength="96" x="237.5" y="647.0811">success redirect</text><polygon fill="#181818" points="77.5,678.2891,67.5,682.2891,77.5,686.2891,73.5,682.2891" style="stroke:#181818;stroke-width:1.0;"/><line style="stroke:#181818;stroke-width:1.0;stroke-dasharray:2.0,2.0;" x1="71.5" x2="219.5" y1="682.2891" y2="682.2891"/><text fill="#000000" font-family="sans-serif" font-size="13" lengthAdjust="spacing" textLength="111" x="83.5" y="677.4326">muestra dashboard</text><line style="stroke:#000000;stroke-width:1.0;stroke-dasharray:2.0,2.0;" x1="10" x2="958" y1="691.2891" y2="691.2891"/><text fill="#000000" font-family="sans-serif" font-size="11" font-weight="bold" lengthAdjust="spacing" textLength="130" x="15" y="702.708">[credenciales inv&#225;lidas]</text><polygon fill="#181818" points="528,724.4766,518,728.4766,528,732.4766,524,728.4766" style="stroke:#181818;stroke-width:1.0;"/><line style="stroke:#181818;stroke-width:1.0;stroke-dasharray:2.0,2.0;" x1="522" x2="713" y1="728.4766" y2="728.4766"/><text fill="#000000" font-family="sans-serif" font-size="13" lengthAdjust="spacing" textLength="101" x="534" y="723.6201">401 Unauthorized</text><polygon fill="#181818" points="362,754.8281,352,758.8281,362,762.8281,358,758.8281" style="stroke:#181818;stroke-width:1.0;"/><line style="stroke:#181818;stroke-width:1.0;stroke-dasharray:2.0,2.0;" x1="356" x2="516" y1="758.8281" y2="758.8281"/><text fill="#000000" font-family="sans-serif" font-size="13" lengthAdjust="spacing" textLength="83" x="368" y="753.9717">error message</text><polygon fill="#181818" points="231.5,785.1797,221.5,789.1797,231.5,793.1797,227.5,789.1797" style="stroke:#181818;stroke-width:1.0;"/><line style="stroke:#181818;stroke-width:1.0;stroke-dasharray:2.0,2.0;" x1="225.5" x2="350" y1="789.1797" y2="789.1797"/><text fill="#000000" font-family="sans-serif" font-size="13" lengthAdjust="spacing" textLength="71" x="237.5" y="784.3232">display error</text><polygon fill="#181818" points="77.5,815.5313,67.5,819.5313,77.5,823.5313,73.5,819.5313" style="stroke:#181818;stroke-width:1.0;"/><line style="stroke:#181818;stroke-width:1.0;stroke-dasharray:2.0,2.0;" x1="71.5" x2="219.5" y1="819.5313" y2="819.5313"/><text fill="#000000" font-family="sans-serif" font-size="13" lengthAdjust="spacing" textLength="116" x="83.5" y="814.6748">muestra advertencia</text><!--SRC=[ZPJFRXCn4CRlVefH3cY3g5eGfnoGahQeAeMK9eKZSjUJT5J7NdcyRGFYONW67g4lnjXEccp_YHoYxCpFEzzy-stuYboZWrw09OTnsI0qtYxJXUBx7bzgus_8pM6cBQDIkeu-mD0io1778DsW18rKKwDTXDw9dvFxHdW3rHaAtU-1PaY5BjSo3jju2TMHzrS5Ih-wK28c6AwfHgY6j-IvaFkMqCN7xBvtCNXhCK3r1JaUJrRyVVs5-oVbTU5NjIvypXXurSbKBYYZexxGZD0xzHpd0ITVJtBxOAHKnoZO-P2DW05GqcDQ6Li7DEXgqXPPvQvGoGcXRFAoAaGKWligTuGe3WYZPONKhNN4Bhf24honPG17q-afd8udKzXDPtVp4AWEfcCviW7bsDgP0LnhIx8dfesxGzQCuDaEWMVap6XvkD1aAqpVVLLQmXoC19WSdXpkJ-4rV3mRVqw-jZgGxobfxcpTHn8IVYHtrySxab9jU_gMM0mqMqAZcMzyC52Dwh1iufRMXvQirYFl822tDahERKpM5cThkllh06yfUjOAvFESKUM99Mtzp3qfa6dkuFZxj4iy5FKBehz2zwRuG6xcuVUZsTj9UBUt1-DFyfx8Kpr3RhnZB2hMITWaY-KjnZ80NkK96IpfsiIKsxf6Pd75KC0wPgY4LA1kk0UmQ35TWD5yUU5rC0hbFwEJS0d-zTsVv3Q_kClxlRTmxb8-VQ2VQ9vP0qEGoGkHgEVuv0Q6kB5wMSZ_aw-D92XcnGgTKVy0]--></g></svg>