<?xml version="1.0" encoding="us-ascii" standalone="no"?><svg xmlns="http://www.w3.org/2000/svg" xmlns:xlink="http://www.w3.org/1999/xlink" contentStyleType="text/css" height="716px" preserveAspectRatio="none" style="width:1213px;height:716px;background:#FFFFFF;" version="1.1" viewBox="0 0 1213 716" width="1213px" zoomAndPan="magnify"><defs/><g><rect fill="none" height="183.5938" style="stroke:#000000;stroke-width:1.5;" width="260.5" x="946.5" y="281.7188"/><rect fill="none" height="107.8906" style="stroke:#000000;stroke-width:1.5;" width="240.5" x="956.5" y="350.4219"/><line style="stroke:#181818;stroke-width:0.5;stroke-dasharray:5.0,5.0;" x1="51" x2="51" y1="82.6094" y2="634.0703"/><line style="stroke:#181818;stroke-width:0.5;stroke-dasharray:5.0,5.0;" x1="265" x2="265" y1="82.6094" y2="634.0703"/><line style="stroke:#181818;stroke-width:0.5;stroke-dasharray:5.0,5.0;" x1="458" x2="458" y1="82.6094" y2="634.0703"/><line style="stroke:#181818;stroke-width:0.5;stroke-dasharray:5.0,5.0;" x1="584.5" x2="584.5" y1="82.6094" y2="634.0703"/><line style="stroke:#181818;stroke-width:0.5;stroke-dasharray:5.0,5.0;" x1="857" x2="857" y1="82.6094" y2="634.0703"/><line style="stroke:#181818;stroke-width:0.5;stroke-dasharray:5.0,5.0;" x1="1020.5" x2="1020.5" y1="82.6094" y2="634.0703"/><line style="stroke:#181818;stroke-width:0.5;stroke-dasharray:5.0,5.0;" x1="1145" x2="1145" y1="82.6094" y2="634.0703"/><text fill="#000000" font-family="sans-serif" font-size="14" lengthAdjust="spacing" textLength="87" x="5" y="79.5332">Administrador</text><ellipse cx="51.5" cy="13.5" fill="#E2E2F0" rx="8" ry="8" style="stroke:#181818;stroke-width:0.5;"/><path d="M51.5,21.5 L51.5,48.5 M38.5,29.5 L64.5,29.5 M51.5,48.5 L38.5,63.5 M51.5,48.5 L64.5,63.5 " fill="none" style="stroke:#181818;stroke-width:0.5;"/><text fill="#000000" font-family="sans-serif" font-size="14" lengthAdjust="spacing" textLength="87" x="5" y="647.6035">Administrador</text><ellipse cx="51.5" cy="659.1797" fill="#E2E2F0" rx="8" ry="8" style="stroke:#181818;stroke-width:0.5;"/><path d="M51.5,667.1797 L51.5,694.1797 M38.5,675.1797 L64.5,675.1797 M51.5,694.1797 L38.5,709.1797 M51.5,694.1797 L64.5,709.1797 " fill="none" style="stroke:#181818;stroke-width:0.5;"/><rect fill="#E2E2F0" height="66.8281" rx="2.5" ry="2.5" style="stroke:#181818;stroke-width:0.5;" width="129" x="201" y="14.7813"/><text fill="#000000" font-family="sans-serif" font-size="14" font-style="italic" lengthAdjust="spacing" textLength="89" x="221" y="36.3145">&#171;Component&#187;</text><text fill="#000000" font-family="sans-serif" font-size="14" lengthAdjust="spacing" textLength="115" x="208" y="53.9238">GradosImportView</text><text fill="#000000" font-family="sans-serif" font-size="14" lengthAdjust="spacing" textLength="47" x="242" y="71.5332">(React)</text><rect fill="#E2E2F0" height="66.8281" rx="2.5" ry="2.5" style="stroke:#181818;stroke-width:0.5;" width="129" x="201" y="633.0703"/><text fill="#000000" font-family="sans-serif" font-size="14" font-style="italic" lengthAdjust="spacing" textLength="89" x="221" y="654.6035">&#171;Component&#187;</text><text fill="#000000" font-family="sans-serif" font-size="14" lengthAdjust="spacing" textLength="115" x="208" y="672.2129">GradosImportView</text><text fill="#000000" font-family="sans-serif" font-size="14" lengthAdjust="spacing" textLength="47" x="242" y="689.8223">(React)</text><rect fill="#E2E2F0" height="66.8281" rx="2.5" ry="2.5" style="stroke:#181818;stroke-width:0.5;" width="123" x="397" y="14.7813"/><text fill="#000000" font-family="sans-serif" font-size="14" font-style="italic" lengthAdjust="spacing" textLength="50" x="433.5" y="36.3145">&#171;Hook&#187;</text><text fill="#000000" font-family="sans-serif" font-size="14" lengthAdjust="spacing" textLength="109" x="404" y="53.9238">useGradosImport</text><text fill="#000000" font-family="sans-serif" font-size="14" lengthAdjust="spacing" textLength="42" x="437.5" y="71.5332">(Hook)</text><rect fill="#E2E2F0" height="66.8281" rx="2.5" ry="2.5" style="stroke:#181818;stroke-width:0.5;" width="123" x="397" y="633.0703"/><text fill="#000000" font-family="sans-serif" font-size="14" font-style="italic" lengthAdjust="spacing" textLength="50" x="433.5" y="654.6035">&#171;Hook&#187;</text><text fill="#000000" font-family="sans-serif" font-size="14" lengthAdjust="spacing" textLength="109" x="404" y="672.2129">useGradosImport</text><text fill="#000000" font-family="sans-serif" font-size="14" lengthAdjust="spacing" textLength="42" x="437.5" y="689.8223">(Hook)</text><rect fill="#E2E2F0" height="66.8281" rx="2.5" ry="2.5" style="stroke:#181818;stroke-width:0.5;" width="108" x="530.5" y="14.7813"/><text fill="#000000" font-family="sans-serif" font-size="14" font-style="italic" lengthAdjust="spacing" textLength="62" x="553.5" y="36.3145">&#171;Service&#187;</text><text fill="#000000" font-family="sans-serif" font-size="14" lengthAdjust="spacing" textLength="94" x="537.5" y="53.9238">GradosService</text><text fill="#000000" font-family="sans-serif" font-size="14" lengthAdjust="spacing" textLength="43" x="563" y="71.5332">(Axios)</text><rect fill="#E2E2F0" height="66.8281" rx="2.5" ry="2.5" style="stroke:#181818;stroke-width:0.5;" width="108" x="530.5" y="633.0703"/><text fill="#000000" font-family="sans-serif" font-size="14" font-style="italic" lengthAdjust="spacing" textLength="62" x="553.5" y="654.6035">&#171;Service&#187;</text><text fill="#000000" font-family="sans-serif" font-size="14" lengthAdjust="spacing" textLength="94" x="537.5" y="672.2129">GradosService</text><text fill="#000000" font-family="sans-serif" font-size="14" lengthAdjust="spacing" textLength="43" x="563" y="689.8223">(Axios)</text><rect fill="#E2E2F0" height="66.8281" rx="2.5" ry="2.5" style="stroke:#181818;stroke-width:0.5;" width="123" x="796" y="14.7813"/><text fill="#000000" font-family="sans-serif" font-size="14" font-style="italic" lengthAdjust="spacing" textLength="78" x="818.5" y="36.3145">&#171;Controller&#187;</text><text fill="#000000" font-family="sans-serif" font-size="14" lengthAdjust="spacing" textLength="109" x="803" y="53.9238">GradosController</text><text fill="#000000" font-family="sans-serif" font-size="14" lengthAdjust="spacing" textLength="53" x="831" y="71.5332">(NestJS)</text><rect fill="#E2E2F0" height="66.8281" rx="2.5" ry="2.5" style="stroke:#181818;stroke-width:0.5;" width="123" x="796" y="633.0703"/><text fill="#000000" font-family="sans-serif" font-size="14" font-style="italic" lengthAdjust="spacing" textLength="78" x="818.5" y="654.6035">&#171;Controller&#187;</text><text fill="#000000" font-family="sans-serif" font-size="14" lengthAdjust="spacing" textLength="109" x="803" y="672.2129">GradosController</text><text fill="#000000" font-family="sans-serif" font-size="14" lengthAdjust="spacing" textLength="53" x="831" y="689.8223">(NestJS)</text><rect fill="#E2E2F0" height="66.8281" rx="2.5" ry="2.5" style="stroke:#181818;stroke-width:0.5;" width="108" x="966.5" y="14.7813"/><text fill="#000000" font-family="sans-serif" font-size="14" font-style="italic" lengthAdjust="spacing" textLength="62" x="989.5" y="36.3145">&#171;Service&#187;</text><text fill="#000000" font-family="sans-serif" font-size="14" lengthAdjust="spacing" textLength="94" x="973.5" y="53.9238">GradosService</text><text fill="#000000" font-family="sans-serif" font-size="14" lengthAdjust="spacing" textLength="53" x="994" y="71.5332">(NestJS)</text><rect fill="#E2E2F0" height="66.8281" rx="2.5" ry="2.5" style="stroke:#181818;stroke-width:0.5;" width="108" x="966.5" y="633.0703"/><text fill="#000000" font-family="sans-serif" font-size="14" font-style="italic" lengthAdjust="spacing" textLength="62" x="989.5" y="654.6035">&#171;Service&#187;</text><text fill="#000000" font-family="sans-serif" font-size="14" lengthAdjust="spacing" textLength="94" x="973.5" y="672.2129">GradosService</text><text fill="#000000" font-family="sans-serif" font-size="14" lengthAdjust="spacing" textLength="53" x="994" y="689.8223">(NestJS)</text><text fill="#000000" font-family="sans-serif" font-size="14" lengthAdjust="spacing" textLength="77" x="1104" y="79.5332">PostgreSQL</text><path d="M1127.5,29 C1127.5,19 1145.5,19 1145.5,19 C1145.5,19 1163.5,19 1163.5,29 L1163.5,55 C1163.5,65 1145.5,65 1145.5,65 C1145.5,65 1127.5,65 1127.5,55 L1127.5,29 " fill="#E2E2F0" style="stroke:#181818;stroke-width:1.5;"/><path d="M1127.5,29 C1127.5,39 1145.5,39 1145.5,39 C1145.5,39 1163.5,39 1163.5,29 " fill="none" style="stroke:#181818;stroke-width:1.5;"/><text fill="#000000" font-family="sans-serif" font-size="14" lengthAdjust="spacing" textLength="77" x="1104" y="647.6035">PostgreSQL</text><path d="M1127.5,660.6797 C1127.5,650.6797 1145.5,650.6797 1145.5,650.6797 C1145.5,650.6797 1163.5,650.6797 1163.5,660.6797 L1163.5,686.6797 C1163.5,696.6797 1145.5,696.6797 1145.5,696.6797 C1145.5,696.6797 1127.5,696.6797 1127.5,686.6797 L1127.5,660.6797 " fill="#E2E2F0" style="stroke:#181818;stroke-width:1.5;"/><path d="M1127.5,660.6797 C1127.5,670.6797 1145.5,670.6797 1145.5,670.6797 C1145.5,670.6797 1163.5,670.6797 1163.5,660.6797 " fill="none" style="stroke:#181818;stroke-width:1.5;"/><polygon fill="#181818" points="253.5,110.9609,263.5,114.9609,253.5,118.9609,257.5,114.9609" style="stroke:#181818;stroke-width:1.0;"/><line style="stroke:#181818;stroke-width:1.0;" x1="51.5" x2="259.5" y1="114.9609" y2="114.9609"/><text fill="#000000" font-family="sans-serif" font-size="13" lengthAdjust="spacing" textLength="184" x="58.5" y="110.1045">Selecciona archivo (CSV/Excel)</text><polygon fill="#181818" points="253.5,141.3125,263.5,145.3125,253.5,149.3125,257.5,145.3125" style="stroke:#181818;stroke-width:1.0;"/><line style="stroke:#181818;stroke-width:1.0;" x1="51.5" x2="259.5" y1="145.3125" y2="145.3125"/><text fill="#000000" font-family="sans-serif" font-size="13" lengthAdjust="spacing" textLength="108" x="58.5" y="140.4561">Click en "Importar"</text><polygon fill="#181818" points="446.5,171.6641,456.5,175.6641,446.5,179.6641,450.5,175.6641" style="stroke:#181818;stroke-width:1.0;"/><line style="stroke:#181818;stroke-width:1.0;" x1="265.5" x2="452.5" y1="175.6641" y2="175.6641"/><text fill="#000000" font-family="sans-serif" font-size="13" lengthAdjust="spacing" textLength="102" x="272.5" y="170.8076">importGrados(file)</text><polygon fill="#181818" points="572.5,202.0156,582.5,206.0156,572.5,210.0156,576.5,206.0156" style="stroke:#181818;stroke-width:1.0;"/><line style="stroke:#181818;stroke-width:1.0;" x1="458.5" x2="578.5" y1="206.0156" y2="206.0156"/><text fill="#000000" font-family="sans-serif" font-size="13" lengthAdjust="spacing" textLength="102" x="465.5" y="201.1592">importGrados(file)</text><polygon fill="#181818" points="845.5,232.3672,855.5,236.3672,845.5,240.3672,849.5,236.3672" style="stroke:#181818;stroke-width:1.0;"/><line style="stroke:#181818;stroke-width:1.0;" x1="584.5" x2="851.5" y1="236.3672" y2="236.3672"/><text fill="#000000" font-family="sans-serif" font-size="13" lengthAdjust="spacing" textLength="249" x="591.5" y="231.5107">POST /grados/import (Multipart/Form-Data)</text><polygon fill="#181818" points="1008.5,262.7188,1018.5,266.7188,1008.5,270.7188,1012.5,266.7188" style="stroke:#181818;stroke-width:1.0;"/><line style="stroke:#181818;stroke-width:1.0;" x1="857.5" x2="1014.5" y1="266.7188" y2="266.7188"/><text fill="#000000" font-family="sans-serif" font-size="13" lengthAdjust="spacing" textLength="139" x="864.5" y="261.8623">processImport(fileBuffer)</text><path d="M946.5,281.7188 L1019.5,281.7188 L1019.5,290.0703 L1009.5,300.0703 L946.5,300.0703 L946.5,281.7188 " fill="#EEEEEE" style="stroke:#000000;stroke-width:1.5;"/><rect fill="none" height="183.5938" style="stroke:#000000;stroke-width:1.5;" width="260.5" x="946.5" y="281.7188"/><text fill="#000000" font-family="sans-serif" font-size="13" font-weight="bold" lengthAdjust="spacing" textLength="28" x="961.5" y="296.2139">loop</text><text fill="#000000" font-family="sans-serif" font-size="11" font-weight="bold" lengthAdjust="spacing" textLength="137" x="1034.5" y="295.1377">[Por cada fila del archivo]</text><line style="stroke:#181818;stroke-width:1.0;" x1="1020.5" x2="1062.5" y1="322.4219" y2="322.4219"/><line style="stroke:#181818;stroke-width:1.0;" x1="1062.5" x2="1062.5" y1="322.4219" y2="335.4219"/><line style="stroke:#181818;stroke-width:1.0;" x1="1021.5" x2="1062.5" y1="335.4219" y2="335.4219"/><polygon fill="#181818" points="1031.5,331.4219,1021.5,335.4219,1031.5,339.4219,1027.5,335.4219" style="stroke:#181818;stroke-width:1.0;"/><text fill="#000000" font-family="sans-serif" font-size="13" lengthAdjust="spacing" textLength="76" x="1027.5" y="317.5654">Validar datos</text><path d="M956.5,350.4219 L1017.5,350.4219 L1017.5,358.7734 L1007.5,368.7734 L956.5,368.7734 L956.5,350.4219 " fill="#EEEEEE" style="stroke:#000000;stroke-width:1.5;"/><rect fill="none" height="107.8906" style="stroke:#000000;stroke-width:1.5;" width="240.5" x="956.5" y="350.4219"/><text fill="#000000" font-family="sans-serif" font-size="13" font-weight="bold" lengthAdjust="spacing" textLength="16" x="971.5" y="364.917">alt</text><text fill="#000000" font-family="sans-serif" font-size="11" font-weight="bold" lengthAdjust="spacing" textLength="81" x="1032.5" y="363.8408">[Datos v&#225;lidos]</text><polygon fill="#181818" points="1133.5,387.125,1143.5,391.125,1133.5,395.125,1137.5,391.125" style="stroke:#181818;stroke-width:1.0;"/><line style="stroke:#181818;stroke-width:1.0;" x1="1020.5" x2="1139.5" y1="391.125" y2="391.125"/><text fill="#000000" font-family="sans-serif" font-size="13" lengthAdjust="spacing" textLength="101" x="1027.5" y="386.2686">UPSERT "Grado"</text><line style="stroke:#000000;stroke-width:1.0;stroke-dasharray:2.0,2.0;" x1="956.5" x2="1197" y1="400.125" y2="400.125"/><text fill="#000000" font-family="sans-serif" font-size="11" font-weight="bold" lengthAdjust="spacing" textLength="91" x="961.5" y="411.5439">[Datos inv&#225;lidos]</text><line style="stroke:#181818;stroke-width:1.0;" x1="1020.5" x2="1062.5" y1="437.3125" y2="437.3125"/><line style="stroke:#181818;stroke-width:1.0;" x1="1062.5" x2="1062.5" y1="437.3125" y2="450.3125"/><line style="stroke:#181818;stroke-width:1.0;" x1="1021.5" x2="1062.5" y1="450.3125" y2="450.3125"/><polygon fill="#181818" points="1031.5,446.3125,1021.5,450.3125,1031.5,454.3125,1027.5,450.3125" style="stroke:#181818;stroke-width:1.0;"/><text fill="#000000" font-family="sans-serif" font-size="13" lengthAdjust="spacing" textLength="82" x="1027.5" y="432.4561">Registrar error</text><polygon fill="#181818" points="868.5,490.6641,858.5,494.6641,868.5,498.6641,864.5,494.6641" style="stroke:#181818;stroke-width:1.0;"/><line style="stroke:#181818;stroke-width:1.0;stroke-dasharray:2.0,2.0;" x1="862.5" x2="1019.5" y1="494.6641" y2="494.6641"/><text fill="#000000" font-family="sans-serif" font-size="13" lengthAdjust="spacing" textLength="99" x="874.5" y="489.8076">ImportResultDTO</text><polygon fill="#181818" points="595.5,521.0156,585.5,525.0156,595.5,529.0156,591.5,525.0156" style="stroke:#181818;stroke-width:1.0;"/><line style="stroke:#181818;stroke-width:1.0;stroke-dasharray:2.0,2.0;" x1="589.5" x2="856.5" y1="525.0156" y2="525.0156"/><text fill="#000000" font-family="sans-serif" font-size="13" lengthAdjust="spacing" textLength="96" x="601.5" y="520.1592">JSON Response</text><polygon fill="#181818" points="469.5,551.3672,459.5,555.3672,469.5,559.3672,465.5,555.3672" style="stroke:#181818;stroke-width:1.0;"/><line style="stroke:#181818;stroke-width:1.0;stroke-dasharray:2.0,2.0;" x1="463.5" x2="583.5" y1="555.3672" y2="555.3672"/><text fill="#000000" font-family="sans-serif" font-size="13" lengthAdjust="spacing" textLength="99" x="475.5" y="550.5107">ImportResultDTO</text><polygon fill="#181818" points="276.5,581.7188,266.5,585.7188,276.5,589.7188,272.5,585.7188" style="stroke:#181818;stroke-width:1.0;"/><line style="stroke:#181818;stroke-width:1.0;stroke-dasharray:2.0,2.0;" x1="270.5" x2="457.5" y1="585.7188" y2="585.7188"/><text fill="#000000" font-family="sans-serif" font-size="13" lengthAdjust="spacing" textLength="169" x="282.5" y="580.8623">Actualiza estado (resultados)</text><polygon fill="#181818" points="62.5,612.0703,52.5,616.0703,62.5,620.0703,58.5,616.0703" style="stroke:#181818;stroke-width:1.0;"/><line style="stroke:#181818;stroke-width:1.0;stroke-dasharray:2.0,2.0;" x1="56.5" x2="264.5" y1="616.0703" y2="616.0703"/><text fill="#000000" font-family="sans-serif" font-size="13" lengthAdjust="spacing" textLength="190" x="68.5" y="611.2139">Muestra resumen de importaci&#243;n</text><!--SRC=[XPF1Rk8m48RlVefHJicXueug909bjzMsi8HowcNM6QY5iIFReTM-pJx3Fa9VR2TEA06nkqWHiUV_nfD_ndwdJ8KEz-1ViRHlocnXWzgJ42Y3TJ0kzyee7nn7dM1fK59LQ08aNvezVx-lh0jhHMyl9bqIKra2wE7v7cvl9vQZXamOZSxPsbCVP_IhjRkMRDwORVukiPOfo1sK98R6xyhwbffrkqnsRzVXYJN1MQt9CVz4FZmKRO9J81P-NFolX7wA_5eD9GRyWPuWMLWVjewAxz-YUfeBSMOlt8mQsuPGa2OfbJK8wEIhEbX89yLwSFSkIMT_WIPQoHsGWQJr55qYEC3XQEWGLDnkwqytIbCcOeGLd-PTLNr6MTbpQGYBUR62mJPg1oq8wMEjWsei6yoiszzC-VCpqSCuINuwhd9Mak_689wNrviDkKneQojOy0TAB14uWb2IFXeYW7zvhx1UpZLgLQ83TjxwA4GTODgiuF3nYuFTzcMEQSxqywAuMwwwHYTHHtmXEbwPVsReLR6aRUoH0tAExqvCP4hHF2VaqjBMY2LvTd6wcfyPTzweXsB-n8Tulc1yNMVzZ5t3BtErtJxEorY6cetwYS0Jp9yAgOlAffbPd1nMde_Q41vhQXRGIFSyQoLr0uDIVVmsVm00]--></g></svg>