<?xml version="1.0" encoding="us-ascii" standalone="no"?><svg xmlns="http://www.w3.org/2000/svg" xmlns:xlink="http://www.w3.org/1999/xlink" contentStyleType="text/css" height="438px" preserveAspectRatio="none" style="width:708px;height:438px;background:#FFFFFF;" version="1.1" viewBox="0 0 708 438" width="708px" zoomAndPan="magnify"><defs/><g><!--cluster crearAula--><g id="cluster_crearAula"><path d="M8.5,109 L86.5,109 A3.75,3.75 0 0 1 89,111.5 L96,132.6094 L471.5,132.6094 A2.5,2.5 0 0 1 474,135.1094 L474,428.5 A2.5,2.5 0 0 1 471.5,431 L8.5,431 A2.5,2.5 0 0 1 6,428.5 L6,111.5 A2.5,2.5 0 0 1 8.5,109 " fill="none" style="stroke:#000000;stroke-width:1.5;"/><line style="stroke:#000000;stroke-width:1.5;" x1="6" x2="96" y1="132.6094" y2="132.6094"/><text fill="#000000" font-family="sans-serif" font-size="14" font-weight="bold" lengthAdjust="spacing" textLength="77" x="10" y="125.5332">crearAula()</text></g><!--entity CrearAulaView--><g id="elem_CrearAulaView"><rect fill="#629EF9" height="37.6094" rx="2.5" ry="2.5" style="stroke:#181818;stroke-width:0.5;" width="113" x="196.5" y="145"/><text fill="#000000" font-family="sans-serif" font-size="14" lengthAdjust="spacing" textLength="93" x="206.5" y="169.5332">CrearAulaView</text></g><!--entity AulaController--><g id="elem_AulaController"><rect fill="#B5BD68" height="37.6094" rx="2.5" ry="2.5" style="stroke:#181818;stroke-width:0.5;" width="110" x="142" y="261"/><text fill="#000000" font-family="sans-serif" font-size="14" lengthAdjust="spacing" textLength="90" x="152" y="285.5332">AulaController</text></g><!--entity AulaRepository--><g id="elem_AulaRepository"><rect fill="#F2AC4E" height="37.6094" rx="2.5" ry="2.5" style="stroke:#181818;stroke-width:0.5;" width="116" x="127" y="377"/><text fill="#000000" font-family="sans-serif" font-size="14" lengthAdjust="spacing" textLength="96" x="137" y="401.5332">AulaRepository</text></g><!--entity Aula--><g id="elem_Aula"><rect fill="#F2AC4E" height="37.6094" rx="2.5" ry="2.5" style="stroke:#181818;stroke-width:0.5;" width="48" x="382" y="377"/><text fill="#000000" font-family="sans-serif" font-size="14" lengthAdjust="spacing" textLength="28" x="392" y="401.5332">Aula</text></g><!--entity AulasAbierto--><g id="elem_AulasAbierto"><rect fill="#CDEBA5" height="37.6094" rx="2.5" ry="2.5" style="stroke:#181818;stroke-width:0.5;" width="108" x="199" y="7"/><text fill="#000000" font-family="sans-serif" font-size="14" lengthAdjust="spacing" textLength="88" x="209" y="31.5332">:Aulas Abierto</text></g><!--entity AulaAbierta--><g id="elem_AulaAbierta"><rect fill="#CDEBA5" height="37.6094" rx="2.5" ry="2.5" style="stroke:#181818;stroke-width:0.5;" width="101" x="490.5" y="261"/><text fill="#000000" font-family="sans-serif" font-size="14" lengthAdjust="spacing" textLength="81" x="500.5" y="285.5332">:Aula Abierta</text></g><!--link AulasAbierto to CrearAulaView--><g id="link_AulasAbierto_CrearAulaView"><path d="M232.21,45.15 C216.63,58.74 198,75 198,75 C198,75 198,93 198,93 C198,93 218.8325,119.5126 235.1325,140.2526 " fill="none" id="AulasAbierto-to-CrearAulaView" style="stroke:#181818;stroke-width:1.0;"/><polygon fill="#181818" points="238.84,144.97,236.4237,135.4222,235.7504,141.0388,230.1337,140.3655,238.84,144.97" style="stroke:#181818;stroke-width:1.0;"/><text fill="#000000" font-family="sans-serif" font-size="13" lengthAdjust="spacing" textLength="63" x="199" y="89.4951">crearAula()</text></g><!--link CrearAulaView to AulasAbierto--><g id="link_CrearAulaView_AulasAbierto"><path d="M256.61,144.97 C260.75,124.23 267,93 267,93 C267,93 267,75 267,75 C267,75 263.9424,64.4993 259.9724,50.9093 " fill="none" id="CrearAulaView-to-AulasAbierto" style="stroke:#181818;stroke-width:1.0;stroke-dasharray:7.0,7.0;"/><polygon fill="#181818" points="258.29,45.15,256.9741,54.9106,259.692,49.9494,264.6532,52.6673,258.29,45.15" style="stroke:#181818;stroke-width:1.0;"/><text fill="#000000" font-family="sans-serif" font-size="13" lengthAdjust="spacing" textLength="63" x="268" y="89.4951">&#171;cancelar&#187;</text></g><!--link CrearAulaView to AulaController--><g id="link_CrearAulaView_AulaController"><path d="M212.48,183.01 C181.83,196.63 145,213 145,213 C145,213 145,231 145,231 C145,231 158.2115,243.1899 172.9315,256.7799 " fill="none" id="CrearAulaView-to-AulaController" style="stroke:#181818;stroke-width:1.0;"/><polygon fill="#181818" points="177.34,260.85,173.4407,251.8059,173.6663,257.4583,168.0139,257.6839,177.34,260.85" style="stroke:#181818;stroke-width:1.0;"/><text fill="#000000" font-family="sans-serif" font-size="13" lengthAdjust="spacing" textLength="351" x="146" y="227.4951">crear(codigo, nombre, capacidad, edificio, planta, tipo) : Aula</text></g><!--link AulaController to AulaRepository--><g id="link_AulaController_AulaRepository"><path d="M143.35,299.01 C102.77,312.63 54,329 54,329 C54,329 54,347 54,347 C54,347 93.0463,361.3057 130.2163,374.9257 " fill="none" id="AulaController-to-AulaRepository" style="stroke:#181818;stroke-width:1.0;"/><polygon fill="#181818" points="135.85,376.99,128.7757,370.1377,131.1553,375.2697,126.0232,377.6493,135.85,376.99" style="stroke:#181818;stroke-width:1.0;"/><text fill="#000000" font-family="sans-serif" font-size="13" lengthAdjust="spacing" textLength="190" x="55" y="343.4951">existeNombre(nombre) : Boolean</text></g><!--link AulaController to AulaRepository--><g id="link_AulaController_AulaRepository"><path d="M217.04,299.15 C232.05,312.74 250,329 250,329 C250,329 250,347 250,347 C250,347 232.8072,359.6966 214.3972,373.2866 " fill="none" id="AulaController-to-AulaRepository-1" style="stroke:#181818;stroke-width:1.0;"/><polygon fill="#181818" points="209.57,376.85,219.1865,374.7231,213.5927,373.8805,214.4353,368.2867,209.57,376.85" style="stroke:#181818;stroke-width:1.0;"/><text fill="#000000" font-family="sans-serif" font-size="13" lengthAdjust="spacing" textLength="75" x="251" y="343.4951">guardar(aula)</text></g><!--link AulaController to Aula--><g id="link_AulaController_Aula"><path d="M248.78,299.01 C287.94,312.63 335,329 335,329 C335,329 361.1865,353.3338 382.2065,372.8838 " fill="none" id="AulaController-to-Aula" style="stroke:#181818;stroke-width:1.0;"/><polygon fill="#181818" points="386.6,376.97,382.7339,367.9117,382.9388,373.5648,377.2856,373.7696,386.6,376.97" style="stroke:#181818;stroke-width:1.0;"/><text fill="#000000" font-family="sans-serif" font-size="13" lengthAdjust="spacing" textLength="50" x="355" y="343.4951">&#171;create&#187;</text></g><!--link CrearAulaView to AulaAbierta--><g id="link_CrearAulaView_AulaAbierta"><path d="M309.5,175.89 C382.97,190.05 502,213 502,213 C502,213 515.75,236.253 527.29,255.803 " fill="none" id="CrearAulaView-to-AulaAbierta" style="stroke:#181818;stroke-width:1.0;stroke-dasharray:7.0,7.0;"/><polygon fill="#181818" points="530.34,260.97,529.2097,251.1862,527.7984,256.6642,522.3204,255.2528,530.34,260.97" style="stroke:#181818;stroke-width:1.0;"/><text fill="#000000" font-family="sans-serif" font-size="13" lengthAdjust="spacing" textLength="187" x="513" y="227.4951">&#171;finalizar&#187; editarAula(aulaNueva)</text></g><!--SRC=[ZP71Ri8m38RlUGghku1KEA211aALIWT73ZlixgQciWX9bOPjRDgxB-aAAp2cvHJRNtxxT-ejwmejxa2n9dUe22gZ3Y4Gmf9qg4j5S9SzBXVf6A9PkbTOGvepMMSY2FUGQHD2L2YtM198IsX3AI3HAUhr8_WG0lpfg4z6q-Lg2jcHUcPwlMJoSLvC7ffkcT7E6gN8NaAhKPhTBnleYIfJipFsy0SaFc-xR4tYoMGR2z5r38D1SZuupA1ZLuZpOi3FFHpvdZG5boO6RNQvfHWa-cLoWKKCLF269VjYfL0xZC5nPVh-QUD2N2WUc_pim9FqnhMZTIFU- -uH11R6A49zIy8JytcOpr6I_AjFkKTRU3le2rVsXyEakyj6VSCQ5R-ZJP9WrBMh2-_NUthn8hzhdBwW6H6r91Kqn1S0]--></g></svg>