<?xml version="1.0" encoding="us-ascii" standalone="no"?><svg xmlns="http://www.w3.org/2000/svg" xmlns:xlink="http://www.w3.org/1999/xlink" contentStyleType="text/css" height="592px" preserveAspectRatio="none" style="width:1250px;height:592px;background:#FFFFFF;" version="1.1" viewBox="0 0 1250 592" width="1250px" zoomAndPan="magnify"><defs/><g><line style="stroke:#181818;stroke-width:0.5;stroke-dasharray:5.0,5.0;" x1="51" x2="51" y1="82.6094" y2="510.1797"/><line style="stroke:#181818;stroke-width:0.5;stroke-dasharray:5.0,5.0;" x1="270.5" x2="270.5" y1="82.6094" y2="510.1797"/><line style="stroke:#181818;stroke-width:0.5;stroke-dasharray:5.0,5.0;" x1="482.5" x2="482.5" y1="82.6094" y2="510.1797"/><line style="stroke:#181818;stroke-width:0.5;stroke-dasharray:5.0,5.0;" x1="637.5" x2="637.5" y1="82.6094" y2="510.1797"/><line style="stroke:#181818;stroke-width:0.5;stroke-dasharray:5.0,5.0;" x1="851" x2="851" y1="82.6094" y2="510.1797"/><line style="stroke:#181818;stroke-width:0.5;stroke-dasharray:5.0,5.0;" x1="1005" x2="1005" y1="82.6094" y2="510.1797"/><line style="stroke:#181818;stroke-width:0.5;stroke-dasharray:5.0,5.0;" x1="1207.5" x2="1207.5" y1="82.6094" y2="510.1797"/><text fill="#000000" font-family="sans-serif" font-size="14" lengthAdjust="spacing" textLength="87" x="5" y="79.5332">Administrador</text><ellipse cx="51.5" cy="13.5" fill="#E2E2F0" rx="8" ry="8" style="stroke:#181818;stroke-width:0.5;"/><path d="M51.5,21.5 L51.5,48.5 M38.5,29.5 L64.5,29.5 M51.5,48.5 L38.5,63.5 M51.5,48.5 L64.5,63.5 " fill="none" style="stroke:#181818;stroke-width:0.5;"/><text fill="#000000" font-family="sans-serif" font-size="14" lengthAdjust="spacing" textLength="87" x="5" y="523.7129">Administrador</text><ellipse cx="51.5" cy="535.2891" fill="#E2E2F0" rx="8" ry="8" style="stroke:#181818;stroke-width:0.5;"/><path d="M51.5,543.2891 L51.5,570.2891 M38.5,551.2891 L64.5,551.2891 M51.5,570.2891 L38.5,585.2891 M51.5,570.2891 L64.5,585.2891 " fill="none" style="stroke:#181818;stroke-width:0.5;"/><rect fill="#E2E2F0" height="66.8281" rx="2.5" ry="2.5" style="stroke:#181818;stroke-width:0.5;" width="158" x="191.5" y="14.7813"/><text fill="#000000" font-family="sans-serif" font-size="14" font-style="italic" lengthAdjust="spacing" textLength="89" x="226" y="36.3145">&#171;Component&#187;</text><text fill="#000000" font-family="sans-serif" font-size="14" lengthAdjust="spacing" textLength="144" x="198.5" y="53.9238">AsignaturaCreateForm</text><text fill="#000000" font-family="sans-serif" font-size="14" lengthAdjust="spacing" textLength="47" x="247" y="71.5332">(React)</text><rect fill="#E2E2F0" height="66.8281" rx="2.5" ry="2.5" style="stroke:#181818;stroke-width:0.5;" width="158" x="191.5" y="509.1797"/><text fill="#000000" font-family="sans-serif" font-size="14" font-style="italic" lengthAdjust="spacing" textLength="89" x="226" y="530.7129">&#171;Component&#187;</text><text fill="#000000" font-family="sans-serif" font-size="14" lengthAdjust="spacing" textLength="144" x="198.5" y="548.3223">AsignaturaCreateForm</text><text fill="#000000" font-family="sans-serif" font-size="14" lengthAdjust="spacing" textLength="47" x="247" y="565.9316">(React)</text><rect fill="#E2E2F0" height="66.8281" rx="2.5" ry="2.5" style="stroke:#181818;stroke-width:0.5;" width="112" x="426.5" y="14.7813"/><text fill="#000000" font-family="sans-serif" font-size="14" font-style="italic" lengthAdjust="spacing" textLength="50" x="457.5" y="36.3145">&#171;Hook&#187;</text><text fill="#000000" font-family="sans-serif" font-size="14" lengthAdjust="spacing" textLength="98" x="433.5" y="53.9238">useAsignaturas</text><text fill="#000000" font-family="sans-serif" font-size="14" lengthAdjust="spacing" textLength="42" x="461.5" y="71.5332">(Hook)</text><rect fill="#E2E2F0" height="66.8281" rx="2.5" ry="2.5" style="stroke:#181818;stroke-width:0.5;" width="112" x="426.5" y="509.1797"/><text fill="#000000" font-family="sans-serif" font-size="14" font-style="italic" lengthAdjust="spacing" textLength="50" x="457.5" y="530.7129">&#171;Hook&#187;</text><text fill="#000000" font-family="sans-serif" font-size="14" lengthAdjust="spacing" textLength="98" x="433.5" y="548.3223">useAsignaturas</text><text fill="#000000" font-family="sans-serif" font-size="14" lengthAdjust="spacing" textLength="42" x="461.5" y="565.9316">(Hook)</text><rect fill="#E2E2F0" height="66.8281" rx="2.5" ry="2.5" style="stroke:#181818;stroke-width:0.5;" width="136" x="569.5" y="14.7813"/><text fill="#000000" font-family="sans-serif" font-size="14" font-style="italic" lengthAdjust="spacing" textLength="62" x="606.5" y="36.3145">&#171;Service&#187;</text><text fill="#000000" font-family="sans-serif" font-size="14" lengthAdjust="spacing" textLength="122" x="576.5" y="53.9238">AsignaturasService</text><text fill="#000000" font-family="sans-serif" font-size="14" lengthAdjust="spacing" textLength="43" x="616" y="71.5332">(Axios)</text><rect fill="#E2E2F0" height="66.8281" rx="2.5" ry="2.5" style="stroke:#181818;stroke-width:0.5;" width="136" x="569.5" y="509.1797"/><text fill="#000000" font-family="sans-serif" font-size="14" font-style="italic" lengthAdjust="spacing" textLength="62" x="606.5" y="530.7129">&#171;Service&#187;</text><text fill="#000000" font-family="sans-serif" font-size="14" lengthAdjust="spacing" textLength="122" x="576.5" y="548.3223">AsignaturasService</text><text fill="#000000" font-family="sans-serif" font-size="14" lengthAdjust="spacing" textLength="43" x="616" y="565.9316">(Axios)</text><rect fill="#E2E2F0" height="66.8281" rx="2.5" ry="2.5" style="stroke:#181818;stroke-width:0.5;" width="151" x="776" y="14.7813"/><text fill="#000000" font-family="sans-serif" font-size="14" font-style="italic" lengthAdjust="spacing" textLength="78" x="812.5" y="36.3145">&#171;Controller&#187;</text><text fill="#000000" font-family="sans-serif" font-size="14" lengthAdjust="spacing" textLength="137" x="783" y="53.9238">AsignaturasController</text><text fill="#000000" font-family="sans-serif" font-size="14" lengthAdjust="spacing" textLength="53" x="825" y="71.5332">(NestJS)</text><rect fill="#E2E2F0" height="66.8281" rx="2.5" ry="2.5" style="stroke:#181818;stroke-width:0.5;" width="151" x="776" y="509.1797"/><text fill="#000000" font-family="sans-serif" font-size="14" font-style="italic" lengthAdjust="spacing" textLength="78" x="812.5" y="530.7129">&#171;Controller&#187;</text><text fill="#000000" font-family="sans-serif" font-size="14" lengthAdjust="spacing" textLength="137" x="783" y="548.3223">AsignaturasController</text><text fill="#000000" font-family="sans-serif" font-size="14" lengthAdjust="spacing" textLength="53" x="825" y="565.9316">(NestJS)</text><rect fill="#E2E2F0" height="66.8281" rx="2.5" ry="2.5" style="stroke:#181818;stroke-width:0.5;" width="136" x="937" y="14.7813"/><text fill="#000000" font-family="sans-serif" font-size="14" font-style="italic" lengthAdjust="spacing" textLength="62" x="974" y="36.3145">&#171;Service&#187;</text><text fill="#000000" font-family="sans-serif" font-size="14" lengthAdjust="spacing" textLength="122" x="944" y="53.9238">AsignaturasService</text><text fill="#000000" font-family="sans-serif" font-size="14" lengthAdjust="spacing" textLength="53" x="978.5" y="71.5332">(NestJS)</text><rect fill="#E2E2F0" height="66.8281" rx="2.5" ry="2.5" style="stroke:#181818;stroke-width:0.5;" width="136" x="937" y="509.1797"/><text fill="#000000" font-family="sans-serif" font-size="14" font-style="italic" lengthAdjust="spacing" textLength="62" x="974" y="530.7129">&#171;Service&#187;</text><text fill="#000000" font-family="sans-serif" font-size="14" lengthAdjust="spacing" textLength="122" x="944" y="548.3223">AsignaturasService</text><text fill="#000000" font-family="sans-serif" font-size="14" lengthAdjust="spacing" textLength="53" x="978.5" y="565.9316">(NestJS)</text><text fill="#000000" font-family="sans-serif" font-size="14" lengthAdjust="spacing" textLength="77" x="1166.5" y="79.5332">PostgreSQL</text><path d="M1190,29 C1190,19 1208,19 1208,19 C1208,19 1226,19 1226,29 L1226,55 C1226,65 1208,65 1208,65 C1208,65 1190,65 1190,55 L1190,29 " fill="#E2E2F0" style="stroke:#181818;stroke-width:1.5;"/><path d="M1190,29 C1190,39 1208,39 1208,39 C1208,39 1226,39 1226,29 " fill="none" style="stroke:#181818;stroke-width:1.5;"/><text fill="#000000" font-family="sans-serif" font-size="14" lengthAdjust="spacing" textLength="77" x="1166.5" y="523.7129">PostgreSQL</text><path d="M1190,536.7891 C1190,526.7891 1208,526.7891 1208,526.7891 C1208,526.7891 1226,526.7891 1226,536.7891 L1226,562.7891 C1226,572.7891 1208,572.7891 1208,572.7891 C1208,572.7891 1190,572.7891 1190,562.7891 L1190,536.7891 " fill="#E2E2F0" style="stroke:#181818;stroke-width:1.5;"/><path d="M1190,536.7891 C1190,546.7891 1208,546.7891 1208,546.7891 C1208,546.7891 1226,546.7891 1226,536.7891 " fill="none" style="stroke:#181818;stroke-width:1.5;"/><polygon fill="#181818" points="258.5,110.9609,268.5,114.9609,258.5,118.9609,262.5,114.9609" style="stroke:#181818;stroke-width:1.0;"/><line style="stroke:#181818;stroke-width:1.0;" x1="51.5" x2="264.5" y1="114.9609" y2="114.9609"/><text fill="#000000" font-family="sans-serif" font-size="13" lengthAdjust="spacing" textLength="194" x="58.5" y="110.1045">Rellena formulario y pulsa "Crear"</text><polygon fill="#181818" points="470.5,141.3125,480.5,145.3125,470.5,149.3125,474.5,145.3125" style="stroke:#181818;stroke-width:1.0;"/><line style="stroke:#181818;stroke-width:1.0;" x1="270.5" x2="476.5" y1="145.3125" y2="145.3125"/><text fill="#000000" font-family="sans-serif" font-size="13" lengthAdjust="spacing" textLength="72" x="277.5" y="140.4561">submit(data)</text><polygon fill="#181818" points="625.5,171.6641,635.5,175.6641,625.5,179.6641,629.5,175.6641" style="stroke:#181818;stroke-width:1.0;"/><line style="stroke:#181818;stroke-width:1.0;" x1="482.5" x2="631.5" y1="175.6641" y2="175.6641"/><text fill="#000000" font-family="sans-serif" font-size="13" lengthAdjust="spacing" textLength="131" x="489.5" y="170.8076">createAsignatura(data)</text><polygon fill="#181818" points="839.5,202.0156,849.5,206.0156,839.5,210.0156,843.5,206.0156" style="stroke:#181818;stroke-width:1.0;"/><line style="stroke:#181818;stroke-width:1.0;" x1="637.5" x2="845.5" y1="206.0156" y2="206.0156"/><text fill="#000000" font-family="sans-serif" font-size="13" lengthAdjust="spacing" textLength="190" x="644.5" y="201.1592">POST /asignaturas (JSON Body)</text><polygon fill="#181818" points="993,232.3672,1003,236.3672,993,240.3672,997,236.3672" style="stroke:#181818;stroke-width:1.0;"/><line style="stroke:#181818;stroke-width:1.0;" x1="851.5" x2="999" y1="236.3672" y2="236.3672"/><text fill="#000000" font-family="sans-serif" font-size="13" lengthAdjust="spacing" textLength="62" x="858.5" y="231.5107">create(dto)</text><line style="stroke:#181818;stroke-width:1.0;" x1="1005" x2="1047" y1="266.7188" y2="266.7188"/><line style="stroke:#181818;stroke-width:1.0;" x1="1047" x2="1047" y1="266.7188" y2="279.7188"/><line style="stroke:#181818;stroke-width:1.0;" x1="1006" x2="1047" y1="279.7188" y2="279.7188"/><polygon fill="#181818" points="1016,275.7188,1006,279.7188,1016,283.7188,1012,279.7188" style="stroke:#181818;stroke-width:1.0;"/><text fill="#000000" font-family="sans-serif" font-size="13" lengthAdjust="spacing" textLength="117" x="1012" y="261.8623">Validar c&#243;digo &#250;nico</text><polygon fill="#181818" points="1196,306.0703,1206,310.0703,1196,314.0703,1200,310.0703" style="stroke:#181818;stroke-width:1.0;"/><line style="stroke:#181818;stroke-width:1.0;" x1="1005" x2="1202" y1="310.0703" y2="310.0703"/><text fill="#000000" font-family="sans-serif" font-size="13" lengthAdjust="spacing" textLength="179" x="1012" y="305.2139">INSERT INTO "Asignatura" (...)</text><polygon fill="#181818" points="1016,336.4219,1006,340.4219,1016,344.4219,1012,340.4219" style="stroke:#181818;stroke-width:1.0;"/><line style="stroke:#181818;stroke-width:1.0;stroke-dasharray:2.0,2.0;" x1="1010" x2="1207" y1="340.4219" y2="340.4219"/><text fill="#000000" font-family="sans-serif" font-size="13" lengthAdjust="spacing" textLength="176" x="1022" y="335.5654">Asignatura Creada (with UUID)</text><polygon fill="#181818" points="862.5,366.7734,852.5,370.7734,862.5,374.7734,858.5,370.7734" style="stroke:#181818;stroke-width:1.0;"/><line style="stroke:#181818;stroke-width:1.0;stroke-dasharray:2.0,2.0;" x1="856.5" x2="1004" y1="370.7734" y2="370.7734"/><text fill="#000000" font-family="sans-serif" font-size="13" lengthAdjust="spacing" textLength="100" x="868.5" y="365.917">Asignatura Entity</text><polygon fill="#181818" points="648.5,397.125,638.5,401.125,648.5,405.125,644.5,401.125" style="stroke:#181818;stroke-width:1.0;"/><line style="stroke:#181818;stroke-width:1.0;stroke-dasharray:2.0,2.0;" x1="642.5" x2="850.5" y1="401.125" y2="401.125"/><text fill="#000000" font-family="sans-serif" font-size="13" lengthAdjust="spacing" textLength="178" x="654.5" y="396.2686">JSON Response (201 Created)</text><polygon fill="#181818" points="493.5,427.4766,483.5,431.4766,493.5,435.4766,489.5,431.4766" style="stroke:#181818;stroke-width:1.0;"/><line style="stroke:#181818;stroke-width:1.0;stroke-dasharray:2.0,2.0;" x1="487.5" x2="636.5" y1="431.4766" y2="431.4766"/><text fill="#000000" font-family="sans-serif" font-size="13" lengthAdjust="spacing" textLength="104" x="499.5" y="426.6201">Asignatura Object</text><polygon fill="#181818" points="281.5,457.8281,271.5,461.8281,281.5,465.8281,277.5,461.8281" style="stroke:#181818;stroke-width:1.0;"/><line style="stroke:#181818;stroke-width:1.0;stroke-dasharray:2.0,2.0;" x1="275.5" x2="481.5" y1="461.8281" y2="461.8281"/><text fill="#000000" font-family="sans-serif" font-size="13" lengthAdjust="spacing" textLength="188" x="287.5" y="456.9717">Redirigir a listado / Mostrar &#233;xito</text><polygon fill="#181818" points="62.5,488.1797,52.5,492.1797,62.5,496.1797,58.5,492.1797" style="stroke:#181818;stroke-width:1.0;"/><line style="stroke:#181818;stroke-width:1.0;stroke-dasharray:2.0,2.0;" x1="56.5" x2="269.5" y1="492.1797" y2="492.1797"/><text fill="#000000" font-family="sans-serif" font-size="13" lengthAdjust="spacing" textLength="195" x="68.5" y="487.3232">Muestra confirmaci&#243;n de creaci&#243;n</text><!--SRC=[ZLCzRzim4DtvAmwQf25Esz4835XsWZfexDIoEsKvYxHoZKGQ9DN4Fwbpjgx-Opd9RaGPGT59_7ZlyUwzatiYlKEB5RX7bEQPT05RB9qI0dDlB8nbHPgSjtnh1KCzvRH3xI4QEoeq-jhYn2hqwiROwa77IyNC909qi9x1rTN4L3kZbVQZKPzVEzL9E6P-DURfI6nMJ6q-vwo0aYdxYtB5pF4B6NUatfnEcNvQ_KDXOhItfYoLPP6vSlusEwfq5sq7VpV_LKoeatvKZKIF6tGAedlZV65LzlrRYvwcGlGCXujHO-8GbegVrmXRzhWkqPA1FUpgqY54ZVis4enZTElS45ozgSZ7pKk9QC_uxjsQ8UHjObtv9-GxWj611KEuNsGhkCIkNOXliyKSKYFtYGYWJ4pFducbDub80-q0yWDBacWXFxnAAWmS_cZAJGyzJHatcsVNonL_LelGzmZYmM2G2CPSz8Kx33GEIOJucVmZhDUpQLZDUQi1xrfxyljUUtqRMm-Mol60Svpnbq-VuVWloD3BBfP0Ux7vgN9_ogQBMPAbWYmWb3m4F0Dm2NUc6GSBXzylv4qRD1FwWpA4krer6yYDtfAjCAV3gmQfsX3QpHi0]--></g></svg>