<?xml version="1.0" encoding="us-ascii" standalone="no"?><svg xmlns="http://www.w3.org/2000/svg" xmlns:xlink="http://www.w3.org/1999/xlink" contentStyleType="text/css" height="451px" preserveAspectRatio="none" style="width:581px;height:451px;background:#FFFFFF;" version="1.1" viewBox="0 0 581 451" width="581px" zoomAndPan="magnify"><defs/><g><!--cluster eliminarAlumno--><g id="cluster_eliminarAlumno"><path d="M8.5,6 L127.5,6 A3.75,3.75 0 0 1 130,8.5 L137,29.6094 L252.5,29.6094 A2.5,2.5 0 0 1 255,32.1094 L255,441.5 A2.5,2.5 0 0 1 252.5,444 L8.5,444 A2.5,2.5 0 0 1 6,441.5 L6,8.5 A2.5,2.5 0 0 1 8.5,6 " fill="none" style="stroke:#000000;stroke-width:1.5;"/><line style="stroke:#000000;stroke-width:1.5;" x1="6" x2="137" y1="29.6094" y2="29.6094"/><text fill="#000000" font-family="sans-serif" font-size="14" font-weight="bold" lengthAdjust="spacing" textLength="118" x="10" y="22.5332">eliminarAlumno()</text></g><!--entity EliminarAlumnoView--><g id="elem_EliminarAlumnoView"><rect fill="#629EF9" height="37.6094" rx="2.5" ry="2.5" style="stroke:#181818;stroke-width:0.5;" width="146" x="93" y="42"/><text fill="#000000" font-family="sans-serif" font-size="14" lengthAdjust="spacing" textLength="126" x="103" y="66.5332">EliminarAlumnoView</text></g><!--entity AlumnoController--><g id="elem_AlumnoController"><rect fill="#B5BD68" height="37.6094" rx="2.5" ry="2.5" style="stroke:#181818;stroke-width:0.5;" width="129" x="23.5" y="158"/><text fill="#000000" font-family="sans-serif" font-size="14" lengthAdjust="spacing" textLength="109" x="33.5" y="182.5332">AlumnoController</text></g><!--entity AlumnoRepository--><g id="elem_AlumnoRepository"><rect fill="#F2AC4E" height="37.6094" rx="2.5" ry="2.5" style="stroke:#181818;stroke-width:0.5;" width="135" x="22.5" y="274"/><text fill="#000000" font-family="sans-serif" font-size="14" lengthAdjust="spacing" textLength="115" x="32.5" y="298.5332">AlumnoRepository</text></g><!--entity Alumno--><g id="elem_Alumno"><rect fill="#F2AC4E" height="37.6094" rx="2.5" ry="2.5" style="stroke:#181818;stroke-width:0.5;" width="67" x="56.5" y="390"/><text fill="#000000" font-family="sans-serif" font-size="14" lengthAdjust="spacing" textLength="47" x="66.5" y="414.5332">Alumno</text></g><!--entity AlumnosAbierto--><g id="elem_AlumnosAbierto"><rect fill="#CDEBA5" height="37.6094" rx="2.5" ry="2.5" style="stroke:#181818;stroke-width:0.5;" width="127" x="406.5" y="158"/><text fill="#000000" font-family="sans-serif" font-size="14" lengthAdjust="spacing" textLength="107" x="416.5" y="182.5332">:Alumnos Abierto</text></g><!--link AlumnosAbierto to EliminarAlumnoView--><g id="link_AlumnosAbierto_EliminarAlumnoView"><path d="M406.48,160.28 C349.9,146.28 276,128 276,128 C276,128 233.7744,102.6679 201.2044,83.1179 " fill="none" id="AlumnosAbierto-to-EliminarAlumnoView" style="stroke:#181818;stroke-width:1.0;"/><polygon fill="#181818" points="196.06,80.03,201.718,88.0915,200.347,82.6033,205.8352,81.2323,196.06,80.03" style="stroke:#181818;stroke-width:1.0;"/><text fill="#000000" font-family="sans-serif" font-size="13" lengthAdjust="spacing" textLength="149" x="277" y="124.4951">eliminarAlumno(alumnoId)</text></g><!--link EliminarAlumnoView to AlumnosAbierto--><g id="link_EliminarAlumnoView_AlumnosAbierto"><path d="M239.11,75.24 C317.55,89.45 431,110 431,110 C431,110 444.75,133.253 456.29,152.803 " fill="none" id="EliminarAlumnoView-to-AlumnosAbierto" style="stroke:#181818;stroke-width:1.0;stroke-dasharray:7.0,7.0;"/><polygon fill="#181818" points="459.34,157.97,458.2097,148.1862,456.7984,153.6642,451.3204,152.2528,459.34,157.97" style="stroke:#181818;stroke-width:1.0;"/><text fill="#000000" font-family="sans-serif" font-size="13" lengthAdjust="spacing" textLength="58" x="442" y="124.4951">&#171;finalizar&#187;</text></g><!--link EliminarAlumnoView to AlumnosAbierto--><g id="link_EliminarAlumnoView_AlumnosAbierto"><path d="M239.16,72.24 C339.9,86.34 509,110 509,110 C509,110 509,128 509,128 C509,128 499.5752,139.6047 488.5252,153.1947 " fill="none" id="EliminarAlumnoView-to-AlumnosAbierto-1" style="stroke:#181818;stroke-width:1.0;stroke-dasharray:7.0,7.0;"/><polygon fill="#181818" points="484.74,157.85,493.5214,153.3905,487.8944,153.9706,487.3143,148.3435,484.74,157.85" style="stroke:#181818;stroke-width:1.0;"/><text fill="#000000" font-family="sans-serif" font-size="13" lengthAdjust="spacing" textLength="63" x="510" y="124.4951">&#171;cancelar&#187;</text></g><!--link EliminarAlumnoView to AlumnoController--><g id="link_EliminarAlumnoView_AlumnoController"><path d="M123.98,80.01 C92.2,93.63 54,110 54,110 C54,110 54,128 54,128 C54,128 62.051,139.3645 71.681,152.9545 " fill="none" id="EliminarAlumnoView-to-AlumnoController" style="stroke:#181818;stroke-width:1.0;"/><polygon fill="#181818" points="75.15,157.85,73.2102,148.1941,72.2592,153.7704,66.6828,152.8194,75.15,157.85" style="stroke:#181818;stroke-width:1.0;"/><text fill="#000000" font-family="sans-serif" font-size="13" lengthAdjust="spacing" textLength="180" x="55" y="124.4951">confirmarEliminacion(alumnoId)</text></g><!--link AlumnoController to AlumnoRepository--><g id="link_AlumnoController_AlumnoRepository"><path d="M88.32,196.06 C88.69,217.28 89.1932,246.301 89.5732,267.641 " fill="none" id="AlumnoController-to-AlumnoRepository" style="stroke:#181818;stroke-width:1.0;"/><polygon fill="#181818" points="89.68,273.64,93.5191,264.5702,89.591,268.6408,85.5204,264.7126,89.68,273.64" style="stroke:#181818;stroke-width:1.0;"/><text fill="#000000" font-family="sans-serif" font-size="13" lengthAdjust="spacing" textLength="105" x="91" y="240.4951">eliminar(alumnoId)</text></g><!--link AlumnoRepository to Alumno--><g id="link_AlumnoRepository_Alumno"><path d="M90,312.06 C90,333.28 90,362.3 90,383.64 " fill="none" id="AlumnoRepository-to-Alumno" style="stroke:#181818;stroke-width:1.0;"/><polygon fill="#181818" points="90,389.64,94,380.64,90,384.64,86,380.64,90,389.64" style="stroke:#181818;stroke-width:1.0;"/><text fill="#000000" font-family="sans-serif" font-size="13" lengthAdjust="spacing" textLength="55" x="91" y="356.4951">&#171;elimina&#187;</text></g><!--SRC=[ZP7FQy8m583l-IiUtKKFUX2LALBeQeLTTzZzDJubc2OXpHZTsF- -j0RQnZAMIvANxti_I7qJog352gHGv1f3OBHisWjZbhX3TPK4J_cnUCasaEmp-L4fNKDM2h9E9u3-V8-546C6-Gsl12H59HJQ-tjB9kFGR9x0DmE_1gMsgrrnsa4n8jy5VSPWkIdFs-TGFTVAMIqbsHWxhR9yNGJiZOokXTEs-HDZFuoDfuB58fte2VRHb3FijjVpd4tGRPAuNv-2QtKHja8R52wq6YHwCFeq_Jo3JXxK0TMhNZWSWfAcRAhTvJADFhUJBXwJuWkjr_vlSLISP2Vz0W00]--></g></svg>