<?xml version="1.0" encoding="us-ascii" standalone="no"?><svg xmlns="http://www.w3.org/2000/svg" xmlns:xlink="http://www.w3.org/1999/xlink" contentStyleType="text/css" height="451px" preserveAspectRatio="none" style="width:939px;height:451px;background:#FFFFFF;" version="1.1" viewBox="0 0 939 451" width="939px" zoomAndPan="magnify"><defs/><g><!--cluster descargarCalendarioExamenes--><g id="cluster_descargarCalendarioExamenes"><path d="M167.5,6 L397.5,6 A3.75,3.75 0 0 1 400,8.5 L407,29.6094 L772.5,29.6094 A2.5,2.5 0 0 1 775,32.1094 L775,441.5 A2.5,2.5 0 0 1 772.5,444 L167.5,444 A2.5,2.5 0 0 1 165,441.5 L165,8.5 A2.5,2.5 0 0 1 167.5,6 " fill="none" style="stroke:#000000;stroke-width:1.5;"/><line style="stroke:#000000;stroke-width:1.5;" x1="165" x2="407" y1="29.6094" y2="29.6094"/><text fill="#000000" font-family="sans-serif" font-size="14" font-weight="bold" lengthAdjust="spacing" textLength="229" x="169" y="22.5332">descargarCalendarioExamenes()</text></g><!--entity ConsultarCalendarioView--><g id="elem_ConsultarCalendarioView"><rect fill="#629EF9" height="37.6094" rx="2.5" ry="2.5" style="stroke:#181818;stroke-width:0.5;" width="179" x="505.5" y="42"/><text fill="#000000" font-family="sans-serif" font-size="14" lengthAdjust="spacing" textLength="159" x="515.5" y="66.5332">ConsultarCalendarioView</text></g><!--entity CalendarioController--><g id="elem_CalendarioController"><rect fill="#B5BD68" height="37.6094" rx="2.5" ry="2.5" style="stroke:#181818;stroke-width:0.5;" width="151" x="404.5" y="158"/><text fill="#000000" font-family="sans-serif" font-size="14" lengthAdjust="spacing" textLength="131" x="414.5" y="182.5332">CalendarioController</text></g><!--entity ExamenRepository--><g id="elem_ExamenRepository"><rect fill="#F2AC4E" height="37.6094" rx="2.5" ry="2.5" style="stroke:#181818;stroke-width:0.5;" width="138" x="181" y="274"/><text fill="#000000" font-family="sans-serif" font-size="14" lengthAdjust="spacing" textLength="118" x="191" y="298.5332">ExamenRepository</text></g><!--entity ExportService--><g id="elem_ExportService"><rect fill="#F2AC4E" height="37.6094" rx="2.5" ry="2.5" style="stroke:#181818;stroke-width:0.5;" width="107" x="300.5" y="390"/><text fill="#000000" font-family="sans-serif" font-size="14" lengthAdjust="spacing" textLength="87" x="310.5" y="414.5332">ExportService</text></g><!--entity Session--><g id="elem_Session"><rect fill="#F2AC4E" height="37.6094" rx="2.5" ry="2.5" style="stroke:#181818;stroke-width:0.5;" width="74" x="685" y="274"/><text fill="#000000" font-family="sans-serif" font-size="14" lengthAdjust="spacing" textLength="54" x="695" y="298.5332">:Session</text></g><!--entity CalendarioAbierto--><g id="elem_CalendarioAbierto"><rect fill="#CDEBA5" height="37.6094" rx="2.5" ry="2.5" style="stroke:#181818;stroke-width:0.5;" width="142" x="7" y="42"/><text fill="#000000" font-family="sans-serif" font-size="14" lengthAdjust="spacing" textLength="122" x="17" y="66.5332">:Calendario Abierto</text></g><!--entity CalendarioSalida--><g id="elem_CalendarioSalida"><rect fill="#CDEBA5" height="37.6094" rx="2.5" ry="2.5" style="stroke:#181818;stroke-width:0.5;" width="142" x="791" y="158"/><text fill="#000000" font-family="sans-serif" font-size="14" lengthAdjust="spacing" textLength="122" x="801" y="182.5332">:Calendario Abierto</text></g><!--link CalendarioAbierto to ConsultarCalendarioView--><g id="link_CalendarioAbierto_ConsultarCalendarioView"><path d="M149.07,61 C241.79,61 398.08,61 499.21,61 " fill="none" id="CalendarioAbierto-to-ConsultarCalendarioView" style="stroke:#181818;stroke-width:1.0;"/><polygon fill="#181818" points="505.21,61,496.21,57,500.21,61,496.21,65,505.21,61" style="stroke:#181818;stroke-width:1.0;"/><text fill="#000000" font-family="sans-serif" font-size="13" lengthAdjust="spacing" textLength="188" x="233.25" y="54.4951">descargarCalendarioExamenes()</text></g><!--link ConsultarCalendarioView to CalendarioController--><g id="link_ConsultarCalendarioView_CalendarioController"><path d="M505.32,76.79 C419.81,90.9 304,110 304,110 C304,110 304,128 304,128 C304,128 358.2314,142.7913 408.1714,156.4113 " fill="none" id="ConsultarCalendarioView-to-CalendarioController" style="stroke:#181818;stroke-width:1.0;"/><polygon fill="#181818" points="413.96,157.99,406.3296,151.7629,409.1362,156.6744,404.2247,159.481,413.96,157.99" style="stroke:#181818;stroke-width:1.0;"/><text fill="#000000" font-family="sans-serif" font-size="13" lengthAdjust="spacing" textLength="246" x="305" y="124.4951">generarArchivo(periodo, formato, opciones)</text></g><!--reverse link ConsultarCalendarioView to CalendarioController--><g id="link_ConsultarCalendarioView_CalendarioController"><path d="M581.29,85.197 C569.75,104.747 556,128 556,128 C556,128 530.25,144.26 508.73,157.85 " fill="none" id="ConsultarCalendarioView-backto-CalendarioController" style="stroke:#181818;stroke-width:1.0;"/><polygon fill="#181818" points="584.34,80.03,576.3204,85.7472,581.7984,84.3358,583.2097,89.8138,584.34,80.03" style="stroke:#181818;stroke-width:1.0;"/><text fill="#000000" font-family="sans-serif" font-size="13" lengthAdjust="spacing" textLength="125" x="567" y="124.4951">archivoGenerado(File)</text></g><!--link CalendarioController to Session--><g id="link_CalendarioController_Session"><path d="M518.35,196.06 C563.93,217.54 634.0522,250.573 679.2022,271.843 " fill="none" id="CalendarioController-to-Session" style="stroke:#181818;stroke-width:1.0;"/><polygon fill="#181818" points="684.63,274.4,678.1929,266.9459,680.1068,272.2691,674.7835,274.183,684.63,274.4" style="stroke:#181818;stroke-width:1.0;"/><text fill="#000000" font-family="sans-serif" font-size="13" lengthAdjust="spacing" textLength="82" x="616" y="240.4951">obtenerActor()</text></g><!--link CalendarioController to ExamenRepository--><g id="link_CalendarioController_ExamenRepository"><path d="M404.2,191.63 C325.27,205.82 213,226 213,226 C213,226 213,244 213,244 C213,244 221.866,255.5087 232.346,269.0987 " fill="none" id="CalendarioController-to-ExamenRepository" style="stroke:#181818;stroke-width:1.0;"/><polygon fill="#181818" points="236.01,273.85,233.6815,264.2803,232.9567,269.8906,227.3464,269.1657,236.01,273.85" style="stroke:#181818;stroke-width:1.0;"/><text fill="#000000" font-family="sans-serif" font-size="13" lengthAdjust="spacing" textLength="256" x="214" y="240.4951">obtenerExamenesPorPeriodo(periodo, actor)</text></g><!--link CalendarioController to ExportService--><g id="link_CalendarioController_ExportService"><path d="M478.63,196.03 C477.15,215.58 475,244 475,244 C475,244 407,274 407,274 C407,274 377.8157,347.7701 363.3557,384.3501 " fill="none" id="CalendarioController-to-ExportService" style="stroke:#181818;stroke-width:1.0;"/><polygon fill="#181818" points="361.15,389.93,368.1785,383.0307,362.9881,385.2801,360.7387,380.0897,361.15,389.93" style="stroke:#181818;stroke-width:1.0;"/><text fill="#000000" font-family="sans-serif" font-size="13" lengthAdjust="spacing" textLength="259" x="408" y="298.4951">exportar(examenes, formato, opciones) : File</text></g><!--reverse link ExamenRepository to ExportService--><g id="link_ExamenRepository_ExportService"><path d="M270.5239,316.4925 C289.8839,337.7125 317.78,368.3 337.25,389.64 " fill="none" id="ExamenRepository-backto-ExportService" style="stroke:#181818;stroke-width:1.0;"/><polygon fill="#181818" points="266.48,312.06,269.5909,321.4046,269.8499,315.7537,275.5009,316.0127,266.48,312.06" style="stroke:#181818;stroke-width:1.0;"/><text fill="#000000" font-family="sans-serif" font-size="13" lengthAdjust="spacing" textLength="39" x="309" y="356.4951">&#171;read&#187;</text></g><!--link ConsultarCalendarioView to CalendarioSalida--><g id="link_ConsultarCalendarioView_CalendarioSalida"><path d="M637.31,80.06 C687.16,101.35 763.982,134.1437 813.932,155.4737 " fill="none" id="ConsultarCalendarioView-to-CalendarioSalida" style="stroke:#181818;stroke-width:1.0;stroke-dasharray:7.0,7.0;"/><polygon fill="#181818" points="819.45,157.83,812.7439,150.6169,814.8517,155.8664,809.6022,157.9742,819.45,157.83" style="stroke:#181818;stroke-width:1.0;"/><text fill="#000000" font-family="sans-serif" font-size="13" lengthAdjust="spacing" textLength="58" x="745" y="124.4951">&#171;finalizar&#187;</text></g><!--link ConsultarCalendarioView to CalendarioSalida--><g id="link_ConsultarCalendarioView_CalendarioSalida"><path d="M676.42,80.01 C737.99,93.63 812,110 812,110 C812,110 829.9069,133.6374 844.7169,153.1874 " fill="none" id="ConsultarCalendarioView-to-CalendarioSalida-1" style="stroke:#181818;stroke-width:1.0;stroke-dasharray:7.0,7.0;"/><polygon fill="#181818" points="848.34,157.97,846.0938,148.3807,845.3208,153.9845,839.717,153.2114,848.34,157.97" style="stroke:#181818;stroke-width:1.0;"/><text fill="#000000" font-family="sans-serif" font-size="13" lengthAdjust="spacing" textLength="63" x="826" y="124.4951">&#171;cancelar&#187;</text></g><!--SRC=[dLD1JiCm4Bpx5Qjm2HBbK5445QeKIigreXBthRCDLbqxMhj0GVmT9oqaj4qGvEIrPyQpiuvRAbCWumgqCkGt1K5XzQOiXFi-Sq-OsHTbSbYWTYG4a_HeSarmChvBRvC1HCCnQZ8PihAGp1Mnjn6WWtfxjoj4WNA9EK56JYBdo3KcVSKL6N8bC-euZqyZU1S2mjVmSjc_JYVNCBR6hRLlyXuLlUoZvuDvTddLC1XudgtMnFlGIJyPNwImlVs12kkKjxnfXHMM_OpuMKbgmKJ36JcdhAb2sgt5np-ZdQ5M6Gfn43Rqk3Tg2mI6q1bnq6iXzh9IzKXmGJ8FP4PEM3wfPniN502PFOE5vHNwiB253BsIEstwRKXKuhj4WfwT-r8naI7nk9EpFvwQ_DNJrF9qwwVsXQNmBxgDUGPHgchac7QonveBk8dIuL_voUwjZnkzkM72R3Hgyx7k72DkmxwleW_DbJTtZE_yV7JmU2eF2sL2yOOSZFoPBD58qXNt4m00]--></g></svg>