<?xml version="1.0" encoding="us-ascii" standalone="no"?><svg xmlns="http://www.w3.org/2000/svg" xmlns:xlink="http://www.w3.org/1999/xlink" contentStyleType="text/css" height="741px" preserveAspectRatio="none" style="width:1208px;height:741px;background:#FFFFFF;" version="1.1" viewBox="0 0 1208 741" width="1208px" zoomAndPan="magnify"><defs/><g><line style="stroke:#181818;stroke-width:0.5;stroke-dasharray:5.0,5.0;" x1="51" x2="51" y1="82.6094" y2="659.5859"/><line style="stroke:#181818;stroke-width:0.5;stroke-dasharray:5.0,5.0;" x1="264.5" x2="264.5" y1="82.6094" y2="659.5859"/><line style="stroke:#181818;stroke-width:0.5;stroke-dasharray:5.0,5.0;" x1="423.5" x2="423.5" y1="82.6094" y2="659.5859"/><line style="stroke:#181818;stroke-width:0.5;stroke-dasharray:5.0,5.0;" x1="560.5" x2="560.5" y1="82.6094" y2="659.5859"/><line style="stroke:#181818;stroke-width:0.5;stroke-dasharray:5.0,5.0;" x1="736" x2="736" y1="82.6094" y2="659.5859"/><line style="stroke:#181818;stroke-width:0.5;stroke-dasharray:5.0,5.0;" x1="880" x2="880" y1="82.6094" y2="659.5859"/><line style="stroke:#181818;stroke-width:0.5;stroke-dasharray:5.0,5.0;" x1="1154.5" x2="1154.5" y1="82.6094" y2="659.5859"/><text fill="#000000" font-family="sans-serif" font-size="14" lengthAdjust="spacing" textLength="87" x="5" y="79.5332">Administrador</text><ellipse cx="51.5" cy="13.5" fill="#E2E2F0" rx="8" ry="8" style="stroke:#181818;stroke-width:0.5;"/><path d="M51.5,21.5 L51.5,48.5 M38.5,29.5 L64.5,29.5 M51.5,48.5 L38.5,63.5 M51.5,48.5 L64.5,63.5 " fill="none" style="stroke:#181818;stroke-width:0.5;"/><text fill="#000000" font-family="sans-serif" font-size="14" lengthAdjust="spacing" textLength="87" x="5" y="673.1191">Administrador</text><ellipse cx="51.5" cy="684.6953" fill="#E2E2F0" rx="8" ry="8" style="stroke:#181818;stroke-width:0.5;"/><path d="M51.5,692.6953 L51.5,719.6953 M38.5,700.6953 L64.5,700.6953 M51.5,719.6953 L38.5,734.6953 M51.5,719.6953 L64.5,734.6953 " fill="none" style="stroke:#181818;stroke-width:0.5;"/><rect fill="#E2E2F0" height="66.8281" rx="2.5" ry="2.5" style="stroke:#181818;stroke-width:0.5;" width="134" x="197.5" y="14.7813"/><text fill="#000000" font-family="sans-serif" font-size="14" font-style="italic" lengthAdjust="spacing" textLength="89" x="220" y="36.3145">&#171;Component&#187;</text><text fill="#000000" font-family="sans-serif" font-size="14" lengthAdjust="spacing" textLength="120" x="204.5" y="53.9238">ExamenDeleteView</text><text fill="#000000" font-family="sans-serif" font-size="14" lengthAdjust="spacing" textLength="47" x="241" y="71.5332">(React)</text><rect fill="#E2E2F0" height="66.8281" rx="2.5" ry="2.5" style="stroke:#181818;stroke-width:0.5;" width="134" x="197.5" y="658.5859"/><text fill="#000000" font-family="sans-serif" font-size="14" font-style="italic" lengthAdjust="spacing" textLength="89" x="220" y="680.1191">&#171;Component&#187;</text><text fill="#000000" font-family="sans-serif" font-size="14" lengthAdjust="spacing" textLength="120" x="204.5" y="697.7285">ExamenDeleteView</text><text fill="#000000" font-family="sans-serif" font-size="14" lengthAdjust="spacing" textLength="47" x="241" y="715.3379">(React)</text><rect fill="#E2E2F0" height="66.8281" rx="2.5" ry="2.5" style="stroke:#181818;stroke-width:0.5;" width="128" x="359.5" y="14.7813"/><text fill="#000000" font-family="sans-serif" font-size="14" font-style="italic" lengthAdjust="spacing" textLength="50" x="398.5" y="36.3145">&#171;Hook&#187;</text><text fill="#000000" font-family="sans-serif" font-size="14" lengthAdjust="spacing" textLength="114" x="366.5" y="53.9238">useExamenDelete</text><text fill="#000000" font-family="sans-serif" font-size="14" lengthAdjust="spacing" textLength="42" x="402.5" y="71.5332">(Hook)</text><rect fill="#E2E2F0" height="66.8281" rx="2.5" ry="2.5" style="stroke:#181818;stroke-width:0.5;" width="128" x="359.5" y="658.5859"/><text fill="#000000" font-family="sans-serif" font-size="14" font-style="italic" lengthAdjust="spacing" textLength="50" x="398.5" y="680.1191">&#171;Hook&#187;</text><text fill="#000000" font-family="sans-serif" font-size="14" lengthAdjust="spacing" textLength="114" x="366.5" y="697.7285">useExamenDelete</text><text fill="#000000" font-family="sans-serif" font-size="14" lengthAdjust="spacing" textLength="42" x="402.5" y="715.3379">(Hook)</text><rect fill="#E2E2F0" height="66.8281" rx="2.5" ry="2.5" style="stroke:#181818;stroke-width:0.5;" width="126" x="497.5" y="14.7813"/><text fill="#000000" font-family="sans-serif" font-size="14" font-style="italic" lengthAdjust="spacing" textLength="62" x="529.5" y="36.3145">&#171;Service&#187;</text><text fill="#000000" font-family="sans-serif" font-size="14" lengthAdjust="spacing" textLength="112" x="504.5" y="53.9238">ExamenesService</text><text fill="#000000" font-family="sans-serif" font-size="14" lengthAdjust="spacing" textLength="43" x="539" y="71.5332">(Axios)</text><rect fill="#E2E2F0" height="66.8281" rx="2.5" ry="2.5" style="stroke:#181818;stroke-width:0.5;" width="126" x="497.5" y="658.5859"/><text fill="#000000" font-family="sans-serif" font-size="14" font-style="italic" lengthAdjust="spacing" textLength="62" x="529.5" y="680.1191">&#171;Service&#187;</text><text fill="#000000" font-family="sans-serif" font-size="14" lengthAdjust="spacing" textLength="112" x="504.5" y="697.7285">ExamenesService</text><text fill="#000000" font-family="sans-serif" font-size="14" lengthAdjust="spacing" textLength="43" x="539" y="715.3379">(Axios)</text><rect fill="#E2E2F0" height="66.8281" rx="2.5" ry="2.5" style="stroke:#181818;stroke-width:0.5;" width="141" x="666" y="14.7813"/><text fill="#000000" font-family="sans-serif" font-size="14" font-style="italic" lengthAdjust="spacing" textLength="78" x="697.5" y="36.3145">&#171;Controller&#187;</text><text fill="#000000" font-family="sans-serif" font-size="14" lengthAdjust="spacing" textLength="127" x="673" y="53.9238">ExamenesController</text><text fill="#000000" font-family="sans-serif" font-size="14" lengthAdjust="spacing" textLength="53" x="710" y="71.5332">(NestJS)</text><rect fill="#E2E2F0" height="66.8281" rx="2.5" ry="2.5" style="stroke:#181818;stroke-width:0.5;" width="141" x="666" y="658.5859"/><text fill="#000000" font-family="sans-serif" font-size="14" font-style="italic" lengthAdjust="spacing" textLength="78" x="697.5" y="680.1191">&#171;Controller&#187;</text><text fill="#000000" font-family="sans-serif" font-size="14" lengthAdjust="spacing" textLength="127" x="673" y="697.7285">ExamenesController</text><text fill="#000000" font-family="sans-serif" font-size="14" lengthAdjust="spacing" textLength="53" x="710" y="715.3379">(NestJS)</text><rect fill="#E2E2F0" height="66.8281" rx="2.5" ry="2.5" style="stroke:#181818;stroke-width:0.5;" width="126" x="817" y="14.7813"/><text fill="#000000" font-family="sans-serif" font-size="14" font-style="italic" lengthAdjust="spacing" textLength="62" x="849" y="36.3145">&#171;Service&#187;</text><text fill="#000000" font-family="sans-serif" font-size="14" lengthAdjust="spacing" textLength="112" x="824" y="53.9238">ExamenesService</text><text fill="#000000" font-family="sans-serif" font-size="14" lengthAdjust="spacing" textLength="53" x="853.5" y="71.5332">(NestJS)</text><rect fill="#E2E2F0" height="66.8281" rx="2.5" ry="2.5" style="stroke:#181818;stroke-width:0.5;" width="126" x="817" y="658.5859"/><text fill="#000000" font-family="sans-serif" font-size="14" font-style="italic" lengthAdjust="spacing" textLength="62" x="849" y="680.1191">&#171;Service&#187;</text><text fill="#000000" font-family="sans-serif" font-size="14" lengthAdjust="spacing" textLength="112" x="824" y="697.7285">ExamenesService</text><text fill="#000000" font-family="sans-serif" font-size="14" lengthAdjust="spacing" textLength="53" x="853.5" y="715.3379">(NestJS)</text><text fill="#000000" font-family="sans-serif" font-size="14" lengthAdjust="spacing" textLength="77" x="1113.5" y="79.5332">PostgreSQL</text><path d="M1137,29 C1137,19 1155,19 1155,19 C1155,19 1173,19 1173,29 L1173,55 C1173,65 1155,65 1155,65 C1155,65 1137,65 1137,55 L1137,29 " fill="#E2E2F0" style="stroke:#181818;stroke-width:1.5;"/><path d="M1137,29 C1137,39 1155,39 1155,39 C1155,39 1173,39 1173,29 " fill="none" style="stroke:#181818;stroke-width:1.5;"/><text fill="#000000" font-family="sans-serif" font-size="14" lengthAdjust="spacing" textLength="77" x="1113.5" y="673.1191">PostgreSQL</text><path d="M1137,686.1953 C1137,676.1953 1155,676.1953 1155,676.1953 C1155,676.1953 1173,676.1953 1173,686.1953 L1173,712.1953 C1173,722.1953 1155,722.1953 1155,722.1953 C1155,722.1953 1137,722.1953 1137,712.1953 L1137,686.1953 " fill="#E2E2F0" style="stroke:#181818;stroke-width:1.5;"/><path d="M1137,686.1953 C1137,696.1953 1155,696.1953 1155,696.1953 C1155,696.1953 1173,696.1953 1173,686.1953 " fill="none" style="stroke:#181818;stroke-width:1.5;"/><rect fill="#EEEEEE" height="3" style="stroke:#EEEEEE;stroke-width:1.0;" width="1201.5" x="0" y="113.7852"/><line style="stroke:#000000;stroke-width:1.0;" x1="0" x2="1201.5" y1="113.7852" y2="113.7852"/><line style="stroke:#000000;stroke-width:1.0;" x1="0" x2="1201.5" y1="116.7852" y2="116.7852"/><rect fill="#EEEEEE" height="24.3516" style="stroke:#000000;stroke-width:2.0;" width="202" x="499.75" y="102.6094"/><text fill="#000000" font-family="sans-serif" font-size="13" font-weight="bold" lengthAdjust="spacing" textLength="184" x="505.75" y="120.1045">Confirmaci&#243;n de eliminaci&#243;n</text><polygon fill="#181818" points="252.5,155.3125,262.5,159.3125,252.5,163.3125,256.5,159.3125" style="stroke:#181818;stroke-width:1.0;"/><line style="stroke:#181818;stroke-width:1.0;" x1="51.5" x2="258.5" y1="159.3125" y2="159.3125"/><text fill="#000000" font-family="sans-serif" font-size="13" lengthAdjust="spacing" textLength="174" x="58.5" y="154.4561">Selecciona examen a eliminar</text><polygon fill="#181818" points="252.5,185.6641,262.5,189.6641,252.5,193.6641,256.5,189.6641" style="stroke:#181818;stroke-width:1.0;"/><line style="stroke:#181818;stroke-width:1.0;" x1="51.5" x2="258.5" y1="189.6641" y2="189.6641"/><text fill="#000000" font-family="sans-serif" font-size="13" lengthAdjust="spacing" textLength="108" x="58.5" y="184.8076">Click en "Eliminar"</text><line style="stroke:#181818;stroke-width:1.0;" x1="264.5" x2="306.5" y1="220.0156" y2="220.0156"/><line style="stroke:#181818;stroke-width:1.0;" x1="306.5" x2="306.5" y1="220.0156" y2="233.0156"/><line style="stroke:#181818;stroke-width:1.0;" x1="265.5" x2="306.5" y1="233.0156" y2="233.0156"/><polygon fill="#181818" points="275.5,229.0156,265.5,233.0156,275.5,237.0156,271.5,233.0156" style="stroke:#181818;stroke-width:1.0;"/><text fill="#000000" font-family="sans-serif" font-size="13" lengthAdjust="spacing" textLength="124" x="271.5" y="215.1592">Muestra confirmaci&#243;n</text><polygon fill="#181818" points="252.5,259.3672,262.5,263.3672,252.5,267.3672,256.5,263.3672" style="stroke:#181818;stroke-width:1.0;"/><line style="stroke:#181818;stroke-width:1.0;" x1="51.5" x2="258.5" y1="263.3672" y2="263.3672"/><text fill="#000000" font-family="sans-serif" font-size="13" lengthAdjust="spacing" textLength="120" x="58.5" y="258.5107">Confirma eliminaci&#243;n</text><rect fill="#EEEEEE" height="3" style="stroke:#EEEEEE;stroke-width:1.0;" width="1201.5" x="0" y="292.543"/><line style="stroke:#000000;stroke-width:1.0;" x1="0" x2="1201.5" y1="292.543" y2="292.543"/><line style="stroke:#000000;stroke-width:1.0;" x1="0" x2="1201.5" y1="295.543" y2="295.543"/><rect fill="#EEEEEE" height="24.3516" style="stroke:#000000;stroke-width:2.0;" width="80" x="560.75" y="281.3672"/><text fill="#000000" font-family="sans-serif" font-size="13" font-weight="bold" lengthAdjust="spacing" textLength="62" x="566.75" y="298.8623">Ejecuci&#243;n</text><polygon fill="#181818" points="411.5,334.0703,421.5,338.0703,411.5,342.0703,415.5,338.0703" style="stroke:#181818;stroke-width:1.0;"/><line style="stroke:#181818;stroke-width:1.0;" x1="264.5" x2="417.5" y1="338.0703" y2="338.0703"/><text fill="#000000" font-family="sans-serif" font-size="13" lengthAdjust="spacing" textLength="107" x="271.5" y="333.2139">removeExamen(id)</text><polygon fill="#181818" points="548.5,364.4219,558.5,368.4219,548.5,372.4219,552.5,368.4219" style="stroke:#181818;stroke-width:1.0;"/><line style="stroke:#181818;stroke-width:1.0;" x1="423.5" x2="554.5" y1="368.4219" y2="368.4219"/><text fill="#000000" font-family="sans-serif" font-size="13" lengthAdjust="spacing" textLength="101" x="430.5" y="363.5654">deleteExamen(id)</text><polygon fill="#181818" points="724.5,394.7734,734.5,398.7734,724.5,402.7734,728.5,398.7734" style="stroke:#181818;stroke-width:1.0;"/><line style="stroke:#181818;stroke-width:1.0;" x1="560.5" x2="730.5" y1="398.7734" y2="398.7734"/><text fill="#000000" font-family="sans-serif" font-size="13" lengthAdjust="spacing" textLength="136" x="567.5" y="393.917">DELETE /examenes/:id</text><polygon fill="#181818" points="868,425.125,878,429.125,868,433.125,872,429.125" style="stroke:#181818;stroke-width:1.0;"/><line style="stroke:#181818;stroke-width:1.0;" x1="736.5" x2="874" y1="429.125" y2="429.125"/><text fill="#000000" font-family="sans-serif" font-size="13" lengthAdjust="spacing" textLength="59" x="743.5" y="424.2686">remove(id)</text><polygon fill="#181818" points="1143,455.4766,1153,459.4766,1143,463.4766,1147,459.4766" style="stroke:#181818;stroke-width:1.0;"/><line style="stroke:#181818;stroke-width:1.0;" x1="880" x2="1149" y1="459.4766" y2="459.4766"/><text fill="#000000" font-family="sans-serif" font-size="13" lengthAdjust="spacing" textLength="251" x="887" y="454.6201">DELETE FROM "Examen" WHERE id = :id</text><polygon fill="#181818" points="891,485.8281,881,489.8281,891,493.8281,887,489.8281" style="stroke:#181818;stroke-width:1.0;"/><line style="stroke:#181818;stroke-width:1.0;stroke-dasharray:2.0,2.0;" x1="885" x2="1154" y1="489.8281" y2="489.8281"/><text fill="#000000" font-family="sans-serif" font-size="13" lengthAdjust="spacing" textLength="19" x="897" y="484.9717">OK</text><polygon fill="#181818" points="747.5,516.1797,737.5,520.1797,747.5,524.1797,743.5,520.1797" style="stroke:#181818;stroke-width:1.0;"/><line style="stroke:#181818;stroke-width:1.0;stroke-dasharray:2.0,2.0;" x1="741.5" x2="879" y1="520.1797" y2="520.1797"/><text fill="#000000" font-family="sans-serif" font-size="13" lengthAdjust="spacing" textLength="19" x="753.5" y="515.3232">OK</text><polygon fill="#181818" points="571.5,546.5313,561.5,550.5313,571.5,554.5313,567.5,550.5313" style="stroke:#181818;stroke-width:1.0;"/><line style="stroke:#181818;stroke-width:1.0;stroke-dasharray:2.0,2.0;" x1="565.5" x2="735.5" y1="550.5313" y2="550.5313"/><text fill="#000000" font-family="sans-serif" font-size="13" lengthAdjust="spacing" textLength="152" x="577.5" y="545.6748">JSON Response (200 OK)</text><polygon fill="#181818" points="434.5,576.8828,424.5,580.8828,434.5,584.8828,430.5,580.8828" style="stroke:#181818;stroke-width:1.0;"/><line style="stroke:#181818;stroke-width:1.0;stroke-dasharray:2.0,2.0;" x1="428.5" x2="559.5" y1="580.8828" y2="580.8828"/><text fill="#000000" font-family="sans-serif" font-size="13" lengthAdjust="spacing" textLength="51" x="440.5" y="576.0264">Success</text><polygon fill="#181818" points="275.5,607.2344,265.5,611.2344,275.5,615.2344,271.5,611.2344" style="stroke:#181818;stroke-width:1.0;"/><line style="stroke:#181818;stroke-width:1.0;stroke-dasharray:2.0,2.0;" x1="269.5" x2="422.5" y1="611.2344" y2="611.2344"/><text fill="#000000" font-family="sans-serif" font-size="13" lengthAdjust="spacing" textLength="135" x="281.5" y="606.3779">Redirigir / Mostrar &#233;xito</text><polygon fill="#181818" points="62.5,637.5859,52.5,641.5859,62.5,645.5859,58.5,641.5859" style="stroke:#181818;stroke-width:1.0;"/><line style="stroke:#181818;stroke-width:1.0;stroke-dasharray:2.0,2.0;" x1="56.5" x2="263.5" y1="641.5859" y2="641.5859"/><text fill="#000000" font-family="sans-serif" font-size="13" lengthAdjust="spacing" textLength="189" x="68.5" y="636.7295">Muestra confirmaci&#243;n de borrado</text><!--SRC=[XLFBRjim4BppAnOwEOV0GOz2P22o5QHf7BTIsbvwOQYDkxL46YIT-9TwxYVanxhK8vA26Zs9vCuCPtSejoEzbrRMu7xAqhoGtiAJh1mA8PKt5gxAcZGvRxbg1KCzATfBxI7AZh96lS8AFNuZVFcXPpaowom2wU3hHxYyN9fwRpHglrXCkGU7OpfJRupPjSomOcxulAUr77G5scTIWNPr9EDQtdLtojnkTOg-DDfRKrLeMU4UdRyjMecXq9ZlD_-tCHP9_-MZb5u-IeSGVJRERoqMN-uQz2eL8ad2pKzaQwdezO-64W4huibt-oGHOf84d2_2X6CeU7vAaT4Ii745igVQ4vHbHMe7Z8oo3XW9BlJbzG430zJOqIcf3ZDns_IJ_K9r6Cot-asoCLYipNEN_upACz6SS_qjmPWd4Dx52FDMOzmefXXMsLtsaC4Skr3cCPLYX61yEkYsTpUA8Xr9hj91wZhVhFkG8_X-a-KPK0a916K6daybDv_6Kk_jSNLiPjhbRR6vXnmT_oJyD6OVBYuOF-vr65fnK0gTwsRL1v1ZIPQsP64EQnFYiV3w-qZUD2Dds3Iu4_661_TeRC28lm00]--></g></svg>