<?xml version="1.0" encoding="us-ascii" standalone="no"?><svg xmlns="http://www.w3.org/2000/svg" xmlns:xlink="http://www.w3.org/1999/xlink" contentStyleType="text/css" height="219px" preserveAspectRatio="none" style="width:729px;height:219px;background:#FFFFFF;" version="1.1" viewBox="0 0 729 219" width="729px" zoomAndPan="magnify"><defs/><g><!--cluster completarProceso--><g id="cluster_completarProceso"><path d="M304,6 L443,6 A3.75,3.75 0 0 1 445.5,8.5 L452.5,29.6094 L508,29.6094 A2.5,2.5 0 0 1 510.5,32.1094 L510.5,209.5 A2.5,2.5 0 0 1 508,212 L304,212 A2.5,2.5 0 0 1 301.5,209.5 L301.5,8.5 A2.5,2.5 0 0 1 304,6 " fill="none" style="stroke:#000000;stroke-width:1.5;"/><line style="stroke:#000000;stroke-width:1.5;" x1="301.5" x2="452.5" y1="29.6094" y2="29.6094"/><text fill="#000000" font-family="sans-serif" font-size="14" font-weight="bold" lengthAdjust="spacing" textLength="138" x="305.5" y="22.5332">completarProceso()</text></g><!--entity GenerarCalendarioView--><g id="elem_GenerarCalendarioView"><rect fill="#629EF9" height="37.6094" rx="2.5" ry="2.5" style="stroke:#181818;stroke-width:0.5;" width="171" x="318" y="42"/><text fill="#000000" font-family="sans-serif" font-size="14" lengthAdjust="spacing" textLength="151" x="328" y="66.5332">GenerarCalendarioView</text></g><!--entity CalendarioController--><g id="elem_CalendarioController"><rect fill="#B5BD68" height="37.6094" rx="2.5" ry="2.5" style="stroke:#181818;stroke-width:0.5;" width="151" x="318" y="158"/><text fill="#000000" font-family="sans-serif" font-size="14" lengthAdjust="spacing" textLength="131" x="328" y="182.5332">CalendarioController</text></g><!--entity CalendarioGenerado--><g id="elem_CalendarioGenerado"><rect fill="#CDEBA5" height="37.6094" rx="2.5" ry="2.5" style="stroke:#181818;stroke-width:0.5;" width="161" x="7" y="42"/><text fill="#000000" font-family="sans-serif" font-size="14" lengthAdjust="spacing" textLength="141" x="17" y="66.5332">:Calendario Generado</text></g><!--entity SistemaDisponible--><g id="elem_SistemaDisponible"><rect fill="#CDEBA5" height="37.6094" rx="2.5" ry="2.5" style="stroke:#181818;stroke-width:0.5;" width="144" x="579.5" y="42"/><text fill="#000000" font-family="sans-serif" font-size="14" lengthAdjust="spacing" textLength="124" x="589.5" y="66.5332">:Sistema Disponible</text></g><!--link CalendarioGenerado to GenerarCalendarioView--><g id="link_CalendarioGenerado_GenerarCalendarioView"><path d="M168.06,61 C213.86,61 265.21,61 311.83,61 " fill="none" id="CalendarioGenerado-to-GenerarCalendarioView" style="stroke:#181818;stroke-width:1.0;"/><polygon fill="#181818" points="317.83,61,308.83,57,312.83,61,308.83,65,317.83,61" style="stroke:#181818;stroke-width:1.0;"/><text fill="#000000" font-family="sans-serif" font-size="13" lengthAdjust="spacing" textLength="113" x="186.5" y="54.4951">completarProceso()</text></g><!--link GenerarCalendarioView to CalendarioController--><g id="link_GenerarCalendarioView_CalendarioController"><path d="M401.92,80.06 C400.05,101.28 397.5038,130.3229 395.6338,151.6629 " fill="none" id="GenerarCalendarioView-to-CalendarioController" style="stroke:#181818;stroke-width:1.0;"/><polygon fill="#181818" points="395.11,157.64,399.8804,149.0235,395.5465,152.6591,391.9109,148.3252,395.11,157.64" style="stroke:#181818;stroke-width:1.0;"/><text fill="#000000" font-family="sans-serif" font-size="13" lengthAdjust="spacing" textLength="140" x="399.5" y="124.4951">finalizarSesionProceso()</text></g><!--link GenerarCalendarioView to SistemaDisponible--><g id="link_GenerarCalendarioView_SistemaDisponible"><path d="M489.19,61 C518.6,61 545.18,61 573.4,61 " fill="none" id="GenerarCalendarioView-to-SistemaDisponible" style="stroke:#181818;stroke-width:1.0;"/><polygon fill="#181818" points="579.4,61,570.4,57,574.4,61,570.4,65,579.4,61" style="stroke:#181818;stroke-width:1.0;"/><text fill="#000000" font-family="sans-serif" font-size="13" lengthAdjust="spacing" textLength="54" x="507.25" y="54.4951">&#171;navega&#187;</text></g><!--SRC=[XOzDIyD048Rlyok6UD53BaABBILGq-fLA7YV96COkfbTPXUbYl_TH2efJS2vpSFB-n6Fee6CEdIYd4w1CNXt6Xu0upgHjexnfjpj7xSBpDObETQ6J3m-ix9HupEaY2F_mn2eFbBBMFikE4vaB-PhZdwGPzVmzYx3By3-BbANzwlzq-eSP6F4g_37jRPQLCtouQ97wJMPTuuDlkUt72GcxWXt4eDNgHp_JZdZaG9Crs5kUJ7V3DSuNGSmhysRtcQkTE_o9afEFiaE7CNh_rv3fKdxtcYpKNhdbee2VW00]--></g></svg>