<?xml version="1.0" encoding="us-ascii" standalone="no"?><svg xmlns="http://www.w3.org/2000/svg" xmlns:xlink="http://www.w3.org/1999/xlink" contentStyleType="text/css" height="1001px" preserveAspectRatio="none" style="width:1261px;height:1001px;background:#FFFFFF;" version="1.1" viewBox="0 0 1261 1001" width="1261px" zoomAndPan="magnify"><defs/><g><line style="stroke:#181818;stroke-width:0.5;stroke-dasharray:5.0,5.0;" x1="51" x2="51" y1="82.6094" y2="919.75"/><line style="stroke:#181818;stroke-width:0.5;stroke-dasharray:5.0,5.0;" x1="225" x2="225" y1="82.6094" y2="919.75"/><line style="stroke:#181818;stroke-width:0.5;stroke-dasharray:5.0,5.0;" x1="384.5" x2="384.5" y1="82.6094" y2="919.75"/><line style="stroke:#181818;stroke-width:0.5;stroke-dasharray:5.0,5.0;" x1="546.5" x2="546.5" y1="82.6094" y2="919.75"/><line style="stroke:#181818;stroke-width:0.5;stroke-dasharray:5.0,5.0;" x1="761" x2="761" y1="82.6094" y2="919.75"/><line style="stroke:#181818;stroke-width:0.5;stroke-dasharray:5.0,5.0;" x1="923.5" x2="923.5" y1="82.6094" y2="919.75"/><line style="stroke:#181818;stroke-width:0.5;stroke-dasharray:5.0,5.0;" x1="1207" x2="1207" y1="82.6094" y2="919.75"/><text fill="#000000" font-family="sans-serif" font-size="14" lengthAdjust="spacing" textLength="87" x="5" y="79.5332">Administrador</text><ellipse cx="51.5" cy="13.5" fill="#E2E2F0" rx="8" ry="8" style="stroke:#181818;stroke-width:0.5;"/><path d="M51.5,21.5 L51.5,48.5 M38.5,29.5 L64.5,29.5 M51.5,48.5 L38.5,63.5 M51.5,48.5 L64.5,63.5 " fill="none" style="stroke:#181818;stroke-width:0.5;"/><text fill="#000000" font-family="sans-serif" font-size="14" lengthAdjust="spacing" textLength="87" x="5" y="933.2832">Administrador</text><ellipse cx="51.5" cy="944.8594" fill="#E2E2F0" rx="8" ry="8" style="stroke:#181818;stroke-width:0.5;"/><path d="M51.5,952.8594 L51.5,979.8594 M38.5,960.8594 L64.5,960.8594 M51.5,979.8594 L38.5,994.8594 M51.5,979.8594 L64.5,994.8594 " fill="none" style="stroke:#181818;stroke-width:0.5;"/><rect fill="#E2E2F0" height="66.8281" rx="2.5" ry="2.5" style="stroke:#181818;stroke-width:0.5;" width="117" x="167" y="14.7813"/><text fill="#000000" font-family="sans-serif" font-size="14" font-style="italic" lengthAdjust="spacing" textLength="89" x="181" y="36.3145">&#171;Component&#187;</text><text fill="#000000" font-family="sans-serif" font-size="14" lengthAdjust="spacing" textLength="103" x="174" y="53.9238">ExamenEditView</text><text fill="#000000" font-family="sans-serif" font-size="14" lengthAdjust="spacing" textLength="47" x="202" y="71.5332">(React)</text><rect fill="#E2E2F0" height="66.8281" rx="2.5" ry="2.5" style="stroke:#181818;stroke-width:0.5;" width="117" x="167" y="918.75"/><text fill="#000000" font-family="sans-serif" font-size="14" font-style="italic" lengthAdjust="spacing" textLength="89" x="181" y="940.2832">&#171;Component&#187;</text><text fill="#000000" font-family="sans-serif" font-size="14" lengthAdjust="spacing" textLength="103" x="174" y="957.8926">ExamenEditView</text><text fill="#000000" font-family="sans-serif" font-size="14" lengthAdjust="spacing" textLength="47" x="202" y="975.502">(React)</text><rect fill="#E2E2F0" height="66.8281" rx="2.5" ry="2.5" style="stroke:#181818;stroke-width:0.5;" width="144" x="312.5" y="14.7813"/><text fill="#000000" font-family="sans-serif" font-size="14" font-style="italic" lengthAdjust="spacing" textLength="50" x="359.5" y="36.3145">&#171;Hook&#187;</text><text fill="#000000" font-family="sans-serif" font-size="14" lengthAdjust="spacing" textLength="130" x="319.5" y="53.9238">useExamenEditForm</text><text fill="#000000" font-family="sans-serif" font-size="14" lengthAdjust="spacing" textLength="42" x="363.5" y="71.5332">(Hook)</text><rect fill="#E2E2F0" height="66.8281" rx="2.5" ry="2.5" style="stroke:#181818;stroke-width:0.5;" width="144" x="312.5" y="918.75"/><text fill="#000000" font-family="sans-serif" font-size="14" font-style="italic" lengthAdjust="spacing" textLength="50" x="359.5" y="940.2832">&#171;Hook&#187;</text><text fill="#000000" font-family="sans-serif" font-size="14" lengthAdjust="spacing" textLength="130" x="319.5" y="957.8926">useExamenEditForm</text><text fill="#000000" font-family="sans-serif" font-size="14" lengthAdjust="spacing" textLength="42" x="363.5" y="975.502">(Hook)</text><rect fill="#E2E2F0" height="66.8281" rx="2.5" ry="2.5" style="stroke:#181818;stroke-width:0.5;" width="126" x="483.5" y="14.7813"/><text fill="#000000" font-family="sans-serif" font-size="14" font-style="italic" lengthAdjust="spacing" textLength="62" x="515.5" y="36.3145">&#171;Service&#187;</text><text fill="#000000" font-family="sans-serif" font-size="14" lengthAdjust="spacing" textLength="112" x="490.5" y="53.9238">ExamenesService</text><text fill="#000000" font-family="sans-serif" font-size="14" lengthAdjust="spacing" textLength="43" x="525" y="71.5332">(Axios)</text><rect fill="#E2E2F0" height="66.8281" rx="2.5" ry="2.5" style="stroke:#181818;stroke-width:0.5;" width="126" x="483.5" y="918.75"/><text fill="#000000" font-family="sans-serif" font-size="14" font-style="italic" lengthAdjust="spacing" textLength="62" x="515.5" y="940.2832">&#171;Service&#187;</text><text fill="#000000" font-family="sans-serif" font-size="14" lengthAdjust="spacing" textLength="112" x="490.5" y="957.8926">ExamenesService</text><text fill="#000000" font-family="sans-serif" font-size="14" lengthAdjust="spacing" textLength="43" x="525" y="975.502">(Axios)</text><rect fill="#E2E2F0" height="66.8281" rx="2.5" ry="2.5" style="stroke:#181818;stroke-width:0.5;" width="141" x="691" y="14.7813"/><text fill="#000000" font-family="sans-serif" font-size="14" font-style="italic" lengthAdjust="spacing" textLength="78" x="722.5" y="36.3145">&#171;Controller&#187;</text><text fill="#000000" font-family="sans-serif" font-size="14" lengthAdjust="spacing" textLength="127" x="698" y="53.9238">ExamenesController</text><text fill="#000000" font-family="sans-serif" font-size="14" lengthAdjust="spacing" textLength="53" x="735" y="71.5332">(NestJS)</text><rect fill="#E2E2F0" height="66.8281" rx="2.5" ry="2.5" style="stroke:#181818;stroke-width:0.5;" width="141" x="691" y="918.75"/><text fill="#000000" font-family="sans-serif" font-size="14" font-style="italic" lengthAdjust="spacing" textLength="78" x="722.5" y="940.2832">&#171;Controller&#187;</text><text fill="#000000" font-family="sans-serif" font-size="14" lengthAdjust="spacing" textLength="127" x="698" y="957.8926">ExamenesController</text><text fill="#000000" font-family="sans-serif" font-size="14" lengthAdjust="spacing" textLength="53" x="735" y="975.502">(NestJS)</text><rect fill="#E2E2F0" height="66.8281" rx="2.5" ry="2.5" style="stroke:#181818;stroke-width:0.5;" width="126" x="860.5" y="14.7813"/><text fill="#000000" font-family="sans-serif" font-size="14" font-style="italic" lengthAdjust="spacing" textLength="62" x="892.5" y="36.3145">&#171;Service&#187;</text><text fill="#000000" font-family="sans-serif" font-size="14" lengthAdjust="spacing" textLength="112" x="867.5" y="53.9238">ExamenesService</text><text fill="#000000" font-family="sans-serif" font-size="14" lengthAdjust="spacing" textLength="53" x="897" y="71.5332">(NestJS)</text><rect fill="#E2E2F0" height="66.8281" rx="2.5" ry="2.5" style="stroke:#181818;stroke-width:0.5;" width="126" x="860.5" y="918.75"/><text fill="#000000" font-family="sans-serif" font-size="14" font-style="italic" lengthAdjust="spacing" textLength="62" x="892.5" y="940.2832">&#171;Service&#187;</text><text fill="#000000" font-family="sans-serif" font-size="14" lengthAdjust="spacing" textLength="112" x="867.5" y="957.8926">ExamenesService</text><text fill="#000000" font-family="sans-serif" font-size="14" lengthAdjust="spacing" textLength="53" x="897" y="975.502">(NestJS)</text><text fill="#000000" font-family="sans-serif" font-size="14" lengthAdjust="spacing" textLength="77" x="1166" y="79.5332">PostgreSQL</text><path d="M1189.5,29 C1189.5,19 1207.5,19 1207.5,19 C1207.5,19 1225.5,19 1225.5,29 L1225.5,55 C1225.5,65 1207.5,65 1207.5,65 C1207.5,65 1189.5,65 1189.5,55 L1189.5,29 " fill="#E2E2F0" style="stroke:#181818;stroke-width:1.5;"/><path d="M1189.5,29 C1189.5,39 1207.5,39 1207.5,39 C1207.5,39 1225.5,39 1225.5,29 " fill="none" style="stroke:#181818;stroke-width:1.5;"/><text fill="#000000" font-family="sans-serif" font-size="14" lengthAdjust="spacing" textLength="77" x="1166" y="933.2832">PostgreSQL</text><path d="M1189.5,946.3594 C1189.5,936.3594 1207.5,936.3594 1207.5,936.3594 C1207.5,936.3594 1225.5,936.3594 1225.5,946.3594 L1225.5,972.3594 C1225.5,982.3594 1207.5,982.3594 1207.5,982.3594 C1207.5,982.3594 1189.5,982.3594 1189.5,972.3594 L1189.5,946.3594 " fill="#E2E2F0" style="stroke:#181818;stroke-width:1.5;"/><path d="M1189.5,946.3594 C1189.5,956.3594 1207.5,956.3594 1207.5,956.3594 C1207.5,956.3594 1225.5,956.3594 1225.5,946.3594 " fill="none" style="stroke:#181818;stroke-width:1.5;"/><rect fill="#EEEEEE" height="3" style="stroke:#EEEEEE;stroke-width:1.0;" width="1254" x="0" y="113.7852"/><line style="stroke:#000000;stroke-width:1.0;" x1="0" x2="1254" y1="113.7852" y2="113.7852"/><line style="stroke:#000000;stroke-width:1.0;" x1="0" x2="1254" y1="116.7852" y2="116.7852"/><rect fill="#EEEEEE" height="24.3516" style="stroke:#000000;stroke-width:2.0;" width="115" x="569.5" y="102.6094"/><text fill="#000000" font-family="sans-serif" font-size="13" font-weight="bold" lengthAdjust="spacing" textLength="97" x="575.5" y="120.1045">Carga de Datos</text><polygon fill="#181818" points="213.5,155.3125,223.5,159.3125,213.5,163.3125,217.5,159.3125" style="stroke:#181818;stroke-width:1.0;"/><line style="stroke:#181818;stroke-width:1.0;" x1="51.5" x2="219.5" y1="159.3125" y2="159.3125"/><text fill="#000000" font-family="sans-serif" font-size="13" lengthAdjust="spacing" textLength="141" x="58.5" y="154.4561">Accede a editar examen</text><polygon fill="#181818" points="372.5,185.6641,382.5,189.6641,372.5,193.6641,376.5,189.6641" style="stroke:#181818;stroke-width:1.0;"/><line style="stroke:#181818;stroke-width:1.0;" x1="225.5" x2="378.5" y1="189.6641" y2="189.6641"/><text fill="#000000" font-family="sans-serif" font-size="13" lengthAdjust="spacing" textLength="90" x="232.5" y="184.8076">loadExamen(id)</text><polygon fill="#181818" points="534.5,216.0156,544.5,220.0156,534.5,224.0156,538.5,220.0156" style="stroke:#181818;stroke-width:1.0;"/><line style="stroke:#181818;stroke-width:1.0;" x1="384.5" x2="540.5" y1="220.0156" y2="220.0156"/><text fill="#000000" font-family="sans-serif" font-size="13" lengthAdjust="spacing" textLength="110" x="391.5" y="215.1592">getExamenById(id)</text><polygon fill="#181818" points="749.5,246.3672,759.5,250.3672,749.5,254.3672,753.5,250.3672" style="stroke:#181818;stroke-width:1.0;"/><line style="stroke:#181818;stroke-width:1.0;" x1="546.5" x2="755.5" y1="250.3672" y2="250.3672"/><text fill="#000000" font-family="sans-serif" font-size="13" lengthAdjust="spacing" textLength="112" x="553.5" y="245.5107">GET /examenes/:id</text><polygon fill="#181818" points="911.5,276.7188,921.5,280.7188,911.5,284.7188,915.5,280.7188" style="stroke:#181818;stroke-width:1.0;"/><line style="stroke:#181818;stroke-width:1.0;" x1="761.5" x2="917.5" y1="280.7188" y2="280.7188"/><text fill="#000000" font-family="sans-serif" font-size="13" lengthAdjust="spacing" textLength="62" x="768.5" y="275.8623">findOne(id)</text><polygon fill="#181818" points="1195.5,307.0703,1205.5,311.0703,1195.5,315.0703,1199.5,311.0703" style="stroke:#181818;stroke-width:1.0;"/><line style="stroke:#181818;stroke-width:1.0;" x1="923.5" x2="1201.5" y1="311.0703" y2="311.0703"/><text fill="#000000" font-family="sans-serif" font-size="13" lengthAdjust="spacing" textLength="260" x="930.5" y="306.2139">SELECT * FROM "Examen" WHERE id = :id</text><polygon fill="#181818" points="934.5,337.4219,924.5,341.4219,934.5,345.4219,930.5,341.4219" style="stroke:#181818;stroke-width:1.0;"/><line style="stroke:#181818;stroke-width:1.0;stroke-dasharray:2.0,2.0;" x1="928.5" x2="1206.5" y1="341.4219" y2="341.4219"/><text fill="#000000" font-family="sans-serif" font-size="13" lengthAdjust="spacing" textLength="79" x="940.5" y="336.5654">Examen Data</text><polygon fill="#181818" points="772.5,367.7734,762.5,371.7734,772.5,375.7734,768.5,371.7734" style="stroke:#181818;stroke-width:1.0;"/><line style="stroke:#181818;stroke-width:1.0;stroke-dasharray:2.0,2.0;" x1="766.5" x2="922.5" y1="371.7734" y2="371.7734"/><text fill="#000000" font-family="sans-serif" font-size="13" lengthAdjust="spacing" textLength="86" x="778.5" y="366.917">Examen Entity</text><polygon fill="#181818" points="557.5,398.125,547.5,402.125,557.5,406.125,553.5,402.125" style="stroke:#181818;stroke-width:1.0;"/><line style="stroke:#181818;stroke-width:1.0;stroke-dasharray:2.0,2.0;" x1="551.5" x2="760.5" y1="402.125" y2="402.125"/><text fill="#000000" font-family="sans-serif" font-size="13" lengthAdjust="spacing" textLength="96" x="563.5" y="397.2686">JSON Response</text><polygon fill="#181818" points="395.5,428.4766,385.5,432.4766,395.5,436.4766,391.5,432.4766" style="stroke:#181818;stroke-width:1.0;"/><line style="stroke:#181818;stroke-width:1.0;stroke-dasharray:2.0,2.0;" x1="389.5" x2="545.5" y1="432.4766" y2="432.4766"/><text fill="#000000" font-family="sans-serif" font-size="13" lengthAdjust="spacing" textLength="90" x="401.5" y="427.6201">Examen Object</text><polygon fill="#181818" points="236.5,458.8281,226.5,462.8281,236.5,466.8281,232.5,462.8281" style="stroke:#181818;stroke-width:1.0;"/><line style="stroke:#181818;stroke-width:1.0;stroke-dasharray:2.0,2.0;" x1="230.5" x2="383.5" y1="462.8281" y2="462.8281"/><text fill="#000000" font-family="sans-serif" font-size="13" lengthAdjust="spacing" textLength="103" x="242.5" y="457.9717">Rellena formulario</text><rect fill="#EEEEEE" height="3" style="stroke:#EEEEEE;stroke-width:1.0;" width="1254" x="0" y="492.0039"/><line style="stroke:#000000;stroke-width:1.0;" x1="0" x2="1254" y1="492.0039" y2="492.0039"/><line style="stroke:#000000;stroke-width:1.0;" x1="0" x2="1254" y1="495.0039" y2="495.0039"/><rect fill="#EEEEEE" height="24.3516" style="stroke:#000000;stroke-width:2.0;" width="65" x="594.5" y="480.8281"/><text fill="#000000" font-family="sans-serif" font-size="13" font-weight="bold" lengthAdjust="spacing" textLength="47" x="600.5" y="498.3232">Edici&#243;n</text><polygon fill="#181818" points="213.5,533.5313,223.5,537.5313,213.5,541.5313,217.5,537.5313" style="stroke:#181818;stroke-width:1.0;"/><line style="stroke:#181818;stroke-width:1.0;" x1="51.5" x2="219.5" y1="537.5313" y2="537.5313"/><text fill="#000000" font-family="sans-serif" font-size="13" lengthAdjust="spacing" textLength="98" x="58.5" y="532.6748">Modifica campos</text><polygon fill="#181818" points="213.5,563.8828,223.5,567.8828,213.5,571.8828,217.5,567.8828" style="stroke:#181818;stroke-width:1.0;"/><line style="stroke:#181818;stroke-width:1.0;" x1="51.5" x2="219.5" y1="567.8828" y2="567.8828"/><text fill="#000000" font-family="sans-serif" font-size="13" lengthAdjust="spacing" textLength="107" x="58.5" y="563.0264">Click en "Guardar"</text><polygon fill="#181818" points="372.5,594.2344,382.5,598.2344,372.5,602.2344,376.5,598.2344" style="stroke:#181818;stroke-width:1.0;"/><line style="stroke:#181818;stroke-width:1.0;" x1="225.5" x2="378.5" y1="598.2344" y2="598.2344"/><text fill="#000000" font-family="sans-serif" font-size="13" lengthAdjust="spacing" textLength="90" x="232.5" y="593.3779">update(id, data)</text><polygon fill="#181818" points="534.5,624.5859,544.5,628.5859,534.5,632.5859,538.5,628.5859" style="stroke:#181818;stroke-width:1.0;"/><line style="stroke:#181818;stroke-width:1.0;" x1="384.5" x2="540.5" y1="628.5859" y2="628.5859"/><text fill="#000000" font-family="sans-serif" font-size="13" lengthAdjust="spacing" textLength="138" x="391.5" y="623.7295">updateExamen(id, data)</text><polygon fill="#181818" points="749.5,654.9375,759.5,658.9375,749.5,662.9375,753.5,658.9375" style="stroke:#181818;stroke-width:1.0;"/><line style="stroke:#181818;stroke-width:1.0;" x1="546.5" x2="755.5" y1="658.9375" y2="658.9375"/><text fill="#000000" font-family="sans-serif" font-size="13" lengthAdjust="spacing" textLength="191" x="553.5" y="654.0811">PUT /examenes/:id (JSON Body)</text><polygon fill="#181818" points="911.5,685.2891,921.5,689.2891,911.5,693.2891,915.5,689.2891" style="stroke:#181818;stroke-width:1.0;"/><line style="stroke:#181818;stroke-width:1.0;" x1="761.5" x2="917.5" y1="689.2891" y2="689.2891"/><text fill="#000000" font-family="sans-serif" font-size="13" lengthAdjust="spacing" textLength="83" x="768.5" y="684.4326">update(id, dto)</text><polygon fill="#181818" points="1195.5,715.6406,1205.5,719.6406,1195.5,723.6406,1199.5,719.6406" style="stroke:#181818;stroke-width:1.0;"/><line style="stroke:#181818;stroke-width:1.0;" x1="923.5" x2="1201.5" y1="719.6406" y2="719.6406"/><text fill="#000000" font-family="sans-serif" font-size="13" lengthAdjust="spacing" textLength="256" x="930.5" y="714.7842">UPDATE "Examen" SET ... WHERE id = :id</text><polygon fill="#181818" points="934.5,745.9922,924.5,749.9922,934.5,753.9922,930.5,749.9922" style="stroke:#181818;stroke-width:1.0;"/><line style="stroke:#181818;stroke-width:1.0;stroke-dasharray:2.0,2.0;" x1="928.5" x2="1206.5" y1="749.9922" y2="749.9922"/><text fill="#000000" font-family="sans-serif" font-size="13" lengthAdjust="spacing" textLength="118" x="940.5" y="745.1357">Examen actualizado</text><polygon fill="#181818" points="772.5,776.3438,762.5,780.3438,772.5,784.3438,768.5,780.3438" style="stroke:#181818;stroke-width:1.0;"/><line style="stroke:#181818;stroke-width:1.0;stroke-dasharray:2.0,2.0;" x1="766.5" x2="922.5" y1="780.3438" y2="780.3438"/><text fill="#000000" font-family="sans-serif" font-size="13" lengthAdjust="spacing" textLength="138" x="778.5" y="775.4873">Updated Examen Entity</text><polygon fill="#181818" points="557.5,806.6953,547.5,810.6953,557.5,814.6953,553.5,810.6953" style="stroke:#181818;stroke-width:1.0;"/><line style="stroke:#181818;stroke-width:1.0;stroke-dasharray:2.0,2.0;" x1="551.5" x2="760.5" y1="810.6953" y2="810.6953"/><text fill="#000000" font-family="sans-serif" font-size="13" lengthAdjust="spacing" textLength="152" x="563.5" y="805.8389">JSON Response (200 OK)</text><polygon fill="#181818" points="395.5,837.0469,385.5,841.0469,395.5,845.0469,391.5,841.0469" style="stroke:#181818;stroke-width:1.0;"/><line style="stroke:#181818;stroke-width:1.0;stroke-dasharray:2.0,2.0;" x1="389.5" x2="545.5" y1="841.0469" y2="841.0469"/><text fill="#000000" font-family="sans-serif" font-size="13" lengthAdjust="spacing" textLength="51" x="401.5" y="836.1904">Success</text><polygon fill="#181818" points="236.5,867.3984,226.5,871.3984,236.5,875.3984,232.5,871.3984" style="stroke:#181818;stroke-width:1.0;"/><line style="stroke:#181818;stroke-width:1.0;stroke-dasharray:2.0,2.0;" x1="230.5" x2="383.5" y1="871.3984" y2="871.3984"/><text fill="#000000" font-family="sans-serif" font-size="13" lengthAdjust="spacing" textLength="135" x="242.5" y="866.542">Redirigir / Mostrar &#233;xito</text><polygon fill="#181818" points="62.5,897.75,52.5,901.75,62.5,905.75,58.5,901.75" style="stroke:#181818;stroke-width:1.0;"/><line style="stroke:#181818;stroke-width:1.0;stroke-dasharray:2.0,2.0;" x1="56.5" x2="224.5" y1="901.75" y2="901.75"/><text fill="#000000" font-family="sans-serif" font-size="13" lengthAdjust="spacing" textLength="150" x="68.5" y="896.8936">Muestra mensaje de &#233;xito</text><!--SRC=[dLJBSjf04BphAwOuGIh6hXmfuoe4me_Ona4ckUGorWvaRB5BxQvYEt-KSpx1FvRH0v0SS58v8McwcrRthDm3wnLQN8BxXieyibx075D7GO29DnO6QicQdRSojO50FIUyGksX5JtXadIas7zcUlogsrCIJgS5w61s3iV7GxDS6KtQdvmqcPcZBNbix5B8PyOybDpyIjZvpsjYoI8Na_tE2GbjyCJ6bRnnzLIurTK- -j1eRqsQaXM5QtB-8YubjeF2_lhcxpRg8k4k7meztg4ZQDqOvnUMua-N1NeK1a6_3qEq2mH5C49l7FJxGT287WvEyb1xC4WI4XW2INPeWGelWSm4KKJNWzIWAZssMNM2ugbCDm7rO46-18JFvwe0ROO2hCNGWzFe5WwfUkF37gkWDXPmk5MTirOJJOLUMDCRXJACeyjeU0llO3oTNAqpRC6NisWQ0IleGwujq8EcQ0dCSy6Qw6kN5IhIdlrpms7pnI_YoJLCoSbYofAFwtfLU9NIvEwU4bzbjmv_IgAf4UQoircAbarHdgnnmY-_z1krNHd5SquG4fH3uVQWXYad3o3_tZhDq2gqhMQnsKhsAC_tFUGBjRFQ4hEfVutSs-_Dx5M_q2v22erwxkplkcx5cnrzpsv6WzjeMtGiUzJjTl-vSFcMP9Zo3mdeZTvdXGtrV_r3-yFH4Km-TdOkGfp9KNFkZnLGR7d15WwbrBn02oy_dzYReYg1DQkLwZFARq3yERod_91NXDy0]--></g></svg>