<?xml version="1.0" encoding="us-ascii" standalone="no"?><svg xmlns="http://www.w3.org/2000/svg" xmlns:xlink="http://www.w3.org/1999/xlink" contentStyleType="text/css" height="335px" preserveAspectRatio="none" style="width:1275px;height:335px;background:#FFFFFF;" version="1.1" viewBox="0 0 1275 335" width="1275px" zoomAndPan="magnify"><defs/><g><!--cluster editarProfesor--><g id="cluster_editarProfesor"><path d="M8.5,6 L121.5,6 A3.75,3.75 0 0 1 124,8.5 L131,29.6094 L670.5,29.6094 A2.5,2.5 0 0 1 673,32.1094 L673,325.5 A2.5,2.5 0 0 1 670.5,328 L8.5,328 A2.5,2.5 0 0 1 6,325.5 L6,8.5 A2.5,2.5 0 0 1 8.5,6 " fill="none" style="stroke:#000000;stroke-width:1.5;"/><line style="stroke:#000000;stroke-width:1.5;" x1="6" x2="131" y1="29.6094" y2="29.6094"/><text fill="#000000" font-family="sans-serif" font-size="14" font-weight="bold" lengthAdjust="spacing" textLength="112" x="10" y="22.5332">editarProfesor()</text></g><!--entity EditarProfesorView--><g id="elem_EditarProfesorView"><rect fill="#629EF9" height="37.6094" rx="2.5" ry="2.5" style="stroke:#181818;stroke-width:0.5;" width="140" x="513" y="42"/><text fill="#000000" font-family="sans-serif" font-size="14" lengthAdjust="spacing" textLength="120" x="523" y="66.5332">EditarProfesorView</text></g><!--entity ProfesorController--><g id="elem_ProfesorController"><rect fill="#B5BD68" height="37.6094" rx="2.5" ry="2.5" style="stroke:#181818;stroke-width:0.5;" width="136" x="200" y="158"/><text fill="#000000" font-family="sans-serif" font-size="14" lengthAdjust="spacing" textLength="116" x="210" y="182.5332">ProfesorController</text></g><!--entity ProfesorRepository--><g id="elem_ProfesorRepository"><rect fill="#F2AC4E" height="37.6094" rx="2.5" ry="2.5" style="stroke:#181818;stroke-width:0.5;" width="142" x="161" y="274"/><text fill="#000000" font-family="sans-serif" font-size="14" lengthAdjust="spacing" textLength="122" x="171" y="298.5332">ProfesorRepository</text></g><!--entity Profesor--><g id="elem_Profesor"><rect fill="#F2AC4E" height="37.6094" rx="2.5" ry="2.5" style="stroke:#181818;stroke-width:0.5;" width="74" x="565" y="274"/><text fill="#000000" font-family="sans-serif" font-size="14" lengthAdjust="spacing" textLength="54" x="575" y="298.5332">Profesor</text></g><!--entity ProfesoresAbierto--><g id="elem_ProfesoresAbierto"><rect fill="#CDEBA5" height="37.6094" rx="2.5" ry="2.5" style="stroke:#181818;stroke-width:0.5;" width="142" x="695" y="158"/><text fill="#000000" font-family="sans-serif" font-size="14" lengthAdjust="spacing" textLength="122" x="705" y="182.5332">:Profesores Abierto</text></g><!--entity ProfesorAbierto--><g id="elem_ProfesorAbierto"><rect fill="#CDEBA5" height="37.6094" rx="2.5" ry="2.5" style="stroke:#181818;stroke-width:0.5;" width="127" x="1006.5" y="158"/><text fill="#000000" font-family="sans-serif" font-size="14" lengthAdjust="spacing" textLength="107" x="1016.5" y="182.5332">:Profesor Abierto</text></g><!--link ProfesoresAbierto to EditarProfesorView--><g id="link_ProfesoresAbierto_EditarProfesorView"><path d="M695.09,157.99 C641.46,144.37 577,128 577,128 C577,128 577,110 577,110 C577,110 578.2853,99.6936 579.9853,86.1036 " fill="none" id="ProfesoresAbierto-to-EditarProfesorView" style="stroke:#181818;stroke-width:1.0;"/><polygon fill="#181818" points="580.73,80.15,575.6438,88.5839,580.1094,85.1113,583.5819,89.5769,580.73,80.15" style="stroke:#181818;stroke-width:1.0;"/><text fill="#000000" font-family="sans-serif" font-size="13" lengthAdjust="spacing" textLength="144" x="578" y="124.4951">editarProfesor(profesorId)</text></g><!--link EditarProfesorView to ProfesoresAbierto--><g id="link_EditarProfesorView_ProfesoresAbierto"><path d="M637.03,80.01 C677.89,93.63 727,110 727,110 C727,110 740.75,133.253 752.29,152.803 " fill="none" id="EditarProfesorView-to-ProfesoresAbierto" style="stroke:#181818;stroke-width:1.0;stroke-dasharray:7.0,7.0;"/><polygon fill="#181818" points="755.34,157.97,754.2097,148.1862,752.7984,153.6642,747.3204,152.2528,755.34,157.97" style="stroke:#181818;stroke-width:1.0;"/><text fill="#000000" font-family="sans-serif" font-size="13" lengthAdjust="spacing" textLength="157" x="739" y="124.4951">&#171;finalizar&#187; abrirProfesores()</text></g><!--link EditarProfesorView to ProfesoresAbierto--><g id="link_EditarProfesorView_ProfesoresAbierto"><path d="M653.27,72.47 C748.01,86.6 905,110 905,110 C905,110 905,128 905,128 C905,128 863.2715,142.4119 823.8215,156.0319 " fill="none" id="EditarProfesorView-to-ProfesoresAbierto-1" style="stroke:#181818;stroke-width:1.0;stroke-dasharray:7.0,7.0;"/><polygon fill="#181818" points="818.15,157.99,827.9626,158.8339,822.8763,156.3583,825.3519,151.2719,818.15,157.99" style="stroke:#181818;stroke-width:1.0;"/><text fill="#000000" font-family="sans-serif" font-size="13" lengthAdjust="spacing" textLength="63" x="906" y="124.4951">&#171;cancelar&#187;</text></g><!--link EditarProfesorView to ProfesorController--><g id="link_EditarProfesorView_ProfesorController"><path d="M512.91,69.08 C380.78,82.43 108,110 108,110 C108,110 108,128 108,128 C108,128 156.823,142.6459 202.223,156.2659 " fill="none" id="EditarProfesorView-to-ProfesorController" style="stroke:#181818;stroke-width:1.0;"/><polygon fill="#181818" points="207.97,157.99,200.499,151.5726,203.1809,156.5533,198.2002,159.2352,207.97,157.99" style="stroke:#181818;stroke-width:1.0;"/><text fill="#000000" font-family="sans-serif" font-size="13" lengthAdjust="spacing" textLength="152" x="109" y="124.4951">solicitarEdicion(profesorId)</text></g><!--link EditarProfesorView to ProfesorController--><g id="link_EditarProfesorView_ProfesorController"><path d="M512.98,75.5 C439.33,89.7 334,110 334,110 C334,110 309.8226,134.1774 290.2726,153.7274 " fill="none" id="EditarProfesorView-to-ProfesorController-1" style="stroke:#181818;stroke-width:1.0;"/><polygon fill="#181818" points="286.03,157.97,295.2224,154.4345,289.5655,154.4345,289.5655,148.7776,286.03,157.97" style="stroke:#181818;stroke-width:1.0;"/><text fill="#000000" font-family="sans-serif" font-size="13" lengthAdjust="spacing" textLength="233" x="335" y="124.4951">actualizar(nombre, email, departamento)</text></g><!--link ProfesorController to ProfesorRepository--><g id="link_ProfesorController_ProfesorRepository"><path d="M200,193.25 C137.33,207.31 54,226 54,226 C54,226 54,244 54,244 C54,244 108.9069,258.8079 159.4169,272.4279 " fill="none" id="ProfesorController-to-ProfesorRepository" style="stroke:#181818;stroke-width:1.0;"/><polygon fill="#181818" points="165.21,273.99,157.5618,267.7848,160.3824,272.6882,155.479,275.5089,165.21,273.99" style="stroke:#181818;stroke-width:1.0;"/><text fill="#000000" font-family="sans-serif" font-size="13" lengthAdjust="spacing" textLength="133" x="55" y="240.4951">buscarPorId(profesorId)</text></g><!--link ProfesorController to ProfesorRepository--><g id="link_ProfesorController_ProfesorRepository"><path d="M253.26,196.15 C242.21,209.74 229,226 229,226 C229,226 229,244 229,244 C229,244 229.6455,254.2717 230.4955,267.8617 " fill="none" id="ProfesorController-to-ProfesorRepository-1" style="stroke:#181818;stroke-width:1.0;"/><polygon fill="#181818" points="230.87,273.85,234.3004,264.6179,230.5579,268.8598,226.316,265.1172,230.87,273.85" style="stroke:#181818;stroke-width:1.0;"/><text fill="#000000" font-family="sans-serif" font-size="13" lengthAdjust="spacing" textLength="176" x="230" y="240.4951">existeCorreo(correo) : Boolean</text></g><!--link ProfesorController to ProfesorRepository--><g id="link_ProfesorController_ProfesorRepository"><path d="M321.65,196.01 C362.23,209.63 411,226 411,226 C411,226 411,244 411,244 C411,244 355.7452,258.8159 304.9552,272.4359 " fill="none" id="ProfesorController-to-ProfesorRepository-2" style="stroke:#181818;stroke-width:1.0;"/><polygon fill="#181818" points="299.16,273.99,308.8889,275.5224,303.9894,272.6949,306.8168,267.7954,299.16,273.99" style="stroke:#181818;stroke-width:1.0;"/><text fill="#000000" font-family="sans-serif" font-size="13" lengthAdjust="spacing" textLength="110" x="412" y="240.4951">actualizar(profesor)</text></g><!--link ProfesorAbierto to ProfesorAbierto--><g id="link_ProfesorAbierto_ProfesorAbierto"><path d="M1133.95,166.14 C1153.34,166.41 1168.5,170.03 1168.5,177 C1168.5,183.97 1159.3394,187.5065 1139.9494,187.7765 " fill="none" id="ProfesorAbierto-to-ProfesorAbierto" style="stroke:#181818;stroke-width:1.0;"/><polygon fill="#181818" points="1133.95,187.86,1143.0048,191.7343,1138.9495,187.7904,1142.8934,183.7351,1133.95,187.86" style="stroke:#181818;stroke-width:1.0;"/><text fill="#000000" font-family="sans-serif" font-size="13" lengthAdjust="spacing" textLength="88" x="1174.5" y="182.4951">editarProfesor()</text></g><!--link ProfesorController to Profesor--><g id="link_ProfesorController_Profesor"><path d="M336.07,190.42 C414,204.65 531,226 531,226 C531,226 557.1865,250.3338 578.2065,269.8838 " fill="none" id="ProfesorController-to-Profesor" style="stroke:#181818;stroke-width:1.0;"/><polygon fill="#181818" points="582.6,273.97,578.7339,264.9117,578.9388,270.5648,573.2856,270.7696,582.6,273.97" style="stroke:#181818;stroke-width:1.0;"/><text fill="#000000" font-family="sans-serif" font-size="13" lengthAdjust="spacing" textLength="53" x="552" y="240.4951">&#171;update&#187;</text></g><!--link EditarProfesorView to ProfesorAbierto--><g id="link_EditarProfesorView_ProfesorAbierto"><path d="M653.16,70.53 C766.67,84.32 978,110 978,110 C978,110 1012.7455,134.9216 1039.9855,154.4716 " fill="none" id="EditarProfesorView-to-ProfesorAbierto" style="stroke:#181818;stroke-width:1.0;stroke-dasharray:7.0,7.0;"/><polygon fill="#181818" points="1044.86,157.97,1039.8805,149.4727,1040.7979,155.0546,1035.2159,155.9721,1044.86,157.97" style="stroke:#181818;stroke-width:1.0;"/><text fill="#000000" font-family="sans-serif" font-size="13" lengthAdjust="spacing" textLength="46" x="1003" y="124.4951">&#171;editar&#187;</text></g><!--SRC=[bP9FRu904CNl-oacz0A9UZ3LL4D8b6BIMzD3xyiocetB3bdMjBRfT-_YFmH9BLnW9-_tvismvLRgWXkUWv8QxRv0A4ZjgmDZ1eNbUgCG7kBdPBcOW3T_DRJ6aWoMi4Wb6aiUy1Bgygdw9zo9da5MSB7b6mJCfENcmZYfropvWGVVZ85xhhfDnxDaDOEa8NsN-D4MffCqcpvT-iUahI6bqBI5g_4YVamkmZSig9IMpFwEaFqmThCO60wZZd0mRyth5wUFbonW7VhAvZQwiob9IL797IGawOPH1t5jL8_cZD9TALpJ2cnuiDOVQpYSQpVZEAxF55pO7LVoYnjVKvuQ703cNAe1PEWkhEKvQalz1i9FMLgCoHWaNnnUWIilYHHotSlgAjvvDNUpE2mCTqN6BKPHvpP6ewv5Xk5nbV-0wbjMOMkfZncZ27XgfAbbVj3FId0jK1qo_080]--></g></svg>