<?xml version="1.0" encoding="us-ascii" standalone="no"?><svg xmlns="http://www.w3.org/2000/svg" xmlns:xlink="http://www.w3.org/1999/xlink" contentStyleType="text/css" height="451px" preserveAspectRatio="none" style="width:688px;height:451px;background:#FFFFFF;" version="1.1" viewBox="0 0 688 451" width="688px" zoomAndPan="magnify"><defs/><g><!--cluster eliminarAula--><g id="cluster_eliminarAula"><path d="M8.5,6 L105.5,6 A3.75,3.75 0 0 1 108,8.5 L115,29.6094 L395.5,29.6094 A2.5,2.5 0 0 1 398,32.1094 L398,441.5 A2.5,2.5 0 0 1 395.5,444 L8.5,444 A2.5,2.5 0 0 1 6,441.5 L6,8.5 A2.5,2.5 0 0 1 8.5,6 " fill="none" style="stroke:#000000;stroke-width:1.5;"/><line style="stroke:#000000;stroke-width:1.5;" x1="6" x2="115" y1="29.6094" y2="29.6094"/><text fill="#000000" font-family="sans-serif" font-size="14" font-weight="bold" lengthAdjust="spacing" textLength="96" x="10" y="22.5332">eliminarAula()</text></g><!--entity EliminarAulaView--><g id="elem_EliminarAulaView"><rect fill="#629EF9" height="37.6094" rx="2.5" ry="2.5" style="stroke:#181818;stroke-width:0.5;" width="127" x="254.5" y="42"/><text fill="#000000" font-family="sans-serif" font-size="14" lengthAdjust="spacing" textLength="107" x="264.5" y="66.5332">EliminarAulaView</text></g><!--entity AulaController--><g id="elem_AulaController"><rect fill="#B5BD68" height="37.6094" rx="2.5" ry="2.5" style="stroke:#181818;stroke-width:0.5;" width="110" x="112" y="158"/><text fill="#000000" font-family="sans-serif" font-size="14" lengthAdjust="spacing" textLength="90" x="122" y="182.5332">AulaController</text></g><!--entity AulaRepository--><g id="elem_AulaRepository"><rect fill="#F2AC4E" height="37.6094" rx="2.5" ry="2.5" style="stroke:#181818;stroke-width:0.5;" width="116" x="37" y="274"/><text fill="#000000" font-family="sans-serif" font-size="14" lengthAdjust="spacing" textLength="96" x="47" y="298.5332">AulaRepository</text></g><!--entity ExamenRepository--><g id="elem_ExamenRepository"><rect fill="#F2AC4E" height="37.6094" rx="2.5" ry="2.5" style="stroke:#181818;stroke-width:0.5;" width="138" x="188" y="274"/><text fill="#000000" font-family="sans-serif" font-size="14" lengthAdjust="spacing" textLength="118" x="198" y="298.5332">ExamenRepository</text></g><!--entity Aula--><g id="elem_Aula"><rect fill="#F2AC4E" height="37.6094" rx="2.5" ry="2.5" style="stroke:#181818;stroke-width:0.5;" width="48" x="71" y="390"/><text fill="#000000" font-family="sans-serif" font-size="14" lengthAdjust="spacing" textLength="28" x="81" y="414.5332">Aula</text></g><!--entity AulasAbierto--><g id="elem_AulasAbierto"><rect fill="#CDEBA5" height="37.6094" rx="2.5" ry="2.5" style="stroke:#181818;stroke-width:0.5;" width="108" x="523" y="158"/><text fill="#000000" font-family="sans-serif" font-size="14" lengthAdjust="spacing" textLength="88" x="533" y="182.5332">:Aulas Abierto</text></g><!--link AulasAbierto to EliminarAulaView--><g id="link_AulasAbierto_EliminarAulaView"><path d="M522.63,159.48 C476.92,145.6 419,128 419,128 C419,128 380.5218,102.8635 350.6218,83.3135 " fill="none" id="AulasAbierto-to-EliminarAulaView" style="stroke:#181818;stroke-width:1.0;"/><polygon fill="#181818" points="345.6,80.03,350.9437,88.3031,349.7848,82.7662,355.3217,81.6074,345.6,80.03" style="stroke:#181818;stroke-width:1.0;"/><text fill="#000000" font-family="sans-serif" font-size="13" lengthAdjust="spacing" textLength="113" x="420" y="124.4951">eliminarAula(aulaId)</text></g><!--link EliminarAulaView to AulasAbierto--><g id="link_EliminarAulaView_AulasAbierto"><path d="M381.63,75.88 C446.61,90.06 538,110 538,110 C538,110 551.75,133.253 563.29,152.803 " fill="none" id="EliminarAulaView-to-AulasAbierto" style="stroke:#181818;stroke-width:1.0;stroke-dasharray:7.0,7.0;"/><polygon fill="#181818" points="566.34,157.97,565.2097,148.1862,563.7984,153.6642,558.3204,152.2528,566.34,157.97" style="stroke:#181818;stroke-width:1.0;"/><text fill="#000000" font-family="sans-serif" font-size="13" lengthAdjust="spacing" textLength="58" x="549" y="124.4951">&#171;finalizar&#187;</text></g><!--link EliminarAulaView to AulasAbierto--><g id="link_EliminarAulaView_AulasAbierto"><path d="M381.56,72.24 C469.08,86.34 616,110 616,110 C616,110 616,128 616,128 C616,128 606.5752,139.6047 595.5252,153.1947 " fill="none" id="EliminarAulaView-to-AulasAbierto-1" style="stroke:#181818;stroke-width:1.0;stroke-dasharray:7.0,7.0;"/><polygon fill="#181818" points="591.74,157.85,600.5214,153.3905,594.8944,153.9706,594.3143,148.3435,591.74,157.85" style="stroke:#181818;stroke-width:1.0;"/><text fill="#000000" font-family="sans-serif" font-size="13" lengthAdjust="spacing" textLength="63" x="617" y="124.4951">&#171;cancelar&#187;</text></g><!--link EliminarAulaView to AulaController--><g id="link_EliminarAulaView_AulaController"><path d="M254.43,73.56 C176.31,87.76 54,110 54,110 C54,110 54,128 54,128 C54,128 87.0177,142.024 119.0777,155.644 " fill="none" id="EliminarAulaView-to-AulaController" style="stroke:#181818;stroke-width:1.0;"/><polygon fill="#181818" points="124.6,157.99,117.8805,150.7894,119.9981,156.035,114.7525,158.1525,124.6,157.99" style="stroke:#181818;stroke-width:1.0;"/><text fill="#000000" font-family="sans-serif" font-size="13" lengthAdjust="spacing" textLength="162" x="55" y="124.4951">confirmarEliminacion(aulaId)</text></g><!--link AulaController to EliminarAulaView--><g id="link_AulaController_EliminarAulaView"><path d="M191.06,157.83 C219.31,136.5 261.0921,104.966 289.2821,83.676 " fill="none" id="AulaController-to-EliminarAulaView" style="stroke:#181818;stroke-width:1.0;"/><polygon fill="#181818" points="294.07,80.06,284.4774,82.2921,290.08,83.0733,289.2988,88.676,294.07,80.06" style="stroke:#181818;stroke-width:1.0;"/><text fill="#000000" font-family="sans-serif" font-size="13" lengthAdjust="spacing" textLength="119" x="253" y="124.4951">mostrarAdvertencia()</text></g><!--link AulaController to ExamenRepository--><g id="link_AulaController_ExamenRepository"><path d="M182.88,196.15 C194.77,209.74 209,226 209,226 C209,226 226.1423,249.5666 240.3523,269.1166 " fill="none" id="AulaController-to-ExamenRepository" style="stroke:#181818;stroke-width:1.0;"/><polygon fill="#181818" points="243.88,273.97,241.824,264.3381,240.9402,269.9255,235.3529,269.0417,243.88,273.97" style="stroke:#181818;stroke-width:1.0;"/><text fill="#000000" font-family="sans-serif" font-size="13" lengthAdjust="spacing" textLength="124" x="223" y="240.4951">contarPorAula(aulaId)</text></g><!--link AulaController to AulaRepository--><g id="link_AulaController_AulaRepository"><path d="M147.72,196.15 C133.28,209.74 116,226 116,226 C116,226 108.7791,248.7024 102.5591,268.2524 " fill="none" id="AulaController-to-AulaRepository" style="stroke:#181818;stroke-width:1.0;"/><polygon fill="#181818" points="100.74,273.97,107.2804,266.6063,102.2559,269.2053,99.6569,264.1809,100.74,273.97" style="stroke:#181818;stroke-width:1.0;"/><text fill="#000000" font-family="sans-serif" font-size="13" lengthAdjust="spacing" textLength="87" x="117" y="240.4951">eliminar(aulaId)</text></g><!--link AulaRepository to Aula--><g id="link_AulaRepository_Aula"><path d="M95,312.06 C95,333.28 95,362.3 95,383.64 " fill="none" id="AulaRepository-to-Aula" style="stroke:#181818;stroke-width:1.0;"/><polygon fill="#181818" points="95,389.64,99,380.64,95,384.64,91,380.64,95,389.64" style="stroke:#181818;stroke-width:1.0;"/><text fill="#000000" font-family="sans-serif" font-size="13" lengthAdjust="spacing" textLength="55" x="96" y="356.4951">&#171;elimina&#187;</text></g><!--SRC=[ZP8zJyCm48Pt_ufJMDgX7IfQqQgA548giI46zejphQmwTkIOZu3uxzWX2EUZ0W-MVNxUktjjrsUXAZHOWXIAR5CHL5esViEO8MvHdIJ1LNgNtIPhY7R9iyGQaboGiJe2l_QHBi1OXVoC9mAIeXGAZJ_rL1G6PlC8FXYu4PJOhBRPOGjPm3q9UXrY-JelDZTjrLGhQxIKP8RGOPMarraBFLAbQs6rQIv0sHkMfFx4V2xsoLXe5nQBUDGmx7hcP-Yc-sBEs0ZqwhuFf-LQ7OKfqNGu5rhzvXZWRVr1_zyvB9e7FMXWIZnkljIrDIvIl3YBfBXmppMfxTzkOBjVCK1-L8xTxpiwZYTkPhcCU_-g5HmT8iKx6YVvduAZuYHRmHS0]--></g></svg>