<?xml version="1.0" encoding="us-ascii" standalone="no"?><svg xmlns="http://www.w3.org/2000/svg" xmlns:xlink="http://www.w3.org/1999/xlink" contentStyleType="text/css" height="318px" preserveAspectRatio="none" style="width:905px;height:318px;background:#FFFFFF;" version="1.1" viewBox="0 0 905 318" width="905px" zoomAndPan="magnify"><defs/><g><!--cluster importarAulas--><g id="cluster_importarAulas"><path d="M8.5,6 L116.5,6 A3.75,3.75 0 0 1 119,8.5 L126,29.6094 L451.5,29.6094 A2.5,2.5 0 0 1 454,32.1094 L454,308.5 A2.5,2.5 0 0 1 451.5,311 L8.5,311 A2.5,2.5 0 0 1 6,308.5 L6,8.5 A2.5,2.5 0 0 1 8.5,6 " fill="none" style="stroke:#000000;stroke-width:1.5;"/><line style="stroke:#000000;stroke-width:1.5;" x1="6" x2="126" y1="29.6094" y2="29.6094"/><text fill="#000000" font-family="sans-serif" font-size="14" font-weight="bold" lengthAdjust="spacing" textLength="107" x="10" y="22.5332">importarAulas()</text></g><!--entity ImportarAulasView--><g id="elem_ImportarAulasView"><rect fill="#629EF9" height="37.6094" rx="2.5" ry="2.5" style="stroke:#181818;stroke-width:0.5;" width="136" x="302" y="42"/><text fill="#000000" font-family="sans-serif" font-size="14" lengthAdjust="spacing" textLength="116" x="312" y="66.5332">ImportarAulasView</text></g><!--entity AulaController--><g id="elem_AulaController"><rect fill="#B5BD68" height="37.6094" rx="2.5" ry="2.5" style="stroke:#181818;stroke-width:0.5;" width="110" x="45" y="158"/><text fill="#000000" font-family="sans-serif" font-size="14" lengthAdjust="spacing" textLength="90" x="55" y="182.5332">AulaController</text></g><!--entity AulaRepository--><g id="elem_AulaRepository"><rect fill="#F2AC4E" height="37.6094" rx="2.5" ry="2.5" style="stroke:#181818;stroke-width:0.5;" width="116" x="299" y="158"/><text fill="#000000" font-family="sans-serif" font-size="14" lengthAdjust="spacing" textLength="96" x="309" y="182.5332">AulaRepository</text></g><!--entity Aula--><g id="elem_Aula"><rect fill="#F2AC4E" height="37.6094" rx="2.5" ry="2.5" style="stroke:#181818;stroke-width:0.5;" width="48" x="333" y="257"/><text fill="#000000" font-family="sans-serif" font-size="14" lengthAdjust="spacing" textLength="28" x="343" y="281.5332">Aula</text></g><!--entity AulasAbierto--><g id="elem_AulasAbierto"><rect fill="#CDEBA5" height="37.6094" rx="2.5" ry="2.5" style="stroke:#181818;stroke-width:0.5;" width="108" x="554" y="158"/><text fill="#000000" font-family="sans-serif" font-size="14" lengthAdjust="spacing" textLength="88" x="564" y="182.5332">:Aulas Abierto</text></g><!--link AulasAbierto to ImportarAulasView--><g id="link_AulasAbierto_ImportarAulasView"><path d="M558.1,157.99 C520.36,144.37 475,128 475,128 C475,128 434.8593,102.7739 403.7693,83.2239 " fill="none" id="AulasAbierto-to-ImportarAulasView" style="stroke:#181818;stroke-width:1.0;"/><polygon fill="#181818" points="398.69,80.03,404.1796,88.2071,402.9227,82.6916,408.4382,81.4347,398.69,80.03" style="stroke:#181818;stroke-width:1.0;"/><text fill="#000000" font-family="sans-serif" font-size="13" lengthAdjust="spacing" textLength="88" x="476" y="124.4951">importarAulas()</text></g><!--link ImportarAulasView to AulasAbierto--><g id="link_ImportarAulasView_AulasAbierto"><path d="M438.21,78.45 C495.81,92.35 569,110 569,110 C569,110 582.75,133.253 594.29,152.803 " fill="none" id="ImportarAulasView-to-AulasAbierto" style="stroke:#181818;stroke-width:1.0;stroke-dasharray:7.0,7.0;"/><polygon fill="#181818" points="597.34,157.97,596.2097,148.1862,594.7984,153.6642,589.3204,152.2528,597.34,157.97" style="stroke:#181818;stroke-width:1.0;"/><text fill="#000000" font-family="sans-serif" font-size="13" lengthAdjust="spacing" textLength="183" x="580" y="124.4951">mostrarResultado(importResult)</text></g><!--link ImportarAulasView to AulasAbierto--><g id="link_ImportarAulasView_AulasAbierto"><path d="M438.19,70.14 C552.89,83.84 772,110 772,110 C772,110 772,128 772,128 C772,128 715.6785,144.4848 667.9085,158.4648 " fill="none" id="ImportarAulasView-to-AulasAbierto-1" style="stroke:#181818;stroke-width:1.0;stroke-dasharray:7.0,7.0;"/><polygon fill="#181818" points="662.15,160.15,671.9112,161.4611,666.9487,158.7456,669.6642,153.7832,662.15,160.15" style="stroke:#181818;stroke-width:1.0;"/><text fill="#000000" font-family="sans-serif" font-size="13" lengthAdjust="spacing" textLength="124" x="773" y="124.4951">cancelarImportacion()</text></g><!--link ImportarAulasView to AulaController--><g id="link_ImportarAulasView_AulaController"><path d="M301.82,72.36 C208.93,86.47 54,110 54,110 C54,110 54,128 54,128 C54,128 65.4275,139.9291 78.4575,153.5191 " fill="none" id="ImportarAulasView-to-AulaController" style="stroke:#181818;stroke-width:1.0;"/><polygon fill="#181818" points="82.61,157.85,79.2686,148.5853,79.1496,154.2409,73.494,154.1219,82.61,157.85" style="stroke:#181818;stroke-width:1.0;"/><text fill="#000000" font-family="sans-serif" font-size="13" lengthAdjust="spacing" textLength="180" x="55" y="124.4951">importar(archivo) : ImportResult</text></g><!--link ImportarAulasView to AulaController--><g id="link_ImportarAulasView_AulaController"><path d="M334.48,80.03 C295.99,99.58 240,128 240,128 C240,128 197.9256,142.4238 158.2056,156.0438 " fill="none" id="ImportarAulasView-to-AulaController-1" style="stroke:#181818;stroke-width:1.0;"/><polygon fill="#181818" points="152.53,157.99,162.3408,158.8545,157.2597,156.3682,159.746,151.287,152.53,157.99" style="stroke:#181818;stroke-width:1.0;"/><text fill="#000000" font-family="sans-serif" font-size="13" lengthAdjust="spacing" textLength="157" x="276" y="124.4951">obtenerFormatoRequerido()</text></g><!--link AulaController to AulaRepository--><g id="link_AulaController_AulaRepository"><path d="M155.13,177 C197.46,177 249.77,177 292.83,177 " fill="none" id="AulaController-to-AulaRepository" style="stroke:#181818;stroke-width:1.0;"/><polygon fill="#181818" points="298.83,177,289.83,173,293.83,177,289.83,181,298.83,177" style="stroke:#181818;stroke-width:1.0;"/><text fill="#000000" font-family="sans-serif" font-size="13" lengthAdjust="spacing" textLength="107" x="173.5" y="170.4951">guardarLote(aulas)</text></g><!--link AulaRepository to Aula--><g id="link_AulaRepository_Aula"><path d="M357,196.24 C357,213.59 357,239.52 357,256.84 " fill="none" id="AulaRepository-Aula" style="stroke:#181818;stroke-width:1.0;"/></g><!--SRC=[ZP4nRuCm48Lt_ueJNM0WGzH4JOP8D0MfKgSCtGyu9LQCZnwc5Qhwtsj21Y1L5Sk3_VJTtNjsSzQsHi4AZBRakfgWPjFr5wM42eVsQ0WUzY_fSxA2O9kq1Xj8SatYE83-t2jNGQaQYpCU2NHLipYKWVSxc2XX5C2tKk3NQCfwkKcp3RoEoNTDNtCkN-Nb-kaoUS_M2Hj3CeUoPR9_J2_GWMfkj6Ff_e7KZrBZB11BlBlr0bkO9L7g5efBNplrDoeCKOgJ_kJ8QqFjWPhMkFixSUx8acGi5Je-q4TBealkpSpOIuhf8_ZwOujIehonen3xMP6QCN4ylCeVbXQBtUJNVR-A6oSeGmpqHlGeLdHVZm9jGGRb2XUQhS_p2m00]--></g></svg>