<?xml version="1.0" encoding="us-ascii" standalone="no"?><svg xmlns="http://www.w3.org/2000/svg" xmlns:xlink="http://www.w3.org/1999/xlink" contentStyleType="text/css" height="1001px" preserveAspectRatio="none" style="width:1211px;height:1001px;background:#FFFFFF;" version="1.1" viewBox="0 0 1211 1001" width="1211px" zoomAndPan="magnify"><defs/><g><line style="stroke:#181818;stroke-width:0.5;stroke-dasharray:5.0,5.0;" x1="51" x2="51" y1="82.6094" y2="919.75"/><line style="stroke:#181818;stroke-width:0.5;stroke-dasharray:5.0,5.0;" x1="270" x2="270" y1="82.6094" y2="919.75"/><line style="stroke:#181818;stroke-width:0.5;stroke-dasharray:5.0,5.0;" x1="429.5" x2="429.5" y1="82.6094" y2="919.75"/><line style="stroke:#181818;stroke-width:0.5;stroke-dasharray:5.0,5.0;" x1="569.5" x2="569.5" y1="82.6094" y2="919.75"/><line style="stroke:#181818;stroke-width:0.5;stroke-dasharray:5.0,5.0;" x1="755" x2="755" y1="82.6094" y2="919.75"/><line style="stroke:#181818;stroke-width:0.5;stroke-dasharray:5.0,5.0;" x1="895.5" x2="895.5" y1="82.6094" y2="919.75"/><line style="stroke:#181818;stroke-width:0.5;stroke-dasharray:5.0,5.0;" x1="1157" x2="1157" y1="82.6094" y2="919.75"/><text fill="#000000" font-family="sans-serif" font-size="14" lengthAdjust="spacing" textLength="87" x="5" y="79.5332">Administrador</text><ellipse cx="51.5" cy="13.5" fill="#E2E2F0" rx="8" ry="8" style="stroke:#181818;stroke-width:0.5;"/><path d="M51.5,21.5 L51.5,48.5 M38.5,29.5 L64.5,29.5 M51.5,48.5 L38.5,63.5 M51.5,48.5 L64.5,63.5 " fill="none" style="stroke:#181818;stroke-width:0.5;"/><text fill="#000000" font-family="sans-serif" font-size="14" lengthAdjust="spacing" textLength="87" x="5" y="933.2832">Administrador</text><ellipse cx="51.5" cy="944.8594" fill="#E2E2F0" rx="8" ry="8" style="stroke:#181818;stroke-width:0.5;"/><path d="M51.5,952.8594 L51.5,979.8594 M38.5,960.8594 L64.5,960.8594 M51.5,979.8594 L38.5,994.8594 M51.5,979.8594 L64.5,994.8594 " fill="none" style="stroke:#181818;stroke-width:0.5;"/><rect fill="#E2E2F0" height="66.8281" rx="2.5" ry="2.5" style="stroke:#181818;stroke-width:0.5;" width="103" x="219" y="14.7813"/><text fill="#000000" font-family="sans-serif" font-size="14" font-style="italic" lengthAdjust="spacing" textLength="89" x="226" y="36.3145">&#171;Component&#187;</text><text fill="#000000" font-family="sans-serif" font-size="14" lengthAdjust="spacing" textLength="81" x="230" y="53.9238">AulaEditView</text><text fill="#000000" font-family="sans-serif" font-size="14" lengthAdjust="spacing" textLength="47" x="247" y="71.5332">(React)</text><rect fill="#E2E2F0" height="66.8281" rx="2.5" ry="2.5" style="stroke:#181818;stroke-width:0.5;" width="103" x="219" y="918.75"/><text fill="#000000" font-family="sans-serif" font-size="14" font-style="italic" lengthAdjust="spacing" textLength="89" x="226" y="940.2832">&#171;Component&#187;</text><text fill="#000000" font-family="sans-serif" font-size="14" lengthAdjust="spacing" textLength="81" x="230" y="957.8926">AulaEditView</text><text fill="#000000" font-family="sans-serif" font-size="14" lengthAdjust="spacing" textLength="47" x="247" y="975.502">(React)</text><rect fill="#E2E2F0" height="66.8281" rx="2.5" ry="2.5" style="stroke:#181818;stroke-width:0.5;" width="122" x="368.5" y="14.7813"/><text fill="#000000" font-family="sans-serif" font-size="14" font-style="italic" lengthAdjust="spacing" textLength="50" x="404.5" y="36.3145">&#171;Hook&#187;</text><text fill="#000000" font-family="sans-serif" font-size="14" lengthAdjust="spacing" textLength="108" x="375.5" y="53.9238">useAulaEditForm</text><text fill="#000000" font-family="sans-serif" font-size="14" lengthAdjust="spacing" textLength="42" x="408.5" y="71.5332">(Hook)</text><rect fill="#E2E2F0" height="66.8281" rx="2.5" ry="2.5" style="stroke:#181818;stroke-width:0.5;" width="122" x="368.5" y="918.75"/><text fill="#000000" font-family="sans-serif" font-size="14" font-style="italic" lengthAdjust="spacing" textLength="50" x="404.5" y="940.2832">&#171;Hook&#187;</text><text fill="#000000" font-family="sans-serif" font-size="14" lengthAdjust="spacing" textLength="108" x="375.5" y="957.8926">useAulaEditForm</text><text fill="#000000" font-family="sans-serif" font-size="14" lengthAdjust="spacing" textLength="42" x="408.5" y="975.502">(Hook)</text><rect fill="#E2E2F0" height="66.8281" rx="2.5" ry="2.5" style="stroke:#181818;stroke-width:0.5;" width="96" x="521.5" y="14.7813"/><text fill="#000000" font-family="sans-serif" font-size="14" font-style="italic" lengthAdjust="spacing" textLength="62" x="538.5" y="36.3145">&#171;Service&#187;</text><text fill="#000000" font-family="sans-serif" font-size="14" lengthAdjust="spacing" textLength="82" x="528.5" y="53.9238">AulasService</text><text fill="#000000" font-family="sans-serif" font-size="14" lengthAdjust="spacing" textLength="43" x="548" y="71.5332">(Axios)</text><rect fill="#E2E2F0" height="66.8281" rx="2.5" ry="2.5" style="stroke:#181818;stroke-width:0.5;" width="96" x="521.5" y="918.75"/><text fill="#000000" font-family="sans-serif" font-size="14" font-style="italic" lengthAdjust="spacing" textLength="62" x="538.5" y="940.2832">&#171;Service&#187;</text><text fill="#000000" font-family="sans-serif" font-size="14" lengthAdjust="spacing" textLength="82" x="528.5" y="957.8926">AulasService</text><text fill="#000000" font-family="sans-serif" font-size="14" lengthAdjust="spacing" textLength="43" x="548" y="975.502">(Axios)</text><rect fill="#E2E2F0" height="66.8281" rx="2.5" ry="2.5" style="stroke:#181818;stroke-width:0.5;" width="111" x="700" y="14.7813"/><text fill="#000000" font-family="sans-serif" font-size="14" font-style="italic" lengthAdjust="spacing" textLength="78" x="716.5" y="36.3145">&#171;Controller&#187;</text><text fill="#000000" font-family="sans-serif" font-size="14" lengthAdjust="spacing" textLength="97" x="707" y="53.9238">AulasController</text><text fill="#000000" font-family="sans-serif" font-size="14" lengthAdjust="spacing" textLength="53" x="729" y="71.5332">(NestJS)</text><rect fill="#E2E2F0" height="66.8281" rx="2.5" ry="2.5" style="stroke:#181818;stroke-width:0.5;" width="111" x="700" y="918.75"/><text fill="#000000" font-family="sans-serif" font-size="14" font-style="italic" lengthAdjust="spacing" textLength="78" x="716.5" y="940.2832">&#171;Controller&#187;</text><text fill="#000000" font-family="sans-serif" font-size="14" lengthAdjust="spacing" textLength="97" x="707" y="957.8926">AulasController</text><text fill="#000000" font-family="sans-serif" font-size="14" lengthAdjust="spacing" textLength="53" x="729" y="975.502">(NestJS)</text><rect fill="#E2E2F0" height="66.8281" rx="2.5" ry="2.5" style="stroke:#181818;stroke-width:0.5;" width="96" x="847.5" y="14.7813"/><text fill="#000000" font-family="sans-serif" font-size="14" font-style="italic" lengthAdjust="spacing" textLength="62" x="864.5" y="36.3145">&#171;Service&#187;</text><text fill="#000000" font-family="sans-serif" font-size="14" lengthAdjust="spacing" textLength="82" x="854.5" y="53.9238">AulasService</text><text fill="#000000" font-family="sans-serif" font-size="14" lengthAdjust="spacing" textLength="53" x="869" y="71.5332">(NestJS)</text><rect fill="#E2E2F0" height="66.8281" rx="2.5" ry="2.5" style="stroke:#181818;stroke-width:0.5;" width="96" x="847.5" y="918.75"/><text fill="#000000" font-family="sans-serif" font-size="14" font-style="italic" lengthAdjust="spacing" textLength="62" x="864.5" y="940.2832">&#171;Service&#187;</text><text fill="#000000" font-family="sans-serif" font-size="14" lengthAdjust="spacing" textLength="82" x="854.5" y="957.8926">AulasService</text><text fill="#000000" font-family="sans-serif" font-size="14" lengthAdjust="spacing" textLength="53" x="869" y="975.502">(NestJS)</text><text fill="#000000" font-family="sans-serif" font-size="14" lengthAdjust="spacing" textLength="77" x="1116" y="79.5332">PostgreSQL</text><path d="M1139.5,29 C1139.5,19 1157.5,19 1157.5,19 C1157.5,19 1175.5,19 1175.5,29 L1175.5,55 C1175.5,65 1157.5,65 1157.5,65 C1157.5,65 1139.5,65 1139.5,55 L1139.5,29 " fill="#E2E2F0" style="stroke:#181818;stroke-width:1.5;"/><path d="M1139.5,29 C1139.5,39 1157.5,39 1157.5,39 C1157.5,39 1175.5,39 1175.5,29 " fill="none" style="stroke:#181818;stroke-width:1.5;"/><text fill="#000000" font-family="sans-serif" font-size="14" lengthAdjust="spacing" textLength="77" x="1116" y="933.2832">PostgreSQL</text><path d="M1139.5,946.3594 C1139.5,936.3594 1157.5,936.3594 1157.5,936.3594 C1157.5,936.3594 1175.5,936.3594 1175.5,946.3594 L1175.5,972.3594 C1175.5,982.3594 1157.5,982.3594 1157.5,982.3594 C1157.5,982.3594 1139.5,982.3594 1139.5,972.3594 L1139.5,946.3594 " fill="#E2E2F0" style="stroke:#181818;stroke-width:1.5;"/><path d="M1139.5,946.3594 C1139.5,956.3594 1157.5,956.3594 1157.5,956.3594 C1157.5,956.3594 1175.5,956.3594 1175.5,946.3594 " fill="none" style="stroke:#181818;stroke-width:1.5;"/><rect fill="#EEEEEE" height="3" style="stroke:#EEEEEE;stroke-width:1.0;" width="1204" x="0" y="113.7852"/><line style="stroke:#000000;stroke-width:1.0;" x1="0" x2="1204" y1="113.7852" y2="113.7852"/><line style="stroke:#000000;stroke-width:1.0;" x1="0" x2="1204" y1="116.7852" y2="116.7852"/><rect fill="#EEEEEE" height="24.3516" style="stroke:#000000;stroke-width:2.0;" width="115" x="544.5" y="102.6094"/><text fill="#000000" font-family="sans-serif" font-size="13" font-weight="bold" lengthAdjust="spacing" textLength="97" x="550.5" y="120.1045">Carga de Datos</text><polygon fill="#181818" points="258.5,155.3125,268.5,159.3125,258.5,163.3125,262.5,159.3125" style="stroke:#181818;stroke-width:1.0;"/><line style="stroke:#181818;stroke-width:1.0;" x1="51.5" x2="264.5" y1="159.3125" y2="159.3125"/><text fill="#000000" font-family="sans-serif" font-size="13" lengthAdjust="spacing" textLength="119" x="58.5" y="154.4561">Accede a editar aula</text><polygon fill="#181818" points="417.5,185.6641,427.5,189.6641,417.5,193.6641,421.5,189.6641" style="stroke:#181818;stroke-width:1.0;"/><line style="stroke:#181818;stroke-width:1.0;" x1="270.5" x2="423.5" y1="189.6641" y2="189.6641"/><text fill="#000000" font-family="sans-serif" font-size="13" lengthAdjust="spacing" textLength="68" x="277.5" y="184.8076">loadAula(id)</text><polygon fill="#181818" points="557.5,216.0156,567.5,220.0156,557.5,224.0156,561.5,220.0156" style="stroke:#181818;stroke-width:1.0;"/><line style="stroke:#181818;stroke-width:1.0;" x1="429.5" x2="563.5" y1="220.0156" y2="220.0156"/><text fill="#000000" font-family="sans-serif" font-size="13" lengthAdjust="spacing" textLength="88" x="436.5" y="215.1592">getAulaById(id)</text><polygon fill="#181818" points="743.5,246.3672,753.5,250.3672,743.5,254.3672,747.5,250.3672" style="stroke:#181818;stroke-width:1.0;"/><line style="stroke:#181818;stroke-width:1.0;" x1="569.5" x2="749.5" y1="250.3672" y2="250.3672"/><text fill="#000000" font-family="sans-serif" font-size="13" lengthAdjust="spacing" textLength="83" x="576.5" y="245.5107">GET /aulas/:id</text><polygon fill="#181818" points="883.5,276.7188,893.5,280.7188,883.5,284.7188,887.5,280.7188" style="stroke:#181818;stroke-width:1.0;"/><line style="stroke:#181818;stroke-width:1.0;" x1="755.5" x2="889.5" y1="280.7188" y2="280.7188"/><text fill="#000000" font-family="sans-serif" font-size="13" lengthAdjust="spacing" textLength="62" x="762.5" y="275.8623">findOne(id)</text><polygon fill="#181818" points="1145.5,307.0703,1155.5,311.0703,1145.5,315.0703,1149.5,311.0703" style="stroke:#181818;stroke-width:1.0;"/><line style="stroke:#181818;stroke-width:1.0;" x1="895.5" x2="1151.5" y1="311.0703" y2="311.0703"/><text fill="#000000" font-family="sans-serif" font-size="13" lengthAdjust="spacing" textLength="238" x="902.5" y="306.2139">SELECT * FROM "Aula" WHERE id = :id</text><polygon fill="#181818" points="906.5,337.4219,896.5,341.4219,906.5,345.4219,902.5,341.4219" style="stroke:#181818;stroke-width:1.0;"/><line style="stroke:#181818;stroke-width:1.0;stroke-dasharray:2.0,2.0;" x1="900.5" x2="1156.5" y1="341.4219" y2="341.4219"/><text fill="#000000" font-family="sans-serif" font-size="13" lengthAdjust="spacing" textLength="57" x="912.5" y="336.5654">Aula Data</text><polygon fill="#181818" points="766.5,367.7734,756.5,371.7734,766.5,375.7734,762.5,371.7734" style="stroke:#181818;stroke-width:1.0;"/><line style="stroke:#181818;stroke-width:1.0;stroke-dasharray:2.0,2.0;" x1="760.5" x2="894.5" y1="371.7734" y2="371.7734"/><text fill="#000000" font-family="sans-serif" font-size="13" lengthAdjust="spacing" textLength="64" x="772.5" y="366.917">Aula Entity</text><polygon fill="#181818" points="580.5,398.125,570.5,402.125,580.5,406.125,576.5,402.125" style="stroke:#181818;stroke-width:1.0;"/><line style="stroke:#181818;stroke-width:1.0;stroke-dasharray:2.0,2.0;" x1="574.5" x2="754.5" y1="402.125" y2="402.125"/><text fill="#000000" font-family="sans-serif" font-size="13" lengthAdjust="spacing" textLength="96" x="586.5" y="397.2686">JSON Response</text><polygon fill="#181818" points="440.5,428.4766,430.5,432.4766,440.5,436.4766,436.5,432.4766" style="stroke:#181818;stroke-width:1.0;"/><line style="stroke:#181818;stroke-width:1.0;stroke-dasharray:2.0,2.0;" x1="434.5" x2="568.5" y1="432.4766" y2="432.4766"/><text fill="#000000" font-family="sans-serif" font-size="13" lengthAdjust="spacing" textLength="68" x="446.5" y="427.6201">Aula Object</text><polygon fill="#181818" points="281.5,458.8281,271.5,462.8281,281.5,466.8281,277.5,462.8281" style="stroke:#181818;stroke-width:1.0;"/><line style="stroke:#181818;stroke-width:1.0;stroke-dasharray:2.0,2.0;" x1="275.5" x2="428.5" y1="462.8281" y2="462.8281"/><text fill="#000000" font-family="sans-serif" font-size="13" lengthAdjust="spacing" textLength="103" x="287.5" y="457.9717">Rellena formulario</text><rect fill="#EEEEEE" height="3" style="stroke:#EEEEEE;stroke-width:1.0;" width="1204" x="0" y="492.0039"/><line style="stroke:#000000;stroke-width:1.0;" x1="0" x2="1204" y1="492.0039" y2="492.0039"/><line style="stroke:#000000;stroke-width:1.0;" x1="0" x2="1204" y1="495.0039" y2="495.0039"/><rect fill="#EEEEEE" height="24.3516" style="stroke:#000000;stroke-width:2.0;" width="65" x="569.5" y="480.8281"/><text fill="#000000" font-family="sans-serif" font-size="13" font-weight="bold" lengthAdjust="spacing" textLength="47" x="575.5" y="498.3232">Edici&#243;n</text><polygon fill="#181818" points="258.5,533.5313,268.5,537.5313,258.5,541.5313,262.5,537.5313" style="stroke:#181818;stroke-width:1.0;"/><line style="stroke:#181818;stroke-width:1.0;" x1="51.5" x2="264.5" y1="537.5313" y2="537.5313"/><text fill="#000000" font-family="sans-serif" font-size="13" lengthAdjust="spacing" textLength="98" x="58.5" y="532.6748">Modifica campos</text><polygon fill="#181818" points="258.5,563.8828,268.5,567.8828,258.5,571.8828,262.5,567.8828" style="stroke:#181818;stroke-width:1.0;"/><line style="stroke:#181818;stroke-width:1.0;" x1="51.5" x2="264.5" y1="567.8828" y2="567.8828"/><text fill="#000000" font-family="sans-serif" font-size="13" lengthAdjust="spacing" textLength="107" x="58.5" y="563.0264">Click en "Guardar"</text><polygon fill="#181818" points="417.5,594.2344,427.5,598.2344,417.5,602.2344,421.5,598.2344" style="stroke:#181818;stroke-width:1.0;"/><line style="stroke:#181818;stroke-width:1.0;" x1="270.5" x2="423.5" y1="598.2344" y2="598.2344"/><text fill="#000000" font-family="sans-serif" font-size="13" lengthAdjust="spacing" textLength="90" x="277.5" y="593.3779">update(id, data)</text><polygon fill="#181818" points="557.5,624.5859,567.5,628.5859,557.5,632.5859,561.5,628.5859" style="stroke:#181818;stroke-width:1.0;"/><line style="stroke:#181818;stroke-width:1.0;" x1="429.5" x2="563.5" y1="628.5859" y2="628.5859"/><text fill="#000000" font-family="sans-serif" font-size="13" lengthAdjust="spacing" textLength="116" x="436.5" y="623.7295">updateAula(id, data)</text><polygon fill="#181818" points="743.5,654.9375,753.5,658.9375,743.5,662.9375,747.5,658.9375" style="stroke:#181818;stroke-width:1.0;"/><line style="stroke:#181818;stroke-width:1.0;" x1="569.5" x2="749.5" y1="658.9375" y2="658.9375"/><text fill="#000000" font-family="sans-serif" font-size="13" lengthAdjust="spacing" textLength="162" x="576.5" y="654.0811">PUT /aulas/:id (JSON Body)</text><polygon fill="#181818" points="883.5,685.2891,893.5,689.2891,883.5,693.2891,887.5,689.2891" style="stroke:#181818;stroke-width:1.0;"/><line style="stroke:#181818;stroke-width:1.0;" x1="755.5" x2="889.5" y1="689.2891" y2="689.2891"/><text fill="#000000" font-family="sans-serif" font-size="13" lengthAdjust="spacing" textLength="83" x="762.5" y="684.4326">update(id, dto)</text><polygon fill="#181818" points="1145.5,715.6406,1155.5,719.6406,1145.5,723.6406,1149.5,719.6406" style="stroke:#181818;stroke-width:1.0;"/><line style="stroke:#181818;stroke-width:1.0;" x1="895.5" x2="1151.5" y1="719.6406" y2="719.6406"/><text fill="#000000" font-family="sans-serif" font-size="13" lengthAdjust="spacing" textLength="234" x="902.5" y="714.7842">UPDATE "Aula" SET ... WHERE id = :id</text><polygon fill="#181818" points="906.5,745.9922,896.5,749.9922,906.5,753.9922,902.5,749.9922" style="stroke:#181818;stroke-width:1.0;"/><line style="stroke:#181818;stroke-width:1.0;stroke-dasharray:2.0,2.0;" x1="900.5" x2="1156.5" y1="749.9922" y2="749.9922"/><text fill="#000000" font-family="sans-serif" font-size="13" lengthAdjust="spacing" textLength="19" x="912.5" y="745.1357">OK</text><polygon fill="#181818" points="766.5,776.3438,756.5,780.3438,766.5,784.3438,762.5,780.3438" style="stroke:#181818;stroke-width:1.0;"/><line style="stroke:#181818;stroke-width:1.0;stroke-dasharray:2.0,2.0;" x1="760.5" x2="894.5" y1="780.3438" y2="780.3438"/><text fill="#000000" font-family="sans-serif" font-size="13" lengthAdjust="spacing" textLength="116" x="772.5" y="775.4873">Updated Aula Entity</text><polygon fill="#181818" points="580.5,806.6953,570.5,810.6953,580.5,814.6953,576.5,810.6953" style="stroke:#181818;stroke-width:1.0;"/><line style="stroke:#181818;stroke-width:1.0;stroke-dasharray:2.0,2.0;" x1="574.5" x2="754.5" y1="810.6953" y2="810.6953"/><text fill="#000000" font-family="sans-serif" font-size="13" lengthAdjust="spacing" textLength="96" x="586.5" y="805.8389">JSON Response</text><polygon fill="#181818" points="440.5,837.0469,430.5,841.0469,440.5,845.0469,436.5,841.0469" style="stroke:#181818;stroke-width:1.0;"/><line style="stroke:#181818;stroke-width:1.0;stroke-dasharray:2.0,2.0;" x1="434.5" x2="568.5" y1="841.0469" y2="841.0469"/><text fill="#000000" font-family="sans-serif" font-size="13" lengthAdjust="spacing" textLength="51" x="446.5" y="836.1904">Success</text><polygon fill="#181818" points="281.5,867.3984,271.5,871.3984,281.5,875.3984,277.5,871.3984" style="stroke:#181818;stroke-width:1.0;"/><line style="stroke:#181818;stroke-width:1.0;stroke-dasharray:2.0,2.0;" x1="275.5" x2="428.5" y1="871.3984" y2="871.3984"/><text fill="#000000" font-family="sans-serif" font-size="13" lengthAdjust="spacing" textLength="135" x="287.5" y="866.542">Redirigir / Mostrar &#233;xito</text><polygon fill="#181818" points="62.5,897.75,52.5,901.75,62.5,905.75,58.5,901.75" style="stroke:#181818;stroke-width:1.0;"/><line style="stroke:#181818;stroke-width:1.0;stroke-dasharray:2.0,2.0;" x1="56.5" x2="269.5" y1="901.75" y2="901.75"/><text fill="#000000" font-family="sans-serif" font-size="13" lengthAdjust="spacing" textLength="195" x="68.5" y="896.8936">Muestra confirmaci&#243;n de cambios</text><!--SRC=[hLHBSjf04Dth55si81MRFMMeGY3yYMq8WcIJJQCPI0SnGysCOdEah7q4Nomz8x0b1-nDLlgyZrhljMJNfBPeS0Fs9mhzG6e5IyojZ2BCd3RG5njIP9rXr4HCTPJH5fM3Hh_8CH7alf5y-A6QKycALWFGmlmQBYu6UhFLIYhNwzLrXPK7wKYR3Kklj5wNId_6MdzuA_CQcqhpcpB9cluZQLkAHlkxBDoV7TKEj796vxaqBB-NrjsafVuL26CVBZuOeEeG7vj0eCC5MWcDYRPkPMJwzJQmXt4KTRimGBD241A6wBI5RZUAQcd3MSydsO5-bacc8KYE30qW3n8nmdZ8gmEvHk77Qv9eHU4UOo-nT60bdOVZtRK8b1U8QPMtxy1bCeEszxVj3eceWZ4pVZLSaX9Z9ODPN34RnWocoMqocC4d64t7TsLk3VX-bKmJ805TyCvCFAjRUfgF0Yk6RySBd4GvShlQRFMtlKd7zp2LbjUF5tbKTTld5Np6YryoS_ku3bbF9JigX2Ll9fCCwT0LBsj6pq_gdPRkjA0bPGWPykBR4wn1JjaQf8B6PO56e6dKcoosl3O-ry_Wz-TecoLdt_U1TxBIoRnQAJH3Eh4MkzRfUgjJE7saulbas9ybXsvJtfhpy_EFEnv_UQVSUNYe-6ybfmL_DzR-Kx0WGoioqERAV3q6dlyyajEX2ARLY-DY2-al8DDgIMQ3vIBm1yb5B_Wd5Fq5]--></g></svg>