<?xml version="1.0" encoding="us-ascii" standalone="no"?><svg xmlns="http://www.w3.org/2000/svg" xmlns:xlink="http://www.w3.org/1999/xlink" contentStyleType="text/css" height="335px" preserveAspectRatio="none" style="width:1375px;height:335px;background:#FFFFFF;" version="1.1" viewBox="0 0 1375 335" width="1375px" zoomAndPan="magnify"><defs/><g><!--cluster editarExamen--><g id="cluster_editarExamen"><path d="M8.5,6 L115.5,6 A3.75,3.75 0 0 1 118,8.5 L125,29.6094 L674.5,29.6094 A2.5,2.5 0 0 1 677,32.1094 L677,325.5 A2.5,2.5 0 0 1 674.5,328 L8.5,328 A2.5,2.5 0 0 1 6,325.5 L6,8.5 A2.5,2.5 0 0 1 8.5,6 " fill="none" style="stroke:#000000;stroke-width:1.5;"/><line style="stroke:#000000;stroke-width:1.5;" x1="6" x2="125" y1="29.6094" y2="29.6094"/><text fill="#000000" font-family="sans-serif" font-size="14" font-weight="bold" lengthAdjust="spacing" textLength="106" x="10" y="22.5332">editarExamen()</text></g><!--entity EditarExamenView--><g id="elem_EditarExamenView"><rect fill="#629EF9" height="37.6094" rx="2.5" ry="2.5" style="stroke:#181818;stroke-width:0.5;" width="136" x="525" y="42"/><text fill="#000000" font-family="sans-serif" font-size="14" lengthAdjust="spacing" textLength="116" x="535" y="66.5332">EditarExamenView</text></g><!--entity ExamenController--><g id="elem_ExamenController"><rect fill="#B5BD68" height="37.6094" rx="2.5" ry="2.5" style="stroke:#181818;stroke-width:0.5;" width="132" x="175" y="158"/><text fill="#000000" font-family="sans-serif" font-size="14" lengthAdjust="spacing" textLength="112" x="185" y="182.5332">ExamenController</text></g><!--entity ExamenRepository--><g id="elem_ExamenRepository"><rect fill="#F2AC4E" height="37.6094" rx="2.5" ry="2.5" style="stroke:#181818;stroke-width:0.5;" width="138" x="163" y="274"/><text fill="#000000" font-family="sans-serif" font-size="14" lengthAdjust="spacing" textLength="118" x="173" y="298.5332">ExamenRepository</text></g><!--entity Examen--><g id="elem_Examen"><rect fill="#F2AC4E" height="37.6094" rx="2.5" ry="2.5" style="stroke:#181818;stroke-width:0.5;" width="70" x="571" y="274"/><text fill="#000000" font-family="sans-serif" font-size="14" lengthAdjust="spacing" textLength="50" x="581" y="298.5332">Examen</text></g><!--entity ExamenesAbierto--><g id="elem_ExamenesAbierto"><rect fill="#CDEBA5" height="37.6094" rx="2.5" ry="2.5" style="stroke:#181818;stroke-width:0.5;" width="138" x="799" y="158"/><text fill="#000000" font-family="sans-serif" font-size="14" lengthAdjust="spacing" textLength="118" x="809" y="182.5332">:Examenes Abierto</text></g><!--entity ExamenAbierto--><g id="elem_ExamenAbierto"><rect fill="#CDEBA5" height="37.6094" rx="2.5" ry="2.5" style="stroke:#181818;stroke-width:0.5;" width="123" x="1110.5" y="158"/><text fill="#000000" font-family="sans-serif" font-size="14" lengthAdjust="spacing" textLength="103" x="1120.5" y="182.5332">:Examen Abierto</text></g><!--link ExamenesAbierto to EditarExamenView--><g id="link_ExamenesAbierto_EditarExamenView"><path d="M798.96,158.47 C744.97,144.76 679,128 679,128 C679,128 646.7189,103.2342 621.2589,83.6842 " fill="none" id="ExamenesAbierto-to-EditarExamenView" style="stroke:#181818;stroke-width:1.0;"/><polygon fill="#181818" points="616.5,80.03,621.2022,88.6839,620.4657,83.0752,626.0744,82.3387,616.5,80.03" style="stroke:#181818;stroke-width:1.0;"/><text fill="#000000" font-family="sans-serif" font-size="13" lengthAdjust="spacing" textLength="144" x="680" y="124.4951">editarExamen(examenId)</text></g><!--link EditarExamenView to ExamenesAbierto--><g id="link_EditarExamenView_ExamenesAbierto"><path d="M661.26,75.88 C730.96,90.06 829,110 829,110 C829,110 842.75,133.253 854.29,152.803 " fill="none" id="EditarExamenView-to-ExamenesAbierto" style="stroke:#181818;stroke-width:1.0;stroke-dasharray:7.0,7.0;"/><polygon fill="#181818" points="857.34,157.97,856.2097,148.1862,854.7984,153.6642,849.3204,152.2528,857.34,157.97" style="stroke:#181818;stroke-width:1.0;"/><text fill="#000000" font-family="sans-serif" font-size="13" lengthAdjust="spacing" textLength="157" x="841" y="124.4951">&#171;finalizar&#187; abrirExamenes()</text></g><!--link EditarExamenView to ExamenesAbierto--><g id="link_EditarExamenView_ExamenesAbierto"><path d="M661.36,69.93 C778.95,83.56 1007,110 1007,110 C1007,110 1007,128 1007,128 C1007,128 965.2715,142.4119 925.8215,156.0319 " fill="none" id="EditarExamenView-to-ExamenesAbierto-1" style="stroke:#181818;stroke-width:1.0;stroke-dasharray:7.0,7.0;"/><polygon fill="#181818" points="920.15,157.99,929.9626,158.8339,924.8763,156.3583,927.3519,151.2719,920.15,157.99" style="stroke:#181818;stroke-width:1.0;"/><text fill="#000000" font-family="sans-serif" font-size="13" lengthAdjust="spacing" textLength="63" x="1008" y="124.4951">&#171;cancelar&#187;</text></g><!--link EditarExamenView to ExamenController--><g id="link_EditarExamenView_ExamenController"><path d="M524.74,68.08 C379.7,81 54,110 54,110 C54,110 54,128 54,128 C54,128 115.1984,143.7082 168.9984,157.5182 " fill="none" id="EditarExamenView-to-ExamenController" style="stroke:#181818;stroke-width:1.0;"/><polygon fill="#181818" points="174.81,159.01,167.0871,152.8979,169.967,157.7668,165.0981,160.6467,174.81,159.01" style="stroke:#181818;stroke-width:1.0;"/><text fill="#000000" font-family="sans-serif" font-size="13" lengthAdjust="spacing" textLength="152" x="55" y="124.4951">solicitarEdicion(examenId)</text></g><!--link EditarExamenView to ExamenController--><g id="link_EditarExamenView_ExamenController"><path d="M524.6,71.77 C426.36,85.81 257,110 257,110 C257,110 251.5238,132.5889 246.7838,152.1389 " fill="none" id="EditarExamenView-to-ExamenController-1" style="stroke:#181818;stroke-width:1.0;"/><polygon fill="#181818" points="245.37,157.97,251.378,150.1659,246.5481,153.1108,243.6033,148.2809,245.37,157.97" style="stroke:#181818;stroke-width:1.0;"/><text fill="#000000" font-family="sans-serif" font-size="13" lengthAdjust="spacing" textLength="389" x="258" y="124.4951">actualizar(examenId, codigo, fechaHora, duracion, asignatura, aula)</text></g><!--link ExamenController to ExamenRepository--><g id="link_ExamenController_ExamenRepository"><path d="M174.81,194.99 C121.01,208.8 54,226 54,226 C54,226 54,244 54,244 C54,244 108.9069,258.8079 159.4169,272.4279 " fill="none" id="ExamenController-to-ExamenRepository" style="stroke:#181818;stroke-width:1.0;"/><polygon fill="#181818" points="165.21,273.99,157.5618,267.7848,160.3824,272.6882,155.479,275.5089,165.21,273.99" style="stroke:#181818;stroke-width:1.0;"/><text fill="#000000" font-family="sans-serif" font-size="13" lengthAdjust="spacing" textLength="133" x="55" y="240.4951">buscarPorId(examenId)</text></g><!--link ExamenController to ExamenRepository--><g id="link_ExamenController_ExamenRepository"><path d="M236.46,196.15 C233.07,209.74 229,226 229,226 C229,226 229,244 229,244 C229,244 229.6455,254.2717 230.4955,267.8617 " fill="none" id="ExamenController-to-ExamenRepository-1" style="stroke:#181818;stroke-width:1.0;"/><polygon fill="#181818" points="230.87,273.85,234.3004,264.6179,230.5579,268.8598,226.316,265.1172,230.87,273.85" style="stroke:#181818;stroke-width:1.0;"/><text fill="#000000" font-family="sans-serif" font-size="13" lengthAdjust="spacing" textLength="180" x="230" y="240.4951">existeCodigo(codigo) : Boolean</text></g><!--link ExamenController to ExamenRepository--><g id="link_ExamenController_ExamenRepository"><path d="M306.29,196.01 C355.66,209.63 415,226 415,226 C415,226 415,244 415,244 C415,244 358.3937,258.8478 306.4637,272.4678 " fill="none" id="ExamenController-to-ExamenRepository-2" style="stroke:#181818;stroke-width:1.0;"/><polygon fill="#181818" points="300.66,273.99,310.3803,275.5759,305.4964,272.7215,308.3508,267.8376,300.66,273.99" style="stroke:#181818;stroke-width:1.0;"/><text fill="#000000" font-family="sans-serif" font-size="13" lengthAdjust="spacing" textLength="110" x="416" y="240.4951">actualizar(examen)</text></g><!--link ExamenController to Examen--><g id="link_ExamenController_Examen"><path d="M307.35,188.83 C394.06,202.99 535,226 535,226 C535,226 561.1865,250.3338 582.2065,269.8838 " fill="none" id="ExamenController-to-Examen" style="stroke:#181818;stroke-width:1.0;"/><polygon fill="#181818" points="586.6,273.97,582.7339,264.9117,582.9388,270.5648,577.2856,270.7696,586.6,273.97" style="stroke:#181818;stroke-width:1.0;"/><text fill="#000000" font-family="sans-serif" font-size="13" lengthAdjust="spacing" textLength="53" x="556" y="240.4951">&#171;update&#187;</text></g><!--link EditarExamenView to ExamenAbierto--><g id="link_EditarExamenView_ExamenAbierto"><path d="M661.23,68.72 C795.26,81.94 1080,110 1080,110 C1080,110 1114.7455,134.9216 1141.9855,154.4716 " fill="none" id="EditarExamenView-to-ExamenAbierto" style="stroke:#181818;stroke-width:1.0;stroke-dasharray:7.0,7.0;"/><polygon fill="#181818" points="1146.86,157.97,1141.8805,149.4727,1142.7979,155.0546,1137.2159,155.9721,1146.86,157.97" style="stroke:#181818;stroke-width:1.0;"/><text fill="#000000" font-family="sans-serif" font-size="13" lengthAdjust="spacing" textLength="46" x="1105" y="124.4951">&#171;editar&#187;</text></g><!--link ExamenAbierto to ExamenAbierto--><g id="link_ExamenAbierto_ExamenAbierto"><path d="M1233.72,166.13 C1253.16,166.3 1268.5,169.92 1268.5,177 C1268.5,184.08 1259.1598,187.6475 1239.7198,187.8175 " fill="none" id="ExamenAbierto-to-ExamenAbierto" style="stroke:#181818;stroke-width:1.0;"/><polygon fill="#181818" points="1233.72,187.87,1242.7546,191.7911,1238.7198,187.8263,1242.6847,183.7915,1233.72,187.87" style="stroke:#181818;stroke-width:1.0;"/><text fill="#000000" font-family="sans-serif" font-size="13" lengthAdjust="spacing" textLength="88" x="1274.5" y="182.4951">editarExamen()</text></g><!--SRC=[dPFBRi8m44Nt_efHkaaaO84AQX6A16bGsLLTT3zn1cfXxCXnL6ZLVwy9eNc0A6esLaRdthdZHxuHAaE3Mv12aTrd19cM-yCFOuQuHRMM17VHKpoVZS2Rn3lSag8SPeaWOxK7cCEfMDMk22_8JYAM8T_Wce1IOT5KlCEyPi4FFFXY3DpNw38UFiQBHuWRu9kWZowMZ99q_53rZRIoHaj9feijXhFeFgwmLyfqBgms-wiO-sQiimtGxuTdaM3Ici-dSbccWPDtqLBVoUhqkPQ2bsZgLjtqEADhYteEPv4KEKVpeiqo_Ky2vBP0AJxH_Afxm7Kgrhe7A-Bl-AmDzY0j31uIzjmnYhL2MnogM4YyFIhjH6ufAitzOu_0bUTQIq9riyrPvAi9d60wBR8KBONXXNqP3CBsxIq5nuFzGr1VZuDa9TGnLHW29aQO4-G7jvjmL9narRcLgfwevjklYVq0]--></g></svg>