<?xml version="1.0" encoding="us-ascii" standalone="no"?><svg xmlns="http://www.w3.org/2000/svg" xmlns:xlink="http://www.w3.org/1999/xlink" contentStyleType="text/css" height="741px" preserveAspectRatio="none" style="width:1180px;height:741px;background:#FFFFFF;" version="1.1" viewBox="0 0 1180 741" width="1180px" zoomAndPan="magnify"><defs/><g><line style="stroke:#181818;stroke-width:0.5;stroke-dasharray:5.0,5.0;" x1="51" x2="51" y1="82.6094" y2="659.5859"/><line style="stroke:#181818;stroke-width:0.5;stroke-dasharray:5.0,5.0;" x1="264.5" x2="264.5" y1="82.6094" y2="659.5859"/><line style="stroke:#181818;stroke-width:0.5;stroke-dasharray:5.0,5.0;" x1="429" x2="429" y1="82.6094" y2="659.5859"/><line style="stroke:#181818;stroke-width:0.5;stroke-dasharray:5.0,5.0;" x1="559" x2="559" y1="82.6094" y2="659.5859"/><line style="stroke:#181818;stroke-width:0.5;stroke-dasharray:5.0,5.0;" x1="735.5" x2="735.5" y1="82.6094" y2="659.5859"/><line style="stroke:#181818;stroke-width:0.5;stroke-dasharray:5.0,5.0;" x1="867.5" x2="867.5" y1="82.6094" y2="659.5859"/><line style="stroke:#181818;stroke-width:0.5;stroke-dasharray:5.0,5.0;" x1="1126.5" x2="1126.5" y1="82.6094" y2="659.5859"/><text fill="#000000" font-family="sans-serif" font-size="14" lengthAdjust="spacing" textLength="87" x="5" y="79.5332">Administrador</text><ellipse cx="51.5" cy="13.5" fill="#E2E2F0" rx="8" ry="8" style="stroke:#181818;stroke-width:0.5;"/><path d="M51.5,21.5 L51.5,48.5 M38.5,29.5 L64.5,29.5 M51.5,48.5 L38.5,63.5 M51.5,48.5 L64.5,63.5 " fill="none" style="stroke:#181818;stroke-width:0.5;"/><text fill="#000000" font-family="sans-serif" font-size="14" lengthAdjust="spacing" textLength="87" x="5" y="673.1191">Administrador</text><ellipse cx="51.5" cy="684.6953" fill="#E2E2F0" rx="8" ry="8" style="stroke:#181818;stroke-width:0.5;"/><path d="M51.5,692.6953 L51.5,719.6953 M38.5,700.6953 L64.5,700.6953 M51.5,719.6953 L38.5,734.6953 M51.5,719.6953 L64.5,734.6953 " fill="none" style="stroke:#181818;stroke-width:0.5;"/><rect fill="#E2E2F0" height="66.8281" rx="2.5" ry="2.5" style="stroke:#181818;stroke-width:0.5;" width="140" x="194.5" y="14.7813"/><text fill="#000000" font-family="sans-serif" font-size="14" font-style="italic" lengthAdjust="spacing" textLength="89" x="220" y="36.3145">&#171;Component&#187;</text><text fill="#000000" font-family="sans-serif" font-size="14" lengthAdjust="spacing" textLength="126" x="201.5" y="53.9238">EliminarAlumnoView</text><text fill="#000000" font-family="sans-serif" font-size="14" lengthAdjust="spacing" textLength="47" x="241" y="71.5332">(React)</text><rect fill="#E2E2F0" height="66.8281" rx="2.5" ry="2.5" style="stroke:#181818;stroke-width:0.5;" width="140" x="194.5" y="658.5859"/><text fill="#000000" font-family="sans-serif" font-size="14" font-style="italic" lengthAdjust="spacing" textLength="89" x="220" y="680.1191">&#171;Component&#187;</text><text fill="#000000" font-family="sans-serif" font-size="14" lengthAdjust="spacing" textLength="126" x="201.5" y="697.7285">EliminarAlumnoView</text><text fill="#000000" font-family="sans-serif" font-size="14" lengthAdjust="spacing" textLength="47" x="241" y="715.3379">(React)</text><rect fill="#E2E2F0" height="66.8281" rx="2.5" ry="2.5" style="stroke:#181818;stroke-width:0.5;" width="125" x="367" y="14.7813"/><text fill="#000000" font-family="sans-serif" font-size="14" font-style="italic" lengthAdjust="spacing" textLength="50" x="404.5" y="36.3145">&#171;Hook&#187;</text><text fill="#000000" font-family="sans-serif" font-size="14" lengthAdjust="spacing" textLength="111" x="374" y="53.9238">useAlumnoDelete</text><text fill="#000000" font-family="sans-serif" font-size="14" lengthAdjust="spacing" textLength="42" x="408.5" y="71.5332">(Hook)</text><rect fill="#E2E2F0" height="66.8281" rx="2.5" ry="2.5" style="stroke:#181818;stroke-width:0.5;" width="125" x="367" y="658.5859"/><text fill="#000000" font-family="sans-serif" font-size="14" font-style="italic" lengthAdjust="spacing" textLength="50" x="404.5" y="680.1191">&#171;Hook&#187;</text><text fill="#000000" font-family="sans-serif" font-size="14" lengthAdjust="spacing" textLength="111" x="374" y="697.7285">useAlumnoDelete</text><text fill="#000000" font-family="sans-serif" font-size="14" lengthAdjust="spacing" textLength="42" x="408.5" y="715.3379">(Hook)</text><rect fill="#E2E2F0" height="66.8281" rx="2.5" ry="2.5" style="stroke:#181818;stroke-width:0.5;" width="115" x="502" y="14.7813"/><text fill="#000000" font-family="sans-serif" font-size="14" font-style="italic" lengthAdjust="spacing" textLength="62" x="528.5" y="36.3145">&#171;Service&#187;</text><text fill="#000000" font-family="sans-serif" font-size="14" lengthAdjust="spacing" textLength="101" x="509" y="53.9238">AlumnosService</text><text fill="#000000" font-family="sans-serif" font-size="14" lengthAdjust="spacing" textLength="43" x="538" y="71.5332">(Axios)</text><rect fill="#E2E2F0" height="66.8281" rx="2.5" ry="2.5" style="stroke:#181818;stroke-width:0.5;" width="115" x="502" y="658.5859"/><text fill="#000000" font-family="sans-serif" font-size="14" font-style="italic" lengthAdjust="spacing" textLength="62" x="528.5" y="680.1191">&#171;Service&#187;</text><text fill="#000000" font-family="sans-serif" font-size="14" lengthAdjust="spacing" textLength="101" x="509" y="697.7285">AlumnosService</text><text fill="#000000" font-family="sans-serif" font-size="14" lengthAdjust="spacing" textLength="43" x="538" y="715.3379">(Axios)</text><rect fill="#E2E2F0" height="66.8281" rx="2.5" ry="2.5" style="stroke:#181818;stroke-width:0.5;" width="130" x="670.5" y="14.7813"/><text fill="#000000" font-family="sans-serif" font-size="14" font-style="italic" lengthAdjust="spacing" textLength="78" x="696.5" y="36.3145">&#171;Controller&#187;</text><text fill="#000000" font-family="sans-serif" font-size="14" lengthAdjust="spacing" textLength="116" x="677.5" y="53.9238">AlumnosController</text><text fill="#000000" font-family="sans-serif" font-size="14" lengthAdjust="spacing" textLength="53" x="709" y="71.5332">(NestJS)</text><rect fill="#E2E2F0" height="66.8281" rx="2.5" ry="2.5" style="stroke:#181818;stroke-width:0.5;" width="130" x="670.5" y="658.5859"/><text fill="#000000" font-family="sans-serif" font-size="14" font-style="italic" lengthAdjust="spacing" textLength="78" x="696.5" y="680.1191">&#171;Controller&#187;</text><text fill="#000000" font-family="sans-serif" font-size="14" lengthAdjust="spacing" textLength="116" x="677.5" y="697.7285">AlumnosController</text><text fill="#000000" font-family="sans-serif" font-size="14" lengthAdjust="spacing" textLength="53" x="709" y="715.3379">(NestJS)</text><rect fill="#E2E2F0" height="66.8281" rx="2.5" ry="2.5" style="stroke:#181818;stroke-width:0.5;" width="115" x="810.5" y="14.7813"/><text fill="#000000" font-family="sans-serif" font-size="14" font-style="italic" lengthAdjust="spacing" textLength="62" x="837" y="36.3145">&#171;Service&#187;</text><text fill="#000000" font-family="sans-serif" font-size="14" lengthAdjust="spacing" textLength="101" x="817.5" y="53.9238">AlumnosService</text><text fill="#000000" font-family="sans-serif" font-size="14" lengthAdjust="spacing" textLength="53" x="841.5" y="71.5332">(NestJS)</text><rect fill="#E2E2F0" height="66.8281" rx="2.5" ry="2.5" style="stroke:#181818;stroke-width:0.5;" width="115" x="810.5" y="658.5859"/><text fill="#000000" font-family="sans-serif" font-size="14" font-style="italic" lengthAdjust="spacing" textLength="62" x="837" y="680.1191">&#171;Service&#187;</text><text fill="#000000" font-family="sans-serif" font-size="14" lengthAdjust="spacing" textLength="101" x="817.5" y="697.7285">AlumnosService</text><text fill="#000000" font-family="sans-serif" font-size="14" lengthAdjust="spacing" textLength="53" x="841.5" y="715.3379">(NestJS)</text><text fill="#000000" font-family="sans-serif" font-size="14" lengthAdjust="spacing" textLength="77" x="1085.5" y="79.5332">PostgreSQL</text><path d="M1109,29 C1109,19 1127,19 1127,19 C1127,19 1145,19 1145,29 L1145,55 C1145,65 1127,65 1127,65 C1127,65 1109,65 1109,55 L1109,29 " fill="#E2E2F0" style="stroke:#181818;stroke-width:1.5;"/><path d="M1109,29 C1109,39 1127,39 1127,39 C1127,39 1145,39 1145,29 " fill="none" style="stroke:#181818;stroke-width:1.5;"/><text fill="#000000" font-family="sans-serif" font-size="14" lengthAdjust="spacing" textLength="77" x="1085.5" y="673.1191">PostgreSQL</text><path d="M1109,686.1953 C1109,676.1953 1127,676.1953 1127,676.1953 C1127,676.1953 1145,676.1953 1145,686.1953 L1145,712.1953 C1145,722.1953 1127,722.1953 1127,722.1953 C1127,722.1953 1109,722.1953 1109,712.1953 L1109,686.1953 " fill="#E2E2F0" style="stroke:#181818;stroke-width:1.5;"/><path d="M1109,686.1953 C1109,696.1953 1127,696.1953 1127,696.1953 C1127,696.1953 1145,696.1953 1145,686.1953 " fill="none" style="stroke:#181818;stroke-width:1.5;"/><rect fill="#EEEEEE" height="3" style="stroke:#EEEEEE;stroke-width:1.0;" width="1173.5" x="0" y="113.7852"/><line style="stroke:#000000;stroke-width:1.0;" x1="0" x2="1173.5" y1="113.7852" y2="113.7852"/><line style="stroke:#000000;stroke-width:1.0;" x1="0" x2="1173.5" y1="116.7852" y2="116.7852"/><rect fill="#EEEEEE" height="24.3516" style="stroke:#000000;stroke-width:2.0;" width="202" x="485.75" y="102.6094"/><text fill="#000000" font-family="sans-serif" font-size="13" font-weight="bold" lengthAdjust="spacing" textLength="184" x="491.75" y="120.1045">Confirmaci&#243;n de eliminaci&#243;n</text><polygon fill="#181818" points="252.5,155.3125,262.5,159.3125,252.5,163.3125,256.5,159.3125" style="stroke:#181818;stroke-width:1.0;"/><line style="stroke:#181818;stroke-width:1.0;" x1="51.5" x2="258.5" y1="159.3125" y2="159.3125"/><text fill="#000000" font-family="sans-serif" font-size="13" lengthAdjust="spacing" textLength="170" x="58.5" y="154.4561">Selecciona alumno a eliminar</text><polygon fill="#181818" points="252.5,185.6641,262.5,189.6641,252.5,193.6641,256.5,189.6641" style="stroke:#181818;stroke-width:1.0;"/><line style="stroke:#181818;stroke-width:1.0;" x1="51.5" x2="258.5" y1="189.6641" y2="189.6641"/><text fill="#000000" font-family="sans-serif" font-size="13" lengthAdjust="spacing" textLength="108" x="58.5" y="184.8076">Click en "Eliminar"</text><line style="stroke:#181818;stroke-width:1.0;" x1="264.5" x2="306.5" y1="220.0156" y2="220.0156"/><line style="stroke:#181818;stroke-width:1.0;" x1="306.5" x2="306.5" y1="220.0156" y2="233.0156"/><line style="stroke:#181818;stroke-width:1.0;" x1="265.5" x2="306.5" y1="233.0156" y2="233.0156"/><polygon fill="#181818" points="275.5,229.0156,265.5,233.0156,275.5,237.0156,271.5,233.0156" style="stroke:#181818;stroke-width:1.0;"/><text fill="#000000" font-family="sans-serif" font-size="13" lengthAdjust="spacing" textLength="124" x="271.5" y="215.1592">Muestra confirmaci&#243;n</text><polygon fill="#181818" points="252.5,259.3672,262.5,263.3672,252.5,267.3672,256.5,263.3672" style="stroke:#181818;stroke-width:1.0;"/><line style="stroke:#181818;stroke-width:1.0;" x1="51.5" x2="258.5" y1="263.3672" y2="263.3672"/><text fill="#000000" font-family="sans-serif" font-size="13" lengthAdjust="spacing" textLength="120" x="58.5" y="258.5107">Confirma eliminaci&#243;n</text><rect fill="#EEEEEE" height="3" style="stroke:#EEEEEE;stroke-width:1.0;" width="1173.5" x="0" y="292.543"/><line style="stroke:#000000;stroke-width:1.0;" x1="0" x2="1173.5" y1="292.543" y2="292.543"/><line style="stroke:#000000;stroke-width:1.0;" x1="0" x2="1173.5" y1="295.543" y2="295.543"/><rect fill="#EEEEEE" height="24.3516" style="stroke:#000000;stroke-width:2.0;" width="80" x="546.75" y="281.3672"/><text fill="#000000" font-family="sans-serif" font-size="13" font-weight="bold" lengthAdjust="spacing" textLength="62" x="552.75" y="298.8623">Ejecuci&#243;n</text><polygon fill="#181818" points="417.5,334.0703,427.5,338.0703,417.5,342.0703,421.5,338.0703" style="stroke:#181818;stroke-width:1.0;"/><line style="stroke:#181818;stroke-width:1.0;" x1="264.5" x2="423.5" y1="338.0703" y2="338.0703"/><text fill="#000000" font-family="sans-serif" font-size="13" lengthAdjust="spacing" textLength="103" x="271.5" y="333.2139">removeAlumno(id)</text><polygon fill="#181818" points="547.5,364.4219,557.5,368.4219,547.5,372.4219,551.5,368.4219" style="stroke:#181818;stroke-width:1.0;"/><line style="stroke:#181818;stroke-width:1.0;" x1="429.5" x2="553.5" y1="368.4219" y2="368.4219"/><text fill="#000000" font-family="sans-serif" font-size="13" lengthAdjust="spacing" textLength="97" x="436.5" y="363.5654">deleteAlumno(id)</text><polygon fill="#181818" points="723.5,394.7734,733.5,398.7734,723.5,402.7734,727.5,398.7734" style="stroke:#181818;stroke-width:1.0;"/><line style="stroke:#181818;stroke-width:1.0;" x1="559.5" x2="729.5" y1="398.7734" y2="398.7734"/><text fill="#000000" font-family="sans-serif" font-size="13" lengthAdjust="spacing" textLength="125" x="566.5" y="393.917">DELETE /alumnos/:id</text><polygon fill="#181818" points="856,425.125,866,429.125,856,433.125,860,429.125" style="stroke:#181818;stroke-width:1.0;"/><line style="stroke:#181818;stroke-width:1.0;" x1="735.5" x2="862" y1="429.125" y2="429.125"/><text fill="#000000" font-family="sans-serif" font-size="13" lengthAdjust="spacing" textLength="59" x="742.5" y="424.2686">remove(id)</text><polygon fill="#181818" points="1115,455.4766,1125,459.4766,1115,463.4766,1119,459.4766" style="stroke:#181818;stroke-width:1.0;"/><line style="stroke:#181818;stroke-width:1.0;" x1="868" x2="1121" y1="459.4766" y2="459.4766"/><text fill="#000000" font-family="sans-serif" font-size="13" lengthAdjust="spacing" textLength="235" x="875" y="454.6201">DELETE FROM alumno WHERE id = :id</text><polygon fill="#181818" points="879,485.8281,869,489.8281,879,493.8281,875,489.8281" style="stroke:#181818;stroke-width:1.0;"/><line style="stroke:#181818;stroke-width:1.0;stroke-dasharray:2.0,2.0;" x1="873" x2="1126" y1="489.8281" y2="489.8281"/><text fill="#000000" font-family="sans-serif" font-size="13" lengthAdjust="spacing" textLength="19" x="885" y="484.9717">OK</text><polygon fill="#181818" points="746.5,516.1797,736.5,520.1797,746.5,524.1797,742.5,520.1797" style="stroke:#181818;stroke-width:1.0;"/><line style="stroke:#181818;stroke-width:1.0;stroke-dasharray:2.0,2.0;" x1="740.5" x2="867" y1="520.1797" y2="520.1797"/><text fill="#000000" font-family="sans-serif" font-size="13" lengthAdjust="spacing" textLength="19" x="752.5" y="515.3232">OK</text><polygon fill="#181818" points="570.5,546.5313,560.5,550.5313,570.5,554.5313,566.5,550.5313" style="stroke:#181818;stroke-width:1.0;"/><line style="stroke:#181818;stroke-width:1.0;stroke-dasharray:2.0,2.0;" x1="564.5" x2="734.5" y1="550.5313" y2="550.5313"/><text fill="#000000" font-family="sans-serif" font-size="13" lengthAdjust="spacing" textLength="152" x="576.5" y="545.6748">JSON Response (200 OK)</text><polygon fill="#181818" points="440.5,576.8828,430.5,580.8828,440.5,584.8828,436.5,580.8828" style="stroke:#181818;stroke-width:1.0;"/><line style="stroke:#181818;stroke-width:1.0;stroke-dasharray:2.0,2.0;" x1="434.5" x2="558.5" y1="580.8828" y2="580.8828"/><text fill="#000000" font-family="sans-serif" font-size="13" lengthAdjust="spacing" textLength="51" x="446.5" y="576.0264">Success</text><polygon fill="#181818" points="275.5,607.2344,265.5,611.2344,275.5,615.2344,271.5,611.2344" style="stroke:#181818;stroke-width:1.0;"/><line style="stroke:#181818;stroke-width:1.0;stroke-dasharray:2.0,2.0;" x1="269.5" x2="428.5" y1="611.2344" y2="611.2344"/><text fill="#000000" font-family="sans-serif" font-size="13" lengthAdjust="spacing" textLength="141" x="281.5" y="606.3779">Actualiza lista / Redirige</text><polygon fill="#181818" points="62.5,637.5859,52.5,641.5859,62.5,645.5859,58.5,641.5859" style="stroke:#181818;stroke-width:1.0;"/><line style="stroke:#181818;stroke-width:1.0;stroke-dasharray:2.0,2.0;" x1="56.5" x2="263.5" y1="641.5859" y2="641.5859"/><text fill="#000000" font-family="sans-serif" font-size="13" lengthAdjust="spacing" textLength="189" x="68.5" y="636.7295">Muestra confirmaci&#243;n de borrado</text><!--SRC=[XLD1Rjim4Bpp5GkVd4FWe4SXCc3P2j8qYLihRI-zCDJ6tLeY3P9AYdwhJ-Z7kXIbI0fgz2HIEpCQpb3kGFeehQp1VPUbUI6zXoTPEHH2AcyihCgQD3blUMe5GpqfEahjOPPNn3DfLrLJQ_E5yEMRdk-GUMSpa0u-luVBoxMfZqQZzilbbDquZCGDLkYHgTV6728ph9WR7czfaUCAjC-a0clrauoBjAlkBLExrGdsscXlJLMXPO5xTFwcY0h3eBNUR_vhOgoH_Sj5ARryb0vXzj4ulxTOVBfjqPjCY3GD7tuYMqj5VtvhA14mXXltQIh4f0WuNuPu4oWuFAN8Q0coDGMofzeJb7L5wW2eXm9dWWVz-Ax1m00rTdHAgiDCtBRdoN-WQWRpKR-jDG6BjNdkofzJUIRQzpn_xI_X1CAb665UPumRjPJ09h_D7t9OnEExHKAb604OdWsoyTEjeCX6YfjiKBhQRU_wCBzUvxiSg8GKWYx3pgU2smzZeRVUU3gsCZtYJR6zXnqw_ZtuNipVNLmmVdpG8R6YKGgTwuBgqryftyYAVacek1a92rOhoT8UsxmPDctjHBVXjZqQ6p3YBm00]--></g></svg>