<?xml version="1.0" encoding="us-ascii" standalone="no"?><svg xmlns="http://www.w3.org/2000/svg" xmlns:xlink="http://www.w3.org/1999/xlink" contentStyleType="text/css" height="1001px" preserveAspectRatio="none" style="width:1257px;height:1001px;background:#FFFFFF;" version="1.1" viewBox="0 0 1257 1001" width="1257px" zoomAndPan="magnify"><defs/><g><line style="stroke:#181818;stroke-width:0.5;stroke-dasharray:5.0,5.0;" x1="51" x2="51" y1="82.6094" y2="919.75"/><line style="stroke:#181818;stroke-width:0.5;stroke-dasharray:5.0,5.0;" x1="298.5" x2="298.5" y1="82.6094" y2="919.75"/><line style="stroke:#181818;stroke-width:0.5;stroke-dasharray:5.0,5.0;" x1="480.5" x2="480.5" y1="82.6094" y2="919.75"/><line style="stroke:#181818;stroke-width:0.5;stroke-dasharray:5.0,5.0;" x1="611.5" x2="611.5" y1="82.6094" y2="919.75"/><line style="stroke:#181818;stroke-width:0.5;stroke-dasharray:5.0,5.0;" x1="785" x2="785" y1="82.6094" y2="919.75"/><line style="stroke:#181818;stroke-width:0.5;stroke-dasharray:5.0,5.0;" x1="941.5" x2="941.5" y1="82.6094" y2="919.75"/><line style="stroke:#181818;stroke-width:0.5;stroke-dasharray:5.0,5.0;" x1="1203" x2="1203" y1="82.6094" y2="919.75"/><text fill="#000000" font-family="sans-serif" font-size="14" lengthAdjust="spacing" textLength="87" x="5" y="79.5332">Administrador</text><ellipse cx="51.5" cy="13.5" fill="#E2E2F0" rx="8" ry="8" style="stroke:#181818;stroke-width:0.5;"/><path d="M51.5,21.5 L51.5,48.5 M38.5,29.5 L64.5,29.5 M51.5,48.5 L38.5,63.5 M51.5,48.5 L64.5,63.5 " fill="none" style="stroke:#181818;stroke-width:0.5;"/><text fill="#000000" font-family="sans-serif" font-size="14" lengthAdjust="spacing" textLength="87" x="5" y="933.2832">Administrador</text><ellipse cx="51.5" cy="944.8594" fill="#E2E2F0" rx="8" ry="8" style="stroke:#181818;stroke-width:0.5;"/><path d="M51.5,952.8594 L51.5,979.8594 M38.5,960.8594 L64.5,960.8594 M51.5,979.8594 L38.5,994.8594 M51.5,979.8594 L64.5,994.8594 " fill="none" style="stroke:#181818;stroke-width:0.5;"/><rect fill="#E2E2F0" height="66.8281" rx="2.5" ry="2.5" style="stroke:#181818;stroke-width:0.5;" width="112" x="242.5" y="14.7813"/><text fill="#000000" font-family="sans-serif" font-size="14" font-style="italic" lengthAdjust="spacing" textLength="89" x="254" y="36.3145">&#171;Component&#187;</text><text fill="#000000" font-family="sans-serif" font-size="14" lengthAdjust="spacing" textLength="98" x="249.5" y="53.9238">GradosListView</text><text fill="#000000" font-family="sans-serif" font-size="14" lengthAdjust="spacing" textLength="47" x="275" y="71.5332">(React)</text><rect fill="#E2E2F0" height="66.8281" rx="2.5" ry="2.5" style="stroke:#181818;stroke-width:0.5;" width="112" x="242.5" y="918.75"/><text fill="#000000" font-family="sans-serif" font-size="14" font-style="italic" lengthAdjust="spacing" textLength="89" x="254" y="940.2832">&#171;Component&#187;</text><text fill="#000000" font-family="sans-serif" font-size="14" lengthAdjust="spacing" textLength="98" x="249.5" y="957.8926">GradosListView</text><text fill="#000000" font-family="sans-serif" font-size="14" lengthAdjust="spacing" textLength="47" x="275" y="975.502">(React)</text><rect fill="#E2E2F0" height="66.8281" rx="2.5" ry="2.5" style="stroke:#181818;stroke-width:0.5;" width="84" x="438.5" y="14.7813"/><text fill="#000000" font-family="sans-serif" font-size="14" font-style="italic" lengthAdjust="spacing" textLength="50" x="455.5" y="36.3145">&#171;Hook&#187;</text><text fill="#000000" font-family="sans-serif" font-size="14" lengthAdjust="spacing" textLength="70" x="445.5" y="53.9238">useGrados</text><text fill="#000000" font-family="sans-serif" font-size="14" lengthAdjust="spacing" textLength="42" x="459.5" y="71.5332">(Hook)</text><rect fill="#E2E2F0" height="66.8281" rx="2.5" ry="2.5" style="stroke:#181818;stroke-width:0.5;" width="84" x="438.5" y="918.75"/><text fill="#000000" font-family="sans-serif" font-size="14" font-style="italic" lengthAdjust="spacing" textLength="50" x="455.5" y="940.2832">&#171;Hook&#187;</text><text fill="#000000" font-family="sans-serif" font-size="14" lengthAdjust="spacing" textLength="70" x="445.5" y="957.8926">useGrados</text><text fill="#000000" font-family="sans-serif" font-size="14" lengthAdjust="spacing" textLength="42" x="459.5" y="975.502">(Hook)</text><rect fill="#E2E2F0" height="66.8281" rx="2.5" ry="2.5" style="stroke:#181818;stroke-width:0.5;" width="108" x="557.5" y="14.7813"/><text fill="#000000" font-family="sans-serif" font-size="14" font-style="italic" lengthAdjust="spacing" textLength="62" x="580.5" y="36.3145">&#171;Service&#187;</text><text fill="#000000" font-family="sans-serif" font-size="14" lengthAdjust="spacing" textLength="94" x="564.5" y="53.9238">GradosService</text><text fill="#000000" font-family="sans-serif" font-size="14" lengthAdjust="spacing" textLength="43" x="590" y="71.5332">(Axios)</text><rect fill="#E2E2F0" height="66.8281" rx="2.5" ry="2.5" style="stroke:#181818;stroke-width:0.5;" width="108" x="557.5" y="918.75"/><text fill="#000000" font-family="sans-serif" font-size="14" font-style="italic" lengthAdjust="spacing" textLength="62" x="580.5" y="940.2832">&#171;Service&#187;</text><text fill="#000000" font-family="sans-serif" font-size="14" lengthAdjust="spacing" textLength="94" x="564.5" y="957.8926">GradosService</text><text fill="#000000" font-family="sans-serif" font-size="14" lengthAdjust="spacing" textLength="43" x="590" y="975.502">(Axios)</text><rect fill="#E2E2F0" height="66.8281" rx="2.5" ry="2.5" style="stroke:#181818;stroke-width:0.5;" width="123" x="724" y="14.7813"/><text fill="#000000" font-family="sans-serif" font-size="14" font-style="italic" lengthAdjust="spacing" textLength="78" x="746.5" y="36.3145">&#171;Controller&#187;</text><text fill="#000000" font-family="sans-serif" font-size="14" lengthAdjust="spacing" textLength="109" x="731" y="53.9238">GradosController</text><text fill="#000000" font-family="sans-serif" font-size="14" lengthAdjust="spacing" textLength="53" x="759" y="71.5332">(NestJS)</text><rect fill="#E2E2F0" height="66.8281" rx="2.5" ry="2.5" style="stroke:#181818;stroke-width:0.5;" width="123" x="724" y="918.75"/><text fill="#000000" font-family="sans-serif" font-size="14" font-style="italic" lengthAdjust="spacing" textLength="78" x="746.5" y="940.2832">&#171;Controller&#187;</text><text fill="#000000" font-family="sans-serif" font-size="14" lengthAdjust="spacing" textLength="109" x="731" y="957.8926">GradosController</text><text fill="#000000" font-family="sans-serif" font-size="14" lengthAdjust="spacing" textLength="53" x="759" y="975.502">(NestJS)</text><rect fill="#E2E2F0" height="66.8281" rx="2.5" ry="2.5" style="stroke:#181818;stroke-width:0.5;" width="108" x="887.5" y="14.7813"/><text fill="#000000" font-family="sans-serif" font-size="14" font-style="italic" lengthAdjust="spacing" textLength="62" x="910.5" y="36.3145">&#171;Service&#187;</text><text fill="#000000" font-family="sans-serif" font-size="14" lengthAdjust="spacing" textLength="94" x="894.5" y="53.9238">GradosService</text><text fill="#000000" font-family="sans-serif" font-size="14" lengthAdjust="spacing" textLength="44" x="919.5" y="71.5332">(Logic)</text><rect fill="#E2E2F0" height="66.8281" rx="2.5" ry="2.5" style="stroke:#181818;stroke-width:0.5;" width="108" x="887.5" y="918.75"/><text fill="#000000" font-family="sans-serif" font-size="14" font-style="italic" lengthAdjust="spacing" textLength="62" x="910.5" y="940.2832">&#171;Service&#187;</text><text fill="#000000" font-family="sans-serif" font-size="14" lengthAdjust="spacing" textLength="94" x="894.5" y="957.8926">GradosService</text><text fill="#000000" font-family="sans-serif" font-size="14" lengthAdjust="spacing" textLength="44" x="919.5" y="975.502">(Logic)</text><text fill="#000000" font-family="sans-serif" font-size="14" lengthAdjust="spacing" textLength="77" x="1162" y="79.5332">PostgreSQL</text><path d="M1185.5,29 C1185.5,19 1203.5,19 1203.5,19 C1203.5,19 1221.5,19 1221.5,29 L1221.5,55 C1221.5,65 1203.5,65 1203.5,65 C1203.5,65 1185.5,65 1185.5,55 L1185.5,29 " fill="#E2E2F0" style="stroke:#181818;stroke-width:1.5;"/><path d="M1185.5,29 C1185.5,39 1203.5,39 1203.5,39 C1203.5,39 1221.5,39 1221.5,29 " fill="none" style="stroke:#181818;stroke-width:1.5;"/><text fill="#000000" font-family="sans-serif" font-size="14" lengthAdjust="spacing" textLength="77" x="1162" y="933.2832">PostgreSQL</text><path d="M1185.5,946.3594 C1185.5,936.3594 1203.5,936.3594 1203.5,936.3594 C1203.5,936.3594 1221.5,936.3594 1221.5,946.3594 L1221.5,972.3594 C1221.5,982.3594 1203.5,982.3594 1203.5,982.3594 C1203.5,982.3594 1185.5,982.3594 1185.5,972.3594 L1185.5,946.3594 " fill="#E2E2F0" style="stroke:#181818;stroke-width:1.5;"/><path d="M1185.5,946.3594 C1185.5,956.3594 1203.5,956.3594 1203.5,956.3594 C1203.5,956.3594 1221.5,956.3594 1221.5,946.3594 " fill="none" style="stroke:#181818;stroke-width:1.5;"/><polygon fill="#181818" points="286.5,110.9609,296.5,114.9609,286.5,118.9609,290.5,114.9609" style="stroke:#181818;stroke-width:1.0;"/><line style="stroke:#181818;stroke-width:1.0;" x1="51.5" x2="292.5" y1="114.9609" y2="114.9609"/><text fill="#000000" font-family="sans-serif" font-size="13" lengthAdjust="spacing" textLength="132" x="58.5" y="110.1045">Click en eliminar grado</text><rect fill="#EEEEEE" height="3" style="stroke:#EEEEEE;stroke-width:1.0;" width="1250" x="0" y="144.1367"/><line style="stroke:#000000;stroke-width:1.0;" x1="0" x2="1250" y1="144.1367" y2="144.1367"/><line style="stroke:#000000;stroke-width:1.0;" x1="0" x2="1250" y1="147.1367" y2="147.1367"/><rect fill="#EEEEEE" height="24.3516" style="stroke:#000000;stroke-width:2.0;" width="169" x="540.5" y="132.9609"/><text fill="#000000" font-family="sans-serif" font-size="13" font-weight="bold" lengthAdjust="spacing" textLength="151" x="546.5" y="150.4561">Verificaci&#243;n de impacto</text><polygon fill="#181818" points="468.5,185.6641,478.5,189.6641,468.5,193.6641,472.5,189.6641" style="stroke:#181818;stroke-width:1.0;"/><line style="stroke:#181818;stroke-width:1.0;" x1="298.5" x2="474.5" y1="189.6641" y2="189.6641"/><text fill="#000000" font-family="sans-serif" font-size="13" lengthAdjust="spacing" textLength="107" x="305.5" y="184.8076">verificarImpacto(id)</text><polygon fill="#181818" points="599.5,216.0156,609.5,220.0156,599.5,224.0156,603.5,220.0156" style="stroke:#181818;stroke-width:1.0;"/><line style="stroke:#181818;stroke-width:1.0;" x1="480.5" x2="605.5" y1="220.0156" y2="220.0156"/><text fill="#000000" font-family="sans-serif" font-size="13" lengthAdjust="spacing" textLength="107" x="487.5" y="215.1592">verificarImpacto(id)</text><polygon fill="#181818" points="773.5,246.3672,783.5,250.3672,773.5,254.3672,777.5,250.3672" style="stroke:#181818;stroke-width:1.0;"/><line style="stroke:#181818;stroke-width:1.0;" x1="611.5" x2="779.5" y1="250.3672" y2="250.3672"/><text fill="#000000" font-family="sans-serif" font-size="13" lengthAdjust="spacing" textLength="141" x="618.5" y="245.5107">GET /grados/:id/impacto</text><polygon fill="#181818" points="929.5,276.7188,939.5,280.7188,929.5,284.7188,933.5,280.7188" style="stroke:#181818;stroke-width:1.0;"/><line style="stroke:#181818;stroke-width:1.0;" x1="785.5" x2="935.5" y1="280.7188" y2="280.7188"/><text fill="#000000" font-family="sans-serif" font-size="13" lengthAdjust="spacing" textLength="132" x="792.5" y="275.8623">countDependencies(id)</text><polygon fill="#181818" points="1191.5,307.0703,1201.5,311.0703,1191.5,315.0703,1195.5,311.0703" style="stroke:#181818;stroke-width:1.0;"/><line style="stroke:#181818;stroke-width:1.0;" x1="941.5" x2="1197.5" y1="311.0703" y2="311.0703"/><text fill="#000000" font-family="sans-serif" font-size="13" lengthAdjust="spacing" textLength="127" x="948.5" y="306.2139">SELECT COUNT(*) ...</text><polygon fill="#181818" points="952.5,337.4219,942.5,341.4219,952.5,345.4219,948.5,341.4219" style="stroke:#181818;stroke-width:1.0;"/><line style="stroke:#181818;stroke-width:1.0;stroke-dasharray:2.0,2.0;" x1="946.5" x2="1202.5" y1="341.4219" y2="341.4219"/><text fill="#000000" font-family="sans-serif" font-size="13" lengthAdjust="spacing" textLength="94" x="958.5" y="336.5654">totalAsignaturas</text><polygon fill="#181818" points="796.5,367.7734,786.5,371.7734,796.5,375.7734,792.5,371.7734" style="stroke:#181818;stroke-width:1.0;"/><line style="stroke:#181818;stroke-width:1.0;stroke-dasharray:2.0,2.0;" x1="790.5" x2="940.5" y1="371.7734" y2="371.7734"/><text fill="#000000" font-family="sans-serif" font-size="13" lengthAdjust="spacing" textLength="94" x="802.5" y="366.917">totalAsignaturas</text><polygon fill="#181818" points="622.5,398.125,612.5,402.125,622.5,406.125,618.5,402.125" style="stroke:#181818;stroke-width:1.0;"/><line style="stroke:#181818;stroke-width:1.0;stroke-dasharray:2.0,2.0;" x1="616.5" x2="784.5" y1="402.125" y2="402.125"/><text fill="#000000" font-family="sans-serif" font-size="13" lengthAdjust="spacing" textLength="150" x="628.5" y="397.2686">200 OK (totalAsignaturas)</text><polygon fill="#181818" points="491.5,428.4766,481.5,432.4766,491.5,436.4766,487.5,432.4766" style="stroke:#181818;stroke-width:1.0;"/><line style="stroke:#181818;stroke-width:1.0;stroke-dasharray:2.0,2.0;" x1="485.5" x2="610.5" y1="432.4766" y2="432.4766"/><text fill="#000000" font-family="sans-serif" font-size="13" lengthAdjust="spacing" textLength="94" x="497.5" y="427.6201">totalAsignaturas</text><polygon fill="#181818" points="309.5,458.8281,299.5,462.8281,309.5,466.8281,305.5,462.8281" style="stroke:#181818;stroke-width:1.0;"/><line style="stroke:#181818;stroke-width:1.0;stroke-dasharray:2.0,2.0;" x1="303.5" x2="479.5" y1="462.8281" y2="462.8281"/><text fill="#000000" font-family="sans-serif" font-size="13" lengthAdjust="spacing" textLength="94" x="315.5" y="457.9717">totalAsignaturas</text><polygon fill="#181818" points="62.5,489.1797,52.5,493.1797,62.5,497.1797,58.5,493.1797" style="stroke:#181818;stroke-width:1.0;"/><line style="stroke:#181818;stroke-width:1.0;stroke-dasharray:2.0,2.0;" x1="56.5" x2="297.5" y1="493.1797" y2="493.1797"/><text fill="#000000" font-family="sans-serif" font-size="13" lengthAdjust="spacing" textLength="223" x="68.5" y="488.3232">Mostrar confirmaci&#243;n(totalAsignaturas)</text><polygon fill="#181818" points="286.5,519.5313,296.5,523.5313,286.5,527.5313,290.5,523.5313" style="stroke:#181818;stroke-width:1.0;"/><line style="stroke:#181818;stroke-width:1.0;" x1="51.5" x2="292.5" y1="523.5313" y2="523.5313"/><text fill="#000000" font-family="sans-serif" font-size="13" lengthAdjust="spacing" textLength="120" x="58.5" y="518.6748">Confirma eliminaci&#243;n</text><rect fill="#EEEEEE" height="3" style="stroke:#EEEEEE;stroke-width:1.0;" width="1250" x="0" y="552.707"/><line style="stroke:#000000;stroke-width:1.0;" x1="0" x2="1250" y1="552.707" y2="552.707"/><line style="stroke:#000000;stroke-width:1.0;" x1="0" x2="1250" y1="555.707" y2="555.707"/><rect fill="#EEEEEE" height="24.3516" style="stroke:#000000;stroke-width:2.0;" width="80" x="585" y="541.5313"/><text fill="#000000" font-family="sans-serif" font-size="13" font-weight="bold" lengthAdjust="spacing" textLength="62" x="591" y="559.0264">Ejecuci&#243;n</text><polygon fill="#181818" points="468.5,594.2344,478.5,598.2344,468.5,602.2344,472.5,598.2344" style="stroke:#181818;stroke-width:1.0;"/><line style="stroke:#181818;stroke-width:1.0;" x1="298.5" x2="474.5" y1="598.2344" y2="598.2344"/><text fill="#000000" font-family="sans-serif" font-size="13" lengthAdjust="spacing" textLength="88" x="305.5" y="593.3779">deleteGrado(id)</text><polygon fill="#181818" points="599.5,624.5859,609.5,628.5859,599.5,632.5859,603.5,628.5859" style="stroke:#181818;stroke-width:1.0;"/><line style="stroke:#181818;stroke-width:1.0;" x1="480.5" x2="605.5" y1="628.5859" y2="628.5859"/><text fill="#000000" font-family="sans-serif" font-size="13" lengthAdjust="spacing" textLength="88" x="487.5" y="623.7295">deleteGrado(id)</text><polygon fill="#181818" points="773.5,654.9375,783.5,658.9375,773.5,662.9375,777.5,658.9375" style="stroke:#181818;stroke-width:1.0;"/><line style="stroke:#181818;stroke-width:1.0;" x1="611.5" x2="779.5" y1="658.9375" y2="658.9375"/><text fill="#000000" font-family="sans-serif" font-size="13" lengthAdjust="spacing" textLength="115" x="618.5" y="654.0811">DELETE /grados/:id</text><polygon fill="#181818" points="929.5,685.2891,939.5,689.2891,929.5,693.2891,933.5,689.2891" style="stroke:#181818;stroke-width:1.0;"/><line style="stroke:#181818;stroke-width:1.0;" x1="785.5" x2="935.5" y1="689.2891" y2="689.2891"/><text fill="#000000" font-family="sans-serif" font-size="13" lengthAdjust="spacing" textLength="59" x="792.5" y="684.4326">remove(id)</text><polygon fill="#181818" points="1191.5,715.6406,1201.5,719.6406,1191.5,723.6406,1195.5,719.6406" style="stroke:#181818;stroke-width:1.0;"/><line style="stroke:#181818;stroke-width:1.0;" x1="941.5" x2="1197.5" y1="719.6406" y2="719.6406"/><text fill="#000000" font-family="sans-serif" font-size="13" lengthAdjust="spacing" textLength="238" x="948.5" y="714.7842">DELETE FROM "Grado" WHERE id = :id</text><polygon fill="#181818" points="952.5,745.9922,942.5,749.9922,952.5,753.9922,948.5,749.9922" style="stroke:#181818;stroke-width:1.0;"/><line style="stroke:#181818;stroke-width:1.0;stroke-dasharray:2.0,2.0;" x1="946.5" x2="1202.5" y1="749.9922" y2="749.9922"/><text fill="#000000" font-family="sans-serif" font-size="13" lengthAdjust="spacing" textLength="19" x="958.5" y="745.1357">OK</text><polygon fill="#181818" points="796.5,776.3438,786.5,780.3438,796.5,784.3438,792.5,780.3438" style="stroke:#181818;stroke-width:1.0;"/><line style="stroke:#181818;stroke-width:1.0;stroke-dasharray:2.0,2.0;" x1="790.5" x2="940.5" y1="780.3438" y2="780.3438"/><text fill="#000000" font-family="sans-serif" font-size="13" lengthAdjust="spacing" textLength="121" x="802.5" y="775.4873">OK (204 No Content)</text><polygon fill="#181818" points="622.5,806.6953,612.5,810.6953,622.5,814.6953,618.5,810.6953" style="stroke:#181818;stroke-width:1.0;"/><line style="stroke:#181818;stroke-width:1.0;stroke-dasharray:2.0,2.0;" x1="616.5" x2="784.5" y1="810.6953" y2="810.6953"/><text fill="#000000" font-family="sans-serif" font-size="13" lengthAdjust="spacing" textLength="19" x="628.5" y="805.8389">OK</text><polygon fill="#181818" points="491.5,837.0469,481.5,841.0469,491.5,845.0469,487.5,841.0469" style="stroke:#181818;stroke-width:1.0;"/><line style="stroke:#181818;stroke-width:1.0;stroke-dasharray:2.0,2.0;" x1="485.5" x2="610.5" y1="841.0469" y2="841.0469"/><text fill="#000000" font-family="sans-serif" font-size="13" lengthAdjust="spacing" textLength="19" x="497.5" y="836.1904">OK</text><polygon fill="#181818" points="309.5,867.3984,299.5,871.3984,309.5,875.3984,305.5,871.3984" style="stroke:#181818;stroke-width:1.0;"/><line style="stroke:#181818;stroke-width:1.0;stroke-dasharray:2.0,2.0;" x1="303.5" x2="479.5" y1="871.3984" y2="871.3984"/><text fill="#000000" font-family="sans-serif" font-size="13" lengthAdjust="spacing" textLength="158" x="315.5" y="866.542">Quita grado de la lista local</text><polygon fill="#181818" points="62.5,897.75,52.5,901.75,62.5,905.75,58.5,901.75" style="stroke:#181818;stroke-width:1.0;"/><line style="stroke:#181818;stroke-width:1.0;stroke-dasharray:2.0,2.0;" x1="56.5" x2="297.5" y1="901.75" y2="901.75"/><text fill="#000000" font-family="sans-serif" font-size="13" lengthAdjust="spacing" textLength="150" x="68.5" y="896.8936">Muestra mensaje de &#233;xito</text><!--SRC=[XLJBSjf04BphAwOuGQeCb2idob35Gtx466B0pYMNZJIGCT8kjRl2_gMSymd-iSngXH4FEHTfjTFTJ4ttODOaDqAB5Cnl4QjNaYjOYiHW48Z8AWtzE2L9ncgkwe2XbYBQ26cXTkFkp9YBpuIlFsLzXinfr40OUBg3gwkXIZTAehIztY4pC-Z9JBfLQkqvxiGizpecUFGSzPOYP5B_ZPJnhElYbfd5wJnvgAJLAabGCt-2ndwRUu5z8Mzvz_6_5iPgHP5N69nh8HPM_186eVPT6RlIE7ySv-ZH80WEfWeNFJUl3WmJYjQ04Z0XhWiDAmS8WcuNdb7JaY8HqVjV2J42fHld47IxGS1iriZdru5jWTHt7b6dk17aDSPyJAi2zr5dR6am7RW95z3Asp6j3iMjukU34eWfWxryf39fHxX16QEC24skFoZfZmOCcuVZSBY0uVHfigX_QK2psGouS74ePfKLIT_GIWgRQM5AEiUDda3B7HvEuBBTXkazr8yfvJ7ivteYx6UwC- -ax4pXug7L7NXGxgnvFd99ElM6dccXAYC5RPUHd9ud97p1AFFnECb4Z0bQltDLSJY6L2PXn8ujmd8OgaEWCLLRFEzyeNCzcpuKsrM37xVXB0IAeGjEzpG8q_jFh7TUNhQ_maJbz_p7q_Z4VPOwPpDV7nhxc94LVXFTtYK24dQ5doeIIQNB6ReFI54QyOAE-FxdZNXX_W40]--></g></svg>