<?xml version="1.0" encoding="us-ascii" standalone="no"?><svg xmlns="http://www.w3.org/2000/svg" xmlns:xlink="http://www.w3.org/1999/xlink" contentStyleType="text/css" height="622px" preserveAspectRatio="none" style="width:1108px;height:622px;background:#FFFFFF;" version="1.1" viewBox="0 0 1108 622" width="1108px" zoomAndPan="magnify"><defs/><g><line style="stroke:#181818;stroke-width:0.5;stroke-dasharray:5.0,5.0;" x1="51" x2="51" y1="82.6094" y2="540.5313"/><line style="stroke:#181818;stroke-width:0.5;stroke-dasharray:5.0,5.0;" x1="225.5" x2="225.5" y1="82.6094" y2="540.5313"/><line style="stroke:#181818;stroke-width:0.5;stroke-dasharray:5.0,5.0;" x1="407.5" x2="407.5" y1="82.6094" y2="540.5313"/><line style="stroke:#181818;stroke-width:0.5;stroke-dasharray:5.0,5.0;" x1="519.5" x2="519.5" y1="82.6094" y2="540.5313"/><line style="stroke:#181818;stroke-width:0.5;stroke-dasharray:5.0,5.0;" x1="658" x2="658" y1="82.6094" y2="540.5313"/><line style="stroke:#181818;stroke-width:0.5;stroke-dasharray:5.0,5.0;" x1="803.5" x2="803.5" y1="82.6094" y2="540.5313"/><line style="stroke:#181818;stroke-width:0.5;stroke-dasharray:5.0,5.0;" x1="1065" x2="1065" y1="82.6094" y2="540.5313"/><text fill="#000000" font-family="sans-serif" font-size="14" lengthAdjust="spacing" textLength="87" x="5" y="79.5332">Administrador</text><ellipse cx="51.5" cy="13.5" fill="#E2E2F0" rx="8" ry="8" style="stroke:#181818;stroke-width:0.5;"/><path d="M51.5,21.5 L51.5,48.5 M38.5,29.5 L64.5,29.5 M51.5,48.5 L38.5,63.5 M51.5,48.5 L64.5,63.5 " fill="none" style="stroke:#181818;stroke-width:0.5;"/><text fill="#000000" font-family="sans-serif" font-size="14" lengthAdjust="spacing" textLength="87" x="5" y="554.0645">Administrador</text><ellipse cx="51.5" cy="565.6406" fill="#E2E2F0" rx="8" ry="8" style="stroke:#181818;stroke-width:0.5;"/><path d="M51.5,573.6406 L51.5,600.6406 M38.5,581.6406 L64.5,581.6406 M51.5,600.6406 L38.5,615.6406 M51.5,600.6406 L64.5,615.6406 " fill="none" style="stroke:#181818;stroke-width:0.5;"/><rect fill="#E2E2F0" height="66.8281" rx="2.5" ry="2.5" style="stroke:#181818;stroke-width:0.5;" width="112" x="169.5" y="14.7813"/><text fill="#000000" font-family="sans-serif" font-size="14" font-style="italic" lengthAdjust="spacing" textLength="89" x="181" y="36.3145">&#171;Component&#187;</text><text fill="#000000" font-family="sans-serif" font-size="14" lengthAdjust="spacing" textLength="98" x="176.5" y="53.9238">GradosListView</text><text fill="#000000" font-family="sans-serif" font-size="14" lengthAdjust="spacing" textLength="47" x="202" y="71.5332">(React)</text><rect fill="#E2E2F0" height="66.8281" rx="2.5" ry="2.5" style="stroke:#181818;stroke-width:0.5;" width="112" x="169.5" y="539.5313"/><text fill="#000000" font-family="sans-serif" font-size="14" font-style="italic" lengthAdjust="spacing" textLength="89" x="181" y="561.0645">&#171;Component&#187;</text><text fill="#000000" font-family="sans-serif" font-size="14" lengthAdjust="spacing" textLength="98" x="176.5" y="578.6738">GradosListView</text><text fill="#000000" font-family="sans-serif" font-size="14" lengthAdjust="spacing" textLength="47" x="202" y="596.2832">(React)</text><rect fill="#E2E2F0" height="66.8281" rx="2.5" ry="2.5" style="stroke:#181818;stroke-width:0.5;" width="84" x="365.5" y="14.7813"/><text fill="#000000" font-family="sans-serif" font-size="14" font-style="italic" lengthAdjust="spacing" textLength="50" x="382.5" y="36.3145">&#171;Hook&#187;</text><text fill="#000000" font-family="sans-serif" font-size="14" lengthAdjust="spacing" textLength="70" x="372.5" y="53.9238">useGrados</text><text fill="#000000" font-family="sans-serif" font-size="14" lengthAdjust="spacing" textLength="42" x="386.5" y="71.5332">(Hook)</text><rect fill="#E2E2F0" height="66.8281" rx="2.5" ry="2.5" style="stroke:#181818;stroke-width:0.5;" width="84" x="365.5" y="539.5313"/><text fill="#000000" font-family="sans-serif" font-size="14" font-style="italic" lengthAdjust="spacing" textLength="50" x="382.5" y="561.0645">&#171;Hook&#187;</text><text fill="#000000" font-family="sans-serif" font-size="14" lengthAdjust="spacing" textLength="70" x="372.5" y="578.6738">useGrados</text><text fill="#000000" font-family="sans-serif" font-size="14" lengthAdjust="spacing" textLength="42" x="386.5" y="596.2832">(Hook)</text><rect fill="#E2E2F0" height="66.8281" rx="2.5" ry="2.5" style="stroke:#181818;stroke-width:0.5;" width="108" x="465.5" y="14.7813"/><text fill="#000000" font-family="sans-serif" font-size="14" font-style="italic" lengthAdjust="spacing" textLength="62" x="488.5" y="36.3145">&#171;Service&#187;</text><text fill="#000000" font-family="sans-serif" font-size="14" lengthAdjust="spacing" textLength="94" x="472.5" y="53.9238">GradosService</text><text fill="#000000" font-family="sans-serif" font-size="14" lengthAdjust="spacing" textLength="43" x="498" y="71.5332">(Axios)</text><rect fill="#E2E2F0" height="66.8281" rx="2.5" ry="2.5" style="stroke:#181818;stroke-width:0.5;" width="108" x="465.5" y="539.5313"/><text fill="#000000" font-family="sans-serif" font-size="14" font-style="italic" lengthAdjust="spacing" textLength="62" x="488.5" y="561.0645">&#171;Service&#187;</text><text fill="#000000" font-family="sans-serif" font-size="14" lengthAdjust="spacing" textLength="94" x="472.5" y="578.6738">GradosService</text><text fill="#000000" font-family="sans-serif" font-size="14" lengthAdjust="spacing" textLength="43" x="498" y="596.2832">(Axios)</text><rect fill="#E2E2F0" height="66.8281" rx="2.5" ry="2.5" style="stroke:#181818;stroke-width:0.5;" width="123" x="597" y="14.7813"/><text fill="#000000" font-family="sans-serif" font-size="14" font-style="italic" lengthAdjust="spacing" textLength="78" x="619.5" y="36.3145">&#171;Controller&#187;</text><text fill="#000000" font-family="sans-serif" font-size="14" lengthAdjust="spacing" textLength="109" x="604" y="53.9238">GradosController</text><text fill="#000000" font-family="sans-serif" font-size="14" lengthAdjust="spacing" textLength="53" x="632" y="71.5332">(NestJS)</text><rect fill="#E2E2F0" height="66.8281" rx="2.5" ry="2.5" style="stroke:#181818;stroke-width:0.5;" width="123" x="597" y="539.5313"/><text fill="#000000" font-family="sans-serif" font-size="14" font-style="italic" lengthAdjust="spacing" textLength="78" x="619.5" y="561.0645">&#171;Controller&#187;</text><text fill="#000000" font-family="sans-serif" font-size="14" lengthAdjust="spacing" textLength="109" x="604" y="578.6738">GradosController</text><text fill="#000000" font-family="sans-serif" font-size="14" lengthAdjust="spacing" textLength="53" x="632" y="596.2832">(NestJS)</text><rect fill="#E2E2F0" height="66.8281" rx="2.5" ry="2.5" style="stroke:#181818;stroke-width:0.5;" width="108" x="749.5" y="14.7813"/><text fill="#000000" font-family="sans-serif" font-size="14" font-style="italic" lengthAdjust="spacing" textLength="62" x="772.5" y="36.3145">&#171;Service&#187;</text><text fill="#000000" font-family="sans-serif" font-size="14" lengthAdjust="spacing" textLength="94" x="756.5" y="53.9238">GradosService</text><text fill="#000000" font-family="sans-serif" font-size="14" lengthAdjust="spacing" textLength="44" x="781.5" y="71.5332">(Logic)</text><rect fill="#E2E2F0" height="66.8281" rx="2.5" ry="2.5" style="stroke:#181818;stroke-width:0.5;" width="108" x="749.5" y="539.5313"/><text fill="#000000" font-family="sans-serif" font-size="14" font-style="italic" lengthAdjust="spacing" textLength="62" x="772.5" y="561.0645">&#171;Service&#187;</text><text fill="#000000" font-family="sans-serif" font-size="14" lengthAdjust="spacing" textLength="94" x="756.5" y="578.6738">GradosService</text><text fill="#000000" font-family="sans-serif" font-size="14" lengthAdjust="spacing" textLength="44" x="781.5" y="596.2832">(Logic)</text><text fill="#000000" font-family="sans-serif" font-size="14" lengthAdjust="spacing" textLength="77" x="1024" y="79.5332">PostgreSQL</text><path d="M1047.5,29 C1047.5,19 1065.5,19 1065.5,19 C1065.5,19 1083.5,19 1083.5,29 L1083.5,55 C1083.5,65 1065.5,65 1065.5,65 C1065.5,65 1047.5,65 1047.5,55 L1047.5,29 " fill="#E2E2F0" style="stroke:#181818;stroke-width:1.5;"/><path d="M1047.5,29 C1047.5,39 1065.5,39 1065.5,39 C1065.5,39 1083.5,39 1083.5,29 " fill="none" style="stroke:#181818;stroke-width:1.5;"/><text fill="#000000" font-family="sans-serif" font-size="14" lengthAdjust="spacing" textLength="77" x="1024" y="554.0645">PostgreSQL</text><path d="M1047.5,567.1406 C1047.5,557.1406 1065.5,557.1406 1065.5,557.1406 C1065.5,557.1406 1083.5,557.1406 1083.5,567.1406 L1083.5,593.1406 C1083.5,603.1406 1065.5,603.1406 1065.5,603.1406 C1065.5,603.1406 1047.5,603.1406 1047.5,593.1406 L1047.5,567.1406 " fill="#E2E2F0" style="stroke:#181818;stroke-width:1.5;"/><path d="M1047.5,567.1406 C1047.5,577.1406 1065.5,577.1406 1065.5,577.1406 C1065.5,577.1406 1083.5,577.1406 1083.5,567.1406 " fill="none" style="stroke:#181818;stroke-width:1.5;"/><polygon fill="#181818" points="213.5,110.9609,223.5,114.9609,213.5,118.9609,217.5,114.9609" style="stroke:#181818;stroke-width:1.0;"/><line style="stroke:#181818;stroke-width:1.0;" x1="51.5" x2="219.5" y1="114.9609" y2="114.9609"/><text fill="#000000" font-family="sans-serif" font-size="13" lengthAdjust="spacing" textLength="132" x="58.5" y="110.1045">Click en eliminar grado</text><line style="stroke:#181818;stroke-width:1.0;" x1="225.5" x2="267.5" y1="145.3125" y2="145.3125"/><line style="stroke:#181818;stroke-width:1.0;" x1="267.5" x2="267.5" y1="145.3125" y2="158.3125"/><line style="stroke:#181818;stroke-width:1.0;" x1="226.5" x2="267.5" y1="158.3125" y2="158.3125"/><polygon fill="#181818" points="236.5,154.3125,226.5,158.3125,236.5,162.3125,232.5,158.3125" style="stroke:#181818;stroke-width:1.0;"/><text fill="#000000" font-family="sans-serif" font-size="13" lengthAdjust="spacing" textLength="121" x="232.5" y="140.4561">Mostrar confirmaci&#243;n</text><polygon fill="#181818" points="213.5,184.6641,223.5,188.6641,213.5,192.6641,217.5,188.6641" style="stroke:#181818;stroke-width:1.0;"/><line style="stroke:#181818;stroke-width:1.0;" x1="51.5" x2="219.5" y1="188.6641" y2="188.6641"/><text fill="#000000" font-family="sans-serif" font-size="13" lengthAdjust="spacing" textLength="120" x="58.5" y="183.8076">Confirma eliminaci&#243;n</text><polygon fill="#181818" points="395.5,215.0156,405.5,219.0156,395.5,223.0156,399.5,219.0156" style="stroke:#181818;stroke-width:1.0;"/><line style="stroke:#181818;stroke-width:1.0;" x1="225.5" x2="401.5" y1="219.0156" y2="219.0156"/><text fill="#000000" font-family="sans-serif" font-size="13" lengthAdjust="spacing" textLength="88" x="232.5" y="214.1592">deleteGrado(id)</text><polygon fill="#181818" points="507.5,245.3672,517.5,249.3672,507.5,253.3672,511.5,249.3672" style="stroke:#181818;stroke-width:1.0;"/><line style="stroke:#181818;stroke-width:1.0;" x1="407.5" x2="513.5" y1="249.3672" y2="249.3672"/><text fill="#000000" font-family="sans-serif" font-size="13" lengthAdjust="spacing" textLength="88" x="414.5" y="244.5107">deleteGrado(id)</text><polygon fill="#181818" points="646.5,275.7188,656.5,279.7188,646.5,283.7188,650.5,279.7188" style="stroke:#181818;stroke-width:1.0;"/><line style="stroke:#181818;stroke-width:1.0;" x1="519.5" x2="652.5" y1="279.7188" y2="279.7188"/><text fill="#000000" font-family="sans-serif" font-size="13" lengthAdjust="spacing" textLength="115" x="526.5" y="274.8623">DELETE /grados/:id</text><polygon fill="#181818" points="791.5,306.0703,801.5,310.0703,791.5,314.0703,795.5,310.0703" style="stroke:#181818;stroke-width:1.0;"/><line style="stroke:#181818;stroke-width:1.0;" x1="658.5" x2="797.5" y1="310.0703" y2="310.0703"/><text fill="#000000" font-family="sans-serif" font-size="13" lengthAdjust="spacing" textLength="59" x="665.5" y="305.2139">remove(id)</text><polygon fill="#181818" points="1053.5,336.4219,1063.5,340.4219,1053.5,344.4219,1057.5,340.4219" style="stroke:#181818;stroke-width:1.0;"/><line style="stroke:#181818;stroke-width:1.0;" x1="803.5" x2="1059.5" y1="340.4219" y2="340.4219"/><text fill="#000000" font-family="sans-serif" font-size="13" lengthAdjust="spacing" textLength="238" x="810.5" y="335.5654">DELETE FROM "Grado" WHERE id = :id</text><polygon fill="#181818" points="814.5,366.7734,804.5,370.7734,814.5,374.7734,810.5,370.7734" style="stroke:#181818;stroke-width:1.0;"/><line style="stroke:#181818;stroke-width:1.0;stroke-dasharray:2.0,2.0;" x1="808.5" x2="1064.5" y1="370.7734" y2="370.7734"/><text fill="#000000" font-family="sans-serif" font-size="13" lengthAdjust="spacing" textLength="19" x="820.5" y="365.917">OK</text><polygon fill="#181818" points="669.5,397.125,659.5,401.125,669.5,405.125,665.5,401.125" style="stroke:#181818;stroke-width:1.0;"/><line style="stroke:#181818;stroke-width:1.0;stroke-dasharray:2.0,2.0;" x1="663.5" x2="802.5" y1="401.125" y2="401.125"/><text fill="#000000" font-family="sans-serif" font-size="13" lengthAdjust="spacing" textLength="121" x="675.5" y="396.2686">OK (204 No Content)</text><polygon fill="#181818" points="530.5,427.4766,520.5,431.4766,530.5,435.4766,526.5,431.4766" style="stroke:#181818;stroke-width:1.0;"/><line style="stroke:#181818;stroke-width:1.0;stroke-dasharray:2.0,2.0;" x1="524.5" x2="657.5" y1="431.4766" y2="431.4766"/><text fill="#000000" font-family="sans-serif" font-size="13" lengthAdjust="spacing" textLength="19" x="536.5" y="426.6201">OK</text><polygon fill="#181818" points="418.5,457.8281,408.5,461.8281,418.5,465.8281,414.5,461.8281" style="stroke:#181818;stroke-width:1.0;"/><line style="stroke:#181818;stroke-width:1.0;stroke-dasharray:2.0,2.0;" x1="412.5" x2="518.5" y1="461.8281" y2="461.8281"/><text fill="#000000" font-family="sans-serif" font-size="13" lengthAdjust="spacing" textLength="19" x="424.5" y="456.9717">OK</text><polygon fill="#181818" points="236.5,488.1797,226.5,492.1797,236.5,496.1797,232.5,492.1797" style="stroke:#181818;stroke-width:1.0;"/><line style="stroke:#181818;stroke-width:1.0;stroke-dasharray:2.0,2.0;" x1="230.5" x2="406.5" y1="492.1797" y2="492.1797"/><text fill="#000000" font-family="sans-serif" font-size="13" lengthAdjust="spacing" textLength="158" x="242.5" y="487.3232">Quita grado de la lista local</text><polygon fill="#181818" points="62.5,518.5313,52.5,522.5313,62.5,526.5313,58.5,522.5313" style="stroke:#181818;stroke-width:1.0;"/><line style="stroke:#181818;stroke-width:1.0;stroke-dasharray:2.0,2.0;" x1="56.5" x2="224.5" y1="522.5313" y2="522.5313"/><text fill="#000000" font-family="sans-serif" font-size="13" lengthAdjust="spacing" textLength="150" x="68.5" y="517.6748">Muestra mensaje de &#233;xito</text><!--SRC=[XL9BSjf04Dth55siO46HIdb5ELHP8Fp3422VJJPZgOtRZAQfcS7sbRBE4Nonz6Y4aHodl95c-dtgwRNSbinEMLM2krS5Fv7Pm9tI3fD4vPujd1Kb6NBU2ceJeNhAQQUCXyvvcBcPW3y8dtwPxWf5q-k0Sl3z4avFnrpksA3ner5RkNSOnIAwODv6JJY9AhpU2Y9xZVQHSXJHsJEnYwffFHLbVNfVF6RZBMkDLlHpTFvg7GsEG1NvSFaememtb4U7zBq8XVBgLZc4pbTsVcDnlPnLx4cQ9ArMeJyAVGrXh2dV0Xf0JO8h2vj0I0GyK6uuY2paREx8bYgdbp_cVtOrvs0NkT6iwde81MhqSHTTAdf9DHRujTH_AQ-Gq1hL3M6IpR9l6Gogp6umf29fuC9EZwOMItx4oYzj-4tIeyzqjRYfM-_0pujibG4Ly0M2h_3wRSF5TSFeRRB5DNG_Vpg1ELTp-I5xhMZj3nQhQTEghah6iPr3lSizUHKt92M1Lg1b1VBaNEcgPc6sDoFxssEuG8d6gGSCmfVVp-JvBm00]--></g></svg>