<?xml version="1.0" encoding="us-ascii" standalone="no"?><svg xmlns="http://www.w3.org/2000/svg" xmlns:xlink="http://www.w3.org/1999/xlink" contentStyleType="text/css" height="548px" preserveAspectRatio="none" style="width:1396px;height:548px;background:#FFFFFF;" version="1.1" viewBox="0 0 1396 548" width="1396px" zoomAndPan="magnify"><defs/><g><line style="stroke:#181818;stroke-width:0.5;stroke-dasharray:5.0,5.0;" x1="51" x2="51" y1="82.6094" y2="466.8281"/><line style="stroke:#181818;stroke-width:0.5;stroke-dasharray:5.0,5.0;" x1="261" x2="261" y1="82.6094" y2="466.8281"/><line style="stroke:#181818;stroke-width:0.5;stroke-dasharray:5.0,5.0;" x1="443" x2="443" y1="82.6094" y2="466.8281"/><line style="stroke:#181818;stroke-width:0.5;stroke-dasharray:5.0,5.0;" x1="602" x2="602" y1="82.6094" y2="466.8281"/><line style="stroke:#181818;stroke-width:0.5;stroke-dasharray:5.0,5.0;" x1="832.5" x2="832.5" y1="82.6094" y2="466.8281"/><line style="stroke:#181818;stroke-width:0.5;stroke-dasharray:5.0,5.0;" x1="991" x2="991" y1="82.6094" y2="466.8281"/><line style="stroke:#181818;stroke-width:0.5;stroke-dasharray:5.0,5.0;" x1="1353" x2="1353" y1="82.6094" y2="466.8281"/><text fill="#000000" font-family="sans-serif" font-size="14" lengthAdjust="spacing" textLength="87" x="5" y="79.5332">Administrador</text><ellipse cx="51.5" cy="13.5" fill="#E2E2F0" rx="8" ry="8" style="stroke:#181818;stroke-width:0.5;"/><path d="M51.5,21.5 L51.5,48.5 M38.5,29.5 L64.5,29.5 M51.5,48.5 L38.5,63.5 M51.5,48.5 L64.5,63.5 " fill="none" style="stroke:#181818;stroke-width:0.5;"/><text fill="#000000" font-family="sans-serif" font-size="14" lengthAdjust="spacing" textLength="87" x="5" y="480.3613">Administrador</text><ellipse cx="51.5" cy="491.9375" fill="#E2E2F0" rx="8" ry="8" style="stroke:#181818;stroke-width:0.5;"/><path d="M51.5,499.9375 L51.5,526.9375 M38.5,507.9375 L64.5,507.9375 M51.5,526.9375 L38.5,541.9375 M51.5,526.9375 L64.5,541.9375 " fill="none" style="stroke:#181818;stroke-width:0.5;"/><rect fill="#E2E2F0" height="66.8281" rx="2.5" ry="2.5" style="stroke:#181818;stroke-width:0.5;" width="119" x="202" y="14.7813"/><text fill="#000000" font-family="sans-serif" font-size="14" font-style="italic" lengthAdjust="spacing" textLength="89" x="217" y="36.3145">&#171;Component&#187;</text><text fill="#000000" font-family="sans-serif" font-size="14" lengthAdjust="spacing" textLength="105" x="209" y="53.9238">AlumnosListView</text><text fill="#000000" font-family="sans-serif" font-size="14" lengthAdjust="spacing" textLength="47" x="238" y="71.5332">(React)</text><rect fill="#E2E2F0" height="66.8281" rx="2.5" ry="2.5" style="stroke:#181818;stroke-width:0.5;" width="119" x="202" y="465.8281"/><text fill="#000000" font-family="sans-serif" font-size="14" font-style="italic" lengthAdjust="spacing" textLength="89" x="217" y="487.3613">&#171;Component&#187;</text><text fill="#000000" font-family="sans-serif" font-size="14" lengthAdjust="spacing" textLength="105" x="209" y="504.9707">AlumnosListView</text><text fill="#000000" font-family="sans-serif" font-size="14" lengthAdjust="spacing" textLength="47" x="238" y="522.5801">(React)</text><rect fill="#E2E2F0" height="66.8281" rx="2.5" ry="2.5" style="stroke:#181818;stroke-width:0.5;" width="91" x="398" y="14.7813"/><text fill="#000000" font-family="sans-serif" font-size="14" font-style="italic" lengthAdjust="spacing" textLength="50" x="418.5" y="36.3145">&#171;Hook&#187;</text><text fill="#000000" font-family="sans-serif" font-size="14" lengthAdjust="spacing" textLength="77" x="405" y="53.9238">useAlumnos</text><text fill="#000000" font-family="sans-serif" font-size="14" lengthAdjust="spacing" textLength="42" x="422.5" y="71.5332">(Hook)</text><rect fill="#E2E2F0" height="66.8281" rx="2.5" ry="2.5" style="stroke:#181818;stroke-width:0.5;" width="91" x="398" y="465.8281"/><text fill="#000000" font-family="sans-serif" font-size="14" font-style="italic" lengthAdjust="spacing" textLength="50" x="418.5" y="487.3613">&#171;Hook&#187;</text><text fill="#000000" font-family="sans-serif" font-size="14" lengthAdjust="spacing" textLength="77" x="405" y="504.9707">useAlumnos</text><text fill="#000000" font-family="sans-serif" font-size="14" lengthAdjust="spacing" textLength="42" x="422.5" y="522.5801">(Hook)</text><rect fill="#E2E2F0" height="66.8281" rx="2.5" ry="2.5" style="stroke:#181818;stroke-width:0.5;" width="115" x="545" y="14.7813"/><text fill="#000000" font-family="sans-serif" font-size="14" font-style="italic" lengthAdjust="spacing" textLength="62" x="571.5" y="36.3145">&#171;Service&#187;</text><text fill="#000000" font-family="sans-serif" font-size="14" lengthAdjust="spacing" textLength="101" x="552" y="53.9238">AlumnosService</text><text fill="#000000" font-family="sans-serif" font-size="14" lengthAdjust="spacing" textLength="43" x="581" y="71.5332">(Axios)</text><rect fill="#E2E2F0" height="66.8281" rx="2.5" ry="2.5" style="stroke:#181818;stroke-width:0.5;" width="115" x="545" y="465.8281"/><text fill="#000000" font-family="sans-serif" font-size="14" font-style="italic" lengthAdjust="spacing" textLength="62" x="571.5" y="487.3613">&#171;Service&#187;</text><text fill="#000000" font-family="sans-serif" font-size="14" lengthAdjust="spacing" textLength="101" x="552" y="504.9707">AlumnosService</text><text fill="#000000" font-family="sans-serif" font-size="14" lengthAdjust="spacing" textLength="43" x="581" y="522.5801">(Axios)</text><rect fill="#E2E2F0" height="66.8281" rx="2.5" ry="2.5" style="stroke:#181818;stroke-width:0.5;" width="130" x="767.5" y="14.7813"/><text fill="#000000" font-family="sans-serif" font-size="14" font-style="italic" lengthAdjust="spacing" textLength="78" x="793.5" y="36.3145">&#171;Controller&#187;</text><text fill="#000000" font-family="sans-serif" font-size="14" lengthAdjust="spacing" textLength="116" x="774.5" y="53.9238">AlumnosController</text><text fill="#000000" font-family="sans-serif" font-size="14" lengthAdjust="spacing" textLength="53" x="806" y="71.5332">(NestJS)</text><rect fill="#E2E2F0" height="66.8281" rx="2.5" ry="2.5" style="stroke:#181818;stroke-width:0.5;" width="130" x="767.5" y="465.8281"/><text fill="#000000" font-family="sans-serif" font-size="14" font-style="italic" lengthAdjust="spacing" textLength="78" x="793.5" y="487.3613">&#171;Controller&#187;</text><text fill="#000000" font-family="sans-serif" font-size="14" lengthAdjust="spacing" textLength="116" x="774.5" y="504.9707">AlumnosController</text><text fill="#000000" font-family="sans-serif" font-size="14" lengthAdjust="spacing" textLength="53" x="806" y="522.5801">(NestJS)</text><rect fill="#E2E2F0" height="66.8281" rx="2.5" ry="2.5" style="stroke:#181818;stroke-width:0.5;" width="115" x="934" y="14.7813"/><text fill="#000000" font-family="sans-serif" font-size="14" font-style="italic" lengthAdjust="spacing" textLength="62" x="960.5" y="36.3145">&#171;Service&#187;</text><text fill="#000000" font-family="sans-serif" font-size="14" lengthAdjust="spacing" textLength="101" x="941" y="53.9238">AlumnosService</text><text fill="#000000" font-family="sans-serif" font-size="14" lengthAdjust="spacing" textLength="53" x="965" y="71.5332">(NestJS)</text><rect fill="#E2E2F0" height="66.8281" rx="2.5" ry="2.5" style="stroke:#181818;stroke-width:0.5;" width="115" x="934" y="465.8281"/><text fill="#000000" font-family="sans-serif" font-size="14" font-style="italic" lengthAdjust="spacing" textLength="62" x="960.5" y="487.3613">&#171;Service&#187;</text><text fill="#000000" font-family="sans-serif" font-size="14" lengthAdjust="spacing" textLength="101" x="941" y="504.9707">AlumnosService</text><text fill="#000000" font-family="sans-serif" font-size="14" lengthAdjust="spacing" textLength="53" x="965" y="522.5801">(NestJS)</text><text fill="#000000" font-family="sans-serif" font-size="14" lengthAdjust="spacing" textLength="77" x="1312" y="79.5332">PostgreSQL</text><path d="M1335.5,29 C1335.5,19 1353.5,19 1353.5,19 C1353.5,19 1371.5,19 1371.5,29 L1371.5,55 C1371.5,65 1353.5,65 1353.5,65 C1353.5,65 1335.5,65 1335.5,55 L1335.5,29 " fill="#E2E2F0" style="stroke:#181818;stroke-width:1.5;"/><path d="M1335.5,29 C1335.5,39 1353.5,39 1353.5,39 C1353.5,39 1371.5,39 1371.5,29 " fill="none" style="stroke:#181818;stroke-width:1.5;"/><text fill="#000000" font-family="sans-serif" font-size="14" lengthAdjust="spacing" textLength="77" x="1312" y="480.3613">PostgreSQL</text><path d="M1335.5,493.4375 C1335.5,483.4375 1353.5,483.4375 1353.5,483.4375 C1353.5,483.4375 1371.5,483.4375 1371.5,493.4375 L1371.5,519.4375 C1371.5,529.4375 1353.5,529.4375 1353.5,529.4375 C1353.5,529.4375 1335.5,529.4375 1335.5,519.4375 L1335.5,493.4375 " fill="#E2E2F0" style="stroke:#181818;stroke-width:1.5;"/><path d="M1335.5,493.4375 C1335.5,503.4375 1353.5,503.4375 1353.5,503.4375 C1353.5,503.4375 1371.5,503.4375 1371.5,493.4375 " fill="none" style="stroke:#181818;stroke-width:1.5;"/><polygon fill="#181818" points="249.5,110.9609,259.5,114.9609,249.5,118.9609,253.5,114.9609" style="stroke:#181818;stroke-width:1.0;"/><line style="stroke:#181818;stroke-width:1.0;" x1="51.5" x2="255.5" y1="114.9609" y2="114.9609"/><text fill="#000000" font-family="sans-serif" font-size="13" lengthAdjust="spacing" textLength="186" x="58.5" y="110.1045">Accede a la gesti&#243;n de alumnos</text><polygon fill="#181818" points="431.5,141.3125,441.5,145.3125,431.5,149.3125,435.5,145.3125" style="stroke:#181818;stroke-width:1.0;"/><line style="stroke:#181818;stroke-width:1.0;" x1="261.5" x2="437.5" y1="145.3125" y2="145.3125"/><text fill="#000000" font-family="sans-serif" font-size="13" lengthAdjust="spacing" textLength="119" x="268.5" y="140.4561">fetchAlumnos(query)</text><polygon fill="#181818" points="590.5,171.6641,600.5,175.6641,590.5,179.6641,594.5,175.6641" style="stroke:#181818;stroke-width:1.0;"/><line style="stroke:#181818;stroke-width:1.0;" x1="443.5" x2="596.5" y1="175.6641" y2="175.6641"/><text fill="#000000" font-family="sans-serif" font-size="13" lengthAdjust="spacing" textLength="109" x="450.5" y="170.8076">getAlumnos(query)</text><polygon fill="#181818" points="820.5,202.0156,830.5,206.0156,820.5,210.0156,824.5,206.0156" style="stroke:#181818;stroke-width:1.0;"/><line style="stroke:#181818;stroke-width:1.0;" x1="602.5" x2="826.5" y1="206.0156" y2="206.0156"/><text fill="#000000" font-family="sans-serif" font-size="13" lengthAdjust="spacing" textLength="206" x="609.5" y="201.1592">GET /alumnos?search=...&amp;page=...</text><polygon fill="#181818" points="979.5,232.3672,989.5,236.3672,979.5,240.3672,983.5,236.3672" style="stroke:#181818;stroke-width:1.0;"/><line style="stroke:#181818;stroke-width:1.0;" x1="832.5" x2="985.5" y1="236.3672" y2="236.3672"/><text fill="#000000" font-family="sans-serif" font-size="13" lengthAdjust="spacing" textLength="75" x="839.5" y="231.5107">findAll(query)</text><polygon fill="#181818" points="1341.5,262.7188,1351.5,266.7188,1341.5,270.7188,1345.5,266.7188" style="stroke:#181818;stroke-width:1.0;"/><line style="stroke:#181818;stroke-width:1.0;" x1="991.5" x2="1347.5" y1="266.7188" y2="266.7188"/><text fill="#000000" font-family="sans-serif" font-size="13" lengthAdjust="spacing" textLength="338" x="998.5" y="261.8623">SELECT * FROM alumno WHERE ... LIMIT ... OFFSET ...</text><polygon fill="#181818" points="1002.5,293.0703,992.5,297.0703,1002.5,301.0703,998.5,297.0703" style="stroke:#181818;stroke-width:1.0;"/><line style="stroke:#181818;stroke-width:1.0;stroke-dasharray:2.0,2.0;" x1="996.5" x2="1352.5" y1="297.0703" y2="297.0703"/><text fill="#000000" font-family="sans-serif" font-size="13" lengthAdjust="spacing" textLength="159" x="1008.5" y="292.2139">Listado de Alumnos + Total</text><polygon fill="#181818" points="843.5,323.4219,833.5,327.4219,843.5,331.4219,839.5,327.4219" style="stroke:#181818;stroke-width:1.0;"/><line style="stroke:#181818;stroke-width:1.0;stroke-dasharray:2.0,2.0;" x1="837.5" x2="990.5" y1="327.4219" y2="327.4219"/><text fill="#000000" font-family="sans-serif" font-size="13" lengthAdjust="spacing" textLength="135" x="849.5" y="322.5654">PaginatedAlumnosDTO</text><polygon fill="#181818" points="613.5,353.7734,603.5,357.7734,613.5,361.7734,609.5,357.7734" style="stroke:#181818;stroke-width:1.0;"/><line style="stroke:#181818;stroke-width:1.0;stroke-dasharray:2.0,2.0;" x1="607.5" x2="831.5" y1="357.7734" y2="357.7734"/><text fill="#000000" font-family="sans-serif" font-size="13" lengthAdjust="spacing" textLength="96" x="619.5" y="352.917">JSON Response</text><polygon fill="#181818" points="454.5,384.125,444.5,388.125,454.5,392.125,450.5,388.125" style="stroke:#181818;stroke-width:1.0;"/><line style="stroke:#181818;stroke-width:1.0;stroke-dasharray:2.0,2.0;" x1="448.5" x2="601.5" y1="388.125" y2="388.125"/><text fill="#000000" font-family="sans-serif" font-size="13" lengthAdjust="spacing" textLength="135" x="460.5" y="383.2686">PaginatedAlumnosDTO</text><polygon fill="#181818" points="272.5,414.4766,262.5,418.4766,272.5,422.4766,268.5,418.4766" style="stroke:#181818;stroke-width:1.0;"/><line style="stroke:#181818;stroke-width:1.0;stroke-dasharray:2.0,2.0;" x1="266.5" x2="442.5" y1="418.4766" y2="418.4766"/><text fill="#000000" font-family="sans-serif" font-size="13" lengthAdjust="spacing" textLength="158" x="278.5" y="413.6201">Actualiza estado (alumnos)</text><polygon fill="#181818" points="62.5,444.8281,52.5,448.8281,62.5,452.8281,58.5,448.8281" style="stroke:#181818;stroke-width:1.0;"/><line style="stroke:#181818;stroke-width:1.0;stroke-dasharray:2.0,2.0;" x1="56.5" x2="260.5" y1="448.8281" y2="448.8281"/><text fill="#000000" font-family="sans-serif" font-size="13" lengthAdjust="spacing" textLength="150" x="68.5" y="443.9717">Muestra tabla de alumnos</text><!--SRC=[XLF1Rjim3BthAuWSYdH3ixlHPR0JUqsHD5tiRPTTM9jnX3fI9idhrj_Q9-p7HjjgOmSjUZ8bllT8FihsNge36jo3tM6X7wGgOOkL9I4mTzf0MEobajOPpXh1K2TpUK3bO1HMzLvfk-JiDqaFFzHuGqmw7m5Q-Bg0oykPtX-q8kMcqo6rjkJPpBhI-huZDH7JciyfmyDJChzaJimAVqjjErhYRvdgerVOCwsSqLL5XWLkoBhhj5Cu9jgkdmvlDj7NY5xgea27TsW9HhVQkj9G-cNPekUH40DluMBQc1P0cETK421K22Nhotz_5JGNNN7188QsLWMm9PVlV5lZdpMPF-UYJJ7asPQ0TTm9w3d9mDxq0NoEC_ZWQtsoX2RVVPnC9cS7BAa9H0_DtEXOP2jL4LRLKmKHzKhC8mQayJAUPV0EairwvUU1xrVn9WOMXkLYjSZQQ9qaQTo6WeaNmpBDUsF36alyJF0UCksmwfSy7UiMIwdGKU4vysmzc6JertMwle4DMNwz_2iaVLLl_4jwdV77FReQA_c8G5t3O-ygMzFia7731n30ggRc0FncUFczdVy7]--></g></svg>