<?xml version="1.0" encoding="us-ascii" standalone="no"?><svg xmlns="http://www.w3.org/2000/svg" xmlns:xlink="http://www.w3.org/1999/xlink" contentStyleType="text/css" height="622px" preserveAspectRatio="none" style="width:1156px;height:622px;background:#FFFFFF;" version="1.1" viewBox="0 0 1156 622" width="1156px" zoomAndPan="magnify"><defs/><g><line style="stroke:#181818;stroke-width:0.5;stroke-dasharray:5.0,5.0;" x1="51" x2="51" y1="82.6094" y2="540.5313"/><line style="stroke:#181818;stroke-width:0.5;stroke-dasharray:5.0,5.0;" x1="270.5" x2="270.5" y1="82.6094" y2="540.5313"/><line style="stroke:#181818;stroke-width:0.5;stroke-dasharray:5.0,5.0;" x1="482.5" x2="482.5" y1="82.6094" y2="540.5313"/><line style="stroke:#181818;stroke-width:0.5;stroke-dasharray:5.0,5.0;" x1="610.5" x2="610.5" y1="82.6094" y2="540.5313"/><line style="stroke:#181818;stroke-width:0.5;stroke-dasharray:5.0,5.0;" x1="812" x2="812" y1="82.6094" y2="540.5313"/><line style="stroke:#181818;stroke-width:0.5;stroke-dasharray:5.0,5.0;" x1="938" x2="938" y1="82.6094" y2="540.5313"/><line style="stroke:#181818;stroke-width:0.5;stroke-dasharray:5.0,5.0;" x1="1113.5" x2="1113.5" y1="82.6094" y2="540.5313"/><text fill="#000000" font-family="sans-serif" font-size="14" lengthAdjust="spacing" textLength="87" x="5" y="79.5332">Administrador</text><ellipse cx="51.5" cy="13.5" fill="#E2E2F0" rx="8" ry="8" style="stroke:#181818;stroke-width:0.5;"/><path d="M51.5,21.5 L51.5,48.5 M38.5,29.5 L64.5,29.5 M51.5,48.5 L38.5,63.5 M51.5,48.5 L64.5,63.5 " fill="none" style="stroke:#181818;stroke-width:0.5;"/><text fill="#000000" font-family="sans-serif" font-size="14" lengthAdjust="spacing" textLength="87" x="5" y="554.0645">Administrador</text><ellipse cx="51.5" cy="565.6406" fill="#E2E2F0" rx="8" ry="8" style="stroke:#181818;stroke-width:0.5;"/><path d="M51.5,573.6406 L51.5,600.6406 M38.5,581.6406 L64.5,581.6406 M51.5,600.6406 L38.5,615.6406 M51.5,600.6406 L64.5,615.6406 " fill="none" style="stroke:#181818;stroke-width:0.5;"/><rect fill="#E2E2F0" height="66.8281" rx="2.5" ry="2.5" style="stroke:#181818;stroke-width:0.5;" width="126" x="207.5" y="14.7813"/><text fill="#000000" font-family="sans-serif" font-size="14" font-style="italic" lengthAdjust="spacing" textLength="89" x="226" y="36.3145">&#171;Component&#187;</text><text fill="#000000" font-family="sans-serif" font-size="14" lengthAdjust="spacing" textLength="112" x="214.5" y="53.9238">GradoCreateView</text><text fill="#000000" font-family="sans-serif" font-size="14" lengthAdjust="spacing" textLength="47" x="247" y="71.5332">(React)</text><rect fill="#E2E2F0" height="66.8281" rx="2.5" ry="2.5" style="stroke:#181818;stroke-width:0.5;" width="126" x="207.5" y="539.5313"/><text fill="#000000" font-family="sans-serif" font-size="14" font-style="italic" lengthAdjust="spacing" textLength="89" x="226" y="561.0645">&#171;Component&#187;</text><text fill="#000000" font-family="sans-serif" font-size="14" lengthAdjust="spacing" textLength="112" x="214.5" y="578.6738">GradoCreateView</text><text fill="#000000" font-family="sans-serif" font-size="14" lengthAdjust="spacing" textLength="47" x="247" y="596.2832">(React)</text><rect fill="#E2E2F0" height="66.8281" rx="2.5" ry="2.5" style="stroke:#181818;stroke-width:0.5;" width="110" x="427.5" y="14.7813"/><text fill="#000000" font-family="sans-serif" font-size="14" font-style="italic" lengthAdjust="spacing" textLength="50" x="457.5" y="36.3145">&#171;Hook&#187;</text><text fill="#000000" font-family="sans-serif" font-size="14" lengthAdjust="spacing" textLength="96" x="434.5" y="53.9238">useGradoForm</text><text fill="#000000" font-family="sans-serif" font-size="14" lengthAdjust="spacing" textLength="42" x="461.5" y="71.5332">(Hook)</text><rect fill="#E2E2F0" height="66.8281" rx="2.5" ry="2.5" style="stroke:#181818;stroke-width:0.5;" width="110" x="427.5" y="539.5313"/><text fill="#000000" font-family="sans-serif" font-size="14" font-style="italic" lengthAdjust="spacing" textLength="50" x="457.5" y="561.0645">&#171;Hook&#187;</text><text fill="#000000" font-family="sans-serif" font-size="14" lengthAdjust="spacing" textLength="96" x="434.5" y="578.6738">useGradoForm</text><text fill="#000000" font-family="sans-serif" font-size="14" lengthAdjust="spacing" textLength="42" x="461.5" y="596.2832">(Hook)</text><rect fill="#E2E2F0" height="66.8281" rx="2.5" ry="2.5" style="stroke:#181818;stroke-width:0.5;" width="108" x="556.5" y="14.7813"/><text fill="#000000" font-family="sans-serif" font-size="14" font-style="italic" lengthAdjust="spacing" textLength="62" x="579.5" y="36.3145">&#171;Service&#187;</text><text fill="#000000" font-family="sans-serif" font-size="14" lengthAdjust="spacing" textLength="94" x="563.5" y="53.9238">GradosService</text><text fill="#000000" font-family="sans-serif" font-size="14" lengthAdjust="spacing" textLength="43" x="589" y="71.5332">(Axios)</text><rect fill="#E2E2F0" height="66.8281" rx="2.5" ry="2.5" style="stroke:#181818;stroke-width:0.5;" width="108" x="556.5" y="539.5313"/><text fill="#000000" font-family="sans-serif" font-size="14" font-style="italic" lengthAdjust="spacing" textLength="62" x="579.5" y="561.0645">&#171;Service&#187;</text><text fill="#000000" font-family="sans-serif" font-size="14" lengthAdjust="spacing" textLength="94" x="563.5" y="578.6738">GradosService</text><text fill="#000000" font-family="sans-serif" font-size="14" lengthAdjust="spacing" textLength="43" x="589" y="596.2832">(Axios)</text><rect fill="#E2E2F0" height="66.8281" rx="2.5" ry="2.5" style="stroke:#181818;stroke-width:0.5;" width="123" x="751" y="14.7813"/><text fill="#000000" font-family="sans-serif" font-size="14" font-style="italic" lengthAdjust="spacing" textLength="78" x="773.5" y="36.3145">&#171;Controller&#187;</text><text fill="#000000" font-family="sans-serif" font-size="14" lengthAdjust="spacing" textLength="109" x="758" y="53.9238">GradosController</text><text fill="#000000" font-family="sans-serif" font-size="14" lengthAdjust="spacing" textLength="53" x="786" y="71.5332">(NestJS)</text><rect fill="#E2E2F0" height="66.8281" rx="2.5" ry="2.5" style="stroke:#181818;stroke-width:0.5;" width="123" x="751" y="539.5313"/><text fill="#000000" font-family="sans-serif" font-size="14" font-style="italic" lengthAdjust="spacing" textLength="78" x="773.5" y="561.0645">&#171;Controller&#187;</text><text fill="#000000" font-family="sans-serif" font-size="14" lengthAdjust="spacing" textLength="109" x="758" y="578.6738">GradosController</text><text fill="#000000" font-family="sans-serif" font-size="14" lengthAdjust="spacing" textLength="53" x="786" y="596.2832">(NestJS)</text><rect fill="#E2E2F0" height="66.8281" rx="2.5" ry="2.5" style="stroke:#181818;stroke-width:0.5;" width="108" x="884" y="14.7813"/><text fill="#000000" font-family="sans-serif" font-size="14" font-style="italic" lengthAdjust="spacing" textLength="62" x="907" y="36.3145">&#171;Service&#187;</text><text fill="#000000" font-family="sans-serif" font-size="14" lengthAdjust="spacing" textLength="94" x="891" y="53.9238">GradosService</text><text fill="#000000" font-family="sans-serif" font-size="14" lengthAdjust="spacing" textLength="53" x="911.5" y="71.5332">(NestJS)</text><rect fill="#E2E2F0" height="66.8281" rx="2.5" ry="2.5" style="stroke:#181818;stroke-width:0.5;" width="108" x="884" y="539.5313"/><text fill="#000000" font-family="sans-serif" font-size="14" font-style="italic" lengthAdjust="spacing" textLength="62" x="907" y="561.0645">&#171;Service&#187;</text><text fill="#000000" font-family="sans-serif" font-size="14" lengthAdjust="spacing" textLength="94" x="891" y="578.6738">GradosService</text><text fill="#000000" font-family="sans-serif" font-size="14" lengthAdjust="spacing" textLength="53" x="911.5" y="596.2832">(NestJS)</text><text fill="#000000" font-family="sans-serif" font-size="14" lengthAdjust="spacing" textLength="77" x="1072.5" y="79.5332">PostgreSQL</text><path d="M1096,29 C1096,19 1114,19 1114,19 C1114,19 1132,19 1132,29 L1132,55 C1132,65 1114,65 1114,65 C1114,65 1096,65 1096,55 L1096,29 " fill="#E2E2F0" style="stroke:#181818;stroke-width:1.5;"/><path d="M1096,29 C1096,39 1114,39 1114,39 C1114,39 1132,39 1132,29 " fill="none" style="stroke:#181818;stroke-width:1.5;"/><text fill="#000000" font-family="sans-serif" font-size="14" lengthAdjust="spacing" textLength="77" x="1072.5" y="554.0645">PostgreSQL</text><path d="M1096,567.1406 C1096,557.1406 1114,557.1406 1114,557.1406 C1114,557.1406 1132,557.1406 1132,567.1406 L1132,593.1406 C1132,603.1406 1114,603.1406 1114,603.1406 C1114,603.1406 1096,603.1406 1096,593.1406 L1096,567.1406 " fill="#E2E2F0" style="stroke:#181818;stroke-width:1.5;"/><path d="M1096,567.1406 C1096,577.1406 1114,577.1406 1114,577.1406 C1114,577.1406 1132,577.1406 1132,567.1406 " fill="none" style="stroke:#181818;stroke-width:1.5;"/><polygon fill="#181818" points="258.5,110.9609,268.5,114.9609,258.5,118.9609,262.5,114.9609" style="stroke:#181818;stroke-width:1.0;"/><line style="stroke:#181818;stroke-width:1.0;" x1="51.5" x2="264.5" y1="114.9609" y2="114.9609"/><text fill="#000000" font-family="sans-serif" font-size="13" lengthAdjust="spacing" textLength="194" x="58.5" y="110.1045">Rellena formulario de nuevo grado</text><polygon fill="#181818" points="258.5,141.3125,268.5,145.3125,258.5,149.3125,262.5,145.3125" style="stroke:#181818;stroke-width:1.0;"/><line style="stroke:#181818;stroke-width:1.0;" x1="51.5" x2="264.5" y1="145.3125" y2="145.3125"/><text fill="#000000" font-family="sans-serif" font-size="13" lengthAdjust="spacing" textLength="107" x="58.5" y="140.4561">Click en "Guardar"</text><polygon fill="#181818" points="470.5,171.6641,480.5,175.6641,470.5,179.6641,474.5,175.6641" style="stroke:#181818;stroke-width:1.0;"/><line style="stroke:#181818;stroke-width:1.0;" x1="270.5" x2="476.5" y1="175.6641" y2="175.6641"/><text fill="#000000" font-family="sans-serif" font-size="13" lengthAdjust="spacing" textLength="72" x="277.5" y="170.8076">submit(data)</text><polygon fill="#181818" points="598.5,202.0156,608.5,206.0156,598.5,210.0156,602.5,206.0156" style="stroke:#181818;stroke-width:1.0;"/><line style="stroke:#181818;stroke-width:1.0;" x1="482.5" x2="604.5" y1="206.0156" y2="206.0156"/><text fill="#000000" font-family="sans-serif" font-size="13" lengthAdjust="spacing" textLength="104" x="489.5" y="201.1592">createGrado(data)</text><polygon fill="#181818" points="800.5,232.3672,810.5,236.3672,800.5,240.3672,804.5,236.3672" style="stroke:#181818;stroke-width:1.0;"/><line style="stroke:#181818;stroke-width:1.0;" x1="610.5" x2="806.5" y1="236.3672" y2="236.3672"/><text fill="#000000" font-family="sans-serif" font-size="13" lengthAdjust="spacing" textLength="162" x="617.5" y="231.5107">POST /grados (JSON Body)</text><polygon fill="#181818" points="926,262.7188,936,266.7188,926,270.7188,930,266.7188" style="stroke:#181818;stroke-width:1.0;"/><line style="stroke:#181818;stroke-width:1.0;" x1="812.5" x2="932" y1="266.7188" y2="266.7188"/><text fill="#000000" font-family="sans-serif" font-size="13" lengthAdjust="spacing" textLength="62" x="819.5" y="261.8623">create(dto)</text><line style="stroke:#181818;stroke-width:1.0;" x1="938" x2="980" y1="297.0703" y2="297.0703"/><line style="stroke:#181818;stroke-width:1.0;" x1="980" x2="980" y1="297.0703" y2="310.0703"/><line style="stroke:#181818;stroke-width:1.0;" x1="939" x2="980" y1="310.0703" y2="310.0703"/><polygon fill="#181818" points="949,306.0703,939,310.0703,949,314.0703,945,310.0703" style="stroke:#181818;stroke-width:1.0;"/><text fill="#000000" font-family="sans-serif" font-size="13" lengthAdjust="spacing" textLength="117" x="945" y="292.2139">Validar c&#243;digo &#250;nico</text><polygon fill="#181818" points="1102,336.4219,1112,340.4219,1102,344.4219,1106,340.4219" style="stroke:#181818;stroke-width:1.0;"/><line style="stroke:#181818;stroke-width:1.0;" x1="938" x2="1108" y1="340.4219" y2="340.4219"/><text fill="#000000" font-family="sans-serif" font-size="13" lengthAdjust="spacing" textLength="152" x="945" y="335.5654">INSERT INTO "Grado" (...)</text><polygon fill="#181818" points="949,366.7734,939,370.7734,949,374.7734,945,370.7734" style="stroke:#181818;stroke-width:1.0;"/><line style="stroke:#181818;stroke-width:1.0;stroke-dasharray:2.0,2.0;" x1="943" x2="1113" y1="370.7734" y2="370.7734"/><text fill="#000000" font-family="sans-serif" font-size="13" lengthAdjust="spacing" textLength="149" x="955" y="365.917">Grado Creado (with UUID)</text><polygon fill="#181818" points="823.5,397.125,813.5,401.125,823.5,405.125,819.5,401.125" style="stroke:#181818;stroke-width:1.0;"/><line style="stroke:#181818;stroke-width:1.0;stroke-dasharray:2.0,2.0;" x1="817.5" x2="937" y1="401.125" y2="401.125"/><text fill="#000000" font-family="sans-serif" font-size="13" lengthAdjust="spacing" textLength="73" x="829.5" y="396.2686">Grado Entity</text><polygon fill="#181818" points="621.5,427.4766,611.5,431.4766,621.5,435.4766,617.5,431.4766" style="stroke:#181818;stroke-width:1.0;"/><line style="stroke:#181818;stroke-width:1.0;stroke-dasharray:2.0,2.0;" x1="615.5" x2="811.5" y1="431.4766" y2="431.4766"/><text fill="#000000" font-family="sans-serif" font-size="13" lengthAdjust="spacing" textLength="178" x="627.5" y="426.6201">JSON Response (201 Created)</text><polygon fill="#181818" points="493.5,457.8281,483.5,461.8281,493.5,465.8281,489.5,461.8281" style="stroke:#181818;stroke-width:1.0;"/><line style="stroke:#181818;stroke-width:1.0;stroke-dasharray:2.0,2.0;" x1="487.5" x2="609.5" y1="461.8281" y2="461.8281"/><text fill="#000000" font-family="sans-serif" font-size="13" lengthAdjust="spacing" textLength="77" x="499.5" y="456.9717">Grado Object</text><polygon fill="#181818" points="281.5,488.1797,271.5,492.1797,281.5,496.1797,277.5,492.1797" style="stroke:#181818;stroke-width:1.0;"/><line style="stroke:#181818;stroke-width:1.0;stroke-dasharray:2.0,2.0;" x1="275.5" x2="481.5" y1="492.1797" y2="492.1797"/><text fill="#000000" font-family="sans-serif" font-size="13" lengthAdjust="spacing" textLength="188" x="287.5" y="487.3232">Redirigir a listado / Mostrar &#233;xito</text><polygon fill="#181818" points="62.5,518.5313,52.5,522.5313,62.5,526.5313,58.5,522.5313" style="stroke:#181818;stroke-width:1.0;"/><line style="stroke:#181818;stroke-width:1.0;stroke-dasharray:2.0,2.0;" x1="56.5" x2="269.5" y1="522.5313" y2="522.5313"/><text fill="#000000" font-family="sans-serif" font-size="13" lengthAdjust="spacing" textLength="195" x="68.5" y="517.6748">Muestra confirmaci&#243;n de creaci&#243;n</text><!--SRC=[XPF1Kjim48RlUeeTd-m3eUtHmsG69z26AGcD4qwzA9PYjh6bZ2GJUAIUkVMQ5sCbfyJEm72IjFj_wzM_ijsWsdB3Qx0FNEWTgXBMlBAICLuuRU1IrAZGEaDPmqZgiC0jLmwYxpusCf8xUOzozrl5SqbG4W6ti9p0nSL8rrkjf7B3OHzjh0pqjJOrSJ-qthIOtn7ebrCc03QNvX4BIT3b4shRKjU7A967tVlmI2jdT5L9G_nKMdUJjmMEYT3r_yDdBNHBPE_r8BZZAsubH7VQkjB8_DVFe1vdZFMiXREXzoo5kQGlAmvhigQfk44DGe9gvAE6qai_u4OL5XkGYhfik17SH8pYb0sMfc2RLOqkzXqbBCGezsPS2aKOPBZXGVIM9677e1JkPla2paCp5kARV3Q5J8ldX7LKn6IdnMFXTCAoJjcEv9vNI5r3iNyHM6hO_rDOw9vwd95kCislvWjQ5hF3G2A81uD1mYXzrgyPqk2VA2tn3jq3B9UJSRU7qxkro9Low9vxz-cx5IuzbvQUDqqt_lRbAxH_WkZwTdI_BJjR_P65ExX_7BX0WoKQu53HMBtm76wr7x21_TydT3gCae3-w5EuRQG_GA7L6atD2zo_AFzUlE7Xy0e0]--></g></svg>