<?xml version="1.0" encoding="us-ascii" standalone="no"?><svg xmlns="http://www.w3.org/2000/svg" xmlns:xlink="http://www.w3.org/1999/xlink" contentStyleType="text/css" height="554px" preserveAspectRatio="none" style="width:1061px;height:554px;background:#FFFFFF;" version="1.1" viewBox="0 0 1061 554" width="1061px" zoomAndPan="magnify"><defs/><g><!--cluster asignarProfesorAExamen--><g id="cluster_asignarProfesorAExamen"><path d="M8.5,109 L196.5,109 A3.75,3.75 0 0 1 199,111.5 L206,132.6094 L788.5,132.6094 A2.5,2.5 0 0 1 791,135.1094 L791,544.5 A2.5,2.5 0 0 1 788.5,547 L8.5,547 A2.5,2.5 0 0 1 6,544.5 L6,111.5 A2.5,2.5 0 0 1 8.5,109 " fill="none" style="stroke:#000000;stroke-width:1.5;"/><line style="stroke:#000000;stroke-width:1.5;" x1="6" x2="206" y1="132.6094" y2="132.6094"/><text fill="#000000" font-family="sans-serif" font-size="14" font-weight="bold" lengthAdjust="spacing" textLength="187" x="10" y="125.5332">asignarProfesorAExamen()</text></g><!--entity AsignarProfesorView--><g id="elem_AsignarProfesorView"><rect fill="#629EF9" height="37.6094" rx="2.5" ry="2.5" style="stroke:#181818;stroke-width:0.5;" width="151" x="467.5" y="145"/><text fill="#000000" font-family="sans-serif" font-size="14" lengthAdjust="spacing" textLength="131" x="477.5" y="169.5332">AsignarProfesorView</text></g><!--entity AsignacionesController--><g id="elem_AsignacionesController"><rect fill="#B5BD68" height="37.6094" rx="2.5" ry="2.5" style="stroke:#181818;stroke-width:0.5;" width="166" x="240" y="261"/><text fill="#000000" font-family="sans-serif" font-size="14" lengthAdjust="spacing" textLength="146" x="250" y="285.5332">AsignacionesController</text></g><!--entity ProfesorRepository--><g id="elem_ProfesorRepository"><rect fill="#F2AC4E" height="37.6094" rx="2.5" ry="2.5" style="stroke:#181818;stroke-width:0.5;" width="142" x="22" y="377"/><text fill="#000000" font-family="sans-serif" font-size="14" lengthAdjust="spacing" textLength="122" x="32" y="401.5332">ProfesorRepository</text></g><!--entity ExamenRepository--><g id="elem_ExamenRepository"><rect fill="#F2AC4E" height="37.6094" rx="2.5" ry="2.5" style="stroke:#181818;stroke-width:0.5;" width="138" x="358" y="377"/><text fill="#000000" font-family="sans-serif" font-size="14" lengthAdjust="spacing" textLength="118" x="368" y="401.5332">ExamenRepository</text></g><!--entity Profesor--><g id="elem_Profesor"><rect fill="#F2AC4E" height="37.6094" rx="2.5" ry="2.5" style="stroke:#181818;stroke-width:0.5;" width="74" x="56" y="493"/><text fill="#000000" font-family="sans-serif" font-size="14" lengthAdjust="spacing" textLength="54" x="66" y="517.5332">Profesor</text></g><!--entity Examen--><g id="elem_Examen"><rect fill="#F2AC4E" height="37.6094" rx="2.5" ry="2.5" style="stroke:#181818;stroke-width:0.5;" width="70" x="392" y="493"/><text fill="#000000" font-family="sans-serif" font-size="14" lengthAdjust="spacing" textLength="50" x="402" y="517.5332">Examen</text></g><!--entity ProfesorAbierto--><g id="elem_ProfesorAbierto"><rect fill="#CDEBA5" height="37.6094" rx="2.5" ry="2.5" style="stroke:#181818;stroke-width:0.5;" width="127" x="479.5" y="7"/><text fill="#000000" font-family="sans-serif" font-size="14" lengthAdjust="spacing" textLength="107" x="489.5" y="31.5332">:Profesor Abierto</text></g><!--entity ProfesorExamenesAbierto--><g id="elem_ProfesorExamenesAbierto"><rect fill="#CDEBA5" height="37.6094" rx="2.5" ry="2.5" style="stroke:#181818;stroke-width:0.5;" width="196" x="859" y="261"/><text fill="#000000" font-family="sans-serif" font-size="14" lengthAdjust="spacing" textLength="176" x="869" y="285.5332">:Profesor Examenes Abierto</text></g><!--link ProfesorAbierto to AsignarProfesorView--><g id="link_ProfesorAbierto_AsignarProfesorView"><path d="M505.1,45.01 C476.44,58.63 442,75 442,75 C442,75 442,93 442,93 C442,93 482.1283,120.8126 512.0583,141.5526 " fill="none" id="ProfesorAbierto-to-AsignarProfesorView" style="stroke:#181818;stroke-width:1.0;"/><polygon fill="#181818" points="516.99,144.97,511.8708,136.5561,512.8803,142.1222,507.3142,143.1317,516.99,144.97" style="stroke:#181818;stroke-width:1.0;"/><text fill="#000000" font-family="sans-serif" font-size="13" lengthAdjust="spacing" textLength="155" x="443" y="89.4951">asignarProfesorAExamen()</text></g><!--link AsignarProfesorView to ProfesorAbierto--><g id="link_AsignarProfesorView_ProfesorAbierto"><path d="M558.45,144.97 C576.23,124.23 603,93 603,93 C603,93 603,75 603,75 C603,75 587.3555,62.4878 570.3655,48.8978 " fill="none" id="AsignarProfesorView-to-ProfesorAbierto" style="stroke:#181818;stroke-width:1.0;stroke-dasharray:7.0,7.0;"/><polygon fill="#181818" points="565.68,45.15,570.2097,53.8954,569.5846,48.2732,575.2068,47.6481,565.68,45.15" style="stroke:#181818;stroke-width:1.0;"/><text fill="#000000" font-family="sans-serif" font-size="13" lengthAdjust="spacing" textLength="88" x="604" y="89.4951">editarProfesor()</text></g><!--link AsignarProfesorView to AsignacionesController--><g id="link_AsignarProfesorView_AsignacionesController"><path d="M467.11,173.47 C343.67,187.25 113,213 113,213 C113,213 113,231 113,231 C113,231 178.7708,246.0331 238.3608,259.6531 " fill="none" id="AsignarProfesorView-to-AsignacionesController" style="stroke:#181818;stroke-width:1.0;"/><polygon fill="#181818" points="244.21,260.99,236.3275,255.0852,239.3357,259.8759,234.545,262.8841,244.21,260.99" style="stroke:#181818;stroke-width:1.0;"/><text fill="#000000" font-family="sans-serif" font-size="13" lengthAdjust="spacing" textLength="165" x="114" y="227.4951">listarExamenesDisponibles()</text></g><!--link AsignarProfesorView to AsignacionesController--><g id="link_AsignarProfesorView_AsignacionesController"><path d="M467.19,181.32 C402.54,195.23 320,213 320,213 C320,213 320,231 320,231 C320,231 320.6455,241.2717 321.4955,254.8617 " fill="none" id="AsignarProfesorView-to-AsignacionesController-1" style="stroke:#181818;stroke-width:1.0;"/><polygon fill="#181818" points="321.87,260.85,325.3004,251.6179,321.5579,255.8598,317.316,252.1172,321.87,260.85" style="stroke:#181818;stroke-width:1.0;"/><text fill="#000000" font-family="sans-serif" font-size="13" lengthAdjust="spacing" textLength="178" x="321" y="227.4951">seleccionarProfesor(profesorId)</text></g><!--link AsignarProfesorView to AsignacionesController--><g id="link_AsignarProfesorView_AsignacionesController"><path d="M532.34,183.03 C520.8,202.58 504,231 504,231 C504,231 448.0695,245.832 396.7095,259.452 " fill="none" id="AsignarProfesorView-to-AsignacionesController-2" style="stroke:#181818;stroke-width:1.0;"/><polygon fill="#181818" points="390.91,260.99,400.6346,262.5494,395.743,259.7084,398.584,254.8167,390.91,260.99" style="stroke:#181818;stroke-width:1.0;"/><text fill="#000000" font-family="sans-serif" font-size="13" lengthAdjust="spacing" textLength="170" x="515" y="227.4951">asignar(profesorId, examenId)</text></g><!--link AsignacionesController to ExamenRepository--><g id="link_AsignacionesController_ExamenRepository"><path d="M287.73,299.01 C261.06,312.63 229,329 229,329 C229,329 229,347 229,347 C229,347 294.8188,362.9566 351.9188,376.7966 " fill="none" id="AsignacionesController-to-ExamenRepository" style="stroke:#181818;stroke-width:1.0;"/><polygon fill="#181818" points="357.75,378.21,349.9455,372.2025,352.8907,377.0322,348.061,379.9774,357.75,378.21" style="stroke:#181818;stroke-width:1.0;"/><text fill="#000000" font-family="sans-serif" font-size="13" lengthAdjust="spacing" textLength="153" x="230" y="343.4951">obtenerTodosSinProfesor()</text></g><!--link AsignacionesController to ExamenRepository--><g id="link_AsignacionesController_ExamenRepository"><path d="M347.57,299.15 C365.98,312.74 388,329 388,329 C388,329 401.75,352.253 413.29,371.803 " fill="none" id="AsignacionesController-to-ExamenRepository-1" style="stroke:#181818;stroke-width:1.0;"/><polygon fill="#181818" points="416.34,376.97,415.2097,367.1862,413.7984,372.6642,408.3204,371.2528,416.34,376.97" style="stroke:#181818;stroke-width:1.0;"/><text fill="#000000" font-family="sans-serif" font-size="13" lengthAdjust="spacing" textLength="218" x="399" y="343.4951">asignarProfesor(profesorId, examenId)</text></g><!--link AsignacionesController to ExamenRepository--><g id="link_AsignacionesController_ExamenRepository"><path d="M406.2,294.18 C495.9,308.39 626,329 626,329 C626,329 626,347 626,347 C626,347 559.3526,363.0726 501.8726,376.9426 " fill="none" id="AsignacionesController-to-ExamenRepository-2" style="stroke:#181818;stroke-width:1.0;"/><polygon fill="#181818" points="496.04,378.35,505.7272,380.1273,500.9005,377.1772,503.8506,372.3505,496.04,378.35" style="stroke:#181818;stroke-width:1.0;"/><text fill="#000000" font-family="sans-serif" font-size="13" lengthAdjust="spacing" textLength="86" x="627" y="343.4951">obtenerTodos()</text></g><!--link AsignacionesController to ProfesorRepository--><g id="link_AsignacionesController_ProfesorRepository"><path d="M239.78,297.86 C171.49,311.69 86,329 86,329 C86,329 86,347 86,347 C86,347 87.505,357.3227 89.485,370.9127 " fill="none" id="AsignacionesController-to-ProfesorRepository" style="stroke:#181818;stroke-width:1.0;"/><polygon fill="#181818" points="90.35,376.85,93.0107,367.3673,89.6291,371.9022,85.0942,368.5207,90.35,376.85" style="stroke:#181818;stroke-width:1.0;"/><text fill="#000000" font-family="sans-serif" font-size="13" lengthAdjust="spacing" textLength="133" x="87" y="343.4951">buscarPorId(profesorId)</text></g><!--link AsignacionesController to AsignacionesController--><g id="link_AsignacionesController_AsignacionesController"><path d="M406.25,269.32 C426.21,270.15 441,273.71 441,280 C441,286.29 432.2048,289.6007 412.2448,290.4307 " fill="none" id="AsignacionesController-to-AsignacionesController" style="stroke:#181818;stroke-width:1.0;"/><polygon fill="#181818" points="406.25,290.68,415.4084,294.3026,411.2457,290.4723,415.076,286.3095,406.25,290.68" style="stroke:#181818;stroke-width:1.0;"/><text fill="#000000" font-family="sans-serif" font-size="13" lengthAdjust="spacing" textLength="131" x="447" y="285.4951">verificarDisponibilidad()</text></g><!--link ExamenRepository to Examen--><g id="link_ExamenRepository_Examen"><path d="M427,415.06 C427,436.28 427,465.3 427,486.64 " fill="none" id="ExamenRepository-to-Examen" style="stroke:#181818;stroke-width:1.0;"/><polygon fill="#181818" points="427,492.64,431,483.64,427,487.64,423,483.64,427,492.64" style="stroke:#181818;stroke-width:1.0;"/><text fill="#000000" font-family="sans-serif" font-size="13" lengthAdjust="spacing" textLength="56" x="428" y="459.4951">&#171;accede&#187;</text></g><!--link ProfesorRepository to Profesor--><g id="link_ProfesorRepository_Profesor"><path d="M93,415.06 C93,436.28 93,465.3 93,486.64 " fill="none" id="ProfesorRepository-to-Profesor" style="stroke:#181818;stroke-width:1.0;"/><polygon fill="#181818" points="93,492.64,97,483.64,93,487.64,89,483.64,93,492.64" style="stroke:#181818;stroke-width:1.0;"/><text fill="#000000" font-family="sans-serif" font-size="13" lengthAdjust="spacing" textLength="56" x="94" y="459.4951">&#171;accede&#187;</text></g><!--link AsignarProfesorView to ProfesorExamenesAbierto--><g id="link_AsignarProfesorView_ProfesorExamenesAbierto"><path d="M600.11,183.03 C661.99,202.58 752,231 752,231 C752,231 816.068,246.0021 874.238,259.6221 " fill="none" id="AsignarProfesorView-to-ProfesorExamenesAbierto" style="stroke:#181818;stroke-width:1.0;stroke-dasharray:7.0,7.0;"/><polygon fill="#181818" points="880.08,260.99,872.2289,255.0436,875.2117,259.8501,870.4051,262.8329,880.08,260.99" style="stroke:#181818;stroke-width:1.0;"/><text fill="#000000" font-family="sans-serif" font-size="13" lengthAdjust="spacing" textLength="213" x="753" y="227.4951">&#171;confirmar&#187; actualizarAsignaciones()</text></g><!--link AsignarProfesorView to ProfesorExamenesAbierto--><g id="link_AsignarProfesorView_ProfesorExamenesAbierto"><path d="M618.53,173.47 C741.4,187.25 971,213 971,213 C971,213 971,231 971,231 C971,231 967.9424,241.5007 963.9724,255.0907 " fill="none" id="AsignarProfesorView-to-ProfesorExamenesAbierto-1" style="stroke:#181818;stroke-width:1.0;stroke-dasharray:7.0,7.0;"/><polygon fill="#181818" points="962.29,260.85,968.6532,253.3327,963.692,256.0506,960.9741,251.0894,962.29,260.85" style="stroke:#181818;stroke-width:1.0;"/><text fill="#000000" font-family="sans-serif" font-size="13" lengthAdjust="spacing" textLength="63" x="972" y="227.4951">&#171;cancelar&#187;</text></g><!--SRC=[dPHHJy8m58NV-okQ-S8IuO484KAMJ1Y9RqQDxrrt8JUKTccBYiR_RWUCZR4nPKzRUyxNS-zjPbOeKwRPcWgKOBSfq5I9RVP1Y0PkcLmAe3VJMVGG3gWtVj9g0KPf6iO8sYgFCaFpnSFQPMFqoTOWmTGIyisSH5B6Lsm9JeDBoVJnfBqmithrMntVez-4KFUKuWpxesW-ek6fvGtXewgC1t4ol3yeEIeNQggarKe8q5Nnl1zExw9Z5S-GAeDMwMs3S1-nLPRpBbB83o6L0T1kDwYhaOvfKxC8gTCNd6e774gWiUmuiHcQL4cC1PY2TkRAWDNY7Kh5rZ7qgqgKUK6PPxWgbW41F5ilJ9tqyFAO-Fy77bfMWjnIsDMGuIvLUduV72xU6EwEppWrkVxQiSeShmZNCeQM8JPswnqqBj1Lc5y859Ym9CETdLZ4SCR9X74E2GG1gUbRkPsdujg1zdf1qpzbv-PABb2lcGu2ohZTC85VJ9UBwlZNWPda839kUx321mdQqZ1zyWi0]--></g></svg>