<?xml version="1.0" encoding="us-ascii" standalone="no"?><svg xmlns="http://www.w3.org/2000/svg" xmlns:xlink="http://www.w3.org/1999/xlink" contentStyleType="text/css" height="335px" preserveAspectRatio="none" style="width:1561px;height:335px;background:#FFFFFF;" version="1.1" viewBox="0 0 1561 335" width="1561px" zoomAndPan="magnify"><defs/><g><!--cluster abrirGrados--><g id="cluster_abrirGrados"><path d="M169.5,6 L264.5,6 A3.75,3.75 0 0 1 267,8.5 L274,29.6094 L637.5,29.6094 A2.5,2.5 0 0 1 640,32.1094 L640,325.5 A2.5,2.5 0 0 1 637.5,328 L169.5,328 A2.5,2.5 0 0 1 167,325.5 L167,8.5 A2.5,2.5 0 0 1 169.5,6 " fill="none" style="stroke:#000000;stroke-width:1.5;"/><line style="stroke:#000000;stroke-width:1.5;" x1="167" x2="274" y1="29.6094" y2="29.6094"/><text fill="#000000" font-family="sans-serif" font-size="14" font-weight="bold" lengthAdjust="spacing" textLength="94" x="171" y="22.5332">abrirGrados()</text></g><!--entity AbrirGradosView--><g id="elem_AbrirGradosView"><rect fill="#629EF9" height="37.6094" rx="2.5" ry="2.5" style="stroke:#181818;stroke-width:0.5;" width="126" x="452" y="42"/><text fill="#000000" font-family="sans-serif" font-size="14" lengthAdjust="spacing" textLength="106" x="462" y="66.5332">AbrirGradosView</text></g><!--entity GradosController--><g id="elem_GradosController"><rect fill="#B5BD68" height="37.6094" rx="2.5" ry="2.5" style="stroke:#181818;stroke-width:0.5;" width="129" x="183.5" y="158"/><text fill="#000000" font-family="sans-serif" font-size="14" lengthAdjust="spacing" textLength="109" x="193.5" y="182.5332">GradosController</text></g><!--entity GradoRepository--><g id="elem_GradoRepository"><rect fill="#F2AC4E" height="37.6094" rx="2.5" ry="2.5" style="stroke:#181818;stroke-width:0.5;" width="128" x="496" y="158"/><text fill="#000000" font-family="sans-serif" font-size="14" lengthAdjust="spacing" textLength="108" x="506" y="182.5332">GradoRepository</text></g><!--entity Grado--><g id="elem_Grado"><rect fill="#F2AC4E" height="37.6094" rx="2.5" ry="2.5" style="stroke:#181818;stroke-width:0.5;" width="60" x="530" y="274"/><text fill="#000000" font-family="sans-serif" font-size="14" lengthAdjust="spacing" textLength="40" x="540" y="298.5332">Grado</text></g><!--entity SistemaDisponible--><g id="elem_SistemaDisponible"><rect fill="#CDEBA5" height="37.6094" rx="2.5" ry="2.5" style="stroke:#181818;stroke-width:0.5;" width="144" x="7" y="42"/><text fill="#000000" font-family="sans-serif" font-size="14" lengthAdjust="spacing" textLength="124" x="17" y="66.5332">:Sistema Disponible</text></g><!--entity CrearGrado--><g id="elem_CrearGrado"><rect fill="#CDEBA5" height="37.6094" rx="2.5" ry="2.5" style="stroke:#181818;stroke-width:0.5;" width="188" x="659" y="158"/><text fill="#000000" font-family="sans-serif" font-size="14" lengthAdjust="spacing" textLength="168" x="669" y="182.5332">:Collaboration CrearGrado</text></g><!--entity EditarGrado--><g id="elem_EditarGrado"><rect fill="#CDEBA5" height="37.6094" rx="2.5" ry="2.5" style="stroke:#181818;stroke-width:0.5;" width="189" x="882.5" y="158"/><text fill="#000000" font-family="sans-serif" font-size="14" lengthAdjust="spacing" textLength="169" x="892.5" y="182.5332">:Collaboration EditarGrado</text></g><!--entity EliminarGrado--><g id="elem_EliminarGrado"><rect fill="#CDEBA5" height="37.6094" rx="2.5" ry="2.5" style="stroke:#181818;stroke-width:0.5;" width="202" x="1107" y="158"/><text fill="#000000" font-family="sans-serif" font-size="14" lengthAdjust="spacing" textLength="182" x="1117" y="182.5332">:Collaboration EliminarGrado</text></g><!--entity ImportarGrados--><g id="elem_ImportarGrados"><rect fill="#CDEBA5" height="37.6094" rx="2.5" ry="2.5" style="stroke:#181818;stroke-width:0.5;" width="211" x="1344.5" y="158"/><text fill="#000000" font-family="sans-serif" font-size="14" lengthAdjust="spacing" textLength="191" x="1354.5" y="182.5332">:Collaboration ImportarGrados</text></g><!--link SistemaDisponible to AbrirGradosView--><g id="link_SistemaDisponible_AbrirGradosView"><path d="M151.19,69.24 C202.74,75.12 263,82 263,82 C263,82 340,82 340,82 C340,82 395.7328,75.3154 445.8628,69.2954 " fill="none" id="SistemaDisponible-to-AbrirGradosView" style="stroke:#181818;stroke-width:1.0;"/><polygon fill="#181818" points="451.82,68.58,442.4073,65.6816,446.8557,69.1762,443.3611,73.6245,451.82,68.58" style="stroke:#181818;stroke-width:1.0;"/><text fill="#000000" font-family="sans-serif" font-size="13" lengthAdjust="spacing" textLength="75" x="264" y="78.4951">abrirGrados()</text></g><!--link AbrirGradosView to SistemaDisponible--><g id="link_AbrirGradosView_SistemaDisponible"><path d="M451.91,61 C372.22,61 241.39,61 157.49,61 " fill="none" id="AbrirGradosView-to-SistemaDisponible" style="stroke:#181818;stroke-width:1.0;"/><polygon fill="#181818" points="151.49,61,160.49,65,156.49,61,160.49,57,151.49,61" style="stroke:#181818;stroke-width:1.0;"/><text fill="#000000" font-family="sans-serif" font-size="13" lengthAdjust="spacing" textLength="110" x="246.5" y="54.4951">completarGestion()</text></g><!--link AbrirGradosView to GradosController--><g id="link_AbrirGradosView_GradosController"><path d="M451.97,80.01 C404.29,93.63 347,110 347,110 C347,110 309.3515,135.0906 280.0415,154.6406 " fill="none" id="AbrirGradosView-to-GradosController" style="stroke:#181818;stroke-width:1.0;"/><polygon fill="#181818" points="275.05,157.97,284.7569,156.3036,279.2096,155.1955,280.3177,149.6483,275.05,157.97" style="stroke:#181818;stroke-width:1.0;"/><text fill="#000000" font-family="sans-serif" font-size="13" lengthAdjust="spacing" textLength="78" x="348" y="124.4951">listarGrados()</text></g><!--link AbrirGradosView to GradosController--><g id="link_AbrirGradosView_GradosController"><path d="M492.05,80.03 C467.18,99.58 431,128 431,128 C431,128 371.0137,143.7378 318.3237,157.5578 " fill="none" id="AbrirGradosView-to-GradosController-1" style="stroke:#181818;stroke-width:1.0;"/><polygon fill="#181818" points="312.52,159.08,322.2404,160.6658,317.3564,157.8115,320.2107,152.9275,312.52,159.08" style="stroke:#181818;stroke-width:1.0;"/><text fill="#000000" font-family="sans-serif" font-size="13" lengthAdjust="spacing" textLength="117" x="454" y="124.4951">filtrarGrados(criterio)</text></g><!--link GradosController to GradoRepository--><g id="link_GradosController_GradoRepository"><path d="M312.65,189.09 C337.6,193.76 360.25,198 360.25,198 C360.25,198 448.25,198 448.25,198 C448.25,198 465.1035,194.8399 490.0735,190.1399 " fill="none" id="GradosController-to-GradoRepository" style="stroke:#181818;stroke-width:1.0;"/><polygon fill="#181818" points="495.97,189.03,486.3854,186.7638,491.0563,189.9549,487.8652,194.6258,495.97,189.03" style="stroke:#181818;stroke-width:1.0;"/><text fill="#000000" font-family="sans-serif" font-size="13" lengthAdjust="spacing" textLength="86" x="361.25" y="194.4951">obtenerTodos()</text></g><!--link GradosController to GradoRepository--><g id="link_GradosController_GradoRepository"><path d="M312.65,177 C366.37,177 436.42,177 489.97,177 " fill="none" id="GradosController-to-GradoRepository-1" style="stroke:#181818;stroke-width:1.0;"/><polygon fill="#181818" points="495.97,177,486.97,173,490.97,177,486.97,181,495.97,177" style="stroke:#181818;stroke-width:1.0;"/><text fill="#000000" font-family="sans-serif" font-size="13" lengthAdjust="spacing" textLength="147" x="330.75" y="170.4951">buscarPorCriterio(criterio)</text></g><!--link GradoRepository to Grado--><g id="link_GradoRepository_Grado"><path d="M560,196.06 C560,217.28 560,246.3 560,267.64 " fill="none" id="GradoRepository-to-Grado" style="stroke:#181818;stroke-width:1.0;"/><polygon fill="#181818" points="560,273.64,564,264.64,560,268.64,556,264.64,560,273.64" style="stroke:#181818;stroke-width:1.0;"/><text fill="#000000" font-family="sans-serif" font-size="13" lengthAdjust="spacing" textLength="56" x="561" y="240.4951">&#171;accede&#187;</text></g><!--link AbrirGradosView to CrearGrado--><g id="link_AbrirGradosView_CrearGrado"><path d="M552.71,80.06 C597.15,101.35 665.1288,133.908 709.6588,155.238 " fill="none" id="AbrirGradosView-to-CrearGrado" style="stroke:#181818;stroke-width:1.0;stroke-dasharray:7.0,7.0;"/><polygon fill="#181818" points="715.07,157.83,708.6811,150.3345,710.5606,155.67,705.2251,157.5495,715.07,157.83" style="stroke:#181818;stroke-width:1.0;"/><text fill="#000000" font-family="sans-serif" font-size="13" lengthAdjust="spacing" textLength="72" x="649" y="124.4951">crearGrado()</text></g><!--link AbrirGradosView to EditarGrado--><g id="link_AbrirGradosView_EditarGrado"><path d="M578.05,76.08 C641.49,90.24 730,110 730,110 C730,110 830.5735,136.8706 903.7135,156.4206 " fill="none" id="AbrirGradosView-to-EditarGrado" style="stroke:#181818;stroke-width:1.0;stroke-dasharray:7.0,7.0;"/><polygon fill="#181818" points="909.51,157.97,901.8482,151.7816,904.6796,156.6789,899.7823,159.5103,909.51,157.97" style="stroke:#181818;stroke-width:1.0;"/><text fill="#000000" font-family="sans-serif" font-size="13" lengthAdjust="spacing" textLength="110" x="797" y="124.4951">editarGrado(Grado)</text></g><!--link AbrirGradosView to EliminarGrado--><g id="link_AbrirGradosView_EliminarGrado"><path d="M578.1,69.55 C691.02,83.07 916,110 916,110 C916,110 1035.8977,137.0967 1122.3577,156.6467 " fill="none" id="AbrirGradosView-to-EliminarGrado" style="stroke:#181818;stroke-width:1.0;stroke-dasharray:7.0,7.0;"/><polygon fill="#181818" points="1128.21,157.97,1120.3138,152.0836,1123.3331,156.8673,1118.5494,159.8866,1128.21,157.97" style="stroke:#181818;stroke-width:1.0;"/><text fill="#000000" font-family="sans-serif" font-size="13" lengthAdjust="spacing" textLength="123" x="995" y="124.4951">eliminarGrado(Grado)</text></g><!--link AbrirGradosView to ImportarGrados--><g id="link_AbrirGradosView_ImportarGrados"><path d="M578.19,66.96 C734.55,79.22 1127,110 1127,110 C1127,110 1260.2216,137.2184 1355.8616,156.7684 " fill="none" id="AbrirGradosView-to-ImportarGrados" style="stroke:#181818;stroke-width:1.0;stroke-dasharray:7.0,7.0;"/><polygon fill="#181818" points="1361.74,157.97,1353.7234,152.2486,1356.8413,156.9686,1352.1213,160.0865,1361.74,157.97" style="stroke:#181818;stroke-width:1.0;"/><text fill="#000000" font-family="sans-serif" font-size="13" lengthAdjust="spacing" textLength="97" x="1214" y="124.4951">importarGrados()</text></g><!--SRC=[ZL91QiCm4Bph5OjxIG_98JIXCS6GEaxfhRIbTzdU1X5P4YkL4ah_NZbEOzb9WtqGdcL6izfPknFASE8LIA7GxGs2qN9V0yO82yVLLYBSfEliOJM3A7uLrc75OIsiqKha4YFW5exbjieCBtPyYy1p4lH8lDIs9aO17jr6yCt0Vu7JVBh8DWjOjRHtWLzzLZxBo_azD8HKAqTQIgG-RJDTfNTPGtj1ewrmclRNMEpdyhjJVp_FDN4dj8AKa3VT7LxVmW7Qh1Gk50TuY5gAIgYEFgmCkE6fCfh-7EtXYcw9iRCqOKpZf9y9nD09ax4-OLnwLJ-ZsA-QFPbvsK3LXv2EJhA2X4CIshlsgKsplSnZqBb3XVIc6zU1glpJ5foUDQL7mpFdbXrq7iDooOi2IqoI2tEfhSw674EXAoEndWtQEgjBCvrCac3VlERqVs6KDJdOhnYm1QF3-Oyct2cl2k4rNNUHOX0Tx1ly1G00]--></g></svg>