<?xml version="1.0" encoding="us-ascii" standalone="no"?><svg xmlns="http://www.w3.org/2000/svg" xmlns:xlink="http://www.w3.org/1999/xlink" contentStyleType="text/css" height="438px" preserveAspectRatio="none" style="width:1892px;height:438px;background:#FFFFFF;" version="1.1" viewBox="0 0 1892 438" width="1892px" zoomAndPan="magnify"><defs/><g><!--cluster generarCalendario--><g id="cluster_generarCalendario"><path d="M8.5,109 L151.5,109 A3.75,3.75 0 0 1 154,111.5 L161,132.6094 L1396.5,132.6094 A2.5,2.5 0 0 1 1399,135.1094 L1399,428.5 A2.5,2.5 0 0 1 1396.5,431 L8.5,431 A2.5,2.5 0 0 1 6,428.5 L6,111.5 A2.5,2.5 0 0 1 8.5,109 " fill="none" style="stroke:#000000;stroke-width:1.5;"/><line style="stroke:#000000;stroke-width:1.5;" x1="6" x2="161" y1="132.6094" y2="132.6094"/><text fill="#000000" font-family="sans-serif" font-size="14" font-weight="bold" lengthAdjust="spacing" textLength="142" x="10" y="125.5332">generarCalendario()</text></g><!--entity GenerarCalendarioView--><g id="elem_GenerarCalendarioView"><rect fill="#629EF9" height="37.6094" rx="2.5" ry="2.5" style="stroke:#181818;stroke-width:0.5;" width="171" x="1211.5" y="145"/><text fill="#000000" font-family="sans-serif" font-size="14" lengthAdjust="spacing" textLength="151" x="1221.5" y="169.5332">GenerarCalendarioView</text></g><!--entity CalendarioController--><g id="elem_CalendarioController"><rect fill="#B5BD68" height="37.6094" rx="2.5" ry="2.5" style="stroke:#181818;stroke-width:0.5;" width="151" x="706.5" y="261"/><text fill="#000000" font-family="sans-serif" font-size="14" lengthAdjust="spacing" textLength="131" x="716.5" y="285.5332">CalendarioController</text></g><!--entity ExamenRepository--><g id="elem_ExamenRepository"><rect fill="#F2AC4E" height="37.6094" rx="2.5" ry="2.5" style="stroke:#181818;stroke-width:0.5;" width="138" x="22" y="377"/><text fill="#000000" font-family="sans-serif" font-size="14" lengthAdjust="spacing" textLength="118" x="32" y="401.5332">ExamenRepository</text></g><!--entity AulaRepository--><g id="elem_AulaRepository"><rect fill="#F2AC4E" height="37.6094" rx="2.5" ry="2.5" style="stroke:#181818;stroke-width:0.5;" width="116" x="219" y="377"/><text fill="#000000" font-family="sans-serif" font-size="14" lengthAdjust="spacing" textLength="96" x="229" y="401.5332">AulaRepository</text></g><!--entity ProfesorRepository--><g id="elem_ProfesorRepository"><rect fill="#F2AC4E" height="37.6094" rx="2.5" ry="2.5" style="stroke:#181818;stroke-width:0.5;" width="142" x="399" y="377"/><text fill="#000000" font-family="sans-serif" font-size="14" lengthAdjust="spacing" textLength="122" x="409" y="401.5332">ProfesorRepository</text></g><!--entity PreferenciaRepository--><g id="elem_PreferenciaRepository"><rect fill="#F2AC4E" height="37.6094" rx="2.5" ry="2.5" style="stroke:#181818;stroke-width:0.5;" width="161" x="611.5" y="377"/><text fill="#000000" font-family="sans-serif" font-size="14" lengthAdjust="spacing" textLength="141" x="621.5" y="401.5332">PreferenciaRepository</text></g><!--entity Examen--><g id="elem_Examen"><rect fill="#F2AC4E" height="37.6094" rx="2.5" ry="2.5" style="stroke:#181818;stroke-width:0.5;" width="70" x="947" y="377"/><text fill="#000000" font-family="sans-serif" font-size="14" lengthAdjust="spacing" textLength="50" x="957" y="401.5332">Examen</text></g><!--entity Calendario--><g id="elem_Calendario"><rect fill="#F2AC4E" height="37.6094" rx="2.5" ry="2.5" style="stroke:#181818;stroke-width:0.5;" width="89" x="1124.5" y="377"/><text fill="#000000" font-family="sans-serif" font-size="14" lengthAdjust="spacing" textLength="69" x="1134.5" y="401.5332">Calendario</text></g><!--entity GeneracionResult--><g id="elem_GeneracionResult"><rect fill="#F2AC4E" height="37.6094" rx="2.5" ry="2.5" style="stroke:#181818;stroke-width:0.5;" width="134" x="1249" y="377"/><text fill="#000000" font-family="sans-serif" font-size="14" lengthAdjust="spacing" textLength="114" x="1259" y="401.5332">GeneracionResult</text></g><!--entity SistemaDisponible--><g id="elem_SistemaDisponible"><rect fill="#CDEBA5" height="37.6094" rx="2.5" ry="2.5" style="stroke:#181818;stroke-width:0.5;" width="144" x="1225" y="7"/><text fill="#000000" font-family="sans-serif" font-size="14" lengthAdjust="spacing" textLength="124" x="1235" y="31.5332">:Sistema Disponible</text></g><!--entity CalendarioGenerado--><g id="elem_CalendarioGenerado"><rect fill="#CDEBA5" height="37.6094" rx="2.5" ry="2.5" style="stroke:#181818;stroke-width:0.5;" width="161" x="1415.5" y="261"/><text fill="#000000" font-family="sans-serif" font-size="14" lengthAdjust="spacing" textLength="141" x="1425.5" y="285.5332">:Calendario Generado</text></g><!--entity ListarConflictosExamenes--><g id="elem_ListarConflictosExamenes"><rect fill="#CDEBA5" height="37.6094" rx="2.5" ry="2.5" style="stroke:#181818;stroke-width:0.5;" width="274" x="1612" y="261"/><text fill="#000000" font-family="sans-serif" font-size="14" lengthAdjust="spacing" textLength="254" x="1622" y="285.5332">:Collaboration ListarConflictosExamenes</text></g><!--link SistemaDisponible to GenerarCalendarioView--><g id="link_SistemaDisponible_GenerarCalendarioView"><path d="M1266.76,45.15 C1244.1,58.74 1217,75 1217,75 C1217,75 1217,93 1217,93 C1217,93 1248.1739,120.2796 1271.8839,141.0196 " fill="none" id="SistemaDisponible-to-GenerarCalendarioView" style="stroke:#181818;stroke-width:1.0;"/><polygon fill="#181818" points="1276.4,144.97,1272.2595,136.0338,1272.6366,141.678,1266.9924,142.0552,1276.4,144.97" style="stroke:#181818;stroke-width:1.0;"/><text fill="#000000" font-family="sans-serif" font-size="13" lengthAdjust="spacing" textLength="112" x="1218" y="89.4951">generarCalendario()</text></g><!--link GenerarCalendarioView to SistemaDisponible--><g id="link_GenerarCalendarioView_SistemaDisponible"><path d="M1306.79,144.97 C1318.05,124.23 1335,93 1335,93 C1335,93 1335,75 1335,75 C1335,75 1325.8545,63.4441 1315.0945,49.8541 " fill="none" id="GenerarCalendarioView-to-SistemaDisponible" style="stroke:#181818;stroke-width:1.0;stroke-dasharray:7.0,7.0;"/><polygon fill="#181818" points="1311.37,45.15,1313.8207,54.6891,1314.4737,49.0701,1320.0928,49.7231,1311.37,45.15" style="stroke:#181818;stroke-width:1.0;"/><text fill="#000000" font-family="sans-serif" font-size="13" lengthAdjust="spacing" textLength="63" x="1336" y="89.4951">&#171;cancelar&#187;</text></g><!--link CalendarioController to ExamenRepository--><g id="link_CalendarioController_ExamenRepository"><path d="M706.22,286.55 C533.81,299.19 127,329 127,329 C127,329 114.3724,352.1522 103.7124,371.7022 " fill="none" id="CalendarioController-to-ExamenRepository" style="stroke:#181818;stroke-width:1.0;"/><polygon fill="#181818" points="100.84,376.97,108.6604,370.9832,103.2336,372.5802,101.6367,367.1534,100.84,376.97" style="stroke:#181818;stroke-width:1.0;"/><text fill="#000000" font-family="sans-serif" font-size="13" lengthAdjust="spacing" textLength="178" x="128" y="343.4951">obtenerExamenesPendientes()</text></g><!--link CalendarioController to AulaRepository--><g id="link_CalendarioController_AulaRepository"><path d="M706.35,289.03 C577.67,302.7 330,329 330,329 C330,329 310.9255,352.7406 295.2355,372.2906 " fill="none" id="CalendarioController-to-AulaRepository" style="stroke:#181818;stroke-width:1.0;"/><polygon fill="#181818" points="291.48,376.97,300.2328,372.4546,294.6096,373.0705,293.9936,367.4473,291.48,376.97" style="stroke:#181818;stroke-width:1.0;"/><text fill="#000000" font-family="sans-serif" font-size="13" lengthAdjust="spacing" textLength="151" x="331" y="343.4951">obtenerAulasDisponibles()</text></g><!--link CalendarioController to ProfesorRepository--><g id="link_CalendarioController_ProfesorRepository"><path d="M706.16,293.86 C622.33,308.08 499,329 499,329 C499,329 488.9236,351.9269 480.3336,371.4769 " fill="none" id="CalendarioController-to-ProfesorRepository" style="stroke:#181818;stroke-width:1.0;"/><polygon fill="#181818" points="477.92,376.97,485.2025,370.3394,479.9313,372.3924,477.8783,367.1212,477.92,376.97" style="stroke:#181818;stroke-width:1.0;"/><text fill="#000000" font-family="sans-serif" font-size="13" lengthAdjust="spacing" textLength="180" x="500" y="343.4951">obtenerProfesoresDisponibles()</text></g><!--link CalendarioController to PreferenciaRepository--><g id="link_CalendarioController_PreferenciaRepository"><path d="M747.11,299.01 C720.72,312.63 689,329 689,329 C689,329 689,347 689,347 C689,347 689.6455,357.2717 690.4955,370.8617 " fill="none" id="CalendarioController-to-PreferenciaRepository" style="stroke:#181818;stroke-width:1.0;"/><polygon fill="#181818" points="690.87,376.85,694.3004,367.6179,690.5579,371.8598,686.316,368.1172,690.87,376.85" style="stroke:#181818;stroke-width:1.0;"/><text fill="#000000" font-family="sans-serif" font-size="13" lengthAdjust="spacing" textLength="248" x="690" y="343.4951">verificarPreferenciasDocentes(franja, fecha)</text></g><!--link GenerarCalendarioView to CalendarioController--><g id="link_GenerarCalendarioView_CalendarioController"><path d="M1211.35,181.25 C1137.95,195.18 1044,213 1044,213 C1044,213 936.9881,239.9538 859.4081,259.5038 " fill="none" id="GenerarCalendarioView-to-CalendarioController" style="stroke:#181818;stroke-width:1.0;"/><polygon fill="#181818" points="853.59,260.97,863.2946,262.6495,858.4384,259.7482,861.3397,254.892,853.59,260.97" style="stroke:#181818;stroke-width:1.0;"/><text fill="#000000" font-family="sans-serif" font-size="13" lengthAdjust="spacing" textLength="330" x="1045" y="227.4951">generar(fechaInicio, fechaFin, franjas) : GeneracionResult</text></g><!--link GenerarCalendarioView to ListarConflictosExamenes--><g id="link_GenerarCalendarioView_ListarConflictosExamenes"><path d="M1382.72,178.95 C1469.82,193.12 1592,213 1592,213 C1592,213 1654.0791,239.0942 1700.5691,258.6442 " fill="none" id="GenerarCalendarioView-to-ListarConflictosExamenes" style="stroke:#181818;stroke-width:1.0;stroke-dasharray:7.0,7.0;"/><polygon fill="#181818" points="1706.1,260.97,1699.3543,253.794,1701.4909,259.0318,1696.2531,261.1685,1706.1,260.97" style="stroke:#181818;stroke-width:1.0;"/><text fill="#000000" font-family="sans-serif" font-size="13" lengthAdjust="spacing" textLength="102" x="1635" y="227.4951">revisarConflictos()</text></g><!--link CalendarioController to Examen--><g id="link_CalendarioController_Examen"><path d="M842.41,299.01 C888.09,312.63 943,329 943,329 C943,329 956.75,352.253 968.29,371.803 " fill="none" id="CalendarioController-to-Examen" style="stroke:#181818;stroke-width:1.0;"/><polygon fill="#181818" points="971.34,376.97,970.2097,367.1862,968.7984,372.6642,963.3204,371.2528,971.34,376.97" style="stroke:#181818;stroke-width:1.0;"/><text fill="#000000" font-family="sans-serif" font-size="13" lengthAdjust="spacing" textLength="212" x="954" y="343.4951">&#171;update&#187; asignarProfesorAExamen()</text></g><!--link CalendarioController to Calendario--><g id="link_CalendarioController_Calendario"><path d="M857.77,290.25 C971.98,304.2 1175,329 1175,329 C1175,329 1175,347 1175,347 C1175,347 1173.7147,357.3064 1172.0147,370.8964 " fill="none" id="CalendarioController-to-Calendario" style="stroke:#181818;stroke-width:1.0;"/><polygon fill="#181818" points="1171.27,376.85,1176.3562,368.4161,1171.8906,371.8887,1168.4181,367.4231,1171.27,376.85" style="stroke:#181818;stroke-width:1.0;"/><text fill="#000000" font-family="sans-serif" font-size="13" lengthAdjust="spacing" textLength="53" x="1176" y="343.4951">&#171;update&#187;</text></g><!--link CalendarioController to GeneracionResult--><g id="link_CalendarioController_GeneracionResult"><path d="M857.55,288.95 C987.15,302.59 1238,329 1238,329 C1238,329 1267.0101,353.5439 1290.1101,373.0939 " fill="none" id="CalendarioController-to-GeneracionResult" style="stroke:#181818;stroke-width:1.0;"/><polygon fill="#181818" points="1294.69,376.97,1290.4042,368.1026,1290.8734,373.7399,1285.236,374.2091,1294.69,376.97" style="stroke:#181818;stroke-width:1.0;"/><text fill="#000000" font-family="sans-serif" font-size="13" lengthAdjust="spacing" textLength="50" x="1259" y="343.4951">&#171;create&#187;</text></g><!--link GenerarCalendarioView to CalendarioGenerado--><g id="link_GenerarCalendarioView_CalendarioGenerado"><path d="M1328.53,183.06 C1365.68,204.35 1421.8539,236.5173 1459.0839,257.8473 " fill="none" id="GenerarCalendarioView-to-CalendarioGenerado" style="stroke:#181818;stroke-width:1.0;stroke-dasharray:7.0,7.0;"/><polygon fill="#181818" points="1464.29,260.83,1458.4693,252.8852,1459.9516,258.3444,1454.4924,259.8267,1464.29,260.83" style="stroke:#181818;stroke-width:1.0;"/><text fill="#000000" font-family="sans-serif" font-size="13" lengthAdjust="spacing" textLength="174" x="1409" y="227.4951">&#171;finalizar&#187; guardarCalendario()</text></g><!--SRC=[ZPHDJzmm48Rl_XNMzW9IuO005OHMsku7giG1KQdtYJD9ftZjQEobRAl-zqwINHBoiMnEoVXz7y-7dV1ChW26jRRaC6uBr8Mts_93AKOJmUKMzQVvOlbrTgKdjzyfH5o3Nb0elAF4uaH3qBjm4nqqpy6YIu79wtjqo93wojt4z-5XkxSM4iyGoJlz85i2pxtBB9dem_8Lrk8E5N5iKQa2p3FagFDg9swb9BP9BtfoEj5_bTBoj5AwlhXPhcvsHRJKFmX_TxN9LP9UVsdLA5b5bbAGkzBLnMn-kTHriazO-43HytP4DjjO-53qo3x3uFa88MR8w0nz3AqJ75bi2XqHr5qpCiCd31iRrJ-bUkT7dvrDX_khR_N0b9GQQd15wRPJ03w99M9_AXx5IEWY1W6DSjxtkw6KyT1aVf3H7qV3sQ_XyR21aGdl1PaoCi0jGLXuKrUOCRXVy5bdQ7w2z6suoIL_SEEtxfzKW6-EP98xsegSl5NyS2hAxgJrs6xdvzFHAoiSnXSAxRKZvYsskxjDaKB4wLJkDkKEtbeygpK7CQq_GnjrmD4hj_GPnfrllFJ-_w-oPkJ0qXzWAI3V0AUT8pyEx5-dAXLm1cs9K_y1]--></g></svg>