<?xml version="1.0" encoding="us-ascii" standalone="no"?><svg xmlns="http://www.w3.org/2000/svg" xmlns:xlink="http://www.w3.org/1999/xlink" contentStyleType="text/css" height="735px" preserveAspectRatio="none" style="width:1140px;height:735px;background:#FFFFFF;" version="1.1" viewBox="0 0 1140 735" width="1140px" zoomAndPan="magnify"><defs/><g><!--cluster consultarCalendario--><g id="cluster_consultarCalendario"><path d="M169.5,109 L322.5,109 A3.75,3.75 0 0 1 325,111.5 L332,132.6094 L588.5,132.6094 A2.5,2.5 0 0 1 591,135.1094 L591,725.5 A2.5,2.5 0 0 1 588.5,728 L169.5,728 A2.5,2.5 0 0 1 167,725.5 L167,111.5 A2.5,2.5 0 0 1 169.5,109 " fill="none" style="stroke:#000000;stroke-width:1.5;"/><line style="stroke:#000000;stroke-width:1.5;" x1="167" x2="332" y1="132.6094" y2="132.6094"/><text fill="#000000" font-family="sans-serif" font-size="14" font-weight="bold" lengthAdjust="spacing" textLength="152" x="171" y="125.5332">consultarCalendario()</text></g><!--entity ConsultarCalendarioView--><g id="elem_ConsultarCalendarioView"><rect fill="#629EF9" height="37.6094" rx="2.5" ry="2.5" style="stroke:#181818;stroke-width:0.5;" width="179" x="309.5" y="145"/><text fill="#000000" font-family="sans-serif" font-size="14" lengthAdjust="spacing" textLength="159" x="319.5" y="169.5332">ConsultarCalendarioView</text></g><!--entity CalendarioController--><g id="elem_CalendarioController"><rect fill="#B5BD68" height="37.6094" rx="2.5" ry="2.5" style="stroke:#181818;stroke-width:0.5;" width="151" x="423.5" y="261"/><text fill="#000000" font-family="sans-serif" font-size="14" lengthAdjust="spacing" textLength="131" x="433.5" y="285.5332">CalendarioController</text></g><!--entity ExamenRepository--><g id="elem_ExamenRepository"><rect fill="#F2AC4E" height="37.6094" rx="2.5" ry="2.5" style="stroke:#181818;stroke-width:0.5;" width="138" x="308" y="377"/><text fill="#000000" font-family="sans-serif" font-size="14" lengthAdjust="spacing" textLength="118" x="318" y="401.5332">ExamenRepository</text></g><!--entity Calendario--><g id="elem_Calendario"><rect fill="#F2AC4E" height="37.6094" rx="2.5" ry="2.5" style="stroke:#181818;stroke-width:0.5;" width="89" x="183.5" y="377"/><text fill="#000000" font-family="sans-serif" font-size="14" lengthAdjust="spacing" textLength="69" x="193.5" y="401.5332">Calendario</text></g><!--entity Examen--><g id="elem_Examen"><rect fill="#F2AC4E" height="37.6094" rx="2.5" ry="2.5" style="stroke:#181818;stroke-width:0.5;" width="70" x="267" y="476"/><text fill="#000000" font-family="sans-serif" font-size="14" lengthAdjust="spacing" textLength="50" x="277" y="500.5332">Examen</text></g><!--entity Asignatura--><g id="elem_Asignatura"><rect fill="#F2AC4E" height="37.6094" rx="2.5" ry="2.5" style="stroke:#181818;stroke-width:0.5;" width="88" x="258" y="575"/><text fill="#000000" font-family="sans-serif" font-size="14" lengthAdjust="spacing" textLength="68" x="268" y="599.5332">Asignatura</text></g><!--entity Grado--><g id="elem_Grado"><rect fill="#F2AC4E" height="37.6094" rx="2.5" ry="2.5" style="stroke:#181818;stroke-width:0.5;" width="60" x="272" y="674"/><text fill="#000000" font-family="sans-serif" font-size="14" lengthAdjust="spacing" textLength="40" x="282" y="698.5332">Grado</text></g><!--entity Session--><g id="elem_Session"><rect fill="#F2AC4E" height="37.6094" rx="2.5" ry="2.5" style="stroke:#181818;stroke-width:0.5;" width="74" x="183" y="261"/><text fill="#000000" font-family="sans-serif" font-size="14" lengthAdjust="spacing" textLength="54" x="193" y="285.5332">:Session</text></g><!--entity SistemaDisponible--><g id="elem_SistemaDisponible"><rect fill="#CDEBA5" height="37.6094" rx="2.5" ry="2.5" style="stroke:#181818;stroke-width:0.5;" width="144" x="7" y="145"/><text fill="#000000" font-family="sans-serif" font-size="14" lengthAdjust="spacing" textLength="124" x="17" y="169.5332">:Sistema Disponible</text></g><!--entity CalendarioAbierto--><g id="elem_CalendarioAbierto"><rect fill="#CDEBA5" height="37.6094" rx="2.5" ry="2.5" style="stroke:#181818;stroke-width:0.5;" width="142" x="328" y="7"/><text fill="#000000" font-family="sans-serif" font-size="14" lengthAdjust="spacing" textLength="122" x="338" y="31.5332">:Calendario Abierto</text></g><!--entity DescargarCalendario--><g id="elem_DescargarCalendario"><rect fill="#CDEBA5" height="37.6094" rx="2.5" ry="2.5" style="stroke:#181818;stroke-width:0.5;" width="247" x="609.5" y="261"/><text fill="#000000" font-family="sans-serif" font-size="14" lengthAdjust="spacing" textLength="227" x="619.5" y="285.5332">:Collaboration DescargarCalendario</text></g><!--entity Incidencia--><g id="elem_Incidencia"><rect fill="#CDEBA5" height="37.6094" rx="2.5" ry="2.5" style="stroke:#181818;stroke-width:0.5;" width="243" x="891.5" y="261"/><text fill="#000000" font-family="sans-serif" font-size="14" lengthAdjust="spacing" textLength="223" x="901.5" y="285.5332">:Collaboration ComunicarIncidencia</text></g><!--link SistemaDisponible to ConsultarCalendarioView--><g id="link_SistemaDisponible_ConsultarCalendarioView"><path d="M151.04,180.95 C161.19,183.34 168.25,185 168.25,185 C168.25,185 292.25,185 292.25,185 C292.25,185 293.2428,184.808 303.5128,182.788 " fill="none" id="SistemaDisponible-to-ConsultarCalendarioView" style="stroke:#181818;stroke-width:1.0;"/><polygon fill="#181818" points="309.4,181.63,299.7972,179.4421,304.494,182.595,301.3412,187.2917,309.4,181.63" style="stroke:#181818;stroke-width:1.0;"/><text fill="#000000" font-family="sans-serif" font-size="13" lengthAdjust="spacing" textLength="122" x="169.25" y="181.4951">consultarCalendario()</text></g><!--link ConsultarCalendarioView to SistemaDisponible--><g id="link_ConsultarCalendarioView_SistemaDisponible"><path d="M309.32,164 C259.38,164 204.03,164 157.21,164 " fill="none" id="ConsultarCalendarioView-to-SistemaDisponible" style="stroke:#181818;stroke-width:1.0;stroke-dasharray:7.0,7.0;"/><polygon fill="#181818" points="151.21,164,160.21,168,156.21,164,160.21,160,151.21,164" style="stroke:#181818;stroke-width:1.0;"/><text fill="#000000" font-family="sans-serif" font-size="13" lengthAdjust="spacing" textLength="178" x="141.25" y="157.4951">&#171;finalizar&#187; completarConsulta()</text></g><!--link ConsultarCalendarioView to CalendarioController--><g id="link_ConsultarCalendarioView_CalendarioController"><path d="M414.85,183.06 C433.46,204.28 460.2121,234.7906 478.9421,256.1306 " fill="none" id="ConsultarCalendarioView-to-CalendarioController" style="stroke:#181818;stroke-width:1.0;"/><polygon fill="#181818" points="482.9,260.64,479.9694,251.2372,479.6017,256.8821,473.9569,256.5145,482.9,260.64" style="stroke:#181818;stroke-width:1.0;"/><text fill="#000000" font-family="sans-serif" font-size="13" lengthAdjust="spacing" textLength="185" x="456" y="227.4951">solicitarCalendario(rango, filtros)</text></g><!--reverse link Session to CalendarioController--><g id="link_Session_CalendarioController"><path d="M263.05,280 C305.29,280 369.48,280 423.41,280 " fill="none" id="Session-backto-CalendarioController" style="stroke:#181818;stroke-width:1.0;"/><polygon fill="#181818" points="257.05,280,266.05,284,262.05,280,266.05,276,257.05,280" style="stroke:#181818;stroke-width:1.0;"/><text fill="#000000" font-family="sans-serif" font-size="13" lengthAdjust="spacing" textLength="130" x="275.25" y="273.4951">obtenerUsuarioActivo()</text></g><!--link CalendarioController to ExamenRepository--><g id="link_CalendarioController_ExamenRepository"><path d="M479.67,299.06 C456.96,320.28 423.8751,351.2047 401.0251,372.5447 " fill="none" id="CalendarioController-to-ExamenRepository" style="stroke:#181818;stroke-width:1.0;"/><polygon fill="#181818" points="396.64,376.64,405.9478,373.4205,400.2942,373.2273,400.4874,367.5737,396.64,376.64" style="stroke:#181818;stroke-width:1.0;"/><text fill="#000000" font-family="sans-serif" font-size="13" lengthAdjust="spacing" textLength="230" x="447" y="343.4951">buscarExamenes(rango, filtros, usuario)</text></g><!--link ExamenRepository to Examen--><g id="link_ExamenRepository_Examen"><path d="M362.89,415.24 C349.48,432.59 333.0998,453.7731 319.7098,471.0931 " fill="none" id="ExamenRepository-to-Examen" style="stroke:#181818;stroke-width:1.0;"/><polygon fill="#181818" points="316.04,475.84,324.7092,471.1662,319.0981,471.8843,318.3801,466.2732,316.04,475.84" style="stroke:#181818;stroke-width:1.0;"/></g><!--link Examen to Asignatura--><g id="link_Examen_Asignatura"><path d="M302,514.24 C302,531.59 302,551.52 302,568.84 " fill="none" id="Examen-to-Asignatura" style="stroke:#181818;stroke-width:1.0;"/><polygon fill="#181818" points="302,574.84,306,565.84,302,569.84,298,565.84,302,574.84" style="stroke:#181818;stroke-width:1.0;"/></g><!--link Asignatura to Grado--><g id="link_Asignatura_Grado"><path d="M302,613.24 C302,630.59 302,650.52 302,667.84 " fill="none" id="Asignatura-to-Grado" style="stroke:#181818;stroke-width:1.0;"/><polygon fill="#181818" points="302,673.84,306,664.84,302,668.84,298,664.84,302,673.84" style="stroke:#181818;stroke-width:1.0;"/></g><!--link Calendario to Examen--><g id="link_Calendario_Examen"><path d="M241.92,415.24 C255.15,432.59 271.2913,453.7492 284.5013,471.0692 " fill="none" id="Calendario-to-Examen" style="stroke:#181818;stroke-width:1.0;"/><polygon fill="#181818" points="288.14,475.84,285.8625,466.2581,285.1078,471.8644,279.5015,471.1096,288.14,475.84" style="stroke:#181818;stroke-width:1.0;"/></g><!--link ConsultarCalendarioView to CalendarioAbierto--><g id="link_ConsultarCalendarioView_CalendarioAbierto"><path d="M367.32,144.97 C330.88,124.23 276,93 276,93 C276,93 276,75 276,75 C276,75 312.3606,60.8113 347.2606,47.1913 " fill="none" id="ConsultarCalendarioView-to-CalendarioAbierto" style="stroke:#181818;stroke-width:1.0;"/><polygon fill="#181818" points="352.85,45.01,343.0116,44.5557,348.1921,46.8278,345.9201,52.0083,352.85,45.01" style="stroke:#181818;stroke-width:1.0;"/><text fill="#000000" font-family="sans-serif" font-size="13" lengthAdjust="spacing" textLength="198" x="277" y="89.4951">mostrarCalendario(List&lt;Examen&gt;)</text></g><!--link CalendarioAbierto to ConsultarCalendarioView--><g id="link_CalendarioAbierto_ConsultarCalendarioView"><path d="M429.62,45.15 C452.56,58.74 480,75 480,75 C480,75 480,93 480,93 C480,93 448.3997,120.3069 424.3997,141.0469 " fill="none" id="CalendarioAbierto-to-ConsultarCalendarioView" style="stroke:#181818;stroke-width:1.0;"/><polygon fill="#181818" points="419.86,144.97,429.285,142.1119,423.6431,141.7008,424.0542,136.0589,419.86,144.97" style="stroke:#181818;stroke-width:1.0;"/><text fill="#000000" font-family="sans-serif" font-size="13" lengthAdjust="spacing" textLength="188" x="481" y="89.4951">descargarCalendarioExamenes()</text></g><!--link ConsultarCalendarioView to DescargarCalendario--><g id="link_ConsultarCalendarioView_DescargarCalendario"><path d="M488.55,182.13 C560.64,195.91 650,213 650,213 C650,213 681.0549,237.6842 705.6249,257.2342 " fill="none" id="ConsultarCalendarioView-to-DescargarCalendario" style="stroke:#181818;stroke-width:1.0;stroke-dasharray:7.0,7.0;"/><polygon fill="#181818" points="710.32,260.97,705.7679,252.2362,706.4074,257.8568,700.7868,258.4963,710.32,260.97" style="stroke:#181818;stroke-width:1.0;"/><text fill="#000000" font-family="sans-serif" font-size="13" lengthAdjust="spacing" textLength="71" x="673" y="227.4951">&#171;descargar&#187;</text></g><!--link ConsultarCalendarioView to Incidencia--><g id="link_ConsultarCalendarioView_Incidencia"><path d="M488.79,177.17 C593.66,191.39 753,213 753,213 C753,213 859.1546,239.9431 936.1346,259.4931 " fill="none" id="ConsultarCalendarioView-to-Incidencia" style="stroke:#181818;stroke-width:1.0;stroke-dasharray:7.0,7.0;"/><polygon fill="#181818" points="941.95,260.97,934.2115,254.8777,937.1038,259.7393,932.2423,262.6316,941.95,260.97" style="stroke:#181818;stroke-width:1.0;"/><text fill="#000000" font-family="sans-serif" font-size="13" lengthAdjust="spacing" textLength="72" x="823" y="227.4951">&#171;incidencia&#187;</text></g><!--SRC=[ZP9FRzGm4CNl_XIZvKAbfeUALhHQHLgoMuJ42GJtIJ9TZUhOaUq02-AxC_d39hjnLiqXYiVpVdRUFF_2faQ75MWs50urGMtreLqevQW8QFQQu4sstNtOtC7gyIlxG1N2bdrj3UUQLe0UXl9OLQh6uWNt18Krlj41NOQQJ8cERQjOHUflhrRmHocGPtBs_Ut3xka1idd_TwQVvztvNLxUluUnINJ1MQt9dRS-tMwoTplO_SAAp1UghUTWtK4jz8t8Yw25pOtdlS7GE5ne-EYmj4jdY_7aFLlJkzr_gx_n6KsCtkHCBjXEDPQ7QbmiLc5k7GOv0RRa2tJxgUaTAr9_1IspLMDOX9zCmIN92plQk5HgbYH8N98kJHyU8PeZfPO4ITdI8kaGbBUQ2pv5EVabUmtFhANFj-2ODj527SOY89i7CkI- -QQpkmZyexzKLDlUw3o40icRrkD-W_pPHQwXwU52dMcJ8t3OwogJ18wVtKuVlKbi9e1b8zs9aKEcvDwLzS6TUFXPPhhkUUc92_z5_L0MHrpEqtQqvMhnWZStQIodmbklZyGqlQWVazd9-BWKtKNXFCQj_faDQlxT7YkvhMfDhNh0oA_y0m00]--></g></svg>