<?xml version="1.0" encoding="us-ascii" standalone="no"?><svg xmlns="http://www.w3.org/2000/svg" xmlns:xlink="http://www.w3.org/1999/xlink" contentStyleType="text/css" height="1310px" preserveAspectRatio="none" style="width:1406px;height:1310px;background:#FFFFFF;" version="1.1" viewBox="0 0 1406 1310" width="1406px" zoomAndPan="magnify"><defs/><g><rect fill="none" height="400.7578" style="stroke:#000000;stroke-width:1.5;" width="1379" x="10" y="810.6953"/><line style="stroke:#181818;stroke-width:0.5;stroke-dasharray:5.0,5.0;" x1="66" x2="66" y1="82.6094" y2="1228.4531"/><line style="stroke:#181818;stroke-width:0.5;stroke-dasharray:5.0,5.0;" x1="265" x2="265" y1="82.6094" y2="1228.4531"/><line style="stroke:#181818;stroke-width:0.5;stroke-dasharray:5.0,5.0;" x1="507" x2="507" y1="82.6094" y2="1228.4531"/><line style="stroke:#181818;stroke-width:0.5;stroke-dasharray:5.0,5.0;" x1="701" x2="701" y1="82.6094" y2="1228.4531"/><line style="stroke:#181818;stroke-width:0.5;stroke-dasharray:5.0,5.0;" x1="924.5" x2="924.5" y1="82.6094" y2="1228.4531"/><line style="stroke:#181818;stroke-width:0.5;stroke-dasharray:5.0,5.0;" x1="1118" x2="1118" y1="82.6094" y2="1228.4531"/><line style="stroke:#181818;stroke-width:0.5;stroke-dasharray:5.0,5.0;" x1="1337" x2="1337" y1="82.6094" y2="1228.4531"/><text fill="#000000" font-family="sans-serif" font-size="14" lengthAdjust="spacing" textLength="87" x="20" y="79.5332">Administrador</text><ellipse cx="66.5" cy="13.5" fill="#E2E2F0" rx="8" ry="8" style="stroke:#181818;stroke-width:0.5;"/><path d="M66.5,21.5 L66.5,48.5 M53.5,29.5 L79.5,29.5 M66.5,48.5 L53.5,63.5 M66.5,48.5 L79.5,63.5 " fill="none" style="stroke:#181818;stroke-width:0.5;"/><text fill="#000000" font-family="sans-serif" font-size="14" lengthAdjust="spacing" textLength="87" x="20" y="1241.9863">Administrador</text><ellipse cx="66.5" cy="1253.5625" fill="#E2E2F0" rx="8" ry="8" style="stroke:#181818;stroke-width:0.5;"/><path d="M66.5,1261.5625 L66.5,1288.5625 M53.5,1269.5625 L79.5,1269.5625 M66.5,1288.5625 L53.5,1303.5625 M66.5,1288.5625 L79.5,1303.5625 " fill="none" style="stroke:#181818;stroke-width:0.5;"/><rect fill="#E2E2F0" height="66.8281" rx="2.5" ry="2.5" style="stroke:#181818;stroke-width:0.5;" width="145" x="193" y="14.7813"/><text fill="#000000" font-family="sans-serif" font-size="14" font-style="italic" lengthAdjust="spacing" textLength="89" x="221" y="36.3145">&#171;Component&#187;</text><text fill="#000000" font-family="sans-serif" font-size="14" lengthAdjust="spacing" textLength="131" x="200" y="53.9238">AsignarProfesorView</text><text fill="#000000" font-family="sans-serif" font-size="14" lengthAdjust="spacing" textLength="47" x="242" y="71.5332">(React)</text><rect fill="#E2E2F0" height="66.8281" rx="2.5" ry="2.5" style="stroke:#181818;stroke-width:0.5;" width="145" x="193" y="1227.4531"/><text fill="#000000" font-family="sans-serif" font-size="14" font-style="italic" lengthAdjust="spacing" textLength="89" x="221" y="1248.9863">&#171;Component&#187;</text><text fill="#000000" font-family="sans-serif" font-size="14" lengthAdjust="spacing" textLength="131" x="200" y="1266.5957">AsignarProfesorView</text><text fill="#000000" font-family="sans-serif" font-size="14" lengthAdjust="spacing" textLength="47" x="242" y="1284.2051">(React)</text><rect fill="#E2E2F0" height="66.8281" rx="2.5" ry="2.5" style="stroke:#181818;stroke-width:0.5;" width="121" x="447" y="14.7813"/><text fill="#000000" font-family="sans-serif" font-size="14" font-style="italic" lengthAdjust="spacing" textLength="50" x="482.5" y="36.3145">&#171;Hook&#187;</text><text fill="#000000" font-family="sans-serif" font-size="14" lengthAdjust="spacing" textLength="107" x="454" y="53.9238">useAsignaciones</text><text fill="#000000" font-family="sans-serif" font-size="14" lengthAdjust="spacing" textLength="42" x="486.5" y="71.5332">(Hook)</text><rect fill="#E2E2F0" height="66.8281" rx="2.5" ry="2.5" style="stroke:#181818;stroke-width:0.5;" width="121" x="447" y="1227.4531"/><text fill="#000000" font-family="sans-serif" font-size="14" font-style="italic" lengthAdjust="spacing" textLength="50" x="482.5" y="1248.9863">&#171;Hook&#187;</text><text fill="#000000" font-family="sans-serif" font-size="14" lengthAdjust="spacing" textLength="107" x="454" y="1266.5957">useAsignaciones</text><text fill="#000000" font-family="sans-serif" font-size="14" lengthAdjust="spacing" textLength="42" x="486.5" y="1284.2051">(Hook)</text><rect fill="#E2E2F0" height="66.8281" rx="2.5" ry="2.5" style="stroke:#181818;stroke-width:0.5;" width="145" x="629" y="14.7813"/><text fill="#000000" font-family="sans-serif" font-size="14" font-style="italic" lengthAdjust="spacing" textLength="62" x="670.5" y="36.3145">&#171;Service&#187;</text><text fill="#000000" font-family="sans-serif" font-size="14" lengthAdjust="spacing" textLength="131" x="636" y="53.9238">AsignacionesService</text><text fill="#000000" font-family="sans-serif" font-size="14" lengthAdjust="spacing" textLength="43" x="680" y="71.5332">(Axios)</text><rect fill="#E2E2F0" height="66.8281" rx="2.5" ry="2.5" style="stroke:#181818;stroke-width:0.5;" width="145" x="629" y="1227.4531"/><text fill="#000000" font-family="sans-serif" font-size="14" font-style="italic" lengthAdjust="spacing" textLength="62" x="670.5" y="1248.9863">&#171;Service&#187;</text><text fill="#000000" font-family="sans-serif" font-size="14" lengthAdjust="spacing" textLength="131" x="636" y="1266.5957">AsignacionesService</text><text fill="#000000" font-family="sans-serif" font-size="14" lengthAdjust="spacing" textLength="43" x="680" y="1284.2051">(Axios)</text><rect fill="#E2E2F0" height="66.8281" rx="2.5" ry="2.5" style="stroke:#181818;stroke-width:0.5;" width="160" x="844.5" y="14.7813"/><text fill="#000000" font-family="sans-serif" font-size="14" font-style="italic" lengthAdjust="spacing" textLength="78" x="885.5" y="36.3145">&#171;Controller&#187;</text><text fill="#000000" font-family="sans-serif" font-size="14" lengthAdjust="spacing" textLength="146" x="851.5" y="53.9238">AsignacionesController</text><text fill="#000000" font-family="sans-serif" font-size="14" lengthAdjust="spacing" textLength="53" x="898" y="71.5332">(NestJS)</text><rect fill="#E2E2F0" height="66.8281" rx="2.5" ry="2.5" style="stroke:#181818;stroke-width:0.5;" width="160" x="844.5" y="1227.4531"/><text fill="#000000" font-family="sans-serif" font-size="14" font-style="italic" lengthAdjust="spacing" textLength="78" x="885.5" y="1248.9863">&#171;Controller&#187;</text><text fill="#000000" font-family="sans-serif" font-size="14" lengthAdjust="spacing" textLength="146" x="851.5" y="1266.5957">AsignacionesController</text><text fill="#000000" font-family="sans-serif" font-size="14" lengthAdjust="spacing" textLength="53" x="898" y="1284.2051">(NestJS)</text><rect fill="#E2E2F0" height="66.8281" rx="2.5" ry="2.5" style="stroke:#181818;stroke-width:0.5;" width="145" x="1046" y="14.7813"/><text fill="#000000" font-family="sans-serif" font-size="14" font-style="italic" lengthAdjust="spacing" textLength="62" x="1087.5" y="36.3145">&#171;Service&#187;</text><text fill="#000000" font-family="sans-serif" font-size="14" lengthAdjust="spacing" textLength="131" x="1053" y="53.9238">AsignacionesService</text><text fill="#000000" font-family="sans-serif" font-size="14" lengthAdjust="spacing" textLength="53" x="1092" y="71.5332">(NestJS)</text><rect fill="#E2E2F0" height="66.8281" rx="2.5" ry="2.5" style="stroke:#181818;stroke-width:0.5;" width="145" x="1046" y="1227.4531"/><text fill="#000000" font-family="sans-serif" font-size="14" font-style="italic" lengthAdjust="spacing" textLength="62" x="1087.5" y="1248.9863">&#171;Service&#187;</text><text fill="#000000" font-family="sans-serif" font-size="14" lengthAdjust="spacing" textLength="131" x="1053" y="1266.5957">AsignacionesService</text><text fill="#000000" font-family="sans-serif" font-size="14" lengthAdjust="spacing" textLength="53" x="1092" y="1284.2051">(NestJS)</text><text fill="#000000" font-family="sans-serif" font-size="14" lengthAdjust="spacing" textLength="77" x="1296" y="79.5332">PostgreSQL</text><path d="M1319.5,29 C1319.5,19 1337.5,19 1337.5,19 C1337.5,19 1355.5,19 1355.5,29 L1355.5,55 C1355.5,65 1337.5,65 1337.5,65 C1337.5,65 1319.5,65 1319.5,55 L1319.5,29 " fill="#E2E2F0" style="stroke:#181818;stroke-width:1.5;"/><path d="M1319.5,29 C1319.5,39 1337.5,39 1337.5,39 C1337.5,39 1355.5,39 1355.5,29 " fill="none" style="stroke:#181818;stroke-width:1.5;"/><text fill="#000000" font-family="sans-serif" font-size="14" lengthAdjust="spacing" textLength="77" x="1296" y="1241.9863">PostgreSQL</text><path d="M1319.5,1255.0625 C1319.5,1245.0625 1337.5,1245.0625 1337.5,1245.0625 C1337.5,1245.0625 1355.5,1245.0625 1355.5,1255.0625 L1355.5,1281.0625 C1355.5,1291.0625 1337.5,1291.0625 1337.5,1291.0625 C1337.5,1291.0625 1319.5,1291.0625 1319.5,1281.0625 L1319.5,1255.0625 " fill="#E2E2F0" style="stroke:#181818;stroke-width:1.5;"/><path d="M1319.5,1255.0625 C1319.5,1265.0625 1337.5,1265.0625 1337.5,1265.0625 C1337.5,1265.0625 1355.5,1265.0625 1355.5,1255.0625 " fill="none" style="stroke:#181818;stroke-width:1.5;"/><rect fill="#EEEEEE" height="3" style="stroke:#EEEEEE;stroke-width:1.0;" width="1399" x="0" y="113.7852"/><line style="stroke:#000000;stroke-width:1.0;" x1="0" x2="1399" y1="113.7852" y2="113.7852"/><line style="stroke:#000000;stroke-width:1.0;" x1="0" x2="1399" y1="116.7852" y2="116.7852"/><rect fill="#EEEEEE" height="24.3516" style="stroke:#000000;stroke-width:2.0;" width="222" x="588.5" y="102.6094"/><text fill="#000000" font-family="sans-serif" font-size="13" font-weight="bold" lengthAdjust="spacing" textLength="204" x="594.5" y="120.1045">Carga de ex&#225;menes disponibles</text><polygon fill="#181818" points="253.5,155.3125,263.5,159.3125,253.5,163.3125,257.5,159.3125" style="stroke:#181818;stroke-width:1.0;"/><line style="stroke:#181818;stroke-width:1.0;" x1="66.5" x2="259.5" y1="159.3125" y2="159.3125"/><text fill="#000000" font-family="sans-serif" font-size="13" lengthAdjust="spacing" textLength="161" x="73.5" y="154.4561">Abre asignaci&#243;n de profesor</text><polygon fill="#181818" points="495.5,185.6641,505.5,189.6641,495.5,193.6641,499.5,189.6641" style="stroke:#181818;stroke-width:1.0;"/><line style="stroke:#181818;stroke-width:1.0;" x1="265.5" x2="501.5" y1="189.6641" y2="189.6641"/><text fill="#000000" font-family="sans-serif" font-size="13" lengthAdjust="spacing" textLength="161" x="272.5" y="184.8076">loadExamenesDisponibles()</text><polygon fill="#181818" points="689.5,216.0156,699.5,220.0156,689.5,224.0156,693.5,220.0156" style="stroke:#181818;stroke-width:1.0;"/><line style="stroke:#181818;stroke-width:1.0;" x1="507.5" x2="695.5" y1="220.0156" y2="220.0156"/><text fill="#000000" font-family="sans-serif" font-size="13" lengthAdjust="spacing" textLength="155" x="514.5" y="215.1592">getExamenesSinProfesor()</text><polygon fill="#181818" points="912.5,246.3672,922.5,250.3672,912.5,254.3672,916.5,250.3672" style="stroke:#181818;stroke-width:1.0;"/><line style="stroke:#181818;stroke-width:1.0;" x1="701.5" x2="918.5" y1="250.3672" y2="250.3672"/><text fill="#000000" font-family="sans-serif" font-size="13" lengthAdjust="spacing" textLength="163" x="708.5" y="245.5107">GET /examenes/disponibles</text><polygon fill="#181818" points="1106.5,276.7188,1116.5,280.7188,1106.5,284.7188,1110.5,280.7188" style="stroke:#181818;stroke-width:1.0;"/><line style="stroke:#181818;stroke-width:1.0;" x1="924.5" x2="1112.5" y1="280.7188" y2="280.7188"/><text fill="#000000" font-family="sans-serif" font-size="13" lengthAdjust="spacing" textLength="157" x="931.5" y="275.8623">findExamenesSinProfesor()</text><polygon fill="#181818" points="1325.5,323.4219,1335.5,327.4219,1325.5,331.4219,1329.5,327.4219" style="stroke:#181818;stroke-width:1.0;"/><line style="stroke:#181818;stroke-width:1.0;" x1="1118.5" x2="1331.5" y1="327.4219" y2="327.4219"/><text fill="#000000" font-family="sans-serif" font-size="13" lengthAdjust="spacing" textLength="163" x="1125.5" y="306.2139">SELECT * FROM "Examen"</text><text fill="#000000" font-family="sans-serif" font-size="13" lengthAdjust="spacing" textLength="171" x="1125.5" y="322.5654">WHERE "profesorId" IS NULL</text><polygon fill="#181818" points="1129.5,353.7734,1119.5,357.7734,1129.5,361.7734,1125.5,357.7734" style="stroke:#181818;stroke-width:1.0;"/><line style="stroke:#181818;stroke-width:1.0;stroke-dasharray:2.0,2.0;" x1="1123.5" x2="1336.5" y1="357.7734" y2="357.7734"/><text fill="#000000" font-family="sans-serif" font-size="13" lengthAdjust="spacing" textLength="110" x="1135.5" y="352.917">Lista de ex&#225;menes</text><polygon fill="#181818" points="935.5,384.125,925.5,388.125,935.5,392.125,931.5,388.125" style="stroke:#181818;stroke-width:1.0;"/><line style="stroke:#181818;stroke-width:1.0;stroke-dasharray:2.0,2.0;" x1="929.5" x2="1117.5" y1="388.125" y2="388.125"/><text fill="#000000" font-family="sans-serif" font-size="13" lengthAdjust="spacing" textLength="88" x="941.5" y="383.2686">ExamenesDTO</text><polygon fill="#181818" points="712.5,414.4766,702.5,418.4766,712.5,422.4766,708.5,418.4766" style="stroke:#181818;stroke-width:1.0;"/><line style="stroke:#181818;stroke-width:1.0;stroke-dasharray:2.0,2.0;" x1="706.5" x2="923.5" y1="418.4766" y2="418.4766"/><text fill="#000000" font-family="sans-serif" font-size="13" lengthAdjust="spacing" textLength="96" x="718.5" y="413.6201">JSON Response</text><polygon fill="#181818" points="518.5,444.8281,508.5,448.8281,518.5,452.8281,514.5,448.8281" style="stroke:#181818;stroke-width:1.0;"/><line style="stroke:#181818;stroke-width:1.0;stroke-dasharray:2.0,2.0;" x1="512.5" x2="700.5" y1="448.8281" y2="448.8281"/><text fill="#000000" font-family="sans-serif" font-size="13" lengthAdjust="spacing" textLength="88" x="524.5" y="443.9717">ExamenesDTO</text><polygon fill="#181818" points="276.5,475.1797,266.5,479.1797,276.5,483.1797,272.5,479.1797" style="stroke:#181818;stroke-width:1.0;"/><line style="stroke:#181818;stroke-width:1.0;stroke-dasharray:2.0,2.0;" x1="270.5" x2="506.5" y1="479.1797" y2="479.1797"/><text fill="#000000" font-family="sans-serif" font-size="13" lengthAdjust="spacing" textLength="157" x="282.5" y="474.3232">Muestra lista de ex&#225;menes</text><rect fill="#EEEEEE" height="3" style="stroke:#EEEEEE;stroke-width:1.0;" width="1399" x="0" y="508.3555"/><line style="stroke:#000000;stroke-width:1.0;" x1="0" x2="1399" y1="508.3555" y2="508.3555"/><line style="stroke:#000000;stroke-width:1.0;" x1="0" x2="1399" y1="511.3555" y2="511.3555"/><rect fill="#EEEEEE" height="24.3516" style="stroke:#000000;stroke-width:2.0;" width="88" x="655.5" y="497.1797"/><text fill="#000000" font-family="sans-serif" font-size="13" font-weight="bold" lengthAdjust="spacing" textLength="70" x="661.5" y="514.6748">Asignaci&#243;n</text><polygon fill="#181818" points="253.5,549.8828,263.5,553.8828,253.5,557.8828,257.5,553.8828" style="stroke:#181818;stroke-width:1.0;"/><line style="stroke:#181818;stroke-width:1.0;" x1="66.5" x2="259.5" y1="553.8828" y2="553.8828"/><text fill="#000000" font-family="sans-serif" font-size="13" lengthAdjust="spacing" textLength="175" x="73.5" y="549.0264">Selecciona profesor y examen</text><polygon fill="#181818" points="495.5,580.2344,505.5,584.2344,495.5,588.2344,499.5,584.2344" style="stroke:#181818;stroke-width:1.0;"/><line style="stroke:#181818;stroke-width:1.0;" x1="265.5" x2="501.5" y1="584.2344" y2="584.2344"/><text fill="#000000" font-family="sans-serif" font-size="13" lengthAdjust="spacing" textLength="218" x="272.5" y="579.3779">asignarProfesor(profesorId, examenId)</text><polygon fill="#181818" points="689.5,610.5859,699.5,614.5859,689.5,618.5859,693.5,614.5859" style="stroke:#181818;stroke-width:1.0;"/><line style="stroke:#181818;stroke-width:1.0;" x1="507.5" x2="695.5" y1="614.5859" y2="614.5859"/><text fill="#000000" font-family="sans-serif" font-size="13" lengthAdjust="spacing" textLength="170" x="514.5" y="609.7295">asignar(profesorId, examenId)</text><polygon fill="#181818" points="912.5,640.9375,922.5,644.9375,912.5,648.9375,916.5,644.9375" style="stroke:#181818;stroke-width:1.0;"/><line style="stroke:#181818;stroke-width:1.0;" x1="701.5" x2="918.5" y1="644.9375" y2="644.9375"/><text fill="#000000" font-family="sans-serif" font-size="13" lengthAdjust="spacing" textLength="199" x="708.5" y="640.0811">POST /examenes/asignar-profesor</text><polygon fill="#181818" points="1106.5,671.2891,1116.5,675.2891,1106.5,679.2891,1110.5,675.2891" style="stroke:#181818;stroke-width:1.0;"/><line style="stroke:#181818;stroke-width:1.0;" x1="924.5" x2="1112.5" y1="675.2891" y2="675.2891"/><text fill="#000000" font-family="sans-serif" font-size="13" lengthAdjust="spacing" textLength="170" x="931.5" y="670.4326">asignar(profesorId, examenId)</text><polygon fill="#181818" points="1325.5,717.9922,1335.5,721.9922,1325.5,725.9922,1329.5,721.9922" style="stroke:#181818;stroke-width:1.0;"/><line style="stroke:#181818;stroke-width:1.0;" x1="1118.5" x2="1331.5" y1="721.9922" y2="721.9922"/><text fill="#000000" font-family="sans-serif" font-size="13" lengthAdjust="spacing" textLength="163" x="1125.5" y="700.7842">SELECT * FROM "Examen"</text><text fill="#000000" font-family="sans-serif" font-size="13" lengthAdjust="spacing" textLength="195" x="1125.5" y="717.1357">WHERE "profesorId" = :profesorId</text><polygon fill="#181818" points="1129.5,748.3438,1119.5,752.3438,1129.5,756.3438,1125.5,752.3438" style="stroke:#181818;stroke-width:1.0;"/><line style="stroke:#181818;stroke-width:1.0;stroke-dasharray:2.0,2.0;" x1="1123.5" x2="1336.5" y1="752.3438" y2="752.3438"/><text fill="#000000" font-family="sans-serif" font-size="13" lengthAdjust="spacing" textLength="133" x="1135.5" y="747.4873">Ex&#225;menes del profesor</text><line style="stroke:#181818;stroke-width:1.0;" x1="1118.5" x2="1160.5" y1="782.6953" y2="782.6953"/><line style="stroke:#181818;stroke-width:1.0;" x1="1160.5" x2="1160.5" y1="782.6953" y2="795.6953"/><line style="stroke:#181818;stroke-width:1.0;" x1="1119.5" x2="1160.5" y1="795.6953" y2="795.6953"/><polygon fill="#181818" points="1129.5,791.6953,1119.5,795.6953,1129.5,799.6953,1125.5,795.6953" style="stroke:#181818;stroke-width:1.0;"/><text fill="#000000" font-family="sans-serif" font-size="13" lengthAdjust="spacing" textLength="189" x="1125.5" y="777.8389">Validar solapamientos de horario</text><path d="M10,810.6953 L71,810.6953 L71,819.0469 L61,829.0469 L10,829.0469 L10,810.6953 " fill="#EEEEEE" style="stroke:#000000;stroke-width:1.5;"/><rect fill="none" height="400.7578" style="stroke:#000000;stroke-width:1.5;" width="1379" x="10" y="810.6953"/><text fill="#000000" font-family="sans-serif" font-size="13" font-weight="bold" lengthAdjust="spacing" textLength="16" x="25" y="825.1904">alt</text><text fill="#000000" font-family="sans-serif" font-size="11" font-weight="bold" lengthAdjust="spacing" textLength="135" x="86" y="824.1143">[Profesor no disponible]</text><polygon fill="#181818" points="935.5,847.3984,925.5,851.3984,935.5,855.3984,931.5,851.3984" style="stroke:#181818;stroke-width:1.0;"/><line style="stroke:#181818;stroke-width:1.0;stroke-dasharray:2.0,2.0;" x1="929.5" x2="1117.5" y1="851.3984" y2="851.3984"/><text fill="#000000" font-family="sans-serif" font-size="13" lengthAdjust="spacing" textLength="101" x="941.5" y="846.542">ConflictException</text><polygon fill="#181818" points="712.5,877.75,702.5,881.75,712.5,885.75,708.5,881.75" style="stroke:#181818;stroke-width:1.0;"/><line style="stroke:#181818;stroke-width:1.0;stroke-dasharray:2.0,2.0;" x1="706.5" x2="923.5" y1="881.75" y2="881.75"/><text fill="#000000" font-family="sans-serif" font-size="13" lengthAdjust="spacing" textLength="68" x="718.5" y="876.8936">409 Conflict</text><polygon fill="#181818" points="518.5,908.1016,508.5,912.1016,518.5,916.1016,514.5,912.1016" style="stroke:#181818;stroke-width:1.0;"/><line style="stroke:#181818;stroke-width:1.0;stroke-dasharray:2.0,2.0;" x1="512.5" x2="700.5" y1="912.1016" y2="912.1016"/><text fill="#000000" font-family="sans-serif" font-size="13" lengthAdjust="spacing" textLength="28" x="524.5" y="907.2451">Error</text><polygon fill="#181818" points="276.5,938.4531,266.5,942.4531,276.5,946.4531,272.5,942.4531" style="stroke:#181818;stroke-width:1.0;"/><line style="stroke:#181818;stroke-width:1.0;stroke-dasharray:2.0,2.0;" x1="270.5" x2="506.5" y1="942.4531" y2="942.4531"/><text fill="#000000" font-family="sans-serif" font-size="13" lengthAdjust="spacing" textLength="186" x="282.5" y="937.5967">Muestra advertencia de conflicto</text><line style="stroke:#000000;stroke-width:1.0;stroke-dasharray:2.0,2.0;" x1="10" x2="1389" y1="951.4531" y2="951.4531"/><text fill="#000000" font-family="sans-serif" font-size="11" font-weight="bold" lengthAdjust="spacing" textLength="118" x="15" y="962.8721">[Profesor disponible]</text><polygon fill="#181818" points="1325.5,1017.3438,1335.5,1021.3438,1325.5,1025.3438,1329.5,1021.3438" style="stroke:#181818;stroke-width:1.0;"/><line style="stroke:#181818;stroke-width:1.0;" x1="1118.5" x2="1331.5" y1="1021.3438" y2="1021.3438"/><text fill="#000000" font-family="sans-serif" font-size="13" lengthAdjust="spacing" textLength="114" x="1125.5" y="983.7842">UPDATE "Examen"</text><text fill="#000000" font-family="sans-serif" font-size="13" lengthAdjust="spacing" textLength="171" x="1125.5" y="1000.1357">SET "profesorId" = :profesorId</text><text fill="#000000" font-family="sans-serif" font-size="13" lengthAdjust="spacing" textLength="139" x="1125.5" y="1016.4873">WHERE id = :examenId</text><polygon fill="#181818" points="1129.5,1047.6953,1119.5,1051.6953,1129.5,1055.6953,1125.5,1051.6953" style="stroke:#181818;stroke-width:1.0;"/><line style="stroke:#181818;stroke-width:1.0;stroke-dasharray:2.0,2.0;" x1="1123.5" x2="1336.5" y1="1051.6953" y2="1051.6953"/><text fill="#000000" font-family="sans-serif" font-size="13" lengthAdjust="spacing" textLength="19" x="1135.5" y="1046.8389">OK</text><polygon fill="#181818" points="935.5,1078.0469,925.5,1082.0469,935.5,1086.0469,931.5,1082.0469" style="stroke:#181818;stroke-width:1.0;"/><line style="stroke:#181818;stroke-width:1.0;stroke-dasharray:2.0,2.0;" x1="929.5" x2="1117.5" y1="1082.0469" y2="1082.0469"/><text fill="#000000" font-family="sans-serif" font-size="13" lengthAdjust="spacing" textLength="118" x="941.5" y="1077.1904">Examen actualizado</text><polygon fill="#181818" points="712.5,1108.3984,702.5,1112.3984,712.5,1116.3984,708.5,1112.3984" style="stroke:#181818;stroke-width:1.0;"/><line style="stroke:#181818;stroke-width:1.0;stroke-dasharray:2.0,2.0;" x1="706.5" x2="923.5" y1="1112.3984" y2="1112.3984"/><text fill="#000000" font-family="sans-serif" font-size="13" lengthAdjust="spacing" textLength="130" x="718.5" y="1107.542">200 OK (ExamenDTO)</text><polygon fill="#181818" points="518.5,1138.75,508.5,1142.75,518.5,1146.75,514.5,1142.75" style="stroke:#181818;stroke-width:1.0;"/><line style="stroke:#181818;stroke-width:1.0;stroke-dasharray:2.0,2.0;" x1="512.5" x2="700.5" y1="1142.75" y2="1142.75"/><text fill="#000000" font-family="sans-serif" font-size="13" lengthAdjust="spacing" textLength="51" x="524.5" y="1137.8936">Success</text><polygon fill="#181818" points="276.5,1169.1016,266.5,1173.1016,276.5,1177.1016,272.5,1173.1016" style="stroke:#181818;stroke-width:1.0;"/><line style="stroke:#181818;stroke-width:1.0;stroke-dasharray:2.0,2.0;" x1="270.5" x2="506.5" y1="1173.1016" y2="1173.1016"/><text fill="#000000" font-family="sans-serif" font-size="13" lengthAdjust="spacing" textLength="97" x="282.5" y="1168.2451">Actualiza estado</text><polygon fill="#181818" points="77.5,1199.4531,67.5,1203.4531,77.5,1207.4531,73.5,1203.4531" style="stroke:#181818;stroke-width:1.0;"/><line style="stroke:#181818;stroke-width:1.0;stroke-dasharray:2.0,2.0;" x1="71.5" x2="264.5" y1="1203.4531" y2="1203.4531"/><text fill="#000000" font-family="sans-serif" font-size="13" lengthAdjust="spacing" textLength="155" x="83.5" y="1198.5967">Notifica asignaci&#243;n exitosa</text><!--SRC=[fLNBRjim4BppAnOwEKMD14KlDU80igqqJXtRjPpqaWiZhHqYCccGTEBsR_eD_OJyM5SlYqgaf41ziHupk-JCB6KUXDnopJTWxdcideHSmued1XdZaLKQ_7WZf31MqrlD26f59BPSMl1y8zQIwxbMApHAtmXykfMT1HBno0Dku7eCfwT3jTagYTAUdTNfEuDvXKZGUqFK2wKUScPwHTpqxoNDvOIe7qM4HFNtGfcSUruy9NvnzLQ9eP9MgoH1JLMcQEnbc9UfNcIRA6_-RJbkeK7JUc9k-Hqt2DvS6RlM67wVPEZHWB5-7uPShpd42BX__hr1AWwnC2Iak4lekjzdhEOCTCzIkNlWtscaElcYdl_8jCQsS8WHWd2Pk3r858-3FS-AZwhQdIEM0GXuKB87QxGbDXIoj9om1mpX7Sbwy3LOmZ4Md6DdySo14MbGDLa96JTtOGEdpMX0s32O1CCbV83pnUmAl9pctSeV5y4Y0A_SyZZsO1p2z7eoOSJhrXjEIBwwoawZbniwQBMSrRPG5-eod4rXWUbkQOZEtMg5xcwTNEdIkwiTfdP2ydfPQIPynzNs08IOO9JcaHzyXv-G6r4F0A_FRwVIx6E17yUDOIY8BOJMHCndeHk9eahtaCxMNBpTxx-oqOTUTTkGaA0QFqogGQhrTE0tF14nrs1KmhTy8-ZOKoaLxfNcMYWwLHCBfU8WbJFL3EZN7Z-wMIKYeZ6CS6l9tmpV7iJF9ryEd0pQc4MjQJVfs-OaylWHjKKPYIoFKL5FCQHFHBMFraqKXbpFH_uoS9m8wN1ezw5qIiJfyzBfhFHhXsRVs3lAvLs1FaixikSNJSixqdqwEQ6oqCc9DAT7hGA6koX2OneazCjsG5AMFTFv8q1zSdimLLQiHCHh1pVk1OM7CvGn-mi0]--></g></svg>