<?xml version="1.0" encoding="us-ascii" standalone="no"?><svg xmlns="http://www.w3.org/2000/svg" xmlns:xlink="http://www.w3.org/1999/xlink" contentStyleType="text/css" height="622px" preserveAspectRatio="none" style="width:1126px;height:622px;background:#FFFFFF;" version="1.1" viewBox="0 0 1126 622" width="1126px" zoomAndPan="magnify"><defs/><g><line style="stroke:#181818;stroke-width:0.5;stroke-dasharray:5.0,5.0;" x1="51" x2="51" y1="82.6094" y2="540.5313"/><line style="stroke:#181818;stroke-width:0.5;stroke-dasharray:5.0,5.0;" x1="270.5" x2="270.5" y1="82.6094" y2="540.5313"/><line style="stroke:#181818;stroke-width:0.5;stroke-dasharray:5.0,5.0;" x1="482.5" x2="482.5" y1="82.6094" y2="540.5313"/><line style="stroke:#181818;stroke-width:0.5;stroke-dasharray:5.0,5.0;" x1="601.5" x2="601.5" y1="82.6094" y2="540.5313"/><line style="stroke:#181818;stroke-width:0.5;stroke-dasharray:5.0,5.0;" x1="803" x2="803" y1="82.6094" y2="540.5313"/><line style="stroke:#181818;stroke-width:0.5;stroke-dasharray:5.0,5.0;" x1="917" x2="917" y1="82.6094" y2="540.5313"/><line style="stroke:#181818;stroke-width:0.5;stroke-dasharray:5.0,5.0;" x1="1083.5" x2="1083.5" y1="82.6094" y2="540.5313"/><text fill="#000000" font-family="sans-serif" font-size="14" lengthAdjust="spacing" textLength="87" x="5" y="79.5332">Administrador</text><ellipse cx="51.5" cy="13.5" fill="#E2E2F0" rx="8" ry="8" style="stroke:#181818;stroke-width:0.5;"/><path d="M51.5,21.5 L51.5,48.5 M38.5,29.5 L64.5,29.5 M51.5,48.5 L38.5,63.5 M51.5,48.5 L64.5,63.5 " fill="none" style="stroke:#181818;stroke-width:0.5;"/><text fill="#000000" font-family="sans-serif" font-size="14" lengthAdjust="spacing" textLength="87" x="5" y="554.0645">Administrador</text><ellipse cx="51.5" cy="565.6406" fill="#E2E2F0" rx="8" ry="8" style="stroke:#181818;stroke-width:0.5;"/><path d="M51.5,573.6406 L51.5,600.6406 M38.5,581.6406 L64.5,581.6406 M51.5,600.6406 L38.5,615.6406 M51.5,600.6406 L64.5,615.6406 " fill="none" style="stroke:#181818;stroke-width:0.5;"/><rect fill="#E2E2F0" height="66.8281" rx="2.5" ry="2.5" style="stroke:#181818;stroke-width:0.5;" width="114" x="213.5" y="14.7813"/><text fill="#000000" font-family="sans-serif" font-size="14" font-style="italic" lengthAdjust="spacing" textLength="89" x="226" y="36.3145">&#171;Component&#187;</text><text fill="#000000" font-family="sans-serif" font-size="14" lengthAdjust="spacing" textLength="100" x="220.5" y="53.9238">AulaCreateView</text><text fill="#000000" font-family="sans-serif" font-size="14" lengthAdjust="spacing" textLength="47" x="247" y="71.5332">(React)</text><rect fill="#E2E2F0" height="66.8281" rx="2.5" ry="2.5" style="stroke:#181818;stroke-width:0.5;" width="114" x="213.5" y="539.5313"/><text fill="#000000" font-family="sans-serif" font-size="14" font-style="italic" lengthAdjust="spacing" textLength="89" x="226" y="561.0645">&#171;Component&#187;</text><text fill="#000000" font-family="sans-serif" font-size="14" lengthAdjust="spacing" textLength="100" x="220.5" y="578.6738">AulaCreateView</text><text fill="#000000" font-family="sans-serif" font-size="14" lengthAdjust="spacing" textLength="47" x="247" y="596.2832">(React)</text><rect fill="#E2E2F0" height="66.8281" rx="2.5" ry="2.5" style="stroke:#181818;stroke-width:0.5;" width="98" x="433.5" y="14.7813"/><text fill="#000000" font-family="sans-serif" font-size="14" font-style="italic" lengthAdjust="spacing" textLength="50" x="457.5" y="36.3145">&#171;Hook&#187;</text><text fill="#000000" font-family="sans-serif" font-size="14" lengthAdjust="spacing" textLength="84" x="440.5" y="53.9238">useAulaForm</text><text fill="#000000" font-family="sans-serif" font-size="14" lengthAdjust="spacing" textLength="42" x="461.5" y="71.5332">(Hook)</text><rect fill="#E2E2F0" height="66.8281" rx="2.5" ry="2.5" style="stroke:#181818;stroke-width:0.5;" width="98" x="433.5" y="539.5313"/><text fill="#000000" font-family="sans-serif" font-size="14" font-style="italic" lengthAdjust="spacing" textLength="50" x="457.5" y="561.0645">&#171;Hook&#187;</text><text fill="#000000" font-family="sans-serif" font-size="14" lengthAdjust="spacing" textLength="84" x="440.5" y="578.6738">useAulaForm</text><text fill="#000000" font-family="sans-serif" font-size="14" lengthAdjust="spacing" textLength="42" x="461.5" y="596.2832">(Hook)</text><rect fill="#E2E2F0" height="66.8281" rx="2.5" ry="2.5" style="stroke:#181818;stroke-width:0.5;" width="96" x="553.5" y="14.7813"/><text fill="#000000" font-family="sans-serif" font-size="14" font-style="italic" lengthAdjust="spacing" textLength="62" x="570.5" y="36.3145">&#171;Service&#187;</text><text fill="#000000" font-family="sans-serif" font-size="14" lengthAdjust="spacing" textLength="82" x="560.5" y="53.9238">AulasService</text><text fill="#000000" font-family="sans-serif" font-size="14" lengthAdjust="spacing" textLength="43" x="580" y="71.5332">(Axios)</text><rect fill="#E2E2F0" height="66.8281" rx="2.5" ry="2.5" style="stroke:#181818;stroke-width:0.5;" width="96" x="553.5" y="539.5313"/><text fill="#000000" font-family="sans-serif" font-size="14" font-style="italic" lengthAdjust="spacing" textLength="62" x="570.5" y="561.0645">&#171;Service&#187;</text><text fill="#000000" font-family="sans-serif" font-size="14" lengthAdjust="spacing" textLength="82" x="560.5" y="578.6738">AulasService</text><text fill="#000000" font-family="sans-serif" font-size="14" lengthAdjust="spacing" textLength="43" x="580" y="596.2832">(Axios)</text><rect fill="#E2E2F0" height="66.8281" rx="2.5" ry="2.5" style="stroke:#181818;stroke-width:0.5;" width="111" x="748" y="14.7813"/><text fill="#000000" font-family="sans-serif" font-size="14" font-style="italic" lengthAdjust="spacing" textLength="78" x="764.5" y="36.3145">&#171;Controller&#187;</text><text fill="#000000" font-family="sans-serif" font-size="14" lengthAdjust="spacing" textLength="97" x="755" y="53.9238">AulasController</text><text fill="#000000" font-family="sans-serif" font-size="14" lengthAdjust="spacing" textLength="53" x="777" y="71.5332">(NestJS)</text><rect fill="#E2E2F0" height="66.8281" rx="2.5" ry="2.5" style="stroke:#181818;stroke-width:0.5;" width="111" x="748" y="539.5313"/><text fill="#000000" font-family="sans-serif" font-size="14" font-style="italic" lengthAdjust="spacing" textLength="78" x="764.5" y="561.0645">&#171;Controller&#187;</text><text fill="#000000" font-family="sans-serif" font-size="14" lengthAdjust="spacing" textLength="97" x="755" y="578.6738">AulasController</text><text fill="#000000" font-family="sans-serif" font-size="14" lengthAdjust="spacing" textLength="53" x="777" y="596.2832">(NestJS)</text><rect fill="#E2E2F0" height="66.8281" rx="2.5" ry="2.5" style="stroke:#181818;stroke-width:0.5;" width="96" x="869" y="14.7813"/><text fill="#000000" font-family="sans-serif" font-size="14" font-style="italic" lengthAdjust="spacing" textLength="62" x="886" y="36.3145">&#171;Service&#187;</text><text fill="#000000" font-family="sans-serif" font-size="14" lengthAdjust="spacing" textLength="82" x="876" y="53.9238">AulasService</text><text fill="#000000" font-family="sans-serif" font-size="14" lengthAdjust="spacing" textLength="53" x="890.5" y="71.5332">(NestJS)</text><rect fill="#E2E2F0" height="66.8281" rx="2.5" ry="2.5" style="stroke:#181818;stroke-width:0.5;" width="96" x="869" y="539.5313"/><text fill="#000000" font-family="sans-serif" font-size="14" font-style="italic" lengthAdjust="spacing" textLength="62" x="886" y="561.0645">&#171;Service&#187;</text><text fill="#000000" font-family="sans-serif" font-size="14" lengthAdjust="spacing" textLength="82" x="876" y="578.6738">AulasService</text><text fill="#000000" font-family="sans-serif" font-size="14" lengthAdjust="spacing" textLength="53" x="890.5" y="596.2832">(NestJS)</text><text fill="#000000" font-family="sans-serif" font-size="14" lengthAdjust="spacing" textLength="77" x="1042.5" y="79.5332">PostgreSQL</text><path d="M1066,29 C1066,19 1084,19 1084,19 C1084,19 1102,19 1102,29 L1102,55 C1102,65 1084,65 1084,65 C1084,65 1066,65 1066,55 L1066,29 " fill="#E2E2F0" style="stroke:#181818;stroke-width:1.5;"/><path d="M1066,29 C1066,39 1084,39 1084,39 C1084,39 1102,39 1102,29 " fill="none" style="stroke:#181818;stroke-width:1.5;"/><text fill="#000000" font-family="sans-serif" font-size="14" lengthAdjust="spacing" textLength="77" x="1042.5" y="554.0645">PostgreSQL</text><path d="M1066,567.1406 C1066,557.1406 1084,557.1406 1084,557.1406 C1084,557.1406 1102,557.1406 1102,567.1406 L1102,593.1406 C1102,603.1406 1084,603.1406 1084,603.1406 C1084,603.1406 1066,603.1406 1066,593.1406 L1066,567.1406 " fill="#E2E2F0" style="stroke:#181818;stroke-width:1.5;"/><path d="M1066,567.1406 C1066,577.1406 1084,577.1406 1084,577.1406 C1084,577.1406 1102,577.1406 1102,567.1406 " fill="none" style="stroke:#181818;stroke-width:1.5;"/><polygon fill="#181818" points="258.5,110.9609,268.5,114.9609,258.5,118.9609,262.5,114.9609" style="stroke:#181818;stroke-width:1.0;"/><line style="stroke:#181818;stroke-width:1.0;" x1="51.5" x2="264.5" y1="114.9609" y2="114.9609"/><text fill="#000000" font-family="sans-serif" font-size="13" lengthAdjust="spacing" textLength="186" x="58.5" y="110.1045">Rellena formulario de nueva aula</text><polygon fill="#181818" points="258.5,141.3125,268.5,145.3125,258.5,149.3125,262.5,145.3125" style="stroke:#181818;stroke-width:1.0;"/><line style="stroke:#181818;stroke-width:1.0;" x1="51.5" x2="264.5" y1="145.3125" y2="145.3125"/><text fill="#000000" font-family="sans-serif" font-size="13" lengthAdjust="spacing" textLength="107" x="58.5" y="140.4561">Click en "Guardar"</text><polygon fill="#181818" points="470.5,171.6641,480.5,175.6641,470.5,179.6641,474.5,175.6641" style="stroke:#181818;stroke-width:1.0;"/><line style="stroke:#181818;stroke-width:1.0;" x1="270.5" x2="476.5" y1="175.6641" y2="175.6641"/><text fill="#000000" font-family="sans-serif" font-size="13" lengthAdjust="spacing" textLength="72" x="277.5" y="170.8076">submit(data)</text><polygon fill="#181818" points="589.5,202.0156,599.5,206.0156,589.5,210.0156,593.5,206.0156" style="stroke:#181818;stroke-width:1.0;"/><line style="stroke:#181818;stroke-width:1.0;" x1="482.5" x2="595.5" y1="206.0156" y2="206.0156"/><text fill="#000000" font-family="sans-serif" font-size="13" lengthAdjust="spacing" textLength="95" x="489.5" y="201.1592">createAula(data)</text><polygon fill="#181818" points="791.5,232.3672,801.5,236.3672,791.5,240.3672,795.5,236.3672" style="stroke:#181818;stroke-width:1.0;"/><line style="stroke:#181818;stroke-width:1.0;" x1="601.5" x2="797.5" y1="236.3672" y2="236.3672"/><text fill="#000000" font-family="sans-serif" font-size="13" lengthAdjust="spacing" textLength="154" x="608.5" y="231.5107">POST /aulas (JSON Body)</text><polygon fill="#181818" points="905,262.7188,915,266.7188,905,270.7188,909,266.7188" style="stroke:#181818;stroke-width:1.0;"/><line style="stroke:#181818;stroke-width:1.0;" x1="803.5" x2="911" y1="266.7188" y2="266.7188"/><text fill="#000000" font-family="sans-serif" font-size="13" lengthAdjust="spacing" textLength="62" x="810.5" y="261.8623">create(dto)</text><line style="stroke:#181818;stroke-width:1.0;" x1="917" x2="959" y1="297.0703" y2="297.0703"/><line style="stroke:#181818;stroke-width:1.0;" x1="959" x2="959" y1="297.0703" y2="310.0703"/><line style="stroke:#181818;stroke-width:1.0;" x1="918" x2="959" y1="310.0703" y2="310.0703"/><polygon fill="#181818" points="928,306.0703,918,310.0703,928,314.0703,924,310.0703" style="stroke:#181818;stroke-width:1.0;"/><text fill="#000000" font-family="sans-serif" font-size="13" lengthAdjust="spacing" textLength="117" x="924" y="292.2139">Validar c&#243;digo &#250;nico</text><polygon fill="#181818" points="1072,336.4219,1082,340.4219,1072,344.4219,1076,340.4219" style="stroke:#181818;stroke-width:1.0;"/><line style="stroke:#181818;stroke-width:1.0;" x1="917" x2="1078" y1="340.4219" y2="340.4219"/><text fill="#000000" font-family="sans-serif" font-size="13" lengthAdjust="spacing" textLength="143" x="924" y="335.5654">INSERT INTO "Aula" (...)</text><polygon fill="#181818" points="928,366.7734,918,370.7734,928,374.7734,924,370.7734" style="stroke:#181818;stroke-width:1.0;"/><line style="stroke:#181818;stroke-width:1.0;stroke-dasharray:2.0,2.0;" x1="922" x2="1083" y1="370.7734" y2="370.7734"/><text fill="#000000" font-family="sans-serif" font-size="13" lengthAdjust="spacing" textLength="140" x="934" y="365.917">Aula Creada (with UUID)</text><polygon fill="#181818" points="814.5,397.125,804.5,401.125,814.5,405.125,810.5,401.125" style="stroke:#181818;stroke-width:1.0;"/><line style="stroke:#181818;stroke-width:1.0;stroke-dasharray:2.0,2.0;" x1="808.5" x2="916" y1="401.125" y2="401.125"/><text fill="#000000" font-family="sans-serif" font-size="13" lengthAdjust="spacing" textLength="64" x="820.5" y="396.2686">Aula Entity</text><polygon fill="#181818" points="612.5,427.4766,602.5,431.4766,612.5,435.4766,608.5,431.4766" style="stroke:#181818;stroke-width:1.0;"/><line style="stroke:#181818;stroke-width:1.0;stroke-dasharray:2.0,2.0;" x1="606.5" x2="802.5" y1="431.4766" y2="431.4766"/><text fill="#000000" font-family="sans-serif" font-size="13" lengthAdjust="spacing" textLength="178" x="618.5" y="426.6201">JSON Response (201 Created)</text><polygon fill="#181818" points="493.5,457.8281,483.5,461.8281,493.5,465.8281,489.5,461.8281" style="stroke:#181818;stroke-width:1.0;"/><line style="stroke:#181818;stroke-width:1.0;stroke-dasharray:2.0,2.0;" x1="487.5" x2="600.5" y1="461.8281" y2="461.8281"/><text fill="#000000" font-family="sans-serif" font-size="13" lengthAdjust="spacing" textLength="68" x="499.5" y="456.9717">Aula Object</text><polygon fill="#181818" points="281.5,488.1797,271.5,492.1797,281.5,496.1797,277.5,492.1797" style="stroke:#181818;stroke-width:1.0;"/><line style="stroke:#181818;stroke-width:1.0;stroke-dasharray:2.0,2.0;" x1="275.5" x2="481.5" y1="492.1797" y2="492.1797"/><text fill="#000000" font-family="sans-serif" font-size="13" lengthAdjust="spacing" textLength="188" x="287.5" y="487.3232">Redirigir a listado / Mostrar &#233;xito</text><polygon fill="#181818" points="62.5,518.5313,52.5,522.5313,62.5,526.5313,58.5,522.5313" style="stroke:#181818;stroke-width:1.0;"/><line style="stroke:#181818;stroke-width:1.0;stroke-dasharray:2.0,2.0;" x1="56.5" x2="269.5" y1="522.5313" y2="522.5313"/><text fill="#000000" font-family="sans-serif" font-size="13" lengthAdjust="spacing" textLength="195" x="68.5" y="517.6748">Muestra confirmaci&#243;n de creaci&#243;n</text><!--SRC=[XPB1Sjem48RlUeeTd-n3IDiZas46GzAIQI35a5ClYoN85bjY93aaZzHpRhtoObdPDDXCEZtPqlxVQlN_SblIExHOWdj4QVQaDx36mYaXCFV6mb2MfCbvorKhMEeffnrg3z6mAd1a5NhrG6h_KyTpnKmI0JfOJk3gQcJAdT5A-y6WIrPE1VZ6s9AnRyPi6ohyCHS-vqZGkqpP9yeLCyDdCgw1Rewx31x_FcH7HdjhYa9PngVA-TkiuK-5UkI_Y_yCqEwGVZI1H8yhT0gYU-Fynghin_TQFKw5wBWA5uFWLn_cYW_M26lsXK-pP40gq9LwGa3U-0SsAYZVWj8GVQtGIhIHu7skrdRsmLMhadmS1af4lSUrTzVwaDSPXliTDUyrrhNSwSFzB5l0PHZ5GNoRpQQG6lcIY9Q8aVIyTIozIKJQwjgIF611F3FaXrT96mE7Fvfoqr6FKzPDfjdrVC6VnQm98uAur-ibWgiNtPQX2k5bIeHuJ_uHbil9k3t1-SLgubfxyY-TotIDgcyyLuuVDUSQV_dq6PhtBzkUdOolkyvMlrJkZxwVafPaQKCM40eEbFE4IxWp8LeBXz_Fv4qT8WFTqFjmLwcmWDpeDTaISpgywl1GWjdruWq0]--></g></svg>