<?xml version="1.0" encoding="us-ascii" standalone="no"?><svg xmlns="http://www.w3.org/2000/svg" xmlns:xlink="http://www.w3.org/1999/xlink" contentStyleType="text/css" height="438px" preserveAspectRatio="none" style="width:775px;height:438px;background:#FFFFFF;" version="1.1" viewBox="0 0 775 438" width="775px" zoomAndPan="magnify"><defs/><g><!--cluster crearExamen--><g id="cluster_crearExamen"><path d="M8.5,109 L111.5,109 A3.75,3.75 0 0 1 114,111.5 L121,132.6094 L483.5,132.6094 A2.5,2.5 0 0 1 486,135.1094 L486,428.5 A2.5,2.5 0 0 1 483.5,431 L8.5,431 A2.5,2.5 0 0 1 6,428.5 L6,111.5 A2.5,2.5 0 0 1 8.5,109 " fill="none" style="stroke:#000000;stroke-width:1.5;"/><line style="stroke:#000000;stroke-width:1.5;" x1="6" x2="121" y1="132.6094" y2="132.6094"/><text fill="#000000" font-family="sans-serif" font-size="14" font-weight="bold" lengthAdjust="spacing" textLength="102" x="10" y="125.5332">crearExamen()</text></g><!--entity CrearExamenView--><g id="elem_CrearExamenView"><rect fill="#629EF9" height="37.6094" rx="2.5" ry="2.5" style="stroke:#181818;stroke-width:0.5;" width="135" x="204.5" y="145"/><text fill="#000000" font-family="sans-serif" font-size="14" lengthAdjust="spacing" textLength="115" x="214.5" y="169.5332">CrearExamenView</text></g><!--entity ExamenController--><g id="elem_ExamenController"><rect fill="#B5BD68" height="37.6094" rx="2.5" ry="2.5" style="stroke:#181818;stroke-width:0.5;" width="132" x="144" y="261"/><text fill="#000000" font-family="sans-serif" font-size="14" lengthAdjust="spacing" textLength="112" x="154" y="285.5332">ExamenController</text></g><!--entity ExamenRepository--><g id="elem_ExamenRepository"><rect fill="#F2AC4E" height="37.6094" rx="2.5" ry="2.5" style="stroke:#181818;stroke-width:0.5;" width="138" x="116" y="377"/><text fill="#000000" font-family="sans-serif" font-size="14" lengthAdjust="spacing" textLength="118" x="126" y="401.5332">ExamenRepository</text></g><!--entity Examen--><g id="elem_Examen"><rect fill="#F2AC4E" height="37.6094" rx="2.5" ry="2.5" style="stroke:#181818;stroke-width:0.5;" width="70" x="383" y="377"/><text fill="#000000" font-family="sans-serif" font-size="14" lengthAdjust="spacing" textLength="50" x="393" y="401.5332">Examen</text></g><!--entity ExamenesAbierto--><g id="elem_ExamenesAbierto"><rect fill="#CDEBA5" height="37.6094" rx="2.5" ry="2.5" style="stroke:#181818;stroke-width:0.5;" width="138" x="203" y="7"/><text fill="#000000" font-family="sans-serif" font-size="14" lengthAdjust="spacing" textLength="118" x="213" y="31.5332">:Examenes Abierto</text></g><!--entity ExamenAbierto--><g id="elem_ExamenAbierto"><rect fill="#CDEBA5" height="37.6094" rx="2.5" ry="2.5" style="stroke:#181818;stroke-width:0.5;" width="123" x="502.5" y="261"/><text fill="#000000" font-family="sans-serif" font-size="14" lengthAdjust="spacing" textLength="103" x="512.5" y="285.5332">:Examen Abierto</text></g><!--link ExamenesAbierto to CrearExamenView--><g id="link_ExamenesAbierto_CrearExamenView"><path d="M247.05,45.15 C228.36,58.74 206,75 206,75 C206,75 206,93 206,93 C206,93 231.3345,119.864 250.8845,140.604 " fill="none" id="ExamenesAbierto-to-CrearExamenView" style="stroke:#181818;stroke-width:1.0;"/><polygon fill="#181818" points="255,144.97,251.7374,135.6772,251.5704,141.3316,245.916,141.1646,255,144.97" style="stroke:#181818;stroke-width:1.0;"/><text fill="#000000" font-family="sans-serif" font-size="13" lengthAdjust="spacing" textLength="85" x="207" y="89.4951">crearExamen()</text></g><!--link CrearExamenView to ExamenesAbierto--><g id="link_CrearExamenView_ExamenesAbierto"><path d="M278.44,144.97 C285.85,124.23 297,93 297,93 C297,93 297,75 297,75 C297,75 291.3022,64.0612 284.2222,50.4712 " fill="none" id="CrearExamenView-to-ExamenesAbierto" style="stroke:#181818;stroke-width:1.0;stroke-dasharray:7.0,7.0;"/><polygon fill="#181818" points="281.45,45.15,282.0608,54.9799,283.7602,49.5843,289.1557,51.2837,281.45,45.15" style="stroke:#181818;stroke-width:1.0;"/><text fill="#000000" font-family="sans-serif" font-size="13" lengthAdjust="spacing" textLength="63" x="298" y="89.4951">&#171;cancelar&#187;</text></g><!--link CrearExamenView to ExamenController--><g id="link_CrearExamenView_ExamenController"><path d="M242.13,183.15 C219.76,196.74 193,213 193,213 C193,213 193,231 193,231 C193,231 196.7581,241.6038 201.5681,255.1938 " fill="none" id="CrearExamenView-to-ExamenController" style="stroke:#181818;stroke-width:1.0;"/><polygon fill="#181818" points="203.57,260.85,204.3379,251.0311,201.9017,256.1365,196.7963,253.7004,203.57,260.85" style="stroke:#181818;stroke-width:1.0;"/><text fill="#000000" font-family="sans-serif" font-size="13" lengthAdjust="spacing" textLength="326" x="194" y="227.4951">crear(codigo, fechaHora, duracion, asignatura) : Examen</text></g><!--link ExamenController to ExamenRepository--><g id="link_ExamenController_ExamenRepository"><path d="M151.47,299.01 C107.2,312.63 54,329 54,329 C54,329 54,347 54,347 C54,347 93.0463,361.3057 130.2163,374.9257 " fill="none" id="ExamenController-to-ExamenRepository" style="stroke:#181818;stroke-width:1.0;"/><polygon fill="#181818" points="135.85,376.99,128.7757,370.1377,131.1553,375.2697,126.0232,377.6493,135.85,376.99" style="stroke:#181818;stroke-width:1.0;"/><text fill="#000000" font-family="sans-serif" font-size="13" lengthAdjust="spacing" textLength="180" x="55" y="343.4951">existeCodigo(codigo) : Boolean</text></g><!--link ExamenController to ExamenRepository--><g id="link_ExamenController_ExamenRepository"><path d="M221.34,299.15 C229.84,312.74 240,329 240,329 C240,329 240,347 240,347 C240,347 225.8916,359.316 210.3116,372.906 " fill="none" id="ExamenController-to-ExamenRepository-1" style="stroke:#181818;stroke-width:1.0;"/><polygon fill="#181818" points="205.79,376.85,215.2017,373.9483,209.558,373.5633,209.943,367.9196,205.79,376.85" style="stroke:#181818;stroke-width:1.0;"/><text fill="#000000" font-family="sans-serif" font-size="13" lengthAdjust="spacing" textLength="97" x="241" y="343.4951">guardar(examen)</text></g><!--link ExamenController to Examen--><g id="link_ExamenController_Examen"><path d="M261.4,299.01 C300.28,312.63 347,329 347,329 C347,329 373.1865,353.3338 394.2065,372.8838 " fill="none" id="ExamenController-to-Examen" style="stroke:#181818;stroke-width:1.0;"/><polygon fill="#181818" points="398.6,376.97,394.7339,367.9117,394.9388,373.5648,389.2856,373.7696,398.6,376.97" style="stroke:#181818;stroke-width:1.0;"/><text fill="#000000" font-family="sans-serif" font-size="13" lengthAdjust="spacing" textLength="50" x="367" y="343.4951">&#171;create&#187;</text></g><!--link CrearExamenView to ExamenAbierto--><g id="link_CrearExamenView_ExamenAbierto"><path d="M339.8,177.86 C414.74,192.08 525,213 525,213 C525,213 538.75,236.253 550.29,255.803 " fill="none" id="CrearExamenView-to-ExamenAbierto" style="stroke:#181818;stroke-width:1.0;stroke-dasharray:7.0,7.0;"/><polygon fill="#181818" points="553.34,260.97,552.2097,251.1862,550.7984,256.6642,545.3204,255.2528,553.34,260.97" style="stroke:#181818;stroke-width:1.0;"/><text fill="#000000" font-family="sans-serif" font-size="13" lengthAdjust="spacing" textLength="231" x="536" y="227.4951">&#171;finalizar&#187; editarExamen(examenNuevo)</text></g><!--SRC=[bP4nRy8m48Lt_ufJkX096511BKAH80tgrA53zyCvKWlZYnpJGgl-zpeX40XLf6Ox-xlt_5wAZJ8vMjo2LeRS8IV8MH_AGGXBqg79DC5T_9GivcC8fiaUjsIeWFbAaNKS01PmEgpFXCXHRZ0Za9RG7czBBhYOUs40tqA0_ovy9gF7PFa8SSEzAVfiKwlnAfqyrBOn6sTPQx9jR3cQn_T9ZRrIpeLoR0-TcFZfolr7wdFcLWam64Jj7325gmQ4Q0FbKZlMQQidELKPzs5DyXsVsM8Vqfr5gTZq_ODKPj3vEVGBTHXnezKOD8LudlQgS1HN1hLFARDWreJ_qCbsQ5F_LAgkmiv5ZyzcPJ97KNHRnN0ONLTSyMjbKAilj544b2ftBlFe-BAZ3muxj9h_KxcZaQHBCV4B]--></g></svg>