<?xml version="1.0" encoding="us-ascii" standalone="no"?><svg xmlns="http://www.w3.org/2000/svg" xmlns:xlink="http://www.w3.org/1999/xlink" contentStyleType="text/css" height="548px" preserveAspectRatio="none" style="width:1288px;height:548px;background:#FFFFFF;" version="1.1" viewBox="0 0 1288 548" width="1288px" zoomAndPan="magnify"><defs/><g><line style="stroke:#181818;stroke-width:0.5;stroke-dasharray:5.0,5.0;" x1="51" x2="51" y1="82.6094" y2="466.8281"/><line style="stroke:#181818;stroke-width:0.5;stroke-dasharray:5.0,5.0;" x1="243" x2="243" y1="82.6094" y2="466.8281"/><line style="stroke:#181818;stroke-width:0.5;stroke-dasharray:5.0,5.0;" x1="407.5" x2="407.5" y1="82.6094" y2="466.8281"/><line style="stroke:#181818;stroke-width:0.5;stroke-dasharray:5.0,5.0;" x1="548.5" x2="548.5" y1="82.6094" y2="466.8281"/><line style="stroke:#181818;stroke-width:0.5;stroke-dasharray:5.0,5.0;" x1="760" x2="760" y1="82.6094" y2="466.8281"/><line style="stroke:#181818;stroke-width:0.5;stroke-dasharray:5.0,5.0;" x1="901.5" x2="901.5" y1="82.6094" y2="466.8281"/><line style="stroke:#181818;stroke-width:0.5;stroke-dasharray:5.0,5.0;" x1="1245" x2="1245" y1="82.6094" y2="466.8281"/><text fill="#000000" font-family="sans-serif" font-size="14" lengthAdjust="spacing" textLength="87" x="5" y="79.5332">Administrador</text><ellipse cx="51.5" cy="13.5" fill="#E2E2F0" rx="8" ry="8" style="stroke:#181818;stroke-width:0.5;"/><path d="M51.5,21.5 L51.5,48.5 M38.5,29.5 L64.5,29.5 M51.5,48.5 L38.5,63.5 M51.5,48.5 L64.5,63.5 " fill="none" style="stroke:#181818;stroke-width:0.5;"/><text fill="#000000" font-family="sans-serif" font-size="14" lengthAdjust="spacing" textLength="87" x="5" y="480.3613">Administrador</text><ellipse cx="51.5" cy="491.9375" fill="#E2E2F0" rx="8" ry="8" style="stroke:#181818;stroke-width:0.5;"/><path d="M51.5,499.9375 L51.5,526.9375 M38.5,507.9375 L64.5,507.9375 M51.5,526.9375 L38.5,541.9375 M51.5,526.9375 L64.5,541.9375 " fill="none" style="stroke:#181818;stroke-width:0.5;"/><rect fill="#E2E2F0" height="66.8281" rx="2.5" ry="2.5" style="stroke:#181818;stroke-width:0.5;" width="103" x="192" y="14.7813"/><text fill="#000000" font-family="sans-serif" font-size="14" font-style="italic" lengthAdjust="spacing" textLength="89" x="199" y="36.3145">&#171;Component&#187;</text><text fill="#000000" font-family="sans-serif" font-size="14" lengthAdjust="spacing" textLength="86" x="200.5" y="53.9238">AulasListView</text><text fill="#000000" font-family="sans-serif" font-size="14" lengthAdjust="spacing" textLength="47" x="220" y="71.5332">(React)</text><rect fill="#E2E2F0" height="66.8281" rx="2.5" ry="2.5" style="stroke:#181818;stroke-width:0.5;" width="103" x="192" y="465.8281"/><text fill="#000000" font-family="sans-serif" font-size="14" font-style="italic" lengthAdjust="spacing" textLength="89" x="199" y="487.3613">&#171;Component&#187;</text><text fill="#000000" font-family="sans-serif" font-size="14" lengthAdjust="spacing" textLength="86" x="200.5" y="504.9707">AulasListView</text><text fill="#000000" font-family="sans-serif" font-size="14" lengthAdjust="spacing" textLength="47" x="220" y="522.5801">(React)</text><rect fill="#E2E2F0" height="66.8281" rx="2.5" ry="2.5" style="stroke:#181818;stroke-width:0.5;" width="72" x="371.5" y="14.7813"/><text fill="#000000" font-family="sans-serif" font-size="14" font-style="italic" lengthAdjust="spacing" textLength="50" x="382.5" y="36.3145">&#171;Hook&#187;</text><text fill="#000000" font-family="sans-serif" font-size="14" lengthAdjust="spacing" textLength="58" x="378.5" y="53.9238">useAulas</text><text fill="#000000" font-family="sans-serif" font-size="14" lengthAdjust="spacing" textLength="42" x="386.5" y="71.5332">(Hook)</text><rect fill="#E2E2F0" height="66.8281" rx="2.5" ry="2.5" style="stroke:#181818;stroke-width:0.5;" width="72" x="371.5" y="465.8281"/><text fill="#000000" font-family="sans-serif" font-size="14" font-style="italic" lengthAdjust="spacing" textLength="50" x="382.5" y="487.3613">&#171;Hook&#187;</text><text fill="#000000" font-family="sans-serif" font-size="14" lengthAdjust="spacing" textLength="58" x="378.5" y="504.9707">useAulas</text><text fill="#000000" font-family="sans-serif" font-size="14" lengthAdjust="spacing" textLength="42" x="386.5" y="522.5801">(Hook)</text><rect fill="#E2E2F0" height="66.8281" rx="2.5" ry="2.5" style="stroke:#181818;stroke-width:0.5;" width="96" x="500.5" y="14.7813"/><text fill="#000000" font-family="sans-serif" font-size="14" font-style="italic" lengthAdjust="spacing" textLength="62" x="517.5" y="36.3145">&#171;Service&#187;</text><text fill="#000000" font-family="sans-serif" font-size="14" lengthAdjust="spacing" textLength="82" x="507.5" y="53.9238">AulasService</text><text fill="#000000" font-family="sans-serif" font-size="14" lengthAdjust="spacing" textLength="43" x="527" y="71.5332">(Axios)</text><rect fill="#E2E2F0" height="66.8281" rx="2.5" ry="2.5" style="stroke:#181818;stroke-width:0.5;" width="96" x="500.5" y="465.8281"/><text fill="#000000" font-family="sans-serif" font-size="14" font-style="italic" lengthAdjust="spacing" textLength="62" x="517.5" y="487.3613">&#171;Service&#187;</text><text fill="#000000" font-family="sans-serif" font-size="14" lengthAdjust="spacing" textLength="82" x="507.5" y="504.9707">AulasService</text><text fill="#000000" font-family="sans-serif" font-size="14" lengthAdjust="spacing" textLength="43" x="527" y="522.5801">(Axios)</text><rect fill="#E2E2F0" height="66.8281" rx="2.5" ry="2.5" style="stroke:#181818;stroke-width:0.5;" width="111" x="705" y="14.7813"/><text fill="#000000" font-family="sans-serif" font-size="14" font-style="italic" lengthAdjust="spacing" textLength="78" x="721.5" y="36.3145">&#171;Controller&#187;</text><text fill="#000000" font-family="sans-serif" font-size="14" lengthAdjust="spacing" textLength="97" x="712" y="53.9238">AulasController</text><text fill="#000000" font-family="sans-serif" font-size="14" lengthAdjust="spacing" textLength="53" x="734" y="71.5332">(NestJS)</text><rect fill="#E2E2F0" height="66.8281" rx="2.5" ry="2.5" style="stroke:#181818;stroke-width:0.5;" width="111" x="705" y="465.8281"/><text fill="#000000" font-family="sans-serif" font-size="14" font-style="italic" lengthAdjust="spacing" textLength="78" x="721.5" y="487.3613">&#171;Controller&#187;</text><text fill="#000000" font-family="sans-serif" font-size="14" lengthAdjust="spacing" textLength="97" x="712" y="504.9707">AulasController</text><text fill="#000000" font-family="sans-serif" font-size="14" lengthAdjust="spacing" textLength="53" x="734" y="522.5801">(NestJS)</text><rect fill="#E2E2F0" height="66.8281" rx="2.5" ry="2.5" style="stroke:#181818;stroke-width:0.5;" width="96" x="853.5" y="14.7813"/><text fill="#000000" font-family="sans-serif" font-size="14" font-style="italic" lengthAdjust="spacing" textLength="62" x="870.5" y="36.3145">&#171;Service&#187;</text><text fill="#000000" font-family="sans-serif" font-size="14" lengthAdjust="spacing" textLength="82" x="860.5" y="53.9238">AulasService</text><text fill="#000000" font-family="sans-serif" font-size="14" lengthAdjust="spacing" textLength="53" x="875" y="71.5332">(NestJS)</text><rect fill="#E2E2F0" height="66.8281" rx="2.5" ry="2.5" style="stroke:#181818;stroke-width:0.5;" width="96" x="853.5" y="465.8281"/><text fill="#000000" font-family="sans-serif" font-size="14" font-style="italic" lengthAdjust="spacing" textLength="62" x="870.5" y="487.3613">&#171;Service&#187;</text><text fill="#000000" font-family="sans-serif" font-size="14" lengthAdjust="spacing" textLength="82" x="860.5" y="504.9707">AulasService</text><text fill="#000000" font-family="sans-serif" font-size="14" lengthAdjust="spacing" textLength="53" x="875" y="522.5801">(NestJS)</text><text fill="#000000" font-family="sans-serif" font-size="14" lengthAdjust="spacing" textLength="77" x="1204" y="79.5332">PostgreSQL</text><path d="M1227.5,29 C1227.5,19 1245.5,19 1245.5,19 C1245.5,19 1263.5,19 1263.5,29 L1263.5,55 C1263.5,65 1245.5,65 1245.5,65 C1245.5,65 1227.5,65 1227.5,55 L1227.5,29 " fill="#E2E2F0" style="stroke:#181818;stroke-width:1.5;"/><path d="M1227.5,29 C1227.5,39 1245.5,39 1245.5,39 C1245.5,39 1263.5,39 1263.5,29 " fill="none" style="stroke:#181818;stroke-width:1.5;"/><text fill="#000000" font-family="sans-serif" font-size="14" lengthAdjust="spacing" textLength="77" x="1204" y="480.3613">PostgreSQL</text><path d="M1227.5,493.4375 C1227.5,483.4375 1245.5,483.4375 1245.5,483.4375 C1245.5,483.4375 1263.5,483.4375 1263.5,493.4375 L1263.5,519.4375 C1263.5,529.4375 1245.5,529.4375 1245.5,529.4375 C1245.5,529.4375 1227.5,529.4375 1227.5,519.4375 L1227.5,493.4375 " fill="#E2E2F0" style="stroke:#181818;stroke-width:1.5;"/><path d="M1227.5,493.4375 C1227.5,503.4375 1245.5,503.4375 1245.5,503.4375 C1245.5,503.4375 1263.5,503.4375 1263.5,493.4375 " fill="none" style="stroke:#181818;stroke-width:1.5;"/><polygon fill="#181818" points="231.5,110.9609,241.5,114.9609,231.5,118.9609,235.5,114.9609" style="stroke:#181818;stroke-width:1.0;"/><line style="stroke:#181818;stroke-width:1.0;" x1="51.5" x2="237.5" y1="114.9609" y2="114.9609"/><text fill="#000000" font-family="sans-serif" font-size="13" lengthAdjust="spacing" textLength="168" x="58.5" y="110.1045">Accede a la gesti&#243;n de aulas</text><polygon fill="#181818" points="395.5,141.3125,405.5,145.3125,395.5,149.3125,399.5,145.3125" style="stroke:#181818;stroke-width:1.0;"/><line style="stroke:#181818;stroke-width:1.0;" x1="243.5" x2="401.5" y1="145.3125" y2="145.3125"/><text fill="#000000" font-family="sans-serif" font-size="13" lengthAdjust="spacing" textLength="101" x="250.5" y="140.4561">fetchAulas(query)</text><polygon fill="#181818" points="536.5,171.6641,546.5,175.6641,536.5,179.6641,540.5,175.6641" style="stroke:#181818;stroke-width:1.0;"/><line style="stroke:#181818;stroke-width:1.0;" x1="407.5" x2="542.5" y1="175.6641" y2="175.6641"/><text fill="#000000" font-family="sans-serif" font-size="13" lengthAdjust="spacing" textLength="91" x="414.5" y="170.8076">getAulas(query)</text><polygon fill="#181818" points="748.5,202.0156,758.5,206.0156,748.5,210.0156,752.5,206.0156" style="stroke:#181818;stroke-width:1.0;"/><line style="stroke:#181818;stroke-width:1.0;" x1="548.5" x2="754.5" y1="206.0156" y2="206.0156"/><text fill="#000000" font-family="sans-serif" font-size="13" lengthAdjust="spacing" textLength="188" x="555.5" y="201.1592">GET /aulas?search=...&amp;page=...</text><polygon fill="#181818" points="889.5,232.3672,899.5,236.3672,889.5,240.3672,893.5,236.3672" style="stroke:#181818;stroke-width:1.0;"/><line style="stroke:#181818;stroke-width:1.0;" x1="760.5" x2="895.5" y1="236.3672" y2="236.3672"/><text fill="#000000" font-family="sans-serif" font-size="13" lengthAdjust="spacing" textLength="75" x="767.5" y="231.5107">findAll(query)</text><polygon fill="#181818" points="1233.5,262.7188,1243.5,266.7188,1233.5,270.7188,1237.5,266.7188" style="stroke:#181818;stroke-width:1.0;"/><line style="stroke:#181818;stroke-width:1.0;" x1="901.5" x2="1239.5" y1="266.7188" y2="266.7188"/><text fill="#000000" font-family="sans-serif" font-size="13" lengthAdjust="spacing" textLength="320" x="908.5" y="261.8623">SELECT * FROM aula WHERE ... LIMIT ... OFFSET ...</text><polygon fill="#181818" points="912.5,293.0703,902.5,297.0703,912.5,301.0703,908.5,297.0703" style="stroke:#181818;stroke-width:1.0;"/><line style="stroke:#181818;stroke-width:1.0;stroke-dasharray:2.0,2.0;" x1="906.5" x2="1244.5" y1="297.0703" y2="297.0703"/><text fill="#000000" font-family="sans-serif" font-size="13" lengthAdjust="spacing" textLength="141" x="918.5" y="292.2139">Listado de Aulas + Total</text><polygon fill="#181818" points="771.5,323.4219,761.5,327.4219,771.5,331.4219,767.5,327.4219" style="stroke:#181818;stroke-width:1.0;"/><line style="stroke:#181818;stroke-width:1.0;stroke-dasharray:2.0,2.0;" x1="765.5" x2="900.5" y1="327.4219" y2="327.4219"/><text fill="#000000" font-family="sans-serif" font-size="13" lengthAdjust="spacing" textLength="117" x="777.5" y="322.5654">PaginatedAulasDTO</text><polygon fill="#181818" points="559.5,353.7734,549.5,357.7734,559.5,361.7734,555.5,357.7734" style="stroke:#181818;stroke-width:1.0;"/><line style="stroke:#181818;stroke-width:1.0;stroke-dasharray:2.0,2.0;" x1="553.5" x2="759.5" y1="357.7734" y2="357.7734"/><text fill="#000000" font-family="sans-serif" font-size="13" lengthAdjust="spacing" textLength="96" x="565.5" y="352.917">JSON Response</text><polygon fill="#181818" points="418.5,384.125,408.5,388.125,418.5,392.125,414.5,388.125" style="stroke:#181818;stroke-width:1.0;"/><line style="stroke:#181818;stroke-width:1.0;stroke-dasharray:2.0,2.0;" x1="412.5" x2="547.5" y1="388.125" y2="388.125"/><text fill="#000000" font-family="sans-serif" font-size="13" lengthAdjust="spacing" textLength="117" x="424.5" y="383.2686">PaginatedAulasDTO</text><polygon fill="#181818" points="254.5,414.4766,244.5,418.4766,254.5,422.4766,250.5,418.4766" style="stroke:#181818;stroke-width:1.0;"/><line style="stroke:#181818;stroke-width:1.0;stroke-dasharray:2.0,2.0;" x1="248.5" x2="406.5" y1="418.4766" y2="418.4766"/><text fill="#000000" font-family="sans-serif" font-size="13" lengthAdjust="spacing" textLength="140" x="260.5" y="413.6201">Actualiza estado (aulas)</text><polygon fill="#181818" points="62.5,444.8281,52.5,448.8281,62.5,452.8281,58.5,448.8281" style="stroke:#181818;stroke-width:1.0;"/><line style="stroke:#181818;stroke-width:1.0;stroke-dasharray:2.0,2.0;" x1="56.5" x2="242.5" y1="448.8281" y2="448.8281"/><text fill="#000000" font-family="sans-serif" font-size="13" lengthAdjust="spacing" textLength="132" x="68.5" y="443.9717">Muestra tabla de aulas</text><!--SRC=[XLB1SjD03BtlLsXoO5AOXhkdXB4JcwQJD2KsSE4YRCNPgRCRTjSK-bjy0Z-6TfqcTkaC9ykhzvwa9zbxgGveS0zsXvL-aAg6BJQMXC3IQGDnjPTAMcSuQmH3dIpb0PM3KTmsQ9US-opfuQiQRuWf5oD02vyMS7Krq_k3LgJST3eajfO2bpdNMjzt51ynoN-UumCu9_D3biIS-AVKjYDbnrSc7gCNkJEjdD5DGuRfjsJTJTxnpudGxzFFVnheAoGlTL2Xmsze2KPtshhQKFvn6T3pH8Y1et0vzMP549SbLGG83KBD-lBFRmN-mPSM365Wi2Y2BRbo5reQVs_9_BeG8S60anqHQxW1v9HYM6_g23wa1RmDLTvRGbFktaqcarS7hCa7eeTbPd8ki9MgYflcILyalGBpX05vkand1Ro6RBDUXJdWotMwIO5bORbOBOeGhRCiJqCec7OvBEAlYstoHeHfu0qKsc7JB_Tye3kifK97LM3CY_LWXg5BD_dw5ZPa-KxvvBE-vj7iVzKwiyzxSoqsyX61kbR7mKisnE-CKSDrHx1goVy0NmWxSjhmNm00]--></g></svg>