<?xml version="1.0" encoding="us-ascii" standalone="no"?><svg xmlns="http://www.w3.org/2000/svg" xmlns:xlink="http://www.w3.org/1999/xlink" contentStyleType="text/css" height="776px" preserveAspectRatio="none" style="width:1596px;height:776px;background:#FFFFFF;" version="1.1" viewBox="0 0 1596 776" width="1596px" zoomAndPan="magnify"><defs/><g><rect fill="none" height="231.2969" style="stroke:#000000;stroke-width:1.5;" width="470.5" x="1120" y="294.7188"/><rect fill="none" height="138.2422" style="stroke:#000000;stroke-width:1.5;" width="450.5" x="1130" y="380.7734"/><line style="stroke:#181818;stroke-width:0.5;stroke-dasharray:5.0,5.0;" x1="51" x2="51" y1="82.6094" y2="694.7734"/><line style="stroke:#181818;stroke-width:0.5;stroke-dasharray:5.0,5.0;" x1="336.5" x2="336.5" y1="82.6094" y2="694.7734"/><line style="stroke:#181818;stroke-width:0.5;stroke-dasharray:5.0,5.0;" x1="507" x2="507" y1="82.6094" y2="694.7734"/><line style="stroke:#181818;stroke-width:0.5;stroke-dasharray:5.0,5.0;" x1="655" x2="655" y1="82.6094" y2="694.7734"/><line style="stroke:#181818;stroke-width:0.5;stroke-dasharray:5.0,5.0;" x1="948.5" x2="948.5" y1="82.6094" y2="694.7734"/><line style="stroke:#181818;stroke-width:0.5;stroke-dasharray:5.0,5.0;" x1="1205" x2="1205" y1="82.6094" y2="694.7734"/><line style="stroke:#181818;stroke-width:0.5;stroke-dasharray:5.0,5.0;" x1="1528.5" x2="1528.5" y1="82.6094" y2="694.7734"/><text fill="#000000" font-family="sans-serif" font-size="14" lengthAdjust="spacing" textLength="87" x="5" y="79.5332">Administrador</text><ellipse cx="51.5" cy="13.5" fill="#E2E2F0" rx="8" ry="8" style="stroke:#181818;stroke-width:0.5;"/><path d="M51.5,21.5 L51.5,48.5 M38.5,29.5 L64.5,29.5 M51.5,48.5 L38.5,63.5 M51.5,48.5 L64.5,63.5 " fill="none" style="stroke:#181818;stroke-width:0.5;"/><text fill="#000000" font-family="sans-serif" font-size="14" lengthAdjust="spacing" textLength="87" x="5" y="708.3066">Administrador</text><ellipse cx="51.5" cy="719.8828" fill="#E2E2F0" rx="8" ry="8" style="stroke:#181818;stroke-width:0.5;"/><path d="M51.5,727.8828 L51.5,754.8828 M38.5,735.8828 L64.5,735.8828 M51.5,754.8828 L38.5,769.8828 M51.5,754.8828 L64.5,769.8828 " fill="none" style="stroke:#181818;stroke-width:0.5;"/><rect fill="#E2E2F0" height="66.8281" rx="2.5" ry="2.5" style="stroke:#181818;stroke-width:0.5;" width="164" x="254.5" y="14.7813"/><text fill="#000000" font-family="sans-serif" font-size="14" font-style="italic" lengthAdjust="spacing" textLength="89" x="292" y="36.3145">&#171;Component&#187;</text><text fill="#000000" font-family="sans-serif" font-size="14" lengthAdjust="spacing" textLength="150" x="261.5" y="53.9238">ImportarProfesoresView</text><text fill="#000000" font-family="sans-serif" font-size="14" lengthAdjust="spacing" textLength="47" x="313" y="71.5332">(React)</text><rect fill="#E2E2F0" height="66.8281" rx="2.5" ry="2.5" style="stroke:#181818;stroke-width:0.5;" width="164" x="254.5" y="693.7734"/><text fill="#000000" font-family="sans-serif" font-size="14" font-style="italic" lengthAdjust="spacing" textLength="89" x="292" y="715.3066">&#171;Component&#187;</text><text fill="#000000" font-family="sans-serif" font-size="14" lengthAdjust="spacing" textLength="150" x="261.5" y="732.916">ImportarProfesoresView</text><text fill="#000000" font-family="sans-serif" font-size="14" lengthAdjust="spacing" textLength="47" x="313" y="750.5254">(React)</text><rect fill="#E2E2F0" height="66.8281" rx="2.5" ry="2.5" style="stroke:#181818;stroke-width:0.5;" width="145" x="435" y="14.7813"/><text fill="#000000" font-family="sans-serif" font-size="14" font-style="italic" lengthAdjust="spacing" textLength="50" x="482.5" y="36.3145">&#171;Hook&#187;</text><text fill="#000000" font-family="sans-serif" font-size="14" lengthAdjust="spacing" textLength="131" x="442" y="53.9238">useProfesoresImport</text><text fill="#000000" font-family="sans-serif" font-size="14" lengthAdjust="spacing" textLength="42" x="486.5" y="71.5332">(Hook)</text><rect fill="#E2E2F0" height="66.8281" rx="2.5" ry="2.5" style="stroke:#181818;stroke-width:0.5;" width="145" x="435" y="693.7734"/><text fill="#000000" font-family="sans-serif" font-size="14" font-style="italic" lengthAdjust="spacing" textLength="50" x="482.5" y="715.3066">&#171;Hook&#187;</text><text fill="#000000" font-family="sans-serif" font-size="14" lengthAdjust="spacing" textLength="131" x="442" y="732.916">useProfesoresImport</text><text fill="#000000" font-family="sans-serif" font-size="14" lengthAdjust="spacing" textLength="42" x="486.5" y="750.5254">(Hook)</text><rect fill="#E2E2F0" height="66.8281" rx="2.5" ry="2.5" style="stroke:#181818;stroke-width:0.5;" width="130" x="590" y="14.7813"/><text fill="#000000" font-family="sans-serif" font-size="14" font-style="italic" lengthAdjust="spacing" textLength="62" x="624" y="36.3145">&#171;Service&#187;</text><text fill="#000000" font-family="sans-serif" font-size="14" lengthAdjust="spacing" textLength="116" x="597" y="53.9238">ProfesoresService</text><text fill="#000000" font-family="sans-serif" font-size="14" lengthAdjust="spacing" textLength="43" x="633.5" y="71.5332">(Axios)</text><rect fill="#E2E2F0" height="66.8281" rx="2.5" ry="2.5" style="stroke:#181818;stroke-width:0.5;" width="130" x="590" y="693.7734"/><text fill="#000000" font-family="sans-serif" font-size="14" font-style="italic" lengthAdjust="spacing" textLength="62" x="624" y="715.3066">&#171;Service&#187;</text><text fill="#000000" font-family="sans-serif" font-size="14" lengthAdjust="spacing" textLength="116" x="597" y="732.916">ProfesoresService</text><text fill="#000000" font-family="sans-serif" font-size="14" lengthAdjust="spacing" textLength="43" x="633.5" y="750.5254">(Axios)</text><rect fill="#E2E2F0" height="66.8281" rx="2.5" ry="2.5" style="stroke:#181818;stroke-width:0.5;" width="145" x="876.5" y="14.7813"/><text fill="#000000" font-family="sans-serif" font-size="14" font-style="italic" lengthAdjust="spacing" textLength="78" x="910" y="36.3145">&#171;Controller&#187;</text><text fill="#000000" font-family="sans-serif" font-size="14" lengthAdjust="spacing" textLength="131" x="883.5" y="53.9238">ProfesoresController</text><text fill="#000000" font-family="sans-serif" font-size="14" lengthAdjust="spacing" textLength="53" x="922.5" y="71.5332">(NestJS)</text><rect fill="#E2E2F0" height="66.8281" rx="2.5" ry="2.5" style="stroke:#181818;stroke-width:0.5;" width="145" x="876.5" y="693.7734"/><text fill="#000000" font-family="sans-serif" font-size="14" font-style="italic" lengthAdjust="spacing" textLength="78" x="910" y="715.3066">&#171;Controller&#187;</text><text fill="#000000" font-family="sans-serif" font-size="14" lengthAdjust="spacing" textLength="131" x="883.5" y="732.916">ProfesoresController</text><text fill="#000000" font-family="sans-serif" font-size="14" lengthAdjust="spacing" textLength="53" x="922.5" y="750.5254">(NestJS)</text><rect fill="#E2E2F0" height="66.8281" rx="2.5" ry="2.5" style="stroke:#181818;stroke-width:0.5;" width="130" x="1140" y="14.7813"/><text fill="#000000" font-family="sans-serif" font-size="14" font-style="italic" lengthAdjust="spacing" textLength="62" x="1174" y="36.3145">&#171;Service&#187;</text><text fill="#000000" font-family="sans-serif" font-size="14" lengthAdjust="spacing" textLength="116" x="1147" y="53.9238">ProfesoresService</text><text fill="#000000" font-family="sans-serif" font-size="14" lengthAdjust="spacing" textLength="53" x="1178.5" y="71.5332">(NestJS)</text><rect fill="#E2E2F0" height="66.8281" rx="2.5" ry="2.5" style="stroke:#181818;stroke-width:0.5;" width="130" x="1140" y="693.7734"/><text fill="#000000" font-family="sans-serif" font-size="14" font-style="italic" lengthAdjust="spacing" textLength="62" x="1174" y="715.3066">&#171;Service&#187;</text><text fill="#000000" font-family="sans-serif" font-size="14" lengthAdjust="spacing" textLength="116" x="1147" y="732.916">ProfesoresService</text><text fill="#000000" font-family="sans-serif" font-size="14" lengthAdjust="spacing" textLength="53" x="1178.5" y="750.5254">(NestJS)</text><text fill="#000000" font-family="sans-serif" font-size="14" lengthAdjust="spacing" textLength="77" x="1487.5" y="79.5332">PostgreSQL</text><path d="M1511,29 C1511,19 1529,19 1529,19 C1529,19 1547,19 1547,29 L1547,55 C1547,65 1529,65 1529,65 C1529,65 1511,65 1511,55 L1511,29 " fill="#E2E2F0" style="stroke:#181818;stroke-width:1.5;"/><path d="M1511,29 C1511,39 1529,39 1529,39 C1529,39 1547,39 1547,29 " fill="none" style="stroke:#181818;stroke-width:1.5;"/><text fill="#000000" font-family="sans-serif" font-size="14" lengthAdjust="spacing" textLength="77" x="1487.5" y="708.3066">PostgreSQL</text><path d="M1511,721.3828 C1511,711.3828 1529,711.3828 1529,711.3828 C1529,711.3828 1547,711.3828 1547,721.3828 L1547,747.3828 C1547,757.3828 1529,757.3828 1529,757.3828 C1529,757.3828 1511,757.3828 1511,747.3828 L1511,721.3828 " fill="#E2E2F0" style="stroke:#181818;stroke-width:1.5;"/><path d="M1511,721.3828 C1511,731.3828 1529,731.3828 1529,731.3828 C1529,731.3828 1547,731.3828 1547,721.3828 " fill="none" style="stroke:#181818;stroke-width:1.5;"/><polygon fill="#181818" points="324.5,110.9609,334.5,114.9609,324.5,118.9609,328.5,114.9609" style="stroke:#181818;stroke-width:1.0;"/><line style="stroke:#181818;stroke-width:1.0;" x1="51.5" x2="330.5" y1="114.9609" y2="114.9609"/><text fill="#000000" font-family="sans-serif" font-size="13" lengthAdjust="spacing" textLength="246" x="58.5" y="110.1045">Selecciona archivo CSV y pulsa "Importar"</text><polygon fill="#181818" points="495.5,141.3125,505.5,145.3125,495.5,149.3125,499.5,145.3125" style="stroke:#181818;stroke-width:1.0;"/><line style="stroke:#181818;stroke-width:1.0;" x1="336.5" x2="501.5" y1="145.3125" y2="145.3125"/><text fill="#000000" font-family="sans-serif" font-size="13" lengthAdjust="spacing" textLength="122" x="343.5" y="140.4561">importProfesores(file)</text><polygon fill="#181818" points="643,171.6641,653,175.6641,643,179.6641,647,175.6641" style="stroke:#181818;stroke-width:1.0;"/><line style="stroke:#181818;stroke-width:1.0;" x1="507.5" x2="649" y1="175.6641" y2="175.6641"/><text fill="#000000" font-family="sans-serif" font-size="13" lengthAdjust="spacing" textLength="122" x="514.5" y="170.8076">importProfesores(file)</text><polygon fill="#181818" points="937,202.0156,947,206.0156,937,210.0156,941,206.0156" style="stroke:#181818;stroke-width:1.0;"/><line style="stroke:#181818;stroke-width:1.0;" x1="655" x2="943" y1="206.0156" y2="206.0156"/><text fill="#000000" font-family="sans-serif" font-size="13" lengthAdjust="spacing" textLength="270" x="662" y="201.1592">POST /profesores/import (Multipart/Form-Data)</text><polygon fill="#181818" points="1193,232.3672,1203,236.3672,1193,240.3672,1197,236.3672" style="stroke:#181818;stroke-width:1.0;"/><line style="stroke:#181818;stroke-width:1.0;" x1="949" x2="1199" y1="236.3672" y2="236.3672"/><text fill="#000000" font-family="sans-serif" font-size="13" lengthAdjust="spacing" textLength="127" x="956" y="231.5107">importProfesores(lote)</text><line style="stroke:#181818;stroke-width:1.0;" x1="1205" x2="1247" y1="266.7188" y2="266.7188"/><line style="stroke:#181818;stroke-width:1.0;" x1="1247" x2="1247" y1="266.7188" y2="279.7188"/><line style="stroke:#181818;stroke-width:1.0;" x1="1206" x2="1247" y1="279.7188" y2="279.7188"/><polygon fill="#181818" points="1216,275.7188,1206,279.7188,1216,283.7188,1212,279.7188" style="stroke:#181818;stroke-width:1.0;"/><text fill="#000000" font-family="sans-serif" font-size="13" lengthAdjust="spacing" textLength="243" x="1212" y="261.8623">Procesa cada registro e inicia transacci&#243;n</text><path d="M1120,294.7188 L1193,294.7188 L1193,303.0703 L1183,313.0703 L1120,313.0703 L1120,294.7188 " fill="#EEEEEE" style="stroke:#000000;stroke-width:1.5;"/><rect fill="none" height="231.2969" style="stroke:#000000;stroke-width:1.5;" width="470.5" x="1120" y="294.7188"/><text fill="#000000" font-family="sans-serif" font-size="13" font-weight="bold" lengthAdjust="spacing" textLength="28" x="1135" y="309.2139">loop</text><text fill="#000000" font-family="sans-serif" font-size="11" font-weight="bold" lengthAdjust="spacing" textLength="161" x="1208" y="308.1377">[Por cada profesor en el lote]</text><polygon fill="#181818" points="1517,331.4219,1527,335.4219,1517,339.4219,1521,335.4219" style="stroke:#181818;stroke-width:1.0;"/><line style="stroke:#181818;stroke-width:1.0;" x1="1205" x2="1523" y1="335.4219" y2="335.4219"/><text fill="#000000" font-family="sans-serif" font-size="13" lengthAdjust="spacing" textLength="300" x="1212" y="330.5654">SELECT 1 FROM "Usuario" WHERE email = :email</text><polygon fill="#181818" points="1216,361.7734,1206,365.7734,1216,369.7734,1212,365.7734" style="stroke:#181818;stroke-width:1.0;"/><line style="stroke:#181818;stroke-width:1.0;stroke-dasharray:2.0,2.0;" x1="1210" x2="1528" y1="365.7734" y2="365.7734"/><text fill="#000000" font-family="sans-serif" font-size="13" lengthAdjust="spacing" textLength="104" x="1222" y="360.917">Existe / No existe</text><path d="M1130,380.7734 L1191,380.7734 L1191,389.125 L1181,399.125 L1130,399.125 L1130,380.7734 " fill="#EEEEEE" style="stroke:#000000;stroke-width:1.5;"/><rect fill="none" height="138.2422" style="stroke:#000000;stroke-width:1.5;" width="450.5" x="1130" y="380.7734"/><text fill="#000000" font-family="sans-serif" font-size="13" font-weight="bold" lengthAdjust="spacing" textLength="16" x="1145" y="395.2686">alt</text><text fill="#000000" font-family="sans-serif" font-size="11" font-weight="bold" lengthAdjust="spacing" textLength="98" x="1206" y="394.1924">[Email disponible]</text><polygon fill="#181818" points="1517,417.4766,1527,421.4766,1517,425.4766,1521,421.4766" style="stroke:#181818;stroke-width:1.0;"/><line style="stroke:#181818;stroke-width:1.0;" x1="1205" x2="1523" y1="421.4766" y2="421.4766"/><text fill="#000000" font-family="sans-serif" font-size="13" lengthAdjust="spacing" textLength="210" x="1212" y="416.6201">INSERT INTO "Usuario" y "Profesor"</text><polygon fill="#181818" points="1216,447.8281,1206,451.8281,1216,455.8281,1212,451.8281" style="stroke:#181818;stroke-width:1.0;"/><line style="stroke:#181818;stroke-width:1.0;stroke-dasharray:2.0,2.0;" x1="1210" x2="1528" y1="451.8281" y2="451.8281"/><text fill="#000000" font-family="sans-serif" font-size="13" lengthAdjust="spacing" textLength="55" x="1222" y="446.9717">Insert OK</text><line style="stroke:#000000;stroke-width:1.0;stroke-dasharray:2.0,2.0;" x1="1130" x2="1580.5" y1="460.8281" y2="460.8281"/><text fill="#000000" font-family="sans-serif" font-size="11" font-weight="bold" lengthAdjust="spacing" textLength="148" x="1135" y="472.2471">[Email duplicado o inv&#225;lido]</text><line style="stroke:#181818;stroke-width:1.0;" x1="1205" x2="1247" y1="498.0156" y2="498.0156"/><line style="stroke:#181818;stroke-width:1.0;" x1="1247" x2="1247" y1="498.0156" y2="511.0156"/><line style="stroke:#181818;stroke-width:1.0;" x1="1206" x2="1247" y1="511.0156" y2="511.0156"/><polygon fill="#181818" points="1216,507.0156,1206,511.0156,1216,515.0156,1212,511.0156" style="stroke:#181818;stroke-width:1.0;"/><text fill="#000000" font-family="sans-serif" font-size="13" lengthAdjust="spacing" textLength="134" x="1212" y="493.1592">Registra error individual</text><polygon fill="#181818" points="960,551.3672,950,555.3672,960,559.3672,956,555.3672" style="stroke:#181818;stroke-width:1.0;"/><line style="stroke:#181818;stroke-width:1.0;stroke-dasharray:2.0,2.0;" x1="954" x2="1204" y1="555.3672" y2="555.3672"/><text fill="#000000" font-family="sans-serif" font-size="13" lengthAdjust="spacing" textLength="232" x="966" y="550.5107">ImportResultDTO (&#233;xitos, fallos, errores)</text><polygon fill="#181818" points="666,581.7188,656,585.7188,666,589.7188,662,585.7188" style="stroke:#181818;stroke-width:1.0;"/><line style="stroke:#181818;stroke-width:1.0;stroke-dasharray:2.0,2.0;" x1="660" x2="948" y1="585.7188" y2="585.7188"/><text fill="#000000" font-family="sans-serif" font-size="13" lengthAdjust="spacing" textLength="152" x="672" y="580.8623">JSON Response (200 OK)</text><polygon fill="#181818" points="518.5,612.0703,508.5,616.0703,518.5,620.0703,514.5,616.0703" style="stroke:#181818;stroke-width:1.0;"/><line style="stroke:#181818;stroke-width:1.0;stroke-dasharray:2.0,2.0;" x1="512.5" x2="654" y1="616.0703" y2="616.0703"/><text fill="#000000" font-family="sans-serif" font-size="13" lengthAdjust="spacing" textLength="99" x="524.5" y="611.2139">ImportResultDTO</text><polygon fill="#181818" points="347.5,642.4219,337.5,646.4219,347.5,650.4219,343.5,646.4219" style="stroke:#181818;stroke-width:1.0;"/><line style="stroke:#181818;stroke-width:1.0;stroke-dasharray:2.0,2.0;" x1="341.5" x2="506.5" y1="646.4219" y2="646.4219"/><text fill="#000000" font-family="sans-serif" font-size="13" lengthAdjust="spacing" textLength="147" x="353.5" y="641.5654">Resultado de importaci&#243;n</text><polygon fill="#181818" points="62.5,672.7734,52.5,676.7734,62.5,680.7734,58.5,676.7734" style="stroke:#181818;stroke-width:1.0;"/><line style="stroke:#181818;stroke-width:1.0;stroke-dasharray:2.0,2.0;" x1="56.5" x2="335.5" y1="676.7734" y2="676.7734"/><text fill="#000000" font-family="sans-serif" font-size="13" lengthAdjust="spacing" textLength="261" x="68.5" y="671.917">Muestra resumen (procesados, &#233;xitos, fallos)</text><!--SRC=[ZLJ1RXen4BtxAqQSG2eYxH6bI04s2cc0b2NffHTdTq96CVRAzfBaSthiEP-G7-lO2-n2awf8Q8ttlPatpy-uHzA5j78Dxa7cvedq2kwbSYY4pBonS9QlIPFpbjzQmL1F6HLIUsXDreMnNjfhQ-xH6Olkbl3ffsulaBcT5aW7DnCuFHqPHchKVZ0uh50whCbLEQPV6FDOiSEA-U5nJArvATeDPSZ4isSohcAURtUPlLrzN61ajBT6ARHSOuRENwPLaVf576Btut-aDCiCtzEIIo_lf4Ec6-TN5jFlLn4z7WfnO3fq1y76FgIeCCl8Q0dIPW-qCJ1AR-45Yb8vMPz7ImZ6ColQrmUA-xNAzZqfx8Zubb5xgpv4xX6CRdZIX-jvkeHUiSVtgWBGdfRAKp2fTsxikZlcOJkYGUL2mt-qLSPpMp5iz6t06PWX3vp9N8B5LJ3A009Rbf44TaqxoKQzlMeXb345NBEB4RsJ2gW15OG-0lZJx3GU1g-JgsIqXCzmlfXFeNNZIcd9jE37HR980DUI57o5Vbp42ipg7ifCdbaOGWzcB2wkHKHAvI691N9oV2_eJbKYtXKocQN9OicFvRmXuwLENMlF_Ll2H3lauvX_YnZaQxthN1QAs143XctRlFrIb9jtHJIgBIgh9Q2rR27fd3QKbx8o07KkmhTnQiTngGAwGCVf6FCyxRVVp-ID-nJ-SbHunihe3hDocD7BT3vZAS4v7gVzvUI4vsjcj0x-KRzjudVNgTeF7kIuZQ3SXYPS7uOTNiC-J4kCyxF2Siq9QXTL4lCW_MYMZlW3]--></g></svg>