<?xml version="1.0" encoding="us-ascii" standalone="no"?><svg xmlns="http://www.w3.org/2000/svg" xmlns:xlink="http://www.w3.org/1999/xlink" contentStyleType="text/css" height="335px" preserveAspectRatio="none" style="width:1149px;height:335px;background:#FFFFFF;" version="1.1" viewBox="0 0 1149 335" width="1149px" zoomAndPan="magnify"><defs/><g><!--cluster editarAula--><g id="cluster_editarAula"><path d="M8.5,6 L90.5,6 A3.75,3.75 0 0 1 93,8.5 L100,29.6094 L640.5,29.6094 A2.5,2.5 0 0 1 643,32.1094 L643,325.5 A2.5,2.5 0 0 1 640.5,328 L8.5,328 A2.5,2.5 0 0 1 6,325.5 L6,8.5 A2.5,2.5 0 0 1 8.5,6 " fill="none" style="stroke:#000000;stroke-width:1.5;"/><line style="stroke:#000000;stroke-width:1.5;" x1="6" x2="100" y1="29.6094" y2="29.6094"/><text fill="#000000" font-family="sans-serif" font-size="14" font-weight="bold" lengthAdjust="spacing" textLength="81" x="10" y="22.5332">editarAula()</text></g><!--entity EditarAulaView--><g id="elem_EditarAulaView"><rect fill="#629EF9" height="37.6094" rx="2.5" ry="2.5" style="stroke:#181818;stroke-width:0.5;" width="114" x="513" y="42"/><text fill="#000000" font-family="sans-serif" font-size="14" lengthAdjust="spacing" textLength="94" x="523" y="66.5332">EditarAulaView</text></g><!--entity AulaController--><g id="elem_AulaController"><rect fill="#B5BD68" height="37.6094" rx="2.5" ry="2.5" style="stroke:#181818;stroke-width:0.5;" width="110" x="167" y="158"/><text fill="#000000" font-family="sans-serif" font-size="14" lengthAdjust="spacing" textLength="90" x="177" y="182.5332">AulaController</text></g><!--entity AulaRepository--><g id="elem_AulaRepository"><rect fill="#F2AC4E" height="37.6094" rx="2.5" ry="2.5" style="stroke:#181818;stroke-width:0.5;" width="116" x="152" y="274"/><text fill="#000000" font-family="sans-serif" font-size="14" lengthAdjust="spacing" textLength="96" x="162" y="298.5332">AulaRepository</text></g><!--entity Aula--><g id="elem_Aula"><rect fill="#F2AC4E" height="37.6094" rx="2.5" ry="2.5" style="stroke:#181818;stroke-width:0.5;" width="48" x="548" y="274"/><text fill="#000000" font-family="sans-serif" font-size="14" lengthAdjust="spacing" textLength="28" x="558" y="298.5332">Aula</text></g><!--entity AulasAbierto--><g id="elem_AulasAbierto"><rect fill="#CDEBA5" height="37.6094" rx="2.5" ry="2.5" style="stroke:#181818;stroke-width:0.5;" width="108" x="659" y="158"/><text fill="#000000" font-family="sans-serif" font-size="14" lengthAdjust="spacing" textLength="88" x="669" y="182.5332">:Aulas Abierto</text></g><!--entity AulaAbierta--><g id="elem_AulaAbierta"><rect fill="#CDEBA5" height="37.6094" rx="2.5" ry="2.5" style="stroke:#181818;stroke-width:0.5;" width="101" x="936.5" y="158"/><text fill="#000000" font-family="sans-serif" font-size="14" lengthAdjust="spacing" textLength="81" x="946.5" y="182.5332">:Aula Abierta</text></g><!--link AulasAbierto to EditarAulaView--><g id="link_AulasAbierto_EditarAulaView"><path d="M658.63,158.13 C617.13,144.48 567,128 567,128 C567,128 567,110 567,110 C567,110 567.6455,99.7283 568.4955,86.1383 " fill="none" id="AulasAbierto-to-EditarAulaView" style="stroke:#181818;stroke-width:1.0;"/><polygon fill="#181818" points="568.87,80.15,564.316,88.8828,568.5579,85.1402,572.3004,89.3821,568.87,80.15" style="stroke:#181818;stroke-width:1.0;"/><text fill="#000000" font-family="sans-serif" font-size="13" lengthAdjust="spacing" textLength="100" x="568" y="124.4951">editarAula(aulaId)</text></g><!--link EditarAulaView to AulasAbierto--><g id="link_EditarAulaView_AulasAbierto"><path d="M608.65,80.01 C637.87,93.63 673,110 673,110 C673,110 687.1218,133.2878 698.9618,152.8378 " fill="none" id="EditarAulaView-to-AulasAbierto" style="stroke:#181818;stroke-width:1.0;stroke-dasharray:7.0,7.0;"/><polygon fill="#181818" points="702.07,157.97,700.8292,148.1996,699.4798,153.6932,693.9863,152.3439,702.07,157.97" style="stroke:#181818;stroke-width:1.0;"/><text fill="#000000" font-family="sans-serif" font-size="13" lengthAdjust="spacing" textLength="128" x="685" y="124.4951">&#171;finalizar&#187; abrirAulas()</text></g><!--link EditarAulaView to AulasAbierto--><g id="link_EditarAulaView_AulasAbierto"><path d="M627.18,72.89 C701.53,87.05 822,110 822,110 C822,110 822,128 822,128 C822,128 790.3212,141.952 759.3912,155.572 " fill="none" id="EditarAulaView-to-AulasAbierto-1" style="stroke:#181818;stroke-width:1.0;stroke-dasharray:7.0,7.0;"/><polygon fill="#181818" points="753.9,157.99,763.7488,158.0237,758.476,155.975,760.5247,150.7022,753.9,157.99" style="stroke:#181818;stroke-width:1.0;"/><text fill="#000000" font-family="sans-serif" font-size="13" lengthAdjust="spacing" textLength="63" x="823" y="124.4951">&#171;cancelar&#187;</text></g><!--link EditarAulaView to AulaController--><g id="link_EditarAulaView_AulaController"><path d="M512.87,67.37 C379.53,79.89 59,110 59,110 C59,110 59,128 59,128 C59,128 113.7745,144.1246 161.0645,158.0546 " fill="none" id="EditarAulaView-to-AulaController" style="stroke:#181818;stroke-width:1.0;"/><polygon fill="#181818" points="166.82,159.75,159.317,153.3699,162.0238,158.3372,157.0565,161.0439,166.82,159.75" style="stroke:#181818;stroke-width:1.0;"/><text fill="#000000" font-family="sans-serif" font-size="13" lengthAdjust="spacing" textLength="130" x="60" y="124.4951">solicitarEdicion(aulaId)</text></g><!--link EditarAulaView to AulaController--><g id="link_EditarAulaView_AulaController"><path d="M512.98,70.92 C424.19,84.8 263,110 263,110 C263,110 248.5052,133.3228 236.3652,152.8728 " fill="none" id="EditarAulaView-to-AulaController-1" style="stroke:#181818;stroke-width:1.0;"/><polygon fill="#181818" points="233.2,157.97,241.346,152.4343,235.8377,153.7223,234.5497,148.2141,233.2,157.97" style="stroke:#181818;stroke-width:1.0;"/><text fill="#000000" font-family="sans-serif" font-size="13" lengthAdjust="spacing" textLength="294" x="264" y="124.4951">actualizar(nombre, capacidad, edificio, planta, tipo)</text></g><!--link AulaController to AulaRepository--><g id="link_AulaController_AulaRepository"><path d="M166.99,193.72 C117.99,207.72 54,226 54,226 C54,226 54,244 54,244 C54,244 101.8255,258.715 146.1755,272.365 " fill="none" id="AulaController-to-AulaRepository" style="stroke:#181818;stroke-width:1.0;"/><polygon fill="#181818" points="151.91,274.13,144.4848,267.6595,147.1312,272.6592,142.1316,275.3056,151.91,274.13" style="stroke:#181818;stroke-width:1.0;"/><text fill="#000000" font-family="sans-serif" font-size="13" lengthAdjust="spacing" textLength="111" x="55" y="240.4951">buscarPorId(aulaId)</text></g><!--link AulaController to AulaRepository--><g id="link_AulaController_AulaRepository"><path d="M216.33,196.15 C212.08,209.74 207,226 207,226 C207,226 207,244 207,244 C207,244 207.6455,254.2717 208.4955,267.8617 " fill="none" id="AulaController-to-AulaRepository-1" style="stroke:#181818;stroke-width:1.0;"/><polygon fill="#181818" points="208.87,273.85,212.3004,264.6179,208.5579,268.8598,204.316,265.1172,208.87,273.85" style="stroke:#181818;stroke-width:1.0;"/><text fill="#000000" font-family="sans-serif" font-size="13" lengthAdjust="spacing" textLength="190" x="208" y="240.4951">existeNombre(nombre) : Boolean</text></g><!--link AulaController to AulaRepository--><g id="link_AulaController_AulaRepository"><path d="M277.29,192.66 C330.52,206.78 403,226 403,226 C403,226 403,244 403,244 C403,244 330.8227,261.9523 273.9927,276.0823 " fill="none" id="AulaController-to-AulaRepository-2" style="stroke:#181818;stroke-width:1.0;"/><polygon fill="#181818" points="268.17,277.53,277.8692,279.2402,273.0223,276.3236,275.9389,271.4766,268.17,277.53" style="stroke:#181818;stroke-width:1.0;"/><text fill="#000000" font-family="sans-serif" font-size="13" lengthAdjust="spacing" textLength="88" x="404" y="240.4951">actualizar(aula)</text></g><!--link AulaController to Aula--><g id="link_AulaController_Aula"><path d="M277.12,187.48 C358.43,201.47 501,226 501,226 C501,226 527.1865,250.3338 548.2065,269.8838 " fill="none" id="AulaController-to-Aula" style="stroke:#181818;stroke-width:1.0;"/><polygon fill="#181818" points="552.6,273.97,548.7339,264.9117,548.9388,270.5648,543.2856,270.7696,552.6,273.97" style="stroke:#181818;stroke-width:1.0;"/><text fill="#000000" font-family="sans-serif" font-size="13" lengthAdjust="spacing" textLength="53" x="522" y="240.4951">&#171;update&#187;</text></g><!--link EditarAulaView to AulaAbierta--><g id="link_EditarAulaView_AulaAbierta"><path d="M627.36,70.47 C720.66,84.25 895,110 895,110 C895,110 929.7455,134.9216 956.9855,154.4716 " fill="none" id="EditarAulaView-to-AulaAbierta" style="stroke:#181818;stroke-width:1.0;stroke-dasharray:7.0,7.0;"/><polygon fill="#181818" points="961.86,157.97,956.8805,149.4727,957.7979,155.0546,952.2159,155.9721,961.86,157.97" style="stroke:#181818;stroke-width:1.0;"/><text fill="#000000" font-family="sans-serif" font-size="13" lengthAdjust="spacing" textLength="46" x="920" y="124.4951">&#171;editar&#187;</text></g><!--link AulaAbierta to AulaAbierta--><g id="link_AulaAbierta_AulaAbierta"><path d="M1037.91,166.15 C1056.88,165.79 1072.5,169.41 1072.5,177 C1072.5,184.59 1062.8789,188.3238 1043.9089,187.9638 " fill="none" id="AulaAbierta-to-AulaAbierta" style="stroke:#181818;stroke-width:1.0;"/><polygon fill="#181818" points="1037.91,187.85,1046.8325,192.02,1042.9091,187.9449,1046.9843,184.0215,1037.91,187.85" style="stroke:#181818;stroke-width:1.0;"/><text fill="#000000" font-family="sans-serif" font-size="13" lengthAdjust="spacing" textLength="58" x="1078.5" y="182.4951">editarAula</text></g><!--SRC=[ZP9HQy8m4CVVyocExgM5weDCcIA5wYhuCiOUzdvDemHZ4jAKpOrzzoMrjbs7OXv2xlZzx_x7fJnmgT7W4GINp9uq0wt4oGU464OjohrWyB1-pbRf5895MWai8SqvCrO5uDy-qoIkIXe5jeec9aGZFU2U0IkuHLEp3WcwC8m2-2O4tEbLdqtcsMOEMOkzS_OnXF9fNioUwdvh9QrHGZ0pX3QJTFsOrT0RqwhaLfdJ3OZy4DAV6KQZPE035hrnGdJNjeZ8WF6olywSh5I2Kuyvc78bMp4Pe1TrPzcfywgaQ5wLsHQTy9wsI6s5Wd-X2QKwveR5GD5jXXTOn7wMdNSJWnOeBSPWkLPtUcAVlBJifQxQ58zSUgMKO2ZlAj5pvwUAheaSkbnMka3BakJVuEDnqlzvDNpUqWsuNRAdTroURIG9O6vuZPTXT9UOegHCd9lrRLpCTxQwhqD-0G00]--></g></svg>