<?xml version="1.0" encoding="us-ascii" standalone="no"?><svg xmlns="http://www.w3.org/2000/svg" xmlns:xlink="http://www.w3.org/1999/xlink" contentStyleType="text/css" height="624px" preserveAspectRatio="none" style="width:1371px;height:624px;background:#FFFFFF;" version="1.1" viewBox="0 0 1371 624" width="1371px" zoomAndPan="magnify"><defs/><g><line style="stroke:#181818;stroke-width:0.5;stroke-dasharray:5.0,5.0;" x1="51" x2="51" y1="82.6094" y2="542.8828"/><line style="stroke:#181818;stroke-width:0.5;stroke-dasharray:5.0,5.0;" x1="286.5" x2="286.5" y1="82.6094" y2="542.8828"/><line style="stroke:#181818;stroke-width:0.5;stroke-dasharray:5.0,5.0;" x1="474.5" x2="474.5" y1="82.6094" y2="542.8828"/><line style="stroke:#181818;stroke-width:0.5;stroke-dasharray:5.0,5.0;" x1="637.5" x2="637.5" y1="82.6094" y2="542.8828"/><line style="stroke:#181818;stroke-width:0.5;stroke-dasharray:5.0,5.0;" x1="878" x2="878" y1="82.6094" y2="542.8828"/><line style="stroke:#181818;stroke-width:0.5;stroke-dasharray:5.0,5.0;" x1="1109.5" x2="1109.5" y1="82.6094" y2="542.8828"/><line style="stroke:#181818;stroke-width:0.5;stroke-dasharray:5.0,5.0;" x1="1328" x2="1328" y1="82.6094" y2="542.8828"/><text fill="#000000" font-family="sans-serif" font-size="14" lengthAdjust="spacing" textLength="87" x="5" y="79.5332">Administrador</text><ellipse cx="51.5" cy="13.5" fill="#E2E2F0" rx="8" ry="8" style="stroke:#181818;stroke-width:0.5;"/><path d="M51.5,21.5 L51.5,48.5 M38.5,29.5 L64.5,29.5 M51.5,48.5 L38.5,63.5 M51.5,48.5 L64.5,63.5 " fill="none" style="stroke:#181818;stroke-width:0.5;"/><text fill="#000000" font-family="sans-serif" font-size="14" lengthAdjust="spacing" textLength="87" x="5" y="556.416">Administrador</text><ellipse cx="51.5" cy="567.9922" fill="#E2E2F0" rx="8" ry="8" style="stroke:#181818;stroke-width:0.5;"/><path d="M51.5,575.9922 L51.5,602.9922 M38.5,583.9922 L64.5,583.9922 M51.5,602.9922 L38.5,617.9922 M51.5,602.9922 L64.5,617.9922 " fill="none" style="stroke:#181818;stroke-width:0.5;"/><rect fill="#E2E2F0" height="66.8281" rx="2.5" ry="2.5" style="stroke:#181818;stroke-width:0.5;" width="140" x="216.5" y="14.7813"/><text fill="#000000" font-family="sans-serif" font-size="14" font-style="italic" lengthAdjust="spacing" textLength="89" x="242" y="36.3145">&#171;Component&#187;</text><text fill="#000000" font-family="sans-serif" font-size="14" lengthAdjust="spacing" textLength="126" x="223.5" y="53.9238">ListarConflictosView</text><text fill="#000000" font-family="sans-serif" font-size="14" lengthAdjust="spacing" textLength="47" x="263" y="71.5332">(React)</text><rect fill="#E2E2F0" height="66.8281" rx="2.5" ry="2.5" style="stroke:#181818;stroke-width:0.5;" width="140" x="216.5" y="541.8828"/><text fill="#000000" font-family="sans-serif" font-size="14" font-style="italic" lengthAdjust="spacing" textLength="89" x="242" y="563.416">&#171;Component&#187;</text><text fill="#000000" font-family="sans-serif" font-size="14" lengthAdjust="spacing" textLength="126" x="223.5" y="581.0254">ListarConflictosView</text><text fill="#000000" font-family="sans-serif" font-size="14" lengthAdjust="spacing" textLength="47" x="263" y="598.6348">(React)</text><rect fill="#E2E2F0" height="66.8281" rx="2.5" ry="2.5" style="stroke:#181818;stroke-width:0.5;" width="164" x="392.5" y="14.7813"/><text fill="#000000" font-family="sans-serif" font-size="14" font-style="italic" lengthAdjust="spacing" textLength="50" x="449.5" y="36.3145">&#171;Hook&#187;</text><text fill="#000000" font-family="sans-serif" font-size="14" lengthAdjust="spacing" textLength="150" x="399.5" y="53.9238">useConflictosExamenes</text><text fill="#000000" font-family="sans-serif" font-size="14" lengthAdjust="spacing" textLength="42" x="453.5" y="71.5332">(Hook)</text><rect fill="#E2E2F0" height="66.8281" rx="2.5" ry="2.5" style="stroke:#181818;stroke-width:0.5;" width="164" x="392.5" y="541.8828"/><text fill="#000000" font-family="sans-serif" font-size="14" font-style="italic" lengthAdjust="spacing" textLength="50" x="449.5" y="563.416">&#171;Hook&#187;</text><text fill="#000000" font-family="sans-serif" font-size="14" lengthAdjust="spacing" textLength="150" x="399.5" y="581.0254">useConflictosExamenes</text><text fill="#000000" font-family="sans-serif" font-size="14" lengthAdjust="spacing" textLength="42" x="453.5" y="598.6348">(Hook)</text><rect fill="#E2E2F0" height="66.8281" rx="2.5" ry="2.5" style="stroke:#181818;stroke-width:0.5;" width="126" x="574.5" y="14.7813"/><text fill="#000000" font-family="sans-serif" font-size="14" font-style="italic" lengthAdjust="spacing" textLength="62" x="606.5" y="36.3145">&#171;Service&#187;</text><text fill="#000000" font-family="sans-serif" font-size="14" lengthAdjust="spacing" textLength="112" x="581.5" y="53.9238">ExamenesService</text><text fill="#000000" font-family="sans-serif" font-size="14" lengthAdjust="spacing" textLength="43" x="616" y="71.5332">(Axios)</text><rect fill="#E2E2F0" height="66.8281" rx="2.5" ry="2.5" style="stroke:#181818;stroke-width:0.5;" width="126" x="574.5" y="541.8828"/><text fill="#000000" font-family="sans-serif" font-size="14" font-style="italic" lengthAdjust="spacing" textLength="62" x="606.5" y="563.416">&#171;Service&#187;</text><text fill="#000000" font-family="sans-serif" font-size="14" lengthAdjust="spacing" textLength="112" x="581.5" y="581.0254">ExamenesService</text><text fill="#000000" font-family="sans-serif" font-size="14" lengthAdjust="spacing" textLength="43" x="616" y="598.6348">(Axios)</text><rect fill="#E2E2F0" height="66.8281" rx="2.5" ry="2.5" style="stroke:#181818;stroke-width:0.5;" width="141" x="808" y="14.7813"/><text fill="#000000" font-family="sans-serif" font-size="14" font-style="italic" lengthAdjust="spacing" textLength="78" x="839.5" y="36.3145">&#171;Controller&#187;</text><text fill="#000000" font-family="sans-serif" font-size="14" lengthAdjust="spacing" textLength="127" x="815" y="53.9238">ExamenesController</text><text fill="#000000" font-family="sans-serif" font-size="14" lengthAdjust="spacing" textLength="53" x="852" y="71.5332">(NestJS)</text><rect fill="#E2E2F0" height="66.8281" rx="2.5" ry="2.5" style="stroke:#181818;stroke-width:0.5;" width="141" x="808" y="541.8828"/><text fill="#000000" font-family="sans-serif" font-size="14" font-style="italic" lengthAdjust="spacing" textLength="78" x="839.5" y="563.416">&#171;Controller&#187;</text><text fill="#000000" font-family="sans-serif" font-size="14" lengthAdjust="spacing" textLength="127" x="815" y="581.0254">ExamenesController</text><text fill="#000000" font-family="sans-serif" font-size="14" lengthAdjust="spacing" textLength="53" x="852" y="598.6348">(NestJS)</text><rect fill="#E2E2F0" height="66.8281" rx="2.5" ry="2.5" style="stroke:#181818;stroke-width:0.5;" width="126" x="1046.5" y="14.7813"/><text fill="#000000" font-family="sans-serif" font-size="14" font-style="italic" lengthAdjust="spacing" textLength="62" x="1078.5" y="36.3145">&#171;Service&#187;</text><text fill="#000000" font-family="sans-serif" font-size="14" lengthAdjust="spacing" textLength="112" x="1053.5" y="53.9238">ExamenesService</text><text fill="#000000" font-family="sans-serif" font-size="14" lengthAdjust="spacing" textLength="53" x="1083" y="71.5332">(NestJS)</text><rect fill="#E2E2F0" height="66.8281" rx="2.5" ry="2.5" style="stroke:#181818;stroke-width:0.5;" width="126" x="1046.5" y="541.8828"/><text fill="#000000" font-family="sans-serif" font-size="14" font-style="italic" lengthAdjust="spacing" textLength="62" x="1078.5" y="563.416">&#171;Service&#187;</text><text fill="#000000" font-family="sans-serif" font-size="14" lengthAdjust="spacing" textLength="112" x="1053.5" y="581.0254">ExamenesService</text><text fill="#000000" font-family="sans-serif" font-size="14" lengthAdjust="spacing" textLength="53" x="1083" y="598.6348">(NestJS)</text><text fill="#000000" font-family="sans-serif" font-size="14" lengthAdjust="spacing" textLength="77" x="1287" y="79.5332">PostgreSQL</text><path d="M1310.5,29 C1310.5,19 1328.5,19 1328.5,19 C1328.5,19 1346.5,19 1346.5,29 L1346.5,55 C1346.5,65 1328.5,65 1328.5,65 C1328.5,65 1310.5,65 1310.5,55 L1310.5,29 " fill="#E2E2F0" style="stroke:#181818;stroke-width:1.5;"/><path d="M1310.5,29 C1310.5,39 1328.5,39 1328.5,39 C1328.5,39 1346.5,39 1346.5,29 " fill="none" style="stroke:#181818;stroke-width:1.5;"/><text fill="#000000" font-family="sans-serif" font-size="14" lengthAdjust="spacing" textLength="77" x="1287" y="556.416">PostgreSQL</text><path d="M1310.5,569.4922 C1310.5,559.4922 1328.5,559.4922 1328.5,559.4922 C1328.5,559.4922 1346.5,559.4922 1346.5,569.4922 L1346.5,595.4922 C1346.5,605.4922 1328.5,605.4922 1328.5,605.4922 C1328.5,605.4922 1310.5,605.4922 1310.5,595.4922 L1310.5,569.4922 " fill="#E2E2F0" style="stroke:#181818;stroke-width:1.5;"/><path d="M1310.5,569.4922 C1310.5,579.4922 1328.5,579.4922 1328.5,579.4922 C1328.5,579.4922 1346.5,579.4922 1346.5,569.4922 " fill="none" style="stroke:#181818;stroke-width:1.5;"/><polygon fill="#181818" points="274.5,110.9609,284.5,114.9609,274.5,118.9609,278.5,114.9609" style="stroke:#181818;stroke-width:1.0;"/><line style="stroke:#181818;stroke-width:1.0;" x1="51.5" x2="280.5" y1="114.9609" y2="114.9609"/><text fill="#000000" font-family="sans-serif" font-size="13" lengthAdjust="spacing" textLength="211" x="58.5" y="110.1045">Selecciona ver conflictos de profesor</text><polygon fill="#181818" points="462.5,141.3125,472.5,145.3125,462.5,149.3125,466.5,145.3125" style="stroke:#181818;stroke-width:1.0;"/><line style="stroke:#181818;stroke-width:1.0;" x1="286.5" x2="468.5" y1="145.3125" y2="145.3125"/><text fill="#000000" font-family="sans-serif" font-size="13" lengthAdjust="spacing" textLength="145" x="293.5" y="140.4561">loadConflictos(profesorId)</text><polygon fill="#181818" points="625.5,171.6641,635.5,175.6641,625.5,179.6641,629.5,175.6641" style="stroke:#181818;stroke-width:1.0;"/><line style="stroke:#181818;stroke-width:1.0;" x1="474.5" x2="631.5" y1="175.6641" y2="175.6641"/><text fill="#000000" font-family="sans-serif" font-size="13" lengthAdjust="spacing" textLength="139" x="481.5" y="170.8076">getConflictos(profesorId)</text><polygon fill="#181818" points="866.5,202.0156,876.5,206.0156,866.5,210.0156,870.5,206.0156" style="stroke:#181818;stroke-width:1.0;"/><line style="stroke:#181818;stroke-width:1.0;" x1="637.5" x2="872.5" y1="206.0156" y2="206.0156"/><text fill="#000000" font-family="sans-serif" font-size="13" lengthAdjust="spacing" textLength="217" x="644.5" y="201.1592">GET /examenes/conflictos/:profesorId</text><polygon fill="#181818" points="1097.5,232.3672,1107.5,236.3672,1097.5,240.3672,1101.5,236.3672" style="stroke:#181818;stroke-width:1.0;"/><line style="stroke:#181818;stroke-width:1.0;" x1="878.5" x2="1103.5" y1="236.3672" y2="236.3672"/><text fill="#000000" font-family="sans-serif" font-size="13" lengthAdjust="spacing" textLength="207" x="885.5" y="231.5107">getConflictosPorProfesor(profesorId)</text><polygon fill="#181818" points="1316.5,279.0703,1326.5,283.0703,1316.5,287.0703,1320.5,283.0703" style="stroke:#181818;stroke-width:1.0;"/><line style="stroke:#181818;stroke-width:1.0;" x1="1109.5" x2="1322.5" y1="283.0703" y2="283.0703"/><text fill="#000000" font-family="sans-serif" font-size="13" lengthAdjust="spacing" textLength="163" x="1116.5" y="261.8623">SELECT * FROM "Examen"</text><text fill="#000000" font-family="sans-serif" font-size="13" lengthAdjust="spacing" textLength="195" x="1116.5" y="278.2139">WHERE "profesorId" = :profesorId</text><polygon fill="#181818" points="1120.5,309.4219,1110.5,313.4219,1120.5,317.4219,1116.5,313.4219" style="stroke:#181818;stroke-width:1.0;"/><line style="stroke:#181818;stroke-width:1.0;stroke-dasharray:2.0,2.0;" x1="1114.5" x2="1327.5" y1="313.4219" y2="313.4219"/><text fill="#000000" font-family="sans-serif" font-size="13" lengthAdjust="spacing" textLength="110" x="1126.5" y="308.5654">Lista de ex&#225;menes</text><line style="stroke:#181818;stroke-width:1.0;" x1="1109.5" x2="1151.5" y1="360.125" y2="360.125"/><line style="stroke:#181818;stroke-width:1.0;" x1="1151.5" x2="1151.5" y1="360.125" y2="373.125"/><line style="stroke:#181818;stroke-width:1.0;" x1="1110.5" x2="1151.5" y1="373.125" y2="373.125"/><polygon fill="#181818" points="1120.5,369.125,1110.5,373.125,1120.5,377.125,1116.5,373.125" style="stroke:#181818;stroke-width:1.0;"/><text fill="#000000" font-family="sans-serif" font-size="13" lengthAdjust="spacing" textLength="137" x="1116.5" y="338.917">Detectar solapamientos</text><text fill="#000000" font-family="sans-serif" font-size="13" lengthAdjust="spacing" textLength="104" x="1116.5" y="355.2686">(fecha, hora, aula)</text><polygon fill="#181818" points="889.5,399.4766,879.5,403.4766,889.5,407.4766,885.5,403.4766" style="stroke:#181818;stroke-width:1.0;"/><line style="stroke:#181818;stroke-width:1.0;stroke-dasharray:2.0,2.0;" x1="883.5" x2="1108.5" y1="403.4766" y2="403.4766"/><text fill="#000000" font-family="sans-serif" font-size="13" lengthAdjust="spacing" textLength="120" x="895.5" y="398.6201">List&lt;ConflictosDTO&gt;</text><polygon fill="#181818" points="648.5,429.8281,638.5,433.8281,648.5,437.8281,644.5,433.8281" style="stroke:#181818;stroke-width:1.0;"/><line style="stroke:#181818;stroke-width:1.0;stroke-dasharray:2.0,2.0;" x1="642.5" x2="877.5" y1="433.8281" y2="433.8281"/><text fill="#000000" font-family="sans-serif" font-size="13" lengthAdjust="spacing" textLength="152" x="654.5" y="428.9717">JSON Response (200 OK)</text><polygon fill="#181818" points="485.5,460.1797,475.5,464.1797,485.5,468.1797,481.5,464.1797" style="stroke:#181818;stroke-width:1.0;"/><line style="stroke:#181818;stroke-width:1.0;stroke-dasharray:2.0,2.0;" x1="479.5" x2="636.5" y1="464.1797" y2="464.1797"/><text fill="#000000" font-family="sans-serif" font-size="13" lengthAdjust="spacing" textLength="83" x="491.5" y="459.3232">ConflictosDTO</text><polygon fill="#181818" points="297.5,490.5313,287.5,494.5313,297.5,498.5313,293.5,494.5313" style="stroke:#181818;stroke-width:1.0;"/><line style="stroke:#181818;stroke-width:1.0;stroke-dasharray:2.0,2.0;" x1="291.5" x2="473.5" y1="494.5313" y2="494.5313"/><text fill="#000000" font-family="sans-serif" font-size="13" lengthAdjust="spacing" textLength="164" x="303.5" y="489.6748">Actualiza estado (conflictos)</text><polygon fill="#181818" points="62.5,520.8828,52.5,524.8828,62.5,528.8828,58.5,524.8828" style="stroke:#181818;stroke-width:1.0;"/><line style="stroke:#181818;stroke-width:1.0;stroke-dasharray:2.0,2.0;" x1="56.5" x2="285.5" y1="524.8828" y2="524.8828"/><text fill="#000000" font-family="sans-serif" font-size="13" lengthAdjust="spacing" textLength="152" x="68.5" y="520.0264">Muestra lista de conflictos</text><!--SRC=[XPFFRjf04CRlVegHJr0r8khHeaWOd2Of2HJJzfBBr1vWbVMkjRiag6_JPycBTMnix8sAUW7_-Nupizzyjiz2bMYm0Bl7NByAjOCjIaj1W9dJ1gPv8PImpl1R4x3KYKoKg1o42twCPgRLLWhMsX-2Nf_KO4rC3aD02z_lO3oUwQBKYfIRJ7p-OAc3aoCMfCXoWLkjdqzyTSKLgh_tSAjFoRo8Z1YR7eMs9-wcUSfiStK9vm6SqLAIuGgFPDrzUYhHlQYFqDxyVun-aVXVS-Jey1TQWd2bhTiPIhyjQlKy3WBFRhYQL1P6a9AaB1DQ8RpmGDdPDSW9IgEtP7avB6MWzYm2gJ7lt1sqehjy6DGALfvTYc17xeBuB6AWvqa4Nv8DZAWv_gWRQHHrUD0Zc8ylD5nfiseOhtSGzvhFuyg8P97CDl01RjRBXzRzy4dzl4tM2OGT7C9dw0_2z9K_GPtUoZywllsf3-7twqddv2ZZg8FL4aii18TPLqdTKhR7Zx3NXd_n8D6R-RrZLSTnT-hvPZdn3F9NSfyk7s5DbhyTpihWq_KrBB_szz7jsglPhBUDpZHp1vJYDmBdaaC5WsvLmpeohFHJ5y73WQeRaAr77HFy1G00]--></g></svg>