<?xml version="1.0" encoding="us-ascii" standalone="no"?><svg xmlns="http://www.w3.org/2000/svg" xmlns:xlink="http://www.w3.org/1999/xlink" contentStyleType="text/css" height="898px" preserveAspectRatio="none" style="width:2624px;height:898px;background:#FFFFFF;" version="1.1" viewBox="0 0 2624 898" width="2624px" zoomAndPan="magnify"><defs/><g><line style="stroke:#181818;stroke-width:0.5;stroke-dasharray:5.0,5.0;" x1="51" x2="51" y1="82.6094" y2="816.0469"/><line style="stroke:#181818;stroke-width:0.5;stroke-dasharray:5.0,5.0;" x1="263" x2="263" y1="82.6094" y2="816.0469"/><line style="stroke:#181818;stroke-width:0.5;stroke-dasharray:5.0,5.0;" x1="543" x2="543" y1="82.6094" y2="816.0469"/><line style="stroke:#181818;stroke-width:0.5;stroke-dasharray:5.0,5.0;" x1="835" x2="835" y1="82.6094" y2="816.0469"/><line style="stroke:#181818;stroke-width:0.5;stroke-dasharray:5.0,5.0;" x1="1313" x2="1313" y1="82.6094" y2="816.0469"/><line style="stroke:#181818;stroke-width:0.5;stroke-dasharray:5.0,5.0;" x1="1534" x2="1534" y1="82.6094" y2="816.0469"/><line style="stroke:#181818;stroke-width:0.5;stroke-dasharray:5.0,5.0;" x1="1709" x2="1709" y1="82.6094" y2="816.0469"/><line style="stroke:#181818;stroke-width:0.5;stroke-dasharray:5.0,5.0;" x1="1860" x2="1860" y1="82.6094" y2="816.0469"/><line style="stroke:#181818;stroke-width:0.5;stroke-dasharray:5.0,5.0;" x1="1992" x2="1992" y1="82.6094" y2="816.0469"/><line style="stroke:#181818;stroke-width:0.5;stroke-dasharray:5.0,5.0;" x1="2315" x2="2315" y1="82.6094" y2="816.0469"/><line style="stroke:#181818;stroke-width:0.5;stroke-dasharray:5.0,5.0;" x1="2571.5" x2="2571.5" y1="82.6094" y2="816.0469"/><text fill="#000000" font-family="sans-serif" font-size="14" lengthAdjust="spacing" textLength="87" x="5" y="79.5332">Administrador</text><ellipse cx="51.5" cy="13.5" fill="#E2E2F0" rx="8" ry="8" style="stroke:#181818;stroke-width:0.5;"/><path d="M51.5,21.5 L51.5,48.5 M38.5,29.5 L64.5,29.5 M51.5,48.5 L38.5,63.5 M51.5,48.5 L64.5,63.5 " fill="none" style="stroke:#181818;stroke-width:0.5;"/><text fill="#000000" font-family="sans-serif" font-size="14" lengthAdjust="spacing" textLength="87" x="5" y="829.5801">Administrador</text><ellipse cx="51.5" cy="841.1563" fill="#E2E2F0" rx="8" ry="8" style="stroke:#181818;stroke-width:0.5;"/><path d="M51.5,849.1563 L51.5,876.1563 M38.5,857.1563 L64.5,857.1563 M51.5,876.1563 L38.5,891.1563 M51.5,876.1563 L64.5,891.1563 " fill="none" style="stroke:#181818;stroke-width:0.5;"/><rect fill="#E2E2F0" height="66.8281" rx="2.5" ry="2.5" style="stroke:#181818;stroke-width:0.5;" width="173" x="177" y="14.7813"/><text fill="#000000" font-family="sans-serif" font-size="14" font-style="italic" lengthAdjust="spacing" textLength="89" x="219" y="36.3145">&#171;Component&#187;</text><text fill="#000000" font-family="sans-serif" font-size="14" lengthAdjust="spacing" textLength="159" x="184" y="53.9238">ConsultarCalendarioView</text><text fill="#000000" font-family="sans-serif" font-size="14" lengthAdjust="spacing" textLength="47" x="240" y="71.5332">(React)</text><rect fill="#E2E2F0" height="66.8281" rx="2.5" ry="2.5" style="stroke:#181818;stroke-width:0.5;" width="173" x="177" y="815.0469"/><text fill="#000000" font-family="sans-serif" font-size="14" font-style="italic" lengthAdjust="spacing" textLength="89" x="219" y="836.5801">&#171;Component&#187;</text><text fill="#000000" font-family="sans-serif" font-size="14" lengthAdjust="spacing" textLength="159" x="184" y="854.1895">ConsultarCalendarioView</text><text fill="#000000" font-family="sans-serif" font-size="14" lengthAdjust="spacing" textLength="47" x="240" y="871.7988">(React)</text><rect fill="#E2E2F0" height="66.8281" rx="2.5" ry="2.5" style="stroke:#181818;stroke-width:0.5;" width="187" x="450" y="14.7813"/><text fill="#000000" font-family="sans-serif" font-size="14" font-style="italic" lengthAdjust="spacing" textLength="89" x="499" y="36.3145">&#171;Component&#187;</text><text fill="#000000" font-family="sans-serif" font-size="14" lengthAdjust="spacing" textLength="173" x="457" y="53.9238">DescargarCalendarioModal</text><text fill="#000000" font-family="sans-serif" font-size="14" lengthAdjust="spacing" textLength="47" x="520" y="71.5332">(React)</text><rect fill="#E2E2F0" height="66.8281" rx="2.5" ry="2.5" style="stroke:#181818;stroke-width:0.5;" width="187" x="450" y="815.0469"/><text fill="#000000" font-family="sans-serif" font-size="14" font-style="italic" lengthAdjust="spacing" textLength="89" x="499" y="836.5801">&#171;Component&#187;</text><text fill="#000000" font-family="sans-serif" font-size="14" lengthAdjust="spacing" textLength="173" x="457" y="854.1895">DescargarCalendarioModal</text><text fill="#000000" font-family="sans-serif" font-size="14" lengthAdjust="spacing" textLength="47" x="520" y="871.7988">(React)</text><rect fill="#E2E2F0" height="66.8281" rx="2.5" ry="2.5" style="stroke:#181818;stroke-width:0.5;" width="125" x="773" y="14.7813"/><text fill="#000000" font-family="sans-serif" font-size="14" font-style="italic" lengthAdjust="spacing" textLength="62" x="804.5" y="36.3145">&#171;Service&#187;</text><text fill="#000000" font-family="sans-serif" font-size="14" lengthAdjust="spacing" textLength="111" x="780" y="53.9238">examenesService</text><text fill="#000000" font-family="sans-serif" font-size="14" lengthAdjust="spacing" textLength="43" x="814" y="71.5332">(Axios)</text><rect fill="#E2E2F0" height="66.8281" rx="2.5" ry="2.5" style="stroke:#181818;stroke-width:0.5;" width="125" x="773" y="815.0469"/><text fill="#000000" font-family="sans-serif" font-size="14" font-style="italic" lengthAdjust="spacing" textLength="62" x="804.5" y="836.5801">&#171;Service&#187;</text><text fill="#000000" font-family="sans-serif" font-size="14" lengthAdjust="spacing" textLength="111" x="780" y="854.1895">examenesService</text><text fill="#000000" font-family="sans-serif" font-size="14" lengthAdjust="spacing" textLength="43" x="814" y="871.7988">(Axios)</text><rect fill="#E2E2F0" height="66.8281" rx="2.5" ry="2.5" style="stroke:#181818;stroke-width:0.5;" width="141" x="1243" y="14.7813"/><text fill="#000000" font-family="sans-serif" font-size="14" font-style="italic" lengthAdjust="spacing" textLength="78" x="1274.5" y="36.3145">&#171;Controller&#187;</text><text fill="#000000" font-family="sans-serif" font-size="14" lengthAdjust="spacing" textLength="127" x="1250" y="53.9238">ExamenesController</text><text fill="#000000" font-family="sans-serif" font-size="14" lengthAdjust="spacing" textLength="53" x="1287" y="71.5332">(NestJS)</text><rect fill="#E2E2F0" height="66.8281" rx="2.5" ry="2.5" style="stroke:#181818;stroke-width:0.5;" width="141" x="1243" y="815.0469"/><text fill="#000000" font-family="sans-serif" font-size="14" font-style="italic" lengthAdjust="spacing" textLength="78" x="1274.5" y="836.5801">&#171;Controller&#187;</text><text fill="#000000" font-family="sans-serif" font-size="14" lengthAdjust="spacing" textLength="127" x="1250" y="854.1895">ExamenesController</text><text fill="#000000" font-family="sans-serif" font-size="14" lengthAdjust="spacing" textLength="53" x="1287" y="871.7988">(NestJS)</text><rect fill="#E2E2F0" height="66.8281" rx="2.5" ry="2.5" style="stroke:#181818;stroke-width:0.5;" width="135" x="1467" y="14.7813"/><text fill="#000000" font-family="sans-serif" font-size="14" font-style="italic" lengthAdjust="spacing" textLength="62" x="1503.5" y="36.3145">&#171;Service&#187;</text><text fill="#000000" font-family="sans-serif" font-size="14" lengthAdjust="spacing" textLength="121" x="1474" y="53.9238">ExportacionService</text><text fill="#000000" font-family="sans-serif" font-size="14" lengthAdjust="spacing" textLength="53" x="1508" y="71.5332">(NestJS)</text><rect fill="#E2E2F0" height="66.8281" rx="2.5" ry="2.5" style="stroke:#181818;stroke-width:0.5;" width="135" x="1467" y="815.0469"/><text fill="#000000" font-family="sans-serif" font-size="14" font-style="italic" lengthAdjust="spacing" textLength="62" x="1503.5" y="836.5801">&#171;Service&#187;</text><text fill="#000000" font-family="sans-serif" font-size="14" lengthAdjust="spacing" textLength="121" x="1474" y="854.1895">ExportacionService</text><text fill="#000000" font-family="sans-serif" font-size="14" lengthAdjust="spacing" textLength="53" x="1508" y="871.7988">(NestJS)</text><rect fill="#E2E2F0" height="49.2188" rx="2.5" ry="2.5" style="stroke:#181818;stroke-width:0.5;" width="165" x="1627" y="32.3906"/><text fill="#000000" font-family="sans-serif" font-size="14" font-style="italic" lengthAdjust="spacing" textLength="64" x="1677.5" y="53.9238">&#171;Factory&#187;</text><text fill="#000000" font-family="sans-serif" font-size="14" lengthAdjust="spacing" textLength="151" x="1634" y="71.5332">ExamenExporterFactory</text><rect fill="#E2E2F0" height="49.2188" rx="2.5" ry="2.5" style="stroke:#181818;stroke-width:0.5;" width="165" x="1627" y="815.0469"/><text fill="#000000" font-family="sans-serif" font-size="14" font-style="italic" lengthAdjust="spacing" textLength="64" x="1677.5" y="836.5801">&#171;Factory&#187;</text><text fill="#000000" font-family="sans-serif" font-size="14" lengthAdjust="spacing" textLength="151" x="1634" y="854.1895">ExamenExporterFactory</text><rect fill="#E2E2F0" height="66.8281" rx="2.5" ry="2.5" style="stroke:#181818;stroke-width:0.5;" width="117" x="1802" y="14.7813"/><text fill="#000000" font-family="sans-serif" font-size="14" font-style="italic" lengthAdjust="spacing" textLength="69" x="1826" y="36.3145">&#171;Strategy&#187;</text><text fill="#000000" font-family="sans-serif" font-size="14" lengthAdjust="spacing" textLength="103" x="1809" y="53.9238">ExamenExporter</text><text fill="#000000" font-family="sans-serif" font-size="14" lengthAdjust="spacing" textLength="82" x="1819.5" y="71.5332">(Excel | PDF)</text><rect fill="#E2E2F0" height="66.8281" rx="2.5" ry="2.5" style="stroke:#181818;stroke-width:0.5;" width="117" x="1802" y="815.0469"/><text fill="#000000" font-family="sans-serif" font-size="14" font-style="italic" lengthAdjust="spacing" textLength="69" x="1826" y="836.5801">&#171;Strategy&#187;</text><text fill="#000000" font-family="sans-serif" font-size="14" lengthAdjust="spacing" textLength="103" x="1809" y="854.1895">ExamenExporter</text><text fill="#000000" font-family="sans-serif" font-size="14" lengthAdjust="spacing" textLength="82" x="1819.5" y="871.7988">(Excel | PDF)</text><rect fill="#E2E2F0" height="66.8281" rx="2.5" ry="2.5" style="stroke:#181818;stroke-width:0.5;" width="126" x="1929" y="14.7813"/><text fill="#000000" font-family="sans-serif" font-size="14" font-style="italic" lengthAdjust="spacing" textLength="62" x="1961" y="36.3145">&#171;Service&#187;</text><text fill="#000000" font-family="sans-serif" font-size="14" lengthAdjust="spacing" textLength="112" x="1936" y="53.9238">ExamenesService</text><text fill="#000000" font-family="sans-serif" font-size="14" lengthAdjust="spacing" textLength="53" x="1965.5" y="71.5332">(NestJS)</text><rect fill="#E2E2F0" height="66.8281" rx="2.5" ry="2.5" style="stroke:#181818;stroke-width:0.5;" width="126" x="1929" y="815.0469"/><text fill="#000000" font-family="sans-serif" font-size="14" font-style="italic" lengthAdjust="spacing" textLength="62" x="1961" y="836.5801">&#171;Service&#187;</text><text fill="#000000" font-family="sans-serif" font-size="14" lengthAdjust="spacing" textLength="112" x="1936" y="854.1895">ExamenesService</text><text fill="#000000" font-family="sans-serif" font-size="14" lengthAdjust="spacing" textLength="53" x="1965.5" y="871.7988">(NestJS)</text><rect fill="#E2E2F0" height="49.2188" rx="2.5" ry="2.5" style="stroke:#181818;stroke-width:0.5;" width="104" x="2263" y="32.3906"/><text fill="#000000" font-family="sans-serif" font-size="14" font-style="italic" lengthAdjust="spacing" textLength="49" x="2290.5" y="53.9238">&#171;ORM&#187;</text><text fill="#000000" font-family="sans-serif" font-size="14" lengthAdjust="spacing" textLength="90" x="2270" y="71.5332">PrismaService</text><rect fill="#E2E2F0" height="49.2188" rx="2.5" ry="2.5" style="stroke:#181818;stroke-width:0.5;" width="104" x="2263" y="815.0469"/><text fill="#000000" font-family="sans-serif" font-size="14" font-style="italic" lengthAdjust="spacing" textLength="49" x="2290.5" y="836.5801">&#171;ORM&#187;</text><text fill="#000000" font-family="sans-serif" font-size="14" lengthAdjust="spacing" textLength="90" x="2270" y="854.1895">PrismaService</text><text fill="#000000" font-family="sans-serif" font-size="14" lengthAdjust="spacing" textLength="97" x="2520.5" y="79.5332">PostgreSQL 16</text><path d="M2554,29 C2554,19 2572,19 2572,19 C2572,19 2590,19 2590,29 L2590,55 C2590,65 2572,65 2572,65 C2572,65 2554,65 2554,55 L2554,29 " fill="#E2E2F0" style="stroke:#181818;stroke-width:1.5;"/><path d="M2554,29 C2554,39 2572,39 2572,39 C2572,39 2590,39 2590,29 " fill="none" style="stroke:#181818;stroke-width:1.5;"/><text fill="#000000" font-family="sans-serif" font-size="14" lengthAdjust="spacing" textLength="97" x="2520.5" y="829.5801">PostgreSQL 16</text><path d="M2554,842.6563 C2554,832.6563 2572,832.6563 2572,832.6563 C2572,832.6563 2590,832.6563 2590,842.6563 L2590,868.6563 C2590,878.6563 2572,878.6563 2572,878.6563 C2572,878.6563 2554,878.6563 2554,868.6563 L2554,842.6563 " fill="#E2E2F0" style="stroke:#181818;stroke-width:1.5;"/><path d="M2554,842.6563 C2554,852.6563 2572,852.6563 2572,852.6563 C2572,852.6563 2590,852.6563 2590,842.6563 " fill="none" style="stroke:#181818;stroke-width:1.5;"/><polygon fill="#181818" points="251.5,110.9609,261.5,114.9609,251.5,118.9609,255.5,114.9609" style="stroke:#181818;stroke-width:1.0;"/><line style="stroke:#181818;stroke-width:1.0;" x1="51.5" x2="257.5" y1="114.9609" y2="114.9609"/><text fill="#000000" font-family="sans-serif" font-size="13" lengthAdjust="spacing" textLength="188" x="58.5" y="110.1045">descargarCalendarioExamenes()</text><polygon fill="#181818" points="531.5,141.3125,541.5,145.3125,531.5,149.3125,535.5,145.3125" style="stroke:#181818;stroke-width:1.0;"/><line style="stroke:#181818;stroke-width:1.0;" x1="263.5" x2="537.5" y1="145.3125" y2="145.3125"/><text fill="#000000" font-family="sans-serif" font-size="13" lengthAdjust="spacing" textLength="148" x="270.5" y="140.4561">abrir (formato + opciones)</text><polygon fill="#181818" points="531.5,171.6641,541.5,175.6641,531.5,179.6641,535.5,175.6641" style="stroke:#181818;stroke-width:1.0;"/><line style="stroke:#181818;stroke-width:1.0;" x1="51.5" x2="537.5" y1="175.6641" y2="175.6641"/><text fill="#000000" font-family="sans-serif" font-size="13" lengthAdjust="spacing" textLength="208" x="58.5" y="170.8076">elige formato (pdf|excel) y columnas</text><polygon fill="#181818" points="823.5,202.0156,833.5,206.0156,823.5,210.0156,827.5,206.0156" style="stroke:#181818;stroke-width:1.0;"/><line style="stroke:#181818;stroke-width:1.0;" x1="543.5" x2="829.5" y1="206.0156" y2="206.0156"/><text fill="#000000" font-family="sans-serif" font-size="13" lengthAdjust="spacing" textLength="268" x="550.5" y="201.1592">descargarCalendario(filtros, formato, opciones)</text><polygon fill="#181818" points="1301.5,232.3672,1311.5,236.3672,1301.5,240.3672,1305.5,236.3672" style="stroke:#181818;stroke-width:1.0;"/><line style="stroke:#181818;stroke-width:1.0;" x1="835.5" x2="1307.5" y1="236.3672" y2="236.3672"/><text fill="#000000" font-family="sans-serif" font-size="13" lengthAdjust="spacing" textLength="454" x="842.5" y="231.5107">GET /examenes/exportar?formato&amp;incluirAula&amp;incluirProfesor&amp;incluirGrado&amp;...</text><polygon fill="#181818" points="1522.5,262.7188,1532.5,266.7188,1522.5,270.7188,1526.5,266.7188" style="stroke:#181818;stroke-width:1.0;"/><line style="stroke:#181818;stroke-width:1.0;" x1="1313.5" x2="1528.5" y1="266.7188" y2="266.7188"/><text fill="#000000" font-family="sans-serif" font-size="13" lengthAdjust="spacing" textLength="197" x="1320.5" y="261.8623">exportar(filtros, formato, opciones)</text><polygon fill="#181818" points="1980,293.0703,1990,297.0703,1980,301.0703,1984,297.0703" style="stroke:#181818;stroke-width:1.0;"/><line style="stroke:#181818;stroke-width:1.0;" x1="1534.5" x2="1986" y1="297.0703" y2="297.0703"/><text fill="#000000" font-family="sans-serif" font-size="13" lengthAdjust="spacing" textLength="120" x="1541.5" y="292.2139">findCalendario(filtros)</text><polygon fill="#181818" points="2303,323.4219,2313,327.4219,2303,331.4219,2307,327.4219" style="stroke:#181818;stroke-width:1.0;"/><line style="stroke:#181818;stroke-width:1.0;" x1="1992" x2="2309" y1="327.4219" y2="327.4219"/><text fill="#000000" font-family="sans-serif" font-size="13" lengthAdjust="spacing" textLength="299" x="1999" y="322.5654">examen.findMany({ include: profesor.usuario, aula })</text><polygon fill="#181818" points="2560,353.7734,2570,357.7734,2560,361.7734,2564,357.7734" style="stroke:#181818;stroke-width:1.0;"/><line style="stroke:#181818;stroke-width:1.0;" x1="2315" x2="2566" y1="357.7734" y2="357.7734"/><text fill="#000000" font-family="sans-serif" font-size="13" lengthAdjust="spacing" textLength="233" x="2322" y="352.917">SELECT ex&#225;menes programados + FKs</text><polygon fill="#181818" points="2326,384.125,2316,388.125,2326,392.125,2322,388.125" style="stroke:#181818;stroke-width:1.0;"/><line style="stroke:#181818;stroke-width:1.0;stroke-dasharray:2.0,2.0;" x1="2320" x2="2571" y1="388.125" y2="388.125"/><text fill="#000000" font-family="sans-serif" font-size="13" lengthAdjust="spacing" textLength="62" x="2332" y="383.2686">Ex&#225;menes</text><polygon fill="#181818" points="2003,414.4766,1993,418.4766,2003,422.4766,1999,418.4766" style="stroke:#181818;stroke-width:1.0;"/><line style="stroke:#181818;stroke-width:1.0;stroke-dasharray:2.0,2.0;" x1="1997" x2="2314" y1="418.4766" y2="418.4766"/><text fill="#000000" font-family="sans-serif" font-size="13" lengthAdjust="spacing" textLength="110" x="2009" y="413.6201">Lista de ex&#225;menes</text><polygon fill="#181818" points="1545.5,444.8281,1535.5,448.8281,1545.5,452.8281,1541.5,448.8281" style="stroke:#181818;stroke-width:1.0;"/><line style="stroke:#181818;stroke-width:1.0;stroke-dasharray:2.0,2.0;" x1="1539.5" x2="1991" y1="448.8281" y2="448.8281"/><text fill="#000000" font-family="sans-serif" font-size="13" lengthAdjust="spacing" textLength="189" x="1551.5" y="443.9717">ExamenExportData[] (inmutable)</text><polygon fill="#181818" points="1697.5,475.1797,1707.5,479.1797,1697.5,483.1797,1701.5,479.1797" style="stroke:#181818;stroke-width:1.0;"/><line style="stroke:#181818;stroke-width:1.0;" x1="1534.5" x2="1703.5" y1="479.1797" y2="479.1797"/><text fill="#000000" font-family="sans-serif" font-size="13" lengthAdjust="spacing" textLength="80" x="1541.5" y="474.3232">crear(formato)</text><polygon fill="#181818" points="1545.5,505.5313,1535.5,509.5313,1545.5,513.5313,1541.5,509.5313" style="stroke:#181818;stroke-width:1.0;"/><line style="stroke:#181818;stroke-width:1.0;stroke-dasharray:2.0,2.0;" x1="1539.5" x2="1708.5" y1="509.5313" y2="509.5313"/><text fill="#000000" font-family="sans-serif" font-size="13" lengthAdjust="spacing" textLength="151" x="1551.5" y="504.6748">ExamenExporter concreto</text><polygon fill="#181818" points="1848.5,535.8828,1858.5,539.8828,1848.5,543.8828,1852.5,539.8828" style="stroke:#181818;stroke-width:1.0;"/><line style="stroke:#181818;stroke-width:1.0;" x1="1534.5" x2="1854.5" y1="539.8828" y2="539.8828"/><text fill="#000000" font-family="sans-serif" font-size="13" lengthAdjust="spacing" textLength="147" x="1541.5" y="535.0264">exportar(datos, opciones)</text><polygon fill="#181818" points="1545.5,566.2344,1535.5,570.2344,1545.5,574.2344,1541.5,570.2344" style="stroke:#181818;stroke-width:1.0;"/><line style="stroke:#181818;stroke-width:1.0;stroke-dasharray:2.0,2.0;" x1="1539.5" x2="1859.5" y1="570.2344" y2="570.2344"/><text fill="#000000" font-family="sans-serif" font-size="13" lengthAdjust="spacing" textLength="83" x="1551.5" y="565.3779">Buffer (binario)</text><polygon fill="#181818" points="1324.5,596.5859,1314.5,600.5859,1324.5,604.5859,1320.5,600.5859" style="stroke:#181818;stroke-width:1.0;"/><line style="stroke:#181818;stroke-width:1.0;stroke-dasharray:2.0,2.0;" x1="1318.5" x2="1533.5" y1="600.5859" y2="600.5859"/><text fill="#000000" font-family="sans-serif" font-size="13" lengthAdjust="spacing" textLength="110" x="1330.5" y="595.7295">Buffer + metadatos</text><polygon fill="#181818" points="846.5,659.6406,836.5,663.6406,846.5,667.6406,842.5,663.6406" style="stroke:#181818;stroke-width:1.0;"/><line style="stroke:#181818;stroke-width:1.0;stroke-dasharray:2.0,2.0;" x1="840.5" x2="1312.5" y1="663.6406" y2="663.6406"/><text fill="#000000" font-family="sans-serif" font-size="13" lengthAdjust="spacing" textLength="44" x="852.5" y="626.0811">200 OK</text><text fill="#000000" font-family="sans-serif" font-size="13" lengthAdjust="spacing" textLength="186" x="852.5" y="642.4326">Content-Disposition: attachment</text><text fill="#000000" font-family="sans-serif" font-size="13" lengthAdjust="spacing" textLength="186" x="852.5" y="658.7842">(calendario.pdf | calendario.xlsx)</text><polygon fill="#181818" points="554.5,689.9922,544.5,693.9922,554.5,697.9922,550.5,693.9922" style="stroke:#181818;stroke-width:1.0;"/><line style="stroke:#181818;stroke-width:1.0;stroke-dasharray:2.0,2.0;" x1="548.5" x2="834.5" y1="693.9922" y2="693.9922"/><text fill="#000000" font-family="sans-serif" font-size="13" lengthAdjust="spacing" textLength="26" x="560.5" y="689.1357">Blob</text><line style="stroke:#181818;stroke-width:1.0;" x1="543.5" x2="585.5" y1="724.3438" y2="724.3438"/><line style="stroke:#181818;stroke-width:1.0;" x1="585.5" x2="585.5" y1="724.3438" y2="737.3438"/><line style="stroke:#181818;stroke-width:1.0;" x1="544.5" x2="585.5" y1="737.3438" y2="737.3438"/><polygon fill="#181818" points="554.5,733.3438,544.5,737.3438,554.5,741.3438,550.5,737.3438" style="stroke:#181818;stroke-width:1.0;"/><text fill="#000000" font-family="sans-serif" font-size="13" lengthAdjust="spacing" textLength="180" x="550.5" y="719.4873">crear URL + &lt;a&gt; virtual &#8594; click</text><polygon fill="#181818" points="62.5,763.6953,52.5,767.6953,62.5,771.6953,58.5,767.6953" style="stroke:#181818;stroke-width:1.0;"/><line style="stroke:#181818;stroke-width:1.0;stroke-dasharray:2.0,2.0;" x1="56.5" x2="542.5" y1="767.6953" y2="767.6953"/><text fill="#000000" font-family="sans-serif" font-size="13" lengthAdjust="spacing" textLength="113" x="68.5" y="762.8389">Archivo descargado</text><polygon fill="#181818" points="274.5,794.0469,264.5,798.0469,274.5,802.0469,270.5,798.0469" style="stroke:#181818;stroke-width:1.0;"/><line style="stroke:#181818;stroke-width:1.0;stroke-dasharray:2.0,2.0;" x1="268.5" x2="542.5" y1="798.0469" y2="798.0469"/><text fill="#000000" font-family="sans-serif" font-size="13" lengthAdjust="spacing" textLength="256" x="280.5" y="793.1904">cerrar &#8594; regresa a CALENDARIO_ABIERTO</text><!--SRC=[XLLBRjim4Dth58Ci0XjDtBIBBep0XMJBGHexJksacwOeQ6da4A58WwHY1qstFK1lqBFq9Zr9Hr_JSJuxYdplSJvlA7FBvP9fbeAvOR5QSRc0X0c3dcbED9gbaWR7Q0nRO812hNojrGgipj3pM6IL1ZzEkUJ6QfBH7Z4jZ_YIIGjxVM9dmZBTPm9bp3HNNpYkhcLhYaHkxm4pS7KAnyTzbT9LA6sljoqnG1CnlN0bnYfcObkZs7f91jSiHObcXlgEHqXiVysLATd3QfS4gjLZUbZHAI6hbH2eIU4SZVqqAoKs1qKKzSUkpb9fooAkv2OILwS4l1P8YK8zB3fmNoPHhebQhLwcqhtXEa813t0n69QNpwY75XUvHhryhX1FHn-yMiWBpKtAgiE2K-uGOp8T4pfcbisPGO8gOnSQPvz7yEv30Hq4dhVbDZZivVRfGhphaZhILjiZ205BZtI1pJNNq4gKJfbLy0RKCky7clQkUCr1mHS8DQMrZ9C7pAlNXdk8bCXIoOnNWedL-Ed9m5e95sGFSr3h7JWHD5IISJpLXPFm4jxMBgP5uIFziPBOvp8I6TT-9bYzlj0gGQDq_NsIPxNVwNGypr6cUohFKPQLweiHLcZY1Piq4oxZtGpRNk2aKpKwloRFefDpnapUjtv04M6CNLXMCNSoa-LA1y0e8_ZPzYeswGm2qfY5ex1_IL9__nGLoPaBUhCeHKCj7PuPZt27xhLXZMsqjdCOKUCPDMmZweJlbiaTf07PzUitQ76PPcHSWMtFgL0zars8DEPrBSj9RQuEdjMbpaHA4iigHwyPKATND31vfpODQa1Rua6M92JQcdEP5zO9yx7JAkGRID6oGdtBBzl-Vdzq19EpQvaZwDaz773wPHXkAHQQD4jFtGtbPEcTY1fxT6XywDbnDjR2h5tlEvCN23NVJ5QzMvGJhgOZ2lEOzU2EQvlHoRzVlo4IFBgjASJP7kek-3gwuNUg6SrOEU3YDObGQvBFnJJI4sGOCEZxe_1yu4zF9z_zu3ISNawy_m00]--></g></svg>