<?xml version="1.0" encoding="us-ascii" standalone="no"?><svg xmlns="http://www.w3.org/2000/svg" xmlns:xlink="http://www.w3.org/1999/xlink" contentStyleType="text/css" height="335px" preserveAspectRatio="none" style="width:1603px;height:335px;background:#FFFFFF;" version="1.1" viewBox="0 0 1603 335" width="1603px" zoomAndPan="magnify"><defs/><g><!--cluster abrirAlumnos--><g id="cluster_abrirAlumnos"><path d="M169.5,6 L273.5,6 A3.75,3.75 0 0 1 276,8.5 L283,29.6094 L651.5,29.6094 A2.5,2.5 0 0 1 654,32.1094 L654,325.5 A2.5,2.5 0 0 1 651.5,328 L169.5,328 A2.5,2.5 0 0 1 167,325.5 L167,8.5 A2.5,2.5 0 0 1 169.5,6 " fill="none" style="stroke:#000000;stroke-width:1.5;"/><line style="stroke:#000000;stroke-width:1.5;" x1="167" x2="283" y1="29.6094" y2="29.6094"/><text fill="#000000" font-family="sans-serif" font-size="14" font-weight="bold" lengthAdjust="spacing" textLength="103" x="171" y="22.5332">abrirAlumnos()</text></g><!--entity AbrirAlumnosView--><g id="elem_AbrirAlumnosView"><rect fill="#629EF9" height="37.6094" rx="2.5" ry="2.5" style="stroke:#181818;stroke-width:0.5;" width="133" x="457.5" y="42"/><text fill="#000000" font-family="sans-serif" font-size="14" lengthAdjust="spacing" textLength="113" x="467.5" y="66.5332">AbrirAlumnosView</text></g><!--entity AlumnosController--><g id="elem_AlumnosController"><rect fill="#B5BD68" height="37.6094" rx="2.5" ry="2.5" style="stroke:#181818;stroke-width:0.5;" width="136" x="183" y="158"/><text fill="#000000" font-family="sans-serif" font-size="14" lengthAdjust="spacing" textLength="116" x="193" y="182.5332">AlumnosController</text></g><!--entity AlumnoRepository--><g id="elem_AlumnoRepository"><rect fill="#F2AC4E" height="37.6094" rx="2.5" ry="2.5" style="stroke:#181818;stroke-width:0.5;" width="135" x="502.5" y="158"/><text fill="#000000" font-family="sans-serif" font-size="14" lengthAdjust="spacing" textLength="115" x="512.5" y="182.5332">AlumnoRepository</text></g><!--entity Alumno--><g id="elem_Alumno"><rect fill="#F2AC4E" height="37.6094" rx="2.5" ry="2.5" style="stroke:#181818;stroke-width:0.5;" width="67" x="536.5" y="274"/><text fill="#000000" font-family="sans-serif" font-size="14" lengthAdjust="spacing" textLength="47" x="546.5" y="298.5332">Alumno</text></g><!--entity SistemaDisponible--><g id="elem_SistemaDisponible"><rect fill="#CDEBA5" height="37.6094" rx="2.5" ry="2.5" style="stroke:#181818;stroke-width:0.5;" width="144" x="7" y="42"/><text fill="#000000" font-family="sans-serif" font-size="14" lengthAdjust="spacing" textLength="124" x="17" y="66.5332">:Sistema Disponible</text></g><!--entity CrearAlumno--><g id="elem_CrearAlumno"><rect fill="#CDEBA5" height="37.6094" rx="2.5" ry="2.5" style="stroke:#181818;stroke-width:0.5;" width="195" x="672.5" y="158"/><text fill="#000000" font-family="sans-serif" font-size="14" lengthAdjust="spacing" textLength="175" x="682.5" y="182.5332">:Collaboration CrearAlumno</text></g><!--entity EditarAlumno--><g id="elem_EditarAlumno"><rect fill="#CDEBA5" height="37.6094" rx="2.5" ry="2.5" style="stroke:#181818;stroke-width:0.5;" width="196" x="903" y="158"/><text fill="#000000" font-family="sans-serif" font-size="14" lengthAdjust="spacing" textLength="176" x="913" y="182.5332">:Collaboration EditarAlumno</text></g><!--entity EliminarAlumno--><g id="elem_EliminarAlumno"><rect fill="#CDEBA5" height="37.6094" rx="2.5" ry="2.5" style="stroke:#181818;stroke-width:0.5;" width="209" x="1134.5" y="158"/><text fill="#000000" font-family="sans-serif" font-size="14" lengthAdjust="spacing" textLength="189" x="1144.5" y="182.5332">:Collaboration EliminarAlumno</text></g><!--entity ImportarAlumnos--><g id="elem_ImportarAlumnos"><rect fill="#CDEBA5" height="37.6094" rx="2.5" ry="2.5" style="stroke:#181818;stroke-width:0.5;" width="218" x="1379" y="158"/><text fill="#000000" font-family="sans-serif" font-size="14" lengthAdjust="spacing" textLength="198" x="1389" y="182.5332">:Collaboration ImportarAlumnos</text></g><!--link SistemaDisponible to AbrirAlumnosView--><g id="link_SistemaDisponible_AbrirAlumnosView"><path d="M151.03,69.3 C201.97,75.17 261.25,82 261.25,82 C261.25,82 347.25,82 347.25,82 C347.25,82 401.3719,75.5676 451.4719,69.6176 " fill="none" id="SistemaDisponible-to-AbrirAlumnosView" style="stroke:#181818;stroke-width:1.0;"/><polygon fill="#181818" points="457.43,68.91,448.0211,65.9993,452.4649,69.4997,448.9645,73.9435,457.43,68.91" style="stroke:#181818;stroke-width:1.0;"/><text fill="#000000" font-family="sans-serif" font-size="13" lengthAdjust="spacing" textLength="84" x="262.25" y="78.4951">abrirAlumnos()</text></g><!--link AbrirAlumnosView to SistemaDisponible--><g id="link_AbrirAlumnosView_SistemaDisponible"><path d="M457.36,61 C375.24,61 242.21,61 157.49,61 " fill="none" id="AbrirAlumnosView-to-SistemaDisponible" style="stroke:#181818;stroke-width:1.0;"/><polygon fill="#181818" points="151.49,61,160.49,65,156.49,61,160.49,57,151.49,61" style="stroke:#181818;stroke-width:1.0;"/><text fill="#000000" font-family="sans-serif" font-size="13" lengthAdjust="spacing" textLength="110" x="249.25" y="54.4951">completarGestion()</text></g><!--link AbrirAlumnosView to AlumnosController--><g id="link_AbrirAlumnosView_AlumnosController"><path d="M457.35,79.87 C406.45,93.52 345,110 345,110 C345,110 309.4297,134.9711 281.5997,154.5211 " fill="none" id="AbrirAlumnosView-to-AlumnosController" style="stroke:#181818;stroke-width:1.0;"/><polygon fill="#181818" points="276.69,157.97,286.3538,156.0697,280.7814,155.0959,281.7552,149.5235,276.69,157.97" style="stroke:#181818;stroke-width:1.0;"/><text fill="#000000" font-family="sans-serif" font-size="13" lengthAdjust="spacing" textLength="87" x="346" y="124.4951">listarAlumnos()</text></g><!--link AbrirAlumnosView to AlumnosController--><g id="link_AbrirAlumnosView_AlumnosController"><path d="M500.5,80.03 C475.04,99.58 438,128 438,128 C438,128 378.3215,143.3177 324.8515,157.0477 " fill="none" id="AbrirAlumnosView-to-AlumnosController-1" style="stroke:#181818;stroke-width:1.0;"/><polygon fill="#181818" points="319.04,158.54,328.752,160.1759,323.8829,157.2964,326.7624,152.4273,319.04,158.54" style="stroke:#181818;stroke-width:1.0;"/><text fill="#000000" font-family="sans-serif" font-size="13" lengthAdjust="spacing" textLength="126" x="462" y="124.4951">filtrarAlumnos(criterio)</text></g><!--link AlumnosController to AlumnoRepository--><g id="link_AlumnosController_AlumnoRepository"><path d="M319,189.34 C344.2,193.91 366.75,198 366.75,198 C366.75,198 454.75,198 454.75,198 C454.75,198 471.3072,194.9856 496.3872,190.4156 " fill="none" id="AlumnosController-to-AlumnoRepository" style="stroke:#181818;stroke-width:1.0;"/><polygon fill="#181818" points="502.29,189.34,492.7187,187.0182,497.371,190.2363,494.1529,194.8886,502.29,189.34" style="stroke:#181818;stroke-width:1.0;"/><text fill="#000000" font-family="sans-serif" font-size="13" lengthAdjust="spacing" textLength="86" x="367.75" y="194.4951">obtenerTodos()</text></g><!--link AlumnosController to AlumnoRepository--><g id="link_AlumnosController_AlumnoRepository"><path d="M319.04,177 C373.11,177 442.36,177 496.34,177 " fill="none" id="AlumnosController-to-AlumnoRepository-1" style="stroke:#181818;stroke-width:1.0;"/><polygon fill="#181818" points="502.34,177,493.34,173,497.34,177,493.34,181,502.34,177" style="stroke:#181818;stroke-width:1.0;"/><text fill="#000000" font-family="sans-serif" font-size="13" lengthAdjust="spacing" textLength="147" x="337.25" y="170.4951">buscarPorCriterio(criterio)</text></g><!--link AlumnoRepository to Alumno--><g id="link_AlumnoRepository_Alumno"><path d="M570,196.06 C570,217.28 570,246.3 570,267.64 " fill="none" id="AlumnoRepository-to-Alumno" style="stroke:#181818;stroke-width:1.0;"/><polygon fill="#181818" points="570,273.64,574,264.64,570,268.64,566,264.64,570,273.64" style="stroke:#181818;stroke-width:1.0;"/><text fill="#000000" font-family="sans-serif" font-size="13" lengthAdjust="spacing" textLength="56" x="571" y="240.4951">&#171;accede&#187;</text></g><!--link AbrirAlumnosView to CrearAlumno--><g id="link_AbrirAlumnosView_CrearAlumno"><path d="M562.98,80.06 C608.91,101.35 679.3261,133.9773 725.3561,155.3073 " fill="none" id="AbrirAlumnosView-to-CrearAlumno" style="stroke:#181818;stroke-width:1.0;stroke-dasharray:7.0,7.0;"/><polygon fill="#181818" points="730.8,157.83,724.3159,150.4167,726.2634,155.7278,720.9524,157.6753,730.8,157.83" style="stroke:#181818;stroke-width:1.0;"/><text fill="#000000" font-family="sans-serif" font-size="13" lengthAdjust="spacing" textLength="81" x="662" y="124.4951">crearAlumno()</text></g><!--link AbrirAlumnosView to EditarAlumno--><g id="link_AbrirAlumnosView_EditarAlumno"><path d="M590.56,76.01 C657.86,90.18 752,110 752,110 C752,110 853.4405,136.882 927.1605,156.432 " fill="none" id="AbrirAlumnosView-to-EditarAlumno" style="stroke:#181818;stroke-width:1.0;stroke-dasharray:7.0,7.0;"/><polygon fill="#181818" points="932.96,157.97,925.286,151.7967,928.1271,156.6883,923.2354,159.5294,932.96,157.97" style="stroke:#181818;stroke-width:1.0;"/><text fill="#000000" font-family="sans-serif" font-size="13" lengthAdjust="spacing" textLength="128" x="819" y="124.4951">editarAlumno(Alumno)</text></g><!--link AbrirAlumnosView to EliminarAlumno--><g id="link_AbrirAlumnosView_EliminarAlumno"><path d="M590.55,69.39 C711.73,82.86 956,110 956,110 C956,110 1072.0369,137.0567 1155.8269,156.6067 " fill="none" id="AbrirAlumnosView-to-EliminarAlumno" style="stroke:#181818;stroke-width:1.0;stroke-dasharray:7.0,7.0;"/><polygon fill="#181818" points="1161.67,157.97,1153.8143,152.0297,1156.8008,156.8339,1151.9965,159.8204,1161.67,157.97" style="stroke:#181818;stroke-width:1.0;"/><text fill="#000000" font-family="sans-serif" font-size="13" lengthAdjust="spacing" textLength="141" x="1032" y="124.4951">eliminarAlumno(Alumno)</text></g><!--link AbrirAlumnosView to ImportarAlumnos--><g id="link_AbrirAlumnosView_ImportarAlumnos"><path d="M590.71,66.87 C758,79.07 1182,110 1182,110 C1182,110 1307.915,137.1544 1398.515,156.7044 " fill="none" id="AbrirAlumnosView-to-ImportarAlumnos" style="stroke:#181818;stroke-width:1.0;stroke-dasharray:7.0,7.0;"/><polygon fill="#181818" points="1404.38,157.97,1396.4262,152.1616,1399.4925,156.9154,1394.7388,159.9816,1404.38,157.97" style="stroke:#181818;stroke-width:1.0;"/><text fill="#000000" font-family="sans-serif" font-size="13" lengthAdjust="spacing" textLength="106" x="1265" y="124.4951">importarAlumnos()</text></g><!--SRC=[ZL9DIyD04BtlhnZYfHxQGx55Gmd4D1Llek9zaunbwMPtcTqYHVpl9cqmcmzBSWdpU6_UxCop1w4C9rw250hToI0OBKzrmHXXxhZQIuIRP9i-nYi8mZTX7POSji8QhKGcCG1keO5Rb1cU7_WUWMSaA9R7KcbRCmCVcDq6yCsW-ZolzV8XtJr0xF4-17xrQTagAzRtq30IhHnfAP7wlDqoJkxIXlUAHblXD9skqjZF-EkJoe5dchWJMa52o9i9pqlmwWdgj12k8_U1ANefIg6w7JhGX1xFfT7qPshFJNeOOuFRmfpcqU0-44Btj8mDAFEY5lOl5bRXiwrZfPmi_1JIKQlCIJWaeMllFhcPkXU347JcK26zw-9YFLMN7MtEwKLJqfWEtLkw_u0GDXkUvrXW58tjgBORx3o4N9T6OhMc9xJryKONl5X4VWmhLLkCxRNc-xaB0RrgTldzf-kahL9swklQNiX245sWclKN]--></g></svg>