<?xml version="1.0" encoding="us-ascii" standalone="no"?><svg xmlns="http://www.w3.org/2000/svg" xmlns:xlink="http://www.w3.org/1999/xlink" contentStyleType="text/css" height="735px" preserveAspectRatio="none" style="width:867px;height:735px;background:#FFFFFF;" version="1.1" viewBox="0 0 867 735" width="867px" zoomAndPan="magnify"><defs/><g><!--cluster consultarCalendario--><g id="cluster_consultarCalendario"><path d="M174.5,109 L327.5,109 A3.75,3.75 0 0 1 330,111.5 L337,132.6094 L593.5,132.6094 A2.5,2.5 0 0 1 596,135.1094 L596,725.5 A2.5,2.5 0 0 1 593.5,728 L174.5,728 A2.5,2.5 0 0 1 172,725.5 L172,111.5 A2.5,2.5 0 0 1 174.5,109 " fill="none" style="stroke:#000000;stroke-width:1.5;"/><line style="stroke:#000000;stroke-width:1.5;" x1="172" x2="337" y1="132.6094" y2="132.6094"/><text fill="#000000" font-family="sans-serif" font-size="14" font-weight="bold" lengthAdjust="spacing" textLength="152" x="176" y="125.5332">consultarCalendario()</text></g><!--entity ConsultarCalendarioView--><g id="elem_ConsultarCalendarioView"><rect fill="#629EF9" height="37.6094" rx="2.5" ry="2.5" style="stroke:#181818;stroke-width:0.5;" width="179" x="309.5" y="145"/><text fill="#000000" font-family="sans-serif" font-size="14" lengthAdjust="spacing" textLength="159" x="319.5" y="169.5332">ConsultarCalendarioView</text></g><!--entity CalendarioController--><g id="elem_CalendarioController"><rect fill="#B5BD68" height="37.6094" rx="2.5" ry="2.5" style="stroke:#181818;stroke-width:0.5;" width="151" x="428.5" y="261"/><text fill="#000000" font-family="sans-serif" font-size="14" lengthAdjust="spacing" textLength="131" x="438.5" y="285.5332">CalendarioController</text></g><!--entity ExamenRepository--><g id="elem_ExamenRepository"><rect fill="#F2AC4E" height="37.6094" rx="2.5" ry="2.5" style="stroke:#181818;stroke-width:0.5;" width="138" x="313" y="377"/><text fill="#000000" font-family="sans-serif" font-size="14" lengthAdjust="spacing" textLength="118" x="323" y="401.5332">ExamenRepository</text></g><!--entity Calendario--><g id="elem_Calendario"><rect fill="#F2AC4E" height="37.6094" rx="2.5" ry="2.5" style="stroke:#181818;stroke-width:0.5;" width="89" x="188.5" y="377"/><text fill="#000000" font-family="sans-serif" font-size="14" lengthAdjust="spacing" textLength="69" x="198.5" y="401.5332">Calendario</text></g><!--entity Examen--><g id="elem_Examen"><rect fill="#F2AC4E" height="37.6094" rx="2.5" ry="2.5" style="stroke:#181818;stroke-width:0.5;" width="70" x="272" y="476"/><text fill="#000000" font-family="sans-serif" font-size="14" lengthAdjust="spacing" textLength="50" x="282" y="500.5332">Examen</text></g><!--entity Asignatura--><g id="elem_Asignatura"><rect fill="#F2AC4E" height="37.6094" rx="2.5" ry="2.5" style="stroke:#181818;stroke-width:0.5;" width="88" x="263" y="575"/><text fill="#000000" font-family="sans-serif" font-size="14" lengthAdjust="spacing" textLength="68" x="273" y="599.5332">Asignatura</text></g><!--entity Grado--><g id="elem_Grado"><rect fill="#F2AC4E" height="37.6094" rx="2.5" ry="2.5" style="stroke:#181818;stroke-width:0.5;" width="60" x="277" y="674"/><text fill="#000000" font-family="sans-serif" font-size="14" lengthAdjust="spacing" textLength="40" x="287" y="698.5332">Grado</text></g><!--entity Session--><g id="elem_Session"><rect fill="#F2AC4E" height="37.6094" rx="2.5" ry="2.5" style="stroke:#181818;stroke-width:0.5;" width="74" x="188" y="261"/><text fill="#000000" font-family="sans-serif" font-size="14" lengthAdjust="spacing" textLength="54" x="198" y="285.5332">:Session</text></g><!--entity SistemaDisponible--><g id="elem_SistemaDisponible"><rect fill="#CDEBA5" height="37.6094" rx="2.5" ry="2.5" style="stroke:#181818;stroke-width:0.5;" width="144" x="7" y="145"/><text fill="#000000" font-family="sans-serif" font-size="14" lengthAdjust="spacing" textLength="124" x="17" y="169.5332">:Sistema Disponible</text></g><!--entity CalendarioAbierto--><g id="elem_CalendarioAbierto"><rect fill="#CDEBA5" height="37.6094" rx="2.5" ry="2.5" style="stroke:#181818;stroke-width:0.5;" width="142" x="328" y="7"/><text fill="#000000" font-family="sans-serif" font-size="14" lengthAdjust="spacing" textLength="122" x="338" y="31.5332">:Calendario Abierto</text></g><!--entity DescargarCalendario--><g id="elem_DescargarCalendario"><rect fill="#CDEBA5" height="37.6094" rx="2.5" ry="2.5" style="stroke:#181818;stroke-width:0.5;" width="247" x="614.5" y="261"/><text fill="#000000" font-family="sans-serif" font-size="14" lengthAdjust="spacing" textLength="227" x="624.5" y="285.5332">:Collaboration DescargarCalendario</text></g><!--link SistemaDisponible to ConsultarCalendarioView--><g id="link_SistemaDisponible_ConsultarCalendarioView"><path d="M151.04,180.95 C161.19,183.34 168.25,185 168.25,185 C168.25,185 292.25,185 292.25,185 C292.25,185 293.2428,184.808 303.5128,182.788 " fill="none" id="SistemaDisponible-to-ConsultarCalendarioView" style="stroke:#181818;stroke-width:1.0;"/><polygon fill="#181818" points="309.4,181.63,299.7972,179.4421,304.494,182.595,301.3412,187.2917,309.4,181.63" style="stroke:#181818;stroke-width:1.0;"/><text fill="#000000" font-family="sans-serif" font-size="13" lengthAdjust="spacing" textLength="122" x="169.25" y="181.4951">consultarCalendario()</text></g><!--link ConsultarCalendarioView to SistemaDisponible--><g id="link_ConsultarCalendarioView_SistemaDisponible"><path d="M309.32,164 C259.38,164 204.03,164 157.21,164 " fill="none" id="ConsultarCalendarioView-to-SistemaDisponible" style="stroke:#181818;stroke-width:1.0;stroke-dasharray:7.0,7.0;"/><polygon fill="#181818" points="151.21,164,160.21,168,156.21,164,160.21,160,151.21,164" style="stroke:#181818;stroke-width:1.0;"/><text fill="#000000" font-family="sans-serif" font-size="13" lengthAdjust="spacing" textLength="178" x="141.25" y="157.4951">&#171;finalizar&#187; completarConsulta()</text></g><!--link ConsultarCalendarioView to CalendarioController--><g id="link_ConsultarCalendarioView_CalendarioController"><path d="M415.64,183.06 C435.18,204.28 463.3646,234.8872 483.0246,256.2272 " fill="none" id="ConsultarCalendarioView-to-CalendarioController" style="stroke:#181818;stroke-width:1.0;"/><polygon fill="#181818" points="487.09,260.64,483.9338,251.3106,483.7022,256.9627,478.0501,256.7311,487.09,260.64" style="stroke:#181818;stroke-width:1.0;"/><text fill="#000000" font-family="sans-serif" font-size="13" lengthAdjust="spacing" textLength="185" x="458" y="227.4951">solicitarCalendario(rango, filtros)</text></g><!--reverse link Session to CalendarioController--><g id="link_Session_CalendarioController"><path d="M268.05,280 C310.29,280 374.48,280 428.41,280 " fill="none" id="Session-backto-CalendarioController" style="stroke:#181818;stroke-width:1.0;"/><polygon fill="#181818" points="262.05,280,271.05,284,267.05,280,271.05,276,262.05,280" style="stroke:#181818;stroke-width:1.0;"/><text fill="#000000" font-family="sans-serif" font-size="13" lengthAdjust="spacing" textLength="130" x="280.25" y="273.4951">obtenerUsuarioActivo()</text></g><!--link CalendarioController to ExamenRepository--><g id="link_CalendarioController_ExamenRepository"><path d="M484.67,299.06 C461.96,320.28 428.8751,351.2047 406.0251,372.5447 " fill="none" id="CalendarioController-to-ExamenRepository" style="stroke:#181818;stroke-width:1.0;"/><polygon fill="#181818" points="401.64,376.64,410.9478,373.4205,405.2942,373.2273,405.4874,367.5737,401.64,376.64" style="stroke:#181818;stroke-width:1.0;"/><text fill="#000000" font-family="sans-serif" font-size="13" lengthAdjust="spacing" textLength="230" x="451" y="343.4951">buscarExamenes(rango, filtros, usuario)</text></g><!--link ExamenRepository to Examen--><g id="link_ExamenRepository_Examen"><path d="M367.89,415.24 C354.48,432.59 338.0998,453.7731 324.7098,471.0931 " fill="none" id="ExamenRepository-to-Examen" style="stroke:#181818;stroke-width:1.0;"/><polygon fill="#181818" points="321.04,475.84,329.7092,471.1662,324.0981,471.8843,323.3801,466.2732,321.04,475.84" style="stroke:#181818;stroke-width:1.0;"/></g><!--link Examen to Asignatura--><g id="link_Examen_Asignatura"><path d="M307,514.24 C307,531.59 307,551.52 307,568.84 " fill="none" id="Examen-to-Asignatura" style="stroke:#181818;stroke-width:1.0;"/><polygon fill="#181818" points="307,574.84,311,565.84,307,569.84,303,565.84,307,574.84" style="stroke:#181818;stroke-width:1.0;"/></g><!--link Asignatura to Grado--><g id="link_Asignatura_Grado"><path d="M307,613.24 C307,630.59 307,650.52 307,667.84 " fill="none" id="Asignatura-to-Grado" style="stroke:#181818;stroke-width:1.0;"/><polygon fill="#181818" points="307,673.84,311,664.84,307,668.84,303,664.84,307,673.84" style="stroke:#181818;stroke-width:1.0;"/></g><!--link Calendario to Examen--><g id="link_Calendario_Examen"><path d="M246.92,415.24 C260.15,432.59 276.2913,453.7492 289.5013,471.0692 " fill="none" id="Calendario-to-Examen" style="stroke:#181818;stroke-width:1.0;"/><polygon fill="#181818" points="293.14,475.84,290.8625,466.2581,290.1078,471.8644,284.5015,471.1096,293.14,475.84" style="stroke:#181818;stroke-width:1.0;"/></g><!--link ConsultarCalendarioView to CalendarioAbierto--><g id="link_ConsultarCalendarioView_CalendarioAbierto"><path d="M367.32,144.97 C330.88,124.23 276,93 276,93 C276,93 276,75 276,75 C276,75 312.3606,60.8113 347.2606,47.1913 " fill="none" id="ConsultarCalendarioView-to-CalendarioAbierto" style="stroke:#181818;stroke-width:1.0;"/><polygon fill="#181818" points="352.85,45.01,343.0116,44.5557,348.1921,46.8278,345.9201,52.0083,352.85,45.01" style="stroke:#181818;stroke-width:1.0;"/><text fill="#000000" font-family="sans-serif" font-size="13" lengthAdjust="spacing" textLength="198" x="277" y="89.4951">mostrarCalendario(List&lt;Examen&gt;)</text></g><!--link CalendarioAbierto to ConsultarCalendarioView--><g id="link_CalendarioAbierto_ConsultarCalendarioView"><path d="M429.62,45.15 C452.56,58.74 480,75 480,75 C480,75 480,93 480,93 C480,93 448.3997,120.3069 424.3997,141.0469 " fill="none" id="CalendarioAbierto-to-ConsultarCalendarioView" style="stroke:#181818;stroke-width:1.0;"/><polygon fill="#181818" points="419.86,144.97,429.285,142.1119,423.6431,141.7008,424.0542,136.0589,419.86,144.97" style="stroke:#181818;stroke-width:1.0;"/><text fill="#000000" font-family="sans-serif" font-size="13" lengthAdjust="spacing" textLength="188" x="481" y="89.4951">descargarCalendarioExamenes()</text></g><!--link ConsultarCalendarioView to DescargarCalendario--><g id="link_ConsultarCalendarioView_DescargarCalendario"><path d="M488.55,181.99 C561.33,195.8 652,213 652,213 C652,213 684.2811,237.7658 709.7411,257.3158 " fill="none" id="ConsultarCalendarioView-to-DescargarCalendario" style="stroke:#181818;stroke-width:1.0;stroke-dasharray:7.0,7.0;"/><polygon fill="#181818" points="714.5,260.97,709.7978,252.3161,710.5343,257.9248,704.9256,258.6613,714.5,260.97" style="stroke:#181818;stroke-width:1.0;"/><text fill="#000000" font-family="sans-serif" font-size="13" lengthAdjust="spacing" textLength="71" x="676" y="227.4951">&#171;descargar&#187;</text></g><!--SRC=[VP91Rzim38Nl-XL4Ubc1EeTYBTOWC90bwIuxRTZkjCq6GcJ9aEIrsR3_FihsOYUMwfDDyNsY7vyxIjsWnHgKrEHF3K5Zr2by266fzAWFYk1ckzj_tZp0OlLTEayrmawwncXPA5e0EXZAOrM81iiZ7WXAershFDejAj8LMcc2OX6fVxXTm1yXW9_9tO_tJ_ld9zZE-tzAUhtkBXwAwl4JZ4siyzOeHVQwzVb-i_suX_qRrgI_KMESzCQUHA9lHBuBIXnkd3nezAt5HCCNYvL9tSt6atFIwDxj_btyZUzeOlIca6IzwLHZUQZ6nMmL5iQYvnjWHwv4UvYQth4YTI5c8O3CPdbgSR22Q0I4I0coAj0YYsMKCqgMyX9b-T_C7Rn8nNqkW6FQJ35rS9H1fl2aoVvmRUTKwUMlVgYeDanqdH-656smfpyWTpN87RGzdAapRNO63cTTPHAUyRKxwLCpsVW4a3RINXWvn87dhetpziB3hxpJTS_BBrpuB-gNabnnDG_AsPRRv83BPHwB6FFMwpCnpyMxW7aSW_n5QbJoTv1p_kf6KL0F61xf7m00]--></g></svg>