<?xml version="1.0" encoding="us-ascii" standalone="no"?><svg xmlns="http://www.w3.org/2000/svg" xmlns:xlink="http://www.w3.org/1999/xlink" contentStyleType="text/css" height="1065px" preserveAspectRatio="none" style="width:1277px;height:1065px;background:#FFFFFF;" version="1.1" viewBox="0 0 1277 1065" width="1277px" zoomAndPan="magnify"><defs/><g><rect fill="none" height="368.0547" style="stroke:#000000;stroke-width:1.5;" width="1250.5" x="10" y="598.2344"/><line style="stroke:#181818;stroke-width:0.5;stroke-dasharray:5.0,5.0;" x1="66" x2="66" y1="82.6094" y2="983.2891"/><line style="stroke:#181818;stroke-width:0.5;stroke-dasharray:5.0,5.0;" x1="264" x2="264" y1="82.6094" y2="983.2891"/><line style="stroke:#181818;stroke-width:0.5;stroke-dasharray:5.0,5.0;" x1="438" x2="438" y1="82.6094" y2="983.2891"/><line style="stroke:#181818;stroke-width:0.5;stroke-dasharray:5.0,5.0;" x1="592.5" x2="592.5" y1="82.6094" y2="983.2891"/><line style="stroke:#181818;stroke-width:0.5;stroke-dasharray:5.0,5.0;" x1="752" x2="752" y1="82.6094" y2="983.2891"/><line style="stroke:#181818;stroke-width:0.5;stroke-dasharray:5.0,5.0;" x1="900" x2="900" y1="82.6094" y2="983.2891"/><line style="stroke:#181818;stroke-width:0.5;stroke-dasharray:5.0,5.0;" x1="1208.5" x2="1208.5" y1="82.6094" y2="983.2891"/><text fill="#000000" font-family="sans-serif" font-size="14" lengthAdjust="spacing" textLength="87" x="20" y="79.5332">Administrador</text><ellipse cx="66.5" cy="13.5" fill="#E2E2F0" rx="8" ry="8" style="stroke:#181818;stroke-width:0.5;"/><path d="M66.5,21.5 L66.5,48.5 M53.5,29.5 L79.5,29.5 M66.5,48.5 L53.5,63.5 M66.5,48.5 L79.5,63.5 " fill="none" style="stroke:#181818;stroke-width:0.5;"/><text fill="#000000" font-family="sans-serif" font-size="14" lengthAdjust="spacing" textLength="87" x="20" y="996.8223">Administrador</text><ellipse cx="66.5" cy="1008.3984" fill="#E2E2F0" rx="8" ry="8" style="stroke:#181818;stroke-width:0.5;"/><path d="M66.5,1016.3984 L66.5,1043.3984 M53.5,1024.3984 L79.5,1024.3984 M66.5,1043.3984 L53.5,1058.3984 M66.5,1043.3984 L79.5,1058.3984 " fill="none" style="stroke:#181818;stroke-width:0.5;"/><rect fill="#E2E2F0" height="66.8281" rx="2.5" ry="2.5" style="stroke:#181818;stroke-width:0.5;" width="147" x="191" y="14.7813"/><text fill="#000000" font-family="sans-serif" font-size="14" font-style="italic" lengthAdjust="spacing" textLength="89" x="220" y="36.3145">&#171;Component&#187;</text><text fill="#000000" font-family="sans-serif" font-size="14" lengthAdjust="spacing" textLength="133" x="198" y="53.9238">EliminarProfesorView</text><text fill="#000000" font-family="sans-serif" font-size="14" lengthAdjust="spacing" textLength="47" x="241" y="71.5332">(React)</text><rect fill="#E2E2F0" height="66.8281" rx="2.5" ry="2.5" style="stroke:#181818;stroke-width:0.5;" width="147" x="191" y="982.2891"/><text fill="#000000" font-family="sans-serif" font-size="14" font-style="italic" lengthAdjust="spacing" textLength="89" x="220" y="1003.8223">&#171;Component&#187;</text><text fill="#000000" font-family="sans-serif" font-size="14" lengthAdjust="spacing" textLength="133" x="198" y="1021.4316">EliminarProfesorView</text><text fill="#000000" font-family="sans-serif" font-size="14" lengthAdjust="spacing" textLength="47" x="241" y="1039.041">(React)</text><rect fill="#E2E2F0" height="66.8281" rx="2.5" ry="2.5" style="stroke:#181818;stroke-width:0.5;" width="147" x="365" y="14.7813"/><text fill="#000000" font-family="sans-serif" font-size="14" font-style="italic" lengthAdjust="spacing" textLength="50" x="413.5" y="36.3145">&#171;Hook&#187;</text><text fill="#000000" font-family="sans-serif" font-size="14" lengthAdjust="spacing" textLength="133" x="372" y="53.9238">useProfesoresDelete</text><text fill="#000000" font-family="sans-serif" font-size="14" lengthAdjust="spacing" textLength="42" x="417.5" y="71.5332">(Hook)</text><rect fill="#E2E2F0" height="66.8281" rx="2.5" ry="2.5" style="stroke:#181818;stroke-width:0.5;" width="147" x="365" y="982.2891"/><text fill="#000000" font-family="sans-serif" font-size="14" font-style="italic" lengthAdjust="spacing" textLength="50" x="413.5" y="1003.8223">&#171;Hook&#187;</text><text fill="#000000" font-family="sans-serif" font-size="14" lengthAdjust="spacing" textLength="133" x="372" y="1021.4316">useProfesoresDelete</text><text fill="#000000" font-family="sans-serif" font-size="14" lengthAdjust="spacing" textLength="42" x="417.5" y="1039.041">(Hook)</text><rect fill="#E2E2F0" height="66.8281" rx="2.5" ry="2.5" style="stroke:#181818;stroke-width:0.5;" width="130" x="527.5" y="14.7813"/><text fill="#000000" font-family="sans-serif" font-size="14" font-style="italic" lengthAdjust="spacing" textLength="62" x="561.5" y="36.3145">&#171;Service&#187;</text><text fill="#000000" font-family="sans-serif" font-size="14" lengthAdjust="spacing" textLength="116" x="534.5" y="53.9238">ProfesoresService</text><text fill="#000000" font-family="sans-serif" font-size="14" lengthAdjust="spacing" textLength="43" x="571" y="71.5332">(Axios)</text><rect fill="#E2E2F0" height="66.8281" rx="2.5" ry="2.5" style="stroke:#181818;stroke-width:0.5;" width="130" x="527.5" y="982.2891"/><text fill="#000000" font-family="sans-serif" font-size="14" font-style="italic" lengthAdjust="spacing" textLength="62" x="561.5" y="1003.8223">&#171;Service&#187;</text><text fill="#000000" font-family="sans-serif" font-size="14" lengthAdjust="spacing" textLength="116" x="534.5" y="1021.4316">ProfesoresService</text><text fill="#000000" font-family="sans-serif" font-size="14" lengthAdjust="spacing" textLength="43" x="571" y="1039.041">(Axios)</text><rect fill="#E2E2F0" height="66.8281" rx="2.5" ry="2.5" style="stroke:#181818;stroke-width:0.5;" width="145" x="680" y="14.7813"/><text fill="#000000" font-family="sans-serif" font-size="14" font-style="italic" lengthAdjust="spacing" textLength="78" x="713.5" y="36.3145">&#171;Controller&#187;</text><text fill="#000000" font-family="sans-serif" font-size="14" lengthAdjust="spacing" textLength="131" x="687" y="53.9238">ProfesoresController</text><text fill="#000000" font-family="sans-serif" font-size="14" lengthAdjust="spacing" textLength="53" x="726" y="71.5332">(NestJS)</text><rect fill="#E2E2F0" height="66.8281" rx="2.5" ry="2.5" style="stroke:#181818;stroke-width:0.5;" width="145" x="680" y="982.2891"/><text fill="#000000" font-family="sans-serif" font-size="14" font-style="italic" lengthAdjust="spacing" textLength="78" x="713.5" y="1003.8223">&#171;Controller&#187;</text><text fill="#000000" font-family="sans-serif" font-size="14" lengthAdjust="spacing" textLength="131" x="687" y="1021.4316">ProfesoresController</text><text fill="#000000" font-family="sans-serif" font-size="14" lengthAdjust="spacing" textLength="53" x="726" y="1039.041">(NestJS)</text><rect fill="#E2E2F0" height="66.8281" rx="2.5" ry="2.5" style="stroke:#181818;stroke-width:0.5;" width="130" x="835" y="14.7813"/><text fill="#000000" font-family="sans-serif" font-size="14" font-style="italic" lengthAdjust="spacing" textLength="62" x="869" y="36.3145">&#171;Service&#187;</text><text fill="#000000" font-family="sans-serif" font-size="14" lengthAdjust="spacing" textLength="116" x="842" y="53.9238">ProfesoresService</text><text fill="#000000" font-family="sans-serif" font-size="14" lengthAdjust="spacing" textLength="53" x="873.5" y="71.5332">(NestJS)</text><rect fill="#E2E2F0" height="66.8281" rx="2.5" ry="2.5" style="stroke:#181818;stroke-width:0.5;" width="130" x="835" y="982.2891"/><text fill="#000000" font-family="sans-serif" font-size="14" font-style="italic" lengthAdjust="spacing" textLength="62" x="869" y="1003.8223">&#171;Service&#187;</text><text fill="#000000" font-family="sans-serif" font-size="14" lengthAdjust="spacing" textLength="116" x="842" y="1021.4316">ProfesoresService</text><text fill="#000000" font-family="sans-serif" font-size="14" lengthAdjust="spacing" textLength="53" x="873.5" y="1039.041">(NestJS)</text><text fill="#000000" font-family="sans-serif" font-size="14" lengthAdjust="spacing" textLength="77" x="1167.5" y="79.5332">PostgreSQL</text><path d="M1191,29 C1191,19 1209,19 1209,19 C1209,19 1227,19 1227,29 L1227,55 C1227,65 1209,65 1209,65 C1209,65 1191,65 1191,55 L1191,29 " fill="#E2E2F0" style="stroke:#181818;stroke-width:1.5;"/><path d="M1191,29 C1191,39 1209,39 1209,39 C1209,39 1227,39 1227,29 " fill="none" style="stroke:#181818;stroke-width:1.5;"/><text fill="#000000" font-family="sans-serif" font-size="14" lengthAdjust="spacing" textLength="77" x="1167.5" y="996.8223">PostgreSQL</text><path d="M1191,1009.8984 C1191,999.8984 1209,999.8984 1209,999.8984 C1209,999.8984 1227,999.8984 1227,1009.8984 L1227,1035.8984 C1227,1045.8984 1209,1045.8984 1209,1045.8984 C1209,1045.8984 1191,1045.8984 1191,1035.8984 L1191,1009.8984 " fill="#E2E2F0" style="stroke:#181818;stroke-width:1.5;"/><path d="M1191,1009.8984 C1191,1019.8984 1209,1019.8984 1209,1019.8984 C1209,1019.8984 1227,1019.8984 1227,1009.8984 " fill="none" style="stroke:#181818;stroke-width:1.5;"/><rect fill="#EEEEEE" height="3" style="stroke:#EEEEEE;stroke-width:1.0;" width="1270.5" x="0" y="113.7852"/><line style="stroke:#000000;stroke-width:1.0;" x1="0" x2="1270.5" y1="113.7852" y2="113.7852"/><line style="stroke:#000000;stroke-width:1.0;" x1="0" x2="1270.5" y1="116.7852" y2="116.7852"/><rect fill="#EEEEEE" height="24.3516" style="stroke:#000000;stroke-width:2.0;" width="202" x="534.25" y="102.6094"/><text fill="#000000" font-family="sans-serif" font-size="13" font-weight="bold" lengthAdjust="spacing" textLength="184" x="540.25" y="120.1045">Confirmaci&#243;n de eliminaci&#243;n</text><polygon fill="#181818" points="252.5,155.3125,262.5,159.3125,252.5,163.3125,256.5,159.3125" style="stroke:#181818;stroke-width:1.0;"/><line style="stroke:#181818;stroke-width:1.0;" x1="66.5" x2="258.5" y1="159.3125" y2="159.3125"/><text fill="#000000" font-family="sans-serif" font-size="13" lengthAdjust="spacing" textLength="174" x="73.5" y="154.4561">Selecciona profesor a eliminar</text><polygon fill="#181818" points="252.5,185.6641,262.5,189.6641,252.5,193.6641,256.5,189.6641" style="stroke:#181818;stroke-width:1.0;"/><line style="stroke:#181818;stroke-width:1.0;" x1="66.5" x2="258.5" y1="189.6641" y2="189.6641"/><text fill="#000000" font-family="sans-serif" font-size="13" lengthAdjust="spacing" textLength="108" x="73.5" y="184.8076">Click en "Eliminar"</text><line style="stroke:#181818;stroke-width:1.0;" x1="264.5" x2="306.5" y1="220.0156" y2="220.0156"/><line style="stroke:#181818;stroke-width:1.0;" x1="306.5" x2="306.5" y1="220.0156" y2="233.0156"/><line style="stroke:#181818;stroke-width:1.0;" x1="265.5" x2="306.5" y1="233.0156" y2="233.0156"/><polygon fill="#181818" points="275.5,229.0156,265.5,233.0156,275.5,237.0156,271.5,233.0156" style="stroke:#181818;stroke-width:1.0;"/><text fill="#000000" font-family="sans-serif" font-size="13" lengthAdjust="spacing" textLength="116" x="271.5" y="215.1592">Muestra advertencia</text><polygon fill="#181818" points="252.5,259.3672,262.5,263.3672,252.5,267.3672,256.5,263.3672" style="stroke:#181818;stroke-width:1.0;"/><line style="stroke:#181818;stroke-width:1.0;" x1="66.5" x2="258.5" y1="263.3672" y2="263.3672"/><text fill="#000000" font-family="sans-serif" font-size="13" lengthAdjust="spacing" textLength="120" x="73.5" y="258.5107">Confirma eliminaci&#243;n</text><rect fill="#EEEEEE" height="3" style="stroke:#EEEEEE;stroke-width:1.0;" width="1270.5" x="0" y="292.543"/><line style="stroke:#000000;stroke-width:1.0;" x1="0" x2="1270.5" y1="292.543" y2="292.543"/><line style="stroke:#000000;stroke-width:1.0;" x1="0" x2="1270.5" y1="295.543" y2="295.543"/><rect fill="#EEEEEE" height="24.3516" style="stroke:#000000;stroke-width:2.0;" width="207" x="531.75" y="281.3672"/><text fill="#000000" font-family="sans-serif" font-size="13" font-weight="bold" lengthAdjust="spacing" textLength="189" x="537.75" y="298.8623">Verificaci&#243;n de dependencias</text><polygon fill="#181818" points="426.5,334.0703,436.5,338.0703,426.5,342.0703,430.5,338.0703" style="stroke:#181818;stroke-width:1.0;"/><line style="stroke:#181818;stroke-width:1.0;" x1="264.5" x2="432.5" y1="338.0703" y2="338.0703"/><text fill="#000000" font-family="sans-serif" font-size="13" lengthAdjust="spacing" textLength="107" x="271.5" y="333.2139">removeProfesor(id)</text><polygon fill="#181818" points="580.5,364.4219,590.5,368.4219,580.5,372.4219,584.5,368.4219" style="stroke:#181818;stroke-width:1.0;"/><line style="stroke:#181818;stroke-width:1.0;" x1="438.5" x2="586.5" y1="368.4219" y2="368.4219"/><text fill="#000000" font-family="sans-serif" font-size="13" lengthAdjust="spacing" textLength="101" x="445.5" y="363.5654">deleteProfesor(id)</text><polygon fill="#181818" points="740.5,394.7734,750.5,398.7734,740.5,402.7734,744.5,398.7734" style="stroke:#181818;stroke-width:1.0;"/><line style="stroke:#181818;stroke-width:1.0;" x1="592.5" x2="746.5" y1="398.7734" y2="398.7734"/><text fill="#000000" font-family="sans-serif" font-size="13" lengthAdjust="spacing" textLength="136" x="599.5" y="393.917">DELETE /profesores/:id</text><polygon fill="#181818" points="888,425.125,898,429.125,888,433.125,892,429.125" style="stroke:#181818;stroke-width:1.0;"/><line style="stroke:#181818;stroke-width:1.0;" x1="752.5" x2="894" y1="429.125" y2="429.125"/><text fill="#000000" font-family="sans-serif" font-size="13" lengthAdjust="spacing" textLength="59" x="759.5" y="424.2686">remove(id)</text><polygon fill="#181818" points="1197,471.8281,1207,475.8281,1197,479.8281,1201,475.8281" style="stroke:#181818;stroke-width:1.0;"/><line style="stroke:#181818;stroke-width:1.0;" x1="900" x2="1203" y1="475.8281" y2="475.8281"/><text fill="#000000" font-family="sans-serif" font-size="13" lengthAdjust="spacing" textLength="277" x="907" y="454.6201">SELECT COUNT(*) FROM "AsignaturaProfesor"</text><text fill="#000000" font-family="sans-serif" font-size="13" lengthAdjust="spacing" textLength="146" x="907" y="470.9717">WHERE profesor_id = :id</text><polygon fill="#181818" points="911,502.1797,901,506.1797,911,510.1797,907,506.1797" style="stroke:#181818;stroke-width:1.0;"/><line style="stroke:#181818;stroke-width:1.0;stroke-dasharray:2.0,2.0;" x1="905" x2="1208" y1="506.1797" y2="506.1797"/><text fill="#000000" font-family="sans-serif" font-size="13" lengthAdjust="spacing" textLength="94" x="917" y="501.3232">totalAsignaturas</text><polygon fill="#181818" points="1197,548.8828,1207,552.8828,1197,556.8828,1201,552.8828" style="stroke:#181818;stroke-width:1.0;"/><line style="stroke:#181818;stroke-width:1.0;" x1="900" x2="1203" y1="552.8828" y2="552.8828"/><text fill="#000000" font-family="sans-serif" font-size="13" lengthAdjust="spacing" textLength="215" x="907" y="531.6748">SELECT COUNT(*) FROM "Examen"</text><text fill="#000000" font-family="sans-serif" font-size="13" lengthAdjust="spacing" textLength="146" x="907" y="548.0264">WHERE profesor_id = :id</text><polygon fill="#181818" points="911,579.2344,901,583.2344,911,587.2344,907,583.2344" style="stroke:#181818;stroke-width:1.0;"/><line style="stroke:#181818;stroke-width:1.0;stroke-dasharray:2.0,2.0;" x1="905" x2="1208" y1="583.2344" y2="583.2344"/><text fill="#000000" font-family="sans-serif" font-size="13" lengthAdjust="spacing" textLength="87" x="917" y="578.3779">totalExamenes</text><path d="M10,598.2344 L71,598.2344 L71,606.5859 L61,616.5859 L10,616.5859 L10,598.2344 " fill="#EEEEEE" style="stroke:#000000;stroke-width:1.5;"/><rect fill="none" height="368.0547" style="stroke:#000000;stroke-width:1.5;" width="1250.5" x="10" y="598.2344"/><text fill="#000000" font-family="sans-serif" font-size="13" font-weight="bold" lengthAdjust="spacing" textLength="16" x="25" y="612.7295">alt</text><text fill="#000000" font-family="sans-serif" font-size="11" font-weight="bold" lengthAdjust="spacing" textLength="120" x="86" y="611.6533">[Tiene dependencias]</text><polygon fill="#181818" points="763.5,634.9375,753.5,638.9375,763.5,642.9375,759.5,638.9375" style="stroke:#181818;stroke-width:1.0;"/><line style="stroke:#181818;stroke-width:1.0;stroke-dasharray:2.0,2.0;" x1="757.5" x2="899" y1="638.9375" y2="638.9375"/><text fill="#000000" font-family="sans-serif" font-size="13" lengthAdjust="spacing" textLength="101" x="769.5" y="634.0811">ConflictException</text><polygon fill="#181818" points="603.5,665.2891,593.5,669.2891,603.5,673.2891,599.5,669.2891" style="stroke:#181818;stroke-width:1.0;"/><line style="stroke:#181818;stroke-width:1.0;stroke-dasharray:2.0,2.0;" x1="597.5" x2="751.5" y1="669.2891" y2="669.2891"/><text fill="#000000" font-family="sans-serif" font-size="13" lengthAdjust="spacing" textLength="68" x="609.5" y="664.4326">409 Conflict</text><polygon fill="#181818" points="449.5,695.6406,439.5,699.6406,449.5,703.6406,445.5,699.6406" style="stroke:#181818;stroke-width:1.0;"/><line style="stroke:#181818;stroke-width:1.0;stroke-dasharray:2.0,2.0;" x1="443.5" x2="591.5" y1="699.6406" y2="699.6406"/><text fill="#000000" font-family="sans-serif" font-size="13" lengthAdjust="spacing" textLength="130" x="455.5" y="694.7842">Error de dependencias</text><polygon fill="#181818" points="275.5,725.9922,265.5,729.9922,275.5,733.9922,271.5,729.9922" style="stroke:#181818;stroke-width:1.0;"/><line style="stroke:#181818;stroke-width:1.0;stroke-dasharray:2.0,2.0;" x1="269.5" x2="437.5" y1="729.9922" y2="729.9922"/><text fill="#000000" font-family="sans-serif" font-size="13" lengthAdjust="spacing" textLength="150" x="281.5" y="725.1357">Muestra alerta de bloqueo</text><line style="stroke:#000000;stroke-width:1.0;stroke-dasharray:2.0,2.0;" x1="10" x2="1260.5" y1="738.9922" y2="738.9922"/><text fill="#000000" font-family="sans-serif" font-size="11" font-weight="bold" lengthAdjust="spacing" textLength="106" x="15" y="750.4111">[Sin dependencias]</text><polygon fill="#181818" points="1197,772.1797,1207,776.1797,1197,780.1797,1201,776.1797" style="stroke:#181818;stroke-width:1.0;"/><line style="stroke:#181818;stroke-width:1.0;" x1="900" x2="1203" y1="776.1797" y2="776.1797"/><text fill="#000000" font-family="sans-serif" font-size="13" lengthAdjust="spacing" textLength="285" x="907" y="771.3232">DELETE FROM "Usuario" WHERE id = usuarioId</text><polygon fill="#181818" points="911,802.5313,901,806.5313,911,810.5313,907,806.5313" style="stroke:#181818;stroke-width:1.0;"/><line style="stroke:#181818;stroke-width:1.0;stroke-dasharray:2.0,2.0;" x1="905" x2="1208" y1="806.5313" y2="806.5313"/><text fill="#000000" font-family="sans-serif" font-size="13" lengthAdjust="spacing" textLength="132" x="917" y="801.6748">OK (cascade Profesor)</text><polygon fill="#181818" points="763.5,832.8828,753.5,836.8828,763.5,840.8828,759.5,836.8828" style="stroke:#181818;stroke-width:1.0;"/><line style="stroke:#181818;stroke-width:1.0;stroke-dasharray:2.0,2.0;" x1="757.5" x2="899" y1="836.8828" y2="836.8828"/><text fill="#000000" font-family="sans-serif" font-size="13" lengthAdjust="spacing" textLength="121" x="769.5" y="832.0264">OK (204 No Content)</text><polygon fill="#181818" points="603.5,863.2344,593.5,867.2344,603.5,871.2344,599.5,867.2344" style="stroke:#181818;stroke-width:1.0;"/><line style="stroke:#181818;stroke-width:1.0;stroke-dasharray:2.0,2.0;" x1="597.5" x2="751.5" y1="867.2344" y2="867.2344"/><text fill="#000000" font-family="sans-serif" font-size="13" lengthAdjust="spacing" textLength="51" x="609.5" y="862.3779">Success</text><polygon fill="#181818" points="449.5,893.5859,439.5,897.5859,449.5,901.5859,445.5,897.5859" style="stroke:#181818;stroke-width:1.0;"/><line style="stroke:#181818;stroke-width:1.0;stroke-dasharray:2.0,2.0;" x1="443.5" x2="591.5" y1="897.5859" y2="897.5859"/><text fill="#000000" font-family="sans-serif" font-size="13" lengthAdjust="spacing" textLength="51" x="455.5" y="892.7295">Success</text><polygon fill="#181818" points="275.5,923.9375,265.5,927.9375,275.5,931.9375,271.5,927.9375" style="stroke:#181818;stroke-width:1.0;"/><line style="stroke:#181818;stroke-width:1.0;stroke-dasharray:2.0,2.0;" x1="269.5" x2="437.5" y1="927.9375" y2="927.9375"/><text fill="#000000" font-family="sans-serif" font-size="13" lengthAdjust="spacing" textLength="82" x="281.5" y="923.0811">Actualiza lista</text><polygon fill="#181818" points="77.5,954.2891,67.5,958.2891,77.5,962.2891,73.5,958.2891" style="stroke:#181818;stroke-width:1.0;"/><line style="stroke:#181818;stroke-width:1.0;stroke-dasharray:2.0,2.0;" x1="71.5" x2="263.5" y1="958.2891" y2="958.2891"/><text fill="#000000" font-family="sans-serif" font-size="13" lengthAdjust="spacing" textLength="112" x="83.5" y="953.4326">Notifica eliminaci&#243;n</text><!--SRC=[bLJBRjim4BppAnO-sGM214KkDU80ViX8sZnQsqal0OeDjNQ9oAHAKacGt-edzCUwf6HBIk8qrKKKTsTsEREKkrCwHujhS3ynDGzAhs29cICXK7fZOPYkbLREMuvQmQbUIPMZzj19CiKnj5-jMP8pzbhHmutkpeYHlGwWWwjJE3eQctLkD6b_VDp65uusK78JoiWJmq-CkIlHOSNuy7eEhN5pilTA1k3mKHbN8gVLBgEhrMw2iT7UcYmZonmNvFpdUKbI1-8XDX_lQQL9CtgjbnGztg8ZXXldLvRctyvYzcGan60GQY-LNQDKVtvhI0cerBhy7Wo4QFa2UyT1wpxCMKKfbT48UTKNu0PiTu36cP9tGBfsj2Cui0cV5nGGWEazMKzQAjn5L7NTwZQUvvgiMYfPdoUbd7GQoLmyJramMju7IsjplnsEhafx8aOuOsjjdpd2oBIojb7ERFZNXqbobYmIsC-tRkttLIeQEOmOrTnb1v5JZ1gaar5GcSd62nXVNbqikXzwC9rTdaDdwDHAeoyiRbhgtEZl9yaisNhnGwKmW52OUVRQ5RtncDKSxjrraqTSa_x_MYMEk11c7XQArorR1F1Jz_1SqM0s3uvF7YNbdaSkvZS5RRjrUF1fYucfqoPrPNnYBSzJ-aeZfVylPf8BUGo0sypyAiW8udyNp9L-woYLdDLCb2fUkGAjCXqeLOpY5UNUQHhnBsMy_09TYKuYrzzuplFojcu1zF7W42vCtEV_OkyVoiqBAScvdQ8russPXj8NcAadX8mlAyQCSD4uthx1VMx7nnlQlhkieFWB]--></g></svg>