<?xml version="1.0" encoding="us-ascii" standalone="no"?><svg xmlns="http://www.w3.org/2000/svg" xmlns:xlink="http://www.w3.org/1999/xlink" contentStyleType="text/css" height="1346px" preserveAspectRatio="none" style="width:2198px;height:1346px;background:#FFFFFF;" version="1.1" viewBox="0 0 2198 1346" width="2198px" zoomAndPan="magnify"><defs/><g><rect fill="none" height="459.1094" style="stroke:#000000;stroke-width:1.5;" width="2181.5" x="10" y="719.6406"/><line style="stroke:#181818;stroke-width:0.5;stroke-dasharray:5.0,5.0;" x1="50" x2="50" y1="82.6094" y2="1264.8047"/><line style="stroke:#181818;stroke-width:0.5;stroke-dasharray:5.0,5.0;" x1="304.5" x2="304.5" y1="82.6094" y2="1264.8047"/><line style="stroke:#181818;stroke-width:0.5;stroke-dasharray:5.0,5.0;" x1="618.5" x2="618.5" y1="82.6094" y2="1264.8047"/><line style="stroke:#181818;stroke-width:0.5;stroke-dasharray:5.0,5.0;" x1="846.5" x2="846.5" y1="82.6094" y2="1264.8047"/><line style="stroke:#181818;stroke-width:0.5;stroke-dasharray:5.0,5.0;" x1="1114.5" x2="1114.5" y1="82.6094" y2="1264.8047"/><line style="stroke:#181818;stroke-width:0.5;stroke-dasharray:5.0,5.0;" x1="1268.5" x2="1268.5" y1="82.6094" y2="1264.8047"/><line style="stroke:#181818;stroke-width:0.5;stroke-dasharray:5.0,5.0;" x1="1446.5" x2="1446.5" y1="82.6094" y2="1264.8047"/><line style="stroke:#181818;stroke-width:0.5;stroke-dasharray:5.0,5.0;" x1="1586.5" x2="1586.5" y1="82.6094" y2="1264.8047"/><line style="stroke:#181818;stroke-width:0.5;stroke-dasharray:5.0,5.0;" x1="1955" x2="1955" y1="82.6094" y2="1264.8047"/><line style="stroke:#181818;stroke-width:0.5;stroke-dasharray:5.0,5.0;" x1="2129.5" x2="2129.5" y1="82.6094" y2="1264.8047"/><text fill="#000000" font-family="sans-serif" font-size="14" lengthAdjust="spacing" textLength="54" x="20" y="79.5332">Profesor</text><ellipse cx="50" cy="13.5" fill="#E2E2F0" rx="8" ry="8" style="stroke:#181818;stroke-width:0.5;"/><path d="M50,21.5 L50,48.5 M37,29.5 L63,29.5 M50,48.5 L37,63.5 M50,48.5 L63,63.5 " fill="none" style="stroke:#181818;stroke-width:0.5;"/><text fill="#000000" font-family="sans-serif" font-size="14" lengthAdjust="spacing" textLength="54" x="20" y="1278.3379">Profesor</text><ellipse cx="50" cy="1289.9141" fill="#E2E2F0" rx="8" ry="8" style="stroke:#181818;stroke-width:0.5;"/><path d="M50,1297.9141 L50,1324.9141 M37,1305.9141 L63,1305.9141 M50,1324.9141 L37,1339.9141 M50,1324.9141 L63,1339.9141 " fill="none" style="stroke:#181818;stroke-width:0.5;"/><rect fill="#E2E2F0" height="66.8281" rx="2.5" ry="2.5" style="stroke:#181818;stroke-width:0.5;" width="181" x="214.5" y="14.7813"/><text fill="#000000" font-family="sans-serif" font-size="14" font-style="italic" lengthAdjust="spacing" textLength="89" x="260.5" y="36.3145">&#171;Component&#187;</text><text fill="#000000" font-family="sans-serif" font-size="14" lengthAdjust="spacing" textLength="167" x="221.5" y="53.9238">ComunicarIncidenciasView</text><text fill="#000000" font-family="sans-serif" font-size="14" lengthAdjust="spacing" textLength="47" x="281.5" y="71.5332">(React)</text><rect fill="#E2E2F0" height="66.8281" rx="2.5" ry="2.5" style="stroke:#181818;stroke-width:0.5;" width="181" x="214.5" y="1263.8047"/><text fill="#000000" font-family="sans-serif" font-size="14" font-style="italic" lengthAdjust="spacing" textLength="89" x="260.5" y="1285.3379">&#171;Component&#187;</text><text fill="#000000" font-family="sans-serif" font-size="14" lengthAdjust="spacing" textLength="167" x="221.5" y="1302.9473">ComunicarIncidenciasView</text><text fill="#000000" font-family="sans-serif" font-size="14" lengthAdjust="spacing" textLength="47" x="281.5" y="1320.5566">(React)</text><rect fill="#E2E2F0" height="66.8281" rx="2.5" ry="2.5" style="stroke:#181818;stroke-width:0.5;" width="107" x="565.5" y="14.7813"/><text fill="#000000" font-family="sans-serif" font-size="14" font-style="italic" lengthAdjust="spacing" textLength="50" x="594" y="36.3145">&#171;Hook&#187;</text><text fill="#000000" font-family="sans-serif" font-size="14" lengthAdjust="spacing" textLength="93" x="572.5" y="53.9238">useIncidencias</text><text fill="#000000" font-family="sans-serif" font-size="14" lengthAdjust="spacing" textLength="42" x="598" y="71.5332">(Hook)</text><rect fill="#E2E2F0" height="66.8281" rx="2.5" ry="2.5" style="stroke:#181818;stroke-width:0.5;" width="107" x="565.5" y="1263.8047"/><text fill="#000000" font-family="sans-serif" font-size="14" font-style="italic" lengthAdjust="spacing" textLength="50" x="594" y="1285.3379">&#171;Hook&#187;</text><text fill="#000000" font-family="sans-serif" font-size="14" lengthAdjust="spacing" textLength="93" x="572.5" y="1302.9473">useIncidencias</text><text fill="#000000" font-family="sans-serif" font-size="14" lengthAdjust="spacing" textLength="42" x="598" y="1320.5566">(Hook)</text><rect fill="#E2E2F0" height="66.8281" rx="2.5" ry="2.5" style="stroke:#181818;stroke-width:0.5;" width="131" x="781.5" y="14.7813"/><text fill="#000000" font-family="sans-serif" font-size="14" font-style="italic" lengthAdjust="spacing" textLength="62" x="816" y="36.3145">&#171;Service&#187;</text><text fill="#000000" font-family="sans-serif" font-size="14" lengthAdjust="spacing" textLength="117" x="788.5" y="53.9238">incidenciasService</text><text fill="#000000" font-family="sans-serif" font-size="14" lengthAdjust="spacing" textLength="43" x="825.5" y="71.5332">(Axios)</text><rect fill="#E2E2F0" height="66.8281" rx="2.5" ry="2.5" style="stroke:#181818;stroke-width:0.5;" width="131" x="781.5" y="1263.8047"/><text fill="#000000" font-family="sans-serif" font-size="14" font-style="italic" lengthAdjust="spacing" textLength="62" x="816" y="1285.3379">&#171;Service&#187;</text><text fill="#000000" font-family="sans-serif" font-size="14" lengthAdjust="spacing" textLength="117" x="788.5" y="1302.9473">incidenciasService</text><text fill="#000000" font-family="sans-serif" font-size="14" lengthAdjust="spacing" textLength="43" x="825.5" y="1320.5566">(Axios)</text><rect fill="#E2E2F0" height="66.8281" rx="2.5" ry="2.5" style="stroke:#181818;stroke-width:0.5;" width="141" x="1044.5" y="14.7813"/><text fill="#000000" font-family="sans-serif" font-size="14" font-style="italic" lengthAdjust="spacing" textLength="78" x="1076" y="36.3145">&#171;Controller&#187;</text><text fill="#000000" font-family="sans-serif" font-size="14" lengthAdjust="spacing" textLength="127" x="1051.5" y="53.9238">ExamenesController</text><text fill="#000000" font-family="sans-serif" font-size="14" lengthAdjust="spacing" textLength="53" x="1088.5" y="71.5332">(NestJS)</text><rect fill="#E2E2F0" height="66.8281" rx="2.5" ry="2.5" style="stroke:#181818;stroke-width:0.5;" width="141" x="1044.5" y="1263.8047"/><text fill="#000000" font-family="sans-serif" font-size="14" font-style="italic" lengthAdjust="spacing" textLength="78" x="1076" y="1285.3379">&#171;Controller&#187;</text><text fill="#000000" font-family="sans-serif" font-size="14" lengthAdjust="spacing" textLength="127" x="1051.5" y="1302.9473">ExamenesController</text><text fill="#000000" font-family="sans-serif" font-size="14" lengthAdjust="spacing" textLength="53" x="1088.5" y="1320.5566">(NestJS)</text><rect fill="#E2E2F0" height="66.8281" rx="2.5" ry="2.5" style="stroke:#181818;stroke-width:0.5;" width="146" x="1195.5" y="14.7813"/><text fill="#000000" font-family="sans-serif" font-size="14" font-style="italic" lengthAdjust="spacing" textLength="78" x="1229.5" y="36.3145">&#171;Controller&#187;</text><text fill="#000000" font-family="sans-serif" font-size="14" lengthAdjust="spacing" textLength="132" x="1202.5" y="53.9238">IncidenciasController</text><text fill="#000000" font-family="sans-serif" font-size="14" lengthAdjust="spacing" textLength="53" x="1242" y="71.5332">(NestJS)</text><rect fill="#E2E2F0" height="66.8281" rx="2.5" ry="2.5" style="stroke:#181818;stroke-width:0.5;" width="146" x="1195.5" y="1263.8047"/><text fill="#000000" font-family="sans-serif" font-size="14" font-style="italic" lengthAdjust="spacing" textLength="78" x="1229.5" y="1285.3379">&#171;Controller&#187;</text><text fill="#000000" font-family="sans-serif" font-size="14" lengthAdjust="spacing" textLength="132" x="1202.5" y="1302.9473">IncidenciasController</text><text fill="#000000" font-family="sans-serif" font-size="14" lengthAdjust="spacing" textLength="53" x="1242" y="1320.5566">(NestJS)</text><rect fill="#E2E2F0" height="49.2188" rx="2.5" ry="2.5" style="stroke:#181818;stroke-width:0.5;" width="130" x="1381.5" y="32.3906"/><text fill="#000000" font-family="sans-serif" font-size="14" font-style="italic" lengthAdjust="spacing" textLength="56" x="1418.5" y="53.9238">&#171;Guard&#187;</text><text fill="#000000" font-family="sans-serif" font-size="14" lengthAdjust="spacing" textLength="116" x="1388.5" y="71.5332">RolesGuard / JWT</text><rect fill="#E2E2F0" height="49.2188" rx="2.5" ry="2.5" style="stroke:#181818;stroke-width:0.5;" width="130" x="1381.5" y="1263.8047"/><text fill="#000000" font-family="sans-serif" font-size="14" font-style="italic" lengthAdjust="spacing" textLength="56" x="1418.5" y="1285.3379">&#171;Guard&#187;</text><text fill="#000000" font-family="sans-serif" font-size="14" lengthAdjust="spacing" textLength="116" x="1388.5" y="1302.9473">RolesGuard / JWT</text><rect fill="#E2E2F0" height="66.8281" rx="2.5" ry="2.5" style="stroke:#181818;stroke-width:0.5;" width="131" x="1521.5" y="14.7813"/><text fill="#000000" font-family="sans-serif" font-size="14" font-style="italic" lengthAdjust="spacing" textLength="62" x="1556" y="36.3145">&#171;Service&#187;</text><text fill="#000000" font-family="sans-serif" font-size="14" lengthAdjust="spacing" textLength="117" x="1528.5" y="53.9238">IncidenciasService</text><text fill="#000000" font-family="sans-serif" font-size="14" lengthAdjust="spacing" textLength="53" x="1560.5" y="71.5332">(NestJS)</text><rect fill="#E2E2F0" height="66.8281" rx="2.5" ry="2.5" style="stroke:#181818;stroke-width:0.5;" width="131" x="1521.5" y="1263.8047"/><text fill="#000000" font-family="sans-serif" font-size="14" font-style="italic" lengthAdjust="spacing" textLength="62" x="1556" y="1285.3379">&#171;Service&#187;</text><text fill="#000000" font-family="sans-serif" font-size="14" lengthAdjust="spacing" textLength="117" x="1528.5" y="1302.9473">IncidenciasService</text><text fill="#000000" font-family="sans-serif" font-size="14" lengthAdjust="spacing" textLength="53" x="1560.5" y="1320.5566">(NestJS)</text><rect fill="#E2E2F0" height="49.2188" rx="2.5" ry="2.5" style="stroke:#181818;stroke-width:0.5;" width="104" x="1903" y="32.3906"/><text fill="#000000" font-family="sans-serif" font-size="14" font-style="italic" lengthAdjust="spacing" textLength="49" x="1930.5" y="53.9238">&#171;ORM&#187;</text><text fill="#000000" font-family="sans-serif" font-size="14" lengthAdjust="spacing" textLength="90" x="1910" y="71.5332">PrismaService</text><rect fill="#E2E2F0" height="49.2188" rx="2.5" ry="2.5" style="stroke:#181818;stroke-width:0.5;" width="104" x="1903" y="1263.8047"/><text fill="#000000" font-family="sans-serif" font-size="14" font-style="italic" lengthAdjust="spacing" textLength="49" x="1930.5" y="1285.3379">&#171;ORM&#187;</text><text fill="#000000" font-family="sans-serif" font-size="14" lengthAdjust="spacing" textLength="90" x="1910" y="1302.9473">PrismaService</text><text fill="#000000" font-family="sans-serif" font-size="14" lengthAdjust="spacing" textLength="97" x="2078.5" y="79.5332">PostgreSQL 16</text><path d="M2112,29 C2112,19 2130,19 2130,19 C2130,19 2148,19 2148,29 L2148,55 C2148,65 2130,65 2130,65 C2130,65 2112,65 2112,55 L2112,29 " fill="#E2E2F0" style="stroke:#181818;stroke-width:1.5;"/><path d="M2112,29 C2112,39 2130,39 2130,39 C2130,39 2148,39 2148,29 " fill="none" style="stroke:#181818;stroke-width:1.5;"/><text fill="#000000" font-family="sans-serif" font-size="14" lengthAdjust="spacing" textLength="97" x="2078.5" y="1278.3379">PostgreSQL 16</text><path d="M2112,1291.4141 C2112,1281.4141 2130,1281.4141 2130,1281.4141 C2130,1281.4141 2148,1281.4141 2148,1291.4141 L2148,1317.4141 C2148,1327.4141 2130,1327.4141 2130,1327.4141 C2130,1327.4141 2112,1327.4141 2112,1317.4141 L2112,1291.4141 " fill="#E2E2F0" style="stroke:#181818;stroke-width:1.5;"/><path d="M2112,1291.4141 C2112,1301.4141 2130,1301.4141 2130,1301.4141 C2130,1301.4141 2148,1301.4141 2148,1291.4141 " fill="none" style="stroke:#181818;stroke-width:1.5;"/><polygon fill="#181818" points="293,110.9609,303,114.9609,293,118.9609,297,114.9609" style="stroke:#181818;stroke-width:1.0;"/><line style="stroke:#181818;stroke-width:1.0;" x1="50" x2="299" y1="114.9609" y2="114.9609"/><text fill="#000000" font-family="sans-serif" font-size="13" lengthAdjust="spacing" textLength="174" x="57" y="110.1045">comunicarIncidenciasHorario()</text><polygon fill="#181818" points="607,141.3125,617,145.3125,607,149.3125,611,145.3125" style="stroke:#181818;stroke-width:1.0;"/><line style="stroke:#181818;stroke-width:1.0;" x1="305" x2="613" y1="145.3125" y2="145.3125"/><text fill="#000000" font-family="sans-serif" font-size="13" lengthAdjust="spacing" textLength="138" x="312" y="140.4561">loadExamenesPropios()</text><polygon fill="#181818" points="835,171.6641,845,175.6641,835,179.6641,839,175.6641" style="stroke:#181818;stroke-width:1.0;"/><line style="stroke:#181818;stroke-width:1.0;" x1="619" x2="841" y1="175.6641" y2="175.6641"/><text fill="#000000" font-family="sans-serif" font-size="13" lengthAdjust="spacing" textLength="134" x="626" y="170.8076">findExamenesPropios()</text><polygon fill="#181818" points="1103,202.0156,1113,206.0156,1103,210.0156,1107,206.0156" style="stroke:#181818;stroke-width:1.0;"/><line style="stroke:#181818;stroke-width:1.0;" x1="847" x2="1109" y1="206.0156" y2="206.0156"/><text fill="#000000" font-family="sans-serif" font-size="13" lengthAdjust="spacing" textLength="195" x="854" y="201.1592">GET /examenes/calendario (JWT)</text><polygon fill="#181818" points="858,232.3672,848,236.3672,858,240.3672,854,236.3672" style="stroke:#181818;stroke-width:1.0;"/><line style="stroke:#181818;stroke-width:1.0;stroke-dasharray:2.0,2.0;" x1="852" x2="1114" y1="236.3672" y2="236.3672"/><text fill="#000000" font-family="sans-serif" font-size="13" lengthAdjust="spacing" textLength="244" x="864" y="231.5107">ExamenCalendarioDto[] (solo del profesor)</text><polygon fill="#181818" points="630,262.7188,620,266.7188,630,270.7188,626,266.7188" style="stroke:#181818;stroke-width:1.0;"/><line style="stroke:#181818;stroke-width:1.0;stroke-dasharray:2.0,2.0;" x1="624" x2="846" y1="266.7188" y2="266.7188"/><text fill="#000000" font-family="sans-serif" font-size="13" lengthAdjust="spacing" textLength="106" x="636" y="261.8623">ex&#225;menes propios</text><polygon fill="#181818" points="316,293.0703,306,297.0703,316,301.0703,312,297.0703" style="stroke:#181818;stroke-width:1.0;"/><line style="stroke:#181818;stroke-width:1.0;stroke-dasharray:2.0,2.0;" x1="310" x2="618" y1="297.0703" y2="297.0703"/><text fill="#000000" font-family="sans-serif" font-size="13" lengthAdjust="spacing" textLength="171" x="322" y="292.2139">renderiza selector de examen</text><polygon fill="#181818" points="293,323.4219,303,327.4219,293,331.4219,297,327.4219" style="stroke:#181818;stroke-width:1.0;"/><line style="stroke:#181818;stroke-width:1.0;" x1="50" x2="299" y1="327.4219" y2="327.4219"/><text fill="#000000" font-family="sans-serif" font-size="13" lengthAdjust="spacing" textLength="231" x="57" y="322.5654">selecciona examen + tipo + descripci&#243;n</text><line style="stroke:#181818;stroke-width:1.0;" x1="305" x2="347" y1="357.7734" y2="357.7734"/><line style="stroke:#181818;stroke-width:1.0;" x1="347" x2="347" y1="357.7734" y2="370.7734"/><line style="stroke:#181818;stroke-width:1.0;" x1="306" x2="347" y1="370.7734" y2="370.7734"/><polygon fill="#181818" points="316,366.7734,306,370.7734,316,374.7734,312,370.7734" style="stroke:#181818;stroke-width:1.0;"/><text fill="#000000" font-family="sans-serif" font-size="13" lengthAdjust="spacing" textLength="300" x="312" y="352.917">valida formulario (examen, tipo, descripci&#243;n 10..500)</text><polygon fill="#181818" points="293,397.125,303,401.125,293,405.125,297,401.125" style="stroke:#181818;stroke-width:1.0;"/><line style="stroke:#181818;stroke-width:1.0;" x1="50" x2="299" y1="401.125" y2="401.125"/><text fill="#000000" font-family="sans-serif" font-size="13" lengthAdjust="spacing" textLength="97" x="57" y="396.2686">Enviar incidencia</text><polygon fill="#181818" points="607,427.4766,617,431.4766,607,435.4766,611,431.4766" style="stroke:#181818;stroke-width:1.0;"/><line style="stroke:#181818;stroke-width:1.0;" x1="305" x2="613" y1="431.4766" y2="431.4766"/><text fill="#000000" font-family="sans-serif" font-size="13" lengthAdjust="spacing" textLength="117" x="312" y="426.6201">enviarIncidencia(dto)</text><polygon fill="#181818" points="835,457.8281,845,461.8281,835,465.8281,839,461.8281" style="stroke:#181818;stroke-width:1.0;"/><line style="stroke:#181818;stroke-width:1.0;" x1="619" x2="841" y1="461.8281" y2="461.8281"/><text fill="#000000" font-family="sans-serif" font-size="13" lengthAdjust="spacing" textLength="204" x="626" y="456.9717">crearIncidencia(CrearIncidenciaDto)</text><polygon fill="#181818" points="1256.5,488.1797,1266.5,492.1797,1256.5,496.1797,1260.5,492.1797" style="stroke:#181818;stroke-width:1.0;"/><line style="stroke:#181818;stroke-width:1.0;" x1="847" x2="1262.5" y1="492.1797" y2="492.1797"/><text fill="#000000" font-family="sans-serif" font-size="13" lengthAdjust="spacing" textLength="146" x="854" y="487.3232">POST /incidencias (JWT)</text><polygon fill="#181818" points="1434.5,518.5313,1444.5,522.5313,1434.5,526.5313,1438.5,522.5313" style="stroke:#181818;stroke-width:1.0;"/><line style="stroke:#181818;stroke-width:1.0;" x1="1268.5" x2="1440.5" y1="522.5313" y2="522.5313"/><text fill="#000000" font-family="sans-serif" font-size="13" lengthAdjust="spacing" textLength="154" x="1275.5" y="517.6748">validar token + rol Profesor</text><polygon fill="#181818" points="1279.5,548.8828,1269.5,552.8828,1279.5,556.8828,1275.5,552.8828" style="stroke:#181818;stroke-width:1.0;"/><line style="stroke:#181818;stroke-width:1.0;stroke-dasharray:2.0,2.0;" x1="1273.5" x2="1445.5" y1="552.8828" y2="552.8828"/><text fill="#000000" font-family="sans-serif" font-size="13" lengthAdjust="spacing" textLength="123" x="1285.5" y="548.0264">req.user { profesorId }</text><polygon fill="#181818" points="1575,579.2344,1585,583.2344,1575,587.2344,1579,583.2344" style="stroke:#181818;stroke-width:1.0;"/><line style="stroke:#181818;stroke-width:1.0;" x1="1268.5" x2="1581" y1="583.2344" y2="583.2344"/><text fill="#000000" font-family="sans-serif" font-size="13" lengthAdjust="spacing" textLength="105" x="1275.5" y="578.3779">crear(dto, usuario)</text><polygon fill="#181818" points="1943,609.5859,1953,613.5859,1943,617.5859,1947,613.5859" style="stroke:#181818;stroke-width:1.0;"/><line style="stroke:#181818;stroke-width:1.0;" x1="1587" x2="1949" y1="613.5859" y2="613.5859"/><text fill="#000000" font-family="sans-serif" font-size="13" lengthAdjust="spacing" textLength="288" x="1594" y="608.7295">examen.findUnique({ where: { id: dto.examenId } })</text><polygon fill="#181818" points="2118,639.9375,2128,643.9375,2118,647.9375,2122,643.9375" style="stroke:#181818;stroke-width:1.0;"/><line style="stroke:#181818;stroke-width:1.0;" x1="1955" x2="2124" y1="643.9375" y2="643.9375"/><text fill="#000000" font-family="sans-serif" font-size="13" lengthAdjust="spacing" textLength="100" x="1962" y="639.0811">SELECT examen</text><polygon fill="#181818" points="1966,670.2891,1956,674.2891,1966,678.2891,1962,674.2891" style="stroke:#181818;stroke-width:1.0;"/><line style="stroke:#181818;stroke-width:1.0;stroke-dasharray:2.0,2.0;" x1="1960" x2="2129" y1="674.2891" y2="674.2891"/><text fill="#000000" font-family="sans-serif" font-size="13" lengthAdjust="spacing" textLength="114" x="1972" y="669.4326">examen (profesorId)</text><polygon fill="#181818" points="1598,700.6406,1588,704.6406,1598,708.6406,1594,704.6406" style="stroke:#181818;stroke-width:1.0;"/><line style="stroke:#181818;stroke-width:1.0;stroke-dasharray:2.0,2.0;" x1="1592" x2="1954" y1="704.6406" y2="704.6406"/><text fill="#000000" font-family="sans-serif" font-size="13" lengthAdjust="spacing" textLength="46" x="1604" y="699.7842">examen</text><path d="M10,719.6406 L71,719.6406 L71,727.9922 L61,737.9922 L10,737.9922 L10,719.6406 " fill="#EEEEEE" style="stroke:#000000;stroke-width:1.5;"/><rect fill="none" height="459.1094" style="stroke:#000000;stroke-width:1.5;" width="2181.5" x="10" y="719.6406"/><text fill="#000000" font-family="sans-serif" font-size="13" font-weight="bold" lengthAdjust="spacing" textLength="16" x="25" y="734.1357">alt</text><text fill="#000000" font-family="sans-serif" font-size="11" font-weight="bold" lengthAdjust="spacing" textLength="176" x="86" y="733.0596">[examen pertenece al profesor]</text><polygon fill="#181818" points="1943,756.3438,1953,760.3438,1943,764.3438,1947,760.3438" style="stroke:#181818;stroke-width:1.0;"/><line style="stroke:#181818;stroke-width:1.0;" x1="1587" x2="1949" y1="760.3438" y2="760.3438"/><text fill="#000000" font-family="sans-serif" font-size="13" lengthAdjust="spacing" textLength="344" x="1594" y="755.4873">incidencia.create({ ...dto, profesorId, estado: PENDIENTE })</text><polygon fill="#181818" points="2118,786.6953,2128,790.6953,2118,794.6953,2122,790.6953" style="stroke:#181818;stroke-width:1.0;"/><line style="stroke:#181818;stroke-width:1.0;" x1="1955" x2="2124" y1="790.6953" y2="790.6953"/><text fill="#000000" font-family="sans-serif" font-size="13" lengthAdjust="spacing" textLength="151" x="1962" y="785.8389">INSERT INTO "Incidencia"</text><polygon fill="#181818" points="1966,817.0469,1956,821.0469,1966,825.0469,1962,821.0469" style="stroke:#181818;stroke-width:1.0;"/><line style="stroke:#181818;stroke-width:1.0;stroke-dasharray:2.0,2.0;" x1="1960" x2="2129" y1="821.0469" y2="821.0469"/><text fill="#000000" font-family="sans-serif" font-size="13" lengthAdjust="spacing" textLength="101" x="1972" y="816.1904">incidencia creada</text><polygon fill="#181818" points="1598,847.3984,1588,851.3984,1598,855.3984,1594,851.3984" style="stroke:#181818;stroke-width:1.0;"/><line style="stroke:#181818;stroke-width:1.0;stroke-dasharray:2.0,2.0;" x1="1592" x2="1954" y1="851.3984" y2="851.3984"/><text fill="#000000" font-family="sans-serif" font-size="13" lengthAdjust="spacing" textLength="58" x="1604" y="846.542">Incidencia</text><polygon fill="#181818" points="1279.5,877.75,1269.5,881.75,1279.5,885.75,1275.5,881.75" style="stroke:#181818;stroke-width:1.0;"/><line style="stroke:#181818;stroke-width:1.0;stroke-dasharray:2.0,2.0;" x1="1273.5" x2="1586" y1="881.75" y2="881.75"/><text fill="#000000" font-family="sans-serif" font-size="13" lengthAdjust="spacing" textLength="78" x="1285.5" y="876.8936">IncidenciaDto</text><polygon fill="#181818" points="858,908.1016,848,912.1016,858,916.1016,854,912.1016" style="stroke:#181818;stroke-width:1.0;"/><line style="stroke:#181818;stroke-width:1.0;stroke-dasharray:2.0,2.0;" x1="852" x2="1267.5" y1="912.1016" y2="912.1016"/><text fill="#000000" font-family="sans-serif" font-size="13" lengthAdjust="spacing" textLength="70" x="864" y="907.2451">201 Created</text><polygon fill="#181818" points="630,938.4531,620,942.4531,630,946.4531,626,942.4531" style="stroke:#181818;stroke-width:1.0;"/><line style="stroke:#181818;stroke-width:1.0;stroke-dasharray:2.0,2.0;" x1="624" x2="846" y1="942.4531" y2="942.4531"/><text fill="#000000" font-family="sans-serif" font-size="13" lengthAdjust="spacing" textLength="78" x="636" y="937.5967">IncidenciaDto</text><polygon fill="#181818" points="316,968.8047,306,972.8047,316,976.8047,312,972.8047" style="stroke:#181818;stroke-width:1.0;"/><line style="stroke:#181818;stroke-width:1.0;stroke-dasharray:2.0,2.0;" x1="310" x2="618" y1="972.8047" y2="972.8047"/><text fill="#000000" font-family="sans-serif" font-size="13" lengthAdjust="spacing" textLength="204" x="322" y="967.9482">mostrarIncidenciaRegistrada (&#233;xito)</text><polygon fill="#181818" points="61,999.1563,51,1003.1563,61,1007.1563,57,1003.1563" style="stroke:#181818;stroke-width:1.0;"/><line style="stroke:#181818;stroke-width:1.0;stroke-dasharray:2.0,2.0;" x1="55" x2="304" y1="1003.1563" y2="1003.1563"/><text fill="#000000" font-family="sans-serif" font-size="13" lengthAdjust="spacing" textLength="124" x="67" y="998.2998">confirmaci&#243;n de env&#237;o</text><line style="stroke:#000000;stroke-width:1.0;stroke-dasharray:2.0,2.0;" x1="10" x2="2191.5" y1="1012.1563" y2="1012.1563"/><text fill="#000000" font-family="sans-serif" font-size="11" font-weight="bold" lengthAdjust="spacing" textLength="181" x="15" y="1023.5752">[examen ajeno o datos inv&#225;lidos]</text><polygon fill="#181818" points="1279.5,1045.3438,1269.5,1049.3438,1279.5,1053.3438,1275.5,1049.3438" style="stroke:#181818;stroke-width:1.0;"/><line style="stroke:#181818;stroke-width:1.0;stroke-dasharray:2.0,2.0;" x1="1273.5" x2="1586" y1="1049.3438" y2="1049.3438"/><text fill="#000000" font-family="sans-serif" font-size="13" lengthAdjust="spacing" textLength="194" x="1285.5" y="1044.4873">403 Forbidden / 400 Bad Request</text><polygon fill="#181818" points="858,1075.6953,848,1079.6953,858,1083.6953,854,1079.6953" style="stroke:#181818;stroke-width:1.0;"/><line style="stroke:#181818;stroke-width:1.0;stroke-dasharray:2.0,2.0;" x1="852" x2="1267.5" y1="1079.6953" y2="1079.6953"/><text fill="#000000" font-family="sans-serif" font-size="13" lengthAdjust="spacing" textLength="26" x="864" y="1074.8389">error</text><polygon fill="#181818" points="630,1106.0469,620,1110.0469,630,1114.0469,626,1110.0469" style="stroke:#181818;stroke-width:1.0;"/><line style="stroke:#181818;stroke-width:1.0;stroke-dasharray:2.0,2.0;" x1="624" x2="846" y1="1110.0469" y2="1110.0469"/><text fill="#000000" font-family="sans-serif" font-size="13" lengthAdjust="spacing" textLength="26" x="636" y="1105.1904">error</text><polygon fill="#181818" points="316,1136.3984,306,1140.3984,316,1144.3984,312,1140.3984" style="stroke:#181818;stroke-width:1.0;"/><line style="stroke:#181818;stroke-width:1.0;stroke-dasharray:2.0,2.0;" x1="310" x2="618" y1="1140.3984" y2="1140.3984"/><text fill="#000000" font-family="sans-serif" font-size="13" lengthAdjust="spacing" textLength="148" x="322" y="1135.542">muestra mensaje de error</text><polygon fill="#181818" points="61,1166.75,51,1170.75,61,1174.75,57,1170.75" style="stroke:#181818;stroke-width:1.0;"/><line style="stroke:#181818;stroke-width:1.0;stroke-dasharray:2.0,2.0;" x1="55" x2="304" y1="1170.75" y2="1170.75"/><text fill="#000000" font-family="sans-serif" font-size="13" lengthAdjust="spacing" textLength="65" x="67" y="1165.8936">advertencia</text><path d="M310,1190.75 L310,1249.75 L545,1249.75 L545,1200.75 L535,1190.75 L310,1190.75 " fill="#FEFFDD" style="stroke:#181818;stroke-width:0.5;"/><path d="M535,1190.75 L535,1200.75 L545,1200.75 L535,1190.75 " fill="#FEFFDD" style="stroke:#181818;stroke-width:0.5;"/><text fill="#000000" font-family="sans-serif" font-size="13" lengthAdjust="spacing" textLength="214" x="316" y="1209.2451">Acciones (INCIDENCIAS_ABIERTO):</text><text fill="#000000" font-family="sans-serif" font-size="13" lengthAdjust="spacing" textLength="207" x="316" y="1225.5967">- completarComunicacion() -&gt; men&#250;</text><text fill="#000000" font-family="sans-serif" font-size="13" lengthAdjust="spacing" textLength="199" x="316" y="1241.9482">- cancelarComunicacion() -&gt; men&#250;</text><!--SRC=[XLPBSzis4BxpL-puH4qjMcwJ7ZWUp-Z19CeaiYifxI79P11Y9QEc00M07jDCVaoEFVJKMw_wOrs0fFYmxEWWKiJtxUlRNShS2xbccgt0t36kTa8kOS4oWu4vdcWqQoKDlaLZs187cAbTNskr0wit60GijKh3hLOBD4e7HB8Y5MicBPmDrMeZHShqMAQ28tqnyxl0tGSPJf68dJDW1jwDuUgAeEG6fRs-RjhO6AonYVbAgVkSwEw8wYvjbgWeCzHRaI8n-tkXJ4vzKJmbUd7Njf3isGebcg6ILgiiGqqM9cZiwrbk8jaFhSvyw2MYRQCM-ADcgeCdJKrLXkRbXcaE5_3wZxddvh-lhlpr2UTL2UgU1p-imQqMPiMAGy_9dn3ZPlgMq9nPzfaP9AWoTgbnzjiRkFpLGqU382ZR0hhNJkOOqXCTyKfffeKAEm512EXbZI5JZ9SYa9qrQKSGVqYWeu0nB8Gy0Jm225n85SFBP0uNM60lKfQXvCutX5JIJb3WkatxkUtX4Joowlr728tA573CO5qaMVTPfO7xmtVlpk5SR4KAPKKqMKKj_c9WC4C_J1mXZ_540Jqe5Kgo0WC_WHLhHHUE9jLYdOh3lx8efQTiMIOuWuNIgqsMPvjJpptpl464oruKFU_rEWzT9t8hc8Pgj9fweJ-kT0svLIVrIZKsSCFcxv6ZrTMhJKWCjpSpah0steLqGGr5d7moojmrM7NlIqM8QbVbe6xRXSOl4MqT3L-FqeuvV6jv6BGISkcUmyPiN8Kfda4jWs9guaAoo7NiEoc-R33y2hixr1YJCy5Z82DH3d8kuPkJmNF9ocX05cR9csGuB_k37dKVseUmYhioq8ovR32MsPArHcsfKUcOLKqT07rEvb9f4Ba2M9TB54M-39N_Sw2DG-yMKYwPZCR9P9wuh9pLLcRZoIoPpkaolwalhpEFRITQEVVLvwnXiPbgPQkLJ5luHWzwR5toPXF_tBk4eK-RU-IfqNzehpdwAzgPkjxwKrmAzuYcDJpylHTk4XpDpPdFlfX8jqVbGkWLosVMBGovFVoZ0gINTwad-nEb0jfHp2f35TiUljCmq09wkWhFUh_02wK_2qv1qSlcMQy70yPXYjIlnlwWBaX_3VIZ5QbEMvLmbZK32jjGs3wX8_HXzenlVQywIMbz1e5K5a6BvPq5jI02yVf-IzBQ3SUJuNYKq5T_zga_65EJtNHYGdJTssYTeMMw_AFYA677jIH5SlWl1p6POlOuXW80vp_u7m00]--></g></svg>