<?xml version="1.0" encoding="us-ascii" standalone="no"?><svg xmlns="http://www.w3.org/2000/svg" xmlns:xlink="http://www.w3.org/1999/xlink" contentStyleType="text/css" height="1738px" preserveAspectRatio="none" style="width:1933px;height:1738px;background:#FFFFFF;" version="1.1" viewBox="0 0 1933 1738" width="1933px" zoomAndPan="magnify"><defs/><g><rect fill="none" height="412.9219" style="stroke:#000000;stroke-width:1.5;" width="765.5" x="1151" y="312.0703"/><rect fill="none" height="65.0547" style="stroke:#000000;stroke-width:1.5;" width="405.5" x="1511" y="1361.4297"/><line style="stroke:#181818;stroke-width:0.5;stroke-dasharray:5.0,5.0;" x1="51" x2="51" y1="82.6094" y2="1655.9453"/><line style="stroke:#181818;stroke-width:0.5;stroke-dasharray:5.0,5.0;" x1="343" x2="343" y1="82.6094" y2="1655.9453"/><line style="stroke:#181818;stroke-width:0.5;stroke-dasharray:5.0,5.0;" x1="674" x2="674" y1="82.6094" y2="1655.9453"/><line style="stroke:#181818;stroke-width:0.5;stroke-dasharray:5.0,5.0;" x1="895" x2="895" y1="82.6094" y2="1655.9453"/><line style="stroke:#181818;stroke-width:0.5;stroke-dasharray:5.0,5.0;" x1="1078" x2="1078" y1="82.6094" y2="1655.9453"/><line style="stroke:#181818;stroke-width:0.5;stroke-dasharray:5.0,5.0;" x1="1226" x2="1226" y1="82.6094" y2="1655.9453"/><line style="stroke:#181818;stroke-width:0.5;stroke-dasharray:5.0,5.0;" x1="1402.5" x2="1402.5" y1="82.6094" y2="1655.9453"/><line style="stroke:#181818;stroke-width:0.5;stroke-dasharray:5.0,5.0;" x1="1573" x2="1573" y1="82.6094" y2="1655.9453"/><line style="stroke:#181818;stroke-width:0.5;stroke-dasharray:5.0,5.0;" x1="1854.5" x2="1854.5" y1="82.6094" y2="1655.9453"/><text fill="#000000" font-family="sans-serif" font-size="14" lengthAdjust="spacing" textLength="87" x="5" y="79.5332">Administrador</text><ellipse cx="51.5" cy="13.5" fill="#E2E2F0" rx="8" ry="8" style="stroke:#181818;stroke-width:0.5;"/><path d="M51.5,21.5 L51.5,48.5 M38.5,29.5 L64.5,29.5 M51.5,48.5 L38.5,63.5 M51.5,48.5 L64.5,63.5 " fill="none" style="stroke:#181818;stroke-width:0.5;"/><text fill="#000000" font-family="sans-serif" font-size="14" lengthAdjust="spacing" textLength="87" x="5" y="1669.4785">Administrador</text><ellipse cx="51.5" cy="1681.0547" fill="#E2E2F0" rx="8" ry="8" style="stroke:#181818;stroke-width:0.5;"/><path d="M51.5,1689.0547 L51.5,1716.0547 M38.5,1697.0547 L64.5,1697.0547 M51.5,1716.0547 L38.5,1731.0547 M51.5,1716.0547 L64.5,1731.0547 " fill="none" style="stroke:#181818;stroke-width:0.5;"/><rect fill="#E2E2F0" height="66.8281" rx="2.5" ry="2.5" style="stroke:#181818;stroke-width:0.5;" width="165" x="261" y="14.7813"/><text fill="#000000" font-family="sans-serif" font-size="14" font-style="italic" lengthAdjust="spacing" textLength="89" x="299" y="36.3145">&#171;Component&#187;</text><text fill="#000000" font-family="sans-serif" font-size="14" lengthAdjust="spacing" textLength="151" x="268" y="53.9238">GenerarCalendarioView</text><text fill="#000000" font-family="sans-serif" font-size="14" lengthAdjust="spacing" textLength="47" x="320" y="71.5332">(React)</text><rect fill="#E2E2F0" height="66.8281" rx="2.5" ry="2.5" style="stroke:#181818;stroke-width:0.5;" width="165" x="261" y="1654.9453"/><text fill="#000000" font-family="sans-serif" font-size="14" font-style="italic" lengthAdjust="spacing" textLength="89" x="299" y="1676.4785">&#171;Component&#187;</text><text fill="#000000" font-family="sans-serif" font-size="14" lengthAdjust="spacing" textLength="151" x="268" y="1694.0879">GenerarCalendarioView</text><text fill="#000000" font-family="sans-serif" font-size="14" lengthAdjust="spacing" textLength="47" x="320" y="1711.6973">(React)</text><rect fill="#E2E2F0" height="66.8281" rx="2.5" ry="2.5" style="stroke:#181818;stroke-width:0.5;" width="159" x="595" y="14.7813"/><text fill="#000000" font-family="sans-serif" font-size="14" font-style="italic" lengthAdjust="spacing" textLength="50" x="649.5" y="36.3145">&#171;Hook&#187;</text><text fill="#000000" font-family="sans-serif" font-size="14" lengthAdjust="spacing" textLength="145" x="602" y="53.9238">useGenerarCalendario</text><text fill="#000000" font-family="sans-serif" font-size="14" lengthAdjust="spacing" textLength="42" x="653.5" y="71.5332">(Hook)</text><rect fill="#E2E2F0" height="66.8281" rx="2.5" ry="2.5" style="stroke:#181818;stroke-width:0.5;" width="159" x="595" y="1654.9453"/><text fill="#000000" font-family="sans-serif" font-size="14" font-style="italic" lengthAdjust="spacing" textLength="50" x="649.5" y="1676.4785">&#171;Hook&#187;</text><text fill="#000000" font-family="sans-serif" font-size="14" lengthAdjust="spacing" textLength="145" x="602" y="1694.0879">useGenerarCalendario</text><text fill="#000000" font-family="sans-serif" font-size="14" lengthAdjust="spacing" textLength="42" x="653.5" y="1711.6973">(Hook)</text><rect fill="#E2E2F0" height="66.8281" rx="2.5" ry="2.5" style="stroke:#181818;stroke-width:0.5;" width="127" x="832" y="14.7813"/><text fill="#000000" font-family="sans-serif" font-size="14" font-style="italic" lengthAdjust="spacing" textLength="62" x="864.5" y="36.3145">&#171;Service&#187;</text><text fill="#000000" font-family="sans-serif" font-size="14" lengthAdjust="spacing" textLength="113" x="839" y="53.9238">calendarioService</text><text fill="#000000" font-family="sans-serif" font-size="14" lengthAdjust="spacing" textLength="43" x="874" y="71.5332">(Axios)</text><rect fill="#E2E2F0" height="66.8281" rx="2.5" ry="2.5" style="stroke:#181818;stroke-width:0.5;" width="127" x="832" y="1654.9453"/><text fill="#000000" font-family="sans-serif" font-size="14" font-style="italic" lengthAdjust="spacing" textLength="62" x="864.5" y="1676.4785">&#171;Service&#187;</text><text fill="#000000" font-family="sans-serif" font-size="14" lengthAdjust="spacing" textLength="113" x="839" y="1694.0879">calendarioService</text><text fill="#000000" font-family="sans-serif" font-size="14" lengthAdjust="spacing" textLength="43" x="874" y="1711.6973">(Axios)</text><rect fill="#E2E2F0" height="66.8281" rx="2.5" ry="2.5" style="stroke:#181818;stroke-width:0.5;" width="145" x="1006" y="14.7813"/><text fill="#000000" font-family="sans-serif" font-size="14" font-style="italic" lengthAdjust="spacing" textLength="78" x="1039.5" y="36.3145">&#171;Controller&#187;</text><text fill="#000000" font-family="sans-serif" font-size="14" lengthAdjust="spacing" textLength="131" x="1013" y="53.9238">CalendarioController</text><text fill="#000000" font-family="sans-serif" font-size="14" lengthAdjust="spacing" textLength="53" x="1052" y="71.5332">(NestJS)</text><rect fill="#E2E2F0" height="66.8281" rx="2.5" ry="2.5" style="stroke:#181818;stroke-width:0.5;" width="145" x="1006" y="1654.9453"/><text fill="#000000" font-family="sans-serif" font-size="14" font-style="italic" lengthAdjust="spacing" textLength="78" x="1039.5" y="1676.4785">&#171;Controller&#187;</text><text fill="#000000" font-family="sans-serif" font-size="14" lengthAdjust="spacing" textLength="131" x="1013" y="1694.0879">CalendarioController</text><text fill="#000000" font-family="sans-serif" font-size="14" lengthAdjust="spacing" textLength="53" x="1052" y="1711.6973">(NestJS)</text><rect fill="#E2E2F0" height="66.8281" rx="2.5" ry="2.5" style="stroke:#181818;stroke-width:0.5;" width="130" x="1161" y="14.7813"/><text fill="#000000" font-family="sans-serif" font-size="14" font-style="italic" lengthAdjust="spacing" textLength="62" x="1195" y="36.3145">&#171;Service&#187;</text><text fill="#000000" font-family="sans-serif" font-size="14" lengthAdjust="spacing" textLength="116" x="1168" y="53.9238">CalendarioService</text><text fill="#000000" font-family="sans-serif" font-size="14" lengthAdjust="spacing" textLength="53" x="1199.5" y="71.5332">(NestJS)</text><rect fill="#E2E2F0" height="66.8281" rx="2.5" ry="2.5" style="stroke:#181818;stroke-width:0.5;" width="130" x="1161" y="1654.9453"/><text fill="#000000" font-family="sans-serif" font-size="14" font-style="italic" lengthAdjust="spacing" textLength="62" x="1195" y="1676.4785">&#171;Service&#187;</text><text fill="#000000" font-family="sans-serif" font-size="14" lengthAdjust="spacing" textLength="116" x="1168" y="1694.0879">CalendarioService</text><text fill="#000000" font-family="sans-serif" font-size="14" lengthAdjust="spacing" textLength="53" x="1199.5" y="1711.6973">(NestJS)</text><rect fill="#E2E2F0" height="66.8281" rx="2.5" ry="2.5" style="stroke:#181818;stroke-width:0.5;" width="131" x="1337.5" y="14.7813"/><text fill="#000000" font-family="sans-serif" font-size="14" font-style="italic" lengthAdjust="spacing" textLength="117" x="1344.5" y="36.3145">&#171;PureFabrication&#187;</text><text fill="#000000" font-family="sans-serif" font-size="14" lengthAdjust="spacing" textLength="113" x="1346.5" y="53.9238">CalendarioEngine</text><text fill="#000000" font-family="sans-serif" font-size="14" lengthAdjust="spacing" textLength="61" x="1372.5" y="71.5332">(Dominio)</text><rect fill="#E2E2F0" height="66.8281" rx="2.5" ry="2.5" style="stroke:#181818;stroke-width:0.5;" width="131" x="1337.5" y="1654.9453"/><text fill="#000000" font-family="sans-serif" font-size="14" font-style="italic" lengthAdjust="spacing" textLength="117" x="1344.5" y="1676.4785">&#171;PureFabrication&#187;</text><text fill="#000000" font-family="sans-serif" font-size="14" lengthAdjust="spacing" textLength="113" x="1346.5" y="1694.0879">CalendarioEngine</text><text fill="#000000" font-family="sans-serif" font-size="14" lengthAdjust="spacing" textLength="61" x="1372.5" y="1711.6973">(Dominio)</text><rect fill="#E2E2F0" height="49.2188" rx="2.5" ry="2.5" style="stroke:#181818;stroke-width:0.5;" width="104" x="1521" y="32.3906"/><text fill="#000000" font-family="sans-serif" font-size="14" font-style="italic" lengthAdjust="spacing" textLength="49" x="1548.5" y="53.9238">&#171;ORM&#187;</text><text fill="#000000" font-family="sans-serif" font-size="14" lengthAdjust="spacing" textLength="90" x="1528" y="71.5332">PrismaService</text><rect fill="#E2E2F0" height="49.2188" rx="2.5" ry="2.5" style="stroke:#181818;stroke-width:0.5;" width="104" x="1521" y="1654.9453"/><text fill="#000000" font-family="sans-serif" font-size="14" font-style="italic" lengthAdjust="spacing" textLength="49" x="1548.5" y="1676.4785">&#171;ORM&#187;</text><text fill="#000000" font-family="sans-serif" font-size="14" lengthAdjust="spacing" textLength="90" x="1528" y="1694.0879">PrismaService</text><text fill="#000000" font-family="sans-serif" font-size="14" lengthAdjust="spacing" textLength="97" x="1803.5" y="79.5332">PostgreSQL 16</text><path d="M1837,29 C1837,19 1855,19 1855,19 C1855,19 1873,19 1873,29 L1873,55 C1873,65 1855,65 1855,65 C1855,65 1837,65 1837,55 L1837,29 " fill="#E2E2F0" style="stroke:#181818;stroke-width:1.5;"/><path d="M1837,29 C1837,39 1855,39 1855,39 C1855,39 1873,39 1873,29 " fill="none" style="stroke:#181818;stroke-width:1.5;"/><text fill="#000000" font-family="sans-serif" font-size="14" lengthAdjust="spacing" textLength="97" x="1803.5" y="1669.4785">PostgreSQL 16</text><path d="M1837,1682.5547 C1837,1672.5547 1855,1672.5547 1855,1672.5547 C1855,1672.5547 1873,1672.5547 1873,1682.5547 L1873,1708.5547 C1873,1718.5547 1855,1718.5547 1855,1718.5547 C1855,1718.5547 1837,1718.5547 1837,1708.5547 L1837,1682.5547 " fill="#E2E2F0" style="stroke:#181818;stroke-width:1.5;"/><path d="M1837,1682.5547 C1837,1692.5547 1855,1692.5547 1855,1692.5547 C1855,1692.5547 1873,1692.5547 1873,1682.5547 " fill="none" style="stroke:#181818;stroke-width:1.5;"/><rect fill="#EEEEEE" height="3" style="stroke:#EEEEEE;stroke-width:1.0;" width="1926.5" x="0" y="113.7852"/><line style="stroke:#000000;stroke-width:1.0;" x1="0" x2="1926.5" y1="113.7852" y2="113.7852"/><line style="stroke:#000000;stroke-width:1.0;" x1="0" x2="1926.5" y1="116.7852" y2="116.7852"/><rect fill="#EEEEEE" height="24.3516" style="stroke:#000000;stroke-width:2.0;" width="419" x="753.75" y="102.6094"/><text fill="#000000" font-family="sans-serif" font-size="13" font-weight="bold" lengthAdjust="spacing" textLength="401" x="759.75" y="120.1045">Fase 1: Generaci&#243;n de la propuesta (CALENDARIO_GENERADO)</text><polygon fill="#181818" points="331.5,171.6641,341.5,175.6641,331.5,179.6641,335.5,175.6641" style="stroke:#181818;stroke-width:1.0;"/><line style="stroke:#181818;stroke-width:1.0;" x1="51.5" x2="337.5" y1="175.6641" y2="175.6641"/><text fill="#000000" font-family="sans-serif" font-size="13" lengthAdjust="spacing" textLength="123" x="58.5" y="154.4561">Configura par&#225;metros</text><text fill="#000000" font-family="sans-serif" font-size="13" lengthAdjust="spacing" textLength="268" x="58.5" y="170.8076">(fechaInicio, fechaFin, franjas) y pulsa Generar</text><polygon fill="#181818" points="662.5,202.0156,672.5,206.0156,662.5,210.0156,666.5,206.0156" style="stroke:#181818;stroke-width:1.0;"/><line style="stroke:#181818;stroke-width:1.0;" x1="343.5" x2="668.5" y1="206.0156" y2="206.0156"/><text fill="#000000" font-family="sans-serif" font-size="13" lengthAdjust="spacing" textLength="85" x="350.5" y="201.1592">generar(config)</text><polygon fill="#181818" points="883.5,232.3672,893.5,236.3672,883.5,240.3672,887.5,236.3672" style="stroke:#181818;stroke-width:1.0;"/><line style="stroke:#181818;stroke-width:1.0;" x1="674.5" x2="889.5" y1="236.3672" y2="236.3672"/><text fill="#000000" font-family="sans-serif" font-size="13" lengthAdjust="spacing" textLength="178" x="681.5" y="231.5107">generar(GenerarCalendarioDto)</text><polygon fill="#181818" points="1066.5,262.7188,1076.5,266.7188,1066.5,270.7188,1070.5,266.7188" style="stroke:#181818;stroke-width:1.0;"/><line style="stroke:#181818;stroke-width:1.0;" x1="895.5" x2="1072.5" y1="266.7188" y2="266.7188"/><text fill="#000000" font-family="sans-serif" font-size="13" lengthAdjust="spacing" textLength="149" x="902.5" y="261.8623">POST /calendario/generar</text><polygon fill="#181818" points="1214,293.0703,1224,297.0703,1214,301.0703,1218,297.0703" style="stroke:#181818;stroke-width:1.0;"/><line style="stroke:#181818;stroke-width:1.0;" x1="1078.5" x2="1220" y1="297.0703" y2="297.0703"/><text fill="#000000" font-family="sans-serif" font-size="13" lengthAdjust="spacing" textLength="69" x="1085.5" y="292.2139">generar(dto)</text><path d="M1151,312.0703 L1378,312.0703 L1378,320.4219 L1368,330.4219 L1151,330.4219 L1151,312.0703 " fill="#EEEEEE" style="stroke:#000000;stroke-width:1.5;"/><rect fill="none" height="412.9219" style="stroke:#000000;stroke-width:1.5;" width="765.5" x="1151" y="312.0703"/><text fill="#000000" font-family="sans-serif" font-size="13" font-weight="bold" lengthAdjust="spacing" textLength="182" x="1166" y="326.5654">Carga de datos (solo lectura)</text><polygon fill="#181818" points="1561,348.7734,1571,352.7734,1561,356.7734,1565,352.7734" style="stroke:#181818;stroke-width:1.0;"/><line style="stroke:#181818;stroke-width:1.0;" x1="1226" x2="1567" y1="352.7734" y2="352.7734"/><text fill="#000000" font-family="sans-serif" font-size="13" lengthAdjust="spacing" textLength="253" x="1233" y="347.917">examen.findMany({ include: profesor, aula })</text><polygon fill="#181818" points="1843,379.125,1853,383.125,1843,387.125,1847,383.125" style="stroke:#181818;stroke-width:1.0;"/><line style="stroke:#181818;stroke-width:1.0;" x1="1573" x2="1849" y1="383.125" y2="383.125"/><text fill="#000000" font-family="sans-serif" font-size="13" lengthAdjust="spacing" textLength="154" x="1580" y="378.2686">SELECT ex&#225;menes + FKs</text><polygon fill="#181818" points="1584,409.4766,1574,413.4766,1584,417.4766,1580,413.4766" style="stroke:#181818;stroke-width:1.0;"/><line style="stroke:#181818;stroke-width:1.0;stroke-dasharray:2.0,2.0;" x1="1578" x2="1854" y1="413.4766" y2="413.4766"/><text fill="#000000" font-family="sans-serif" font-size="13" lengthAdjust="spacing" textLength="62" x="1590" y="408.6201">Ex&#225;menes</text><polygon fill="#181818" points="1561,439.8281,1571,443.8281,1561,447.8281,1565,443.8281" style="stroke:#181818;stroke-width:1.0;"/><line style="stroke:#181818;stroke-width:1.0;" x1="1226" x2="1567" y1="443.8281" y2="443.8281"/><text fill="#000000" font-family="sans-serif" font-size="13" lengthAdjust="spacing" textLength="88" x="1233" y="438.9717">aula.findMany()</text><polygon fill="#181818" points="1843,470.1797,1853,474.1797,1843,478.1797,1847,474.1797" style="stroke:#181818;stroke-width:1.0;"/><line style="stroke:#181818;stroke-width:1.0;" x1="1573" x2="1849" y1="474.1797" y2="474.1797"/><text fill="#000000" font-family="sans-serif" font-size="13" lengthAdjust="spacing" textLength="156" x="1580" y="469.3232">SELECT aulas (capacidad)</text><polygon fill="#181818" points="1584,500.5313,1574,504.5313,1584,508.5313,1580,504.5313" style="stroke:#181818;stroke-width:1.0;"/><line style="stroke:#181818;stroke-width:1.0;stroke-dasharray:2.0,2.0;" x1="1578" x2="1854" y1="504.5313" y2="504.5313"/><text fill="#000000" font-family="sans-serif" font-size="13" lengthAdjust="spacing" textLength="33" x="1590" y="499.6748">Aulas</text><polygon fill="#181818" points="1561,530.8828,1571,534.8828,1561,538.8828,1565,534.8828" style="stroke:#181818;stroke-width:1.0;"/><line style="stroke:#181818;stroke-width:1.0;" x1="1226" x2="1567" y1="534.8828" y2="534.8828"/><text fill="#000000" font-family="sans-serif" font-size="13" lengthAdjust="spacing" textLength="242" x="1233" y="530.0264">profesor.findMany({ include: asignaturas })</text><polygon fill="#181818" points="1843,561.2344,1853,565.2344,1843,569.2344,1847,565.2344" style="stroke:#181818;stroke-width:1.0;"/><line style="stroke:#181818;stroke-width:1.0;" x1="1573" x2="1849" y1="565.2344" y2="565.2344"/><text fill="#000000" font-family="sans-serif" font-size="13" lengthAdjust="spacing" textLength="114" x="1580" y="560.3779">SELECT profesores</text><polygon fill="#181818" points="1584,591.5859,1574,595.5859,1584,599.5859,1580,595.5859" style="stroke:#181818;stroke-width:1.0;"/><line style="stroke:#181818;stroke-width:1.0;stroke-dasharray:2.0,2.0;" x1="1578" x2="1854" y1="595.5859" y2="595.5859"/><text fill="#000000" font-family="sans-serif" font-size="13" lengthAdjust="spacing" textLength="62" x="1590" y="590.7295">Profesores</text><polygon fill="#181818" points="1561,621.9375,1571,625.9375,1561,629.9375,1565,625.9375" style="stroke:#181818;stroke-width:1.0;"/><line style="stroke:#181818;stroke-width:1.0;" x1="1226" x2="1567" y1="625.9375" y2="625.9375"/><text fill="#000000" font-family="sans-serif" font-size="13" lengthAdjust="spacing" textLength="323" x="1233" y="621.0811">asignatura.findMany() + matricula.groupBy(asignaturaId)</text><polygon fill="#181818" points="1843,652.2891,1853,656.2891,1843,660.2891,1847,656.2891" style="stroke:#181818;stroke-width:1.0;"/><line style="stroke:#181818;stroke-width:1.0;" x1="1573" x2="1849" y1="656.2891" y2="656.2891"/><text fill="#000000" font-family="sans-serif" font-size="13" lengthAdjust="spacing" textLength="258" x="1580" y="651.4326">SELECT asignaturas + conteo de matr&#237;culas</text><polygon fill="#181818" points="1584,682.6406,1574,686.6406,1584,690.6406,1580,686.6406" style="stroke:#181818;stroke-width:1.0;"/><line style="stroke:#181818;stroke-width:1.0;stroke-dasharray:2.0,2.0;" x1="1578" x2="1854" y1="686.6406" y2="686.6406"/><text fill="#000000" font-family="sans-serif" font-size="13" lengthAdjust="spacing" textLength="206" x="1590" y="681.7842">Asignaturas + aforos por asignatura</text><polygon fill="#181818" points="1237,712.9922,1227,716.9922,1237,720.9922,1233,716.9922" style="stroke:#181818;stroke-width:1.0;"/><line style="stroke:#181818;stroke-width:1.0;stroke-dasharray:2.0,2.0;" x1="1231" x2="1572" y1="716.9922" y2="716.9922"/><text fill="#000000" font-family="sans-serif" font-size="13" lengthAdjust="spacing" textLength="106" x="1243" y="712.1357">Datos en memoria</text><polygon fill="#181818" points="1391,750.3438,1401,754.3438,1391,758.3438,1395,754.3438" style="stroke:#181818;stroke-width:1.0;"/><line style="stroke:#181818;stroke-width:1.0;" x1="1226" x2="1397" y1="754.3438" y2="754.3438"/><text fill="#000000" font-family="sans-serif" font-size="13" lengthAdjust="spacing" textLength="153" x="1233" y="749.4873">generar(GeneracionConfig)</text><path d="M1408,767.3438 L1408,924.3438 L1768,924.3438 L1768,777.3438 L1758,767.3438 L1408,767.3438 " fill="#FEFFDD" style="stroke:#181818;stroke-width:0.5;"/><path d="M1758,767.3438 L1758,777.3438 L1768,777.3438 L1758,767.3438 " fill="#FEFFDD" style="stroke:#181818;stroke-width:0.5;"/><text fill="#000000" font-family="sans-serif" font-size="13" lengthAdjust="spacing" textLength="211" x="1414" y="785.8389">Algoritmo puro en memoria (sin BD):</text><text fill="#000000" font-family="sans-serif" font-size="13" lengthAdjust="spacing" textLength="271" x="1414" y="802.1904">- generarRanurasTemporales(inicio, fin, franjas)</text><text fill="#000000" font-family="sans-serif" font-size="13" lengthAdjust="spacing" textLength="228" x="1414" y="818.542">- por cada examen: buscarSlotOptimo()</text><text fill="#000000" font-family="sans-serif" font-size="13" lengthAdjust="spacing" textLength="221" x="1422" y="834.8936">* Aula.tieneCapacidadSuficiente(aforo)</text><text fill="#000000" font-family="sans-serif" font-size="13" lengthAdjust="spacing" textLength="331" x="1422" y="851.2451">* Aula.estaDisponibleEn(slot)  (intersecci&#243;n de intervalos)</text><text fill="#000000" font-family="sans-serif" font-size="13" lengthAdjust="spacing" textLength="193" x="1422" y="867.5967">* Profesor.tieneCruceHorario(slot)</text><text fill="#000000" font-family="sans-serif" font-size="13" lengthAdjust="spacing" textLength="271" x="1422" y="883.9482">* sinSolapamientoEstudiantes(slot, asignatura)</text><text fill="#000000" font-family="sans-serif" font-size="13" lengthAdjust="spacing" textLength="220" x="1422" y="900.2998">* calcularPuntuacionDispersion(grado)</text><text fill="#000000" font-family="sans-serif" font-size="13" lengthAdjust="spacing" textLength="199" x="1414" y="916.6514">- registrarAsignacion() en memoria</text><polygon fill="#181818" points="1237,964.2109,1227,968.2109,1237,972.2109,1233,968.2109" style="stroke:#181818;stroke-width:1.0;"/><line style="stroke:#181818;stroke-width:1.0;stroke-dasharray:2.0,2.0;" x1="1231" x2="1402" y1="968.2109" y2="968.2109"/><text fill="#000000" font-family="sans-serif" font-size="13" lengthAdjust="spacing" textLength="123" x="1243" y="947.0029">GeneracionResultDto</text><text fill="#000000" font-family="sans-serif" font-size="13" lengthAdjust="spacing" textLength="152" x="1243" y="963.3545">(propuesta[] + conflictos[])</text><polygon fill="#181818" points="1089.5,994.5625,1079.5,998.5625,1089.5,1002.5625,1085.5,998.5625" style="stroke:#181818;stroke-width:1.0;"/><line style="stroke:#181818;stroke-width:1.0;stroke-dasharray:2.0,2.0;" x1="1083.5" x2="1225" y1="998.5625" y2="998.5625"/><text fill="#000000" font-family="sans-serif" font-size="13" lengthAdjust="spacing" textLength="123" x="1095.5" y="993.7061">GeneracionResultDto</text><polygon fill="#181818" points="906.5,1024.9141,896.5,1028.9141,906.5,1032.9141,902.5,1028.9141" style="stroke:#181818;stroke-width:1.0;"/><line style="stroke:#181818;stroke-width:1.0;stroke-dasharray:2.0,2.0;" x1="900.5" x2="1077.5" y1="1028.9141" y2="1028.9141"/><text fill="#000000" font-family="sans-serif" font-size="13" lengthAdjust="spacing" textLength="90" x="912.5" y="1024.0576">200 OK (JSON)</text><polygon fill="#181818" points="685.5,1055.2656,675.5,1059.2656,685.5,1063.2656,681.5,1059.2656" style="stroke:#181818;stroke-width:1.0;"/><line style="stroke:#181818;stroke-width:1.0;stroke-dasharray:2.0,2.0;" x1="679.5" x2="894.5" y1="1059.2656" y2="1059.2656"/><text fill="#000000" font-family="sans-serif" font-size="13" lengthAdjust="spacing" textLength="123" x="691.5" y="1054.4092">GeneracionResultDto</text><polygon fill="#181818" points="354.5,1085.6172,344.5,1089.6172,354.5,1093.6172,350.5,1089.6172" style="stroke:#181818;stroke-width:1.0;"/><line style="stroke:#181818;stroke-width:1.0;stroke-dasharray:2.0,2.0;" x1="348.5" x2="673.5" y1="1089.6172" y2="1089.6172"/><text fill="#000000" font-family="sans-serif" font-size="13" lengthAdjust="spacing" textLength="307" x="360.5" y="1084.7607">Actualiza estado (estad&#237;sticas, propuesta, conflictos)</text><polygon fill="#181818" points="62.5,1115.9688,52.5,1119.9688,62.5,1123.9688,58.5,1119.9688" style="stroke:#181818;stroke-width:1.0;"/><line style="stroke:#181818;stroke-width:1.0;stroke-dasharray:2.0,2.0;" x1="56.5" x2="342.5" y1="1119.9688" y2="1119.9688"/><text fill="#000000" font-family="sans-serif" font-size="13" lengthAdjust="spacing" textLength="195" x="68.5" y="1115.1123">Muestra resultado (NO persistido)</text><rect fill="#EEEEEE" height="3" style="stroke:#EEEEEE;stroke-width:1.0;" width="1926.5" x="0" y="1149.1445"/><line style="stroke:#000000;stroke-width:1.0;" x1="0" x2="1926.5" y1="1149.1445" y2="1149.1445"/><line style="stroke:#000000;stroke-width:1.0;" x1="0" x2="1926.5" y1="1152.1445" y2="1152.1445"/><rect fill="#EEEEEE" height="24.3516" style="stroke:#000000;stroke-width:2.0;" width="375" x="775.75" y="1137.9688"/><text fill="#000000" font-family="sans-serif" font-size="13" font-weight="bold" lengthAdjust="spacing" textLength="357" x="781.75" y="1155.4639">Fase 2: Confirmaci&#243;n y persistencia (guardarCalendario)</text><polygon fill="#181818" points="331.5,1190.6719,341.5,1194.6719,331.5,1198.6719,335.5,1194.6719" style="stroke:#181818;stroke-width:1.0;"/><line style="stroke:#181818;stroke-width:1.0;" x1="51.5" x2="337.5" y1="1194.6719" y2="1194.6719"/><text fill="#000000" font-family="sans-serif" font-size="13" lengthAdjust="spacing" textLength="197" x="58.5" y="1189.8154">Revisa y pulsa Guardar calendario</text><polygon fill="#181818" points="662.5,1221.0234,672.5,1225.0234,662.5,1229.0234,666.5,1225.0234" style="stroke:#181818;stroke-width:1.0;"/><line style="stroke:#181818;stroke-width:1.0;" x1="343.5" x2="668.5" y1="1225.0234" y2="1225.0234"/><text fill="#000000" font-family="sans-serif" font-size="13" lengthAdjust="spacing" textLength="118" x="350.5" y="1220.167">confirmar(propuesta)</text><polygon fill="#181818" points="883.5,1251.375,893.5,1255.375,883.5,1259.375,887.5,1255.375" style="stroke:#181818;stroke-width:1.0;"/><line style="stroke:#181818;stroke-width:1.0;" x1="674.5" x2="889.5" y1="1255.375" y2="1255.375"/><text fill="#000000" font-family="sans-serif" font-size="13" lengthAdjust="spacing" textLength="197" x="681.5" y="1250.5186">confirmar(ConfirmarCalendarioDto)</text><polygon fill="#181818" points="1066.5,1281.7266,1076.5,1285.7266,1066.5,1289.7266,1070.5,1285.7266" style="stroke:#181818;stroke-width:1.0;"/><line style="stroke:#181818;stroke-width:1.0;" x1="895.5" x2="1072.5" y1="1285.7266" y2="1285.7266"/><text fill="#000000" font-family="sans-serif" font-size="13" lengthAdjust="spacing" textLength="159" x="902.5" y="1280.8701">POST /calendario/confirmar</text><polygon fill="#181818" points="1214,1312.0781,1224,1316.0781,1214,1320.0781,1218,1316.0781" style="stroke:#181818;stroke-width:1.0;"/><line style="stroke:#181818;stroke-width:1.0;" x1="1078.5" x2="1220" y1="1316.0781" y2="1316.0781"/><text fill="#000000" font-family="sans-serif" font-size="13" lengthAdjust="spacing" textLength="79" x="1085.5" y="1311.2217">confirmar(dto)</text><polygon fill="#181818" points="1561,1342.4297,1571,1346.4297,1561,1350.4297,1565,1346.4297" style="stroke:#181818;stroke-width:1.0;"/><line style="stroke:#181818;stroke-width:1.0;" x1="1226" x2="1567" y1="1346.4297" y2="1346.4297"/><text fill="#000000" font-family="sans-serif" font-size="13" lengthAdjust="spacing" textLength="155" x="1233" y="1341.5732">$transaction(asignaciones)</text><path d="M1511,1361.4297 L1584,1361.4297 L1584,1369.7813 L1574,1379.7813 L1511,1379.7813 L1511,1361.4297 " fill="#EEEEEE" style="stroke:#000000;stroke-width:1.5;"/><rect fill="none" height="65.0547" style="stroke:#000000;stroke-width:1.5;" width="405.5" x="1511" y="1361.4297"/><text fill="#000000" font-family="sans-serif" font-size="13" font-weight="bold" lengthAdjust="spacing" textLength="28" x="1526" y="1375.9248">loop</text><text fill="#000000" font-family="sans-serif" font-size="11" font-weight="bold" lengthAdjust="spacing" textLength="177" x="1599" y="1374.8486">[por cada asignaci&#243;n propuesta]</text><polygon fill="#181818" points="1843,1414.4844,1853,1418.4844,1843,1422.4844,1847,1418.4844" style="stroke:#181818;stroke-width:1.0;"/><line style="stroke:#181818;stroke-width:1.0;" x1="1573" x2="1849" y1="1418.4844" y2="1418.4844"/><text fill="#000000" font-family="sans-serif" font-size="13" lengthAdjust="spacing" textLength="114" x="1580" y="1397.2764">UPDATE "Examen"</text><text fill="#000000" font-family="sans-serif" font-size="13" lengthAdjust="spacing" textLength="199" x="1580" y="1413.6279">SET fecha, hora, aulaId, profesorId</text><polygon fill="#181818" points="1584,1451.8359,1574,1455.8359,1584,1459.8359,1580,1455.8359" style="stroke:#181818;stroke-width:1.0;"/><line style="stroke:#181818;stroke-width:1.0;stroke-dasharray:2.0,2.0;" x1="1578" x2="1854" y1="1455.8359" y2="1455.8359"/><text fill="#000000" font-family="sans-serif" font-size="13" lengthAdjust="spacing" textLength="51" x="1590" y="1450.9795">COMMIT</text><polygon fill="#181818" points="1237,1482.1875,1227,1486.1875,1237,1490.1875,1233,1486.1875" style="stroke:#181818;stroke-width:1.0;"/><line style="stroke:#181818;stroke-width:1.0;stroke-dasharray:2.0,2.0;" x1="1231" x2="1572" y1="1486.1875" y2="1486.1875"/><text fill="#000000" font-family="sans-serif" font-size="13" lengthAdjust="spacing" textLength="139" x="1243" y="1481.3311">Ex&#225;menes actualizados</text><polygon fill="#181818" points="1089.5,1512.5391,1079.5,1516.5391,1089.5,1520.5391,1085.5,1516.5391" style="stroke:#181818;stroke-width:1.0;"/><line style="stroke:#181818;stroke-width:1.0;stroke-dasharray:2.0,2.0;" x1="1083.5" x2="1225" y1="1516.5391" y2="1516.5391"/><text fill="#000000" font-family="sans-serif" font-size="13" lengthAdjust="spacing" textLength="119" x="1095.5" y="1511.6826">{ confirmados, total }</text><polygon fill="#181818" points="906.5,1542.8906,896.5,1546.8906,906.5,1550.8906,902.5,1546.8906" style="stroke:#181818;stroke-width:1.0;"/><line style="stroke:#181818;stroke-width:1.0;stroke-dasharray:2.0,2.0;" x1="900.5" x2="1077.5" y1="1546.8906" y2="1546.8906"/><text fill="#000000" font-family="sans-serif" font-size="13" lengthAdjust="spacing" textLength="90" x="912.5" y="1542.0342">200 OK (JSON)</text><polygon fill="#181818" points="685.5,1573.2422,675.5,1577.2422,685.5,1581.2422,681.5,1577.2422" style="stroke:#181818;stroke-width:1.0;"/><line style="stroke:#181818;stroke-width:1.0;stroke-dasharray:2.0,2.0;" x1="679.5" x2="894.5" y1="1577.2422" y2="1577.2422"/><text fill="#000000" font-family="sans-serif" font-size="13" lengthAdjust="spacing" textLength="153" x="691.5" y="1572.3857">Resultado de confirmaci&#243;n</text><polygon fill="#181818" points="354.5,1603.5938,344.5,1607.5938,354.5,1611.5938,350.5,1607.5938" style="stroke:#181818;stroke-width:1.0;"/><line style="stroke:#181818;stroke-width:1.0;stroke-dasharray:2.0,2.0;" x1="348.5" x2="673.5" y1="1607.5938" y2="1607.5938"/><text fill="#000000" font-family="sans-serif" font-size="13" lengthAdjust="spacing" textLength="111" x="360.5" y="1602.7373">Estado actualizado</text><polygon fill="#181818" points="62.5,1633.9453,52.5,1637.9453,62.5,1641.9453,58.5,1637.9453" style="stroke:#181818;stroke-width:1.0;"/><line style="stroke:#181818;stroke-width:1.0;stroke-dasharray:2.0,2.0;" x1="56.5" x2="342.5" y1="1637.9453" y2="1637.9453"/><text fill="#000000" font-family="sans-serif" font-size="13" lengthAdjust="spacing" textLength="243" x="68.5" y="1633.0889">Calendario guardado &#8594; navega a Consulta</text><!--SRC=[fLPBSjj64DtZ55sgBC2O_YwyO5cguWUoQOiYGzBPsAvK2sX24mCph9c1PCNbRGwG6-G0NkK8kabEafx1bnIbgYGhWfZkrvzv_Hhciv1Rr9Y3kSH4NGkPmWOpGu5fJZIPhPA6PcGCfZIYJ5qFjLRNO7L1GO2nLHg6IIwaC5OpZ0xOqufOR55QE7fDaZJgCMOa4zH2_Ipe-gCCbyIklID00- -dyEhLMEKSYAGzETa5A0pTmM3_DqfzBjtT4mEudttVkF5OaRuICR7Zy8jGflGyhTwoT_Mq3z2672jfjSeoqennJiQ-NPKWxO6lelvpFrARIXTcz2zoYMGgf0EOADTtLIAKRzb_KMWwnGijOhH2oNsSXHOcnog8zopViETyEMFh12rUe24sLSQccbO_dS7pbzvqCWg2usCuTSVF1r3UJ2nk_vAG46G8Mwss1TU548w7Pz7vPBYSpdzv7Pr7o-5ateFZuo3OeGiyFd4C6BX6RaHQQCP0VVjdJjn9mqLkABx4gUJyLH_ydrCX-KcZ_1LD3svWMsG6grnqm60CwLanWBHy6SOUl1VurtpSN7rhSeTb4wjwGMF8Jfsh7i1Ylbh3qvPXJokSe6F5FgExWHA76wHQ5LiOeqxHjOwRhWo4HcKACeejzw4NGElEKDKr3O2-O4xooKR8P8Ro9lmAGiPPaT30jNz3Hka-OC6tySrXL7wCC1cnzoewYyPh1d4zbcJW4Po-Csp7fu-xOQBQuhuyN8WsY_j3EJkkBSOjKoN1f7SWsD3Pt1UehkfWoMX4Aj4rp3nKRur1XqfTT0yFrzf4wLJChSlHyg2vHlWB7Ts4hUKqUQ0ddQmV0TFJad8yS7Ytt-Eg6tUwjEE56yKZ0biUeXQk4t6NVXFFC9AGKwwqm8296mJTOYi5sHy97ZmvhkP7AakWHNffGMqg1uuup5A6jBdYMTIg4uGPBIIC9hq1MpskWPSeNGbhOitNF44c5FLyTqVRkxZgOaomOlq0BWeJervboiwtLkJA4m_WHq-X9rPmY77Dj5MnOLpUAXJwPksOEfMQ2BVVn4L6aGmDO_O0E1bBsb3Sw9f_SOMPCZL0JPWgdYvYUiEbi0wKA9KP5xzI6MUJkoHKP6oH25PXhjYPzJltLhkmehZRruj2siBttkN8-V1Jc3h9BFkYAVKIgajEE4CcvExrWhkkeBhMFJgqTxiaKsIMrOx5jf7l3vzAMcuomIlUVFZKwt9bNmmFWEteuAxYldZs3ERl87oxcfzt5RQLxKDufNJNssB84ecP-8rvmTac2aB_U_lTyAP3qsyNKRzJHizl1yRONK43c3bJNZtQX_DuvtFmRMT0r_DcxRseLfNEgyLtKzkHZ1tZqm9rqbqa3ssz9Lq9NbxD4YjzeTqhk_iihYBhzgOEBhNMhixrlo-s1kl-rTQ6AvVRGGdzWKkNXZ_x75MnOItnhMHARTj9hyzSSvioxohf-yLak8xWAFB2SFHHhg9r-O7GXqiUnd87JfD-e_tJn8lUlggEvxFPT1qSbirc2mBMb4kKUMWOlZRjOCC-M6KnWs__QnwM3IrPZU8k-_R68Yg7ePFgVOnlwG0bOTdjxz__08bNn9yaw6hoGOD_0000]--></g></svg>