<?xml version="1.0" encoding="us-ascii" standalone="no"?><svg xmlns="http://www.w3.org/2000/svg" xmlns:xlink="http://www.w3.org/1999/xlink" contentStyleType="text/css" height="1096px" preserveAspectRatio="none" style="width:2738px;height:1096px;background:#FFFFFF;" version="1.1" viewBox="0 0 2738 1096" width="2738px" zoomAndPan="magnify"><defs/><g><line style="stroke:#181818;stroke-width:0.5;stroke-dasharray:5.0,5.0;" x1="31" x2="31" y1="82.6094" y2="1014.5078"/><line style="stroke:#181818;stroke-width:0.5;stroke-dasharray:5.0,5.0;" x1="243" x2="243" y1="82.6094" y2="1014.5078"/><line style="stroke:#181818;stroke-width:0.5;stroke-dasharray:5.0,5.0;" x1="524" x2="524" y1="82.6094" y2="1014.5078"/><line style="stroke:#181818;stroke-width:0.5;stroke-dasharray:5.0,5.0;" x1="816" x2="816" y1="82.6094" y2="1014.5078"/><line style="stroke:#181818;stroke-width:0.5;stroke-dasharray:5.0,5.0;" x1="1125" x2="1125" y1="82.6094" y2="1014.5078"/><line style="stroke:#181818;stroke-width:0.5;stroke-dasharray:5.0,5.0;" x1="1350.5" x2="1350.5" y1="82.6094" y2="1014.5078"/><line style="stroke:#181818;stroke-width:0.5;stroke-dasharray:5.0,5.0;" x1="1492.5" x2="1492.5" y1="82.6094" y2="1014.5078"/><line style="stroke:#181818;stroke-width:0.5;stroke-dasharray:5.0,5.0;" x1="1667.5" x2="1667.5" y1="82.6094" y2="1014.5078"/><line style="stroke:#181818;stroke-width:0.5;stroke-dasharray:5.0,5.0;" x1="1818.5" x2="1818.5" y1="82.6094" y2="1014.5078"/><line style="stroke:#181818;stroke-width:0.5;stroke-dasharray:5.0,5.0;" x1="1950.5" x2="1950.5" y1="82.6094" y2="1014.5078"/><line style="stroke:#181818;stroke-width:0.5;stroke-dasharray:5.0,5.0;" x1="2393.5" x2="2393.5" y1="82.6094" y2="1014.5078"/><line style="stroke:#181818;stroke-width:0.5;stroke-dasharray:5.0,5.0;" x1="2685" x2="2685" y1="82.6094" y2="1014.5078"/><text fill="#000000" font-family="sans-serif" font-size="14" lengthAdjust="spacing" textLength="47" x="5" y="79.5332">Alumno</text><ellipse cx="31.5" cy="13.5" fill="#E2E2F0" rx="8" ry="8" style="stroke:#181818;stroke-width:0.5;"/><path d="M31.5,21.5 L31.5,48.5 M18.5,29.5 L44.5,29.5 M31.5,48.5 L18.5,63.5 M31.5,48.5 L44.5,63.5 " fill="none" style="stroke:#181818;stroke-width:0.5;"/><text fill="#000000" font-family="sans-serif" font-size="14" lengthAdjust="spacing" textLength="47" x="5" y="1028.041">Alumno</text><ellipse cx="31.5" cy="1039.6172" fill="#E2E2F0" rx="8" ry="8" style="stroke:#181818;stroke-width:0.5;"/><path d="M31.5,1047.6172 L31.5,1074.6172 M18.5,1055.6172 L44.5,1055.6172 M31.5,1074.6172 L18.5,1089.6172 M31.5,1074.6172 L44.5,1089.6172 " fill="none" style="stroke:#181818;stroke-width:0.5;"/><rect fill="#E2E2F0" height="66.8281" rx="2.5" ry="2.5" style="stroke:#181818;stroke-width:0.5;" width="173" x="157" y="14.7813"/><text fill="#000000" font-family="sans-serif" font-size="14" font-style="italic" lengthAdjust="spacing" textLength="89" x="199" y="36.3145">&#171;Component&#187;</text><text fill="#000000" font-family="sans-serif" font-size="14" lengthAdjust="spacing" textLength="159" x="164" y="53.9238">ConsultarCalendarioView</text><text fill="#000000" font-family="sans-serif" font-size="14" lengthAdjust="spacing" textLength="47" x="220" y="71.5332">(React)</text><rect fill="#E2E2F0" height="66.8281" rx="2.5" ry="2.5" style="stroke:#181818;stroke-width:0.5;" width="173" x="157" y="1013.5078"/><text fill="#000000" font-family="sans-serif" font-size="14" font-style="italic" lengthAdjust="spacing" textLength="89" x="199" y="1035.041">&#171;Component&#187;</text><text fill="#000000" font-family="sans-serif" font-size="14" lengthAdjust="spacing" textLength="159" x="164" y="1052.6504">ConsultarCalendarioView</text><text fill="#000000" font-family="sans-serif" font-size="14" lengthAdjust="spacing" textLength="47" x="220" y="1070.2598">(React)</text><rect fill="#E2E2F0" height="66.8281" rx="2.5" ry="2.5" style="stroke:#181818;stroke-width:0.5;" width="187" x="431" y="14.7813"/><text fill="#000000" font-family="sans-serif" font-size="14" font-style="italic" lengthAdjust="spacing" textLength="89" x="480" y="36.3145">&#171;Component&#187;</text><text fill="#000000" font-family="sans-serif" font-size="14" lengthAdjust="spacing" textLength="173" x="438" y="53.9238">DescargarCalendarioModal</text><text fill="#000000" font-family="sans-serif" font-size="14" lengthAdjust="spacing" textLength="47" x="501" y="71.5332">(React)</text><rect fill="#E2E2F0" height="66.8281" rx="2.5" ry="2.5" style="stroke:#181818;stroke-width:0.5;" width="187" x="431" y="1013.5078"/><text fill="#000000" font-family="sans-serif" font-size="14" font-style="italic" lengthAdjust="spacing" textLength="89" x="480" y="1035.041">&#171;Component&#187;</text><text fill="#000000" font-family="sans-serif" font-size="14" lengthAdjust="spacing" textLength="173" x="438" y="1052.6504">DescargarCalendarioModal</text><text fill="#000000" font-family="sans-serif" font-size="14" lengthAdjust="spacing" textLength="47" x="501" y="1070.2598">(React)</text><rect fill="#E2E2F0" height="66.8281" rx="2.5" ry="2.5" style="stroke:#181818;stroke-width:0.5;" width="125" x="754" y="14.7813"/><text fill="#000000" font-family="sans-serif" font-size="14" font-style="italic" lengthAdjust="spacing" textLength="62" x="785.5" y="36.3145">&#171;Service&#187;</text><text fill="#000000" font-family="sans-serif" font-size="14" lengthAdjust="spacing" textLength="111" x="761" y="53.9238">examenesService</text><text fill="#000000" font-family="sans-serif" font-size="14" lengthAdjust="spacing" textLength="43" x="795" y="71.5332">(Axios)</text><rect fill="#E2E2F0" height="66.8281" rx="2.5" ry="2.5" style="stroke:#181818;stroke-width:0.5;" width="125" x="754" y="1013.5078"/><text fill="#000000" font-family="sans-serif" font-size="14" font-style="italic" lengthAdjust="spacing" textLength="62" x="785.5" y="1035.041">&#171;Service&#187;</text><text fill="#000000" font-family="sans-serif" font-size="14" lengthAdjust="spacing" textLength="111" x="761" y="1052.6504">examenesService</text><text fill="#000000" font-family="sans-serif" font-size="14" lengthAdjust="spacing" textLength="43" x="795" y="1070.2598">(Axios)</text><rect fill="#E2E2F0" height="66.8281" rx="2.5" ry="2.5" style="stroke:#181818;stroke-width:0.5;" width="141" x="1055" y="14.7813"/><text fill="#000000" font-family="sans-serif" font-size="14" font-style="italic" lengthAdjust="spacing" textLength="78" x="1086.5" y="36.3145">&#171;Controller&#187;</text><text fill="#000000" font-family="sans-serif" font-size="14" lengthAdjust="spacing" textLength="127" x="1062" y="53.9238">ExamenesController</text><text fill="#000000" font-family="sans-serif" font-size="14" lengthAdjust="spacing" textLength="53" x="1099" y="71.5332">(NestJS)</text><rect fill="#E2E2F0" height="66.8281" rx="2.5" ry="2.5" style="stroke:#181818;stroke-width:0.5;" width="141" x="1055" y="1013.5078"/><text fill="#000000" font-family="sans-serif" font-size="14" font-style="italic" lengthAdjust="spacing" textLength="78" x="1086.5" y="1035.041">&#171;Controller&#187;</text><text fill="#000000" font-family="sans-serif" font-size="14" lengthAdjust="spacing" textLength="127" x="1062" y="1052.6504">ExamenesController</text><text fill="#000000" font-family="sans-serif" font-size="14" lengthAdjust="spacing" textLength="53" x="1099" y="1070.2598">(NestJS)</text><rect fill="#E2E2F0" height="49.2188" rx="2.5" ry="2.5" style="stroke:#181818;stroke-width:0.5;" width="130" x="1285.5" y="32.3906"/><text fill="#000000" font-family="sans-serif" font-size="14" font-style="italic" lengthAdjust="spacing" textLength="56" x="1322.5" y="53.9238">&#171;Guard&#187;</text><text fill="#000000" font-family="sans-serif" font-size="14" lengthAdjust="spacing" textLength="116" x="1292.5" y="71.5332">RolesGuard / JWT</text><rect fill="#E2E2F0" height="49.2188" rx="2.5" ry="2.5" style="stroke:#181818;stroke-width:0.5;" width="130" x="1285.5" y="1013.5078"/><text fill="#000000" font-family="sans-serif" font-size="14" font-style="italic" lengthAdjust="spacing" textLength="56" x="1322.5" y="1035.041">&#171;Guard&#187;</text><text fill="#000000" font-family="sans-serif" font-size="14" lengthAdjust="spacing" textLength="116" x="1292.5" y="1052.6504">RolesGuard / JWT</text><rect fill="#E2E2F0" height="66.8281" rx="2.5" ry="2.5" style="stroke:#181818;stroke-width:0.5;" width="135" x="1425.5" y="14.7813"/><text fill="#000000" font-family="sans-serif" font-size="14" font-style="italic" lengthAdjust="spacing" textLength="62" x="1462" y="36.3145">&#171;Service&#187;</text><text fill="#000000" font-family="sans-serif" font-size="14" lengthAdjust="spacing" textLength="121" x="1432.5" y="53.9238">ExportacionService</text><text fill="#000000" font-family="sans-serif" font-size="14" lengthAdjust="spacing" textLength="53" x="1466.5" y="71.5332">(NestJS)</text><rect fill="#E2E2F0" height="66.8281" rx="2.5" ry="2.5" style="stroke:#181818;stroke-width:0.5;" width="135" x="1425.5" y="1013.5078"/><text fill="#000000" font-family="sans-serif" font-size="14" font-style="italic" lengthAdjust="spacing" textLength="62" x="1462" y="1035.041">&#171;Service&#187;</text><text fill="#000000" font-family="sans-serif" font-size="14" lengthAdjust="spacing" textLength="121" x="1432.5" y="1052.6504">ExportacionService</text><text fill="#000000" font-family="sans-serif" font-size="14" lengthAdjust="spacing" textLength="53" x="1466.5" y="1070.2598">(NestJS)</text><rect fill="#E2E2F0" height="49.2188" rx="2.5" ry="2.5" style="stroke:#181818;stroke-width:0.5;" width="165" x="1585.5" y="32.3906"/><text fill="#000000" font-family="sans-serif" font-size="14" font-style="italic" lengthAdjust="spacing" textLength="64" x="1636" y="53.9238">&#171;Factory&#187;</text><text fill="#000000" font-family="sans-serif" font-size="14" lengthAdjust="spacing" textLength="151" x="1592.5" y="71.5332">ExamenExporterFactory</text><rect fill="#E2E2F0" height="49.2188" rx="2.5" ry="2.5" style="stroke:#181818;stroke-width:0.5;" width="165" x="1585.5" y="1013.5078"/><text fill="#000000" font-family="sans-serif" font-size="14" font-style="italic" lengthAdjust="spacing" textLength="64" x="1636" y="1035.041">&#171;Factory&#187;</text><text fill="#000000" font-family="sans-serif" font-size="14" lengthAdjust="spacing" textLength="151" x="1592.5" y="1052.6504">ExamenExporterFactory</text><rect fill="#E2E2F0" height="66.8281" rx="2.5" ry="2.5" style="stroke:#181818;stroke-width:0.5;" width="117" x="1760.5" y="14.7813"/><text fill="#000000" font-family="sans-serif" font-size="14" font-style="italic" lengthAdjust="spacing" textLength="69" x="1784.5" y="36.3145">&#171;Strategy&#187;</text><text fill="#000000" font-family="sans-serif" font-size="14" lengthAdjust="spacing" textLength="103" x="1767.5" y="53.9238">ExamenExporter</text><text fill="#000000" font-family="sans-serif" font-size="14" lengthAdjust="spacing" textLength="82" x="1778" y="71.5332">(Excel | PDF)</text><rect fill="#E2E2F0" height="66.8281" rx="2.5" ry="2.5" style="stroke:#181818;stroke-width:0.5;" width="117" x="1760.5" y="1013.5078"/><text fill="#000000" font-family="sans-serif" font-size="14" font-style="italic" lengthAdjust="spacing" textLength="69" x="1784.5" y="1035.041">&#171;Strategy&#187;</text><text fill="#000000" font-family="sans-serif" font-size="14" lengthAdjust="spacing" textLength="103" x="1767.5" y="1052.6504">ExamenExporter</text><text fill="#000000" font-family="sans-serif" font-size="14" lengthAdjust="spacing" textLength="82" x="1778" y="1070.2598">(Excel | PDF)</text><rect fill="#E2E2F0" height="66.8281" rx="2.5" ry="2.5" style="stroke:#181818;stroke-width:0.5;" width="126" x="1887.5" y="14.7813"/><text fill="#000000" font-family="sans-serif" font-size="14" font-style="italic" lengthAdjust="spacing" textLength="62" x="1919.5" y="36.3145">&#171;Service&#187;</text><text fill="#000000" font-family="sans-serif" font-size="14" lengthAdjust="spacing" textLength="112" x="1894.5" y="53.9238">ExamenesService</text><text fill="#000000" font-family="sans-serif" font-size="14" lengthAdjust="spacing" textLength="53" x="1924" y="71.5332">(NestJS)</text><rect fill="#E2E2F0" height="66.8281" rx="2.5" ry="2.5" style="stroke:#181818;stroke-width:0.5;" width="126" x="1887.5" y="1013.5078"/><text fill="#000000" font-family="sans-serif" font-size="14" font-style="italic" lengthAdjust="spacing" textLength="62" x="1919.5" y="1035.041">&#171;Service&#187;</text><text fill="#000000" font-family="sans-serif" font-size="14" lengthAdjust="spacing" textLength="112" x="1894.5" y="1052.6504">ExamenesService</text><text fill="#000000" font-family="sans-serif" font-size="14" lengthAdjust="spacing" textLength="53" x="1924" y="1070.2598">(NestJS)</text><rect fill="#E2E2F0" height="49.2188" rx="2.5" ry="2.5" style="stroke:#181818;stroke-width:0.5;" width="104" x="2341.5" y="32.3906"/><text fill="#000000" font-family="sans-serif" font-size="14" font-style="italic" lengthAdjust="spacing" textLength="49" x="2369" y="53.9238">&#171;ORM&#187;</text><text fill="#000000" font-family="sans-serif" font-size="14" lengthAdjust="spacing" textLength="90" x="2348.5" y="71.5332">PrismaService</text><rect fill="#E2E2F0" height="49.2188" rx="2.5" ry="2.5" style="stroke:#181818;stroke-width:0.5;" width="104" x="2341.5" y="1013.5078"/><text fill="#000000" font-family="sans-serif" font-size="14" font-style="italic" lengthAdjust="spacing" textLength="49" x="2369" y="1035.041">&#171;ORM&#187;</text><text fill="#000000" font-family="sans-serif" font-size="14" lengthAdjust="spacing" textLength="90" x="2348.5" y="1052.6504">PrismaService</text><text fill="#000000" font-family="sans-serif" font-size="14" lengthAdjust="spacing" textLength="97" x="2634" y="79.5332">PostgreSQL 16</text><path d="M2667.5,29 C2667.5,19 2685.5,19 2685.5,19 C2685.5,19 2703.5,19 2703.5,29 L2703.5,55 C2703.5,65 2685.5,65 2685.5,65 C2685.5,65 2667.5,65 2667.5,55 L2667.5,29 " fill="#E2E2F0" style="stroke:#181818;stroke-width:1.5;"/><path d="M2667.5,29 C2667.5,39 2685.5,39 2685.5,39 C2685.5,39 2703.5,39 2703.5,29 " fill="none" style="stroke:#181818;stroke-width:1.5;"/><text fill="#000000" font-family="sans-serif" font-size="14" lengthAdjust="spacing" textLength="97" x="2634" y="1028.041">PostgreSQL 16</text><path d="M2667.5,1041.1172 C2667.5,1031.1172 2685.5,1031.1172 2685.5,1031.1172 C2685.5,1031.1172 2703.5,1031.1172 2703.5,1041.1172 L2703.5,1067.1172 C2703.5,1077.1172 2685.5,1077.1172 2685.5,1077.1172 C2685.5,1077.1172 2667.5,1077.1172 2667.5,1067.1172 L2667.5,1041.1172 " fill="#E2E2F0" style="stroke:#181818;stroke-width:1.5;"/><path d="M2667.5,1041.1172 C2667.5,1051.1172 2685.5,1051.1172 2685.5,1051.1172 C2685.5,1051.1172 2703.5,1051.1172 2703.5,1041.1172 " fill="none" style="stroke:#181818;stroke-width:1.5;"/><polygon fill="#181818" points="231.5,110.9609,241.5,114.9609,231.5,118.9609,235.5,114.9609" style="stroke:#181818;stroke-width:1.0;"/><line style="stroke:#181818;stroke-width:1.0;" x1="31.5" x2="237.5" y1="114.9609" y2="114.9609"/><text fill="#000000" font-family="sans-serif" font-size="13" lengthAdjust="spacing" textLength="188" x="38.5" y="110.1045">descargarCalendarioExamenes()</text><polygon fill="#181818" points="512.5,141.3125,522.5,145.3125,512.5,149.3125,516.5,145.3125" style="stroke:#181818;stroke-width:1.0;"/><line style="stroke:#181818;stroke-width:1.0;" x1="243.5" x2="518.5" y1="145.3125" y2="145.3125"/><text fill="#000000" font-family="sans-serif" font-size="13" lengthAdjust="spacing" textLength="148" x="250.5" y="140.4561">abrir (formato + opciones)</text><polygon fill="#181818" points="512.5,171.6641,522.5,175.6641,512.5,179.6641,516.5,175.6641" style="stroke:#181818;stroke-width:1.0;"/><line style="stroke:#181818;stroke-width:1.0;" x1="31.5" x2="518.5" y1="175.6641" y2="175.6641"/><text fill="#000000" font-family="sans-serif" font-size="13" lengthAdjust="spacing" textLength="208" x="38.5" y="170.8076">elige formato (pdf|excel) y columnas</text><polygon fill="#181818" points="804.5,202.0156,814.5,206.0156,804.5,210.0156,808.5,206.0156" style="stroke:#181818;stroke-width:1.0;"/><line style="stroke:#181818;stroke-width:1.0;" x1="524.5" x2="810.5" y1="206.0156" y2="206.0156"/><text fill="#000000" font-family="sans-serif" font-size="13" lengthAdjust="spacing" textLength="268" x="531.5" y="201.1592">descargarCalendario(filtros, formato, opciones)</text><polygon fill="#181818" points="1113.5,248.7188,1123.5,252.7188,1113.5,256.7188,1117.5,252.7188" style="stroke:#181818;stroke-width:1.0;"/><line style="stroke:#181818;stroke-width:1.0;" x1="816.5" x2="1119.5" y1="252.7188" y2="252.7188"/><text fill="#000000" font-family="sans-serif" font-size="13" lengthAdjust="spacing" textLength="285" x="823.5" y="231.5107">GET /examenes/exportar?formato&amp;incluirAula&amp;...</text><text fill="#000000" font-family="sans-serif" font-size="13" lengthAdjust="spacing" textLength="160" x="823.5" y="247.8623">(Authorization: Bearer JWT)</text><polygon fill="#181818" points="1338.5,279.0703,1348.5,283.0703,1338.5,287.0703,1342.5,283.0703" style="stroke:#181818;stroke-width:1.0;"/><line style="stroke:#181818;stroke-width:1.0;" x1="1125.5" x2="1344.5" y1="283.0703" y2="283.0703"/><text fill="#000000" font-family="sans-serif" font-size="13" lengthAdjust="spacing" textLength="102" x="1132.5" y="278.2139">validar token + rol</text><polygon fill="#181818" points="1136.5,309.4219,1126.5,313.4219,1136.5,317.4219,1132.5,313.4219" style="stroke:#181818;stroke-width:1.0;"/><line style="stroke:#181818;stroke-width:1.0;stroke-dasharray:2.0,2.0;" x1="1130.5" x2="1349.5" y1="313.4219" y2="313.4219"/><text fill="#000000" font-family="sans-serif" font-size="13" lengthAdjust="spacing" textLength="201" x="1142.5" y="308.5654">req.user { alumnoId, rol = Alumno }</text><polygon fill="#181818" points="1481,339.7734,1491,343.7734,1481,347.7734,1485,343.7734" style="stroke:#181818;stroke-width:1.0;"/><line style="stroke:#181818;stroke-width:1.0;" x1="1125.5" x2="1487" y1="343.7734" y2="343.7734"/><text fill="#000000" font-family="sans-serif" font-size="13" lengthAdjust="spacing" textLength="247" x="1132.5" y="338.917">exportar(filtros, formato, opciones, usuario)</text><polygon fill="#181818" points="1938.5,370.125,1948.5,374.125,1938.5,378.125,1942.5,374.125" style="stroke:#181818;stroke-width:1.0;"/><line style="stroke:#181818;stroke-width:1.0;" x1="1493" x2="1944.5" y1="374.125" y2="374.125"/><text fill="#000000" font-family="sans-serif" font-size="13" lengthAdjust="spacing" textLength="170" x="1500" y="369.2686">findCalendario(filtros, usuario)</text><polygon fill="#181818" points="2381.5,400.4766,2391.5,404.4766,2381.5,408.4766,2385.5,404.4766" style="stroke:#181818;stroke-width:1.0;"/><line style="stroke:#181818;stroke-width:1.0;" x1="1950.5" x2="2387.5" y1="404.4766" y2="404.4766"/><text fill="#000000" font-family="sans-serif" font-size="13" lengthAdjust="spacing" textLength="243" x="1957.5" y="399.6201">matricula.findMany({ where: { alumnoId } })</text><polygon fill="#181818" points="2673.5,430.8281,2683.5,434.8281,2673.5,438.8281,2677.5,434.8281" style="stroke:#181818;stroke-width:1.0;"/><line style="stroke:#181818;stroke-width:1.0;" x1="2393.5" x2="2679.5" y1="434.8281" y2="434.8281"/><text fill="#000000" font-family="sans-serif" font-size="13" lengthAdjust="spacing" textLength="199" x="2400.5" y="429.9717">SELECT asignaturas matriculadas</text><polygon fill="#181818" points="2404.5,461.1797,2394.5,465.1797,2404.5,469.1797,2400.5,465.1797" style="stroke:#181818;stroke-width:1.0;"/><line style="stroke:#181818;stroke-width:1.0;stroke-dasharray:2.0,2.0;" x1="2398.5" x2="2684.5" y1="465.1797" y2="465.1797"/><text fill="#000000" font-family="sans-serif" font-size="13" lengthAdjust="spacing" textLength="78" x="2410.5" y="460.3232">asignaturaId[]</text><polygon fill="#181818" points="1961.5,491.5313,1951.5,495.5313,1961.5,499.5313,1957.5,495.5313" style="stroke:#181818;stroke-width:1.0;"/><line style="stroke:#181818;stroke-width:1.0;stroke-dasharray:2.0,2.0;" x1="1955.5" x2="2392.5" y1="495.5313" y2="495.5313"/><text fill="#000000" font-family="sans-serif" font-size="13" lengthAdjust="spacing" textLength="134" x="1967.5" y="490.6748">asignaturas del alumno</text><polygon fill="#181818" points="2381.5,521.8828,2391.5,525.8828,2381.5,529.8828,2385.5,525.8828" style="stroke:#181818;stroke-width:1.0;"/><line style="stroke:#181818;stroke-width:1.0;" x1="1950.5" x2="2387.5" y1="525.8828" y2="525.8828"/><text fill="#000000" font-family="sans-serif" font-size="13" lengthAdjust="spacing" textLength="419" x="1957.5" y="521.0264">examen.findMany({ where: { asignatura IN matriculadas }, include: aula })</text><polygon fill="#181818" points="2673.5,552.2344,2683.5,556.2344,2673.5,560.2344,2677.5,556.2344" style="stroke:#181818;stroke-width:1.0;"/><line style="stroke:#181818;stroke-width:1.0;" x1="2393.5" x2="2679.5" y1="556.2344" y2="556.2344"/><text fill="#000000" font-family="sans-serif" font-size="13" lengthAdjust="spacing" textLength="268" x="2400.5" y="551.3779">SELECT ex&#225;menes de sus asignaturas + aula</text><polygon fill="#181818" points="2404.5,582.5859,2394.5,586.5859,2404.5,590.5859,2400.5,586.5859" style="stroke:#181818;stroke-width:1.0;"/><line style="stroke:#181818;stroke-width:1.0;stroke-dasharray:2.0,2.0;" x1="2398.5" x2="2684.5" y1="586.5859" y2="586.5859"/><text fill="#000000" font-family="sans-serif" font-size="13" lengthAdjust="spacing" textLength="62" x="2410.5" y="581.7295">Ex&#225;menes</text><polygon fill="#181818" points="1961.5,612.9375,1951.5,616.9375,1961.5,620.9375,1957.5,616.9375" style="stroke:#181818;stroke-width:1.0;"/><line style="stroke:#181818;stroke-width:1.0;stroke-dasharray:2.0,2.0;" x1="1955.5" x2="2392.5" y1="616.9375" y2="616.9375"/><text fill="#000000" font-family="sans-serif" font-size="13" lengthAdjust="spacing" textLength="110" x="1967.5" y="612.0811">Lista de ex&#225;menes</text><polygon fill="#181818" points="1504,643.2891,1494,647.2891,1504,651.2891,1500,647.2891" style="stroke:#181818;stroke-width:1.0;"/><line style="stroke:#181818;stroke-width:1.0;stroke-dasharray:2.0,2.0;" x1="1498" x2="1949.5" y1="647.2891" y2="647.2891"/><text fill="#000000" font-family="sans-serif" font-size="13" lengthAdjust="spacing" textLength="189" x="1510" y="642.4326">ExamenExportData[] (inmutable)</text><polygon fill="#181818" points="1656,673.6406,1666,677.6406,1656,681.6406,1660,677.6406" style="stroke:#181818;stroke-width:1.0;"/><line style="stroke:#181818;stroke-width:1.0;" x1="1493" x2="1662" y1="677.6406" y2="677.6406"/><text fill="#000000" font-family="sans-serif" font-size="13" lengthAdjust="spacing" textLength="80" x="1500" y="672.7842">crear(formato)</text><polygon fill="#181818" points="1504,703.9922,1494,707.9922,1504,711.9922,1500,707.9922" style="stroke:#181818;stroke-width:1.0;"/><line style="stroke:#181818;stroke-width:1.0;stroke-dasharray:2.0,2.0;" x1="1498" x2="1667" y1="707.9922" y2="707.9922"/><text fill="#000000" font-family="sans-serif" font-size="13" lengthAdjust="spacing" textLength="151" x="1510" y="703.1357">ExamenExporter concreto</text><polygon fill="#181818" points="1807,734.3438,1817,738.3438,1807,742.3438,1811,738.3438" style="stroke:#181818;stroke-width:1.0;"/><line style="stroke:#181818;stroke-width:1.0;" x1="1493" x2="1813" y1="738.3438" y2="738.3438"/><text fill="#000000" font-family="sans-serif" font-size="13" lengthAdjust="spacing" textLength="147" x="1500" y="733.4873">exportar(datos, opciones)</text><polygon fill="#181818" points="1504,764.6953,1494,768.6953,1504,772.6953,1500,768.6953" style="stroke:#181818;stroke-width:1.0;"/><line style="stroke:#181818;stroke-width:1.0;stroke-dasharray:2.0,2.0;" x1="1498" x2="1818" y1="768.6953" y2="768.6953"/><text fill="#000000" font-family="sans-serif" font-size="13" lengthAdjust="spacing" textLength="83" x="1510" y="763.8389">Buffer (binario)</text><polygon fill="#181818" points="1136.5,795.0469,1126.5,799.0469,1136.5,803.0469,1132.5,799.0469" style="stroke:#181818;stroke-width:1.0;"/><line style="stroke:#181818;stroke-width:1.0;stroke-dasharray:2.0,2.0;" x1="1130.5" x2="1492" y1="799.0469" y2="799.0469"/><text fill="#000000" font-family="sans-serif" font-size="13" lengthAdjust="spacing" textLength="110" x="1142.5" y="794.1904">Buffer + metadatos</text><polygon fill="#181818" points="827.5,858.1016,817.5,862.1016,827.5,866.1016,823.5,862.1016" style="stroke:#181818;stroke-width:1.0;"/><line style="stroke:#181818;stroke-width:1.0;stroke-dasharray:2.0,2.0;" x1="821.5" x2="1124.5" y1="862.1016" y2="862.1016"/><text fill="#000000" font-family="sans-serif" font-size="13" lengthAdjust="spacing" textLength="44" x="833.5" y="824.542">200 OK</text><text fill="#000000" font-family="sans-serif" font-size="13" lengthAdjust="spacing" textLength="186" x="833.5" y="840.8936">Content-Disposition: attachment</text><text fill="#000000" font-family="sans-serif" font-size="13" lengthAdjust="spacing" textLength="186" x="833.5" y="857.2451">(calendario.pdf | calendario.xlsx)</text><polygon fill="#181818" points="535.5,888.4531,525.5,892.4531,535.5,896.4531,531.5,892.4531" style="stroke:#181818;stroke-width:1.0;"/><line style="stroke:#181818;stroke-width:1.0;stroke-dasharray:2.0,2.0;" x1="529.5" x2="815.5" y1="892.4531" y2="892.4531"/><text fill="#000000" font-family="sans-serif" font-size="13" lengthAdjust="spacing" textLength="26" x="541.5" y="887.5967">Blob</text><line style="stroke:#181818;stroke-width:1.0;" x1="524.5" x2="566.5" y1="922.8047" y2="922.8047"/><line style="stroke:#181818;stroke-width:1.0;" x1="566.5" x2="566.5" y1="922.8047" y2="935.8047"/><line style="stroke:#181818;stroke-width:1.0;" x1="525.5" x2="566.5" y1="935.8047" y2="935.8047"/><polygon fill="#181818" points="535.5,931.8047,525.5,935.8047,535.5,939.8047,531.5,935.8047" style="stroke:#181818;stroke-width:1.0;"/><text fill="#000000" font-family="sans-serif" font-size="13" lengthAdjust="spacing" textLength="181" x="531.5" y="917.9482">crear URL + &lt;a&gt; virtual -&gt; click</text><polygon fill="#181818" points="42.5,962.1563,32.5,966.1563,42.5,970.1563,38.5,966.1563" style="stroke:#181818;stroke-width:1.0;"/><line style="stroke:#181818;stroke-width:1.0;stroke-dasharray:2.0,2.0;" x1="36.5" x2="523.5" y1="966.1563" y2="966.1563"/><text fill="#000000" font-family="sans-serif" font-size="13" lengthAdjust="spacing" textLength="113" x="48.5" y="961.2998">Archivo descargado</text><polygon fill="#181818" points="254.5,992.5078,244.5,996.5078,254.5,1000.5078,250.5,996.5078" style="stroke:#181818;stroke-width:1.0;"/><line style="stroke:#181818;stroke-width:1.0;stroke-dasharray:2.0,2.0;" x1="248.5" x2="523.5" y1="996.5078" y2="996.5078"/><text fill="#000000" font-family="sans-serif" font-size="13" lengthAdjust="spacing" textLength="257" x="260.5" y="991.6514">cerrar -&gt; regresa a CALENDARIO_ABIERTO</text><!--SRC=[XLN1Sjf84BthAxfoI44PasmEUr2ntaA0KoJOJi3PFIIfhRRKm9I76NPcP70IVqo-PNziMnf931Wx9urctdlTqthTihT2hT7W2kmICxqHQW5pb9OYsvmOickjB5sGjRYWXAJUz8tH6t0cfoZ2r6a3VPclb8wOuaGgrgWSl1WmBPSEpG0bgGoDq7y9sdnHhIang_q2qCAdCVHw0xtY6AJSsTc-n91iYcOHIbpe3EM-Hhdrd0njSKMAx8pCdKY9sVsjqDQppwjT5gXMX_HHHUSBEQEb9CCAbsJTkvcNs1sKMTGlXpfJBSc-pT5ay0hU_NrTSlrxhrS-7qTUQ-Cm5LhjSWyZUy2lKlSeCkVbnxhtr_PhfbQhvwaSTxHDIS8F-30yzy5dpg2ZHQ5HBvygtV7iar-M_eCHTeNLOSdnEyoucbumEaE7DsY9eTgwXQ7Pnmdyzdi97IPHv8q9fsU5qsB87XkgJh7LZXZ2G6-d6F3620EjkJOhT1fEGA-B3q6s7QZMO99YGL1ZM-ji_eEAUhNX7b9TmD567ioindD7CshDXMGBsKwjrmb2DrIM2NmNmzlHDRogdSwBqZdcpqhYfL2fp8Nfvn9VThlTeWTojzH6V4F7qZ4aX8Q5s9VjA0gKEOxtQ0ntA0Ld24xVakA2C2BoPwU7sHZwjvjRNdu7B8irpZe57lwePWKy70IfhCobh59_fWmTo6rUbAeTLJGMI7P5dGkL7Qjdmqg2AbQEYe5Z695oWRe5_mBLVUixR9PaA0wk0G_mq8ug4jE72LDdeybeSCsc4mk5BZVilaOjuo_FeDCmr0uupZv_RTJsRn6gPTnwFeFZkViFVppnHWR6btjfmKC7Ibza34JUU_fcjFtlP-aipWHiRlUIEod9ZouvgZbFt6yYhCD2hn4FxXOw8Xn5Gsxupr-X9TGgvzQNn6xTUQ2UQZ6aXWeBUUTmsrG7J-go2LEjcELqeDUCkC2MF78AB-rQiW7jYIVvVCwYhHkXlESQsSDUgP0di2A7fVfUQ-pFYpUlNyFL-o-gGF2lxdGe-FziXUzXTFopMFAT7FTtsZH0bySH3-vWOoljDfmbmIHBfBxPJQfwjomdV9fEECqUdi6TC2xta5IAzBPcy7lLtp7qJReKTxePSPaEKEKuJiaOBBlV4CzkYu0mw4z6byF-T7prJpyPZwRNLz7_]--></g></svg>