<?xml version="1.0" encoding="us-ascii" standalone="no"?><svg xmlns="http://www.w3.org/2000/svg" xmlns:xlink="http://www.w3.org/1999/xlink" contentStyleType="text/css" height="335px" preserveAspectRatio="none" style="width:1468px;height:335px;background:#FFFFFF;" version="1.1" viewBox="0 0 1468 335" width="1468px" zoomAndPan="magnify"><defs/><g><!--cluster editarAlumno--><g id="cluster_editarAlumno"><path d="M8.5,6 L112.5,6 A3.75,3.75 0 0 1 115,8.5 L122,29.6094 L772.5,29.6094 A2.5,2.5 0 0 1 775,32.1094 L775,325.5 A2.5,2.5 0 0 1 772.5,328 L8.5,328 A2.5,2.5 0 0 1 6,325.5 L6,8.5 A2.5,2.5 0 0 1 8.5,6 " fill="none" style="stroke:#000000;stroke-width:1.5;"/><line style="stroke:#000000;stroke-width:1.5;" x1="6" x2="122" y1="29.6094" y2="29.6094"/><text fill="#000000" font-family="sans-serif" font-size="14" font-weight="bold" lengthAdjust="spacing" textLength="103" x="10" y="22.5332">editarAlumno()</text></g><!--entity EditarAlumnoView--><g id="elem_EditarAlumnoView"><rect fill="#629EF9" height="37.6094" rx="2.5" ry="2.5" style="stroke:#181818;stroke-width:0.5;" width="133" x="625.5" y="42"/><text fill="#000000" font-family="sans-serif" font-size="14" lengthAdjust="spacing" textLength="113" x="635.5" y="66.5332">EditarAlumnoView</text></g><!--entity AlumnoController--><g id="elem_AlumnoController"><rect fill="#B5BD68" height="37.6094" rx="2.5" ry="2.5" style="stroke:#181818;stroke-width:0.5;" width="129" x="249.5" y="158"/><text fill="#000000" font-family="sans-serif" font-size="14" lengthAdjust="spacing" textLength="109" x="259.5" y="182.5332">AlumnoController</text></g><!--entity AlumnoRepository--><g id="elem_AlumnoRepository"><rect fill="#F2AC4E" height="37.6094" rx="2.5" ry="2.5" style="stroke:#181818;stroke-width:0.5;" width="135" x="160.5" y="274"/><text fill="#000000" font-family="sans-serif" font-size="14" lengthAdjust="spacing" textLength="115" x="170.5" y="298.5332">AlumnoRepository</text></g><!--entity GradoRepository--><g id="elem_GradoRepository"><rect fill="#F2AC4E" height="37.6094" rx="2.5" ry="2.5" style="stroke:#181818;stroke-width:0.5;" width="128" x="492" y="274"/><text fill="#000000" font-family="sans-serif" font-size="14" lengthAdjust="spacing" textLength="108" x="502" y="298.5332">GradoRepository</text></g><!--entity Alumno--><g id="elem_Alumno"><rect fill="#F2AC4E" height="37.6094" rx="2.5" ry="2.5" style="stroke:#181818;stroke-width:0.5;" width="67" x="655.5" y="274"/><text fill="#000000" font-family="sans-serif" font-size="14" lengthAdjust="spacing" textLength="47" x="665.5" y="298.5332">Alumno</text></g><!--entity AlumnosAbierto--><g id="elem_AlumnosAbierto"><rect fill="#CDEBA5" height="37.6094" rx="2.5" ry="2.5" style="stroke:#181818;stroke-width:0.5;" width="127" x="913.5" y="158"/><text fill="#000000" font-family="sans-serif" font-size="14" lengthAdjust="spacing" textLength="107" x="923.5" y="182.5332">:Alumnos Abierto</text></g><!--entity AlumnoAbierto--><g id="elem_AlumnoAbierto"><rect fill="#CDEBA5" height="37.6094" rx="2.5" ry="2.5" style="stroke:#181818;stroke-width:0.5;" width="120" x="1210" y="158"/><text fill="#000000" font-family="sans-serif" font-size="14" lengthAdjust="spacing" textLength="100" x="1220" y="182.5332">:Alumno Abierto</text></g><!--link AlumnosAbierto to EditarAlumnoView--><g id="link_AlumnosAbierto_EditarAlumnoView"><path d="M913.44,159.14 C861.29,145.31 796,128 796,128 C796,128 756.2752,102.7961 725.4852,83.2461 " fill="none" id="AlumnosAbierto-to-EditarAlumnoView" style="stroke:#181818;stroke-width:1.0;"/><polygon fill="#181818" points="720.42,80.03,725.8737,88.231,724.641,82.7101,730.1619,81.4774,720.42,80.03" style="stroke:#181818;stroke-width:1.0;"/><text fill="#000000" font-family="sans-serif" font-size="13" lengthAdjust="spacing" textLength="136" x="797" y="124.4951">editarAlumno(alumnoId)</text></g><!--link EditarAlumnoView to AlumnosAbierto--><g id="link_EditarAlumnoView_AlumnosAbierto"><path d="M758.57,74.99 C831.43,89.2 938,110 938,110 C938,110 951.75,133.253 963.29,152.803 " fill="none" id="EditarAlumnoView-to-AlumnosAbierto" style="stroke:#181818;stroke-width:1.0;stroke-dasharray:7.0,7.0;"/><polygon fill="#181818" points="966.34,157.97,965.2097,148.1862,963.7984,153.6642,958.3204,152.2528,966.34,157.97" style="stroke:#181818;stroke-width:1.0;"/><text fill="#000000" font-family="sans-serif" font-size="13" lengthAdjust="spacing" textLength="146" x="950" y="124.4951">&#171;finalizar&#187; abrirAlumnos()</text></g><!--link EditarAlumnoView to AlumnosAbierto--><g id="link_EditarAlumnoView_AlumnosAbierto"><path d="M758.81,69.77 C875.7,83.35 1105,110 1105,110 C1105,110 1105,128 1105,128 C1105,128 1066.968,142.2633 1030.648,155.8833 " fill="none" id="EditarAlumnoView-to-AlumnosAbierto-1" style="stroke:#181818;stroke-width:1.0;stroke-dasharray:7.0,7.0;"/><polygon fill="#181818" points="1025.03,157.99,1034.8615,158.5752,1029.7116,156.2344,1032.0525,151.0846,1025.03,157.99" style="stroke:#181818;stroke-width:1.0;"/><text fill="#000000" font-family="sans-serif" font-size="13" lengthAdjust="spacing" textLength="63" x="1106" y="124.4951">&#171;cancelar&#187;</text></g><!--link EditarAlumnoView to AlumnoController--><g id="link_EditarAlumnoView_AlumnoController"><path d="M625.23,67.02 C461.62,79.33 54,110 54,110 C54,110 54,128 54,128 C54,128 166.4896,148.7713 243.4996,162.9813 " fill="none" id="EditarAlumnoView-to-AlumnoController" style="stroke:#181818;stroke-width:1.0;"/><polygon fill="#181818" points="249.4,164.07,241.2752,158.5033,244.483,163.1627,239.8236,166.3705,249.4,164.07" style="stroke:#181818;stroke-width:1.0;"/><text fill="#000000" font-family="sans-serif" font-size="13" lengthAdjust="spacing" textLength="148" x="55" y="124.4951">solicitarEdicion(alumnoId)</text></g><!--link EditarAlumnoView to AlumnoController--><g id="link_EditarAlumnoView_AlumnoController"><path d="M625.41,69.13 C500.61,82.51 244,110 244,110 C244,110 244,128 244,128 C244,128 262.7607,140.8681 282.5907,154.4581 " fill="none" id="EditarAlumnoView-to-AlumnoController-1" style="stroke:#181818;stroke-width:1.0;"/><polygon fill="#181818" points="287.54,157.85,282.3773,149.4627,283.4156,155.0234,277.8549,156.0617,287.54,157.85" style="stroke:#181818;stroke-width:1.0;"/><text fill="#000000" font-family="sans-serif" font-size="13" lengthAdjust="spacing" textLength="93" x="245" y="124.4951">obtenerGrados()</text></g><!--link EditarAlumnoView to AlumnoController--><g id="link_EditarAlumnoView_AlumnoController"><path d="M625.17,72.42 C534.58,86.53 384,110 384,110 C384,110 358.2141,134.3024 337.4941,153.8524 " fill="none" id="EditarAlumnoView-to-AlumnoController-2" style="stroke:#181818;stroke-width:1.0;"/><polygon fill="#181818" points="333.13,157.97,342.4212,154.7029,336.7667,154.5386,336.931,148.8842,333.13,157.97" style="stroke:#181818;stroke-width:1.0;"/><text fill="#000000" font-family="sans-serif" font-size="13" lengthAdjust="spacing" textLength="375" x="385" y="124.4951">actualizar(alumnoId, nie, nombre, apellidos, correo, curso, grado)</text></g><!--link AlumnoController to AlumnoRepository--><g id="link_AlumnoController_AlumnoRepository"><path d="M249.4,189.93 C172.39,204.14 54,226 54,226 C54,226 54,244 54,244 C54,244 107.5561,258.7744 156.9261,272.3944 " fill="none" id="AlumnoController-to-AlumnoRepository" style="stroke:#181818;stroke-width:1.0;"/><polygon fill="#181818" points="162.71,273.99,155.0979,267.7406,157.8901,272.6603,152.9703,275.4525,162.71,273.99" style="stroke:#181818;stroke-width:1.0;"/><text fill="#000000" font-family="sans-serif" font-size="13" lengthAdjust="spacing" textLength="129" x="55" y="240.4951">buscarPorId(alumnoId)</text></g><!--link AlumnoController to AlumnoRepository--><g id="link_AlumnoController_AlumnoRepository"><path d="M280.61,196.01 C255.35,209.63 225,226 225,226 C225,226 225,244 225,244 C225,244 225.6455,254.2717 226.4955,267.8617 " fill="none" id="AlumnoController-to-AlumnoRepository-1" style="stroke:#181818;stroke-width:1.0;"/><polygon fill="#181818" points="226.87,273.85,230.3004,264.6179,226.5579,268.8598,222.316,265.1172,226.87,273.85" style="stroke:#181818;stroke-width:1.0;"/><text fill="#000000" font-family="sans-serif" font-size="13" lengthAdjust="spacing" textLength="140" x="226" y="240.4951">existeNIE(nie) : Boolean</text></g><!--link AlumnoController to AlumnoRepository--><g id="link_AlumnoController_AlumnoRepository"><path d="M335.55,196.15 C351.69,209.74 371,226 371,226 C371,226 371,244 371,244 C371,244 327.9182,258.4609 287.3382,272.0809 " fill="none" id="AlumnoController-to-AlumnoRepository-2" style="stroke:#181818;stroke-width:1.0;"/><polygon fill="#181818" points="281.65,273.99,291.455,274.9184,286.3901,272.3991,288.9095,267.3342,281.65,273.99" style="stroke:#181818;stroke-width:1.0;"/><text fill="#000000" font-family="sans-serif" font-size="13" lengthAdjust="spacing" textLength="106" x="372" y="240.4951">actualizar(alumno)</text></g><!--link AlumnoAbierto to AlumnoAbierto--><g id="link_AlumnoAbierto_AlumnoAbierto"><path d="M1330.3,166.13 C1349.66,166.24 1365,169.86 1365,177 C1365,184.14 1355.6599,187.7259 1336.2999,187.8359 " fill="none" id="AlumnoAbierto-to-AlumnoAbierto" style="stroke:#181818;stroke-width:1.0;"/><polygon fill="#181818" points="1330.3,187.87,1339.3226,191.8188,1335.2999,187.8416,1339.2771,183.8189,1330.3,187.87" style="stroke:#181818;stroke-width:1.0;"/><text fill="#000000" font-family="sans-serif" font-size="13" lengthAdjust="spacing" textLength="84" x="1371" y="182.4951">editarAlumno()</text></g><!--link AlumnoController to GradoRepository--><g id="link_AlumnoController_GradoRepository"><path d="M378.91,196.01 C428,209.63 487,226 487,226 C487,226 512.385,250.2717 532.815,269.8217 " fill="none" id="AlumnoController-to-GradoRepository" style="stroke:#181818;stroke-width:1.0;"/><polygon fill="#181818" points="537.15,273.97,533.413,264.8576,533.5375,270.5131,527.882,270.6376,537.15,273.97" style="stroke:#181818;stroke-width:1.0;"/><text fill="#000000" font-family="sans-serif" font-size="13" lengthAdjust="spacing" textLength="86" x="507" y="240.4951">obtenerTodos()</text></g><!--link AlumnoController to Alumno--><g id="link_AlumnoController_Alumno"><path d="M378.63,188.77 C463.54,202.92 602,226 602,226 C602,226 634.6906,250.7927 660.4506,270.3427 " fill="none" id="AlumnoController-to-Alumno" style="stroke:#181818;stroke-width:1.0;"/><polygon fill="#181818" points="665.23,273.97,660.479,265.3428,661.2471,270.9473,655.6427,271.7154,665.23,273.97" style="stroke:#181818;stroke-width:1.0;"/><text fill="#000000" font-family="sans-serif" font-size="13" lengthAdjust="spacing" textLength="53" x="627" y="240.4951">&#171;update&#187;</text></g><!--link EditarAlumnoView to AlumnoAbierto--><g id="link_EditarAlumnoView_AlumnoAbierto"><path d="M758.56,68.57 C891.66,81.72 1178,110 1178,110 C1178,110 1212.7455,134.9216 1239.9855,154.4716 " fill="none" id="EditarAlumnoView-to-AlumnoAbierto" style="stroke:#181818;stroke-width:1.0;stroke-dasharray:7.0,7.0;"/><polygon fill="#181818" points="1244.86,157.97,1239.8805,149.4727,1240.7979,155.0546,1235.2159,155.9721,1244.86,157.97" style="stroke:#181818;stroke-width:1.0;"/><text fill="#000000" font-family="sans-serif" font-size="13" lengthAdjust="spacing" textLength="46" x="1203" y="124.4951">&#171;editar&#187;</text></g><!--SRC=[bL5DJy904BtlhzZW1HBmGDG88KqGY-5YZ37UfzkHR5nscjbj58t_tOKMA2qVsaEddRptviqRzwvj1WmBQRH5lynGPcIMgnyX69K7EpSeBoRtyTtuMhQ6OvClB3avJZIofvQ4y5tqojO9sW7MXYGoKEymHucfzi0bFi1QrKQxqvBVGiZmLARSz0VnT23Z2l1LuqSTbbmdwSrjENT2rZCPWro7JVlZoLLSmfun8wSzyV88x84XFOygnCIF4FjPoLulQlYMmxqGsh0kixGZH0EwujSN2dn7HgiLD12K9blHQA1t4hirWaIIEmNyH3nBgmxshbRXRZerx__mJ8b7YxmErBMF6At5lQEzKC7wypXGFWUZlu2twtMbrHXUj4WuLCZG61rakr8HCrAeERjGvYiNsp3EPucVsdbydCNjCA0J6dT41i7-NQ7XzlJqm1YDyYm5Zr5q89FBo-RTHgFYScS8hifuqxPm5KKI4jObvV0XZcWei0hDUkul]--></g></svg>