<?xml version="1.0" encoding="us-ascii" standalone="no"?><svg xmlns="http://www.w3.org/2000/svg" xmlns:xlink="http://www.w3.org/1999/xlink" contentStyleType="text/css" height="622px" preserveAspectRatio="none" style="width:1359px;height:622px;background:#FFFFFF;" version="1.1" viewBox="0 0 1359 622" width="1359px" zoomAndPan="magnify"><defs/><g><line style="stroke:#181818;stroke-width:0.5;stroke-dasharray:5.0,5.0;" x1="51" x2="51" y1="82.6094" y2="540.5313"/><line style="stroke:#181818;stroke-width:0.5;stroke-dasharray:5.0,5.0;" x1="320" x2="320" y1="82.6094" y2="540.5313"/><line style="stroke:#181818;stroke-width:0.5;stroke-dasharray:5.0,5.0;" x1="491.5" x2="491.5" y1="82.6094" y2="540.5313"/><line style="stroke:#181818;stroke-width:0.5;stroke-dasharray:5.0,5.0;" x1="645" x2="645" y1="82.6094" y2="540.5313"/><line style="stroke:#181818;stroke-width:0.5;stroke-dasharray:5.0,5.0;" x1="874.5" x2="874.5" y1="82.6094" y2="540.5313"/><line style="stroke:#181818;stroke-width:0.5;stroke-dasharray:5.0,5.0;" x1="1123" x2="1123" y1="82.6094" y2="540.5313"/><line style="stroke:#181818;stroke-width:0.5;stroke-dasharray:5.0,5.0;" x1="1316" x2="1316" y1="82.6094" y2="540.5313"/><text fill="#000000" font-family="sans-serif" font-size="14" lengthAdjust="spacing" textLength="87" x="5" y="79.5332">Administrador</text><ellipse cx="51.5" cy="13.5" fill="#E2E2F0" rx="8" ry="8" style="stroke:#181818;stroke-width:0.5;"/><path d="M51.5,21.5 L51.5,48.5 M38.5,29.5 L64.5,29.5 M51.5,48.5 L38.5,63.5 M51.5,48.5 L64.5,63.5 " fill="none" style="stroke:#181818;stroke-width:0.5;"/><text fill="#000000" font-family="sans-serif" font-size="14" lengthAdjust="spacing" textLength="87" x="5" y="554.0645">Administrador</text><ellipse cx="51.5" cy="565.6406" fill="#E2E2F0" rx="8" ry="8" style="stroke:#181818;stroke-width:0.5;"/><path d="M51.5,573.6406 L51.5,600.6406 M38.5,581.6406 L64.5,581.6406 M51.5,600.6406 L38.5,615.6406 M51.5,600.6406 L64.5,615.6406 " fill="none" style="stroke:#181818;stroke-width:0.5;"/><rect fill="#E2E2F0" height="66.8281" rx="2.5" ry="2.5" style="stroke:#181818;stroke-width:0.5;" width="149" x="246" y="14.7813"/><text fill="#000000" font-family="sans-serif" font-size="14" font-style="italic" lengthAdjust="spacing" textLength="89" x="276" y="36.3145">&#171;Component&#187;</text><text fill="#000000" font-family="sans-serif" font-size="14" lengthAdjust="spacing" textLength="135" x="253" y="53.9238">ImportarAlumnosView</text><text fill="#000000" font-family="sans-serif" font-size="14" lengthAdjust="spacing" textLength="47" x="297" y="71.5332">(React)</text><rect fill="#E2E2F0" height="66.8281" rx="2.5" ry="2.5" style="stroke:#181818;stroke-width:0.5;" width="149" x="246" y="539.5313"/><text fill="#000000" font-family="sans-serif" font-size="14" font-style="italic" lengthAdjust="spacing" textLength="89" x="276" y="561.0645">&#171;Component&#187;</text><text fill="#000000" font-family="sans-serif" font-size="14" lengthAdjust="spacing" textLength="135" x="253" y="578.6738">ImportarAlumnosView</text><text fill="#000000" font-family="sans-serif" font-size="14" lengthAdjust="spacing" textLength="47" x="297" y="596.2832">(React)</text><rect fill="#E2E2F0" height="66.8281" rx="2.5" ry="2.5" style="stroke:#181818;stroke-width:0.5;" width="130" x="426.5" y="14.7813"/><text fill="#000000" font-family="sans-serif" font-size="14" font-style="italic" lengthAdjust="spacing" textLength="50" x="466.5" y="36.3145">&#171;Hook&#187;</text><text fill="#000000" font-family="sans-serif" font-size="14" lengthAdjust="spacing" textLength="116" x="433.5" y="53.9238">useAlumnosImport</text><text fill="#000000" font-family="sans-serif" font-size="14" lengthAdjust="spacing" textLength="42" x="470.5" y="71.5332">(Hook)</text><rect fill="#E2E2F0" height="66.8281" rx="2.5" ry="2.5" style="stroke:#181818;stroke-width:0.5;" width="130" x="426.5" y="539.5313"/><text fill="#000000" font-family="sans-serif" font-size="14" font-style="italic" lengthAdjust="spacing" textLength="50" x="466.5" y="561.0645">&#171;Hook&#187;</text><text fill="#000000" font-family="sans-serif" font-size="14" lengthAdjust="spacing" textLength="116" x="433.5" y="578.6738">useAlumnosImport</text><text fill="#000000" font-family="sans-serif" font-size="14" lengthAdjust="spacing" textLength="42" x="470.5" y="596.2832">(Hook)</text><rect fill="#E2E2F0" height="66.8281" rx="2.5" ry="2.5" style="stroke:#181818;stroke-width:0.5;" width="115" x="588" y="14.7813"/><text fill="#000000" font-family="sans-serif" font-size="14" font-style="italic" lengthAdjust="spacing" textLength="62" x="614.5" y="36.3145">&#171;Service&#187;</text><text fill="#000000" font-family="sans-serif" font-size="14" lengthAdjust="spacing" textLength="101" x="595" y="53.9238">AlumnosService</text><text fill="#000000" font-family="sans-serif" font-size="14" lengthAdjust="spacing" textLength="43" x="624" y="71.5332">(Axios)</text><rect fill="#E2E2F0" height="66.8281" rx="2.5" ry="2.5" style="stroke:#181818;stroke-width:0.5;" width="115" x="588" y="539.5313"/><text fill="#000000" font-family="sans-serif" font-size="14" font-style="italic" lengthAdjust="spacing" textLength="62" x="614.5" y="561.0645">&#171;Service&#187;</text><text fill="#000000" font-family="sans-serif" font-size="14" lengthAdjust="spacing" textLength="101" x="595" y="578.6738">AlumnosService</text><text fill="#000000" font-family="sans-serif" font-size="14" lengthAdjust="spacing" textLength="43" x="624" y="596.2832">(Axios)</text><rect fill="#E2E2F0" height="66.8281" rx="2.5" ry="2.5" style="stroke:#181818;stroke-width:0.5;" width="130" x="809.5" y="14.7813"/><text fill="#000000" font-family="sans-serif" font-size="14" font-style="italic" lengthAdjust="spacing" textLength="78" x="835.5" y="36.3145">&#171;Controller&#187;</text><text fill="#000000" font-family="sans-serif" font-size="14" lengthAdjust="spacing" textLength="116" x="816.5" y="53.9238">AlumnosController</text><text fill="#000000" font-family="sans-serif" font-size="14" lengthAdjust="spacing" textLength="53" x="848" y="71.5332">(NestJS)</text><rect fill="#E2E2F0" height="66.8281" rx="2.5" ry="2.5" style="stroke:#181818;stroke-width:0.5;" width="130" x="809.5" y="539.5313"/><text fill="#000000" font-family="sans-serif" font-size="14" font-style="italic" lengthAdjust="spacing" textLength="78" x="835.5" y="561.0645">&#171;Controller&#187;</text><text fill="#000000" font-family="sans-serif" font-size="14" lengthAdjust="spacing" textLength="116" x="816.5" y="578.6738">AlumnosController</text><text fill="#000000" font-family="sans-serif" font-size="14" lengthAdjust="spacing" textLength="53" x="848" y="596.2832">(NestJS)</text><rect fill="#E2E2F0" height="66.8281" rx="2.5" ry="2.5" style="stroke:#181818;stroke-width:0.5;" width="115" x="1066" y="14.7813"/><text fill="#000000" font-family="sans-serif" font-size="14" font-style="italic" lengthAdjust="spacing" textLength="62" x="1092.5" y="36.3145">&#171;Service&#187;</text><text fill="#000000" font-family="sans-serif" font-size="14" lengthAdjust="spacing" textLength="101" x="1073" y="53.9238">AlumnosService</text><text fill="#000000" font-family="sans-serif" font-size="14" lengthAdjust="spacing" textLength="53" x="1097" y="71.5332">(NestJS)</text><rect fill="#E2E2F0" height="66.8281" rx="2.5" ry="2.5" style="stroke:#181818;stroke-width:0.5;" width="115" x="1066" y="539.5313"/><text fill="#000000" font-family="sans-serif" font-size="14" font-style="italic" lengthAdjust="spacing" textLength="62" x="1092.5" y="561.0645">&#171;Service&#187;</text><text fill="#000000" font-family="sans-serif" font-size="14" lengthAdjust="spacing" textLength="101" x="1073" y="578.6738">AlumnosService</text><text fill="#000000" font-family="sans-serif" font-size="14" lengthAdjust="spacing" textLength="53" x="1097" y="596.2832">(NestJS)</text><text fill="#000000" font-family="sans-serif" font-size="14" lengthAdjust="spacing" textLength="77" x="1275" y="79.5332">PostgreSQL</text><path d="M1298.5,29 C1298.5,19 1316.5,19 1316.5,19 C1316.5,19 1334.5,19 1334.5,29 L1334.5,55 C1334.5,65 1316.5,65 1316.5,65 C1316.5,65 1298.5,65 1298.5,55 L1298.5,29 " fill="#E2E2F0" style="stroke:#181818;stroke-width:1.5;"/><path d="M1298.5,29 C1298.5,39 1316.5,39 1316.5,39 C1316.5,39 1334.5,39 1334.5,29 " fill="none" style="stroke:#181818;stroke-width:1.5;"/><text fill="#000000" font-family="sans-serif" font-size="14" lengthAdjust="spacing" textLength="77" x="1275" y="554.0645">PostgreSQL</text><path d="M1298.5,567.1406 C1298.5,557.1406 1316.5,557.1406 1316.5,557.1406 C1316.5,557.1406 1334.5,557.1406 1334.5,567.1406 L1334.5,593.1406 C1334.5,603.1406 1316.5,603.1406 1316.5,603.1406 C1316.5,603.1406 1298.5,603.1406 1298.5,593.1406 L1298.5,567.1406 " fill="#E2E2F0" style="stroke:#181818;stroke-width:1.5;"/><path d="M1298.5,567.1406 C1298.5,577.1406 1316.5,577.1406 1316.5,577.1406 C1316.5,577.1406 1334.5,577.1406 1334.5,567.1406 " fill="none" style="stroke:#181818;stroke-width:1.5;"/><polygon fill="#181818" points="308.5,110.9609,318.5,114.9609,308.5,118.9609,312.5,114.9609" style="stroke:#181818;stroke-width:1.0;"/><line style="stroke:#181818;stroke-width:1.0;" x1="51.5" x2="314.5" y1="114.9609" y2="114.9609"/><text fill="#000000" font-family="sans-serif" font-size="13" lengthAdjust="spacing" textLength="245" x="58.5" y="110.1045">Selecciona archivo (CSV/XLSX) y confirma</text><polygon fill="#181818" points="479.5,141.3125,489.5,145.3125,479.5,149.3125,483.5,145.3125" style="stroke:#181818;stroke-width:1.0;"/><line style="stroke:#181818;stroke-width:1.0;" x1="320.5" x2="485.5" y1="145.3125" y2="145.3125"/><text fill="#000000" font-family="sans-serif" font-size="13" lengthAdjust="spacing" textLength="111" x="327.5" y="140.4561">importAlumnos(file)</text><polygon fill="#181818" points="633.5,171.6641,643.5,175.6641,633.5,179.6641,637.5,175.6641" style="stroke:#181818;stroke-width:1.0;"/><line style="stroke:#181818;stroke-width:1.0;" x1="491.5" x2="639.5" y1="175.6641" y2="175.6641"/><text fill="#000000" font-family="sans-serif" font-size="13" lengthAdjust="spacing" textLength="113" x="498.5" y="170.8076">uploadAlumnos(file)</text><polygon fill="#181818" points="862.5,202.0156,872.5,206.0156,862.5,210.0156,866.5,206.0156" style="stroke:#181818;stroke-width:1.0;"/><line style="stroke:#181818;stroke-width:1.0;" x1="645.5" x2="868.5" y1="206.0156" y2="206.0156"/><text fill="#000000" font-family="sans-serif" font-size="13" lengthAdjust="spacing" textLength="205" x="652.5" y="201.1592">POST /alumnos/importar (multipart)</text><polygon fill="#181818" points="1111.5,232.3672,1121.5,236.3672,1111.5,240.3672,1115.5,236.3672" style="stroke:#181818;stroke-width:1.0;"/><line style="stroke:#181818;stroke-width:1.0;" x1="874.5" x2="1117.5" y1="236.3672" y2="236.3672"/><text fill="#000000" font-family="sans-serif" font-size="13" lengthAdjust="spacing" textLength="141" x="881.5" y="231.5107">procesarImportacion(file)</text><line style="stroke:#181818;stroke-width:1.0;" x1="1123.5" x2="1165.5" y1="266.7188" y2="266.7188"/><line style="stroke:#181818;stroke-width:1.0;" x1="1165.5" x2="1165.5" y1="266.7188" y2="279.7188"/><line style="stroke:#181818;stroke-width:1.0;" x1="1124.5" x2="1165.5" y1="279.7188" y2="279.7188"/><polygon fill="#181818" points="1134.5,275.7188,1124.5,279.7188,1134.5,283.7188,1130.5,279.7188" style="stroke:#181818;stroke-width:1.0;"/><text fill="#000000" font-family="sans-serif" font-size="13" lengthAdjust="spacing" textLength="132" x="1130.5" y="261.8623">Parsear y validar datos</text><polygon fill="#181818" points="1304.5,306.0703,1314.5,310.0703,1304.5,314.0703,1308.5,310.0703" style="stroke:#181818;stroke-width:1.0;"/><line style="stroke:#181818;stroke-width:1.0;" x1="1123.5" x2="1310.5" y1="310.0703" y2="310.0703"/><text fill="#000000" font-family="sans-serif" font-size="13" lengthAdjust="spacing" textLength="134" x="1130.5" y="305.2139">BEGIN TRANSACTION</text><polygon fill="#181818" points="1304.5,336.4219,1314.5,340.4219,1304.5,344.4219,1308.5,340.4219" style="stroke:#181818;stroke-width:1.0;"/><line style="stroke:#181818;stroke-width:1.0;" x1="1123.5" x2="1310.5" y1="340.4219" y2="340.4219"/><text fill="#000000" font-family="sans-serif" font-size="13" lengthAdjust="spacing" textLength="169" x="1130.5" y="335.5654">INSERT INTO alumno (batch)</text><polygon fill="#181818" points="1134.5,366.7734,1124.5,370.7734,1134.5,374.7734,1130.5,370.7734" style="stroke:#181818;stroke-width:1.0;"/><line style="stroke:#181818;stroke-width:1.0;stroke-dasharray:2.0,2.0;" x1="1128.5" x2="1315.5" y1="370.7734" y2="370.7734"/><text fill="#000000" font-family="sans-serif" font-size="13" lengthAdjust="spacing" textLength="75" x="1140.5" y="365.917">Confirmaci&#243;n</text><polygon fill="#181818" points="885.5,397.125,875.5,401.125,885.5,405.125,881.5,401.125" style="stroke:#181818;stroke-width:1.0;"/><line style="stroke:#181818;stroke-width:1.0;stroke-dasharray:2.0,2.0;" x1="879.5" x2="1122.5" y1="401.125" y2="401.125"/><text fill="#000000" font-family="sans-serif" font-size="13" lengthAdjust="spacing" textLength="225" x="891.5" y="396.2686">ImportacionResultDTO (&#201;xitos/Errores)</text><polygon fill="#181818" points="656.5,427.4766,646.5,431.4766,656.5,435.4766,652.5,431.4766" style="stroke:#181818;stroke-width:1.0;"/><line style="stroke:#181818;stroke-width:1.0;stroke-dasharray:2.0,2.0;" x1="650.5" x2="873.5" y1="431.4766" y2="431.4766"/><text fill="#000000" font-family="sans-serif" font-size="13" lengthAdjust="spacing" textLength="96" x="662.5" y="426.6201">JSON Response</text><polygon fill="#181818" points="502.5,457.8281,492.5,461.8281,502.5,465.8281,498.5,461.8281" style="stroke:#181818;stroke-width:1.0;"/><line style="stroke:#181818;stroke-width:1.0;stroke-dasharray:2.0,2.0;" x1="496.5" x2="644.5" y1="461.8281" y2="461.8281"/><text fill="#000000" font-family="sans-serif" font-size="13" lengthAdjust="spacing" textLength="130" x="508.5" y="456.9717">ImportacionResultDTO</text><polygon fill="#181818" points="331.5,488.1797,321.5,492.1797,331.5,496.1797,327.5,492.1797" style="stroke:#181818;stroke-width:1.0;"/><line style="stroke:#181818;stroke-width:1.0;stroke-dasharray:2.0,2.0;" x1="325.5" x2="490.5" y1="492.1797" y2="492.1797"/><text fill="#000000" font-family="sans-serif" font-size="13" lengthAdjust="spacing" textLength="147" x="337.5" y="487.3232">Resultado de importaci&#243;n</text><polygon fill="#181818" points="62.5,518.5313,52.5,522.5313,62.5,526.5313,58.5,522.5313" style="stroke:#181818;stroke-width:1.0;"/><line style="stroke:#181818;stroke-width:1.0;stroke-dasharray:2.0,2.0;" x1="56.5" x2="319.5" y1="522.5313" y2="522.5313"/><text fill="#000000" font-family="sans-serif" font-size="13" lengthAdjust="spacing" textLength="223" x="68.5" y="517.6748">Muestra resumen de registros creados</text><!--SRC=[XPF1RgCm48RlVefHJd2eSaTL923fBbLBqi1MFUp5DPF4AjZ8Dcdx2Fiy-mXziHs2qqAtgprXFFytC_uzjazIjTpm1ko1L_fPgZtiU6sHCIwSDX1NZLJIEaDHmqZgf90jLmvcMTDguxY9wwvHsjvBVFwfWYqI6Cw0M_YHmULbgaccKBd5Oeft5Zqv92BskzPF0zgl2Eu_dpaF5MYEKY1HyOlKTi2k_2wXVlKFEjNA6LtNQ2X1ZjPT5qE6Zy2fz_FFVviOvqY-wgBYZZzoYp3RQEls1ekxcvDwcJ0sSHak5hrr4HHOen1IAmxSY8CyQWZIudx-S5CyXF0AGgkTD0rdf2Rcv5a4ykIcRp3OoHf3TWgHvDsV2BgsrhoQojx391qP4S5cNPGmvuDuBlt5Gz1qjPEzCI4RwObEFWgrHWkqtFXnwS_Zox5aL6z4RBYnIEbVuSXhMT6ApDDsgbycf4nMtx8SocsS5t5QPklyRqcM5wjjIPzo3SC187ZaJXn2Hl6BQUNKEohassyrhlVPaD5XjcZ9XIMb3zv-lKXgTBuoHXkqKrEczbyNwnm8fRT1Z-rgNCZVurSb_4MU1sJOfvc12lszdrllHu9aqy6AuBR3_WUekwv1rNC6zxr0Mn06IMRP7m00]--></g></svg>