<?xml version="1.0" encoding="us-ascii" standalone="no"?><svg xmlns="http://www.w3.org/2000/svg" xmlns:xlink="http://www.w3.org/1999/xlink" contentStyleType="text/css" height="951px" preserveAspectRatio="none" style="width:2210px;height:951px;background:#FFFFFF;" version="1.1" viewBox="0 0 2210 951" width="2210px" zoomAndPan="magnify"><defs/><g><line style="stroke:#181818;stroke-width:0.5;stroke-dasharray:5.0,5.0;" x1="35" x2="35" y1="82.6094" y2="869.1016"/><line style="stroke:#181818;stroke-width:0.5;stroke-dasharray:5.0,5.0;" x1="326.5" x2="326.5" y1="82.6094" y2="869.1016"/><line style="stroke:#181818;stroke-width:0.5;stroke-dasharray:5.0,5.0;" x1="575" x2="575" y1="82.6094" y2="869.1016"/><line style="stroke:#181818;stroke-width:0.5;stroke-dasharray:5.0,5.0;" x1="798.5" x2="798.5" y1="82.6094" y2="869.1016"/><line style="stroke:#181818;stroke-width:0.5;stroke-dasharray:5.0,5.0;" x1="1184.5" x2="1184.5" y1="82.6094" y2="869.1016"/><line style="stroke:#181818;stroke-width:0.5;stroke-dasharray:5.0,5.0;" x1="1418" x2="1418" y1="82.6094" y2="869.1016"/><line style="stroke:#181818;stroke-width:0.5;stroke-dasharray:5.0,5.0;" x1="1556" x2="1556" y1="82.6094" y2="869.1016"/><line style="stroke:#181818;stroke-width:0.5;stroke-dasharray:5.0,5.0;" x1="1850" x2="1850" y1="82.6094" y2="869.1016"/><line style="stroke:#181818;stroke-width:0.5;stroke-dasharray:5.0,5.0;" x1="2157.5" x2="2157.5" y1="82.6094" y2="869.1016"/><text fill="#000000" font-family="sans-serif" font-size="14" lengthAdjust="spacing" textLength="54" x="5" y="79.5332">Profesor</text><ellipse cx="35" cy="13.5" fill="#E2E2F0" rx="8" ry="8" style="stroke:#181818;stroke-width:0.5;"/><path d="M35,21.5 L35,48.5 M22,29.5 L48,29.5 M35,48.5 L22,63.5 M35,48.5 L48,63.5 " fill="none" style="stroke:#181818;stroke-width:0.5;"/><text fill="#000000" font-family="sans-serif" font-size="14" lengthAdjust="spacing" textLength="54" x="5" y="882.6348">Profesor</text><ellipse cx="35" cy="894.2109" fill="#E2E2F0" rx="8" ry="8" style="stroke:#181818;stroke-width:0.5;"/><path d="M35,902.2109 L35,929.2109 M22,910.2109 L48,910.2109 M35,929.2109 L22,944.2109 M35,929.2109 L48,944.2109 " fill="none" style="stroke:#181818;stroke-width:0.5;"/><rect fill="#E2E2F0" height="66.8281" rx="2.5" ry="2.5" style="stroke:#181818;stroke-width:0.5;" width="173" x="240.5" y="14.7813"/><text fill="#000000" font-family="sans-serif" font-size="14" font-style="italic" lengthAdjust="spacing" textLength="89" x="282.5" y="36.3145">&#171;Component&#187;</text><text fill="#000000" font-family="sans-serif" font-size="14" lengthAdjust="spacing" textLength="159" x="247.5" y="53.9238">ConsultarCalendarioView</text><text fill="#000000" font-family="sans-serif" font-size="14" lengthAdjust="spacing" textLength="47" x="303.5" y="71.5332">(React)</text><rect fill="#E2E2F0" height="66.8281" rx="2.5" ry="2.5" style="stroke:#181818;stroke-width:0.5;" width="173" x="240.5" y="868.1016"/><text fill="#000000" font-family="sans-serif" font-size="14" font-style="italic" lengthAdjust="spacing" textLength="89" x="282.5" y="889.6348">&#171;Component&#187;</text><text fill="#000000" font-family="sans-serif" font-size="14" lengthAdjust="spacing" textLength="159" x="247.5" y="907.2441">ConsultarCalendarioView</text><text fill="#000000" font-family="sans-serif" font-size="14" lengthAdjust="spacing" textLength="47" x="303.5" y="924.8535">(React)</text><rect fill="#E2E2F0" height="66.8281" rx="2.5" ry="2.5" style="stroke:#181818;stroke-width:0.5;" width="106" x="522" y="14.7813"/><text fill="#000000" font-family="sans-serif" font-size="14" font-style="italic" lengthAdjust="spacing" textLength="50" x="550" y="36.3145">&#171;Hook&#187;</text><text fill="#000000" font-family="sans-serif" font-size="14" lengthAdjust="spacing" textLength="92" x="529" y="53.9238">useCalendario</text><text fill="#000000" font-family="sans-serif" font-size="14" lengthAdjust="spacing" textLength="42" x="554" y="71.5332">(Hook)</text><rect fill="#E2E2F0" height="66.8281" rx="2.5" ry="2.5" style="stroke:#181818;stroke-width:0.5;" width="106" x="522" y="868.1016"/><text fill="#000000" font-family="sans-serif" font-size="14" font-style="italic" lengthAdjust="spacing" textLength="50" x="550" y="889.6348">&#171;Hook&#187;</text><text fill="#000000" font-family="sans-serif" font-size="14" lengthAdjust="spacing" textLength="92" x="529" y="907.2441">useCalendario</text><text fill="#000000" font-family="sans-serif" font-size="14" lengthAdjust="spacing" textLength="42" x="554" y="924.8535">(Hook)</text><rect fill="#E2E2F0" height="66.8281" rx="2.5" ry="2.5" style="stroke:#181818;stroke-width:0.5;" width="125" x="736.5" y="14.7813"/><text fill="#000000" font-family="sans-serif" font-size="14" font-style="italic" lengthAdjust="spacing" textLength="62" x="768" y="36.3145">&#171;Service&#187;</text><text fill="#000000" font-family="sans-serif" font-size="14" lengthAdjust="spacing" textLength="111" x="743.5" y="53.9238">examenesService</text><text fill="#000000" font-family="sans-serif" font-size="14" lengthAdjust="spacing" textLength="43" x="777.5" y="71.5332">(Axios)</text><rect fill="#E2E2F0" height="66.8281" rx="2.5" ry="2.5" style="stroke:#181818;stroke-width:0.5;" width="125" x="736.5" y="868.1016"/><text fill="#000000" font-family="sans-serif" font-size="14" font-style="italic" lengthAdjust="spacing" textLength="62" x="768" y="889.6348">&#171;Service&#187;</text><text fill="#000000" font-family="sans-serif" font-size="14" lengthAdjust="spacing" textLength="111" x="743.5" y="907.2441">examenesService</text><text fill="#000000" font-family="sans-serif" font-size="14" lengthAdjust="spacing" textLength="43" x="777.5" y="924.8535">(Axios)</text><rect fill="#E2E2F0" height="66.8281" rx="2.5" ry="2.5" style="stroke:#181818;stroke-width:0.5;" width="141" x="1114.5" y="14.7813"/><text fill="#000000" font-family="sans-serif" font-size="14" font-style="italic" lengthAdjust="spacing" textLength="78" x="1146" y="36.3145">&#171;Controller&#187;</text><text fill="#000000" font-family="sans-serif" font-size="14" lengthAdjust="spacing" textLength="127" x="1121.5" y="53.9238">ExamenesController</text><text fill="#000000" font-family="sans-serif" font-size="14" lengthAdjust="spacing" textLength="53" x="1158.5" y="71.5332">(NestJS)</text><rect fill="#E2E2F0" height="66.8281" rx="2.5" ry="2.5" style="stroke:#181818;stroke-width:0.5;" width="141" x="1114.5" y="868.1016"/><text fill="#000000" font-family="sans-serif" font-size="14" font-style="italic" lengthAdjust="spacing" textLength="78" x="1146" y="889.6348">&#171;Controller&#187;</text><text fill="#000000" font-family="sans-serif" font-size="14" lengthAdjust="spacing" textLength="127" x="1121.5" y="907.2441">ExamenesController</text><text fill="#000000" font-family="sans-serif" font-size="14" lengthAdjust="spacing" textLength="53" x="1158.5" y="924.8535">(NestJS)</text><rect fill="#E2E2F0" height="49.2188" rx="2.5" ry="2.5" style="stroke:#181818;stroke-width:0.5;" width="130" x="1353" y="32.3906"/><text fill="#000000" font-family="sans-serif" font-size="14" font-style="italic" lengthAdjust="spacing" textLength="56" x="1390" y="53.9238">&#171;Guard&#187;</text><text fill="#000000" font-family="sans-serif" font-size="14" lengthAdjust="spacing" textLength="116" x="1360" y="71.5332">RolesGuard / JWT</text><rect fill="#E2E2F0" height="49.2188" rx="2.5" ry="2.5" style="stroke:#181818;stroke-width:0.5;" width="130" x="1353" y="868.1016"/><text fill="#000000" font-family="sans-serif" font-size="14" font-style="italic" lengthAdjust="spacing" textLength="56" x="1390" y="889.6348">&#171;Guard&#187;</text><text fill="#000000" font-family="sans-serif" font-size="14" lengthAdjust="spacing" textLength="116" x="1360" y="907.2441">RolesGuard / JWT</text><rect fill="#E2E2F0" height="66.8281" rx="2.5" ry="2.5" style="stroke:#181818;stroke-width:0.5;" width="126" x="1493" y="14.7813"/><text fill="#000000" font-family="sans-serif" font-size="14" font-style="italic" lengthAdjust="spacing" textLength="62" x="1525" y="36.3145">&#171;Service&#187;</text><text fill="#000000" font-family="sans-serif" font-size="14" lengthAdjust="spacing" textLength="112" x="1500" y="53.9238">ExamenesService</text><text fill="#000000" font-family="sans-serif" font-size="14" lengthAdjust="spacing" textLength="53" x="1529.5" y="71.5332">(NestJS)</text><rect fill="#E2E2F0" height="66.8281" rx="2.5" ry="2.5" style="stroke:#181818;stroke-width:0.5;" width="126" x="1493" y="868.1016"/><text fill="#000000" font-family="sans-serif" font-size="14" font-style="italic" lengthAdjust="spacing" textLength="62" x="1525" y="889.6348">&#171;Service&#187;</text><text fill="#000000" font-family="sans-serif" font-size="14" lengthAdjust="spacing" textLength="112" x="1500" y="907.2441">ExamenesService</text><text fill="#000000" font-family="sans-serif" font-size="14" lengthAdjust="spacing" textLength="53" x="1529.5" y="924.8535">(NestJS)</text><rect fill="#E2E2F0" height="49.2188" rx="2.5" ry="2.5" style="stroke:#181818;stroke-width:0.5;" width="104" x="1798" y="32.3906"/><text fill="#000000" font-family="sans-serif" font-size="14" font-style="italic" lengthAdjust="spacing" textLength="49" x="1825.5" y="53.9238">&#171;ORM&#187;</text><text fill="#000000" font-family="sans-serif" font-size="14" lengthAdjust="spacing" textLength="90" x="1805" y="71.5332">PrismaService</text><rect fill="#E2E2F0" height="49.2188" rx="2.5" ry="2.5" style="stroke:#181818;stroke-width:0.5;" width="104" x="1798" y="868.1016"/><text fill="#000000" font-family="sans-serif" font-size="14" font-style="italic" lengthAdjust="spacing" textLength="49" x="1825.5" y="889.6348">&#171;ORM&#187;</text><text fill="#000000" font-family="sans-serif" font-size="14" lengthAdjust="spacing" textLength="90" x="1805" y="907.2441">PrismaService</text><text fill="#000000" font-family="sans-serif" font-size="14" lengthAdjust="spacing" textLength="97" x="2106.5" y="79.5332">PostgreSQL 16</text><path d="M2140,29 C2140,19 2158,19 2158,19 C2158,19 2176,19 2176,29 L2176,55 C2176,65 2158,65 2158,65 C2158,65 2140,65 2140,55 L2140,29 " fill="#E2E2F0" style="stroke:#181818;stroke-width:1.5;"/><path d="M2140,29 C2140,39 2158,39 2158,39 C2158,39 2176,39 2176,29 " fill="none" style="stroke:#181818;stroke-width:1.5;"/><text fill="#000000" font-family="sans-serif" font-size="14" lengthAdjust="spacing" textLength="97" x="2106.5" y="882.6348">PostgreSQL 16</text><path d="M2140,895.7109 C2140,885.7109 2158,885.7109 2158,885.7109 C2158,885.7109 2176,885.7109 2176,895.7109 L2176,921.7109 C2176,931.7109 2158,931.7109 2158,931.7109 C2158,931.7109 2140,931.7109 2140,921.7109 L2140,895.7109 " fill="#E2E2F0" style="stroke:#181818;stroke-width:1.5;"/><path d="M2140,895.7109 C2140,905.7109 2158,905.7109 2158,905.7109 C2158,905.7109 2176,905.7109 2176,895.7109 " fill="none" style="stroke:#181818;stroke-width:1.5;"/><polygon fill="#181818" points="315,110.9609,325,114.9609,315,118.9609,319,114.9609" style="stroke:#181818;stroke-width:1.0;"/><line style="stroke:#181818;stroke-width:1.0;" x1="35" x2="321" y1="114.9609" y2="114.9609"/><text fill="#000000" font-family="sans-serif" font-size="13" lengthAdjust="spacing" textLength="203" x="42" y="110.1045">consultarCalendario() / aplica filtros</text><polygon fill="#181818" points="563,141.3125,573,145.3125,563,149.3125,567,145.3125" style="stroke:#181818;stroke-width:1.0;"/><line style="stroke:#181818;stroke-width:1.0;" x1="327" x2="569" y1="145.3125" y2="145.3125"/><text fill="#000000" font-family="sans-serif" font-size="13" lengthAdjust="spacing" textLength="124" x="334" y="140.4561">loadCalendario(filtros)</text><polygon fill="#181818" points="787,171.6641,797,175.6641,787,179.6641,791,175.6641" style="stroke:#181818;stroke-width:1.0;"/><line style="stroke:#181818;stroke-width:1.0;" x1="575" x2="793" y1="175.6641" y2="175.6641"/><text fill="#000000" font-family="sans-serif" font-size="13" lengthAdjust="spacing" textLength="120" x="582" y="170.8076">findCalendario(filtros)</text><polygon fill="#181818" points="1173,218.3672,1183,222.3672,1173,226.3672,1177,222.3672" style="stroke:#181818;stroke-width:1.0;"/><line style="stroke:#181818;stroke-width:1.0;" x1="799" x2="1179" y1="222.3672" y2="222.3672"/><text fill="#000000" font-family="sans-serif" font-size="13" lengthAdjust="spacing" textLength="362" x="806" y="201.1592">GET /examenes/calendario?fechaInicio&amp;fechaFin&amp;asignaturaId</text><text fill="#000000" font-family="sans-serif" font-size="13" lengthAdjust="spacing" textLength="160" x="806" y="217.5107">(Authorization: Bearer JWT)</text><polygon fill="#181818" points="1406,248.7188,1416,252.7188,1406,256.7188,1410,252.7188" style="stroke:#181818;stroke-width:1.0;"/><line style="stroke:#181818;stroke-width:1.0;" x1="1185" x2="1412" y1="252.7188" y2="252.7188"/><text fill="#000000" font-family="sans-serif" font-size="13" lengthAdjust="spacing" textLength="102" x="1192" y="247.8623">validar token + rol</text><polygon fill="#181818" points="1196,279.0703,1186,283.0703,1196,287.0703,1192,283.0703" style="stroke:#181818;stroke-width:1.0;"/><line style="stroke:#181818;stroke-width:1.0;stroke-dasharray:2.0,2.0;" x1="1190" x2="1417" y1="283.0703" y2="283.0703"/><text fill="#000000" font-family="sans-serif" font-size="13" lengthAdjust="spacing" textLength="209" x="1202" y="278.2139">req.user { profesorId, rol = Profesor }</text><polygon fill="#181818" points="1544,309.4219,1554,313.4219,1544,317.4219,1548,313.4219" style="stroke:#181818;stroke-width:1.0;"/><line style="stroke:#181818;stroke-width:1.0;" x1="1185" x2="1550" y1="313.4219" y2="313.4219"/><text fill="#000000" font-family="sans-serif" font-size="13" lengthAdjust="spacing" textLength="170" x="1192" y="308.5654">findCalendario(filtros, usuario)</text><line style="stroke:#181818;stroke-width:1.0;" x1="1556" x2="1598" y1="360.125" y2="360.125"/><line style="stroke:#181818;stroke-width:1.0;" x1="1598" x2="1598" y1="360.125" y2="373.125"/><line style="stroke:#181818;stroke-width:1.0;" x1="1557" x2="1598" y1="373.125" y2="373.125"/><polygon fill="#181818" points="1567,369.125,1557,373.125,1567,377.125,1563,373.125" style="stroke:#181818;stroke-width:1.0;"/><text fill="#000000" font-family="sans-serif" font-size="13" lengthAdjust="spacing" textLength="248" x="1563" y="338.917">forzar where.profesorId = usuario.profesorId</text><text fill="#000000" font-family="sans-serif" font-size="13" lengthAdjust="spacing" textLength="134" x="1563" y="355.2686">(restricci&#243;n no eludible)</text><polygon fill="#181818" points="1838,448.5313,1848,452.5313,1838,456.5313,1842,452.5313" style="stroke:#181818;stroke-width:1.0;"/><line style="stroke:#181818;stroke-width:1.0;" x1="1556" x2="1844" y1="452.5313" y2="452.5313"/><text fill="#000000" font-family="sans-serif" font-size="13" lengthAdjust="spacing" textLength="110" x="1563" y="398.6201">examen.findMany({</text><text fill="#000000" font-family="sans-serif" font-size="13" lengthAdjust="spacing" textLength="242" x="1571" y="414.9717">where: { profesorId, fecha BETWEEN ... },</text><text fill="#000000" font-family="sans-serif" font-size="13" lengthAdjust="spacing" textLength="89" x="1571" y="431.3232">include: { aula }</text><text fill="#000000" font-family="sans-serif" font-size="13" lengthAdjust="spacing" textLength="8" x="1563" y="447.6748">})</text><polygon fill="#181818" points="2146,478.8828,2156,482.8828,2146,486.8828,2150,482.8828" style="stroke:#181818;stroke-width:1.0;"/><line style="stroke:#181818;stroke-width:1.0;" x1="1850" x2="2152" y1="482.8828" y2="482.8828"/><text fill="#000000" font-family="sans-serif" font-size="13" lengthAdjust="spacing" textLength="225" x="1857" y="478.0264">SELECT ex&#225;menes del profesor + aula</text><polygon fill="#181818" points="1861,509.2344,1851,513.2344,1861,517.2344,1857,513.2344" style="stroke:#181818;stroke-width:1.0;"/><line style="stroke:#181818;stroke-width:1.0;stroke-dasharray:2.0,2.0;" x1="1855" x2="2157" y1="513.2344" y2="513.2344"/><text fill="#000000" font-family="sans-serif" font-size="13" lengthAdjust="spacing" textLength="284" x="1867" y="508.3779">Ex&#225;menes propios (asignatura, fecha, hora, aula)</text><polygon fill="#181818" points="1567,539.5859,1557,543.5859,1567,547.5859,1563,543.5859" style="stroke:#181818;stroke-width:1.0;"/><line style="stroke:#181818;stroke-width:1.0;stroke-dasharray:2.0,2.0;" x1="1561" x2="1849" y1="543.5859" y2="543.5859"/><text fill="#000000" font-family="sans-serif" font-size="13" lengthAdjust="spacing" textLength="110" x="1573" y="538.7295">Lista de ex&#225;menes</text><line style="stroke:#181818;stroke-width:1.0;" x1="1556" x2="1598" y1="573.9375" y2="573.9375"/><line style="stroke:#181818;stroke-width:1.0;" x1="1598" x2="1598" y1="573.9375" y2="586.9375"/><line style="stroke:#181818;stroke-width:1.0;" x1="1557" x2="1598" y1="586.9375" y2="586.9375"/><polygon fill="#181818" points="1567,582.9375,1557,586.9375,1567,590.9375,1563,586.9375" style="stroke:#181818;stroke-width:1.0;"/><text fill="#000000" font-family="sans-serif" font-size="13" lengthAdjust="spacing" textLength="280" x="1563" y="569.0811">Resolver asignatura y aplicar filtro por asignatura</text><polygon fill="#181818" points="1196,613.2891,1186,617.2891,1196,621.2891,1192,617.2891" style="stroke:#181818;stroke-width:1.0;"/><line style="stroke:#181818;stroke-width:1.0;stroke-dasharray:2.0,2.0;" x1="1190" x2="1555" y1="617.2891" y2="617.2891"/><text fill="#000000" font-family="sans-serif" font-size="13" lengthAdjust="spacing" textLength="166" x="1202" y="612.4326">List&lt;ExamenCalendarioDto&gt;</text><polygon fill="#181818" points="810,643.6406,800,647.6406,810,651.6406,806,647.6406" style="stroke:#181818;stroke-width:1.0;"/><line style="stroke:#181818;stroke-width:1.0;stroke-dasharray:2.0,2.0;" x1="804" x2="1184" y1="647.6406" y2="647.6406"/><text fill="#000000" font-family="sans-serif" font-size="13" lengthAdjust="spacing" textLength="90" x="816" y="642.7842">200 OK (JSON)</text><polygon fill="#181818" points="586,673.9922,576,677.9922,586,681.9922,582,677.9922" style="stroke:#181818;stroke-width:1.0;"/><line style="stroke:#181818;stroke-width:1.0;stroke-dasharray:2.0,2.0;" x1="580" x2="798" y1="677.9922" y2="677.9922"/><text fill="#000000" font-family="sans-serif" font-size="13" lengthAdjust="spacing" textLength="137" x="592" y="673.1357">ExamenCalendarioDto[]</text><line style="stroke:#181818;stroke-width:1.0;" x1="575" x2="617" y1="708.3438" y2="708.3438"/><line style="stroke:#181818;stroke-width:1.0;" x1="617" x2="617" y1="708.3438" y2="721.3438"/><line style="stroke:#181818;stroke-width:1.0;" x1="576" x2="617" y1="721.3438" y2="721.3438"/><polygon fill="#181818" points="586,717.3438,576,721.3438,586,725.3438,582,721.3438" style="stroke:#181818;stroke-width:1.0;"/><text fill="#000000" font-family="sans-serif" font-size="13" lengthAdjust="spacing" textLength="210" x="582" y="703.4873">Pre-agrupar por fecha en Map (O(N))</text><polygon fill="#181818" points="338,747.6953,328,751.6953,338,755.6953,334,751.6953" style="stroke:#181818;stroke-width:1.0;"/><line style="stroke:#181818;stroke-width:1.0;stroke-dasharray:2.0,2.0;" x1="332" x2="574" y1="751.6953" y2="751.6953"/><text fill="#000000" font-family="sans-serif" font-size="13" lengthAdjust="spacing" textLength="224" x="344" y="746.8389">Actualiza estado (calendario indexado)</text><polygon fill="#181818" points="46,778.0469,36,782.0469,46,786.0469,42,782.0469" style="stroke:#181818;stroke-width:1.0;"/><line style="stroke:#181818;stroke-width:1.0;stroke-dasharray:2.0,2.0;" x1="40" x2="326" y1="782.0469" y2="782.0469"/><text fill="#000000" font-family="sans-serif" font-size="13" lengthAdjust="spacing" textLength="268" x="52" y="777.1904">Renderiza rejilla (fecha, hora, asignatura, aula)</text><path d="M332,795.0469 L332,854.0469 L638,854.0469 L638,805.0469 L628,795.0469 L332,795.0469 " fill="#FEFFDD" style="stroke:#181818;stroke-width:0.5;"/><path d="M628,795.0469 L628,805.0469 L638,805.0469 L628,795.0469 " fill="#FEFFDD" style="stroke:#181818;stroke-width:0.5;"/><text fill="#000000" font-family="sans-serif" font-size="13" lengthAdjust="spacing" textLength="285" x="338" y="813.542">Acciones disponibles (CALENDARIO_ABIERTO):</text><text fill="#000000" font-family="sans-serif" font-size="13" lengthAdjust="spacing" textLength="228" x="338" y="829.8936">- descargarCalendarioExamenes() (self)</text><text fill="#000000" font-family="sans-serif" font-size="13" lengthAdjust="spacing" textLength="228" x="338" y="846.2451">- completarConsulta() -&gt; vuelve al men&#250;</text><!--SRC=[XLN1Sjis4BtZAtPoo91JIqvxw86ZEYFAJ2hNbbn9QGvrfhCXLn9g6500q4gSySVq6thhrJ_M1Kc9b99CBX99lBTlkMztwMwbtg35Et1hBCnMwXKiKJaIRdzYoMsCTdH5pk6AKb9cExJMRC7RaeJ0t1iBrzOioHahcEHbBZUeFJmRCR5K7kq85Ua2hJH_IDhUw6X6p8kV0JfuCuR1O6JkM8MqFpix354wQibC_DMOsveNhfWP_ev9z17lI9ERaxsNEJ5j-54QL_DUDK-PsrmTqxE6pkbxQvGYon4cvFp5l0xH7bIfxswEuyoC8lUwH5l0ALoyNLJS-dumgFw_fTmctfLDlvlvjPNk3fl3YbC_OSPqTiNe0Zs-HqSCDSwlBCr_luGVVwwWvwaGEn-XTnQCII3_qi8evjV1ZP8vmb8gVdad6CkCof84bC6Y0symiQYE6RPt866-_Yfq3s5ufze9lCuMSBhpzpJVKrykAL_ZM7CfpFFg-fNKpz79bKPVMXmNeGjAlpPMFg2NHYUG4beEoix4GdHKMBDsAO5xL9BZWpUtfE47O8Iepth7cLdwqETkjV0PDaqLnyL9OC0l-_c0noEXz7krE87IbU41vvXsgj8b6ll0EMxNPAdVQhDiG-qyv2hmH7ihyrm-_Qj16o1L5lAzelWWVjCu2TJ5xeVihb1_YZxVQAYragDNhSeEQRPucsKJwFVxy7WIm5BdB571iLG8ZpVwCHQD04kTfomppowpqOBLdlwfl8M2r3uwLpum1IDxtTooFPgH6nvnY5hBcuHEW3tdtn2WLJsiuALq7bcnbVzciMUSZxfdyreX-DICWstc0JQcUzu9TTmqGNXGJtrh_RatPmTjSZWpFxru0TFV8BgOJoVTIMa7y2i1_tmdzlFNeAujzN1bIzuWLSArVTpcLxY1Q1fDujt8xfR1CFSb3yG3exXUXO6e7K1skU1MARXFmpAeN6hC2qNZmp1uF2L_IyKz41rwqp6jzabeumciNAqzc2NB2s1v7kwgDMJu9eMUPSD7myjiSZwSZQT_3TDnDbjCuuJ1FRRJiIMhxkhQxLTUOP4ZjOmhOCuV7qLXnpNBZeyv__kIs6X01Snv-azm30XPYVy1]--></g></svg>