<?xml version="1.0" encoding="us-ascii" standalone="no"?><svg xmlns="http://www.w3.org/2000/svg" xmlns:xlink="http://www.w3.org/1999/xlink" contentStyleType="text/css" height="779px" preserveAspectRatio="none" style="width:1393px;height:779px;background:#FFFFFF;" version="1.1" viewBox="0 0 1393 779" width="1393px" zoomAndPan="magnify"><defs/><g><rect fill="none" height="368.0547" style="stroke:#000000;stroke-width:1.5;" width="1376.5" x="10" y="312.0703"/><line style="stroke:#181818;stroke-width:0.5;stroke-dasharray:5.0,5.0;" x1="66" x2="66" y1="82.6094" y2="697.125"/><line style="stroke:#181818;stroke-width:0.5;stroke-dasharray:5.0,5.0;" x1="331" x2="331" y1="82.6094" y2="697.125"/><line style="stroke:#181818;stroke-width:0.5;stroke-dasharray:5.0,5.0;" x1="510.5" x2="510.5" y1="82.6094" y2="697.125"/><line style="stroke:#181818;stroke-width:0.5;stroke-dasharray:5.0,5.0;" x1="656.5" x2="656.5" y1="82.6094" y2="697.125"/><line style="stroke:#181818;stroke-width:0.5;stroke-dasharray:5.0,5.0;" x1="863" x2="863" y1="82.6094" y2="697.125"/><line style="stroke:#181818;stroke-width:0.5;stroke-dasharray:5.0,5.0;" x1="1011" x2="1011" y1="82.6094" y2="697.125"/><line style="stroke:#181818;stroke-width:0.5;stroke-dasharray:5.0,5.0;" x1="1334.5" x2="1334.5" y1="82.6094" y2="697.125"/><text fill="#000000" font-family="sans-serif" font-size="14" lengthAdjust="spacing" textLength="87" x="20" y="79.5332">Administrador</text><ellipse cx="66.5" cy="13.5" fill="#E2E2F0" rx="8" ry="8" style="stroke:#181818;stroke-width:0.5;"/><path d="M66.5,21.5 L66.5,48.5 M53.5,29.5 L79.5,29.5 M66.5,48.5 L53.5,63.5 M66.5,48.5 L79.5,63.5 " fill="none" style="stroke:#181818;stroke-width:0.5;"/><text fill="#000000" font-family="sans-serif" font-size="14" lengthAdjust="spacing" textLength="87" x="20" y="710.6582">Administrador</text><ellipse cx="66.5" cy="722.2344" fill="#E2E2F0" rx="8" ry="8" style="stroke:#181818;stroke-width:0.5;"/><path d="M66.5,730.2344 L66.5,757.2344 M53.5,738.2344 L79.5,738.2344 M66.5,757.2344 L53.5,772.2344 M66.5,757.2344 L79.5,772.2344 " fill="none" style="stroke:#181818;stroke-width:0.5;"/><rect fill="#E2E2F0" height="66.8281" rx="2.5" ry="2.5" style="stroke:#181818;stroke-width:0.5;" width="133" x="265" y="14.7813"/><text fill="#000000" font-family="sans-serif" font-size="14" font-style="italic" lengthAdjust="spacing" textLength="89" x="287" y="36.3145">&#171;Component&#187;</text><text fill="#000000" font-family="sans-serif" font-size="14" lengthAdjust="spacing" textLength="119" x="272" y="53.9238">CrearProfesorView</text><text fill="#000000" font-family="sans-serif" font-size="14" lengthAdjust="spacing" textLength="47" x="308" y="71.5332">(React)</text><rect fill="#E2E2F0" height="66.8281" rx="2.5" ry="2.5" style="stroke:#181818;stroke-width:0.5;" width="133" x="265" y="696.125"/><text fill="#000000" font-family="sans-serif" font-size="14" font-style="italic" lengthAdjust="spacing" textLength="89" x="287" y="717.6582">&#171;Component&#187;</text><text fill="#000000" font-family="sans-serif" font-size="14" lengthAdjust="spacing" textLength="119" x="272" y="735.2676">CrearProfesorView</text><text fill="#000000" font-family="sans-serif" font-size="14" lengthAdjust="spacing" textLength="47" x="308" y="752.877">(React)</text><rect fill="#E2E2F0" height="66.8281" rx="2.5" ry="2.5" style="stroke:#181818;stroke-width:0.5;" width="124" x="448.5" y="14.7813"/><text fill="#000000" font-family="sans-serif" font-size="14" font-style="italic" lengthAdjust="spacing" textLength="50" x="485.5" y="36.3145">&#171;Hook&#187;</text><text fill="#000000" font-family="sans-serif" font-size="14" lengthAdjust="spacing" textLength="110" x="455.5" y="53.9238">useProfesorForm</text><text fill="#000000" font-family="sans-serif" font-size="14" lengthAdjust="spacing" textLength="42" x="489.5" y="71.5332">(Hook)</text><rect fill="#E2E2F0" height="66.8281" rx="2.5" ry="2.5" style="stroke:#181818;stroke-width:0.5;" width="124" x="448.5" y="696.125"/><text fill="#000000" font-family="sans-serif" font-size="14" font-style="italic" lengthAdjust="spacing" textLength="50" x="485.5" y="717.6582">&#171;Hook&#187;</text><text fill="#000000" font-family="sans-serif" font-size="14" lengthAdjust="spacing" textLength="110" x="455.5" y="735.2676">useProfesorForm</text><text fill="#000000" font-family="sans-serif" font-size="14" lengthAdjust="spacing" textLength="42" x="489.5" y="752.877">(Hook)</text><rect fill="#E2E2F0" height="66.8281" rx="2.5" ry="2.5" style="stroke:#181818;stroke-width:0.5;" width="130" x="591.5" y="14.7813"/><text fill="#000000" font-family="sans-serif" font-size="14" font-style="italic" lengthAdjust="spacing" textLength="62" x="625.5" y="36.3145">&#171;Service&#187;</text><text fill="#000000" font-family="sans-serif" font-size="14" lengthAdjust="spacing" textLength="116" x="598.5" y="53.9238">ProfesoresService</text><text fill="#000000" font-family="sans-serif" font-size="14" lengthAdjust="spacing" textLength="43" x="635" y="71.5332">(Axios)</text><rect fill="#E2E2F0" height="66.8281" rx="2.5" ry="2.5" style="stroke:#181818;stroke-width:0.5;" width="130" x="591.5" y="696.125"/><text fill="#000000" font-family="sans-serif" font-size="14" font-style="italic" lengthAdjust="spacing" textLength="62" x="625.5" y="717.6582">&#171;Service&#187;</text><text fill="#000000" font-family="sans-serif" font-size="14" lengthAdjust="spacing" textLength="116" x="598.5" y="735.2676">ProfesoresService</text><text fill="#000000" font-family="sans-serif" font-size="14" lengthAdjust="spacing" textLength="43" x="635" y="752.877">(Axios)</text><rect fill="#E2E2F0" height="66.8281" rx="2.5" ry="2.5" style="stroke:#181818;stroke-width:0.5;" width="145" x="791" y="14.7813"/><text fill="#000000" font-family="sans-serif" font-size="14" font-style="italic" lengthAdjust="spacing" textLength="78" x="824.5" y="36.3145">&#171;Controller&#187;</text><text fill="#000000" font-family="sans-serif" font-size="14" lengthAdjust="spacing" textLength="131" x="798" y="53.9238">ProfesoresController</text><text fill="#000000" font-family="sans-serif" font-size="14" lengthAdjust="spacing" textLength="53" x="837" y="71.5332">(NestJS)</text><rect fill="#E2E2F0" height="66.8281" rx="2.5" ry="2.5" style="stroke:#181818;stroke-width:0.5;" width="145" x="791" y="696.125"/><text fill="#000000" font-family="sans-serif" font-size="14" font-style="italic" lengthAdjust="spacing" textLength="78" x="824.5" y="717.6582">&#171;Controller&#187;</text><text fill="#000000" font-family="sans-serif" font-size="14" lengthAdjust="spacing" textLength="131" x="798" y="735.2676">ProfesoresController</text><text fill="#000000" font-family="sans-serif" font-size="14" lengthAdjust="spacing" textLength="53" x="837" y="752.877">(NestJS)</text><rect fill="#E2E2F0" height="66.8281" rx="2.5" ry="2.5" style="stroke:#181818;stroke-width:0.5;" width="130" x="946" y="14.7813"/><text fill="#000000" font-family="sans-serif" font-size="14" font-style="italic" lengthAdjust="spacing" textLength="62" x="980" y="36.3145">&#171;Service&#187;</text><text fill="#000000" font-family="sans-serif" font-size="14" lengthAdjust="spacing" textLength="116" x="953" y="53.9238">ProfesoresService</text><text fill="#000000" font-family="sans-serif" font-size="14" lengthAdjust="spacing" textLength="53" x="984.5" y="71.5332">(NestJS)</text><rect fill="#E2E2F0" height="66.8281" rx="2.5" ry="2.5" style="stroke:#181818;stroke-width:0.5;" width="130" x="946" y="696.125"/><text fill="#000000" font-family="sans-serif" font-size="14" font-style="italic" lengthAdjust="spacing" textLength="62" x="980" y="717.6582">&#171;Service&#187;</text><text fill="#000000" font-family="sans-serif" font-size="14" lengthAdjust="spacing" textLength="116" x="953" y="735.2676">ProfesoresService</text><text fill="#000000" font-family="sans-serif" font-size="14" lengthAdjust="spacing" textLength="53" x="984.5" y="752.877">(NestJS)</text><text fill="#000000" font-family="sans-serif" font-size="14" lengthAdjust="spacing" textLength="77" x="1293.5" y="79.5332">PostgreSQL</text><path d="M1317,29 C1317,19 1335,19 1335,19 C1335,19 1353,19 1353,29 L1353,55 C1353,65 1335,65 1335,65 C1335,65 1317,65 1317,55 L1317,29 " fill="#E2E2F0" style="stroke:#181818;stroke-width:1.5;"/><path d="M1317,29 C1317,39 1335,39 1335,39 C1335,39 1353,39 1353,29 " fill="none" style="stroke:#181818;stroke-width:1.5;"/><text fill="#000000" font-family="sans-serif" font-size="14" lengthAdjust="spacing" textLength="77" x="1293.5" y="710.6582">PostgreSQL</text><path d="M1317,723.7344 C1317,713.7344 1335,713.7344 1335,713.7344 C1335,713.7344 1353,713.7344 1353,723.7344 L1353,749.7344 C1353,759.7344 1335,759.7344 1335,759.7344 C1335,759.7344 1317,759.7344 1317,749.7344 L1317,723.7344 " fill="#E2E2F0" style="stroke:#181818;stroke-width:1.5;"/><path d="M1317,723.7344 C1317,733.7344 1335,733.7344 1335,733.7344 C1335,733.7344 1353,733.7344 1353,723.7344 " fill="none" style="stroke:#181818;stroke-width:1.5;"/><polygon fill="#181818" points="319.5,110.9609,329.5,114.9609,319.5,118.9609,323.5,114.9609" style="stroke:#181818;stroke-width:1.0;"/><line style="stroke:#181818;stroke-width:1.0;" x1="66.5" x2="325.5" y1="114.9609" y2="114.9609"/><text fill="#000000" font-family="sans-serif" font-size="13" lengthAdjust="spacing" textLength="241" x="73.5" y="110.1045">Rellena datos del profesor y pulsa "Crear"</text><polygon fill="#181818" points="498.5,141.3125,508.5,145.3125,498.5,149.3125,502.5,145.3125" style="stroke:#181818;stroke-width:1.0;"/><line style="stroke:#181818;stroke-width:1.0;" x1="331.5" x2="504.5" y1="145.3125" y2="145.3125"/><text fill="#000000" font-family="sans-serif" font-size="13" lengthAdjust="spacing" textLength="72" x="338.5" y="140.4561">submit(data)</text><polygon fill="#181818" points="644.5,171.6641,654.5,175.6641,644.5,179.6641,648.5,175.6641" style="stroke:#181818;stroke-width:1.0;"/><line style="stroke:#181818;stroke-width:1.0;" x1="510.5" x2="650.5" y1="175.6641" y2="175.6641"/><text fill="#000000" font-family="sans-serif" font-size="13" lengthAdjust="spacing" textLength="117" x="517.5" y="170.8076">createProfesor(data)</text><polygon fill="#181818" points="851.5,202.0156,861.5,206.0156,851.5,210.0156,855.5,206.0156" style="stroke:#181818;stroke-width:1.0;"/><line style="stroke:#181818;stroke-width:1.0;" x1="656.5" x2="857.5" y1="206.0156" y2="206.0156"/><text fill="#000000" font-family="sans-serif" font-size="13" lengthAdjust="spacing" textLength="183" x="663.5" y="201.1592">POST /profesores (JSON Body)</text><polygon fill="#181818" points="999,232.3672,1009,236.3672,999,240.3672,1003,236.3672" style="stroke:#181818;stroke-width:1.0;"/><line style="stroke:#181818;stroke-width:1.0;" x1="863.5" x2="1005" y1="236.3672" y2="236.3672"/><text fill="#000000" font-family="sans-serif" font-size="13" lengthAdjust="spacing" textLength="62" x="870.5" y="231.5107">create(dto)</text><polygon fill="#181818" points="1323,262.7188,1333,266.7188,1323,270.7188,1327,266.7188" style="stroke:#181818;stroke-width:1.0;"/><line style="stroke:#181818;stroke-width:1.0;" x1="1011" x2="1329" y1="266.7188" y2="266.7188"/><text fill="#000000" font-family="sans-serif" font-size="13" lengthAdjust="spacing" textLength="300" x="1018" y="261.8623">SELECT 1 FROM "Usuario" WHERE email = :email</text><polygon fill="#181818" points="1022,293.0703,1012,297.0703,1022,301.0703,1018,297.0703" style="stroke:#181818;stroke-width:1.0;"/><line style="stroke:#181818;stroke-width:1.0;stroke-dasharray:2.0,2.0;" x1="1016" x2="1334" y1="297.0703" y2="297.0703"/><text fill="#000000" font-family="sans-serif" font-size="13" lengthAdjust="spacing" textLength="104" x="1028" y="292.2139">Existe / No existe</text><path d="M10,312.0703 L71,312.0703 L71,320.4219 L61,330.4219 L10,330.4219 L10,312.0703 " fill="#EEEEEE" style="stroke:#000000;stroke-width:1.5;"/><rect fill="none" height="368.0547" style="stroke:#000000;stroke-width:1.5;" width="1376.5" x="10" y="312.0703"/><text fill="#000000" font-family="sans-serif" font-size="13" font-weight="bold" lengthAdjust="spacing" textLength="16" x="25" y="326.5654">alt</text><text fill="#000000" font-family="sans-serif" font-size="11" font-weight="bold" lengthAdjust="spacing" textLength="93" x="86" y="325.4893">[Email duplicado]</text><polygon fill="#181818" points="874.5,348.7734,864.5,352.7734,874.5,356.7734,870.5,352.7734" style="stroke:#181818;stroke-width:1.0;"/><line style="stroke:#181818;stroke-width:1.0;stroke-dasharray:2.0,2.0;" x1="868.5" x2="1010" y1="352.7734" y2="352.7734"/><text fill="#000000" font-family="sans-serif" font-size="13" lengthAdjust="spacing" textLength="101" x="880.5" y="347.917">ConflictException</text><polygon fill="#181818" points="667.5,379.125,657.5,383.125,667.5,387.125,663.5,383.125" style="stroke:#181818;stroke-width:1.0;"/><line style="stroke:#181818;stroke-width:1.0;stroke-dasharray:2.0,2.0;" x1="661.5" x2="862.5" y1="383.125" y2="383.125"/><text fill="#000000" font-family="sans-serif" font-size="13" lengthAdjust="spacing" textLength="68" x="673.5" y="378.2686">409 Conflict</text><polygon fill="#181818" points="521.5,409.4766,511.5,413.4766,521.5,417.4766,517.5,413.4766" style="stroke:#181818;stroke-width:1.0;"/><line style="stroke:#181818;stroke-width:1.0;stroke-dasharray:2.0,2.0;" x1="515.5" x2="655.5" y1="413.4766" y2="413.4766"/><text fill="#000000" font-family="sans-serif" font-size="13" lengthAdjust="spacing" textLength="122" x="527.5" y="408.6201">Error email duplicado</text><polygon fill="#181818" points="342.5,439.8281,332.5,443.8281,342.5,447.8281,338.5,443.8281" style="stroke:#181818;stroke-width:1.0;"/><line style="stroke:#181818;stroke-width:1.0;stroke-dasharray:2.0,2.0;" x1="336.5" x2="509.5" y1="443.8281" y2="443.8281"/><text fill="#000000" font-family="sans-serif" font-size="13" lengthAdjust="spacing" textLength="155" x="348.5" y="438.9717">Muestra error en formulario</text><line style="stroke:#000000;stroke-width:1.0;stroke-dasharray:2.0,2.0;" x1="10" x2="1386.5" y1="452.8281" y2="452.8281"/><text fill="#000000" font-family="sans-serif" font-size="11" font-weight="bold" lengthAdjust="spacing" textLength="98" x="15" y="464.2471">[Email disponible]</text><polygon fill="#181818" points="1323,486.0156,1333,490.0156,1323,494.0156,1327,490.0156" style="stroke:#181818;stroke-width:1.0;"/><line style="stroke:#181818;stroke-width:1.0;" x1="1011" x2="1329" y1="490.0156" y2="490.0156"/><text fill="#000000" font-family="sans-serif" font-size="13" lengthAdjust="spacing" textLength="210" x="1018" y="485.1592">INSERT INTO "Usuario" y "Profesor"</text><polygon fill="#181818" points="1022,516.3672,1012,520.3672,1022,524.3672,1018,520.3672" style="stroke:#181818;stroke-width:1.0;"/><line style="stroke:#181818;stroke-width:1.0;stroke-dasharray:2.0,2.0;" x1="1016" x2="1334" y1="520.3672" y2="520.3672"/><text fill="#000000" font-family="sans-serif" font-size="13" lengthAdjust="spacing" textLength="133" x="1028" y="515.5107">Profesor creado (UUID)</text><polygon fill="#181818" points="874.5,546.7188,864.5,550.7188,874.5,554.7188,870.5,550.7188" style="stroke:#181818;stroke-width:1.0;"/><line style="stroke:#181818;stroke-width:1.0;stroke-dasharray:2.0,2.0;" x1="868.5" x2="1010" y1="550.7188" y2="550.7188"/><text fill="#000000" font-family="sans-serif" font-size="13" lengthAdjust="spacing" textLength="86" x="880.5" y="545.8623">Profesor Entity</text><polygon fill="#181818" points="667.5,577.0703,657.5,581.0703,667.5,585.0703,663.5,581.0703" style="stroke:#181818;stroke-width:1.0;"/><line style="stroke:#181818;stroke-width:1.0;stroke-dasharray:2.0,2.0;" x1="661.5" x2="862.5" y1="581.0703" y2="581.0703"/><text fill="#000000" font-family="sans-serif" font-size="13" lengthAdjust="spacing" textLength="178" x="673.5" y="576.2139">JSON Response (201 Created)</text><polygon fill="#181818" points="521.5,607.4219,511.5,611.4219,521.5,615.4219,517.5,611.4219" style="stroke:#181818;stroke-width:1.0;"/><line style="stroke:#181818;stroke-width:1.0;stroke-dasharray:2.0,2.0;" x1="515.5" x2="655.5" y1="611.4219" y2="611.4219"/><text fill="#000000" font-family="sans-serif" font-size="13" lengthAdjust="spacing" textLength="90" x="527.5" y="606.5654">Profesor Object</text><polygon fill="#181818" points="342.5,637.7734,332.5,641.7734,342.5,645.7734,338.5,641.7734" style="stroke:#181818;stroke-width:1.0;"/><line style="stroke:#181818;stroke-width:1.0;stroke-dasharray:2.0,2.0;" x1="336.5" x2="509.5" y1="641.7734" y2="641.7734"/><text fill="#000000" font-family="sans-serif" font-size="13" lengthAdjust="spacing" textLength="135" x="348.5" y="636.917">Redirigir / Mostrar &#233;xito</text><polygon fill="#181818" points="77.5,668.125,67.5,672.125,77.5,676.125,73.5,672.125" style="stroke:#181818;stroke-width:1.0;"/><line style="stroke:#181818;stroke-width:1.0;stroke-dasharray:2.0,2.0;" x1="71.5" x2="330.5" y1="672.125" y2="672.125"/><text fill="#000000" font-family="sans-serif" font-size="13" lengthAdjust="spacing" textLength="124" x="83.5" y="667.2686">Muestra confirmaci&#243;n</text><!--SRC=[ZPFFSjem4CRlUeeTJkQGITBffKpAJ0ncGYP0QaDxwKNO2rLZInv9Rk2HUkuZvCMwblzWqwIjBvQztszN-wradeJCkUOPc6yyKSz2xc77KuECyTWg3RT99gGmLbDKCv9Q4OkSImk3YKQk7xNQeL7wiy3dhz8BaR3X0BY1pHnkRYOgovL4QSVZFbmORD2PqXcXTqezLMIv8hPydMCDWoP2_KF4IE3jGIXJaRFwBz7rwkq44oMjLccAcd8iqTZxg4fo2hW6ce__sKetZV_QNX9k-POR95mPkzSOVNfmwgdFMCzhk1YN5euWHAekEH2g32IOGbvNXYFaHMfuFOe18prHphuHc6AR2UkL5OVC_QDOQz08Oc9iEuHQryP9s_5X18-hQ0sNUTipUFVHQWc-Iev3rb4Ivv_Ny1AhXepvdTnJdw9Hy11Crd0Dit2rWC7655mBDO0lTq4O06PSfF0HHcx1YBZe9myEv1N29ImLe5lJeKqj10vCYZmLCJd9W9vJxVF6w6D7GXiSOiojKDBfkntrRNj_zQ5bd7JMJLrx7sXDuy5NDb8Defdjei1ot82LNiAExaAHbZOmf5lOz28CtIAnJV6icTh8-J8AmZMzrgkEZSVJ6HquxayBcxWRLAB0sspcKnhLtorhgK1QOO__CCoTan3B3gWXxztLDKpSiKY6R_hNLbXjlsFjSz-v41EXnLveclz2bIPgUFbv4BQokRm99EtVg9FVCGrGw8p7ukMNP2WJzXi0]--></g></svg>