<?xml version="1.0" encoding="us-ascii" standalone="no"?><svg xmlns="http://www.w3.org/2000/svg" xmlns:xlink="http://www.w3.org/1999/xlink" contentStyleType="text/css" height="1018px" preserveAspectRatio="none" style="width:2608px;height:1018px;background:#FFFFFF;" version="1.1" viewBox="0 0 2608 1018" width="2608px" zoomAndPan="magnify"><defs/><g><line style="stroke:#181818;stroke-width:0.5;stroke-dasharray:5.0,5.0;" x1="35" x2="35" y1="82.6094" y2="936.4531"/><line style="stroke:#181818;stroke-width:0.5;stroke-dasharray:5.0,5.0;" x1="246.5" x2="246.5" y1="82.6094" y2="936.4531"/><line style="stroke:#181818;stroke-width:0.5;stroke-dasharray:5.0,5.0;" x1="527.5" x2="527.5" y1="82.6094" y2="936.4531"/><line style="stroke:#181818;stroke-width:0.5;stroke-dasharray:5.0,5.0;" x1="819.5" x2="819.5" y1="82.6094" y2="936.4531"/><line style="stroke:#181818;stroke-width:0.5;stroke-dasharray:5.0,5.0;" x1="1128.5" x2="1128.5" y1="82.6094" y2="936.4531"/><line style="stroke:#181818;stroke-width:0.5;stroke-dasharray:5.0,5.0;" x1="1362" x2="1362" y1="82.6094" y2="936.4531"/><line style="stroke:#181818;stroke-width:0.5;stroke-dasharray:5.0,5.0;" x1="1504" x2="1504" y1="82.6094" y2="936.4531"/><line style="stroke:#181818;stroke-width:0.5;stroke-dasharray:5.0,5.0;" x1="1679" x2="1679" y1="82.6094" y2="936.4531"/><line style="stroke:#181818;stroke-width:0.5;stroke-dasharray:5.0,5.0;" x1="1830" x2="1830" y1="82.6094" y2="936.4531"/><line style="stroke:#181818;stroke-width:0.5;stroke-dasharray:5.0,5.0;" x1="1962" x2="1962" y1="82.6094" y2="936.4531"/><line style="stroke:#181818;stroke-width:0.5;stroke-dasharray:5.0,5.0;" x1="2307" x2="2307" y1="82.6094" y2="936.4531"/><line style="stroke:#181818;stroke-width:0.5;stroke-dasharray:5.0,5.0;" x1="2555.5" x2="2555.5" y1="82.6094" y2="936.4531"/><text fill="#000000" font-family="sans-serif" font-size="14" lengthAdjust="spacing" textLength="54" x="5" y="79.5332">Profesor</text><ellipse cx="35" cy="13.5" fill="#E2E2F0" rx="8" ry="8" style="stroke:#181818;stroke-width:0.5;"/><path d="M35,21.5 L35,48.5 M22,29.5 L48,29.5 M35,48.5 L22,63.5 M35,48.5 L48,63.5 " fill="none" style="stroke:#181818;stroke-width:0.5;"/><text fill="#000000" font-family="sans-serif" font-size="14" lengthAdjust="spacing" textLength="54" x="5" y="949.9863">Profesor</text><ellipse cx="35" cy="961.5625" fill="#E2E2F0" rx="8" ry="8" style="stroke:#181818;stroke-width:0.5;"/><path d="M35,969.5625 L35,996.5625 M22,977.5625 L48,977.5625 M35,996.5625 L22,1011.5625 M35,996.5625 L48,1011.5625 " fill="none" style="stroke:#181818;stroke-width:0.5;"/><rect fill="#E2E2F0" height="66.8281" rx="2.5" ry="2.5" style="stroke:#181818;stroke-width:0.5;" width="173" x="160.5" y="14.7813"/><text fill="#000000" font-family="sans-serif" font-size="14" font-style="italic" lengthAdjust="spacing" textLength="89" x="202.5" y="36.3145">&#171;Component&#187;</text><text fill="#000000" font-family="sans-serif" font-size="14" lengthAdjust="spacing" textLength="159" x="167.5" y="53.9238">ConsultarCalendarioView</text><text fill="#000000" font-family="sans-serif" font-size="14" lengthAdjust="spacing" textLength="47" x="223.5" y="71.5332">(React)</text><rect fill="#E2E2F0" height="66.8281" rx="2.5" ry="2.5" style="stroke:#181818;stroke-width:0.5;" width="173" x="160.5" y="935.4531"/><text fill="#000000" font-family="sans-serif" font-size="14" font-style="italic" lengthAdjust="spacing" textLength="89" x="202.5" y="956.9863">&#171;Component&#187;</text><text fill="#000000" font-family="sans-serif" font-size="14" lengthAdjust="spacing" textLength="159" x="167.5" y="974.5957">ConsultarCalendarioView</text><text fill="#000000" font-family="sans-serif" font-size="14" lengthAdjust="spacing" textLength="47" x="223.5" y="992.2051">(React)</text><rect fill="#E2E2F0" height="66.8281" rx="2.5" ry="2.5" style="stroke:#181818;stroke-width:0.5;" width="187" x="434.5" y="14.7813"/><text fill="#000000" font-family="sans-serif" font-size="14" font-style="italic" lengthAdjust="spacing" textLength="89" x="483.5" y="36.3145">&#171;Component&#187;</text><text fill="#000000" font-family="sans-serif" font-size="14" lengthAdjust="spacing" textLength="173" x="441.5" y="53.9238">DescargarCalendarioModal</text><text fill="#000000" font-family="sans-serif" font-size="14" lengthAdjust="spacing" textLength="47" x="504.5" y="71.5332">(React)</text><rect fill="#E2E2F0" height="66.8281" rx="2.5" ry="2.5" style="stroke:#181818;stroke-width:0.5;" width="187" x="434.5" y="935.4531"/><text fill="#000000" font-family="sans-serif" font-size="14" font-style="italic" lengthAdjust="spacing" textLength="89" x="483.5" y="956.9863">&#171;Component&#187;</text><text fill="#000000" font-family="sans-serif" font-size="14" lengthAdjust="spacing" textLength="173" x="441.5" y="974.5957">DescargarCalendarioModal</text><text fill="#000000" font-family="sans-serif" font-size="14" lengthAdjust="spacing" textLength="47" x="504.5" y="992.2051">(React)</text><rect fill="#E2E2F0" height="66.8281" rx="2.5" ry="2.5" style="stroke:#181818;stroke-width:0.5;" width="125" x="757.5" y="14.7813"/><text fill="#000000" font-family="sans-serif" font-size="14" font-style="italic" lengthAdjust="spacing" textLength="62" x="789" y="36.3145">&#171;Service&#187;</text><text fill="#000000" font-family="sans-serif" font-size="14" lengthAdjust="spacing" textLength="111" x="764.5" y="53.9238">examenesService</text><text fill="#000000" font-family="sans-serif" font-size="14" lengthAdjust="spacing" textLength="43" x="798.5" y="71.5332">(Axios)</text><rect fill="#E2E2F0" height="66.8281" rx="2.5" ry="2.5" style="stroke:#181818;stroke-width:0.5;" width="125" x="757.5" y="935.4531"/><text fill="#000000" font-family="sans-serif" font-size="14" font-style="italic" lengthAdjust="spacing" textLength="62" x="789" y="956.9863">&#171;Service&#187;</text><text fill="#000000" font-family="sans-serif" font-size="14" lengthAdjust="spacing" textLength="111" x="764.5" y="974.5957">examenesService</text><text fill="#000000" font-family="sans-serif" font-size="14" lengthAdjust="spacing" textLength="43" x="798.5" y="992.2051">(Axios)</text><rect fill="#E2E2F0" height="66.8281" rx="2.5" ry="2.5" style="stroke:#181818;stroke-width:0.5;" width="141" x="1058.5" y="14.7813"/><text fill="#000000" font-family="sans-serif" font-size="14" font-style="italic" lengthAdjust="spacing" textLength="78" x="1090" y="36.3145">&#171;Controller&#187;</text><text fill="#000000" font-family="sans-serif" font-size="14" lengthAdjust="spacing" textLength="127" x="1065.5" y="53.9238">ExamenesController</text><text fill="#000000" font-family="sans-serif" font-size="14" lengthAdjust="spacing" textLength="53" x="1102.5" y="71.5332">(NestJS)</text><rect fill="#E2E2F0" height="66.8281" rx="2.5" ry="2.5" style="stroke:#181818;stroke-width:0.5;" width="141" x="1058.5" y="935.4531"/><text fill="#000000" font-family="sans-serif" font-size="14" font-style="italic" lengthAdjust="spacing" textLength="78" x="1090" y="956.9863">&#171;Controller&#187;</text><text fill="#000000" font-family="sans-serif" font-size="14" lengthAdjust="spacing" textLength="127" x="1065.5" y="974.5957">ExamenesController</text><text fill="#000000" font-family="sans-serif" font-size="14" lengthAdjust="spacing" textLength="53" x="1102.5" y="992.2051">(NestJS)</text><rect fill="#E2E2F0" height="49.2188" rx="2.5" ry="2.5" style="stroke:#181818;stroke-width:0.5;" width="130" x="1297" y="32.3906"/><text fill="#000000" font-family="sans-serif" font-size="14" font-style="italic" lengthAdjust="spacing" textLength="56" x="1334" y="53.9238">&#171;Guard&#187;</text><text fill="#000000" font-family="sans-serif" font-size="14" lengthAdjust="spacing" textLength="116" x="1304" y="71.5332">RolesGuard / JWT</text><rect fill="#E2E2F0" height="49.2188" rx="2.5" ry="2.5" style="stroke:#181818;stroke-width:0.5;" width="130" x="1297" y="935.4531"/><text fill="#000000" font-family="sans-serif" font-size="14" font-style="italic" lengthAdjust="spacing" textLength="56" x="1334" y="956.9863">&#171;Guard&#187;</text><text fill="#000000" font-family="sans-serif" font-size="14" lengthAdjust="spacing" textLength="116" x="1304" y="974.5957">RolesGuard / JWT</text><rect fill="#E2E2F0" height="66.8281" rx="2.5" ry="2.5" style="stroke:#181818;stroke-width:0.5;" width="135" x="1437" y="14.7813"/><text fill="#000000" font-family="sans-serif" font-size="14" font-style="italic" lengthAdjust="spacing" textLength="62" x="1473.5" y="36.3145">&#171;Service&#187;</text><text fill="#000000" font-family="sans-serif" font-size="14" lengthAdjust="spacing" textLength="121" x="1444" y="53.9238">ExportacionService</text><text fill="#000000" font-family="sans-serif" font-size="14" lengthAdjust="spacing" textLength="53" x="1478" y="71.5332">(NestJS)</text><rect fill="#E2E2F0" height="66.8281" rx="2.5" ry="2.5" style="stroke:#181818;stroke-width:0.5;" width="135" x="1437" y="935.4531"/><text fill="#000000" font-family="sans-serif" font-size="14" font-style="italic" lengthAdjust="spacing" textLength="62" x="1473.5" y="956.9863">&#171;Service&#187;</text><text fill="#000000" font-family="sans-serif" font-size="14" lengthAdjust="spacing" textLength="121" x="1444" y="974.5957">ExportacionService</text><text fill="#000000" font-family="sans-serif" font-size="14" lengthAdjust="spacing" textLength="53" x="1478" y="992.2051">(NestJS)</text><rect fill="#E2E2F0" height="49.2188" rx="2.5" ry="2.5" style="stroke:#181818;stroke-width:0.5;" width="165" x="1597" y="32.3906"/><text fill="#000000" font-family="sans-serif" font-size="14" font-style="italic" lengthAdjust="spacing" textLength="64" x="1647.5" y="53.9238">&#171;Factory&#187;</text><text fill="#000000" font-family="sans-serif" font-size="14" lengthAdjust="spacing" textLength="151" x="1604" y="71.5332">ExamenExporterFactory</text><rect fill="#E2E2F0" height="49.2188" rx="2.5" ry="2.5" style="stroke:#181818;stroke-width:0.5;" width="165" x="1597" y="935.4531"/><text fill="#000000" font-family="sans-serif" font-size="14" font-style="italic" lengthAdjust="spacing" textLength="64" x="1647.5" y="956.9863">&#171;Factory&#187;</text><text fill="#000000" font-family="sans-serif" font-size="14" lengthAdjust="spacing" textLength="151" x="1604" y="974.5957">ExamenExporterFactory</text><rect fill="#E2E2F0" height="66.8281" rx="2.5" ry="2.5" style="stroke:#181818;stroke-width:0.5;" width="117" x="1772" y="14.7813"/><text fill="#000000" font-family="sans-serif" font-size="14" font-style="italic" lengthAdjust="spacing" textLength="69" x="1796" y="36.3145">&#171;Strategy&#187;</text><text fill="#000000" font-family="sans-serif" font-size="14" lengthAdjust="spacing" textLength="103" x="1779" y="53.9238">ExamenExporter</text><text fill="#000000" font-family="sans-serif" font-size="14" lengthAdjust="spacing" textLength="82" x="1789.5" y="71.5332">(Excel | PDF)</text><rect fill="#E2E2F0" height="66.8281" rx="2.5" ry="2.5" style="stroke:#181818;stroke-width:0.5;" width="117" x="1772" y="935.4531"/><text fill="#000000" font-family="sans-serif" font-size="14" font-style="italic" lengthAdjust="spacing" textLength="69" x="1796" y="956.9863">&#171;Strategy&#187;</text><text fill="#000000" font-family="sans-serif" font-size="14" lengthAdjust="spacing" textLength="103" x="1779" y="974.5957">ExamenExporter</text><text fill="#000000" font-family="sans-serif" font-size="14" lengthAdjust="spacing" textLength="82" x="1789.5" y="992.2051">(Excel | PDF)</text><rect fill="#E2E2F0" height="66.8281" rx="2.5" ry="2.5" style="stroke:#181818;stroke-width:0.5;" width="126" x="1899" y="14.7813"/><text fill="#000000" font-family="sans-serif" font-size="14" font-style="italic" lengthAdjust="spacing" textLength="62" x="1931" y="36.3145">&#171;Service&#187;</text><text fill="#000000" font-family="sans-serif" font-size="14" lengthAdjust="spacing" textLength="112" x="1906" y="53.9238">ExamenesService</text><text fill="#000000" font-family="sans-serif" font-size="14" lengthAdjust="spacing" textLength="53" x="1935.5" y="71.5332">(NestJS)</text><rect fill="#E2E2F0" height="66.8281" rx="2.5" ry="2.5" style="stroke:#181818;stroke-width:0.5;" width="126" x="1899" y="935.4531"/><text fill="#000000" font-family="sans-serif" font-size="14" font-style="italic" lengthAdjust="spacing" textLength="62" x="1931" y="956.9863">&#171;Service&#187;</text><text fill="#000000" font-family="sans-serif" font-size="14" lengthAdjust="spacing" textLength="112" x="1906" y="974.5957">ExamenesService</text><text fill="#000000" font-family="sans-serif" font-size="14" lengthAdjust="spacing" textLength="53" x="1935.5" y="992.2051">(NestJS)</text><rect fill="#E2E2F0" height="49.2188" rx="2.5" ry="2.5" style="stroke:#181818;stroke-width:0.5;" width="104" x="2255" y="32.3906"/><text fill="#000000" font-family="sans-serif" font-size="14" font-style="italic" lengthAdjust="spacing" textLength="49" x="2282.5" y="53.9238">&#171;ORM&#187;</text><text fill="#000000" font-family="sans-serif" font-size="14" lengthAdjust="spacing" textLength="90" x="2262" y="71.5332">PrismaService</text><rect fill="#E2E2F0" height="49.2188" rx="2.5" ry="2.5" style="stroke:#181818;stroke-width:0.5;" width="104" x="2255" y="935.4531"/><text fill="#000000" font-family="sans-serif" font-size="14" font-style="italic" lengthAdjust="spacing" textLength="49" x="2282.5" y="956.9863">&#171;ORM&#187;</text><text fill="#000000" font-family="sans-serif" font-size="14" lengthAdjust="spacing" textLength="90" x="2262" y="974.5957">PrismaService</text><text fill="#000000" font-family="sans-serif" font-size="14" lengthAdjust="spacing" textLength="97" x="2504.5" y="79.5332">PostgreSQL 16</text><path d="M2538,29 C2538,19 2556,19 2556,19 C2556,19 2574,19 2574,29 L2574,55 C2574,65 2556,65 2556,65 C2556,65 2538,65 2538,55 L2538,29 " fill="#E2E2F0" style="stroke:#181818;stroke-width:1.5;"/><path d="M2538,29 C2538,39 2556,39 2556,39 C2556,39 2574,39 2574,29 " fill="none" style="stroke:#181818;stroke-width:1.5;"/><text fill="#000000" font-family="sans-serif" font-size="14" lengthAdjust="spacing" textLength="97" x="2504.5" y="949.9863">PostgreSQL 16</text><path d="M2538,963.0625 C2538,953.0625 2556,953.0625 2556,953.0625 C2556,953.0625 2574,953.0625 2574,963.0625 L2574,989.0625 C2574,999.0625 2556,999.0625 2556,999.0625 C2556,999.0625 2538,999.0625 2538,989.0625 L2538,963.0625 " fill="#E2E2F0" style="stroke:#181818;stroke-width:1.5;"/><path d="M2538,963.0625 C2538,973.0625 2556,973.0625 2556,973.0625 C2556,973.0625 2574,973.0625 2574,963.0625 " fill="none" style="stroke:#181818;stroke-width:1.5;"/><polygon fill="#181818" points="235,110.9609,245,114.9609,235,118.9609,239,114.9609" style="stroke:#181818;stroke-width:1.0;"/><line style="stroke:#181818;stroke-width:1.0;" x1="35" x2="241" y1="114.9609" y2="114.9609"/><text fill="#000000" font-family="sans-serif" font-size="13" lengthAdjust="spacing" textLength="188" x="42" y="110.1045">descargarCalendarioExamenes()</text><polygon fill="#181818" points="516,141.3125,526,145.3125,516,149.3125,520,145.3125" style="stroke:#181818;stroke-width:1.0;"/><line style="stroke:#181818;stroke-width:1.0;" x1="247" x2="522" y1="145.3125" y2="145.3125"/><text fill="#000000" font-family="sans-serif" font-size="13" lengthAdjust="spacing" textLength="148" x="254" y="140.4561">abrir (formato + opciones)</text><polygon fill="#181818" points="516,171.6641,526,175.6641,516,179.6641,520,175.6641" style="stroke:#181818;stroke-width:1.0;"/><line style="stroke:#181818;stroke-width:1.0;" x1="35" x2="522" y1="175.6641" y2="175.6641"/><text fill="#000000" font-family="sans-serif" font-size="13" lengthAdjust="spacing" textLength="208" x="42" y="170.8076">elige formato (pdf|excel) y columnas</text><polygon fill="#181818" points="808,202.0156,818,206.0156,808,210.0156,812,206.0156" style="stroke:#181818;stroke-width:1.0;"/><line style="stroke:#181818;stroke-width:1.0;" x1="528" x2="814" y1="206.0156" y2="206.0156"/><text fill="#000000" font-family="sans-serif" font-size="13" lengthAdjust="spacing" textLength="268" x="535" y="201.1592">descargarCalendario(filtros, formato, opciones)</text><polygon fill="#181818" points="1117,248.7188,1127,252.7188,1117,256.7188,1121,252.7188" style="stroke:#181818;stroke-width:1.0;"/><line style="stroke:#181818;stroke-width:1.0;" x1="820" x2="1123" y1="252.7188" y2="252.7188"/><text fill="#000000" font-family="sans-serif" font-size="13" lengthAdjust="spacing" textLength="285" x="827" y="231.5107">GET /examenes/exportar?formato&amp;incluirAula&amp;...</text><text fill="#000000" font-family="sans-serif" font-size="13" lengthAdjust="spacing" textLength="160" x="827" y="247.8623">(Authorization: Bearer JWT)</text><polygon fill="#181818" points="1350,279.0703,1360,283.0703,1350,287.0703,1354,283.0703" style="stroke:#181818;stroke-width:1.0;"/><line style="stroke:#181818;stroke-width:1.0;" x1="1129" x2="1356" y1="283.0703" y2="283.0703"/><text fill="#000000" font-family="sans-serif" font-size="13" lengthAdjust="spacing" textLength="102" x="1136" y="278.2139">validar token + rol</text><polygon fill="#181818" points="1140,309.4219,1130,313.4219,1140,317.4219,1136,313.4219" style="stroke:#181818;stroke-width:1.0;"/><line style="stroke:#181818;stroke-width:1.0;stroke-dasharray:2.0,2.0;" x1="1134" x2="1361" y1="313.4219" y2="313.4219"/><text fill="#000000" font-family="sans-serif" font-size="13" lengthAdjust="spacing" textLength="209" x="1146" y="308.5654">req.user { profesorId, rol = Profesor }</text><polygon fill="#181818" points="1492.5,339.7734,1502.5,343.7734,1492.5,347.7734,1496.5,343.7734" style="stroke:#181818;stroke-width:1.0;"/><line style="stroke:#181818;stroke-width:1.0;" x1="1129" x2="1498.5" y1="343.7734" y2="343.7734"/><text fill="#000000" font-family="sans-serif" font-size="13" lengthAdjust="spacing" textLength="247" x="1136" y="338.917">exportar(filtros, formato, opciones, usuario)</text><polygon fill="#181818" points="1950,370.125,1960,374.125,1950,378.125,1954,374.125" style="stroke:#181818;stroke-width:1.0;"/><line style="stroke:#181818;stroke-width:1.0;" x1="1504.5" x2="1956" y1="374.125" y2="374.125"/><text fill="#000000" font-family="sans-serif" font-size="13" lengthAdjust="spacing" textLength="170" x="1511.5" y="369.2686">findCalendario(filtros, usuario)</text><line style="stroke:#181818;stroke-width:1.0;" x1="1962" x2="2004" y1="404.4766" y2="404.4766"/><line style="stroke:#181818;stroke-width:1.0;" x1="2004" x2="2004" y1="404.4766" y2="417.4766"/><line style="stroke:#181818;stroke-width:1.0;" x1="1963" x2="2004" y1="417.4766" y2="417.4766"/><polygon fill="#181818" points="1973,413.4766,1963,417.4766,1973,421.4766,1969,417.4766" style="stroke:#181818;stroke-width:1.0;"/><text fill="#000000" font-family="sans-serif" font-size="13" lengthAdjust="spacing" textLength="248" x="1969" y="399.6201">forzar where.profesorId = usuario.profesorId</text><polygon fill="#181818" points="2295,443.8281,2305,447.8281,2295,451.8281,2299,447.8281" style="stroke:#181818;stroke-width:1.0;"/><line style="stroke:#181818;stroke-width:1.0;" x1="1962" x2="2301" y1="447.8281" y2="447.8281"/><text fill="#000000" font-family="sans-serif" font-size="13" lengthAdjust="spacing" textLength="321" x="1969" y="442.9717">examen.findMany({ where: { profesorId }, include: aula })</text><polygon fill="#181818" points="2544,474.1797,2554,478.1797,2544,482.1797,2548,478.1797" style="stroke:#181818;stroke-width:1.0;"/><line style="stroke:#181818;stroke-width:1.0;" x1="2307" x2="2550" y1="478.1797" y2="478.1797"/><text fill="#000000" font-family="sans-serif" font-size="13" lengthAdjust="spacing" textLength="225" x="2314" y="473.3232">SELECT ex&#225;menes del profesor + aula</text><polygon fill="#181818" points="2318,504.5313,2308,508.5313,2318,512.5313,2314,508.5313" style="stroke:#181818;stroke-width:1.0;"/><line style="stroke:#181818;stroke-width:1.0;stroke-dasharray:2.0,2.0;" x1="2312" x2="2555" y1="508.5313" y2="508.5313"/><text fill="#000000" font-family="sans-serif" font-size="13" lengthAdjust="spacing" textLength="108" x="2324" y="503.6748">Ex&#225;menes propios</text><polygon fill="#181818" points="1973,534.8828,1963,538.8828,1973,542.8828,1969,538.8828" style="stroke:#181818;stroke-width:1.0;"/><line style="stroke:#181818;stroke-width:1.0;stroke-dasharray:2.0,2.0;" x1="1967" x2="2306" y1="538.8828" y2="538.8828"/><text fill="#000000" font-family="sans-serif" font-size="13" lengthAdjust="spacing" textLength="110" x="1979" y="534.0264">Lista de ex&#225;menes</text><polygon fill="#181818" points="1515.5,565.2344,1505.5,569.2344,1515.5,573.2344,1511.5,569.2344" style="stroke:#181818;stroke-width:1.0;"/><line style="stroke:#181818;stroke-width:1.0;stroke-dasharray:2.0,2.0;" x1="1509.5" x2="1961" y1="569.2344" y2="569.2344"/><text fill="#000000" font-family="sans-serif" font-size="13" lengthAdjust="spacing" textLength="189" x="1521.5" y="564.3779">ExamenExportData[] (inmutable)</text><polygon fill="#181818" points="1667.5,595.5859,1677.5,599.5859,1667.5,603.5859,1671.5,599.5859" style="stroke:#181818;stroke-width:1.0;"/><line style="stroke:#181818;stroke-width:1.0;" x1="1504.5" x2="1673.5" y1="599.5859" y2="599.5859"/><text fill="#000000" font-family="sans-serif" font-size="13" lengthAdjust="spacing" textLength="80" x="1511.5" y="594.7295">crear(formato)</text><polygon fill="#181818" points="1515.5,625.9375,1505.5,629.9375,1515.5,633.9375,1511.5,629.9375" style="stroke:#181818;stroke-width:1.0;"/><line style="stroke:#181818;stroke-width:1.0;stroke-dasharray:2.0,2.0;" x1="1509.5" x2="1678.5" y1="629.9375" y2="629.9375"/><text fill="#000000" font-family="sans-serif" font-size="13" lengthAdjust="spacing" textLength="151" x="1521.5" y="625.0811">ExamenExporter concreto</text><polygon fill="#181818" points="1818.5,656.2891,1828.5,660.2891,1818.5,664.2891,1822.5,660.2891" style="stroke:#181818;stroke-width:1.0;"/><line style="stroke:#181818;stroke-width:1.0;" x1="1504.5" x2="1824.5" y1="660.2891" y2="660.2891"/><text fill="#000000" font-family="sans-serif" font-size="13" lengthAdjust="spacing" textLength="147" x="1511.5" y="655.4326">exportar(datos, opciones)</text><polygon fill="#181818" points="1515.5,686.6406,1505.5,690.6406,1515.5,694.6406,1511.5,690.6406" style="stroke:#181818;stroke-width:1.0;"/><line style="stroke:#181818;stroke-width:1.0;stroke-dasharray:2.0,2.0;" x1="1509.5" x2="1829.5" y1="690.6406" y2="690.6406"/><text fill="#000000" font-family="sans-serif" font-size="13" lengthAdjust="spacing" textLength="83" x="1521.5" y="685.7842">Buffer (binario)</text><polygon fill="#181818" points="1140,716.9922,1130,720.9922,1140,724.9922,1136,720.9922" style="stroke:#181818;stroke-width:1.0;"/><line style="stroke:#181818;stroke-width:1.0;stroke-dasharray:2.0,2.0;" x1="1134" x2="1503.5" y1="720.9922" y2="720.9922"/><text fill="#000000" font-family="sans-serif" font-size="13" lengthAdjust="spacing" textLength="110" x="1146" y="716.1357">Buffer + metadatos</text><polygon fill="#181818" points="831,780.0469,821,784.0469,831,788.0469,827,784.0469" style="stroke:#181818;stroke-width:1.0;"/><line style="stroke:#181818;stroke-width:1.0;stroke-dasharray:2.0,2.0;" x1="825" x2="1128" y1="784.0469" y2="784.0469"/><text fill="#000000" font-family="sans-serif" font-size="13" lengthAdjust="spacing" textLength="44" x="837" y="746.4873">200 OK</text><text fill="#000000" font-family="sans-serif" font-size="13" lengthAdjust="spacing" textLength="186" x="837" y="762.8389">Content-Disposition: attachment</text><text fill="#000000" font-family="sans-serif" font-size="13" lengthAdjust="spacing" textLength="186" x="837" y="779.1904">(calendario.pdf | calendario.xlsx)</text><polygon fill="#181818" points="539,810.3984,529,814.3984,539,818.3984,535,814.3984" style="stroke:#181818;stroke-width:1.0;"/><line style="stroke:#181818;stroke-width:1.0;stroke-dasharray:2.0,2.0;" x1="533" x2="819" y1="814.3984" y2="814.3984"/><text fill="#000000" font-family="sans-serif" font-size="13" lengthAdjust="spacing" textLength="26" x="545" y="809.542">Blob</text><line style="stroke:#181818;stroke-width:1.0;" x1="528" x2="570" y1="844.75" y2="844.75"/><line style="stroke:#181818;stroke-width:1.0;" x1="570" x2="570" y1="844.75" y2="857.75"/><line style="stroke:#181818;stroke-width:1.0;" x1="529" x2="570" y1="857.75" y2="857.75"/><polygon fill="#181818" points="539,853.75,529,857.75,539,861.75,535,857.75" style="stroke:#181818;stroke-width:1.0;"/><text fill="#000000" font-family="sans-serif" font-size="13" lengthAdjust="spacing" textLength="181" x="535" y="839.8936">crear URL + &lt;a&gt; virtual -&gt; click</text><polygon fill="#181818" points="46,884.1016,36,888.1016,46,892.1016,42,888.1016" style="stroke:#181818;stroke-width:1.0;"/><line style="stroke:#181818;stroke-width:1.0;stroke-dasharray:2.0,2.0;" x1="40" x2="527" y1="888.1016" y2="888.1016"/><text fill="#000000" font-family="sans-serif" font-size="13" lengthAdjust="spacing" textLength="113" x="52" y="883.2451">Archivo descargado</text><polygon fill="#181818" points="258,914.4531,248,918.4531,258,922.4531,254,918.4531" style="stroke:#181818;stroke-width:1.0;"/><line style="stroke:#181818;stroke-width:1.0;stroke-dasharray:2.0,2.0;" x1="252" x2="527" y1="918.4531" y2="918.4531"/><text fill="#000000" font-family="sans-serif" font-size="13" lengthAdjust="spacing" textLength="257" x="264" y="913.5967">cerrar -&gt; regresa a CALENDARIO_ABIERTO</text><!--SRC=[XLN1Sjis4BtpAtPoo4WJMKbxw46ZkYDASiQf73kIqnwIJ6TDhYIC8K9TW9QSn1-JR-cFTKcG5AWupaaGyDx3OlVjqjwgR8kC6x1hJCrEPIjOehOKsUQ4oMvDPkc2hCKLnQJDRiHiTk0ufoZ2n1c6ApPBieOZ8JcLg2rc3fwDXPXhXpn6JLcAhCnVYdOViywSXDTz1cZX_JaCXsEpaLieSwUdROa9sGHv5KfSc1HrMwFSUag6zhYXZEo2-4ub9EpHNXdhsMVLhWXKgsFwjABBWnmRhOb5uIrPzsRX9Gu7PHJrdsETkT5aN-V8ARo4DtzVbrp_VpWiVx-_UMlOOQ9CTeWzlDa3VXQwHn6VbUMwzy_sQw5MgwUfSkzqdv26ht0rEVENBnoZerMXKIz_bBh7euz_clehLdQ3rM79yJl2k9nV23f5XpTeIQ36kXNJujqCVlcjX4xYAAgj2IUdXTS6a7vlgJh8JZSIY02zeGQ0DwmOEal36tG6Ne3P5gKWsstfrd3IQaLGeplRTFcLYfnruHuIe_DDXZRoO64rldiqfivIQR6HxTLwlU3oXYeoWVS6y7fw3IzhjykYT0__KKayLrcYSyMZNEFpVhzVz47kreRLPtGYFO2Oa4L8lDcDea1Pxl4-7S0TQYKHWZEtb4bA117vivFZQ9Z-xUTMbbzWMwNhFEqL3FYzcHdmS7HHPMb9PnN-4wdeGMxp8btTgAA9G7n8x59bwMCvRLXnaCcGP_Ypl76t9gR-8NO9ks86cosDofr5y4KH-aK05vZTTxvuiK4h5_3GWx8cgHoWL0KU2cUL4Y8sYKLeCPrDnzUYzz-tigfY5jr8IFuBMYJ8a_3sQOCMv5P6NQFQVkTCMOUYU90FNXFM8Xm64scv3v-Wex9DBisdIRnoo7uzLmQGC1N5ypKJqrO7FzILyYSc4vOpWLupP093IDCNLJmqH0DgYSVvSYcYdHkL-MetiiTEhP0lO4CEI_MMATlT-kkhLt3vvyUiGCZ7vcIYv1jfbUyWT3Akr_8c9zsLDDRhop2GqHbixBNTXvqSp95Ocvl3dAXtotJ2-_bCmXpYATmfThc795ebjpMZz45bZm6CE5chEzECcDG4k78W9iICPUSnoVoq20ZZqMpwTZAQdr_-CuhFf_Fho-X_]--></g></svg>