<?xml version="1.0" encoding="us-ascii" standalone="no"?><svg xmlns="http://www.w3.org/2000/svg" xmlns:xlink="http://www.w3.org/1999/xlink" contentStyleType="text/css" height="318px" preserveAspectRatio="none" style="width:923px;height:318px;background:#FFFFFF;" version="1.1" viewBox="0 0 923 318" width="923px" zoomAndPan="magnify"><defs/><g><!--cluster importarAlumnos--><g id="cluster_importarAlumnos"><path d="M8.5,6 L138.5,6 A3.75,3.75 0 0 1 141,8.5 L148,29.6094 L462.5,29.6094 A2.5,2.5 0 0 1 465,32.1094 L465,308.5 A2.5,2.5 0 0 1 462.5,311 L8.5,311 A2.5,2.5 0 0 1 6,308.5 L6,8.5 A2.5,2.5 0 0 1 8.5,6 " fill="none" style="stroke:#000000;stroke-width:1.5;"/><line style="stroke:#000000;stroke-width:1.5;" x1="6" x2="148" y1="29.6094" y2="29.6094"/><text fill="#000000" font-family="sans-serif" font-size="14" font-weight="bold" lengthAdjust="spacing" textLength="129" x="10" y="22.5332">importarAlumnos()</text></g><!--entity ImportarAlumnosView--><g id="elem_ImportarAlumnosView"><rect fill="#629EF9" height="37.6094" rx="2.5" ry="2.5" style="stroke:#181818;stroke-width:0.5;" width="155" x="293.5" y="42"/><text fill="#000000" font-family="sans-serif" font-size="14" lengthAdjust="spacing" textLength="135" x="303.5" y="66.5332">ImportarAlumnosView</text></g><!--entity AlumnoController--><g id="elem_AlumnoController"><rect fill="#B5BD68" height="37.6094" rx="2.5" ry="2.5" style="stroke:#181818;stroke-width:0.5;" width="129" x="22.5" y="158"/><text fill="#000000" font-family="sans-serif" font-size="14" lengthAdjust="spacing" textLength="109" x="32.5" y="182.5332">AlumnoController</text></g><!--entity AlumnoRepository--><g id="elem_AlumnoRepository"><rect fill="#F2AC4E" height="37.6094" rx="2.5" ry="2.5" style="stroke:#181818;stroke-width:0.5;" width="135" x="313.5" y="158"/><text fill="#000000" font-family="sans-serif" font-size="14" lengthAdjust="spacing" textLength="115" x="323.5" y="182.5332">AlumnoRepository</text></g><!--entity Alumno--><g id="elem_Alumno"><rect fill="#F2AC4E" height="37.6094" rx="2.5" ry="2.5" style="stroke:#181818;stroke-width:0.5;" width="67" x="347.5" y="257"/><text fill="#000000" font-family="sans-serif" font-size="14" lengthAdjust="spacing" textLength="47" x="357.5" y="281.5332">Alumno</text></g><!--entity AlumnosAbierto--><g id="elem_AlumnosAbierto"><rect fill="#CDEBA5" height="37.6094" rx="2.5" ry="2.5" style="stroke:#181818;stroke-width:0.5;" width="127" x="562.5" y="158"/><text fill="#000000" font-family="sans-serif" font-size="14" lengthAdjust="spacing" textLength="107" x="572.5" y="182.5332">:Alumnos Abierto</text></g><!--link AlumnosAbierto to ImportarAlumnosView--><g id="link_AlumnosAbierto_ImportarAlumnosView"><path d="M569.34,157.99 C526.5,144.37 475,128 475,128 C475,128 435.2752,102.7961 404.4852,83.2461 " fill="none" id="AlumnosAbierto-to-ImportarAlumnosView" style="stroke:#181818;stroke-width:1.0;"/><polygon fill="#181818" points="399.42,80.03,404.8737,88.231,403.641,82.7101,409.1619,81.4774,399.42,80.03" style="stroke:#181818;stroke-width:1.0;"/><text fill="#000000" font-family="sans-serif" font-size="13" lengthAdjust="spacing" textLength="106" x="476" y="124.4951">importarAlumnos()</text></g><!--link ImportarAlumnosView to AlumnosAbierto--><g id="link_ImportarAlumnosView_AlumnosAbierto"><path d="M448.68,79.26 C510.6,93.02 587,110 587,110 C587,110 600.75,133.253 612.29,152.803 " fill="none" id="ImportarAlumnosView-to-AlumnosAbierto" style="stroke:#181818;stroke-width:1.0;stroke-dasharray:7.0,7.0;"/><polygon fill="#181818" points="615.34,157.97,614.2097,148.1862,612.7984,153.6642,607.3204,152.2528,615.34,157.97" style="stroke:#181818;stroke-width:1.0;"/><text fill="#000000" font-family="sans-serif" font-size="13" lengthAdjust="spacing" textLength="183" x="598" y="124.4951">mostrarResultado(importResult)</text></g><!--link ImportarAlumnosView to AlumnosAbierto--><g id="link_ImportarAlumnosView_AlumnosAbierto"><path d="M448.83,70.92 C570,84.8 790,110 790,110 C790,110 790,128 790,128 C790,128 739.8285,142.6848 693.2885,156.3048 " fill="none" id="ImportarAlumnosView-to-AlumnosAbierto-1" style="stroke:#181818;stroke-width:1.0;stroke-dasharray:7.0,7.0;"/><polygon fill="#181818" points="687.53,157.99,697.2912,159.3011,692.3287,156.5856,695.0442,151.6232,687.53,157.99" style="stroke:#181818;stroke-width:1.0;"/><text fill="#000000" font-family="sans-serif" font-size="13" lengthAdjust="spacing" textLength="124" x="791" y="124.4951">cancelarImportacion()</text></g><!--link ImportarAlumnosView to AlumnoController--><g id="link_ImportarAlumnosView_AlumnoController"><path d="M293.45,73.74 C199.61,87.95 54,110 54,110 C54,110 54,128 54,128 C54,128 61.7816,139.3152 71.1216,152.9052 " fill="none" id="ImportarAlumnosView-to-AlumnoController" style="stroke:#181818;stroke-width:1.0;"/><polygon fill="#181818" points="74.52,157.85,72.7189,148.1672,71.688,153.7293,66.1259,152.6984,74.52,157.85" style="stroke:#181818;stroke-width:1.0;"/><text fill="#000000" font-family="sans-serif" font-size="13" lengthAdjust="spacing" textLength="180" x="55" y="124.4951">importar(archivo) : ImportResult</text></g><!--link ImportarAlumnosView to AlumnoController--><g id="link_ImportarAlumnosView_AlumnoController"><path d="M335.2,80.03 C296.42,99.58 240,128 240,128 C240,128 193.5448,142.5738 150.1348,156.1938 " fill="none" id="ImportarAlumnosView-to-AlumnoController-1" style="stroke:#181818;stroke-width:1.0;"/><polygon fill="#181818" points="144.41,157.99,154.1947,159.1123,149.1807,156.4932,151.7998,151.4792,144.41,157.99" style="stroke:#181818;stroke-width:1.0;"/><text fill="#000000" font-family="sans-serif" font-size="13" lengthAdjust="spacing" textLength="157" x="277" y="124.4951">obtenerFormatoRequerido()</text></g><!--link AlumnoController to AlumnoRepository--><g id="link_AlumnoController_AlumnoRepository"><path d="M151.52,177 C199.44,177 258.65,177 307.31,177 " fill="none" id="AlumnoController-to-AlumnoRepository" style="stroke:#181818;stroke-width:1.0;"/><polygon fill="#181818" points="313.31,177,304.31,173,308.31,177,304.31,181,313.31,177" style="stroke:#181818;stroke-width:1.0;"/><text fill="#000000" font-family="sans-serif" font-size="13" lengthAdjust="spacing" textLength="125" x="170" y="170.4951">guardarLote(alumnos)</text></g><!--link AlumnoRepository to Alumno--><g id="link_AlumnoRepository_Alumno"><path d="M381,196.24 C381,213.59 381,239.52 381,256.84 " fill="none" id="AlumnoRepository-Alumno" style="stroke:#181818;stroke-width:1.0;"/></g><!--SRC=[bP8nQyCm48Lt_Oh3NUB16K8JcWm1rqsWq2b3zxDzk2AopZtBBQ7qlrUf7N1iKr9Dql7Tk_SErKTjAnGimMXBxbGHL6nEvuTIGfb3MnY2k-HfznWl8TZ4fYajrn2dciHn0EZlRQqhALLXTiI2G9SLYqEvz7Wq6DHcOG1VIe4_lMchnNgtNyFpDVkgwND8fiiqNprq3XAsJjWOaY6sNyJ9_Qx33bHnhHtBwKzCVIjrdGmYYRPJhc03ernAJO5HxXM6RdljCvJiJNzmw6jj_u7gnhZ_gN7go9BiMKfqFkzxGw9pFfiQqR-PXeln6aM3agEyiACPjZD3DUAYwBAjIOFp-NRmExnooRKJb3OOUbkw5pIyNIT3cv51wHeopTOd_040]--></g></svg>