<?xml version="1.0" encoding="us-ascii" standalone="no"?><svg xmlns="http://www.w3.org/2000/svg" xmlns:xlink="http://www.w3.org/1999/xlink" contentStyleType="text/css" height="731px" preserveAspectRatio="none" style="width:1386px;height:731px;background:#FFFFFF;" version="1.1" viewBox="0 0 1386 731" width="1386px" zoomAndPan="magnify"><defs/><g><rect fill="none" height="307.3516" style="stroke:#000000;stroke-width:1.5;" width="1369.5" x="10" y="325.0703"/><line style="stroke:#181818;stroke-width:0.5;stroke-dasharray:5.0,5.0;" x1="66" x2="66" y1="82.6094" y2="649.4219"/><line style="stroke:#181818;stroke-width:0.5;stroke-dasharray:5.0,5.0;" x1="292.5" x2="292.5" y1="82.6094" y2="649.4219"/><line style="stroke:#181818;stroke-width:0.5;stroke-dasharray:5.0,5.0;" x1="548" x2="548" y1="82.6094" y2="649.4219"/><line style="stroke:#181818;stroke-width:0.5;stroke-dasharray:5.0,5.0;" x1="724.5" x2="724.5" y1="82.6094" y2="649.4219"/><line style="stroke:#181818;stroke-width:0.5;stroke-dasharray:5.0,5.0;" x1="856.5" x2="856.5" y1="82.6094" y2="649.4219"/><line style="stroke:#181818;stroke-width:0.5;stroke-dasharray:5.0,5.0;" x1="1327.5" x2="1327.5" y1="82.6094" y2="649.4219"/><text fill="#000000" font-family="sans-serif" font-size="14" lengthAdjust="spacing" textLength="87" x="20" y="79.5332">Administrador</text><ellipse cx="66.5" cy="13.5" fill="#E2E2F0" rx="8" ry="8" style="stroke:#181818;stroke-width:0.5;"/><path d="M66.5,21.5 L66.5,48.5 M53.5,29.5 L79.5,29.5 M66.5,48.5 L53.5,63.5 M66.5,48.5 L79.5,63.5 " fill="none" style="stroke:#181818;stroke-width:0.5;"/><text fill="#000000" font-family="sans-serif" font-size="14" lengthAdjust="spacing" textLength="87" x="20" y="662.9551">Administrador</text><ellipse cx="66.5" cy="674.5313" fill="#E2E2F0" rx="8" ry="8" style="stroke:#181818;stroke-width:0.5;"/><path d="M66.5,682.5313 L66.5,709.5313 M53.5,690.5313 L79.5,690.5313 M66.5,709.5313 L53.5,724.5313 M66.5,709.5313 L79.5,724.5313 " fill="none" style="stroke:#181818;stroke-width:0.5;"/><rect fill="#E2E2F0" height="66.8281" rx="2.5" ry="2.5" style="stroke:#181818;stroke-width:0.5;" width="126" x="229.5" y="14.7813"/><text fill="#000000" font-family="sans-serif" font-size="14" font-style="italic" lengthAdjust="spacing" textLength="89" x="248" y="36.3145">&#171;Component&#187;</text><text fill="#000000" font-family="sans-serif" font-size="14" lengthAdjust="spacing" textLength="112" x="236.5" y="53.9238">CrearAlumnoView</text><text fill="#000000" font-family="sans-serif" font-size="14" lengthAdjust="spacing" textLength="47" x="269" y="71.5332">(React)</text><rect fill="#E2E2F0" height="66.8281" rx="2.5" ry="2.5" style="stroke:#181818;stroke-width:0.5;" width="126" x="229.5" y="648.4219"/><text fill="#000000" font-family="sans-serif" font-size="14" font-style="italic" lengthAdjust="spacing" textLength="89" x="248" y="669.9551">&#171;Component&#187;</text><text fill="#000000" font-family="sans-serif" font-size="14" lengthAdjust="spacing" textLength="112" x="236.5" y="687.5645">CrearAlumnoView</text><text fill="#000000" font-family="sans-serif" font-size="14" lengthAdjust="spacing" textLength="47" x="269" y="705.1738">(React)</text><rect fill="#E2E2F0" height="66.8281" rx="2.5" ry="2.5" style="stroke:#181818;stroke-width:0.5;" width="115" x="491" y="14.7813"/><text fill="#000000" font-family="sans-serif" font-size="14" font-style="italic" lengthAdjust="spacing" textLength="62" x="517.5" y="36.3145">&#171;Service&#187;</text><text fill="#000000" font-family="sans-serif" font-size="14" lengthAdjust="spacing" textLength="101" x="498" y="53.9238">AlumnosService</text><text fill="#000000" font-family="sans-serif" font-size="14" lengthAdjust="spacing" textLength="43" x="527" y="71.5332">(Axios)</text><rect fill="#E2E2F0" height="66.8281" rx="2.5" ry="2.5" style="stroke:#181818;stroke-width:0.5;" width="115" x="491" y="648.4219"/><text fill="#000000" font-family="sans-serif" font-size="14" font-style="italic" lengthAdjust="spacing" textLength="62" x="517.5" y="669.9551">&#171;Service&#187;</text><text fill="#000000" font-family="sans-serif" font-size="14" lengthAdjust="spacing" textLength="101" x="498" y="687.5645">AlumnosService</text><text fill="#000000" font-family="sans-serif" font-size="14" lengthAdjust="spacing" textLength="43" x="527" y="705.1738">(Axios)</text><rect fill="#E2E2F0" height="66.8281" rx="2.5" ry="2.5" style="stroke:#181818;stroke-width:0.5;" width="130" x="659.5" y="14.7813"/><text fill="#000000" font-family="sans-serif" font-size="14" font-style="italic" lengthAdjust="spacing" textLength="78" x="685.5" y="36.3145">&#171;Controller&#187;</text><text fill="#000000" font-family="sans-serif" font-size="14" lengthAdjust="spacing" textLength="116" x="666.5" y="53.9238">AlumnosController</text><text fill="#000000" font-family="sans-serif" font-size="14" lengthAdjust="spacing" textLength="53" x="698" y="71.5332">(NestJS)</text><rect fill="#E2E2F0" height="66.8281" rx="2.5" ry="2.5" style="stroke:#181818;stroke-width:0.5;" width="130" x="659.5" y="648.4219"/><text fill="#000000" font-family="sans-serif" font-size="14" font-style="italic" lengthAdjust="spacing" textLength="78" x="685.5" y="669.9551">&#171;Controller&#187;</text><text fill="#000000" font-family="sans-serif" font-size="14" lengthAdjust="spacing" textLength="116" x="666.5" y="687.5645">AlumnosController</text><text fill="#000000" font-family="sans-serif" font-size="14" lengthAdjust="spacing" textLength="53" x="698" y="705.1738">(NestJS)</text><rect fill="#E2E2F0" height="66.8281" rx="2.5" ry="2.5" style="stroke:#181818;stroke-width:0.5;" width="115" x="799.5" y="14.7813"/><text fill="#000000" font-family="sans-serif" font-size="14" font-style="italic" lengthAdjust="spacing" textLength="62" x="826" y="36.3145">&#171;Service&#187;</text><text fill="#000000" font-family="sans-serif" font-size="14" lengthAdjust="spacing" textLength="101" x="806.5" y="53.9238">AlumnosService</text><text fill="#000000" font-family="sans-serif" font-size="14" lengthAdjust="spacing" textLength="53" x="830.5" y="71.5332">(NestJS)</text><rect fill="#E2E2F0" height="66.8281" rx="2.5" ry="2.5" style="stroke:#181818;stroke-width:0.5;" width="115" x="799.5" y="648.4219"/><text fill="#000000" font-family="sans-serif" font-size="14" font-style="italic" lengthAdjust="spacing" textLength="62" x="826" y="669.9551">&#171;Service&#187;</text><text fill="#000000" font-family="sans-serif" font-size="14" lengthAdjust="spacing" textLength="101" x="806.5" y="687.5645">AlumnosService</text><text fill="#000000" font-family="sans-serif" font-size="14" lengthAdjust="spacing" textLength="53" x="830.5" y="705.1738">(NestJS)</text><text fill="#000000" font-family="sans-serif" font-size="14" lengthAdjust="spacing" textLength="77" x="1286.5" y="79.5332">PostgreSQL</text><path d="M1310,29 C1310,19 1328,19 1328,19 C1328,19 1346,19 1346,29 L1346,55 C1346,65 1328,65 1328,65 C1328,65 1310,65 1310,55 L1310,29 " fill="#E2E2F0" style="stroke:#181818;stroke-width:1.5;"/><path d="M1310,29 C1310,39 1328,39 1328,39 C1328,39 1346,39 1346,29 " fill="none" style="stroke:#181818;stroke-width:1.5;"/><text fill="#000000" font-family="sans-serif" font-size="14" lengthAdjust="spacing" textLength="77" x="1286.5" y="662.9551">PostgreSQL</text><path d="M1310,676.0313 C1310,666.0313 1328,666.0313 1328,666.0313 C1328,666.0313 1346,666.0313 1346,676.0313 L1346,702.0313 C1346,712.0313 1328,712.0313 1328,712.0313 C1328,712.0313 1310,712.0313 1310,702.0313 L1310,676.0313 " fill="#E2E2F0" style="stroke:#181818;stroke-width:1.5;"/><path d="M1310,676.0313 C1310,686.0313 1328,686.0313 1328,686.0313 C1328,686.0313 1346,686.0313 1346,676.0313 " fill="none" style="stroke:#181818;stroke-width:1.5;"/><polygon fill="#181818" points="280.5,110.9609,290.5,114.9609,280.5,118.9609,284.5,114.9609" style="stroke:#181818;stroke-width:1.0;"/><line style="stroke:#181818;stroke-width:1.0;" x1="66.5" x2="286.5" y1="114.9609" y2="114.9609"/><text fill="#000000" font-family="sans-serif" font-size="13" lengthAdjust="spacing" textLength="202" x="73.5" y="110.1045">Completa datos del alumno y env&#237;a</text><line style="stroke:#181818;stroke-width:1.0;" x1="292.5" x2="334.5" y1="145.3125" y2="145.3125"/><line style="stroke:#181818;stroke-width:1.0;" x1="334.5" x2="334.5" y1="145.3125" y2="158.3125"/><line style="stroke:#181818;stroke-width:1.0;" x1="293.5" x2="334.5" y1="158.3125" y2="158.3125"/><polygon fill="#181818" points="303.5,154.3125,293.5,158.3125,303.5,162.3125,299.5,158.3125" style="stroke:#181818;stroke-width:1.0;"/><text fill="#000000" font-family="sans-serif" font-size="13" lengthAdjust="spacing" textLength="238" x="299.5" y="140.4561">Validaciones frontend (React Hook Form)</text><polygon fill="#181818" points="536.5,184.6641,546.5,188.6641,536.5,192.6641,540.5,188.6641" style="stroke:#181818;stroke-width:1.0;"/><line style="stroke:#181818;stroke-width:1.0;" x1="292.5" x2="542.5" y1="188.6641" y2="188.6641"/><text fill="#000000" font-family="sans-serif" font-size="13" lengthAdjust="spacing" textLength="196" x="299.5" y="183.8076">createAlumno(CreateAlumnoDTO)</text><polygon fill="#181818" points="712.5,215.0156,722.5,219.0156,712.5,223.0156,716.5,219.0156" style="stroke:#181818;stroke-width:1.0;"/><line style="stroke:#181818;stroke-width:1.0;" x1="548.5" x2="718.5" y1="219.0156" y2="219.0156"/><text fill="#000000" font-family="sans-serif" font-size="13" lengthAdjust="spacing" textLength="132" x="555.5" y="214.1592">POST /alumnos (body)</text><polygon fill="#181818" points="845,245.3672,855,249.3672,845,253.3672,849,249.3672" style="stroke:#181818;stroke-width:1.0;"/><line style="stroke:#181818;stroke-width:1.0;" x1="724.5" x2="851" y1="249.3672" y2="249.3672"/><text fill="#000000" font-family="sans-serif" font-size="13" lengthAdjust="spacing" textLength="62" x="731.5" y="244.5107">create(dto)</text><polygon fill="#181818" points="1316,275.7188,1326,279.7188,1316,283.7188,1320,279.7188" style="stroke:#181818;stroke-width:1.0;"/><line style="stroke:#181818;stroke-width:1.0;" x1="857" x2="1322" y1="279.7188" y2="279.7188"/><text fill="#000000" font-family="sans-serif" font-size="13" lengthAdjust="spacing" textLength="447" x="864" y="274.8623">SELECT 1 FROM alumno WHERE codigo = dto.codigo OR email = dto.email</text><polygon fill="#181818" points="868,306.0703,858,310.0703,868,314.0703,864,310.0703" style="stroke:#181818;stroke-width:1.0;"/><line style="stroke:#181818;stroke-width:1.0;stroke-dasharray:2.0,2.0;" x1="862" x2="1327" y1="310.0703" y2="310.0703"/><text fill="#000000" font-family="sans-serif" font-size="13" lengthAdjust="spacing" textLength="58" x="874" y="305.2139">Resultado</text><path d="M10,325.0703 L71,325.0703 L71,333.4219 L61,343.4219 L10,343.4219 L10,325.0703 " fill="#EEEEEE" style="stroke:#000000;stroke-width:1.5;"/><rect fill="none" height="307.3516" style="stroke:#000000;stroke-width:1.5;" width="1369.5" x="10" y="325.0703"/><text fill="#000000" font-family="sans-serif" font-size="13" font-weight="bold" lengthAdjust="spacing" textLength="16" x="25" y="339.5654">alt</text><text fill="#000000" font-family="sans-serif" font-size="11" font-weight="bold" lengthAdjust="spacing" textLength="119" x="86" y="338.4893">[Duplicado detectado]</text><polygon fill="#181818" points="735.5,361.7734,725.5,365.7734,735.5,369.7734,731.5,365.7734" style="stroke:#181818;stroke-width:1.0;"/><line style="stroke:#181818;stroke-width:1.0;stroke-dasharray:2.0,2.0;" x1="729.5" x2="856" y1="365.7734" y2="365.7734"/><text fill="#000000" font-family="sans-serif" font-size="13" lengthAdjust="spacing" textLength="101" x="741.5" y="360.917">ConflictException</text><polygon fill="#181818" points="559.5,392.125,549.5,396.125,559.5,400.125,555.5,396.125" style="stroke:#181818;stroke-width:1.0;"/><line style="stroke:#181818;stroke-width:1.0;stroke-dasharray:2.0,2.0;" x1="553.5" x2="723.5" y1="396.125" y2="396.125"/><text fill="#000000" font-family="sans-serif" font-size="13" lengthAdjust="spacing" textLength="68" x="565.5" y="391.2686">409 Conflict</text><polygon fill="#181818" points="303.5,422.4766,293.5,426.4766,303.5,430.4766,299.5,426.4766" style="stroke:#181818;stroke-width:1.0;"/><line style="stroke:#181818;stroke-width:1.0;stroke-dasharray:2.0,2.0;" x1="297.5" x2="547.5" y1="426.4766" y2="426.4766"/><text fill="#000000" font-family="sans-serif" font-size="13" lengthAdjust="spacing" textLength="232" x="309.5" y="421.6201">Muestra error (C&#243;digo o email ya existe)</text><line style="stroke:#000000;stroke-width:1.0;stroke-dasharray:2.0,2.0;" x1="10" x2="1379.5" y1="435.4766" y2="435.4766"/><text fill="#000000" font-family="sans-serif" font-size="11" font-weight="bold" lengthAdjust="spacing" textLength="81" x="15" y="446.8955">[Datos v&#225;lidos]</text><polygon fill="#181818" points="1316,468.6641,1326,472.6641,1316,476.6641,1320,472.6641" style="stroke:#181818;stroke-width:1.0;"/><line style="stroke:#181818;stroke-width:1.0;" x1="857" x2="1322" y1="472.6641" y2="472.6641"/><text fill="#000000" font-family="sans-serif" font-size="13" lengthAdjust="spacing" textLength="229" x="864" y="467.8076">INSERT INTO alumno (...) VALUES (...)</text><polygon fill="#181818" points="868,499.0156,858,503.0156,868,507.0156,864,503.0156" style="stroke:#181818;stroke-width:1.0;"/><line style="stroke:#181818;stroke-width:1.0;stroke-dasharray:2.0,2.0;" x1="862" x2="1327" y1="503.0156" y2="503.0156"/><text fill="#000000" font-family="sans-serif" font-size="13" lengthAdjust="spacing" textLength="87" x="874" y="498.1592">Alumno creado</text><polygon fill="#181818" points="735.5,529.3672,725.5,533.3672,735.5,537.3672,731.5,533.3672" style="stroke:#181818;stroke-width:1.0;"/><line style="stroke:#181818;stroke-width:1.0;stroke-dasharray:2.0,2.0;" x1="729.5" x2="856" y1="533.3672" y2="533.3672"/><text fill="#000000" font-family="sans-serif" font-size="13" lengthAdjust="spacing" textLength="70" x="741.5" y="528.5107">AlumnoDTO</text><polygon fill="#181818" points="559.5,559.7188,549.5,563.7188,559.5,567.7188,555.5,563.7188" style="stroke:#181818;stroke-width:1.0;"/><line style="stroke:#181818;stroke-width:1.0;stroke-dasharray:2.0,2.0;" x1="553.5" x2="723.5" y1="563.7188" y2="563.7188"/><text fill="#000000" font-family="sans-serif" font-size="13" lengthAdjust="spacing" textLength="152" x="565.5" y="558.8623">201 Created (AlumnoDTO)</text><polygon fill="#181818" points="303.5,590.0703,293.5,594.0703,303.5,598.0703,299.5,594.0703" style="stroke:#181818;stroke-width:1.0;"/><line style="stroke:#181818;stroke-width:1.0;stroke-dasharray:2.0,2.0;" x1="297.5" x2="547.5" y1="594.0703" y2="594.0703"/><text fill="#000000" font-family="sans-serif" font-size="13" lengthAdjust="spacing" textLength="30" x="309.5" y="589.2139">&#201;xito</text><polygon fill="#181818" points="77.5,620.4219,67.5,624.4219,77.5,628.4219,73.5,624.4219" style="stroke:#181818;stroke-width:1.0;"/><line style="stroke:#181818;stroke-width:1.0;stroke-dasharray:2.0,2.0;" x1="71.5" x2="291.5" y1="624.4219" y2="624.4219"/><text fill="#000000" font-family="sans-serif" font-size="13" lengthAdjust="spacing" textLength="103" x="83.5" y="619.5654">Redirige al listado</text><!--SRC=[XLF1Sjem4BthAtOusOVGfDDBcPGPC6QI3WcfJUYb5yLUg2Qon4Y2m2VqC_81FVKJ-B6kPKDicWw-sAjzRxNxtje-2xNYXXTWV_9SlmYrX0MN5XdZcTC61daXbB3EKDOmWZgHYHLN3ZgHGMu6SbqeFHVuyaC52H8fx02ty7WBrzUHBbPQeNBzVfjQiMoAPYCo9EPWAxIjcEFwbFZrrt_OaLREQ2dHK85xjEvhMbLuI_WU3i7P9ferXkzraNF7dxX5w3newvO6qsyJZnuD6Mif1HVzKe8Ub198T1o8gotaA87xUs47g3RxtvmHxe2USobodWaIpSB2KEkeSgXqXHkjds6iJH7MbADIFSZ82uVLH47K24QpQSYEG28rnEd1mpITmOUg8Gl1ayvt8MiW23yylIJ8dGuP6pPgZeQKJUD97CtW2iR9zEumvFURE8aXqxbOQlW2HEtMmJG1BBYGzQd_PbJeedrdWdOj7KbA2oaTZDOhAJ8AIKc7cKy0FM_Td8v8mO8eBjvck7AahCStPsmh-Udoyv7ZeUDcQU_ItHfBcm6D8QU3QF_7JwJhWNQKsT8YOCYG_YGOUUSt-rVoLjkJTclnRk_JE9dHQpOzI1TqkzqGveF9OvnMWQV-Ar5bj7Vdh1h7fJYZmiVBAwZMYDQliKdl2xB_jHMkkhhSJ3fk_mobZRamOeaq74WwBpkbrMP_0G00]--></g></svg>