<?xml version="1.0" encoding="us-ascii" standalone="no"?><svg xmlns="http://www.w3.org/2000/svg" xmlns:xlink="http://www.w3.org/1999/xlink" contentStyleType="text/css" height="554px" preserveAspectRatio="none" style="width:897px;height:554px;background:#FFFFFF;" version="1.1" viewBox="0 0 897 554" width="897px" zoomAndPan="magnify"><defs/><g><!--cluster crearAlumno--><g id="cluster_crearAlumno"><path d="M8.5,109 L108.5,109 A3.75,3.75 0 0 1 111,111.5 L118,132.6094 L658.5,132.6094 A2.5,2.5 0 0 1 661,135.1094 L661,544.5 A2.5,2.5 0 0 1 658.5,547 L8.5,547 A2.5,2.5 0 0 1 6,544.5 L6,111.5 A2.5,2.5 0 0 1 8.5,109 " fill="none" style="stroke:#000000;stroke-width:1.5;"/><line style="stroke:#000000;stroke-width:1.5;" x1="6" x2="118" y1="132.6094" y2="132.6094"/><text fill="#000000" font-family="sans-serif" font-size="14" font-weight="bold" lengthAdjust="spacing" textLength="99" x="10" y="125.5332">crearAlumno()</text></g><!--entity CrearAlumnoView--><g id="elem_CrearAlumnoView"><rect fill="#629EF9" height="37.6094" rx="2.5" ry="2.5" style="stroke:#181818;stroke-width:0.5;" width="132" x="233" y="145"/><text fill="#000000" font-family="sans-serif" font-size="14" lengthAdjust="spacing" textLength="112" x="243" y="169.5332">CrearAlumnoView</text></g><!--entity AlumnoController--><g id="elem_AlumnoController"><rect fill="#B5BD68" height="37.6094" rx="2.5" ry="2.5" style="stroke:#181818;stroke-width:0.5;" width="129" x="204.5" y="261"/><text fill="#000000" font-family="sans-serif" font-size="14" lengthAdjust="spacing" textLength="109" x="214.5" y="285.5332">AlumnoController</text></g><!--entity AlumnoRepository--><g id="elem_AlumnoRepository"><rect fill="#F2AC4E" height="37.6094" rx="2.5" ry="2.5" style="stroke:#181818;stroke-width:0.5;" width="135" x="81.5" y="377"/><text fill="#000000" font-family="sans-serif" font-size="14" lengthAdjust="spacing" textLength="115" x="91.5" y="401.5332">AlumnoRepository</text></g><!--entity GradoRepository--><g id="elem_GradoRepository"><rect fill="#F2AC4E" height="37.6094" rx="2.5" ry="2.5" style="stroke:#181818;stroke-width:0.5;" width="128" x="310" y="377"/><text fill="#000000" font-family="sans-serif" font-size="14" lengthAdjust="spacing" textLength="108" x="320" y="401.5332">GradoRepository</text></g><!--entity Alumno--><g id="elem_Alumno"><rect fill="#F2AC4E" height="37.6094" rx="2.5" ry="2.5" style="stroke:#181818;stroke-width:0.5;" width="67" x="559.5" y="377"/><text fill="#000000" font-family="sans-serif" font-size="14" lengthAdjust="spacing" textLength="47" x="569.5" y="401.5332">Alumno</text></g><!--entity Grado--><g id="elem_Grado"><rect fill="#F2AC4E" height="37.6094" rx="2.5" ry="2.5" style="stroke:#181818;stroke-width:0.5;" width="60" x="344" y="493"/><text fill="#000000" font-family="sans-serif" font-size="14" lengthAdjust="spacing" textLength="40" x="354" y="517.5332">Grado</text></g><!--entity AlumnosAbierto--><g id="elem_AlumnosAbierto"><rect fill="#CDEBA5" height="37.6094" rx="2.5" ry="2.5" style="stroke:#181818;stroke-width:0.5;" width="127" x="235.5" y="7"/><text fill="#000000" font-family="sans-serif" font-size="14" lengthAdjust="spacing" textLength="107" x="245.5" y="31.5332">:Alumnos Abierto</text></g><!--entity AlumnoAbierta--><g id="elem_AlumnoAbierta"><rect fill="#CDEBA5" height="37.6094" rx="2.5" ry="2.5" style="stroke:#181818;stroke-width:0.5;" width="120" x="677" y="261"/><text fill="#000000" font-family="sans-serif" font-size="14" lengthAdjust="spacing" textLength="100" x="687" y="285.5332">:Alumno Abierta</text></g><!--link AlumnosAbierto to CrearAlumnoView--><g id="link_AlumnosAbierto_CrearAlumnoView"><path d="M274.8,45.15 C256.68,58.74 235,75 235,75 C235,75 235,93 235,93 C235,93 259.5117,119.8016 278.4717,140.5416 " fill="none" id="AlumnosAbierto-to-CrearAlumnoView" style="stroke:#181818;stroke-width:1.0;"/><polygon fill="#181818" points="282.52,144.97,279.3998,135.6285,279.1464,141.2797,273.4952,141.0263,282.52,144.97" style="stroke:#181818;stroke-width:1.0;"/><text fill="#000000" font-family="sans-serif" font-size="13" lengthAdjust="spacing" textLength="81" x="236" y="89.4951">crearAlumno()</text></g><!--link CrearAlumnoView to AlumnosAbierto--><g id="link_CrearAlumnoView_AlumnosAbierto"><path d="M304.92,144.97 C311.74,124.23 322,93 322,93 C322,93 322,75 322,75 C322,75 316.8021,64.1512 310.2921,50.5612 " fill="none" id="CrearAlumnoView-to-AlumnosAbierto" style="stroke:#181818;stroke-width:1.0;stroke-dasharray:7.0,7.0;"/><polygon fill="#181818" points="307.7,45.15,307.9807,54.9949,309.8601,49.6593,315.1956,51.5387,307.7,45.15" style="stroke:#181818;stroke-width:1.0;"/><text fill="#000000" font-family="sans-serif" font-size="13" lengthAdjust="spacing" textLength="63" x="323" y="89.4951">&#171;cancelar&#187;</text></g><!--link CrearAlumnoView to AlumnoController--><g id="link_CrearAlumnoView_AlumnoController"><path d="M232.76,178.88 C165.13,193.06 70,213 70,213 C70,213 70,231 70,231 C70,231 140.4474,247.9928 198.5574,262.0128 " fill="none" id="CrearAlumnoView-to-AlumnoController" style="stroke:#181818;stroke-width:1.0;"/><polygon fill="#181818" points="204.39,263.42,196.5792,257.4207,199.5295,262.2473,194.7029,265.1976,204.39,263.42" style="stroke:#181818;stroke-width:1.0;"/><text fill="#000000" font-family="sans-serif" font-size="13" lengthAdjust="spacing" textLength="184" x="71" y="227.4951">obtenerGrados() : Lista&lt;Grado&gt;</text></g><!--link CrearAlumnoView to AlumnoController--><g id="link_CrearAlumnoView_AlumnoController"><path d="M294.25,183.06 C288.66,204.28 280.978,233.4978 275.358,254.8378 " fill="none" id="CrearAlumnoView-to-AlumnoController-1" style="stroke:#181818;stroke-width:1.0;"/><polygon fill="#181818" points="273.83,260.64,279.9902,252.9554,275.1034,255.8049,272.2539,250.9181,273.83,260.64" style="stroke:#181818;stroke-width:1.0;"/><text fill="#000000" font-family="sans-serif" font-size="13" lengthAdjust="spacing" textLength="344" x="286" y="227.4951">crear(nie, nombre, apellidos, correo, curso, grado) : Alumno</text></g><!--link AlumnoController to GradoRepository--><g id="link_AlumnoController_GradoRepository"><path d="M293.95,299.15 C312.64,312.74 335,329 335,329 C335,329 348.75,352.253 360.29,371.803 " fill="none" id="AlumnoController-to-GradoRepository" style="stroke:#181818;stroke-width:1.0;"/><polygon fill="#181818" points="363.34,376.97,362.2097,367.1862,360.7984,372.6642,355.3204,371.2528,363.34,376.97" style="stroke:#181818;stroke-width:1.0;"/><text fill="#000000" font-family="sans-serif" font-size="13" lengthAdjust="spacing" textLength="177" x="346" y="343.4951">obtenerTodos() : Lista&lt;Grado&gt;</text></g><!--link GradoRepository to Grado--><g id="link_GradoRepository_Grado"><path d="M374,415.06 C374,436.28 374,465.3 374,486.64 " fill="none" id="GradoRepository-to-Grado" style="stroke:#181818;stroke-width:1.0;"/><polygon fill="#181818" points="374,492.64,378,483.64,374,487.64,370,483.64,374,492.64" style="stroke:#181818;stroke-width:1.0;"/><text fill="#000000" font-family="sans-serif" font-size="13" lengthAdjust="spacing" textLength="61" x="375" y="459.4951">consultar()</text></g><!--link AlumnoController to AlumnoController--><g id="link_AlumnoController_AlumnoController"><path d="M333.6,269.14 C353.19,269.41 368.5,273.03 368.5,280 C368.5,286.97 359.1894,290.5073 339.5994,290.7773 " fill="none" id="AlumnoController-to-AlumnoController" style="stroke:#181818;stroke-width:1.0;"/><polygon fill="#181818" points="333.6,290.86,342.6543,294.7356,338.5995,290.7911,342.544,286.7363,333.6,290.86" style="stroke:#181818;stroke-width:1.0;"/><text fill="#000000" font-family="sans-serif" font-size="13" lengthAdjust="spacing" textLength="92" x="374.5" y="285.4951">validarCampos()</text></g><!--link AlumnoController to AlumnoRepository--><g id="link_AlumnoController_AlumnoRepository"><path d="M204.49,295.4 C141.16,309.54 54,329 54,329 C54,329 54,347 54,347 C54,347 81.0446,360.6645 108.0046,374.2845 " fill="none" id="AlumnoController-to-AlumnoRepository" style="stroke:#181818;stroke-width:1.0;"/><polygon fill="#181818" points="113.36,376.99,107.1306,369.3615,108.8972,374.7354,103.5232,376.502,113.36,376.99" style="stroke:#181818;stroke-width:1.0;"/><text fill="#000000" font-family="sans-serif" font-size="13" lengthAdjust="spacing" textLength="140" x="55" y="343.4951">existeNIE(nie) : Boolean</text></g><!--link AlumnoController to AlumnoRepository--><g id="link_AlumnoController_AlumnoRepository"><path d="M250.15,299.03 C229.72,318.58 200,347 200,347 C200,347 187.0893,359.1479 172.6493,372.7379 " fill="none" id="AlumnoController-to-AlumnoRepository-1" style="stroke:#181818;stroke-width:1.0;"/><polygon fill="#181818" points="168.28,376.85,177.5753,373.5947,171.9211,373.4233,172.0925,367.769,168.28,376.85" style="stroke:#181818;stroke-width:1.0;"/><text fill="#000000" font-family="sans-serif" font-size="13" lengthAdjust="spacing" textLength="93" x="219" y="343.4951">guardar(alumno)</text></g><!--link AlumnoController to Alumno--><g id="link_AlumnoController_Alumno"><path d="M333.67,292.8 C411.55,307.02 532,329 532,329 C532,329 554.1986,353.0127 572.2586,372.5627 " fill="none" id="AlumnoController-to-Alumno" style="stroke:#181818;stroke-width:1.0;"/><polygon fill="#181818" points="576.33,376.97,573.1611,367.6449,572.9372,373.2973,567.2848,373.0733,576.33,376.97" style="stroke:#181818;stroke-width:1.0;"/><text fill="#000000" font-family="sans-serif" font-size="13" lengthAdjust="spacing" textLength="50" x="549" y="343.4951">&#171;create&#187;</text></g><!--link CrearAlumnoView to AlumnoAbierta--><g id="link_CrearAlumnoView_AlumnoAbierta"><path d="M365.36,174.37 C464.31,188.34 639,213 639,213 C639,213 676.2344,238.0669 705.2444,257.6169 " fill="none" id="CrearAlumnoView-to-AlumnoAbierta" style="stroke:#181818;stroke-width:1.0;stroke-dasharray:7.0,7.0;"/><polygon fill="#181818" points="710.22,260.97,704.992,252.6233,706.0737,258.1758,700.5212,259.2574,710.22,260.97" style="stroke:#181818;stroke-width:1.0;"/><text fill="#000000" font-family="sans-serif" font-size="13" lengthAdjust="spacing" textLength="223" x="666" y="227.4951">&#171;finalizar&#187; editarAlumno(alumnoNuevo)</text></g><!--SRC=[bLDDJy904BtlhzZWfIJ0WGWHGfgKMeo9uM2CzocCpORjRZFTecZyx-wM2hIfLNkPxlHzp9jiyvrG6H2aN0g5vf0XpxGyk0DZX1i3Af78hyBRQ1bCU6yUo29LEkT1B92Cxd6mxyTUrUgWLIouO5KTnZBOx211lY44gk0MrRiuU_qU_s2Cs-V2OpgUHQiP3y-uPu6lJLGyYRVJcyeqrCgGbXAf2LkDW_0wgc2FcEbS64s77s1t1DlVKKUnBWdsoLXzYNmuz9kH-9pNbi5O4-18pOIMfME32gcqohs-xJo8tC2YRFZVrXSKfzF8TfPvqkqgJS99nCsjLLv80_IFgSkidX8uu4gdCTaA6KefhFt0AXAXjhMWt9R46RcPgcMtPsfnsOCL10eXpLogJc9j6_Xcq-FwFd8ZEkUbrX91TIfOs6BXWXdq_Rzx9GMG7TA3ybFB2aSZl_u_bKOlGjbqxq2-pt4hpEdg77NM1UwxnKwtiHmRr0Qb4sDV]--></g></svg>