<?xml version="1.0" encoding="us-ascii" standalone="no"?><svg xmlns="http://www.w3.org/2000/svg" xmlns:xlink="http://www.w3.org/1999/xlink" contentStyleType="text/css" height="830px" preserveAspectRatio="none" style="width:2179px;height:830px;background:#FFFFFF;" version="1.1" viewBox="0 0 2179 830" width="2179px" zoomAndPan="magnify"><defs/><g><line style="stroke:#181818;stroke-width:0.5;stroke-dasharray:5.0,5.0;" x1="51" x2="51" y1="82.6094" y2="748.6953"/><line style="stroke:#181818;stroke-width:0.5;stroke-dasharray:5.0,5.0;" x1="397" x2="397" y1="82.6094" y2="748.6953"/><line style="stroke:#181818;stroke-width:0.5;stroke-dasharray:5.0,5.0;" x1="645.5" x2="645.5" y1="82.6094" y2="748.6953"/><line style="stroke:#181818;stroke-width:0.5;stroke-dasharray:5.0,5.0;" x1="869" x2="869" y1="82.6094" y2="748.6953"/><line style="stroke:#181818;stroke-width:0.5;stroke-dasharray:5.0,5.0;" x1="1306" x2="1306" y1="82.6094" y2="748.6953"/><line style="stroke:#181818;stroke-width:0.5;stroke-dasharray:5.0,5.0;" x1="1496.5" x2="1496.5" y1="82.6094" y2="748.6953"/><line style="stroke:#181818;stroke-width:0.5;stroke-dasharray:5.0,5.0;" x1="1810.5" x2="1810.5" y1="82.6094" y2="748.6953"/><line style="stroke:#181818;stroke-width:0.5;stroke-dasharray:5.0,5.0;" x1="2126" x2="2126" y1="82.6094" y2="748.6953"/><text fill="#000000" font-family="sans-serif" font-size="14" lengthAdjust="spacing" textLength="87" x="5" y="79.5332">Administrador</text><ellipse cx="51.5" cy="13.5" fill="#E2E2F0" rx="8" ry="8" style="stroke:#181818;stroke-width:0.5;"/><path d="M51.5,21.5 L51.5,48.5 M38.5,29.5 L64.5,29.5 M51.5,48.5 L38.5,63.5 M51.5,48.5 L64.5,63.5 " fill="none" style="stroke:#181818;stroke-width:0.5;"/><text fill="#000000" font-family="sans-serif" font-size="14" lengthAdjust="spacing" textLength="87" x="5" y="762.2285">Administrador</text><ellipse cx="51.5" cy="773.8047" fill="#E2E2F0" rx="8" ry="8" style="stroke:#181818;stroke-width:0.5;"/><path d="M51.5,781.8047 L51.5,808.8047 M38.5,789.8047 L64.5,789.8047 M51.5,808.8047 L38.5,823.8047 M51.5,808.8047 L64.5,823.8047 " fill="none" style="stroke:#181818;stroke-width:0.5;"/><rect fill="#E2E2F0" height="66.8281" rx="2.5" ry="2.5" style="stroke:#181818;stroke-width:0.5;" width="173" x="311" y="14.7813"/><text fill="#000000" font-family="sans-serif" font-size="14" font-style="italic" lengthAdjust="spacing" textLength="89" x="353" y="36.3145">&#171;Component&#187;</text><text fill="#000000" font-family="sans-serif" font-size="14" lengthAdjust="spacing" textLength="159" x="318" y="53.9238">ConsultarCalendarioView</text><text fill="#000000" font-family="sans-serif" font-size="14" lengthAdjust="spacing" textLength="47" x="374" y="71.5332">(React)</text><rect fill="#E2E2F0" height="66.8281" rx="2.5" ry="2.5" style="stroke:#181818;stroke-width:0.5;" width="173" x="311" y="747.6953"/><text fill="#000000" font-family="sans-serif" font-size="14" font-style="italic" lengthAdjust="spacing" textLength="89" x="353" y="769.2285">&#171;Component&#187;</text><text fill="#000000" font-family="sans-serif" font-size="14" lengthAdjust="spacing" textLength="159" x="318" y="786.8379">ConsultarCalendarioView</text><text fill="#000000" font-family="sans-serif" font-size="14" lengthAdjust="spacing" textLength="47" x="374" y="804.4473">(React)</text><rect fill="#E2E2F0" height="66.8281" rx="2.5" ry="2.5" style="stroke:#181818;stroke-width:0.5;" width="106" x="592.5" y="14.7813"/><text fill="#000000" font-family="sans-serif" font-size="14" font-style="italic" lengthAdjust="spacing" textLength="50" x="620.5" y="36.3145">&#171;Hook&#187;</text><text fill="#000000" font-family="sans-serif" font-size="14" lengthAdjust="spacing" textLength="92" x="599.5" y="53.9238">useCalendario</text><text fill="#000000" font-family="sans-serif" font-size="14" lengthAdjust="spacing" textLength="42" x="624.5" y="71.5332">(Hook)</text><rect fill="#E2E2F0" height="66.8281" rx="2.5" ry="2.5" style="stroke:#181818;stroke-width:0.5;" width="106" x="592.5" y="747.6953"/><text fill="#000000" font-family="sans-serif" font-size="14" font-style="italic" lengthAdjust="spacing" textLength="50" x="620.5" y="769.2285">&#171;Hook&#187;</text><text fill="#000000" font-family="sans-serif" font-size="14" lengthAdjust="spacing" textLength="92" x="599.5" y="786.8379">useCalendario</text><text fill="#000000" font-family="sans-serif" font-size="14" lengthAdjust="spacing" textLength="42" x="624.5" y="804.4473">(Hook)</text><rect fill="#E2E2F0" height="66.8281" rx="2.5" ry="2.5" style="stroke:#181818;stroke-width:0.5;" width="125" x="807" y="14.7813"/><text fill="#000000" font-family="sans-serif" font-size="14" font-style="italic" lengthAdjust="spacing" textLength="62" x="838.5" y="36.3145">&#171;Service&#187;</text><text fill="#000000" font-family="sans-serif" font-size="14" lengthAdjust="spacing" textLength="111" x="814" y="53.9238">examenesService</text><text fill="#000000" font-family="sans-serif" font-size="14" lengthAdjust="spacing" textLength="43" x="848" y="71.5332">(Axios)</text><rect fill="#E2E2F0" height="66.8281" rx="2.5" ry="2.5" style="stroke:#181818;stroke-width:0.5;" width="125" x="807" y="747.6953"/><text fill="#000000" font-family="sans-serif" font-size="14" font-style="italic" lengthAdjust="spacing" textLength="62" x="838.5" y="769.2285">&#171;Service&#187;</text><text fill="#000000" font-family="sans-serif" font-size="14" lengthAdjust="spacing" textLength="111" x="814" y="786.8379">examenesService</text><text fill="#000000" font-family="sans-serif" font-size="14" lengthAdjust="spacing" textLength="43" x="848" y="804.4473">(Axios)</text><rect fill="#E2E2F0" height="66.8281" rx="2.5" ry="2.5" style="stroke:#181818;stroke-width:0.5;" width="141" x="1236" y="14.7813"/><text fill="#000000" font-family="sans-serif" font-size="14" font-style="italic" lengthAdjust="spacing" textLength="78" x="1267.5" y="36.3145">&#171;Controller&#187;</text><text fill="#000000" font-family="sans-serif" font-size="14" lengthAdjust="spacing" textLength="127" x="1243" y="53.9238">ExamenesController</text><text fill="#000000" font-family="sans-serif" font-size="14" lengthAdjust="spacing" textLength="53" x="1280" y="71.5332">(NestJS)</text><rect fill="#E2E2F0" height="66.8281" rx="2.5" ry="2.5" style="stroke:#181818;stroke-width:0.5;" width="141" x="1236" y="747.6953"/><text fill="#000000" font-family="sans-serif" font-size="14" font-style="italic" lengthAdjust="spacing" textLength="78" x="1267.5" y="769.2285">&#171;Controller&#187;</text><text fill="#000000" font-family="sans-serif" font-size="14" lengthAdjust="spacing" textLength="127" x="1243" y="786.8379">ExamenesController</text><text fill="#000000" font-family="sans-serif" font-size="14" lengthAdjust="spacing" textLength="53" x="1280" y="804.4473">(NestJS)</text><rect fill="#E2E2F0" height="66.8281" rx="2.5" ry="2.5" style="stroke:#181818;stroke-width:0.5;" width="126" x="1433.5" y="14.7813"/><text fill="#000000" font-family="sans-serif" font-size="14" font-style="italic" lengthAdjust="spacing" textLength="62" x="1465.5" y="36.3145">&#171;Service&#187;</text><text fill="#000000" font-family="sans-serif" font-size="14" lengthAdjust="spacing" textLength="112" x="1440.5" y="53.9238">ExamenesService</text><text fill="#000000" font-family="sans-serif" font-size="14" lengthAdjust="spacing" textLength="53" x="1470" y="71.5332">(NestJS)</text><rect fill="#E2E2F0" height="66.8281" rx="2.5" ry="2.5" style="stroke:#181818;stroke-width:0.5;" width="126" x="1433.5" y="747.6953"/><text fill="#000000" font-family="sans-serif" font-size="14" font-style="italic" lengthAdjust="spacing" textLength="62" x="1465.5" y="769.2285">&#171;Service&#187;</text><text fill="#000000" font-family="sans-serif" font-size="14" lengthAdjust="spacing" textLength="112" x="1440.5" y="786.8379">ExamenesService</text><text fill="#000000" font-family="sans-serif" font-size="14" lengthAdjust="spacing" textLength="53" x="1470" y="804.4473">(NestJS)</text><rect fill="#E2E2F0" height="49.2188" rx="2.5" ry="2.5" style="stroke:#181818;stroke-width:0.5;" width="104" x="1758.5" y="32.3906"/><text fill="#000000" font-family="sans-serif" font-size="14" font-style="italic" lengthAdjust="spacing" textLength="49" x="1786" y="53.9238">&#171;ORM&#187;</text><text fill="#000000" font-family="sans-serif" font-size="14" lengthAdjust="spacing" textLength="90" x="1765.5" y="71.5332">PrismaService</text><rect fill="#E2E2F0" height="49.2188" rx="2.5" ry="2.5" style="stroke:#181818;stroke-width:0.5;" width="104" x="1758.5" y="747.6953"/><text fill="#000000" font-family="sans-serif" font-size="14" font-style="italic" lengthAdjust="spacing" textLength="49" x="1786" y="769.2285">&#171;ORM&#187;</text><text fill="#000000" font-family="sans-serif" font-size="14" lengthAdjust="spacing" textLength="90" x="1765.5" y="786.8379">PrismaService</text><text fill="#000000" font-family="sans-serif" font-size="14" lengthAdjust="spacing" textLength="97" x="2075" y="79.5332">PostgreSQL 16</text><path d="M2108.5,29 C2108.5,19 2126.5,19 2126.5,19 C2126.5,19 2144.5,19 2144.5,29 L2144.5,55 C2144.5,65 2126.5,65 2126.5,65 C2126.5,65 2108.5,65 2108.5,55 L2108.5,29 " fill="#E2E2F0" style="stroke:#181818;stroke-width:1.5;"/><path d="M2108.5,29 C2108.5,39 2126.5,39 2126.5,39 C2126.5,39 2144.5,39 2144.5,29 " fill="none" style="stroke:#181818;stroke-width:1.5;"/><text fill="#000000" font-family="sans-serif" font-size="14" lengthAdjust="spacing" textLength="97" x="2075" y="762.2285">PostgreSQL 16</text><path d="M2108.5,775.3047 C2108.5,765.3047 2126.5,765.3047 2126.5,765.3047 C2126.5,765.3047 2144.5,765.3047 2144.5,775.3047 L2144.5,801.3047 C2144.5,811.3047 2126.5,811.3047 2126.5,811.3047 C2126.5,811.3047 2108.5,811.3047 2108.5,801.3047 L2108.5,775.3047 " fill="#E2E2F0" style="stroke:#181818;stroke-width:1.5;"/><path d="M2108.5,775.3047 C2108.5,785.3047 2126.5,785.3047 2126.5,785.3047 C2126.5,785.3047 2144.5,785.3047 2144.5,775.3047 " fill="none" style="stroke:#181818;stroke-width:1.5;"/><polygon fill="#181818" points="385.5,110.9609,395.5,114.9609,385.5,118.9609,389.5,114.9609" style="stroke:#181818;stroke-width:1.0;"/><line style="stroke:#181818;stroke-width:1.0;" x1="51.5" x2="391.5" y1="114.9609" y2="114.9609"/><text fill="#000000" font-family="sans-serif" font-size="13" lengthAdjust="spacing" textLength="203" x="58.5" y="110.1045">consultarCalendario() / aplica filtros</text><polygon fill="#181818" points="633.5,141.3125,643.5,145.3125,633.5,149.3125,637.5,145.3125" style="stroke:#181818;stroke-width:1.0;"/><line style="stroke:#181818;stroke-width:1.0;" x1="397.5" x2="639.5" y1="145.3125" y2="145.3125"/><text fill="#000000" font-family="sans-serif" font-size="13" lengthAdjust="spacing" textLength="124" x="404.5" y="140.4561">loadCalendario(filtros)</text><polygon fill="#181818" points="857.5,171.6641,867.5,175.6641,857.5,179.6641,861.5,175.6641" style="stroke:#181818;stroke-width:1.0;"/><line style="stroke:#181818;stroke-width:1.0;" x1="645.5" x2="863.5" y1="175.6641" y2="175.6641"/><text fill="#000000" font-family="sans-serif" font-size="13" lengthAdjust="spacing" textLength="120" x="652.5" y="170.8076">findCalendario(filtros)</text><polygon fill="#181818" points="1294.5,202.0156,1304.5,206.0156,1294.5,210.0156,1298.5,206.0156" style="stroke:#181818;stroke-width:1.0;"/><line style="stroke:#181818;stroke-width:1.0;" x1="869.5" x2="1300.5" y1="206.0156" y2="206.0156"/><text fill="#000000" font-family="sans-serif" font-size="13" lengthAdjust="spacing" textLength="413" x="876.5" y="201.1592">GET /examenes/calendario?fechaInicio&amp;fechaFin&amp;gradoId&amp;asignaturaId</text><polygon fill="#181818" points="1484.5,232.3672,1494.5,236.3672,1484.5,240.3672,1488.5,236.3672" style="stroke:#181818;stroke-width:1.0;"/><line style="stroke:#181818;stroke-width:1.0;" x1="1306.5" x2="1490.5" y1="236.3672" y2="236.3672"/><text fill="#000000" font-family="sans-serif" font-size="13" lengthAdjust="spacing" textLength="120" x="1313.5" y="231.5107">findCalendario(filtros)</text><polygon fill="#181818" points="1798.5,311.7734,1808.5,315.7734,1798.5,319.7734,1802.5,315.7734" style="stroke:#181818;stroke-width:1.0;"/><line style="stroke:#181818;stroke-width:1.0;" x1="1496.5" x2="1804.5" y1="315.7734" y2="315.7734"/><text fill="#000000" font-family="sans-serif" font-size="13" lengthAdjust="spacing" textLength="110" x="1503.5" y="261.8623">examen.findMany({</text><text fill="#000000" font-family="sans-serif" font-size="13" lengthAdjust="spacing" textLength="178" x="1511.5" y="278.2139">where: { fecha BETWEEN ... },</text><text fill="#000000" font-family="sans-serif" font-size="13" lengthAdjust="spacing" textLength="209" x="1511.5" y="294.5654">include: { profesor: { usuario }, aula }</text><text fill="#000000" font-family="sans-serif" font-size="13" lengthAdjust="spacing" textLength="8" x="1503.5" y="310.917">})</text><polygon fill="#181818" points="2114.5,342.125,2124.5,346.125,2114.5,350.125,2118.5,346.125" style="stroke:#181818;stroke-width:1.0;"/><line style="stroke:#181818;stroke-width:1.0;" x1="1810.5" x2="2120.5" y1="346.125" y2="346.125"/><text fill="#000000" font-family="sans-serif" font-size="13" lengthAdjust="spacing" textLength="233" x="1817.5" y="341.2686">SELECT ex&#225;menes programados + FKs</text><polygon fill="#181818" points="1821.5,372.4766,1811.5,376.4766,1821.5,380.4766,1817.5,376.4766" style="stroke:#181818;stroke-width:1.0;"/><line style="stroke:#181818;stroke-width:1.0;stroke-dasharray:2.0,2.0;" x1="1815.5" x2="2125.5" y1="376.4766" y2="376.4766"/><text fill="#000000" font-family="sans-serif" font-size="13" lengthAdjust="spacing" textLength="292" x="1827.5" y="371.6201">Ex&#225;menes (asignatura, fecha, hora, aula, profesor)</text><polygon fill="#181818" points="1507.5,402.8281,1497.5,406.8281,1507.5,410.8281,1503.5,406.8281" style="stroke:#181818;stroke-width:1.0;"/><line style="stroke:#181818;stroke-width:1.0;stroke-dasharray:2.0,2.0;" x1="1501.5" x2="1809.5" y1="406.8281" y2="406.8281"/><text fill="#000000" font-family="sans-serif" font-size="13" lengthAdjust="spacing" textLength="110" x="1513.5" y="401.9717">Lista de ex&#225;menes</text><line style="stroke:#181818;stroke-width:1.0;" x1="1496.5" x2="1538.5" y1="453.5313" y2="453.5313"/><line style="stroke:#181818;stroke-width:1.0;" x1="1538.5" x2="1538.5" y1="453.5313" y2="466.5313"/><line style="stroke:#181818;stroke-width:1.0;" x1="1497.5" x2="1538.5" y1="466.5313" y2="466.5313"/><polygon fill="#181818" points="1507.5,462.5313,1497.5,466.5313,1507.5,470.5313,1503.5,466.5313" style="stroke:#181818;stroke-width:1.0;"/><text fill="#000000" font-family="sans-serif" font-size="13" lengthAdjust="spacing" textLength="300" x="1503.5" y="432.3232">Resolver Examen.asignatura &#8594; Asignatura &#8594; Grado</text><text fill="#000000" font-family="sans-serif" font-size="13" lengthAdjust="spacing" textLength="279" x="1503.5" y="448.6748">y aplicar filtros dimensionales (grado/asignatura)</text><polygon fill="#181818" points="1317.5,492.8828,1307.5,496.8828,1317.5,500.8828,1313.5,496.8828" style="stroke:#181818;stroke-width:1.0;"/><line style="stroke:#181818;stroke-width:1.0;stroke-dasharray:2.0,2.0;" x1="1311.5" x2="1495.5" y1="496.8828" y2="496.8828"/><text fill="#000000" font-family="sans-serif" font-size="13" lengthAdjust="spacing" textLength="166" x="1323.5" y="492.0264">List&lt;ExamenCalendarioDto&gt;</text><polygon fill="#181818" points="880.5,523.2344,870.5,527.2344,880.5,531.2344,876.5,527.2344" style="stroke:#181818;stroke-width:1.0;"/><line style="stroke:#181818;stroke-width:1.0;stroke-dasharray:2.0,2.0;" x1="874.5" x2="1305.5" y1="527.2344" y2="527.2344"/><text fill="#000000" font-family="sans-serif" font-size="13" lengthAdjust="spacing" textLength="90" x="886.5" y="522.3779">200 OK (JSON)</text><polygon fill="#181818" points="656.5,553.5859,646.5,557.5859,656.5,561.5859,652.5,557.5859" style="stroke:#181818;stroke-width:1.0;"/><line style="stroke:#181818;stroke-width:1.0;stroke-dasharray:2.0,2.0;" x1="650.5" x2="868.5" y1="557.5859" y2="557.5859"/><text fill="#000000" font-family="sans-serif" font-size="13" lengthAdjust="spacing" textLength="137" x="662.5" y="552.7295">ExamenCalendarioDto[]</text><line style="stroke:#181818;stroke-width:1.0;" x1="645.5" x2="687.5" y1="587.9375" y2="587.9375"/><line style="stroke:#181818;stroke-width:1.0;" x1="687.5" x2="687.5" y1="587.9375" y2="600.9375"/><line style="stroke:#181818;stroke-width:1.0;" x1="646.5" x2="687.5" y1="600.9375" y2="600.9375"/><polygon fill="#181818" points="656.5,596.9375,646.5,600.9375,656.5,604.9375,652.5,600.9375" style="stroke:#181818;stroke-width:1.0;"/><text fill="#000000" font-family="sans-serif" font-size="13" lengthAdjust="spacing" textLength="210" x="652.5" y="583.0811">Pre-agrupar por fecha en Map (O(N))</text><polygon fill="#181818" points="408.5,627.2891,398.5,631.2891,408.5,635.2891,404.5,631.2891" style="stroke:#181818;stroke-width:1.0;"/><line style="stroke:#181818;stroke-width:1.0;stroke-dasharray:2.0,2.0;" x1="402.5" x2="644.5" y1="631.2891" y2="631.2891"/><text fill="#000000" font-family="sans-serif" font-size="13" lengthAdjust="spacing" textLength="224" x="414.5" y="626.4326">Actualiza estado (calendario indexado)</text><polygon fill="#181818" points="62.5,657.6406,52.5,661.6406,62.5,665.6406,58.5,661.6406" style="stroke:#181818;stroke-width:1.0;"/><line style="stroke:#181818;stroke-width:1.0;stroke-dasharray:2.0,2.0;" x1="56.5" x2="396.5" y1="661.6406" y2="661.6406"/><text fill="#000000" font-family="sans-serif" font-size="13" lengthAdjust="spacing" textLength="322" x="68.5" y="656.7842">Renderiza rejilla (fecha, hora, asignatura, aula, profesor)</text><path d="M402,674.6406 L402,733.6406 L708,733.6406 L708,684.6406 L698,674.6406 L402,674.6406 " fill="#FEFFDD" style="stroke:#181818;stroke-width:0.5;"/><path d="M698,674.6406 L698,684.6406 L708,684.6406 L698,674.6406 " fill="#FEFFDD" style="stroke:#181818;stroke-width:0.5;"/><text fill="#000000" font-family="sans-serif" font-size="13" lengthAdjust="spacing" textLength="285" x="408" y="693.1357">Acciones disponibles (CALENDARIO_ABIERTO):</text><text fill="#000000" font-family="sans-serif" font-size="13" lengthAdjust="spacing" textLength="228" x="408" y="709.4873">- descargarCalendarioExamenes() (self)</text><text fill="#000000" font-family="sans-serif" font-size="13" lengthAdjust="spacing" textLength="227" x="408" y="725.8389">- completarConsulta() &#8594; vuelve al men&#250;</text><!--SRC=[XLHBSjD04DtFARfOfEJ2dy22XIjboXybEF4ds0OMcA8cKjiUCfvnpKXnGYfR3i0Dk0RRt8IJq2F9bcH2PUMHvxtkDzslsruBjU66hy6kUAYtGYrXmQL5PlSt1kr6Auj3j9OliODIRzl6w2r49aR6U11f0-rmBPImaQ4mXX4p4e7OS1N1YownOnbnq-KILSYDq1y5RkVAco2HAo-0M_ZGXvEJhbvJAbHHgrKE4LlCoKHyf_LrodCdOhgVGnBUyZKgj5CqDo90ehLlXROfxpJxbxZPwP3kPtII7naj9HgAC48RdK_J4Fb58dttyRyukOnYaCwpEYwDi6kUNIQSz1zYZ2T3GeSyubVS8a6rZPO6f-y7yEfD0krr62kr1cejL-ic1FzsnQj00_X6Ye33GaXwZsM49KPIvIP8pSC2FCDKM79Di7rHcyHNJqBt488N2jY4Cty6ZLtB6i6U-dQ1mOht5TL37oNdKw6Ebkun_V28Mx5KF8eDxuUC5G9I-CxpQZe5DLbLcv2Ag3lEaAixxtwk0BOhDDY4UqWaGCUVVVBz4TJhTNYeEe1GWOp31B8nUe5M6tUERUnI4WXuB3aypDL3XMMvA6klGncd_i3lpYZnuw_a-Iu2lN1DRxJm4aulB2DShIZItsEzl0RLL5qLLjfzk8JLlPeyQxas0x86Xn3pzAnKbm9qGd7a3LKtzNGzpmn_Vlo4TldppFLehkuoIvcTfo0KHBP2A-e8wKzwsSXZ5Tjow18dzYJDdlUp5-bMgVTbAxu-FeRn1NZdq_6eQC3Srqy4_Fo5xMsTeIuDrlZIn3ITiA59Ifs02ePy0zxO6rLsax2RiNOGnLoAxuIY6eSQlDpNP9YGd1RgIZ9ZH2dFgQis8OnZ6_mc99d7AxUtqFV3LZEb8mGZbgi8z8BKC20rD4BECQ5m6rrS9TNljWV-gDUUzCTVsvs-FvcDAqq2ryWHbfgsB2w8tIgZHU5Pb8jA0WneQqjqcoHRANJj-dyJ8va5k0GYFVvc50ISBFON]--></g></svg>