<?xml version="1.0" encoding="us-ascii" standalone="no"?><svg xmlns="http://www.w3.org/2000/svg" xmlns:xlink="http://www.w3.org/1999/xlink" contentStyleType="text/css" height="335px" preserveAspectRatio="none" style="width:1661px;height:335px;background:#FFFFFF;" version="1.1" viewBox="0 0 1661 335" width="1661px" zoomAndPan="magnify"><defs/><g><!--cluster abrirProfesores--><g id="cluster_abrirProfesores"><path d="M169.5,6 L291.5,6 A3.75,3.75 0 0 1 294,8.5 L301,29.6094 L673.5,29.6094 A2.5,2.5 0 0 1 676,32.1094 L676,325.5 A2.5,2.5 0 0 1 673.5,328 L169.5,328 A2.5,2.5 0 0 1 167,325.5 L167,8.5 A2.5,2.5 0 0 1 169.5,6 " fill="none" style="stroke:#000000;stroke-width:1.5;"/><line style="stroke:#000000;stroke-width:1.5;" x1="167" x2="301" y1="29.6094" y2="29.6094"/><text fill="#000000" font-family="sans-serif" font-size="14" font-weight="bold" lengthAdjust="spacing" textLength="121" x="171" y="22.5332">abrirProfesores()</text></g><!--entity AbrirProfesoresView--><g id="elem_AbrirProfesoresView"><rect fill="#629EF9" height="37.6094" rx="2.5" ry="2.5" style="stroke:#181818;stroke-width:0.5;" width="148" x="464" y="42"/><text fill="#000000" font-family="sans-serif" font-size="14" lengthAdjust="spacing" textLength="128" x="474" y="66.5332">AbrirProfesoresView</text></g><!--entity ProfesoresController--><g id="elem_ProfesoresController"><rect fill="#B5BD68" height="37.6094" rx="2.5" ry="2.5" style="stroke:#181818;stroke-width:0.5;" width="151" x="183.5" y="158"/><text fill="#000000" font-family="sans-serif" font-size="14" lengthAdjust="spacing" textLength="131" x="193.5" y="182.5332">ProfesoresController</text></g><!--entity ProfesorRepository--><g id="elem_ProfesorRepository"><rect fill="#F2AC4E" height="37.6094" rx="2.5" ry="2.5" style="stroke:#181818;stroke-width:0.5;" width="142" x="518" y="158"/><text fill="#000000" font-family="sans-serif" font-size="14" lengthAdjust="spacing" textLength="122" x="528" y="182.5332">ProfesorRepository</text></g><!--entity Profesor--><g id="elem_Profesor"><rect fill="#F2AC4E" height="37.6094" rx="2.5" ry="2.5" style="stroke:#181818;stroke-width:0.5;" width="74" x="552" y="274"/><text fill="#000000" font-family="sans-serif" font-size="14" lengthAdjust="spacing" textLength="54" x="562" y="298.5332">Profesor</text></g><!--entity SistemaDisponible--><g id="elem_SistemaDisponible"><rect fill="#CDEBA5" height="37.6094" rx="2.5" ry="2.5" style="stroke:#181818;stroke-width:0.5;" width="144" x="7" y="42"/><text fill="#000000" font-family="sans-serif" font-size="14" lengthAdjust="spacing" textLength="124" x="17" y="66.5332">:Sistema Disponible</text></g><!--entity CrearProfesor--><g id="elem_CrearProfesor"><rect fill="#CDEBA5" height="37.6094" rx="2.5" ry="2.5" style="stroke:#181818;stroke-width:0.5;" width="202" x="695" y="158"/><text fill="#000000" font-family="sans-serif" font-size="14" lengthAdjust="spacing" textLength="182" x="705" y="182.5332">:Collaboration CrearProfesor</text></g><!--entity EditarProfesor--><g id="elem_EditarProfesor"><rect fill="#CDEBA5" height="37.6094" rx="2.5" ry="2.5" style="stroke:#181818;stroke-width:0.5;" width="203" x="932.5" y="158"/><text fill="#000000" font-family="sans-serif" font-size="14" lengthAdjust="spacing" textLength="183" x="942.5" y="182.5332">:Collaboration EditarProfesor</text></g><!--entity EliminarProfesor--><g id="elem_EliminarProfesor"><rect fill="#CDEBA5" height="37.6094" rx="2.5" ry="2.5" style="stroke:#181818;stroke-width:0.5;" width="216" x="1171" y="158"/><text fill="#000000" font-family="sans-serif" font-size="14" lengthAdjust="spacing" textLength="196" x="1181" y="182.5332">:Collaboration EliminarProfesor</text></g><!--entity ImportarProfesores--><g id="elem_ImportarProfesores"><rect fill="#CDEBA5" height="37.6094" rx="2.5" ry="2.5" style="stroke:#181818;stroke-width:0.5;" width="233" x="1422.5" y="158"/><text fill="#000000" font-family="sans-serif" font-size="14" lengthAdjust="spacing" textLength="213" x="1432.5" y="182.5332">:Collaboration ImportarProfesores</text></g><!--link SistemaDisponible to AbrirProfesoresView--><g id="link_SistemaDisponible_AbrirProfesoresView"><path d="M151.18,69.42 C201.25,75.26 259,82 259,82 C259,82 356,82 356,82 C356,82 407.6296,76.0486 458.0096,70.2286 " fill="none" id="SistemaDisponible-to-AbrirProfesoresView" style="stroke:#181818;stroke-width:1.0;"/><polygon fill="#181818" points="463.97,69.54,454.5704,66.5993,459.003,70.1138,455.4885,74.5464,463.97,69.54" style="stroke:#181818;stroke-width:1.0;"/><text fill="#000000" font-family="sans-serif" font-size="13" lengthAdjust="spacing" textLength="95" x="260" y="78.4951">abrirProfesores()</text></g><!--link AbrirProfesoresView to SistemaDisponible--><g id="link_AbrirProfesoresView_SistemaDisponible"><path d="M463.92,61 C377.78,61 242.56,61 157.22,61 " fill="none" id="AbrirProfesoresView-to-SistemaDisponible" style="stroke:#181818;stroke-width:1.0;"/><polygon fill="#181818" points="151.22,61,160.22,65,156.22,61,160.22,57,151.22,61" style="stroke:#181818;stroke-width:1.0;"/><text fill="#000000" font-family="sans-serif" font-size="13" lengthAdjust="spacing" textLength="110" x="252.5" y="54.4951">completarGestion()</text></g><!--link AbrirProfesoresView to ProfesoresController--><g id="link_AbrirProfesoresView_ProfesoresController"><path d="M466.34,80.01 C412.14,93.63 347,110 347,110 C347,110 313.8989,134.8185 287.8489,154.3685 " fill="none" id="AbrirProfesoresView-to-ProfesoresController" style="stroke:#181818;stroke-width:1.0;"/><polygon fill="#181818" points="283.05,157.97,292.6493,155.7671,287.0491,154.9688,287.8474,149.3685,283.05,157.97" style="stroke:#181818;stroke-width:1.0;"/><text fill="#000000" font-family="sans-serif" font-size="13" lengthAdjust="spacing" textLength="98" x="348" y="124.4951">listarProfesores()</text></g><!--link AbrirProfesoresView to ProfesoresController--><g id="link_AbrirProfesoresView_ProfesoresController"><path d="M514.23,80.03 C488.47,99.58 451,128 451,128 C451,128 391.3409,142.9148 336.8609,156.5348 " fill="none" id="AbrirProfesoresView-to-ProfesoresController-1" style="stroke:#181818;stroke-width:1.0;"/><polygon fill="#181818" points="331.04,157.99,340.7414,159.6877,335.8907,156.7773,338.8011,151.9266,331.04,157.99" style="stroke:#181818;stroke-width:1.0;"/><text fill="#000000" font-family="sans-serif" font-size="13" lengthAdjust="spacing" textLength="137" x="475" y="124.4951">filtrarProfesores(criterio)</text></g><!--link ProfesoresController to ProfesorRepository--><g id="link_ProfesoresController_ProfesorRepository"><path d="M334.6,189.88 C360.11,194.23 382.25,198 382.25,198 C382.25,198 470.25,198 470.25,198 C470.25,198 486.6716,195.0943 511.9616,190.6243 " fill="none" id="ProfesoresController-to-ProfesorRepository" style="stroke:#181818;stroke-width:1.0;"/><polygon fill="#181818" points="517.87,189.58,508.3112,187.2075,512.9463,190.4503,509.7036,195.0854,517.87,189.58" style="stroke:#181818;stroke-width:1.0;"/><text fill="#000000" font-family="sans-serif" font-size="13" lengthAdjust="spacing" textLength="86" x="383.25" y="194.4951">obtenerTodos()</text></g><!--link ProfesoresController to ProfesorRepository--><g id="link_ProfesoresController_ProfesorRepository"><path d="M334.71,177 C389.8,177 457.89,177 511.88,177 " fill="none" id="ProfesoresController-to-ProfesorRepository-1" style="stroke:#181818;stroke-width:1.0;"/><polygon fill="#181818" points="517.88,177,508.88,173,512.88,177,508.88,181,517.88,177" style="stroke:#181818;stroke-width:1.0;"/><text fill="#000000" font-family="sans-serif" font-size="13" lengthAdjust="spacing" textLength="147" x="352.75" y="170.4951">buscarPorCriterio(criterio)</text></g><!--link ProfesorRepository to Profesor--><g id="link_ProfesorRepository_Profesor"><path d="M589,196.06 C589,217.28 589,246.3 589,267.64 " fill="none" id="ProfesorRepository-to-Profesor" style="stroke:#181818;stroke-width:1.0;"/><polygon fill="#181818" points="589,273.64,593,264.64,589,268.64,585,264.64,589,273.64" style="stroke:#181818;stroke-width:1.0;"/><text fill="#000000" font-family="sans-serif" font-size="13" lengthAdjust="spacing" textLength="56" x="590" y="240.4951">&#171;accede&#187;</text></g><!--link AbrirProfesoresView to CrearProfesor--><g id="link_AbrirProfesoresView_CrearProfesor"><path d="M578.88,80.06 C627.05,101.35 701.1219,134.0749 749.3919,155.4049 " fill="none" id="AbrirProfesoresView-to-CrearProfesor" style="stroke:#181818;stroke-width:1.0;stroke-dasharray:7.0,7.0;"/><polygon fill="#181818" points="754.88,157.83,748.2647,150.5336,750.3066,155.8091,745.0312,157.851,754.88,157.83" style="stroke:#181818;stroke-width:1.0;"/><text fill="#000000" font-family="sans-serif" font-size="13" lengthAdjust="spacing" textLength="85" x="683" y="124.4951">crearProfesor()</text></g><!--link AbrirProfesoresView to EditarProfesor--><g id="link_AbrirProfesoresView_EditarProfesor"><path d="M612.31,76.92 C682.47,91.01 777,110 777,110 C777,110 881.8687,136.9269 957.9587,156.4769 " fill="none" id="AbrirProfesoresView-to-EditarProfesor" style="stroke:#181818;stroke-width:1.0;stroke-dasharray:7.0,7.0;"/><polygon fill="#181818" points="963.77,157.97,956.0485,151.8562,958.9273,156.7257,954.0577,159.6045,963.77,157.97" style="stroke:#181818;stroke-width:1.0;"/><text fill="#000000" font-family="sans-serif" font-size="13" lengthAdjust="spacing" textLength="136" x="846" y="124.4951">editarProfesor(Profesor)</text></g><!--link AbrirProfesoresView to EliminarProfesor--><g id="link_AbrirProfesoresView_EliminarProfesor"><path d="M612.04,69.85 C740.48,83.46 991,110 991,110 C991,110 1109.1817,137.0792 1194.4517,156.6292 " fill="none" id="AbrirProfesoresView-to-EliminarProfesor" style="stroke:#181818;stroke-width:1.0;stroke-dasharray:7.0,7.0;"/><polygon fill="#181818" points="1200.3,157.97,1192.4215,152.0599,1195.4264,156.8526,1190.6337,159.8576,1200.3,157.97" style="stroke:#181818;stroke-width:1.0;"/><text fill="#000000" font-family="sans-serif" font-size="13" lengthAdjust="spacing" textLength="149" x="1069" y="124.4951">eliminarProfesor(Profesor)</text></g><!--link AbrirProfesoresView to ImportarProfesores--><g id="link_AbrirProfesoresView_ImportarProfesores"><path d="M612.06,67.16 C790.01,79.56 1227,110 1227,110 C1227,110 1355.5,137.1776 1447.87,156.7276 " fill="none" id="AbrirProfesoresView-to-ImportarProfesores" style="stroke:#181818;stroke-width:1.0;stroke-dasharray:7.0,7.0;"/><polygon fill="#181818" points="1453.74,157.97,1445.7633,152.1931,1448.8484,156.9347,1444.1068,160.0198,1453.74,157.97" style="stroke:#181818;stroke-width:1.0;"/><text fill="#000000" font-family="sans-serif" font-size="13" lengthAdjust="spacing" textLength="117" x="1311" y="124.4951">importarProfesores()</text></g><!--SRC=[bLB1Ji904BtlLqpg1Gzm84Aa8Ksm5EFDgF6-RGUoOTjfPjSOOlntjuZ2jaLBJzsNDs_Up1kpLMKbMHQWLObsLo5Kf7VrGmZ6pCfoen6kucLojvX043uhOx6Gi5IcebAb6WEG1Wxm4HMLpBPoWo1JLlp8j4P3ZAOc1mriS1t0Xm3tdNISZcV9QWOBd_ggyBt9J2TfFhs58occqZ9fZToahiQB-2RvfJvXHKPPujq_HF7PlOtOTP4fiRIAIeWPvQ_N_Leyf8T2aYlRaF2XFXfQ5QfigZJ07ZeFHKLyqXhDNgaD2z5A7uOyZBgoWn1QuGlHHHpcJg4hqz2Tgl4CE8aB5TPAM_OaCbOMMP5pqrNoFL3xRaAWr6A9_48vrKOkAqxVJEPi4CU7zbq-ZWN-I27CvpBBCCSeEhF3kcyhd10oAYgDReVtQEgipsKm6aN-2RlIq-UPnTTb_jc6WDvxyFFpXq3ZOfr40-aXqZxM45GBSsDy0G00]--></g></svg>