<?xml version="1.0" encoding="us-ascii" standalone="no"?><svg xmlns="http://www.w3.org/2000/svg" xmlns:xlink="http://www.w3.org/1999/xlink" contentStyleType="text/css" height="665px" preserveAspectRatio="none" style="width:1218px;height:665px;background:#FFFFFF;" version="1.1" viewBox="0 0 1218 665" width="1218px" zoomAndPan="magnify"><defs/><g><line style="stroke:#181818;stroke-width:0.5;stroke-dasharray:5.0,5.0;" x1="51" x2="51" y1="82.6094" y2="583.8828"/><line style="stroke:#181818;stroke-width:0.5;stroke-dasharray:5.0,5.0;" x1="283.5" x2="283.5" y1="82.6094" y2="583.8828"/><line style="stroke:#181818;stroke-width:0.5;stroke-dasharray:5.0,5.0;" x1="495.5" x2="495.5" y1="82.6094" y2="583.8828"/><line style="stroke:#181818;stroke-width:0.5;stroke-dasharray:5.0,5.0;" x1="636.5" x2="636.5" y1="82.6094" y2="583.8828"/><line style="stroke:#181818;stroke-width:0.5;stroke-dasharray:5.0,5.0;" x1="843" x2="843" y1="82.6094" y2="583.8828"/><line style="stroke:#181818;stroke-width:0.5;stroke-dasharray:5.0,5.0;" x1="987" x2="987" y1="82.6094" y2="583.8828"/><line style="stroke:#181818;stroke-width:0.5;stroke-dasharray:5.0,5.0;" x1="1175.5" x2="1175.5" y1="82.6094" y2="583.8828"/><text fill="#000000" font-family="sans-serif" font-size="14" lengthAdjust="spacing" textLength="87" x="5" y="79.5332">Administrador</text><ellipse cx="51.5" cy="13.5" fill="#E2E2F0" rx="8" ry="8" style="stroke:#181818;stroke-width:0.5;"/><path d="M51.5,21.5 L51.5,48.5 M38.5,29.5 L64.5,29.5 M51.5,48.5 L38.5,63.5 M51.5,48.5 L64.5,63.5 " fill="none" style="stroke:#181818;stroke-width:0.5;"/><text fill="#000000" font-family="sans-serif" font-size="14" lengthAdjust="spacing" textLength="87" x="5" y="597.416">Administrador</text><ellipse cx="51.5" cy="608.9922" fill="#E2E2F0" rx="8" ry="8" style="stroke:#181818;stroke-width:0.5;"/><path d="M51.5,616.9922 L51.5,643.9922 M38.5,624.9922 L64.5,624.9922 M51.5,643.9922 L38.5,658.9922 M51.5,643.9922 L64.5,658.9922 " fill="none" style="stroke:#181818;stroke-width:0.5;"/><rect fill="#E2E2F0" height="66.8281" rx="2.5" ry="2.5" style="stroke:#181818;stroke-width:0.5;" width="136" x="215.5" y="14.7813"/><text fill="#000000" font-family="sans-serif" font-size="14" font-style="italic" lengthAdjust="spacing" textLength="89" x="239" y="36.3145">&#171;Component&#187;</text><text fill="#000000" font-family="sans-serif" font-size="14" lengthAdjust="spacing" textLength="122" x="222.5" y="53.9238">ExamenCreateView</text><text fill="#000000" font-family="sans-serif" font-size="14" lengthAdjust="spacing" textLength="47" x="260" y="71.5332">(React)</text><rect fill="#E2E2F0" height="66.8281" rx="2.5" ry="2.5" style="stroke:#181818;stroke-width:0.5;" width="136" x="215.5" y="582.8828"/><text fill="#000000" font-family="sans-serif" font-size="14" font-style="italic" lengthAdjust="spacing" textLength="89" x="239" y="604.416">&#171;Component&#187;</text><text fill="#000000" font-family="sans-serif" font-size="14" lengthAdjust="spacing" textLength="122" x="222.5" y="622.0254">ExamenCreateView</text><text fill="#000000" font-family="sans-serif" font-size="14" lengthAdjust="spacing" textLength="47" x="260" y="639.6348">(React)</text><rect fill="#E2E2F0" height="66.8281" rx="2.5" ry="2.5" style="stroke:#181818;stroke-width:0.5;" width="120" x="435.5" y="14.7813"/><text fill="#000000" font-family="sans-serif" font-size="14" font-style="italic" lengthAdjust="spacing" textLength="50" x="470.5" y="36.3145">&#171;Hook&#187;</text><text fill="#000000" font-family="sans-serif" font-size="14" lengthAdjust="spacing" textLength="106" x="442.5" y="53.9238">useExamenForm</text><text fill="#000000" font-family="sans-serif" font-size="14" lengthAdjust="spacing" textLength="42" x="474.5" y="71.5332">(Hook)</text><rect fill="#E2E2F0" height="66.8281" rx="2.5" ry="2.5" style="stroke:#181818;stroke-width:0.5;" width="120" x="435.5" y="582.8828"/><text fill="#000000" font-family="sans-serif" font-size="14" font-style="italic" lengthAdjust="spacing" textLength="50" x="470.5" y="604.416">&#171;Hook&#187;</text><text fill="#000000" font-family="sans-serif" font-size="14" lengthAdjust="spacing" textLength="106" x="442.5" y="622.0254">useExamenForm</text><text fill="#000000" font-family="sans-serif" font-size="14" lengthAdjust="spacing" textLength="42" x="474.5" y="639.6348">(Hook)</text><rect fill="#E2E2F0" height="66.8281" rx="2.5" ry="2.5" style="stroke:#181818;stroke-width:0.5;" width="126" x="573.5" y="14.7813"/><text fill="#000000" font-family="sans-serif" font-size="14" font-style="italic" lengthAdjust="spacing" textLength="62" x="605.5" y="36.3145">&#171;Service&#187;</text><text fill="#000000" font-family="sans-serif" font-size="14" lengthAdjust="spacing" textLength="112" x="580.5" y="53.9238">ExamenesService</text><text fill="#000000" font-family="sans-serif" font-size="14" lengthAdjust="spacing" textLength="43" x="615" y="71.5332">(Axios)</text><rect fill="#E2E2F0" height="66.8281" rx="2.5" ry="2.5" style="stroke:#181818;stroke-width:0.5;" width="126" x="573.5" y="582.8828"/><text fill="#000000" font-family="sans-serif" font-size="14" font-style="italic" lengthAdjust="spacing" textLength="62" x="605.5" y="604.416">&#171;Service&#187;</text><text fill="#000000" font-family="sans-serif" font-size="14" lengthAdjust="spacing" textLength="112" x="580.5" y="622.0254">ExamenesService</text><text fill="#000000" font-family="sans-serif" font-size="14" lengthAdjust="spacing" textLength="43" x="615" y="639.6348">(Axios)</text><rect fill="#E2E2F0" height="66.8281" rx="2.5" ry="2.5" style="stroke:#181818;stroke-width:0.5;" width="141" x="773" y="14.7813"/><text fill="#000000" font-family="sans-serif" font-size="14" font-style="italic" lengthAdjust="spacing" textLength="78" x="804.5" y="36.3145">&#171;Controller&#187;</text><text fill="#000000" font-family="sans-serif" font-size="14" lengthAdjust="spacing" textLength="127" x="780" y="53.9238">ExamenesController</text><text fill="#000000" font-family="sans-serif" font-size="14" lengthAdjust="spacing" textLength="53" x="817" y="71.5332">(NestJS)</text><rect fill="#E2E2F0" height="66.8281" rx="2.5" ry="2.5" style="stroke:#181818;stroke-width:0.5;" width="141" x="773" y="582.8828"/><text fill="#000000" font-family="sans-serif" font-size="14" font-style="italic" lengthAdjust="spacing" textLength="78" x="804.5" y="604.416">&#171;Controller&#187;</text><text fill="#000000" font-family="sans-serif" font-size="14" lengthAdjust="spacing" textLength="127" x="780" y="622.0254">ExamenesController</text><text fill="#000000" font-family="sans-serif" font-size="14" lengthAdjust="spacing" textLength="53" x="817" y="639.6348">(NestJS)</text><rect fill="#E2E2F0" height="66.8281" rx="2.5" ry="2.5" style="stroke:#181818;stroke-width:0.5;" width="126" x="924" y="14.7813"/><text fill="#000000" font-family="sans-serif" font-size="14" font-style="italic" lengthAdjust="spacing" textLength="62" x="956" y="36.3145">&#171;Service&#187;</text><text fill="#000000" font-family="sans-serif" font-size="14" lengthAdjust="spacing" textLength="112" x="931" y="53.9238">ExamenesService</text><text fill="#000000" font-family="sans-serif" font-size="14" lengthAdjust="spacing" textLength="53" x="960.5" y="71.5332">(NestJS)</text><rect fill="#E2E2F0" height="66.8281" rx="2.5" ry="2.5" style="stroke:#181818;stroke-width:0.5;" width="126" x="924" y="582.8828"/><text fill="#000000" font-family="sans-serif" font-size="14" font-style="italic" lengthAdjust="spacing" textLength="62" x="956" y="604.416">&#171;Service&#187;</text><text fill="#000000" font-family="sans-serif" font-size="14" lengthAdjust="spacing" textLength="112" x="931" y="622.0254">ExamenesService</text><text fill="#000000" font-family="sans-serif" font-size="14" lengthAdjust="spacing" textLength="53" x="960.5" y="639.6348">(NestJS)</text><text fill="#000000" font-family="sans-serif" font-size="14" lengthAdjust="spacing" textLength="77" x="1134.5" y="79.5332">PostgreSQL</text><path d="M1158,29 C1158,19 1176,19 1176,19 C1176,19 1194,19 1194,29 L1194,55 C1194,65 1176,65 1176,65 C1176,65 1158,65 1158,55 L1158,29 " fill="#E2E2F0" style="stroke:#181818;stroke-width:1.5;"/><path d="M1158,29 C1158,39 1176,39 1176,39 C1176,39 1194,39 1194,29 " fill="none" style="stroke:#181818;stroke-width:1.5;"/><text fill="#000000" font-family="sans-serif" font-size="14" lengthAdjust="spacing" textLength="77" x="1134.5" y="597.416">PostgreSQL</text><path d="M1158,610.4922 C1158,600.4922 1176,600.4922 1176,600.4922 C1176,600.4922 1194,600.4922 1194,610.4922 L1194,636.4922 C1194,646.4922 1176,646.4922 1176,646.4922 C1176,646.4922 1158,646.4922 1158,636.4922 L1158,610.4922 " fill="#E2E2F0" style="stroke:#181818;stroke-width:1.5;"/><path d="M1158,610.4922 C1158,620.4922 1176,620.4922 1176,620.4922 C1176,620.4922 1194,620.4922 1194,610.4922 " fill="none" style="stroke:#181818;stroke-width:1.5;"/><polygon fill="#181818" points="271.5,110.9609,281.5,114.9609,271.5,118.9609,275.5,114.9609" style="stroke:#181818;stroke-width:1.0;"/><line style="stroke:#181818;stroke-width:1.0;" x1="51.5" x2="277.5" y1="114.9609" y2="114.9609"/><text fill="#000000" font-family="sans-serif" font-size="13" lengthAdjust="spacing" textLength="208" x="58.5" y="110.1045">Rellena formulario de nuevo examen</text><polygon fill="#181818" points="271.5,141.3125,281.5,145.3125,271.5,149.3125,275.5,145.3125" style="stroke:#181818;stroke-width:1.0;"/><line style="stroke:#181818;stroke-width:1.0;" x1="51.5" x2="277.5" y1="145.3125" y2="145.3125"/><text fill="#000000" font-family="sans-serif" font-size="13" lengthAdjust="spacing" textLength="107" x="58.5" y="140.4561">Click en "Guardar"</text><polygon fill="#181818" points="483.5,171.6641,493.5,175.6641,483.5,179.6641,487.5,175.6641" style="stroke:#181818;stroke-width:1.0;"/><line style="stroke:#181818;stroke-width:1.0;" x1="283.5" x2="489.5" y1="175.6641" y2="175.6641"/><text fill="#000000" font-family="sans-serif" font-size="13" lengthAdjust="spacing" textLength="72" x="290.5" y="170.8076">submit(data)</text><polygon fill="#181818" points="624.5,202.0156,634.5,206.0156,624.5,210.0156,628.5,206.0156" style="stroke:#181818;stroke-width:1.0;"/><line style="stroke:#181818;stroke-width:1.0;" x1="495.5" x2="630.5" y1="206.0156" y2="206.0156"/><text fill="#000000" font-family="sans-serif" font-size="13" lengthAdjust="spacing" textLength="117" x="502.5" y="201.1592">createExamen(data)</text><polygon fill="#181818" points="831.5,232.3672,841.5,236.3672,831.5,240.3672,835.5,236.3672" style="stroke:#181818;stroke-width:1.0;"/><line style="stroke:#181818;stroke-width:1.0;" x1="636.5" x2="837.5" y1="236.3672" y2="236.3672"/><text fill="#000000" font-family="sans-serif" font-size="13" lengthAdjust="spacing" textLength="183" x="643.5" y="231.5107">POST /examenes (JSON Body)</text><polygon fill="#181818" points="975,262.7188,985,266.7188,975,270.7188,979,266.7188" style="stroke:#181818;stroke-width:1.0;"/><line style="stroke:#181818;stroke-width:1.0;" x1="843.5" x2="981" y1="266.7188" y2="266.7188"/><text fill="#000000" font-family="sans-serif" font-size="13" lengthAdjust="spacing" textLength="62" x="850.5" y="261.8623">create(dto)</text><line style="stroke:#181818;stroke-width:1.0;" x1="987" x2="1029" y1="297.0703" y2="297.0703"/><line style="stroke:#181818;stroke-width:1.0;" x1="1029" x2="1029" y1="297.0703" y2="310.0703"/><line style="stroke:#181818;stroke-width:1.0;" x1="988" x2="1029" y1="310.0703" y2="310.0703"/><polygon fill="#181818" points="998,306.0703,988,310.0703,998,314.0703,994,310.0703" style="stroke:#181818;stroke-width:1.0;"/><text fill="#000000" font-family="sans-serif" font-size="13" lengthAdjust="spacing" textLength="144" x="994" y="292.2139">Validar aulas disponibles</text><line style="stroke:#181818;stroke-width:1.0;" x1="987" x2="1029" y1="340.4219" y2="340.4219"/><line style="stroke:#181818;stroke-width:1.0;" x1="1029" x2="1029" y1="340.4219" y2="353.4219"/><line style="stroke:#181818;stroke-width:1.0;" x1="988" x2="1029" y1="353.4219" y2="353.4219"/><polygon fill="#181818" points="998,349.4219,988,353.4219,998,357.4219,994,353.4219" style="stroke:#181818;stroke-width:1.0;"/><text fill="#000000" font-family="sans-serif" font-size="13" lengthAdjust="spacing" textLength="117" x="994" y="335.5654">Validar c&#243;digo &#250;nico</text><polygon fill="#181818" points="1164,379.7734,1174,383.7734,1164,387.7734,1168,383.7734" style="stroke:#181818;stroke-width:1.0;"/><line style="stroke:#181818;stroke-width:1.0;" x1="987" x2="1170" y1="383.7734" y2="383.7734"/><text fill="#000000" font-family="sans-serif" font-size="13" lengthAdjust="spacing" textLength="165" x="994" y="378.917">INSERT INTO "Examen" (...)</text><polygon fill="#181818" points="998,410.125,988,414.125,998,418.125,994,414.125" style="stroke:#181818;stroke-width:1.0;"/><line style="stroke:#181818;stroke-width:1.0;stroke-dasharray:2.0,2.0;" x1="992" x2="1175" y1="414.125" y2="414.125"/><text fill="#000000" font-family="sans-serif" font-size="13" lengthAdjust="spacing" textLength="162" x="1004" y="409.2686">Examen Creado (with UUID)</text><polygon fill="#181818" points="854.5,440.4766,844.5,444.4766,854.5,448.4766,850.5,444.4766" style="stroke:#181818;stroke-width:1.0;"/><line style="stroke:#181818;stroke-width:1.0;stroke-dasharray:2.0,2.0;" x1="848.5" x2="986" y1="444.4766" y2="444.4766"/><text fill="#000000" font-family="sans-serif" font-size="13" lengthAdjust="spacing" textLength="86" x="860.5" y="439.6201">Examen Entity</text><polygon fill="#181818" points="647.5,470.8281,637.5,474.8281,647.5,478.8281,643.5,474.8281" style="stroke:#181818;stroke-width:1.0;"/><line style="stroke:#181818;stroke-width:1.0;stroke-dasharray:2.0,2.0;" x1="641.5" x2="842.5" y1="474.8281" y2="474.8281"/><text fill="#000000" font-family="sans-serif" font-size="13" lengthAdjust="spacing" textLength="178" x="653.5" y="469.9717">JSON Response (201 Created)</text><polygon fill="#181818" points="506.5,501.1797,496.5,505.1797,506.5,509.1797,502.5,505.1797" style="stroke:#181818;stroke-width:1.0;"/><line style="stroke:#181818;stroke-width:1.0;stroke-dasharray:2.0,2.0;" x1="500.5" x2="635.5" y1="505.1797" y2="505.1797"/><text fill="#000000" font-family="sans-serif" font-size="13" lengthAdjust="spacing" textLength="90" x="512.5" y="500.3232">Examen Object</text><polygon fill="#181818" points="294.5,531.5313,284.5,535.5313,294.5,539.5313,290.5,535.5313" style="stroke:#181818;stroke-width:1.0;"/><line style="stroke:#181818;stroke-width:1.0;stroke-dasharray:2.0,2.0;" x1="288.5" x2="494.5" y1="535.5313" y2="535.5313"/><text fill="#000000" font-family="sans-serif" font-size="13" lengthAdjust="spacing" textLength="188" x="300.5" y="530.6748">Redirigir a listado / Mostrar &#233;xito</text><polygon fill="#181818" points="62.5,561.8828,52.5,565.8828,62.5,569.8828,58.5,565.8828" style="stroke:#181818;stroke-width:1.0;"/><line style="stroke:#181818;stroke-width:1.0;stroke-dasharray:2.0,2.0;" x1="56.5" x2="282.5" y1="565.8828" y2="565.8828"/><text fill="#000000" font-family="sans-serif" font-size="13" lengthAdjust="spacing" textLength="195" x="68.5" y="561.0264">Muestra confirmaci&#243;n de creaci&#243;n</text><!--SRC=[XPE_Sjf04CPxFSMEAgamJb8o7cOim0cU61m4hj8SkWLlaEwOkvF1ZvJQNLfUp7kIR2Gc7bVtP_UtsllsazsIsWaZ2h2FGkezgGsiHMun24Jcj85hMP0Ywmn7JS2fZZBQ2UKW71z4WMfeK3Xy8Dp_Lj4ScOf341QM4xYw6kfYfnKgDnXqsT9YZTzeKp3uG-jjpVaTatuvXse2ROhcYJ9axFf0sjRSJNFBRBFx21zgvOpESpHSOOhMtQPrYLEWQltjy7aRxIB9__gGmecLi0ZXlRPkOp3zzRFA7YL1q94OBWPUkZxCaR-j1AnPe38NXZH815NYamQiElW07EQKRG4LXDzBOQGmOS3t7AsKxOCjLmMvoBSK1zKTnzxLwqDM3RH-P9Fr7kNCbaXzk9-b2xZ4HX28RjFP518jd-EWbSTKSbu_aax7GT8gt4fv43bnuo3uuHOaMJOHhNAqdm7PyKNIHiFndw9CTx972UTDfkbulk1bCNkROmXHhzUB0uvVT8lMSV06bngYFRb7M2udetRRvu8qp5WvSiyT3ReYLqBDqJ-CNH5z-_8LwXz9jjK-3QsfErlzmSmrKpivHPAX3R5UaBCTVBUNSAUzCGmS_nx8wSe237GjquUx4lq1CgtMP0gHqV55UQFvALM7Lm00]--></g></svg>