<?xml version="1.0" encoding="us-ascii" standalone="no"?><svg xmlns="http://www.w3.org/2000/svg" xmlns:xlink="http://www.w3.org/1999/xlink" contentStyleType="text/css" height="219px" preserveAspectRatio="none" style="width:721px;height:219px;background:#FFFFFF;" version="1.1" viewBox="0 0 721 219" width="721px" zoomAndPan="magnify"><defs/><g><!--cluster completarConsulta--><g id="cluster_completarConsulta"><path d="M287.5,6 L430.5,6 A3.75,3.75 0 0 1 433,8.5 L440,29.6094 L494.5,29.6094 A2.5,2.5 0 0 1 497,32.1094 L497,209.5 A2.5,2.5 0 0 1 494.5,212 L287.5,212 A2.5,2.5 0 0 1 285,209.5 L285,8.5 A2.5,2.5 0 0 1 287.5,6 " fill="none" style="stroke:#000000;stroke-width:1.5;"/><line style="stroke:#000000;stroke-width:1.5;" x1="285" x2="440" y1="29.6094" y2="29.6094"/><text fill="#000000" font-family="sans-serif" font-size="14" font-weight="bold" lengthAdjust="spacing" textLength="142" x="289" y="22.5332">completarConsulta()</text></g><!--entity ConsultarCalendarioView--><g id="elem_ConsultarCalendarioView"><rect fill="#629EF9" height="37.6094" rx="2.5" ry="2.5" style="stroke:#181818;stroke-width:0.5;" width="179" x="301.5" y="42"/><text fill="#000000" font-family="sans-serif" font-size="14" lengthAdjust="spacing" textLength="159" x="311.5" y="66.5332">ConsultarCalendarioView</text></g><!--entity CalendarioController--><g id="elem_CalendarioController"><rect fill="#B5BD68" height="37.6094" rx="2.5" ry="2.5" style="stroke:#181818;stroke-width:0.5;" width="151" x="301.5" y="158"/><text fill="#000000" font-family="sans-serif" font-size="14" lengthAdjust="spacing" textLength="131" x="311.5" y="182.5332">CalendarioController</text></g><!--entity CalendarioAbierto--><g id="elem_CalendarioAbierto"><rect fill="#CDEBA5" height="37.6094" rx="2.5" ry="2.5" style="stroke:#181818;stroke-width:0.5;" width="142" x="7" y="42"/><text fill="#000000" font-family="sans-serif" font-size="14" lengthAdjust="spacing" textLength="122" x="17" y="66.5332">:Calendario Abierto</text></g><!--entity SistemaDisponible--><g id="elem_SistemaDisponible"><rect fill="#CDEBA5" height="37.6094" rx="2.5" ry="2.5" style="stroke:#181818;stroke-width:0.5;" width="144" x="571" y="42"/><text fill="#000000" font-family="sans-serif" font-size="14" lengthAdjust="spacing" textLength="124" x="581" y="66.5332">:Sistema Disponible</text></g><!--link CalendarioAbierto to ConsultarCalendarioView--><g id="link_CalendarioAbierto_ConsultarCalendarioView"><path d="M149.02,61 C194.21,61 247.1,61 295.47,61 " fill="none" id="CalendarioAbierto-to-ConsultarCalendarioView" style="stroke:#181818;stroke-width:1.0;"/><polygon fill="#181818" points="301.47,61,292.47,57,296.47,61,292.47,65,301.47,61" style="stroke:#181818;stroke-width:1.0;"/><text fill="#000000" font-family="sans-serif" font-size="13" lengthAdjust="spacing" textLength="116" x="167.25" y="54.4951">completarConsulta()</text></g><!--link ConsultarCalendarioView to CalendarioController--><g id="link_ConsultarCalendarioView_CalendarioController"><path d="M388.78,80.06 C386.18,101.28 382.6139,130.3451 379.9839,151.6851 " fill="none" id="ConsultarCalendarioView-to-CalendarioController" style="stroke:#181818;stroke-width:1.0;"/><polygon fill="#181818" points="379.25,157.64,384.3208,149.1968,379.8616,152.6775,376.3809,148.2183,379.25,157.64" style="stroke:#181818;stroke-width:1.0;"/><text fill="#000000" font-family="sans-serif" font-size="13" lengthAdjust="spacing" textLength="143" x="385" y="124.4951">finalizarSesionConsulta()</text></g><!--link ConsultarCalendarioView to SistemaDisponible--><g id="link_ConsultarCalendarioView_SistemaDisponible"><path d="M480.56,61 C510.12,61 536.62,61 564.73,61 " fill="none" id="ConsultarCalendarioView-to-SistemaDisponible" style="stroke:#181818;stroke-width:1.0;"/><polygon fill="#181818" points="570.73,61,561.73,57,565.73,61,561.73,65,570.73,61" style="stroke:#181818;stroke-width:1.0;"/><text fill="#000000" font-family="sans-serif" font-size="13" lengthAdjust="spacing" textLength="54" x="498.75" y="54.4951">&#171;navega&#187;</text></g><!--SRC=[ZO_1QiD034Jl-nN2lRG7Nme9JGY6r4b-8D2xRAj6HDvTjDkM9EJVkouf3hK3rKsFqMWc7DXwLEn0s58yUWBlvDWlnYZL4Mqh10_bPlkwda6sB578DgZiO5qnQNGPO801NwdnM1-m9QXTvuKYQkbi-928lJmRqSUd3Cu6qjnydJyljhi5_6fq-FB6zFLNNSsgPlvo4oNTHNKYfEOotMRF8LA7iE7WdULAwAVD5G_Kc551o3KlxaM39KmqJ2vtv7dJUqq4JqRlR57uXBgdmCx-owwFDYgHl5OhYv_KOb6ORm00]--></g></svg>