<?xml version="1.0" encoding="us-ascii" standalone="no"?><svg xmlns="http://www.w3.org/2000/svg" xmlns:xlink="http://www.w3.org/1999/xlink" contentStyleType="text/css" height="1141px" preserveAspectRatio="none" style="width:1371px;height:1141px;background:#FFFFFF;" version="1.1" viewBox="0 0 1371 1141" width="1371px" zoomAndPan="magnify"><defs/><g><rect fill="none" height="79.0547" style="stroke:#000000;stroke-width:1.5;" width="448.5" x="905.5" y="811.6953"/><line style="stroke:#181818;stroke-width:0.5;stroke-dasharray:5.0,5.0;" x1="51" x2="51" y1="82.6094" y2="1059.5078"/><line style="stroke:#181818;stroke-width:0.5;stroke-dasharray:5.0,5.0;" x1="264.5" x2="264.5" y1="82.6094" y2="1059.5078"/><line style="stroke:#181818;stroke-width:0.5;stroke-dasharray:5.0,5.0;" x1="423.5" x2="423.5" y1="82.6094" y2="1059.5078"/><line style="stroke:#181818;stroke-width:0.5;stroke-dasharray:5.0,5.0;" x1="585.5" x2="585.5" y1="82.6094" y2="1059.5078"/><line style="stroke:#181818;stroke-width:0.5;stroke-dasharray:5.0,5.0;" x1="800" x2="800" y1="82.6094" y2="1059.5078"/><line style="stroke:#181818;stroke-width:0.5;stroke-dasharray:5.0,5.0;" x1="980.5" x2="980.5" y1="82.6094" y2="1059.5078"/><line style="stroke:#181818;stroke-width:0.5;stroke-dasharray:5.0,5.0;" x1="1302" x2="1302" y1="82.6094" y2="1059.5078"/><text fill="#000000" font-family="sans-serif" font-size="14" lengthAdjust="spacing" textLength="87" x="5" y="79.5332">Administrador</text><ellipse cx="51.5" cy="13.5" fill="#E2E2F0" rx="8" ry="8" style="stroke:#181818;stroke-width:0.5;"/><path d="M51.5,21.5 L51.5,48.5 M38.5,29.5 L64.5,29.5 M51.5,48.5 L38.5,63.5 M51.5,48.5 L64.5,63.5 " fill="none" style="stroke:#181818;stroke-width:0.5;"/><text fill="#000000" font-family="sans-serif" font-size="14" lengthAdjust="spacing" textLength="87" x="5" y="1073.041">Administrador</text><ellipse cx="51.5" cy="1084.6172" fill="#E2E2F0" rx="8" ry="8" style="stroke:#181818;stroke-width:0.5;"/><path d="M51.5,1092.6172 L51.5,1119.6172 M38.5,1100.6172 L64.5,1100.6172 M51.5,1119.6172 L38.5,1134.6172 M51.5,1119.6172 L64.5,1134.6172 " fill="none" style="stroke:#181818;stroke-width:0.5;"/><rect fill="#E2E2F0" height="66.8281" rx="2.5" ry="2.5" style="stroke:#181818;stroke-width:0.5;" width="134" x="197.5" y="14.7813"/><text fill="#000000" font-family="sans-serif" font-size="14" font-style="italic" lengthAdjust="spacing" textLength="89" x="220" y="36.3145">&#171;Component&#187;</text><text fill="#000000" font-family="sans-serif" font-size="14" lengthAdjust="spacing" textLength="120" x="204.5" y="53.9238">EditarProfesorView</text><text fill="#000000" font-family="sans-serif" font-size="14" lengthAdjust="spacing" textLength="47" x="241" y="71.5332">(React)</text><rect fill="#E2E2F0" height="66.8281" rx="2.5" ry="2.5" style="stroke:#181818;stroke-width:0.5;" width="134" x="197.5" y="1058.5078"/><text fill="#000000" font-family="sans-serif" font-size="14" font-style="italic" lengthAdjust="spacing" textLength="89" x="220" y="1080.041">&#171;Component&#187;</text><text fill="#000000" font-family="sans-serif" font-size="14" lengthAdjust="spacing" textLength="120" x="204.5" y="1097.6504">EditarProfesorView</text><text fill="#000000" font-family="sans-serif" font-size="14" lengthAdjust="spacing" textLength="47" x="241" y="1115.2598">(React)</text><rect fill="#E2E2F0" height="66.8281" rx="2.5" ry="2.5" style="stroke:#181818;stroke-width:0.5;" width="124" x="361.5" y="14.7813"/><text fill="#000000" font-family="sans-serif" font-size="14" font-style="italic" lengthAdjust="spacing" textLength="50" x="398.5" y="36.3145">&#171;Hook&#187;</text><text fill="#000000" font-family="sans-serif" font-size="14" lengthAdjust="spacing" textLength="110" x="368.5" y="53.9238">useProfesorForm</text><text fill="#000000" font-family="sans-serif" font-size="14" lengthAdjust="spacing" textLength="42" x="402.5" y="71.5332">(Hook)</text><rect fill="#E2E2F0" height="66.8281" rx="2.5" ry="2.5" style="stroke:#181818;stroke-width:0.5;" width="124" x="361.5" y="1058.5078"/><text fill="#000000" font-family="sans-serif" font-size="14" font-style="italic" lengthAdjust="spacing" textLength="50" x="398.5" y="1080.041">&#171;Hook&#187;</text><text fill="#000000" font-family="sans-serif" font-size="14" lengthAdjust="spacing" textLength="110" x="368.5" y="1097.6504">useProfesorForm</text><text fill="#000000" font-family="sans-serif" font-size="14" lengthAdjust="spacing" textLength="42" x="402.5" y="1115.2598">(Hook)</text><rect fill="#E2E2F0" height="66.8281" rx="2.5" ry="2.5" style="stroke:#181818;stroke-width:0.5;" width="130" x="520.5" y="14.7813"/><text fill="#000000" font-family="sans-serif" font-size="14" font-style="italic" lengthAdjust="spacing" textLength="62" x="554.5" y="36.3145">&#171;Service&#187;</text><text fill="#000000" font-family="sans-serif" font-size="14" lengthAdjust="spacing" textLength="116" x="527.5" y="53.9238">ProfesoresService</text><text fill="#000000" font-family="sans-serif" font-size="14" lengthAdjust="spacing" textLength="43" x="564" y="71.5332">(Axios)</text><rect fill="#E2E2F0" height="66.8281" rx="2.5" ry="2.5" style="stroke:#181818;stroke-width:0.5;" width="130" x="520.5" y="1058.5078"/><text fill="#000000" font-family="sans-serif" font-size="14" font-style="italic" lengthAdjust="spacing" textLength="62" x="554.5" y="1080.041">&#171;Service&#187;</text><text fill="#000000" font-family="sans-serif" font-size="14" lengthAdjust="spacing" textLength="116" x="527.5" y="1097.6504">ProfesoresService</text><text fill="#000000" font-family="sans-serif" font-size="14" lengthAdjust="spacing" textLength="43" x="564" y="1115.2598">(Axios)</text><rect fill="#E2E2F0" height="66.8281" rx="2.5" ry="2.5" style="stroke:#181818;stroke-width:0.5;" width="145" x="728" y="14.7813"/><text fill="#000000" font-family="sans-serif" font-size="14" font-style="italic" lengthAdjust="spacing" textLength="78" x="761.5" y="36.3145">&#171;Controller&#187;</text><text fill="#000000" font-family="sans-serif" font-size="14" lengthAdjust="spacing" textLength="131" x="735" y="53.9238">ProfesoresController</text><text fill="#000000" font-family="sans-serif" font-size="14" lengthAdjust="spacing" textLength="53" x="774" y="71.5332">(NestJS)</text><rect fill="#E2E2F0" height="66.8281" rx="2.5" ry="2.5" style="stroke:#181818;stroke-width:0.5;" width="145" x="728" y="1058.5078"/><text fill="#000000" font-family="sans-serif" font-size="14" font-style="italic" lengthAdjust="spacing" textLength="78" x="761.5" y="1080.041">&#171;Controller&#187;</text><text fill="#000000" font-family="sans-serif" font-size="14" lengthAdjust="spacing" textLength="131" x="735" y="1097.6504">ProfesoresController</text><text fill="#000000" font-family="sans-serif" font-size="14" lengthAdjust="spacing" textLength="53" x="774" y="1115.2598">(NestJS)</text><rect fill="#E2E2F0" height="66.8281" rx="2.5" ry="2.5" style="stroke:#181818;stroke-width:0.5;" width="130" x="915.5" y="14.7813"/><text fill="#000000" font-family="sans-serif" font-size="14" font-style="italic" lengthAdjust="spacing" textLength="62" x="949.5" y="36.3145">&#171;Service&#187;</text><text fill="#000000" font-family="sans-serif" font-size="14" lengthAdjust="spacing" textLength="116" x="922.5" y="53.9238">ProfesoresService</text><text fill="#000000" font-family="sans-serif" font-size="14" lengthAdjust="spacing" textLength="53" x="954" y="71.5332">(NestJS)</text><rect fill="#E2E2F0" height="66.8281" rx="2.5" ry="2.5" style="stroke:#181818;stroke-width:0.5;" width="130" x="915.5" y="1058.5078"/><text fill="#000000" font-family="sans-serif" font-size="14" font-style="italic" lengthAdjust="spacing" textLength="62" x="949.5" y="1080.041">&#171;Service&#187;</text><text fill="#000000" font-family="sans-serif" font-size="14" lengthAdjust="spacing" textLength="116" x="922.5" y="1097.6504">ProfesoresService</text><text fill="#000000" font-family="sans-serif" font-size="14" lengthAdjust="spacing" textLength="53" x="954" y="1115.2598">(NestJS)</text><text fill="#000000" font-family="sans-serif" font-size="14" lengthAdjust="spacing" textLength="77" x="1261" y="79.5332">PostgreSQL</text><path d="M1284.5,29 C1284.5,19 1302.5,19 1302.5,19 C1302.5,19 1320.5,19 1320.5,29 L1320.5,55 C1320.5,65 1302.5,65 1302.5,65 C1302.5,65 1284.5,65 1284.5,55 L1284.5,29 " fill="#E2E2F0" style="stroke:#181818;stroke-width:1.5;"/><path d="M1284.5,29 C1284.5,39 1302.5,39 1302.5,39 C1302.5,39 1320.5,39 1320.5,29 " fill="none" style="stroke:#181818;stroke-width:1.5;"/><text fill="#000000" font-family="sans-serif" font-size="14" lengthAdjust="spacing" textLength="77" x="1261" y="1073.041">PostgreSQL</text><path d="M1284.5,1086.1172 C1284.5,1076.1172 1302.5,1076.1172 1302.5,1076.1172 C1302.5,1076.1172 1320.5,1076.1172 1320.5,1086.1172 L1320.5,1112.1172 C1320.5,1122.1172 1302.5,1122.1172 1302.5,1122.1172 C1302.5,1122.1172 1284.5,1122.1172 1284.5,1112.1172 L1284.5,1086.1172 " fill="#E2E2F0" style="stroke:#181818;stroke-width:1.5;"/><path d="M1284.5,1086.1172 C1284.5,1096.1172 1302.5,1096.1172 1302.5,1096.1172 C1302.5,1096.1172 1320.5,1096.1172 1320.5,1086.1172 " fill="none" style="stroke:#181818;stroke-width:1.5;"/><rect fill="#EEEEEE" height="3" style="stroke:#EEEEEE;stroke-width:1.0;" width="1364" x="0" y="113.7852"/><line style="stroke:#000000;stroke-width:1.0;" x1="0" x2="1364" y1="113.7852" y2="113.7852"/><line style="stroke:#000000;stroke-width:1.0;" x1="0" x2="1364" y1="116.7852" y2="116.7852"/><rect fill="#EEEEEE" height="24.3516" style="stroke:#000000;stroke-width:2.0;" width="115" x="624.5" y="102.6094"/><text fill="#000000" font-family="sans-serif" font-size="13" font-weight="bold" lengthAdjust="spacing" textLength="97" x="630.5" y="120.1045">Carga de Datos</text><polygon fill="#181818" points="252.5,155.3125,262.5,159.3125,252.5,163.3125,256.5,159.3125" style="stroke:#181818;stroke-width:1.0;"/><line style="stroke:#181818;stroke-width:1.0;" x1="51.5" x2="258.5" y1="159.3125" y2="159.3125"/><text fill="#000000" font-family="sans-serif" font-size="13" lengthAdjust="spacing" textLength="141" x="58.5" y="154.4561">Accede a editar profesor</text><polygon fill="#181818" points="411.5,185.6641,421.5,189.6641,411.5,193.6641,415.5,189.6641" style="stroke:#181818;stroke-width:1.0;"/><line style="stroke:#181818;stroke-width:1.0;" x1="264.5" x2="417.5" y1="189.6641" y2="189.6641"/><text fill="#000000" font-family="sans-serif" font-size="13" lengthAdjust="spacing" textLength="90" x="271.5" y="184.8076">loadProfesor(id)</text><polygon fill="#181818" points="573.5,216.0156,583.5,220.0156,573.5,224.0156,577.5,220.0156" style="stroke:#181818;stroke-width:1.0;"/><line style="stroke:#181818;stroke-width:1.0;" x1="423.5" x2="579.5" y1="220.0156" y2="220.0156"/><text fill="#000000" font-family="sans-serif" font-size="13" lengthAdjust="spacing" textLength="110" x="430.5" y="215.1592">getProfesorById(id)</text><polygon fill="#181818" points="788.5,246.3672,798.5,250.3672,788.5,254.3672,792.5,250.3672" style="stroke:#181818;stroke-width:1.0;"/><line style="stroke:#181818;stroke-width:1.0;" x1="585.5" x2="794.5" y1="250.3672" y2="250.3672"/><text fill="#000000" font-family="sans-serif" font-size="13" lengthAdjust="spacing" textLength="112" x="592.5" y="245.5107">GET /profesores/:id</text><polygon fill="#181818" points="968.5,276.7188,978.5,280.7188,968.5,284.7188,972.5,280.7188" style="stroke:#181818;stroke-width:1.0;"/><line style="stroke:#181818;stroke-width:1.0;" x1="800.5" x2="974.5" y1="280.7188" y2="280.7188"/><text fill="#000000" font-family="sans-serif" font-size="13" lengthAdjust="spacing" textLength="62" x="807.5" y="275.8623">findOne(id)</text><polygon fill="#181818" points="1290.5,323.4219,1300.5,327.4219,1290.5,331.4219,1294.5,327.4219" style="stroke:#181818;stroke-width:1.0;"/><line style="stroke:#181818;stroke-width:1.0;" x1="980.5" x2="1296.5" y1="327.4219" y2="327.4219"/><text fill="#000000" font-family="sans-serif" font-size="13" lengthAdjust="spacing" textLength="163" x="987.5" y="306.2139">SELECT * FROM "Profesor"</text><text fill="#000000" font-family="sans-serif" font-size="13" lengthAdjust="spacing" textLength="183" x="987.5" y="322.5654">JOIN "Usuario" WHERE id = :id</text><polygon fill="#181818" points="991.5,353.7734,981.5,357.7734,991.5,361.7734,987.5,357.7734" style="stroke:#181818;stroke-width:1.0;"/><line style="stroke:#181818;stroke-width:1.0;stroke-dasharray:2.0,2.0;" x1="985.5" x2="1301.5" y1="357.7734" y2="357.7734"/><text fill="#000000" font-family="sans-serif" font-size="13" lengthAdjust="spacing" textLength="79" x="997.5" y="352.917">Profesor Data</text><polygon fill="#181818" points="811.5,384.125,801.5,388.125,811.5,392.125,807.5,388.125" style="stroke:#181818;stroke-width:1.0;"/><line style="stroke:#181818;stroke-width:1.0;stroke-dasharray:2.0,2.0;" x1="805.5" x2="979.5" y1="388.125" y2="388.125"/><text fill="#000000" font-family="sans-serif" font-size="13" lengthAdjust="spacing" textLength="86" x="817.5" y="383.2686">Profesor Entity</text><polygon fill="#181818" points="596.5,414.4766,586.5,418.4766,596.5,422.4766,592.5,418.4766" style="stroke:#181818;stroke-width:1.0;"/><line style="stroke:#181818;stroke-width:1.0;stroke-dasharray:2.0,2.0;" x1="590.5" x2="799.5" y1="418.4766" y2="418.4766"/><text fill="#000000" font-family="sans-serif" font-size="13" lengthAdjust="spacing" textLength="96" x="602.5" y="413.6201">JSON Response</text><polygon fill="#181818" points="434.5,444.8281,424.5,448.8281,434.5,452.8281,430.5,448.8281" style="stroke:#181818;stroke-width:1.0;"/><line style="stroke:#181818;stroke-width:1.0;stroke-dasharray:2.0,2.0;" x1="428.5" x2="584.5" y1="448.8281" y2="448.8281"/><text fill="#000000" font-family="sans-serif" font-size="13" lengthAdjust="spacing" textLength="90" x="440.5" y="443.9717">Profesor Object</text><polygon fill="#181818" points="275.5,475.1797,265.5,479.1797,275.5,483.1797,271.5,479.1797" style="stroke:#181818;stroke-width:1.0;"/><line style="stroke:#181818;stroke-width:1.0;stroke-dasharray:2.0,2.0;" x1="269.5" x2="422.5" y1="479.1797" y2="479.1797"/><text fill="#000000" font-family="sans-serif" font-size="13" lengthAdjust="spacing" textLength="103" x="281.5" y="474.3232">Rellena formulario</text><rect fill="#EEEEEE" height="3" style="stroke:#EEEEEE;stroke-width:1.0;" width="1364" x="0" y="508.3555"/><line style="stroke:#000000;stroke-width:1.0;" x1="0" x2="1364" y1="508.3555" y2="508.3555"/><line style="stroke:#000000;stroke-width:1.0;" x1="0" x2="1364" y1="511.3555" y2="511.3555"/><rect fill="#EEEEEE" height="24.3516" style="stroke:#000000;stroke-width:2.0;" width="65" x="649.5" y="497.1797"/><text fill="#000000" font-family="sans-serif" font-size="13" font-weight="bold" lengthAdjust="spacing" textLength="47" x="655.5" y="514.6748">Edici&#243;n</text><polygon fill="#181818" points="252.5,549.8828,262.5,553.8828,252.5,557.8828,256.5,553.8828" style="stroke:#181818;stroke-width:1.0;"/><line style="stroke:#181818;stroke-width:1.0;" x1="51.5" x2="258.5" y1="553.8828" y2="553.8828"/><text fill="#000000" font-family="sans-serif" font-size="13" lengthAdjust="spacing" textLength="189" x="58.5" y="549.0264">Modifica campos y asignaciones</text><polygon fill="#181818" points="252.5,580.2344,262.5,584.2344,252.5,588.2344,256.5,584.2344" style="stroke:#181818;stroke-width:1.0;"/><line style="stroke:#181818;stroke-width:1.0;" x1="51.5" x2="258.5" y1="584.2344" y2="584.2344"/><text fill="#000000" font-family="sans-serif" font-size="13" lengthAdjust="spacing" textLength="107" x="58.5" y="579.3779">Click en "Guardar"</text><polygon fill="#181818" points="411.5,610.5859,421.5,614.5859,411.5,618.5859,415.5,614.5859" style="stroke:#181818;stroke-width:1.0;"/><line style="stroke:#181818;stroke-width:1.0;" x1="264.5" x2="417.5" y1="614.5859" y2="614.5859"/><text fill="#000000" font-family="sans-serif" font-size="13" lengthAdjust="spacing" textLength="90" x="271.5" y="609.7295">update(id, data)</text><polygon fill="#181818" points="573.5,640.9375,583.5,644.9375,573.5,648.9375,577.5,644.9375" style="stroke:#181818;stroke-width:1.0;"/><line style="stroke:#181818;stroke-width:1.0;" x1="423.5" x2="579.5" y1="644.9375" y2="644.9375"/><text fill="#000000" font-family="sans-serif" font-size="13" lengthAdjust="spacing" textLength="138" x="430.5" y="640.0811">updateProfesor(id, data)</text><polygon fill="#181818" points="788.5,671.2891,798.5,675.2891,788.5,679.2891,792.5,675.2891" style="stroke:#181818;stroke-width:1.0;"/><line style="stroke:#181818;stroke-width:1.0;" x1="585.5" x2="794.5" y1="675.2891" y2="675.2891"/><text fill="#000000" font-family="sans-serif" font-size="13" lengthAdjust="spacing" textLength="191" x="592.5" y="670.4326">PUT /profesores/:id (JSON Body)</text><polygon fill="#181818" points="968.5,701.6406,978.5,705.6406,968.5,709.6406,972.5,705.6406" style="stroke:#181818;stroke-width:1.0;"/><line style="stroke:#181818;stroke-width:1.0;" x1="800.5" x2="974.5" y1="705.6406" y2="705.6406"/><text fill="#000000" font-family="sans-serif" font-size="13" lengthAdjust="spacing" textLength="83" x="807.5" y="700.7842">update(id, dto)</text><polygon fill="#181818" points="1290.5,731.9922,1300.5,735.9922,1290.5,739.9922,1294.5,735.9922" style="stroke:#181818;stroke-width:1.0;"/><line style="stroke:#181818;stroke-width:1.0;" x1="980.5" x2="1296.5" y1="735.9922" y2="735.9922"/><text fill="#000000" font-family="sans-serif" font-size="13" lengthAdjust="spacing" textLength="290" x="987.5" y="731.1357">UPDATE "Usuario" SET ... WHERE id = usuarioId</text><polygon fill="#181818" points="1290.5,762.3438,1300.5,766.3438,1290.5,770.3438,1294.5,766.3438" style="stroke:#181818;stroke-width:1.0;"/><line style="stroke:#181818;stroke-width:1.0;" x1="980.5" x2="1296.5" y1="766.3438" y2="766.3438"/><text fill="#000000" font-family="sans-serif" font-size="13" lengthAdjust="spacing" textLength="298" x="987.5" y="761.4873">UPDATE "Profesor" SET ... WHERE id = profesorId</text><polygon fill="#181818" points="991.5,792.6953,981.5,796.6953,991.5,800.6953,987.5,796.6953" style="stroke:#181818;stroke-width:1.0;"/><line style="stroke:#181818;stroke-width:1.0;stroke-dasharray:2.0,2.0;" x1="985.5" x2="1301.5" y1="796.6953" y2="796.6953"/><text fill="#000000" font-family="sans-serif" font-size="13" lengthAdjust="spacing" textLength="19" x="997.5" y="791.8389">OK</text><path d="M905.5,811.6953 L966.5,811.6953 L966.5,820.0469 L956.5,830.0469 L905.5,830.0469 L905.5,811.6953 " fill="#EEEEEE" style="stroke:#000000;stroke-width:1.5;"/><rect fill="none" height="79.0547" style="stroke:#000000;stroke-width:1.5;" width="448.5" x="905.5" y="811.6953"/><text fill="#000000" font-family="sans-serif" font-size="13" font-weight="bold" lengthAdjust="spacing" textLength="16" x="920.5" y="826.1904">alt</text><text fill="#000000" font-family="sans-serif" font-size="11" font-weight="bold" lengthAdjust="spacing" textLength="176" x="981.5" y="825.1143">[Modificaciones en asignaturas]</text><polygon fill="#181818" points="1290.5,848.3984,1300.5,852.3984,1290.5,856.3984,1294.5,852.3984" style="stroke:#181818;stroke-width:1.0;"/><line style="stroke:#181818;stroke-width:1.0;" x1="980.5" x2="1296.5" y1="852.3984" y2="852.3984"/><text fill="#000000" font-family="sans-serif" font-size="13" lengthAdjust="spacing" textLength="224" x="987.5" y="847.542">INSERT/DELETE "ProfesorAsignatura"</text><polygon fill="#181818" points="991.5,878.75,981.5,882.75,991.5,886.75,987.5,882.75" style="stroke:#181818;stroke-width:1.0;"/><line style="stroke:#181818;stroke-width:1.0;stroke-dasharray:2.0,2.0;" x1="985.5" x2="1301.5" y1="882.75" y2="882.75"/><text fill="#000000" font-family="sans-serif" font-size="13" lengthAdjust="spacing" textLength="19" x="997.5" y="877.8936">OK</text><polygon fill="#181818" points="811.5,916.1016,801.5,920.1016,811.5,924.1016,807.5,920.1016" style="stroke:#181818;stroke-width:1.0;"/><line style="stroke:#181818;stroke-width:1.0;stroke-dasharray:2.0,2.0;" x1="805.5" x2="979.5" y1="920.1016" y2="920.1016"/><text fill="#000000" font-family="sans-serif" font-size="13" lengthAdjust="spacing" textLength="156" x="817.5" y="915.2451">Profesor Entity actualizado</text><polygon fill="#181818" points="596.5,946.4531,586.5,950.4531,596.5,954.4531,592.5,950.4531" style="stroke:#181818;stroke-width:1.0;"/><line style="stroke:#181818;stroke-width:1.0;stroke-dasharray:2.0,2.0;" x1="590.5" x2="799.5" y1="950.4531" y2="950.4531"/><text fill="#000000" font-family="sans-serif" font-size="13" lengthAdjust="spacing" textLength="152" x="602.5" y="945.5967">JSON Response (200 OK)</text><polygon fill="#181818" points="434.5,976.8047,424.5,980.8047,434.5,984.8047,430.5,980.8047" style="stroke:#181818;stroke-width:1.0;"/><line style="stroke:#181818;stroke-width:1.0;stroke-dasharray:2.0,2.0;" x1="428.5" x2="584.5" y1="980.8047" y2="980.8047"/><text fill="#000000" font-family="sans-serif" font-size="13" lengthAdjust="spacing" textLength="51" x="440.5" y="975.9482">Success</text><polygon fill="#181818" points="275.5,1007.1563,265.5,1011.1563,275.5,1015.1563,271.5,1011.1563" style="stroke:#181818;stroke-width:1.0;"/><line style="stroke:#181818;stroke-width:1.0;stroke-dasharray:2.0,2.0;" x1="269.5" x2="422.5" y1="1011.1563" y2="1011.1563"/><text fill="#000000" font-family="sans-serif" font-size="13" lengthAdjust="spacing" textLength="135" x="281.5" y="1006.2998">Redirigir / Mostrar &#233;xito</text><polygon fill="#181818" points="62.5,1037.5078,52.5,1041.5078,62.5,1045.5078,58.5,1041.5078" style="stroke:#181818;stroke-width:1.0;"/><line style="stroke:#181818;stroke-width:1.0;stroke-dasharray:2.0,2.0;" x1="56.5" x2="263.5" y1="1041.5078" y2="1041.5078"/><text fill="#000000" font-family="sans-serif" font-size="13" lengthAdjust="spacing" textLength="124" x="68.5" y="1036.6514">Muestra confirmaci&#243;n</text><!--SRC=[ZPJ1Sjem48RlUeeTdw3JGAP79cG6Wqb84qXjQ2-vA9QWsnY9aUGcv8rwxYFanRgsiR43TC85sxl_QlNl9zadL1jk-1hiJoxqCweLB7bY9MCyTjh0GAnHeNM6eePHgiCODrmvy0A1ZfjxevVIQlCTvVE3QeMIT6qFk8N512ukXdgzqKegTtdPLATMbjAnDckINclzL2Yp9z9cV-zbfKRQI9hV64iI3bvGsq8vtdqbzUxfT86XLixe9966QaobTJTHKMGVo3TGldoabNeP_rWlWZl-oAqakRPkPMJqxJRF7lcCzVimv6R5GKWOSQSjzFkCDKO0PvUPiJqOnB6aD0uo7mDiTjqmYb9ERc4F4ir5sMSBHPlbtobU6TM3bNHbYh-TY3oj2bDgpOuUN0Lpw6wgdNTxA5WjWTBzVUKbAZ5JCg_erogEV0f6mMqmdCCd68UpkxsRteEwcKscu2rioWrg3tvS1s40AA0FsMeaFcikKqepptXjeVUzLtc1SkYsZRwRbjn4ioc4qXAwT1J6zOexOwjQiyTVCdOxNylXX9AgAWvB8ZjDictamwKJ4-FRN_MViTvfWKkCESIS3ew5BR61AyLZf5DaJuY62SPF81LuL-IPuCPhKf1k2Bji39yXu-ye1KLEZPKozoGAzui35A2LE-ThiMsVngBUZjDjTiZ6uduqc0Sr1YB2hjFfr5b8YzX4d9PNJ1tJbvrFZY4r-qeNOEAgSHJsPnONut2fuPO1_GuMdqoZ89ntHuHtlOT1fVDotT4rfHBium03NRKfJ_2LOFWepD3wSdvEIxMFKXsbTAjOUq2pG8ChDD0bGpBu3BpzUK6dSymehOabKPpAx0LYhPPerZoddlq3]--></g></svg>