<?xml version="1.0" encoding="us-ascii" standalone="no"?><svg xmlns="http://www.w3.org/2000/svg" xmlns:xlink="http://www.w3.org/1999/xlink" contentStyleType="text/css" height="1001px" preserveAspectRatio="none" style="width:1264px;height:1001px;background:#FFFFFF;" version="1.1" viewBox="0 0 1264 1001" width="1264px" zoomAndPan="magnify"><defs/><g><line style="stroke:#181818;stroke-width:0.5;stroke-dasharray:5.0,5.0;" x1="51" x2="51" y1="82.6094" y2="919.75"/><line style="stroke:#181818;stroke-width:0.5;stroke-dasharray:5.0,5.0;" x1="270" x2="270" y1="82.6094" y2="919.75"/><line style="stroke:#181818;stroke-width:0.5;stroke-dasharray:5.0,5.0;" x1="429.5" x2="429.5" y1="82.6094" y2="919.75"/><line style="stroke:#181818;stroke-width:0.5;stroke-dasharray:5.0,5.0;" x1="578.5" x2="578.5" y1="82.6094" y2="919.75"/><line style="stroke:#181818;stroke-width:0.5;stroke-dasharray:5.0,5.0;" x1="790" x2="790" y1="82.6094" y2="919.75"/><line style="stroke:#181818;stroke-width:0.5;stroke-dasharray:5.0,5.0;" x1="939.5" x2="939.5" y1="82.6094" y2="919.75"/><line style="stroke:#181818;stroke-width:0.5;stroke-dasharray:5.0,5.0;" x1="1210" x2="1210" y1="82.6094" y2="919.75"/><text fill="#000000" font-family="sans-serif" font-size="14" lengthAdjust="spacing" textLength="87" x="5" y="79.5332">Administrador</text><ellipse cx="51.5" cy="13.5" fill="#E2E2F0" rx="8" ry="8" style="stroke:#181818;stroke-width:0.5;"/><path d="M51.5,21.5 L51.5,48.5 M38.5,29.5 L64.5,29.5 M51.5,48.5 L38.5,63.5 M51.5,48.5 L64.5,63.5 " fill="none" style="stroke:#181818;stroke-width:0.5;"/><text fill="#000000" font-family="sans-serif" font-size="14" lengthAdjust="spacing" textLength="87" x="5" y="933.2832">Administrador</text><ellipse cx="51.5" cy="944.8594" fill="#E2E2F0" rx="8" ry="8" style="stroke:#181818;stroke-width:0.5;"/><path d="M51.5,952.8594 L51.5,979.8594 M38.5,960.8594 L64.5,960.8594 M51.5,979.8594 L38.5,994.8594 M51.5,979.8594 L64.5,994.8594 " fill="none" style="stroke:#181818;stroke-width:0.5;"/><rect fill="#E2E2F0" height="66.8281" rx="2.5" ry="2.5" style="stroke:#181818;stroke-width:0.5;" width="107" x="217" y="14.7813"/><text fill="#000000" font-family="sans-serif" font-size="14" font-style="italic" lengthAdjust="spacing" textLength="89" x="226" y="36.3145">&#171;Component&#187;</text><text fill="#000000" font-family="sans-serif" font-size="14" lengthAdjust="spacing" textLength="93" x="224" y="53.9238">GradoEditView</text><text fill="#000000" font-family="sans-serif" font-size="14" lengthAdjust="spacing" textLength="47" x="247" y="71.5332">(React)</text><rect fill="#E2E2F0" height="66.8281" rx="2.5" ry="2.5" style="stroke:#181818;stroke-width:0.5;" width="107" x="217" y="918.75"/><text fill="#000000" font-family="sans-serif" font-size="14" font-style="italic" lengthAdjust="spacing" textLength="89" x="226" y="940.2832">&#171;Component&#187;</text><text fill="#000000" font-family="sans-serif" font-size="14" lengthAdjust="spacing" textLength="93" x="224" y="957.8926">GradoEditView</text><text fill="#000000" font-family="sans-serif" font-size="14" lengthAdjust="spacing" textLength="47" x="247" y="975.502">(React)</text><rect fill="#E2E2F0" height="66.8281" rx="2.5" ry="2.5" style="stroke:#181818;stroke-width:0.5;" width="110" x="374.5" y="14.7813"/><text fill="#000000" font-family="sans-serif" font-size="14" font-style="italic" lengthAdjust="spacing" textLength="50" x="404.5" y="36.3145">&#171;Hook&#187;</text><text fill="#000000" font-family="sans-serif" font-size="14" lengthAdjust="spacing" textLength="96" x="381.5" y="53.9238">useGradoForm</text><text fill="#000000" font-family="sans-serif" font-size="14" lengthAdjust="spacing" textLength="42" x="408.5" y="71.5332">(Hook)</text><rect fill="#E2E2F0" height="66.8281" rx="2.5" ry="2.5" style="stroke:#181818;stroke-width:0.5;" width="110" x="374.5" y="918.75"/><text fill="#000000" font-family="sans-serif" font-size="14" font-style="italic" lengthAdjust="spacing" textLength="50" x="404.5" y="940.2832">&#171;Hook&#187;</text><text fill="#000000" font-family="sans-serif" font-size="14" lengthAdjust="spacing" textLength="96" x="381.5" y="957.8926">useGradoForm</text><text fill="#000000" font-family="sans-serif" font-size="14" lengthAdjust="spacing" textLength="42" x="408.5" y="975.502">(Hook)</text><rect fill="#E2E2F0" height="66.8281" rx="2.5" ry="2.5" style="stroke:#181818;stroke-width:0.5;" width="108" x="524.5" y="14.7813"/><text fill="#000000" font-family="sans-serif" font-size="14" font-style="italic" lengthAdjust="spacing" textLength="62" x="547.5" y="36.3145">&#171;Service&#187;</text><text fill="#000000" font-family="sans-serif" font-size="14" lengthAdjust="spacing" textLength="94" x="531.5" y="53.9238">GradosService</text><text fill="#000000" font-family="sans-serif" font-size="14" lengthAdjust="spacing" textLength="43" x="557" y="71.5332">(Axios)</text><rect fill="#E2E2F0" height="66.8281" rx="2.5" ry="2.5" style="stroke:#181818;stroke-width:0.5;" width="108" x="524.5" y="918.75"/><text fill="#000000" font-family="sans-serif" font-size="14" font-style="italic" lengthAdjust="spacing" textLength="62" x="547.5" y="940.2832">&#171;Service&#187;</text><text fill="#000000" font-family="sans-serif" font-size="14" lengthAdjust="spacing" textLength="94" x="531.5" y="957.8926">GradosService</text><text fill="#000000" font-family="sans-serif" font-size="14" lengthAdjust="spacing" textLength="43" x="557" y="975.502">(Axios)</text><rect fill="#E2E2F0" height="66.8281" rx="2.5" ry="2.5" style="stroke:#181818;stroke-width:0.5;" width="123" x="729" y="14.7813"/><text fill="#000000" font-family="sans-serif" font-size="14" font-style="italic" lengthAdjust="spacing" textLength="78" x="751.5" y="36.3145">&#171;Controller&#187;</text><text fill="#000000" font-family="sans-serif" font-size="14" lengthAdjust="spacing" textLength="109" x="736" y="53.9238">GradosController</text><text fill="#000000" font-family="sans-serif" font-size="14" lengthAdjust="spacing" textLength="53" x="764" y="71.5332">(NestJS)</text><rect fill="#E2E2F0" height="66.8281" rx="2.5" ry="2.5" style="stroke:#181818;stroke-width:0.5;" width="123" x="729" y="918.75"/><text fill="#000000" font-family="sans-serif" font-size="14" font-style="italic" lengthAdjust="spacing" textLength="78" x="751.5" y="940.2832">&#171;Controller&#187;</text><text fill="#000000" font-family="sans-serif" font-size="14" lengthAdjust="spacing" textLength="109" x="736" y="957.8926">GradosController</text><text fill="#000000" font-family="sans-serif" font-size="14" lengthAdjust="spacing" textLength="53" x="764" y="975.502">(NestJS)</text><rect fill="#E2E2F0" height="66.8281" rx="2.5" ry="2.5" style="stroke:#181818;stroke-width:0.5;" width="108" x="885.5" y="14.7813"/><text fill="#000000" font-family="sans-serif" font-size="14" font-style="italic" lengthAdjust="spacing" textLength="62" x="908.5" y="36.3145">&#171;Service&#187;</text><text fill="#000000" font-family="sans-serif" font-size="14" lengthAdjust="spacing" textLength="94" x="892.5" y="53.9238">GradosService</text><text fill="#000000" font-family="sans-serif" font-size="14" lengthAdjust="spacing" textLength="53" x="913" y="71.5332">(NestJS)</text><rect fill="#E2E2F0" height="66.8281" rx="2.5" ry="2.5" style="stroke:#181818;stroke-width:0.5;" width="108" x="885.5" y="918.75"/><text fill="#000000" font-family="sans-serif" font-size="14" font-style="italic" lengthAdjust="spacing" textLength="62" x="908.5" y="940.2832">&#171;Service&#187;</text><text fill="#000000" font-family="sans-serif" font-size="14" lengthAdjust="spacing" textLength="94" x="892.5" y="957.8926">GradosService</text><text fill="#000000" font-family="sans-serif" font-size="14" lengthAdjust="spacing" textLength="53" x="913" y="975.502">(NestJS)</text><text fill="#000000" font-family="sans-serif" font-size="14" lengthAdjust="spacing" textLength="77" x="1169" y="79.5332">PostgreSQL</text><path d="M1192.5,29 C1192.5,19 1210.5,19 1210.5,19 C1210.5,19 1228.5,19 1228.5,29 L1228.5,55 C1228.5,65 1210.5,65 1210.5,65 C1210.5,65 1192.5,65 1192.5,55 L1192.5,29 " fill="#E2E2F0" style="stroke:#181818;stroke-width:1.5;"/><path d="M1192.5,29 C1192.5,39 1210.5,39 1210.5,39 C1210.5,39 1228.5,39 1228.5,29 " fill="none" style="stroke:#181818;stroke-width:1.5;"/><text fill="#000000" font-family="sans-serif" font-size="14" lengthAdjust="spacing" textLength="77" x="1169" y="933.2832">PostgreSQL</text><path d="M1192.5,946.3594 C1192.5,936.3594 1210.5,936.3594 1210.5,936.3594 C1210.5,936.3594 1228.5,936.3594 1228.5,946.3594 L1228.5,972.3594 C1228.5,982.3594 1210.5,982.3594 1210.5,982.3594 C1210.5,982.3594 1192.5,982.3594 1192.5,972.3594 L1192.5,946.3594 " fill="#E2E2F0" style="stroke:#181818;stroke-width:1.5;"/><path d="M1192.5,946.3594 C1192.5,956.3594 1210.5,956.3594 1210.5,956.3594 C1210.5,956.3594 1228.5,956.3594 1228.5,946.3594 " fill="none" style="stroke:#181818;stroke-width:1.5;"/><rect fill="#EEEEEE" height="3" style="stroke:#EEEEEE;stroke-width:1.0;" width="1257" x="0" y="113.7852"/><line style="stroke:#000000;stroke-width:1.0;" x1="0" x2="1257" y1="113.7852" y2="113.7852"/><line style="stroke:#000000;stroke-width:1.0;" x1="0" x2="1257" y1="116.7852" y2="116.7852"/><rect fill="#EEEEEE" height="24.3516" style="stroke:#000000;stroke-width:2.0;" width="115" x="571" y="102.6094"/><text fill="#000000" font-family="sans-serif" font-size="13" font-weight="bold" lengthAdjust="spacing" textLength="97" x="577" y="120.1045">Carga de Datos</text><polygon fill="#181818" points="258.5,155.3125,268.5,159.3125,258.5,163.3125,262.5,159.3125" style="stroke:#181818;stroke-width:1.0;"/><line style="stroke:#181818;stroke-width:1.0;" x1="51.5" x2="264.5" y1="159.3125" y2="159.3125"/><text fill="#000000" font-family="sans-serif" font-size="13" lengthAdjust="spacing" textLength="127" x="58.5" y="154.4561">Accede a editar grado</text><polygon fill="#181818" points="417.5,185.6641,427.5,189.6641,417.5,193.6641,421.5,189.6641" style="stroke:#181818;stroke-width:1.0;"/><line style="stroke:#181818;stroke-width:1.0;" x1="270.5" x2="423.5" y1="189.6641" y2="189.6641"/><text fill="#000000" font-family="sans-serif" font-size="13" lengthAdjust="spacing" textLength="77" x="277.5" y="184.8076">loadGrado(id)</text><polygon fill="#181818" points="566.5,216.0156,576.5,220.0156,566.5,224.0156,570.5,220.0156" style="stroke:#181818;stroke-width:1.0;"/><line style="stroke:#181818;stroke-width:1.0;" x1="429.5" x2="572.5" y1="220.0156" y2="220.0156"/><text fill="#000000" font-family="sans-serif" font-size="13" lengthAdjust="spacing" textLength="97" x="436.5" y="215.1592">getGradoById(id)</text><polygon fill="#181818" points="778.5,246.3672,788.5,250.3672,778.5,254.3672,782.5,250.3672" style="stroke:#181818;stroke-width:1.0;"/><line style="stroke:#181818;stroke-width:1.0;" x1="578.5" x2="784.5" y1="250.3672" y2="250.3672"/><text fill="#000000" font-family="sans-serif" font-size="13" lengthAdjust="spacing" textLength="91" x="585.5" y="245.5107">GET /grados/:id</text><polygon fill="#181818" points="927.5,276.7188,937.5,280.7188,927.5,284.7188,931.5,280.7188" style="stroke:#181818;stroke-width:1.0;"/><line style="stroke:#181818;stroke-width:1.0;" x1="790.5" x2="933.5" y1="280.7188" y2="280.7188"/><text fill="#000000" font-family="sans-serif" font-size="13" lengthAdjust="spacing" textLength="62" x="797.5" y="275.8623">findOne(id)</text><polygon fill="#181818" points="1198.5,307.0703,1208.5,311.0703,1198.5,315.0703,1202.5,311.0703" style="stroke:#181818;stroke-width:1.0;"/><line style="stroke:#181818;stroke-width:1.0;" x1="939.5" x2="1204.5" y1="311.0703" y2="311.0703"/><text fill="#000000" font-family="sans-serif" font-size="13" lengthAdjust="spacing" textLength="247" x="946.5" y="306.2139">SELECT * FROM "Grado" WHERE id = :id</text><polygon fill="#181818" points="950.5,337.4219,940.5,341.4219,950.5,345.4219,946.5,341.4219" style="stroke:#181818;stroke-width:1.0;"/><line style="stroke:#181818;stroke-width:1.0;stroke-dasharray:2.0,2.0;" x1="944.5" x2="1209.5" y1="341.4219" y2="341.4219"/><text fill="#000000" font-family="sans-serif" font-size="13" lengthAdjust="spacing" textLength="66" x="956.5" y="336.5654">Grado Data</text><polygon fill="#181818" points="801.5,367.7734,791.5,371.7734,801.5,375.7734,797.5,371.7734" style="stroke:#181818;stroke-width:1.0;"/><line style="stroke:#181818;stroke-width:1.0;stroke-dasharray:2.0,2.0;" x1="795.5" x2="938.5" y1="371.7734" y2="371.7734"/><text fill="#000000" font-family="sans-serif" font-size="13" lengthAdjust="spacing" textLength="73" x="807.5" y="366.917">Grado Entity</text><polygon fill="#181818" points="589.5,398.125,579.5,402.125,589.5,406.125,585.5,402.125" style="stroke:#181818;stroke-width:1.0;"/><line style="stroke:#181818;stroke-width:1.0;stroke-dasharray:2.0,2.0;" x1="583.5" x2="789.5" y1="402.125" y2="402.125"/><text fill="#000000" font-family="sans-serif" font-size="13" lengthAdjust="spacing" textLength="96" x="595.5" y="397.2686">JSON Response</text><polygon fill="#181818" points="440.5,428.4766,430.5,432.4766,440.5,436.4766,436.5,432.4766" style="stroke:#181818;stroke-width:1.0;"/><line style="stroke:#181818;stroke-width:1.0;stroke-dasharray:2.0,2.0;" x1="434.5" x2="577.5" y1="432.4766" y2="432.4766"/><text fill="#000000" font-family="sans-serif" font-size="13" lengthAdjust="spacing" textLength="77" x="446.5" y="427.6201">Grado Object</text><polygon fill="#181818" points="281.5,458.8281,271.5,462.8281,281.5,466.8281,277.5,462.8281" style="stroke:#181818;stroke-width:1.0;"/><line style="stroke:#181818;stroke-width:1.0;stroke-dasharray:2.0,2.0;" x1="275.5" x2="428.5" y1="462.8281" y2="462.8281"/><text fill="#000000" font-family="sans-serif" font-size="13" lengthAdjust="spacing" textLength="103" x="287.5" y="457.9717">Rellena formulario</text><rect fill="#EEEEEE" height="3" style="stroke:#EEEEEE;stroke-width:1.0;" width="1257" x="0" y="492.0039"/><line style="stroke:#000000;stroke-width:1.0;" x1="0" x2="1257" y1="492.0039" y2="492.0039"/><line style="stroke:#000000;stroke-width:1.0;" x1="0" x2="1257" y1="495.0039" y2="495.0039"/><rect fill="#EEEEEE" height="24.3516" style="stroke:#000000;stroke-width:2.0;" width="65" x="596" y="480.8281"/><text fill="#000000" font-family="sans-serif" font-size="13" font-weight="bold" lengthAdjust="spacing" textLength="47" x="602" y="498.3232">Edici&#243;n</text><polygon fill="#181818" points="258.5,533.5313,268.5,537.5313,258.5,541.5313,262.5,537.5313" style="stroke:#181818;stroke-width:1.0;"/><line style="stroke:#181818;stroke-width:1.0;" x1="51.5" x2="264.5" y1="537.5313" y2="537.5313"/><text fill="#000000" font-family="sans-serif" font-size="13" lengthAdjust="spacing" textLength="98" x="58.5" y="532.6748">Modifica campos</text><polygon fill="#181818" points="258.5,563.8828,268.5,567.8828,258.5,571.8828,262.5,567.8828" style="stroke:#181818;stroke-width:1.0;"/><line style="stroke:#181818;stroke-width:1.0;" x1="51.5" x2="264.5" y1="567.8828" y2="567.8828"/><text fill="#000000" font-family="sans-serif" font-size="13" lengthAdjust="spacing" textLength="95" x="58.5" y="563.0264">Click en "Editar"</text><polygon fill="#181818" points="417.5,594.2344,427.5,598.2344,417.5,602.2344,421.5,598.2344" style="stroke:#181818;stroke-width:1.0;"/><line style="stroke:#181818;stroke-width:1.0;" x1="270.5" x2="423.5" y1="598.2344" y2="598.2344"/><text fill="#000000" font-family="sans-serif" font-size="13" lengthAdjust="spacing" textLength="90" x="277.5" y="593.3779">update(id, data)</text><polygon fill="#181818" points="566.5,624.5859,576.5,628.5859,566.5,632.5859,570.5,628.5859" style="stroke:#181818;stroke-width:1.0;"/><line style="stroke:#181818;stroke-width:1.0;" x1="429.5" x2="572.5" y1="628.5859" y2="628.5859"/><text fill="#000000" font-family="sans-serif" font-size="13" lengthAdjust="spacing" textLength="125" x="436.5" y="623.7295">updateGrado(id, data)</text><polygon fill="#181818" points="778.5,654.9375,788.5,658.9375,778.5,662.9375,782.5,658.9375" style="stroke:#181818;stroke-width:1.0;"/><line style="stroke:#181818;stroke-width:1.0;" x1="578.5" x2="784.5" y1="658.9375" y2="658.9375"/><text fill="#000000" font-family="sans-serif" font-size="13" lengthAdjust="spacing" textLength="188" x="585.5" y="654.0811">PATCH /grados/:id (JSON Body)</text><polygon fill="#181818" points="927.5,685.2891,937.5,689.2891,927.5,693.2891,931.5,689.2891" style="stroke:#181818;stroke-width:1.0;"/><line style="stroke:#181818;stroke-width:1.0;" x1="790.5" x2="933.5" y1="689.2891" y2="689.2891"/><text fill="#000000" font-family="sans-serif" font-size="13" lengthAdjust="spacing" textLength="83" x="797.5" y="684.4326">update(id, dto)</text><polygon fill="#181818" points="1198.5,715.6406,1208.5,719.6406,1198.5,723.6406,1202.5,719.6406" style="stroke:#181818;stroke-width:1.0;"/><line style="stroke:#181818;stroke-width:1.0;" x1="939.5" x2="1204.5" y1="719.6406" y2="719.6406"/><text fill="#000000" font-family="sans-serif" font-size="13" lengthAdjust="spacing" textLength="243" x="946.5" y="714.7842">UPDATE "Grado" SET ... WHERE id = :id</text><polygon fill="#181818" points="950.5,745.9922,940.5,749.9922,950.5,753.9922,946.5,749.9922" style="stroke:#181818;stroke-width:1.0;"/><line style="stroke:#181818;stroke-width:1.0;stroke-dasharray:2.0,2.0;" x1="944.5" x2="1209.5" y1="749.9922" y2="749.9922"/><text fill="#000000" font-family="sans-serif" font-size="13" lengthAdjust="spacing" textLength="19" x="956.5" y="745.1357">OK</text><polygon fill="#181818" points="801.5,776.3438,791.5,780.3438,801.5,784.3438,797.5,780.3438" style="stroke:#181818;stroke-width:1.0;"/><line style="stroke:#181818;stroke-width:1.0;stroke-dasharray:2.0,2.0;" x1="795.5" x2="938.5" y1="780.3438" y2="780.3438"/><text fill="#000000" font-family="sans-serif" font-size="13" lengthAdjust="spacing" textLength="125" x="807.5" y="775.4873">Updated Grado Entity</text><polygon fill="#181818" points="589.5,806.6953,579.5,810.6953,589.5,814.6953,585.5,810.6953" style="stroke:#181818;stroke-width:1.0;"/><line style="stroke:#181818;stroke-width:1.0;stroke-dasharray:2.0,2.0;" x1="583.5" x2="789.5" y1="810.6953" y2="810.6953"/><text fill="#000000" font-family="sans-serif" font-size="13" lengthAdjust="spacing" textLength="96" x="595.5" y="805.8389">JSON Response</text><polygon fill="#181818" points="440.5,837.0469,430.5,841.0469,440.5,845.0469,436.5,841.0469" style="stroke:#181818;stroke-width:1.0;"/><line style="stroke:#181818;stroke-width:1.0;stroke-dasharray:2.0,2.0;" x1="434.5" x2="577.5" y1="841.0469" y2="841.0469"/><text fill="#000000" font-family="sans-serif" font-size="13" lengthAdjust="spacing" textLength="51" x="446.5" y="836.1904">Success</text><polygon fill="#181818" points="281.5,867.3984,271.5,871.3984,281.5,875.3984,277.5,871.3984" style="stroke:#181818;stroke-width:1.0;"/><line style="stroke:#181818;stroke-width:1.0;stroke-dasharray:2.0,2.0;" x1="275.5" x2="428.5" y1="871.3984" y2="871.3984"/><text fill="#000000" font-family="sans-serif" font-size="13" lengthAdjust="spacing" textLength="135" x="287.5" y="866.542">Redirigir / Mostrar &#233;xito</text><polygon fill="#181818" points="62.5,897.75,52.5,901.75,62.5,905.75,58.5,901.75" style="stroke:#181818;stroke-width:1.0;"/><line style="stroke:#181818;stroke-width:1.0;stroke-dasharray:2.0,2.0;" x1="56.5" x2="269.5" y1="901.75" y2="901.75"/><text fill="#000000" font-family="sans-serif" font-size="13" lengthAdjust="spacing" textLength="195" x="68.5" y="896.8936">Muestra confirmaci&#243;n de cambios</text><!--SRC=[hLJ1Sjem4BtxAtPyWau3ToOmWuq9IPD0RMWllGXBk5kCn4YY2P_KSpyXFzQL3CHkeBdqP5dxtjFwlPND6kMMQRO1yvrnzOIoW1KhZGW2bbkbOSWtAD5OJLKT4DHYZbicBOGtRY_XQB-WUFecMwaWIZi4Pc1n2zVNiTfibHJI3WPDuiu8pnqhlI7UHAbrHNCh8hh7tnnFC9dGFp4NH1e-ep8LQtpO9UPXTPuSAscrAakXYVyeZBtBAe7NWk_w-F9U2tM9w5mFd5csP4P0E5F65bfad-yzUXG5GRyFCTC50ovWnAmoqEy73RVXQk2CxC4mpmMX60WocsaeN3cW4W6yPJqe5UE-lnRoTk0tgNXofWU5iBuUxM-vnvngXAiPq8ERP0vTVuJfzf07jI91erV95Ke-bSAhHJMrKKJ5BBbFuZbyW74wVJXu5yBNIP8cW1pwuAG9UTNKz3Zd1wj9lkdGWn9fqUuRxJK_-IwRFa8g30qXpVEuBdTmhHAQBd-8t1vCEtgU2fAK35OqexkIQLG-CXht75z-oyjXFIYEAymPv8p6trn0nINcQn0ImiHd6ZRZt6rfTfop7y4DqTb4Aymnz2FmOgopuJoUr8E5bZSeKdpVlXnolHEhpWIzc8s6y-IKS4RJq-bqtazw-kaV2I_ygVp_9Ptjw0uPyoPaZXeBrD2bt5n66bv-FQEjRXV1ckbHkZlXNY1NSeLwmwfXeCj9QI_fZ_G7]--></g></svg>