<?xml version="1.0" encoding="us-ascii" standalone="no"?><svg xmlns="http://www.w3.org/2000/svg" xmlns:xlink="http://www.w3.org/1999/xlink" contentStyleType="text/css" height="438px" preserveAspectRatio="none" style="width:768px;height:438px;background:#FFFFFF;" version="1.1" viewBox="0 0 768 438" width="768px" zoomAndPan="magnify"><defs/><g><!--cluster crearProfesor--><g id="cluster_crearProfesor"><path d="M8.5,109 L117.5,109 A3.75,3.75 0 0 1 120,111.5 L127,132.6094 L474.5,132.6094 A2.5,2.5 0 0 1 477,135.1094 L477,428.5 A2.5,2.5 0 0 1 474.5,431 L8.5,431 A2.5,2.5 0 0 1 6,428.5 L6,111.5 A2.5,2.5 0 0 1 8.5,109 " fill="none" style="stroke:#000000;stroke-width:1.5;"/><line style="stroke:#000000;stroke-width:1.5;" x1="6" x2="127" y1="132.6094" y2="132.6094"/><text fill="#000000" font-family="sans-serif" font-size="14" font-weight="bold" lengthAdjust="spacing" textLength="108" x="10" y="125.5332">crearProfesor()</text></g><!--entity CrearProfesorView--><g id="elem_CrearProfesorView"><rect fill="#629EF9" height="37.6094" rx="2.5" ry="2.5" style="stroke:#181818;stroke-width:0.5;" width="139" x="199.5" y="145"/><text fill="#000000" font-family="sans-serif" font-size="14" lengthAdjust="spacing" textLength="119" x="209.5" y="169.5332">CrearProfesorView</text></g><!--entity ProfesorController--><g id="elem_ProfesorController"><rect fill="#B5BD68" height="37.6094" rx="2.5" ry="2.5" style="stroke:#181818;stroke-width:0.5;" width="136" x="140" y="261"/><text fill="#000000" font-family="sans-serif" font-size="14" lengthAdjust="spacing" textLength="116" x="150" y="285.5332">ProfesorController</text></g><!--entity ProfesorRepository--><g id="elem_ProfesorRepository"><rect fill="#F2AC4E" height="37.6094" rx="2.5" ry="2.5" style="stroke:#181818;stroke-width:0.5;" width="142" x="109" y="377"/><text fill="#000000" font-family="sans-serif" font-size="14" lengthAdjust="spacing" textLength="122" x="119" y="401.5332">ProfesorRepository</text></g><!--entity Profesor--><g id="elem_Profesor"><rect fill="#F2AC4E" height="37.6094" rx="2.5" ry="2.5" style="stroke:#181818;stroke-width:0.5;" width="74" x="372" y="377"/><text fill="#000000" font-family="sans-serif" font-size="14" lengthAdjust="spacing" textLength="54" x="382" y="401.5332">Profesor</text></g><!--entity ProfesoresAbierto--><g id="elem_ProfesoresAbierto"><rect fill="#CDEBA5" height="37.6094" rx="2.5" ry="2.5" style="stroke:#181818;stroke-width:0.5;" width="142" x="198" y="7"/><text fill="#000000" font-family="sans-serif" font-size="14" lengthAdjust="spacing" textLength="122" x="208" y="31.5332">:Profesores Abierto</text></g><!--entity ProfesorAbierto--><g id="elem_ProfesorAbierto"><rect fill="#CDEBA5" height="37.6094" rx="2.5" ry="2.5" style="stroke:#181818;stroke-width:0.5;" width="127" x="493.5" y="261"/><text fill="#000000" font-family="sans-serif" font-size="14" lengthAdjust="spacing" textLength="107" x="503.5" y="285.5332">:Profesor Abierto</text></g><!--link ProfesoresAbierto to CrearProfesorView--><g id="link_ProfesoresAbierto_CrearProfesorView"><path d="M244.05,45.15 C225.36,58.74 203,75 203,75 C203,75 203,93 203,93 C203,93 228.3345,119.864 247.8845,140.604 " fill="none" id="ProfesoresAbierto-to-CrearProfesorView" style="stroke:#181818;stroke-width:1.0;"/><polygon fill="#181818" points="252,144.97,248.7374,135.6772,248.5704,141.3316,242.916,141.1646,252,144.97" style="stroke:#181818;stroke-width:1.0;"/><text fill="#000000" font-family="sans-serif" font-size="13" lengthAdjust="spacing" textLength="85" x="204" y="89.4951">crearProfesor()</text></g><!--link CrearProfesorView to ProfesoresAbierto--><g id="link_CrearProfesorView_ProfesoresAbierto"><path d="M275.44,144.97 C282.85,124.23 294,93 294,93 C294,93 294,75 294,75 C294,75 288.3022,64.0612 281.2222,50.4712 " fill="none" id="CrearProfesorView-to-ProfesoresAbierto" style="stroke:#181818;stroke-width:1.0;stroke-dasharray:7.0,7.0;"/><polygon fill="#181818" points="278.45,45.15,279.0608,54.9799,280.7602,49.5843,286.1557,51.2837,278.45,45.15" style="stroke:#181818;stroke-width:1.0;"/><text fill="#000000" font-family="sans-serif" font-size="13" lengthAdjust="spacing" textLength="63" x="295" y="89.4951">&#171;cancelar&#187;</text></g><!--link CrearProfesorView to ProfesorController--><g id="link_CrearProfesorView_ProfesorController"><path d="M242.91,183.15 C223.37,196.74 200,213 200,213 C200,213 200,231 200,231 C200,231 201.7215,241.342 203.9915,254.932 " fill="none" id="CrearProfesorView-to-ProfesorController" style="stroke:#181818;stroke-width:1.0;"/><polygon fill="#181818" points="204.98,260.85,207.4426,251.314,204.1562,255.9183,199.5519,252.632,204.98,260.85" style="stroke:#181818;stroke-width:1.0;"/><text fill="#000000" font-family="sans-serif" font-size="13" lengthAdjust="spacing" textLength="312" x="201" y="227.4951">crear(codigo, nombre, email, departamento) : Profesor</text></g><!--link ProfesorController to ProfesorRepository--><g id="link_ProfesorController_ProfesorRepository"><path d="M150.22,299.01 C106.52,312.63 54,329 54,329 C54,329 54,347 54,347 C54,347 91.3631,361.2339 127.1131,374.8539 " fill="none" id="ProfesorController-to-ProfesorRepository" style="stroke:#181818;stroke-width:1.0;"/><polygon fill="#181818" points="132.72,376.99,125.7338,370.0479,128.0476,375.2099,122.8856,377.5238,132.72,376.99" style="stroke:#181818;stroke-width:1.0;"/><text fill="#000000" font-family="sans-serif" font-size="13" lengthAdjust="spacing" textLength="171" x="55" y="343.4951">existeCorreo(email) : Boolean</text></g><!--link ProfesorController to ProfesorRepository--><g id="link_ProfesorController_ProfesorRepository"><path d="M216.7,299.15 C223.21,312.74 231,329 231,329 C231,329 231,347 231,347 C231,347 218.0893,359.1479 203.6493,372.7379 " fill="none" id="ProfesorController-to-ProfesorRepository-1" style="stroke:#181818;stroke-width:1.0;"/><polygon fill="#181818" points="199.28,376.85,208.5753,373.5947,202.9211,373.4233,203.0925,367.769,199.28,376.85" style="stroke:#181818;stroke-width:1.0;"/><text fill="#000000" font-family="sans-serif" font-size="13" lengthAdjust="spacing" textLength="97" x="232" y="343.4951">guardar(profesor)</text></g><!--link ProfesorController to Profesor--><g id="link_ProfesorController_Profesor"><path d="M256.78,299.01 C293.67,312.63 338,329 338,329 C338,329 364.1865,353.3338 385.2065,372.8838 " fill="none" id="ProfesorController-to-Profesor" style="stroke:#181818;stroke-width:1.0;"/><polygon fill="#181818" points="389.6,376.97,385.7339,367.9117,385.9388,373.5648,380.2856,373.7696,389.6,376.97" style="stroke:#181818;stroke-width:1.0;"/><text fill="#000000" font-family="sans-serif" font-size="13" lengthAdjust="spacing" textLength="50" x="358" y="343.4951">&#171;create&#187;</text></g><!--link CrearProfesorView to ProfesorAbierto--><g id="link_CrearProfesorView_ProfesorAbierto"><path d="M338.69,178.43 C412.35,192.63 518,213 518,213 C518,213 531.75,236.253 543.29,255.803 " fill="none" id="CrearProfesorView-to-ProfesorAbierto" style="stroke:#181818;stroke-width:1.0;stroke-dasharray:7.0,7.0;"/><polygon fill="#181818" points="546.34,260.97,545.2097,251.1862,543.7984,256.6642,538.3204,255.2528,546.34,260.97" style="stroke:#181818;stroke-width:1.0;"/><text fill="#000000" font-family="sans-serif" font-size="13" lengthAdjust="spacing" textLength="231" x="529" y="227.4951">&#171;finalizar&#187; editarProfesor(profesorNuevo)</text></g><!--SRC=[bP51Ru9048Nl-oiczAA9UZ3LL6D8bEAnQNheVO2HR5nsoB2sjKt_Uy4eKY0rvSRiD-_jUrlijSrHC0EZBRbZJf2pELO_IWd53crg2Ew2nt2pde6tV1RUKS521QmZJUBO0opWEZvFbSentcDA40kXNCuhrlir6Gmz-58Aog_XDvykmkq2WYRvgkczpKMpA9a_rFO1MoTi34aRt4xNmNrOWo-KSw4To_46gBx_xg6tXRg3JYqm7llTLB24LYTATQ5gjHlqiZk8ET4fZy1o5WcDW3BKPWG9bU_hC2FhU5Z2TJ3LezMqk5PKRj67BXm5B48yE2bNMXjcGsXlAPNaQbLTqf7l_yisFQ0aPRRyVDZRosJYjvi_EUwqHQC_KNmVAD6kqUz5x-b0RpoyeNbzl5CEj36PIbJz0000]--></g></svg>