<?xml version="1.0" encoding="us-ascii" standalone="no"?><svg xmlns="http://www.w3.org/2000/svg" xmlns:xlink="http://www.w3.org/1999/xlink" contentStyleType="text/css" height="318px" preserveAspectRatio="none" style="width:934px;height:318px;background:#FFFFFF;" version="1.1" viewBox="0 0 934 318" width="934px" zoomAndPan="magnify"><defs/><g><!--cluster importarProfesores--><g id="cluster_importarProfesores"><path d="M8.5,6 L156.5,6 A3.75,3.75 0 0 1 159,8.5 L166,29.6094 L486.5,29.6094 A2.5,2.5 0 0 1 489,32.1094 L489,308.5 A2.5,2.5 0 0 1 486.5,311 L8.5,311 A2.5,2.5 0 0 1 6,308.5 L6,8.5 A2.5,2.5 0 0 1 8.5,6 " fill="none" style="stroke:#000000;stroke-width:1.5;"/><line style="stroke:#000000;stroke-width:1.5;" x1="6" x2="166" y1="29.6094" y2="29.6094"/><text fill="#000000" font-family="sans-serif" font-size="14" font-weight="bold" lengthAdjust="spacing" textLength="147" x="10" y="22.5332">importarProfesores()</text></g><!--entity ImportarProfesoresView--><g id="elem_ImportarProfesoresView"><rect fill="#629EF9" height="37.6094" rx="2.5" ry="2.5" style="stroke:#181818;stroke-width:0.5;" width="170" x="303" y="42"/><text fill="#000000" font-family="sans-serif" font-size="14" lengthAdjust="spacing" textLength="150" x="313" y="66.5332">ImportarProfesoresView</text></g><!--entity ProfesorController--><g id="elem_ProfesorController"><rect fill="#B5BD68" height="37.6094" rx="2.5" ry="2.5" style="stroke:#181818;stroke-width:0.5;" width="136" x="22" y="158"/><text fill="#000000" font-family="sans-serif" font-size="14" lengthAdjust="spacing" textLength="116" x="32" y="182.5332">ProfesorController</text></g><!--entity ProfesorRepository--><g id="elem_ProfesorRepository"><rect fill="#F2AC4E" height="37.6094" rx="2.5" ry="2.5" style="stroke:#181818;stroke-width:0.5;" width="142" x="331" y="158"/><text fill="#000000" font-family="sans-serif" font-size="14" lengthAdjust="spacing" textLength="122" x="341" y="182.5332">ProfesorRepository</text></g><!--entity Profesor--><g id="elem_Profesor"><rect fill="#F2AC4E" height="37.6094" rx="2.5" ry="2.5" style="stroke:#181818;stroke-width:0.5;" width="74" x="365" y="257"/><text fill="#000000" font-family="sans-serif" font-size="14" lengthAdjust="spacing" textLength="54" x="375" y="281.5332">Profesor</text></g><!--entity ProfesoresAbierto--><g id="elem_ProfesoresAbierto"><rect fill="#CDEBA5" height="37.6094" rx="2.5" ry="2.5" style="stroke:#181818;stroke-width:0.5;" width="142" x="566" y="158"/><text fill="#000000" font-family="sans-serif" font-size="14" lengthAdjust="spacing" textLength="122" x="576" y="182.5332">:Profesores Abierto</text></g><!--link ProfesoresAbierto to ImportarProfesoresView--><g id="link_ProfesoresAbierto_ImportarProfesoresView"><path d="M576.22,157.99 C530.25,144.37 475,128 475,128 C475,128 442.3094,103.2073 416.5494,83.6573 " fill="none" id="ProfesoresAbierto-to-ImportarProfesoresView" style="stroke:#181818;stroke-width:1.0;"/><polygon fill="#181818" points="411.77,80.03,416.521,88.6572,415.7529,83.0527,421.3573,82.2846,411.77,80.03" style="stroke:#181818;stroke-width:1.0;"/><text fill="#000000" font-family="sans-serif" font-size="13" lengthAdjust="spacing" textLength="117" x="476" y="124.4951">importarProfesores()</text></g><!--link ImportarProfesoresView to ProfesoresAbierto--><g id="link_ImportarProfesoresView_ProfesoresAbierto"><path d="M466.79,80.01 C526.38,93.63 598,110 598,110 C598,110 611.75,133.253 623.29,152.803 " fill="none" id="ImportarProfesoresView-to-ProfesoresAbierto" style="stroke:#181818;stroke-width:1.0;stroke-dasharray:7.0,7.0;"/><polygon fill="#181818" points="626.34,157.97,625.2097,148.1862,623.7984,153.6642,618.3204,152.2528,626.34,157.97" style="stroke:#181818;stroke-width:1.0;"/><text fill="#000000" font-family="sans-serif" font-size="13" lengthAdjust="spacing" textLength="183" x="609" y="124.4951">mostrarResultado(importResult)</text></g><!--link ImportarProfesoresView to ProfesoresAbierto--><g id="link_ImportarProfesoresView_ProfesoresAbierto"><path d="M473.07,71.89 C593.97,85.94 801,110 801,110 C801,110 801,128 801,128 C801,128 750.8285,142.6848 704.2885,156.3048 " fill="none" id="ImportarProfesoresView-to-ProfesoresAbierto-1" style="stroke:#181818;stroke-width:1.0;stroke-dasharray:7.0,7.0;"/><polygon fill="#181818" points="698.53,157.99,708.2912,159.3011,703.3287,156.5856,706.0442,151.6232,698.53,157.99" style="stroke:#181818;stroke-width:1.0;"/><text fill="#000000" font-family="sans-serif" font-size="13" lengthAdjust="spacing" textLength="124" x="802" y="124.4951">cancelarImportacion()</text></g><!--link ImportarProfesoresView to ProfesorController--><g id="link_ImportarProfesoresView_ProfesorController"><path d="M302.85,74.24 C203.9,88.46 54,110 54,110 C54,110 54,128 54,128 C54,128 62.6006,139.4596 72.7906,153.0496 " fill="none" id="ImportarProfesoresView-to-ProfesorController" style="stroke:#181818;stroke-width:1.0;"/><polygon fill="#181818" points="76.39,157.85,74.1911,148.2497,73.3905,153.8496,67.7906,153.049,76.39,157.85" style="stroke:#181818;stroke-width:1.0;"/><text fill="#000000" font-family="sans-serif" font-size="13" lengthAdjust="spacing" textLength="180" x="55" y="124.4951">importar(archivo) : ImportResult</text></g><!--link ImportarProfesoresView to ProfesorController--><g id="link_ImportarProfesoresView_ProfesorController"><path d="M347.56,80.03 C303.74,99.58 240,128 240,128 C240,128 194.5545,142.5412 151.9945,156.1612 " fill="none" id="ImportarProfesoresView-to-ProfesorController-1" style="stroke:#181818;stroke-width:1.0;"/><polygon fill="#181818" points="146.28,157.99,156.0709,159.0565,151.0421,156.466,153.6326,151.4372,146.28,157.99" style="stroke:#181818;stroke-width:1.0;"/><text fill="#000000" font-family="sans-serif" font-size="13" lengthAdjust="spacing" textLength="157" x="281" y="124.4951">obtenerFormatoRequerido()</text></g><!--link ProfesorController to ProfesorRepository--><g id="link_ProfesorController_ProfesorRepository"><path d="M158.08,177 C209.19,177 272.97,177 324.81,177 " fill="none" id="ProfesorController-to-ProfesorRepository" style="stroke:#181818;stroke-width:1.0;"/><polygon fill="#181818" points="330.81,177,321.81,173,325.81,177,321.81,181,330.81,177" style="stroke:#181818;stroke-width:1.0;"/><text fill="#000000" font-family="sans-serif" font-size="13" lengthAdjust="spacing" textLength="136" x="176.5" y="170.4951">guardarLote(profesores)</text></g><!--link ProfesorRepository to Profesor--><g id="link_ProfesorRepository_Profesor"><path d="M402,196.24 C402,213.59 402,239.52 402,256.84 " fill="none" id="ProfesorRepository-Profesor" style="stroke:#181818;stroke-width:1.0;"/></g><!--SRC=[bP91Qm8n48Nl-HN3zk8UreDKgHu4QtUXq4FnqFlixjG6ivbq4bkazBytegYOYfXRXc_Ul3UCNsdhKB03eos5ZIDmR3RRZr92JK2xD0HtywVoSJQ4RF8g_4wUXJpCQaqIE0FqS2plgyfXiy8bWUuSIq0vQOnybfPxUGO_2k8xcJiQZCjg3Cy9_QRf-nokXtKxUZXucRCDmiQGd8FLO3Q_Bm_WWXnx7LWsLq3rgrII50effXSSmWJ-2whK1RneerJg_wZIGsa-z1VdKNcdiI2_Dk5cGQu3MPAAfSF02_fSa-YMjzvIV1SnNTS4bckK5kM50_NSONIkKXQAuhZ7ItRx_MbwIZ5gnpu8oYuhHflw97j-grg3jY63iczhDDkO-my0]--></g></svg>