<?xml version="1.0" encoding="us-ascii" standalone="no"?><svg xmlns="http://www.w3.org/2000/svg" xmlns:xlink="http://www.w3.org/1999/xlink" contentStyleType="text/css" height="335px" preserveAspectRatio="none" style="width:2329px;height:335px;background:#FFFFFF;" version="1.1" viewBox="0 0 2329 335" width="2329px" zoomAndPan="magnify"><defs/><g><!--cluster completarGestion--><g id="cluster_completarGestion"><path d="M169.5,6 L305.5,6 A3.75,3.75 0 0 1 308,8.5 L315,29.6094 L931.5,29.6094 A2.5,2.5 0 0 1 934,32.1094 L934,325.5 A2.5,2.5 0 0 1 931.5,328 L169.5,328 A2.5,2.5 0 0 1 167,325.5 L167,8.5 A2.5,2.5 0 0 1 169.5,6 " fill="none" style="stroke:#000000;stroke-width:1.5;"/><line style="stroke:#000000;stroke-width:1.5;" x1="167" x2="315" y1="29.6094" y2="29.6094"/><text fill="#000000" font-family="sans-serif" font-size="14" font-weight="bold" lengthAdjust="spacing" textLength="135" x="171" y="22.5332">completarGestion()</text></g><!--entity GestionView--><g id="elem_GestionView"><rect fill="#629EF9" height="37.6094" rx="2.5" ry="2.5" style="stroke:#181818;stroke-width:0.5;" width="98" x="820" y="42"/><text fill="#000000" font-family="sans-serif" font-size="14" lengthAdjust="spacing" textLength="78" x="830" y="66.5332">GestionView</text></g><!--entity CompletarGestionController--><g id="elem_CompletarGestionController"><rect fill="#B5BD68" height="37.6094" rx="2.5" ry="2.5" style="stroke:#181818;stroke-width:0.5;" width="196" x="478" y="158"/><text fill="#000000" font-family="sans-serif" font-size="14" lengthAdjust="spacing" textLength="176" x="488" y="182.5332">CompletarGestionController</text></g><!--entity PermisosRepository--><g id="elem_PermisosRepository"><rect fill="#F2AC4E" height="37.6094" rx="2.5" ry="2.5" style="stroke:#181818;stroke-width:0.5;" width="146" x="437" y="274"/><text fill="#000000" font-family="sans-serif" font-size="14" lengthAdjust="spacing" textLength="126" x="447" y="298.5332">PermisosRepository</text></g><!--entity OpcionesMenu--><g id="elem_OpcionesMenu"><rect fill="#F2AC4E" height="37.6094" rx="2.5" ry="2.5" style="stroke:#181818;stroke-width:0.5;" width="115" x="183.5" y="274"/><text fill="#000000" font-family="sans-serif" font-size="14" lengthAdjust="spacing" textLength="95" x="193.5" y="298.5332">OpcionesMenu</text></g><!--entity Sesion--><g id="elem_Sesion"><rect fill="#F2AC4E" height="37.6094" rx="2.5" ry="2.5" style="stroke:#181818;stroke-width:0.5;" width="63" x="758.5" y="274"/><text fill="#000000" font-family="sans-serif" font-size="14" lengthAdjust="spacing" textLength="43" x="768.5" y="298.5332">Sesion</text></g><!--entity SistemaDisponible--><g id="elem_SistemaDisponible"><rect fill="#CDEBA5" height="37.6094" rx="2.5" ry="2.5" style="stroke:#181818;stroke-width:0.5;" width="144" x="7" y="42"/><text fill="#000000" font-family="sans-serif" font-size="14" lengthAdjust="spacing" textLength="124" x="17" y="66.5332">:Sistema Disponible</text></g><!--entity AbrirGrados--><g id="elem_AbrirGrados"><rect fill="#CDEBA5" height="37.6094" rx="2.5" ry="2.5" style="stroke:#181818;stroke-width:0.5;" width="189" x="950.5" y="158"/><text fill="#000000" font-family="sans-serif" font-size="14" lengthAdjust="spacing" textLength="169" x="960.5" y="182.5332">:Collaboration AbrirGrados</text></g><!--entity AbrirAsignaturas--><g id="elem_AbrirAsignaturas"><rect fill="#CDEBA5" height="37.6094" rx="2.5" ry="2.5" style="stroke:#181818;stroke-width:0.5;" width="217" x="1174.5" y="158"/><text fill="#000000" font-family="sans-serif" font-size="14" lengthAdjust="spacing" textLength="197" x="1184.5" y="182.5332">:Collaboration AbrirAsignaturas</text></g><!--entity AbrirProfesores--><g id="elem_AbrirProfesores"><rect fill="#CDEBA5" height="37.6094" rx="2.5" ry="2.5" style="stroke:#181818;stroke-width:0.5;" width="211" x="1426.5" y="158"/><text fill="#000000" font-family="sans-serif" font-size="14" lengthAdjust="spacing" textLength="191" x="1436.5" y="182.5332">:Collaboration AbrirProfesores</text></g><!--entity AbrirAulas--><g id="elem_AbrirAulas"><rect fill="#CDEBA5" height="37.6094" rx="2.5" ry="2.5" style="stroke:#181818;stroke-width:0.5;" width="177" x="1672.5" y="158"/><text fill="#000000" font-family="sans-serif" font-size="14" lengthAdjust="spacing" textLength="157" x="1682.5" y="182.5332">:Collaboration AbrirAulas</text></g><!--entity AbrirExamenes--><g id="elem_AbrirExamenes"><rect fill="#CDEBA5" height="37.6094" rx="2.5" ry="2.5" style="stroke:#181818;stroke-width:0.5;" width="207" x="1884.5" y="158"/><text fill="#000000" font-family="sans-serif" font-size="14" lengthAdjust="spacing" textLength="187" x="1894.5" y="182.5332">:Collaboration AbrirExamenes</text></g><!--entity AbrirAlumnos--><g id="elem_AbrirAlumnos"><rect fill="#CDEBA5" height="37.6094" rx="2.5" ry="2.5" style="stroke:#181818;stroke-width:0.5;" width="196" x="2127" y="158"/><text fill="#000000" font-family="sans-serif" font-size="14" lengthAdjust="spacing" textLength="176" x="2137" y="182.5332">:Collaboration AbrirAlumnos</text></g><!--link SistemaDisponible to GestionView--><g id="link_SistemaDisponible_GestionView"><path d="M151.2,61 C309.85,61 679.38,61 813.96,61 " fill="none" id="SistemaDisponible-to-GestionView" style="stroke:#181818;stroke-width:1.0;"/><polygon fill="#181818" points="819.96,61,810.96,57,814.96,61,810.96,65,819.96,61" style="stroke:#181818;stroke-width:1.0;"/><text fill="#000000" font-family="sans-serif" font-size="13" lengthAdjust="spacing" textLength="131" x="420" y="54.4951">disponibilizarSistema()</text></g><!--link GestionView to CompletarGestionController--><g id="link_GestionView_CompletarGestionController"><path d="M822.57,80.06 C767.87,101.35 683.1016,134.3243 628.2816,155.6543 " fill="none" id="GestionView-to-CompletarGestionController" style="stroke:#181818;stroke-width:1.0;"/><polygon fill="#181818" points="622.69,157.83,632.5279,158.2943,627.3497,156.0169,629.627,150.8387,622.69,157.83" style="stroke:#181818;stroke-width:1.0;"/><text fill="#000000" font-family="sans-serif" font-size="13" lengthAdjust="spacing" textLength="186" x="741" y="124.4951">habilitarOpciones(administrador)</text></g><!--link CompletarGestionController to Sesion--><g id="link_CompletarGestionController_Sesion"><path d="M641.66,196.01 C691.32,209.63 751,226 751,226 C751,226 764.75,249.253 776.29,268.803 " fill="none" id="CompletarGestionController-to-Sesion" style="stroke:#181818;stroke-width:1.0;"/><polygon fill="#181818" points="779.34,273.97,778.2097,264.1862,776.7984,269.6642,771.3204,268.2528,779.34,273.97" style="stroke:#181818;stroke-width:1.0;"/><text fill="#000000" font-family="sans-serif" font-size="13" lengthAdjust="spacing" textLength="126" x="762" y="240.4951">getUsuario() : Usuario</text></g><!--link CompletarGestionController to PermisosRepository--><g id="link_CompletarGestionController_PermisosRepository"><path d="M549.91,196.15 C530.37,209.74 507,226 507,226 C507,226 507,244 507,244 C507,244 507.6455,254.2717 508.4955,267.8617 " fill="none" id="CompletarGestionController-to-PermisosRepository" style="stroke:#181818;stroke-width:1.0;"/><polygon fill="#181818" points="508.87,273.85,512.3004,264.6179,508.5579,268.8598,504.316,265.1172,508.87,273.85" style="stroke:#181818;stroke-width:1.0;"/><text fill="#000000" font-family="sans-serif" font-size="13" lengthAdjust="spacing" textLength="238" x="508" y="240.4951">obtenerOpciones(usuario) : List&lt;Opcion&gt;</text></g><!--link CompletarGestionController to OpcionesMenu--><g id="link_CompletarGestionController_OpcionesMenu"><path d="M477.64,192.66 C382.95,206.78 254,226 254,226 C254,226 249.5593,248.5331 245.7093,268.0831 " fill="none" id="CompletarGestionController-to-OpcionesMenu" style="stroke:#181818;stroke-width:1.0;"/><polygon fill="#181818" points="244.55,273.97,250.2136,265.9125,245.5161,269.0642,242.3644,264.3667,244.55,273.97" style="stroke:#181818;stroke-width:1.0;"/><text fill="#000000" font-family="sans-serif" font-size="13" lengthAdjust="spacing" textLength="243" x="255" y="240.4951">crearOpciones(opciones) : OpcionesMenu</text></g><!--link GestionView to OpcionesMenu--><g id="link_GestionView_OpcionesMenu"><path d="M819.96,70.1 C679.89,93.25 288,158 288,158 C288,158 242,226 242,226 C242,226 241.6621,248.4207 241.3621,267.9707 " fill="none" id="GestionView-to-OpcionesMenu" style="stroke:#181818;stroke-width:1.0;"/><polygon fill="#181818" points="241.27,273.97,245.4076,265.0324,241.3467,268.9706,237.4086,264.9097,241.27,273.97" style="stroke:#181818;stroke-width:1.0;"/><text fill="#000000" font-family="sans-serif" font-size="13" lengthAdjust="spacing" textLength="171" x="289" y="182.4951">getOpciones() : List&lt;Opcion&gt;</text></g><!--link GestionView to AbrirGrados--><g id="link_GestionView_AbrirGrados"><path d="M896.89,80.06 C929.75,101.35 978.9841,133.2381 1011.9141,154.5681 " fill="none" id="GestionView-to-AbrirGrados" style="stroke:#181818;stroke-width:1.0;stroke-dasharray:7.0,7.0;"/><polygon fill="#181818" points="1016.95,157.83,1011.5708,149.5799,1012.7534,155.1117,1007.2216,156.2944,1016.95,157.83" style="stroke:#181818;stroke-width:1.0;"/><text fill="#000000" font-family="sans-serif" font-size="13" lengthAdjust="spacing" textLength="75" x="968" y="124.4951">abrirGrados()</text></g><!--link GestionView to AbrirAsignaturas--><g id="link_GestionView_AbrirAsignaturas"><path d="M918.04,74.86 C972.25,89.08 1052,110 1052,110 C1052,110 1145.711,136.7711 1214.111,156.3211 " fill="none" id="GestionView-to-AbrirAsignaturas" style="stroke:#181818;stroke-width:1.0;stroke-dasharray:7.0,7.0;"/><polygon fill="#181818" points="1219.88,157.97,1212.3258,151.6507,1215.0725,156.5959,1210.1273,159.3427,1219.88,157.97" style="stroke:#181818;stroke-width:1.0;"/><text fill="#000000" font-family="sans-serif" font-size="13" lengthAdjust="spacing" textLength="102" x="1114" y="124.4951">abrirAsignaturas()</text></g><!--link GestionView to AbrirProfesores--><g id="link_GestionView_AbrirProfesores"><path d="M918.13,68.62 C1015.79,81.79 1225,110 1225,110 C1225,110 1351.3441,137.1584 1442.2441,156.7084 " fill="none" id="GestionView-to-AbrirProfesores" style="stroke:#181818;stroke-width:1.0;stroke-dasharray:7.0,7.0;"/><polygon fill="#181818" points="1448.11,157.97,1440.1523,152.167,1443.2218,156.9187,1438.4701,159.9882,1448.11,157.97" style="stroke:#181818;stroke-width:1.0;"/><text fill="#000000" font-family="sans-serif" font-size="13" lengthAdjust="spacing" textLength="95" x="1308" y="124.4951">abrirProfesores()</text></g><!--link GestionView to AbrirAulas--><g id="link_GestionView_AbrirAulas"><path d="M918.15,66.34 C1051.81,78.16 1412,110 1412,110 C1412,110 1563.1945,138.5952 1666.5845,158.1452 " fill="none" id="GestionView-to-AbrirAulas" style="stroke:#181818;stroke-width:1.0;stroke-dasharray:7.0,7.0;"/><polygon fill="#181818" points="1672.48,159.26,1664.3799,153.6575,1667.5671,158.331,1662.8935,161.5182,1672.48,159.26" style="stroke:#181818;stroke-width:1.0;"/><text fill="#000000" font-family="sans-serif" font-size="13" lengthAdjust="spacing" textLength="66" x="1506" y="124.4951">abrirAulas()</text></g><!--link GestionView to AbrirExamenes--><g id="link_GestionView_AbrirExamenes"><path d="M918.22,65.32 C1079.38,76.18 1581,110 1581,110 C1581,110 1757.7373,138.6597 1878.3173,158.2097 " fill="none" id="GestionView-to-AbrirExamenes" style="stroke:#181818;stroke-width:1.0;stroke-dasharray:7.0,7.0;"/><polygon fill="#181818" points="1884.24,159.17,1875.9962,153.7812,1879.3044,158.3698,1874.7158,161.6781,1884.24,159.17" style="stroke:#181818;stroke-width:1.0;"/><text fill="#000000" font-family="sans-serif" font-size="13" lengthAdjust="spacing" textLength="95" x="1691" y="124.4951">abrirExamenes()</text></g><!--link GestionView to AbrirAlumnos--><g id="link_GestionView_AbrirAlumnos"><path d="M918.13,64.55 C1109.57,74.47 1795,110 1795,110 C1795,110 2109,158 2109,158 C2109,158 2110.2105,158.1927 2120.9405,159.8527 " fill="none" id="GestionView-to-AbrirAlumnos" style="stroke:#181818;stroke-width:1.0;stroke-dasharray:7.0,7.0;"/><polygon fill="#181818" points="2126.87,160.77,2118.5874,155.441,2121.9288,160.0056,2117.3643,163.347,2126.87,160.77" style="stroke:#181818;stroke-width:1.0;"/><text fill="#000000" font-family="sans-serif" font-size="13" lengthAdjust="spacing" textLength="84" x="1906" y="124.4951">abrirAlumnos()</text></g><!--SRC=[ZLF1Jjmm4BtxAqRBPVUm75114A6Lbh1mAIegQk-JPDXQE7OqTbIsgFzUcpYDTvU8vEHvVk_Ds7csBr8to5Y3afhShY5eZDg5GWYcqg7UAeAJ_7Ppipw7MVOahQCQuLRQncXPA9e1MeZmW0hHOFc2MuBIr8qYXtnFracZ0trs2CuNCtWJuB-awSNPrURk2YBbfwJVXupYlAWkBY4_SCkDTcoK8ZuKt9sjyoyRU2IkfJNsEpN6IcTuDqByrfJUZ-m3wNQ4yaJMKyJVZ-yhzsDWOHZVZxukMF8zOsNi-xKbzLJrsigjHjSo9XO9EDNdaSqpMSEKs0pOv6bQjJT7AATgDwzOaqxxzyZaxggjTNgL4H3YA8-mvEKgZH9aKCLTgUGVv2YPBuH8QSlAwyO3bi4l30P-hy_A7AjQQkyM_Yjxkt4rBBrv5w0CjkH-s1PPcld2JnVNdwcFevo1APo_nc6WjhCAhb_zNDVTnkepwpJy6PHCoHbDN0JFlKUoVtb7BlwG_psEvjdJdfwkqlUH0Gw5_qaVKfDt4Fa9CYOQKXyr0p3Q9-Iyxn3MOyG-qP7RbwE-NNvxvwxov7y0]--></g></svg>