<?xml version="1.0" encoding="us-ascii" standalone="no"?><svg xmlns="http://www.w3.org/2000/svg" xmlns:xlink="http://www.w3.org/1999/xlink" contentStyleType="text/css" height="335px" preserveAspectRatio="none" style="width:1489px;height:335px;background:#FFFFFF;" version="1.1" viewBox="0 0 1489 335" width="1489px" zoomAndPan="magnify"><defs/><g><!--cluster abrirAulas--><g id="cluster_abrirAulas"><path d="M169.5,6 L251.5,6 A3.75,3.75 0 0 1 254,8.5 L261,29.6094 L613.5,29.6094 A2.5,2.5 0 0 1 616,32.1094 L616,325.5 A2.5,2.5 0 0 1 613.5,328 L169.5,328 A2.5,2.5 0 0 1 167,325.5 L167,8.5 A2.5,2.5 0 0 1 169.5,6 " fill="none" style="stroke:#000000;stroke-width:1.5;"/><line style="stroke:#000000;stroke-width:1.5;" x1="167" x2="261" y1="29.6094" y2="29.6094"/><text fill="#000000" font-family="sans-serif" font-size="14" font-weight="bold" lengthAdjust="spacing" textLength="81" x="171" y="22.5332">abrirAulas()</text></g><!--entity AbrirAulasView--><g id="elem_AbrirAulasView"><rect fill="#629EF9" height="37.6094" rx="2.5" ry="2.5" style="stroke:#181818;stroke-width:0.5;" width="114" x="442" y="42"/><text fill="#000000" font-family="sans-serif" font-size="14" lengthAdjust="spacing" textLength="94" x="452" y="66.5332">AbrirAulasView</text></g><!--entity AulasController--><g id="elem_AulasController"><rect fill="#B5BD68" height="37.6094" rx="2.5" ry="2.5" style="stroke:#181818;stroke-width:0.5;" width="117" x="183.5" y="158"/><text fill="#000000" font-family="sans-serif" font-size="14" lengthAdjust="spacing" textLength="97" x="193.5" y="182.5332">AulasController</text></g><!--entity AulaRepository--><g id="elem_AulaRepository"><rect fill="#F2AC4E" height="37.6094" rx="2.5" ry="2.5" style="stroke:#181818;stroke-width:0.5;" width="116" x="484" y="158"/><text fill="#000000" font-family="sans-serif" font-size="14" lengthAdjust="spacing" textLength="96" x="494" y="182.5332">AulaRepository</text></g><!--entity Aula--><g id="elem_Aula"><rect fill="#F2AC4E" height="37.6094" rx="2.5" ry="2.5" style="stroke:#181818;stroke-width:0.5;" width="48" x="518" y="274"/><text fill="#000000" font-family="sans-serif" font-size="14" lengthAdjust="spacing" textLength="28" x="528" y="298.5332">Aula</text></g><!--entity SistemaDisponible--><g id="elem_SistemaDisponible"><rect fill="#CDEBA5" height="37.6094" rx="2.5" ry="2.5" style="stroke:#181818;stroke-width:0.5;" width="144" x="7" y="42"/><text fill="#000000" font-family="sans-serif" font-size="14" lengthAdjust="spacing" textLength="124" x="17" y="66.5332">:Sistema Disponible</text></g><!--entity CrearAula--><g id="elem_CrearAula"><rect fill="#CDEBA5" height="37.6094" rx="2.5" ry="2.5" style="stroke:#181818;stroke-width:0.5;" width="176" x="635" y="158"/><text fill="#000000" font-family="sans-serif" font-size="14" lengthAdjust="spacing" textLength="156" x="645" y="182.5332">:Collaboration CrearAula</text></g><!--entity EditarAula--><g id="elem_EditarAula"><rect fill="#CDEBA5" height="37.6094" rx="2.5" ry="2.5" style="stroke:#181818;stroke-width:0.5;" width="177" x="846.5" y="158"/><text fill="#000000" font-family="sans-serif" font-size="14" lengthAdjust="spacing" textLength="157" x="856.5" y="182.5332">:Collaboration EditarAula</text></g><!--entity EliminarAula--><g id="elem_EliminarAula"><rect fill="#CDEBA5" height="37.6094" rx="2.5" ry="2.5" style="stroke:#181818;stroke-width:0.5;" width="190" x="1059" y="158"/><text fill="#000000" font-family="sans-serif" font-size="14" lengthAdjust="spacing" textLength="170" x="1069" y="182.5332">:Collaboration EliminarAula</text></g><!--entity ImportarAulas--><g id="elem_ImportarAulas"><rect fill="#CDEBA5" height="37.6094" rx="2.5" ry="2.5" style="stroke:#181818;stroke-width:0.5;" width="199" x="1284.5" y="158"/><text fill="#000000" font-family="sans-serif" font-size="14" lengthAdjust="spacing" textLength="179" x="1294.5" y="182.5332">:Collaboration ImportarAulas</text></g><!--link SistemaDisponible to AbrirAulasView--><g id="link_SistemaDisponible_AbrirAulasView"><path d="M151.26,69.27 C202.61,75.15 262.5,82 262.5,82 C262.5,82 330.5,82 330.5,82 C330.5,82 387.116,74.9418 435.996,68.8518 " fill="none" id="SistemaDisponible-to-AbrirAulasView" style="stroke:#181818;stroke-width:1.0;"/><polygon fill="#181818" points="441.95,68.11,432.5245,65.2534,436.9884,68.7282,433.5136,73.192,441.95,68.11" style="stroke:#181818;stroke-width:1.0;"/><text fill="#000000" font-family="sans-serif" font-size="13" lengthAdjust="spacing" textLength="66" x="263.5" y="78.4951">abrirAulas()</text></g><!--link AbrirAulasView to SistemaDisponible--><g id="link_AbrirAulasView_SistemaDisponible"><path d="M441.88,61 C366.43,61 239.52,61 157.2,61 " fill="none" id="AbrirAulasView-to-SistemaDisponible" style="stroke:#181818;stroke-width:1.0;"/><polygon fill="#181818" points="151.2,61,160.2,65,156.2,61,160.2,57,151.2,61" style="stroke:#181818;stroke-width:1.0;"/><text fill="#000000" font-family="sans-serif" font-size="13" lengthAdjust="spacing" textLength="110" x="241.5" y="54.4951">completarGestion()</text></g><!--link AbrirAulasView to AulasController--><g id="link_AbrirAulasView_AulasController"><path d="M441.96,79.33 C396.7,93.08 341,110 341,110 C341,110 303.3515,135.0906 274.0415,154.6406 " fill="none" id="AbrirAulasView-to-AulasController" style="stroke:#181818;stroke-width:1.0;"/><polygon fill="#181818" points="269.05,157.97,278.7569,156.3036,273.2096,155.1955,274.3177,149.6483,269.05,157.97" style="stroke:#181818;stroke-width:1.0;"/><text fill="#000000" font-family="sans-serif" font-size="13" lengthAdjust="spacing" textLength="69" x="342" y="124.4951">listarAulas()</text></g><!--link AbrirAulasView to AulasController--><g id="link_AbrirAulasView_AulasController"><path d="M476.32,80.03 C451.75,99.58 416,128 416,128 C416,128 357.1738,144.2239 306.6938,158.1539 " fill="none" id="AbrirAulasView-to-AulasController-1" style="stroke:#181818;stroke-width:1.0;"/><polygon fill="#181818" points="300.91,159.75,310.6498,161.2118,305.7299,158.42,308.5217,153.5,300.91,159.75" style="stroke:#181818;stroke-width:1.0;"/><text fill="#000000" font-family="sans-serif" font-size="13" lengthAdjust="spacing" textLength="108" x="439" y="124.4951">filtrarAulas(criterio)</text></g><!--link AulasController to AulaRepository--><g id="link_AulasController_AulaRepository"><path d="M300.72,188.61 C325.29,193.46 348.25,198 348.25,198 C348.25,198 436.25,198 436.25,198 C436.25,198 453.4049,194.5884 477.9849,189.7084 " fill="none" id="AulasController-to-AulaRepository" style="stroke:#181818;stroke-width:1.0;"/><polygon fill="#181818" points="483.87,188.54,474.2634,186.3692,478.9657,189.5137,475.8212,194.216,483.87,188.54" style="stroke:#181818;stroke-width:1.0;"/><text fill="#000000" font-family="sans-serif" font-size="13" lengthAdjust="spacing" textLength="86" x="349.25" y="194.4951">obtenerTodas()</text></g><!--link AulasController to AulaRepository--><g id="link_AulasController_AulaRepository"><path d="M300.56,177 C353.5,177 425.03,177 477.85,177 " fill="none" id="AulasController-to-AulaRepository-1" style="stroke:#181818;stroke-width:1.0;"/><polygon fill="#181818" points="483.85,177,474.85,173,478.85,177,474.85,181,483.85,177" style="stroke:#181818;stroke-width:1.0;"/><text fill="#000000" font-family="sans-serif" font-size="13" lengthAdjust="spacing" textLength="147" x="318.75" y="170.4951">buscarPorCriterio(criterio)</text></g><!--link AulaRepository to Aula--><g id="link_AulaRepository_Aula"><path d="M542,196.06 C542,217.28 542,246.3 542,267.64 " fill="none" id="AulaRepository-to-Aula" style="stroke:#181818;stroke-width:1.0;"/><polygon fill="#181818" points="542,273.64,546,264.64,542,268.64,538,264.64,542,273.64" style="stroke:#181818;stroke-width:1.0;"/><text fill="#000000" font-family="sans-serif" font-size="13" lengthAdjust="spacing" textLength="56" x="543" y="240.4951">&#171;accede&#187;</text></g><!--link AbrirAulasView to CrearAula--><g id="link_AbrirAulasView_CrearAula"><path d="M534.49,80.06 C576.31,101.35 640.0427,133.7785 681.9527,155.1085 " fill="none" id="AbrirAulasView-to-CrearAula" style="stroke:#181818;stroke-width:1.0;stroke-dasharray:7.0,7.0;"/><polygon fill="#181818" points="687.3,157.83,681.0934,150.1829,682.8439,155.5621,677.4647,157.3126,687.3,157.83" style="stroke:#181818;stroke-width:1.0;"/><text fill="#000000" font-family="sans-serif" font-size="13" lengthAdjust="spacing" textLength="63" x="625" y="124.4951">crearAula()</text></g><!--link AbrirAulasView to EditarAula--><g id="link_AbrirAulasView_EditarAula"><path d="M556,75.82 C614.5,90 697,110 697,110 C697,110 793.7184,136.816 864.1884,156.366 " fill="none" id="AbrirAulasView-to-EditarAula" style="stroke:#181818;stroke-width:1.0;stroke-dasharray:7.0,7.0;"/><polygon fill="#181818" points="869.97,157.97,862.3669,151.7096,865.152,156.6334,860.2282,159.4185,869.97,157.97" style="stroke:#181818;stroke-width:1.0;"/><text fill="#000000" font-family="sans-serif" font-size="13" lengthAdjust="spacing" textLength="92" x="761" y="124.4951">editarAula(Aula)</text></g><!--link AbrirAulasView to EliminarAula--><g id="link_AbrirAulasView_EliminarAula"><path d="M556.12,69.55 C658.34,83.07 862,110 862,110 C862,110 981.8977,137.0967 1068.3577,156.6467 " fill="none" id="AbrirAulasView-to-EliminarAula" style="stroke:#181818;stroke-width:1.0;stroke-dasharray:7.0,7.0;"/><polygon fill="#181818" points="1074.21,157.97,1066.3138,152.0836,1069.3331,156.8673,1064.5494,159.8866,1074.21,157.97" style="stroke:#181818;stroke-width:1.0;"/><text fill="#000000" font-family="sans-serif" font-size="13" lengthAdjust="spacing" textLength="105" x="941" y="124.4951">eliminarAula(Aula)</text></g><!--link AbrirAulasView to ImportarAulas--><g id="link_AbrirAulasView_ImportarAulas"><path d="M556.15,66.93 C698.03,79.18 1055,110 1055,110 C1055,110 1190.8073,137.2394 1288.2173,156.7894 " fill="none" id="AbrirAulasView-to-ImportarAulas" style="stroke:#181818;stroke-width:1.0;stroke-dasharray:7.0,7.0;"/><polygon fill="#181818" points="1294.1,157.97,1286.0631,152.2772,1289.1978,156.9861,1284.4889,160.1208,1294.1,157.97" style="stroke:#181818;stroke-width:1.0;"/><text fill="#000000" font-family="sans-serif" font-size="13" lengthAdjust="spacing" textLength="88" x="1144" y="124.4951">importarAulas()</text></g><!--SRC=[ZLB1QiCm3BtxAqHswGxjeQnb3IMGfUdORMnZToVHYgbZ1zbbbB5_dvErZPDq8y44ItxFJzQJsGjLSU8bIA7G7Yk4IijZ7J16c5kkTXBX9jca3_42Wl1L68ibXuqmbLOYanW0Dt1AjrbMyNpFTmWy8q7nGJgGMq4RJcu3-6BWFazdEL-bsnN45zIxmCy-A5janV8UclD4AqjQIgG-QZkFaxkqGRrWfOsmcex_WDZtzHSdxdQUQU9MQ0K98MygQvvzYKOmqq9OZzg6OxXIb4BvR2ynWlzKLffESgQve9DXRE0VJ6aQzNo047px6EiTJukQqdKbT8DbpZgECuho8QIbCoSdOP64hlMwm5ED7OD3q9b5XVIcYr_1CPpiO79EpvgIarXVjGMt9OUmNlCynmAZQDYBMcRGrH1oNLOINKCUqTJMN6dZR1QrW-KOv-smUpModQCGyBAVrB_hU6zo7CEB_kPqXYK4uOUkgXy0]--></g></svg>