<?xml version="1.0" encoding="us-ascii" standalone="no"?><svg xmlns="http://www.w3.org/2000/svg" xmlns:xlink="http://www.w3.org/1999/xlink" contentStyleType="text/css" height="451px" preserveAspectRatio="none" style="width:816px;height:451px;background:#FFFFFF;" version="1.1" viewBox="0 0 816 451" width="816px" zoomAndPan="magnify"><defs/><g><!--cluster eliminarProfesor--><g id="cluster_eliminarProfesor"><path d="M8.5,6 L136.5,6 A3.75,3.75 0 0 1 139,8.5 L146,29.6094 L417.5,29.6094 A2.5,2.5 0 0 1 420,32.1094 L420,441.5 A2.5,2.5 0 0 1 417.5,444 L8.5,444 A2.5,2.5 0 0 1 6,441.5 L6,8.5 A2.5,2.5 0 0 1 8.5,6 " fill="none" style="stroke:#000000;stroke-width:1.5;"/><line style="stroke:#000000;stroke-width:1.5;" x1="6" x2="146" y1="29.6094" y2="29.6094"/><text fill="#000000" font-family="sans-serif" font-size="14" font-weight="bold" lengthAdjust="spacing" textLength="127" x="10" y="22.5332">eliminarProfesor()</text></g><!--entity EliminarProfesorView--><g id="elem_EliminarProfesorView"><rect fill="#629EF9" height="37.6094" rx="2.5" ry="2.5" style="stroke:#181818;stroke-width:0.5;" width="153" x="250.5" y="42"/><text fill="#000000" font-family="sans-serif" font-size="14" lengthAdjust="spacing" textLength="133" x="260.5" y="66.5332">EliminarProfesorView</text></g><!--entity ProfesorController--><g id="elem_ProfesorController"><rect fill="#B5BD68" height="37.6094" rx="2.5" ry="2.5" style="stroke:#181818;stroke-width:0.5;" width="136" x="220" y="158"/><text fill="#000000" font-family="sans-serif" font-size="14" lengthAdjust="spacing" textLength="116" x="230" y="182.5332">ProfesorController</text></g><!--entity ProfesorRepository--><g id="elem_ProfesorRepository"><rect fill="#F2AC4E" height="37.6094" rx="2.5" ry="2.5" style="stroke:#181818;stroke-width:0.5;" width="142" x="217" y="274"/><text fill="#000000" font-family="sans-serif" font-size="14" lengthAdjust="spacing" textLength="122" x="227" y="298.5332">ProfesorRepository</text></g><!--entity Profesor--><g id="elem_Profesor"><rect fill="#F2AC4E" height="37.6094" rx="2.5" ry="2.5" style="stroke:#181818;stroke-width:0.5;" width="74" x="251" y="390"/><text fill="#000000" font-family="sans-serif" font-size="14" lengthAdjust="spacing" textLength="54" x="261" y="414.5332">Profesor</text></g><!--entity ProfesoresAbierto--><g id="elem_ProfesoresAbierto"><rect fill="#CDEBA5" height="37.6094" rx="2.5" ry="2.5" style="stroke:#181818;stroke-width:0.5;" width="142" x="572" y="158"/><text fill="#000000" font-family="sans-serif" font-size="14" lengthAdjust="spacing" textLength="122" x="582" y="182.5332">:Profesores Abierto</text></g><!--entity AsignaturaRepository--><g id="elem_AsignaturaRepository"><rect fill="#F2AC4E" height="37.6094" rx="2.5" ry="2.5" style="stroke:#181818;stroke-width:0.5;" width="156" x="436" y="274"/><text fill="#000000" font-family="sans-serif" font-size="14" lengthAdjust="spacing" textLength="136" x="446" y="298.5332">AsignaturaRepository</text></g><!--entity ExamenRepository--><g id="elem_ExamenRepository"><rect fill="#F2AC4E" height="37.6094" rx="2.5" ry="2.5" style="stroke:#181818;stroke-width:0.5;" width="138" x="641" y="274"/><text fill="#000000" font-family="sans-serif" font-size="14" lengthAdjust="spacing" textLength="118" x="651" y="298.5332">ExamenRepository</text></g><!--link ProfesoresAbierto to EliminarProfesorView--><g id="link_ProfesoresAbierto_EliminarProfesorView"><path d="M571.78,159.08 C513.63,145.26 441,128 441,128 C441,128 397.0919,102.5874 363.3419,83.0374 " fill="none" id="ProfesoresAbierto-to-EliminarProfesorView" style="stroke:#181818;stroke-width:1.0;"/><polygon fill="#181818" points="358.15,80.03,363.9328,88.0024,362.4765,82.5362,367.9427,81.0799,358.15,80.03" style="stroke:#181818;stroke-width:1.0;"/><text fill="#000000" font-family="sans-serif" font-size="13" lengthAdjust="spacing" textLength="157" x="442" y="124.4951">eliminarProfesor(profesorId)</text></g><!--link EliminarProfesorView to ProfesoresAbierto--><g id="link_EliminarProfesorView_ProfesoresAbierto"><path d="M403.79,75.31 C485.77,89.51 604,110 604,110 C604,110 617.75,133.253 629.29,152.803 " fill="none" id="EliminarProfesorView-to-ProfesoresAbierto" style="stroke:#181818;stroke-width:1.0;stroke-dasharray:7.0,7.0;"/><polygon fill="#181818" points="632.34,157.97,631.2097,148.1862,629.7984,153.6642,624.3204,152.2528,632.34,157.97" style="stroke:#181818;stroke-width:1.0;"/><text fill="#000000" font-family="sans-serif" font-size="13" lengthAdjust="spacing" textLength="58" x="615" y="124.4951">&#171;finalizar&#187;</text></g><!--link EliminarProfesorView to ProfesoresAbierto--><g id="link_EliminarProfesorView_ProfesoresAbierto"><path d="M403.59,72.36 C507.95,86.47 682,110 682,110 C682,110 682,128 682,128 C682,128 672.5752,139.6047 661.5252,153.1947 " fill="none" id="EliminarProfesorView-to-ProfesoresAbierto-1" style="stroke:#181818;stroke-width:1.0;stroke-dasharray:7.0,7.0;"/><polygon fill="#181818" points="657.74,157.85,666.5214,153.3905,660.8944,153.9706,660.3143,148.3435,657.74,157.85" style="stroke:#181818;stroke-width:1.0;"/><text fill="#000000" font-family="sans-serif" font-size="13" lengthAdjust="spacing" textLength="63" x="683" y="124.4951">&#171;cancelar&#187;</text></g><!--link EliminarProfesorView to ProfesorController--><g id="link_EliminarProfesorView_ProfesorController"><path d="M250.23,75.5 C169.48,89.7 54,110 54,110 C54,110 54,128 54,128 C54,128 144.7424,146.6142 213.8124,160.7842 " fill="none" id="EliminarProfesorView-to-ProfesorController" style="stroke:#181818;stroke-width:1.0;"/><polygon fill="#181818" points="219.69,161.99,211.6775,156.2629,214.792,160.9852,210.0697,164.0997,219.69,161.99" style="stroke:#181818;stroke-width:1.0;"/><text fill="#000000" font-family="sans-serif" font-size="13" lengthAdjust="spacing" textLength="184" x="55" y="124.4951">confirmarEliminacion(profesorId)</text></g><!--link ProfesorController to EliminarProfesorView--><g id="link_ProfesorController_EliminarProfesorView"><path d="M284.98,157.85 C282.71,144.26 280,128 280,128 C280,128 280,110 280,110 C280,110 291.7217,98.0266 305.0317,84.4366 " fill="none" id="ProfesorController-to-EliminarProfesorView" style="stroke:#181818;stroke-width:1.0;"/><polygon fill="#181818" points="309.23,80.15,300.0749,83.781,305.7315,83.7221,305.7903,89.3787,309.23,80.15" style="stroke:#181818;stroke-width:1.0;"/><text fill="#000000" font-family="sans-serif" font-size="13" lengthAdjust="spacing" textLength="119" x="281" y="124.4951">mostrarAdvertencia()</text></g><!--link ProfesorController to AsignaturaRepository--><g id="link_ProfesorController_AsignaturaRepository"><path d="M332.65,196.01 C366.42,209.63 407,226 407,226 C407,226 447.974,251.269 479.654,270.819 " fill="none" id="ProfesorController-to-AsignaturaRepository" style="stroke:#181818;stroke-width:1.0;"/><polygon fill="#181818" points="484.76,273.97,479.2016,265.8395,480.505,271.3442,475.0003,272.6476,484.76,273.97" style="stroke:#181818;stroke-width:1.0;"/><text fill="#000000" font-family="sans-serif" font-size="13" lengthAdjust="spacing" textLength="168" x="437" y="240.4951">contarPorProfesor(profesorId)</text></g><!--link ProfesorController to ExamenRepository--><g id="link_ProfesorController_ExamenRepository"><path d="M356.34,188.06 C451.93,202.14 614,226 614,226 C614,226 650.3961,251.0203 678.8261,270.5703 " fill="none" id="ProfesorController-to-ExamenRepository" style="stroke:#181818;stroke-width:1.0;"/><polygon fill="#181818" points="683.77,273.97,678.6206,265.5745,679.6501,271.1369,674.0877,272.1664,683.77,273.97" style="stroke:#181818;stroke-width:1.0;"/><text fill="#000000" font-family="sans-serif" font-size="13" lengthAdjust="spacing" textLength="168" x="640" y="240.4951">contarPorProfesor(profesorId)</text></g><!--link ProfesorController to ProfesorRepository--><g id="link_ProfesorController_ProfesorRepository"><path d="M288,196.06 C288,217.28 288,246.3 288,267.64 " fill="none" id="ProfesorController-to-ProfesorRepository" style="stroke:#181818;stroke-width:1.0;"/><polygon fill="#181818" points="288,273.64,292,264.64,288,268.64,284,264.64,288,273.64" style="stroke:#181818;stroke-width:1.0;"/><text fill="#000000" font-family="sans-serif" font-size="13" lengthAdjust="spacing" textLength="109" x="289" y="240.4951">eliminar(profesorId)</text></g><!--link ProfesorRepository to Profesor--><g id="link_ProfesorRepository_Profesor"><path d="M288,312.06 C288,333.28 288,362.3 288,383.64 " fill="none" id="ProfesorRepository-to-Profesor" style="stroke:#181818;stroke-width:1.0;"/><polygon fill="#181818" points="288,389.64,292,380.64,288,384.64,284,380.64,288,389.64" style="stroke:#181818;stroke-width:1.0;"/><text fill="#000000" font-family="sans-serif" font-size="13" lengthAdjust="spacing" textLength="55" x="289" y="356.4951">&#171;elimina&#187;</text></g><!--SRC=[bPEzRi8m54PtFyLLki1G1bHGGIXIIeFKhUhG_M8koCAnesltXrPzzpeqfI5nX9efiSztR7z9t5wP4XaBqCgGFvG4fTM7wa489kdHx3J1rV8-lyicaCmVsMx9MIO7sLeHUvi0ElWRhaT5YNAFEmBIgb06-PUewAGzE1Wcy2aWN8qrf-DPlff1tcAV5RsrqVLalPdUddQnjCQprPgu3Qx6sV8cFu5FL5gdlEN31L1ydTLHpsPExGpw5yQ6g8lbxrYGQI2YKnTSNwVHayAyq-2Wh6yUDaCXeg7ArYqZkAGrMyK5SXsJoffpNoHMsM97_V7viBQDRwx7rUxZegTN52-iiCupShPv3TMIaGe7_Oxkfz2eFBwB1jeqXDnYKIVJjEVDZ4PfzsSv9hU1rUe3EMJ_6PLe9EbZyXi0]--></g></svg>