<?xml version="1.0" encoding="us-ascii" standalone="no"?><svg xmlns="http://www.w3.org/2000/svg" xmlns:xlink="http://www.w3.org/1999/xlink" contentStyleType="text/css" height="335px" preserveAspectRatio="none" style="width:1729px;height:335px;background:#FFFFFF;" version="1.1" viewBox="0 0 1729 335" width="1729px" zoomAndPan="magnify"><defs/><g><!--cluster abrirAsignaturas--><g id="cluster_abrirAsignaturas"><path d="M169.5,6 L296.5,6 A3.75,3.75 0 0 1 299,8.5 L306,29.6094 L693.5,29.6094 A2.5,2.5 0 0 1 696,32.1094 L696,325.5 A2.5,2.5 0 0 1 693.5,328 L169.5,328 A2.5,2.5 0 0 1 167,325.5 L167,8.5 A2.5,2.5 0 0 1 169.5,6 " fill="none" style="stroke:#000000;stroke-width:1.5;"/><line style="stroke:#000000;stroke-width:1.5;" x1="167" x2="306" y1="29.6094" y2="29.6094"/><text fill="#000000" font-family="sans-serif" font-size="14" font-weight="bold" lengthAdjust="spacing" textLength="126" x="171" y="22.5332">abrirAsignaturas()</text></g><!--entity AbrirAsignaturasView--><g id="elem_AbrirAsignaturasView"><rect fill="#629EF9" height="37.6094" rx="2.5" ry="2.5" style="stroke:#181818;stroke-width:0.5;" width="154" x="429" y="42"/><text fill="#000000" font-family="sans-serif" font-size="14" lengthAdjust="spacing" textLength="134" x="439" y="66.5332">AbrirAsignaturasView</text></g><!--entity AsignaturasController--><g id="elem_AsignaturasController"><rect fill="#B5BD68" height="37.6094" rx="2.5" ry="2.5" style="stroke:#181818;stroke-width:0.5;" width="157" x="183.5" y="158"/><text fill="#000000" font-family="sans-serif" font-size="14" lengthAdjust="spacing" textLength="137" x="193.5" y="182.5332">AsignaturasController</text></g><!--entity AsignaturaRepository--><g id="elem_AsignaturaRepository"><rect fill="#F2AC4E" height="37.6094" rx="2.5" ry="2.5" style="stroke:#181818;stroke-width:0.5;" width="156" x="524" y="158"/><text fill="#000000" font-family="sans-serif" font-size="14" lengthAdjust="spacing" textLength="136" x="534" y="182.5332">AsignaturaRepository</text></g><!--entity Asignatura--><g id="elem_Asignatura"><rect fill="#F2AC4E" height="37.6094" rx="2.5" ry="2.5" style="stroke:#181818;stroke-width:0.5;" width="88" x="558" y="274"/><text fill="#000000" font-family="sans-serif" font-size="14" lengthAdjust="spacing" textLength="68" x="568" y="298.5332">Asignatura</text></g><!--entity SistemaDisponible--><g id="elem_SistemaDisponible"><rect fill="#CDEBA5" height="37.6094" rx="2.5" ry="2.5" style="stroke:#181818;stroke-width:0.5;" width="144" x="7" y="42"/><text fill="#000000" font-family="sans-serif" font-size="14" lengthAdjust="spacing" textLength="124" x="17" y="66.5332">:Sistema Disponible</text></g><!--entity CrearAsignatura--><g id="elem_CrearAsignatura"><rect fill="#CDEBA5" height="37.6094" rx="2.5" ry="2.5" style="stroke:#181818;stroke-width:0.5;" width="216" x="715" y="158"/><text fill="#000000" font-family="sans-serif" font-size="14" lengthAdjust="spacing" textLength="196" x="725" y="182.5332">:Collaboration CrearAsignatura</text></g><!--entity EditarAsignatura--><g id="elem_EditarAsignatura"><rect fill="#CDEBA5" height="37.6094" rx="2.5" ry="2.5" style="stroke:#181818;stroke-width:0.5;" width="217" x="966.5" y="158"/><text fill="#000000" font-family="sans-serif" font-size="14" lengthAdjust="spacing" textLength="197" x="976.5" y="182.5332">:Collaboration EditarAsignatura</text></g><!--entity EliminarAsignatura--><g id="elem_EliminarAsignatura"><rect fill="#CDEBA5" height="37.6094" rx="2.5" ry="2.5" style="stroke:#181818;stroke-width:0.5;" width="230" x="1219" y="158"/><text fill="#000000" font-family="sans-serif" font-size="14" lengthAdjust="spacing" textLength="210" x="1229" y="182.5332">:Collaboration EliminarAsignatura</text></g><!--entity ImportarAsignaturas--><g id="elem_ImportarAsignaturas"><rect fill="#CDEBA5" height="37.6094" rx="2.5" ry="2.5" style="stroke:#181818;stroke-width:0.5;" width="239" x="1484.5" y="158"/><text fill="#000000" font-family="sans-serif" font-size="14" lengthAdjust="spacing" textLength="219" x="1494.5" y="182.5332">:Collaboration ImportarAsignaturas</text></g><!--link SistemaDisponible to AbrirAsignaturasView--><g id="link_SistemaDisponible_AbrirAsignaturasView"><path d="M151.06,70.52 C193.13,76.07 238,82 238,82 C238,82 342,82 342,82 C342,82 380.3185,77.0913 422.8485,71.6513 " fill="none" id="SistemaDisponible-to-AbrirAsignaturasView" style="stroke:#181818;stroke-width:1.0;"/><polygon fill="#181818" points="428.8,70.89,419.3652,68.0642,423.8404,71.5244,420.3802,75.9996,428.8,70.89" style="stroke:#181818;stroke-width:1.0;"/><text fill="#000000" font-family="sans-serif" font-size="13" lengthAdjust="spacing" textLength="102" x="239" y="78.4951">abrirAsignaturas()</text></g><!--link AbrirAsignaturasView to SistemaDisponible--><g id="link_AbrirAsignaturasView_SistemaDisponible"><path d="M428.87,61 C350.04,61 234.53,61 157.43,61 " fill="none" id="AbrirAsignaturasView-to-SistemaDisponible" style="stroke:#181818;stroke-width:1.0;"/><polygon fill="#181818" points="151.43,61,160.43,65,156.43,61,160.43,57,151.43,61" style="stroke:#181818;stroke-width:1.0;"/><text fill="#000000" font-family="sans-serif" font-size="13" lengthAdjust="spacing" textLength="110" x="235" y="54.4951">completarGestion()</text></g><!--link AbrirAsignaturasView to AsignaturasController--><g id="link_AbrirAsignaturasView_AsignaturasController"><path d="M436.96,80.01 C384.75,93.63 322,110 322,110 C322,110 300.1945,133.9789 282.4345,153.5289 " fill="none" id="AbrirAsignaturasView-to-AsignaturasController" style="stroke:#181818;stroke-width:1.0;"/><polygon fill="#181818" points="278.4,157.97,287.4124,153.998,281.762,154.2691,281.491,148.6187,278.4,157.97" style="stroke:#181818;stroke-width:1.0;"/><text fill="#000000" font-family="sans-serif" font-size="13" lengthAdjust="spacing" textLength="105" x="323" y="124.4951">listarAsignaturas()</text></g><!--link AbrirAsignaturasView to AsignaturasController--><g id="link_AbrirAsignaturasView_AsignaturasController"><path d="M486.05,80.03 C464.44,99.58 433,128 433,128 C433,128 380.4567,142.7484 331.9367,156.3684 " fill="none" id="AbrirAsignaturasView-to-AsignaturasController-1" style="stroke:#181818;stroke-width:1.0;"/><polygon fill="#181818" points="326.16,157.99,335.9061,159.4088,330.9739,156.6387,333.744,151.7065,326.16,157.99" style="stroke:#181818;stroke-width:1.0;"/><text fill="#000000" font-family="sans-serif" font-size="13" lengthAdjust="spacing" textLength="144" x="453" y="124.4951">filtrarAsignaturas(criterio)</text></g><!--link AsignaturasController to AsignaturaRepository--><g id="link_AsignaturasController_AsignaturaRepository"><path d="M340.52,190.06 C366.19,194.33 388.25,198 388.25,198 C388.25,198 476.25,198 476.25,198 C476.25,198 492.3019,195.3183 517.8719,191.0483 " fill="none" id="AsignaturasController-to-AsignaturaRepository" style="stroke:#181818;stroke-width:1.0;"/><polygon fill="#181818" points="523.79,190.06,514.2541,187.597,518.8583,190.8836,515.5718,195.4878,523.79,190.06" style="stroke:#181818;stroke-width:1.0;"/><text fill="#000000" font-family="sans-serif" font-size="13" lengthAdjust="spacing" textLength="86" x="389.25" y="194.4951">obtenerTodas()</text></g><!--link AsignaturasController to AsignaturaRepository--><g id="link_AsignaturasController_AsignaturaRepository"><path d="M340.86,177 C395.88,177 463,177 517.86,177 " fill="none" id="AsignaturasController-to-AsignaturaRepository-1" style="stroke:#181818;stroke-width:1.0;"/><polygon fill="#181818" points="523.86,177,514.86,173,518.86,177,514.86,181,523.86,177" style="stroke:#181818;stroke-width:1.0;"/><text fill="#000000" font-family="sans-serif" font-size="13" lengthAdjust="spacing" textLength="147" x="358.75" y="170.4951">buscarPorCriterio(criterio)</text></g><!--link AsignaturaRepository to Asignatura--><g id="link_AsignaturaRepository_Asignatura"><path d="M602,196.06 C602,217.28 602,246.3 602,267.64 " fill="none" id="AsignaturaRepository-to-Asignatura" style="stroke:#181818;stroke-width:1.0;"/><polygon fill="#181818" points="602,273.64,606,264.64,602,268.64,598,264.64,602,273.64" style="stroke:#181818;stroke-width:1.0;"/><text fill="#000000" font-family="sans-serif" font-size="13" lengthAdjust="spacing" textLength="56" x="603" y="240.4951">&#171;accede&#187;</text></g><!--link AbrirAsignaturasView to CrearAsignatura--><g id="link_AbrirAsignaturasView_CrearAsignatura"><path d="M556.23,80.06 C615.5,101.38 707.814,134.5794 767.094,155.8994 " fill="none" id="AbrirAsignaturasView-to-CrearAsignatura" style="stroke:#181818;stroke-width:1.0;stroke-dasharray:7.0,7.0;"/><polygon fill="#181818" points="772.74,157.93,765.6248,151.1202,768.035,156.2379,762.9174,158.6481,772.74,157.93" style="stroke:#181818;stroke-width:1.0;"/><text fill="#000000" font-family="sans-serif" font-size="13" lengthAdjust="spacing" textLength="99" x="684" y="124.4951">crearAsignatura()</text></g><!--link AbrirAsignaturasView to EditarAsignatura--><g id="link_AbrirAsignaturasView_EditarAsignatura"><path d="M583.02,74.93 C667.73,89.14 792,110 792,110 C792,110 908.0369,137.0567 991.8269,156.6067 " fill="none" id="AbrirAsignaturasView-to-EditarAsignatura" style="stroke:#181818;stroke-width:1.0;stroke-dasharray:7.0,7.0;"/><polygon fill="#181818" points="997.67,157.97,989.8143,152.0297,992.8008,156.8339,987.9965,159.8204,997.67,157.97" style="stroke:#181818;stroke-width:1.0;"/><text fill="#000000" font-family="sans-serif" font-size="13" lengthAdjust="spacing" textLength="164" x="868" y="124.4951">editarAsignatura(Asignatura)</text></g><!--link AbrirAsignaturasView to EliminarAsignatura--><g id="link_AbrirAsignaturasView_EliminarAsignatura"><path d="M583.22,68.93 C731.38,82.22 1041,110 1041,110 C1041,110 1161.3268,137.1011 1248.0868,156.6511 " fill="none" id="AbrirAsignaturasView-to-EliminarAsignatura" style="stroke:#181818;stroke-width:1.0;stroke-dasharray:7.0,7.0;"/><polygon fill="#181818" points="1253.94,157.97,1246.0394,152.0894,1249.0623,156.8709,1244.2809,159.8938,1253.94,157.97" style="stroke:#181818;stroke-width:1.0;"/><text fill="#000000" font-family="sans-serif" font-size="13" lengthAdjust="spacing" textLength="177" x="1120" y="124.4951">eliminarAsignatura(Asignatura)</text></g><!--link AbrirAsignaturasView to ImportarAsignaturas--><g id="link_AbrirAsignaturasView_ImportarAsignaturas"><path d="M583.07,66.62 C783.57,78.65 1306,110 1306,110 C1306,110 1428.4821,137.122 1516.7121,156.672 " fill="none" id="AbrirAsignaturasView-to-ImportarAsignaturas" style="stroke:#181818;stroke-width:1.0;stroke-dasharray:7.0,7.0;"/><polygon fill="#181818" points="1522.57,157.97,1514.6485,152.1177,1517.6884,156.8883,1512.9178,159.9283,1522.57,157.97" style="stroke:#181818;stroke-width:1.0;"/><text fill="#000000" font-family="sans-serif" font-size="13" lengthAdjust="spacing" textLength="116" x="1386" y="124.4951">ImportarAsignaturas</text></g><!--SRC=[bP8nQyCm48Lt_Oh3NT8X6K8J6XCChkEKRgKjtMNx6aHaoPmKIYZzxvNJG1nPQHtZmNwy-tIwUsOhLCE9ro25Ghjl41ejz-qFOuIbvMeZ4MwoLVwGpY2ANuMnM7DO2TDe9Gg94N03H_caCjRmSiit2BmWGQaH6yNjZfpNlP4lZcuZ-6BWdiwXy-aYNoyWzRpl0ZzzQp4hglazT5oPLfQqb4Y-TprDixkyutt1HXjXDUt_jRBly5WoTn8lD74hj8ACa7SwFap8qmPGyahO7iONXt2ag8Ngatho0DPJtMWwQy0SO06TiLueO4pZ9BXFYA4V2SQ2rd7LGaARZbsApNaNZd8rv4D8I-UKaeH54hhjALHql5aWKZ7emg92UjFLRplNrXSxKt9wrfGTcmXtSohnBnV3SidB4YjCaaipRO_lxIk6KjUDH3VIHpHj02ukPJ99_8YxwdFXqYxQMZ_NCQ2dZ4wVVt5wgNQadZQC5GXr74pw3m00]--></g></svg>